<?xml version="1.0" encoding="utf-8" standalone="no"?>
<!DOCTYPE svg PUBLIC "-//W3C//DTD SVG 1.1//EN"
  "http://www.w3.org/Graphics/SVG/1.1/DTD/svg11.dtd">
<svg xmlns:xlink="http://www.w3.org/1999/xlink" width="565.500781pt" height="282.278125pt" viewBox="0 0 565.500781 282.278125" xmlns="http://www.w3.org/2000/svg" version="1.1">
 <metadata>
  <rdf:RDF xmlns:dc="http://purl.org/dc/elements/1.1/" xmlns:cc="http://creativecommons.org/ns#" xmlns:rdf="http://www.w3.org/1999/02/22-rdf-syntax-ns#">
   <cc:Work>
    <dc:type rdf:resource="http://purl.org/dc/dcmitype/StillImage"/>
    <dc:date>2026-07-14T07:01:47.045335</dc:date>
    <dc:format>image/svg+xml</dc:format>
    <dc:creator>
     <cc:Agent>
      <dc:title>Matplotlib v3.11.0, https://matplotlib.org/</dc:title>
     </cc:Agent>
    </dc:creator>
   </cc:Work>
  </rdf:RDF>
 </metadata>
 <defs>
  <style type="text/css">*{stroke-linejoin: round; stroke-linecap: butt}</style>
 </defs>
 <g id="figure_1">
  <g id="patch_1">
   <path d="M 0 282.278125 
L 565.500781 282.278125 
L 565.500781 0 
L 0 0 
z
" style="fill: #ffffff"/>
  </g>
  <g id="axes_1">
   <g id="patch_2">
    <path d="M 56.100781 244.078125 
L 558.300781 244.078125 
L 558.300781 22.318125 
L 56.100781 22.318125 
z
" style="fill: #ffffff"/>
   </g>
   <g id="matplotlib.axis_1">
    <g id="xtick_1">
     <g id="line2d_1">
      <path d="M 78.928054 244.078125 
L 78.928054 22.318125 
" clip-path="url(#pf59d35f944)" style="fill: none; stroke: #b0b0b0; stroke-opacity: 0.25; stroke-width: 0.8; stroke-linecap: square"/>
     </g>
     <g id="line2d_2">
      <defs>
       <path id="m5187201d1a" d="M 0 0 
L 0 3.5 
" style="stroke: #000000; stroke-width: 0.8"/>
      </defs>
      <g>
       <use xlink:href="#m5187201d1a" x="78.928054" y="244.078125" style="stroke: #000000; stroke-width: 0.8"/>
      </g>
     </g>
     <g id="text_1">
      <!-- 0 -->
      <g transform="translate(75.746804 258.675781) scale(0.1 -0.1)">
       <defs>
        <path id="DejaVuSans-13" d="M 2034 4250 
Q 1547 4250 1301 3770 
Q 1056 3291 1056 2328 
Q 1056 1369 1301 889 
Q 1547 409 2034 409 
Q 2525 409 2770 889 
Q 3016 1369 3016 2328 
Q 3016 3291 2770 3770 
Q 2525 4250 2034 4250 
z
M 2034 4750 
Q 2819 4750 3233 4129 
Q 3647 3509 3647 2328 
Q 3647 1150 3233 529 
Q 2819 -91 2034 -91 
Q 1250 -91 836 529 
Q 422 1150 422 2328 
Q 422 3509 836 4129 
Q 1250 4750 2034 4750 
z
" transform="scale(0.015625)"/>
       </defs>
       <use xlink:href="#DejaVuSans-13"/>
      </g>
     </g>
    </g>
    <g id="xtick_2">
     <g id="line2d_3">
      <path d="M 170.237145 244.078125 
L 170.237145 22.318125 
" clip-path="url(#pf59d35f944)" style="fill: none; stroke: #b0b0b0; stroke-opacity: 0.25; stroke-width: 0.8; stroke-linecap: square"/>
     </g>
     <g id="line2d_4">
      <g>
       <use xlink:href="#m5187201d1a" x="170.237145" y="244.078125" style="stroke: #000000; stroke-width: 0.8"/>
      </g>
     </g>
     <g id="text_2">
      <!-- 100 -->
      <g transform="translate(160.693395 258.675781) scale(0.1 -0.1)">
       <defs>
        <path id="DejaVuSans-14" d="M 794 531 
L 1825 531 
L 1825 4091 
L 703 3866 
L 703 4441 
L 1819 4666 
L 2450 4666 
L 2450 531 
L 3481 531 
L 3481 0 
L 794 0 
L 794 531 
z
" transform="scale(0.015625)"/>
       </defs>
       <use xlink:href="#DejaVuSans-14"/>
       <use xlink:href="#DejaVuSans-13" transform="translate(63.625 0)"/>
       <use xlink:href="#DejaVuSans-13" transform="translate(127.25 0)"/>
      </g>
     </g>
    </g>
    <g id="xtick_3">
     <g id="line2d_5">
      <path d="M 261.546236 244.078125 
L 261.546236 22.318125 
" clip-path="url(#pf59d35f944)" style="fill: none; stroke: #b0b0b0; stroke-opacity: 0.25; stroke-width: 0.8; stroke-linecap: square"/>
     </g>
     <g id="line2d_6">
      <g>
       <use xlink:href="#m5187201d1a" x="261.546236" y="244.078125" style="stroke: #000000; stroke-width: 0.8"/>
      </g>
     </g>
     <g id="text_3">
      <!-- 200 -->
      <g transform="translate(252.002486 258.675781) scale(0.1 -0.1)">
       <defs>
        <path id="DejaVuSans-15" d="M 1228 531 
L 3431 531 
L 3431 0 
L 469 0 
L 469 531 
Q 828 903 1448 1529 
Q 2069 2156 2228 2338 
Q 2531 2678 2651 2914 
Q 2772 3150 2772 3378 
Q 2772 3750 2511 3984 
Q 2250 4219 1831 4219 
Q 1534 4219 1204 4116 
Q 875 4013 500 3803 
L 500 4441 
Q 881 4594 1212 4672 
Q 1544 4750 1819 4750 
Q 2544 4750 2975 4387 
Q 3406 4025 3406 3419 
Q 3406 3131 3298 2873 
Q 3191 2616 2906 2266 
Q 2828 2175 2409 1742 
Q 1991 1309 1228 531 
z
" transform="scale(0.015625)"/>
       </defs>
       <use xlink:href="#DejaVuSans-15"/>
       <use xlink:href="#DejaVuSans-13" transform="translate(63.625 0)"/>
       <use xlink:href="#DejaVuSans-13" transform="translate(127.25 0)"/>
      </g>
     </g>
    </g>
    <g id="xtick_4">
     <g id="line2d_7">
      <path d="M 352.855327 244.078125 
L 352.855327 22.318125 
" clip-path="url(#pf59d35f944)" style="fill: none; stroke: #b0b0b0; stroke-opacity: 0.25; stroke-width: 0.8; stroke-linecap: square"/>
     </g>
     <g id="line2d_8">
      <g>
       <use xlink:href="#m5187201d1a" x="352.855327" y="244.078125" style="stroke: #000000; stroke-width: 0.8"/>
      </g>
     </g>
     <g id="text_4">
      <!-- 300 -->
      <g transform="translate(343.311577 258.675781) scale(0.1 -0.1)">
       <defs>
        <path id="DejaVuSans-16" d="M 2597 2516 
Q 3050 2419 3304 2112 
Q 3559 1806 3559 1356 
Q 3559 666 3084 287 
Q 2609 -91 1734 -91 
Q 1441 -91 1130 -33 
Q 819 25 488 141 
L 488 750 
Q 750 597 1062 519 
Q 1375 441 1716 441 
Q 2309 441 2620 675 
Q 2931 909 2931 1356 
Q 2931 1769 2642 2001 
Q 2353 2234 1838 2234 
L 1294 2234 
L 1294 2753 
L 1863 2753 
Q 2328 2753 2575 2939 
Q 2822 3125 2822 3475 
Q 2822 3834 2567 4026 
Q 2313 4219 1838 4219 
Q 1578 4219 1281 4162 
Q 984 4106 628 3988 
L 628 4550 
Q 988 4650 1302 4700 
Q 1616 4750 1894 4750 
Q 2613 4750 3031 4423 
Q 3450 4097 3450 3541 
Q 3450 3153 3228 2886 
Q 3006 2619 2597 2516 
z
" transform="scale(0.015625)"/>
       </defs>
       <use xlink:href="#DejaVuSans-16"/>
       <use xlink:href="#DejaVuSans-13" transform="translate(63.625 0)"/>
       <use xlink:href="#DejaVuSans-13" transform="translate(127.25 0)"/>
      </g>
     </g>
    </g>
    <g id="xtick_5">
     <g id="line2d_9">
      <path d="M 444.164418 244.078125 
L 444.164418 22.318125 
" clip-path="url(#pf59d35f944)" style="fill: none; stroke: #b0b0b0; stroke-opacity: 0.25; stroke-width: 0.8; stroke-linecap: square"/>
     </g>
     <g id="line2d_10">
      <g>
       <use xlink:href="#m5187201d1a" x="444.164418" y="244.078125" style="stroke: #000000; stroke-width: 0.8"/>
      </g>
     </g>
     <g id="text_5">
      <!-- 400 -->
      <g transform="translate(434.620668 258.675781) scale(0.1 -0.1)">
       <defs>
        <path id="DejaVuSans-17" d="M 2419 4116 
L 825 1625 
L 2419 1625 
L 2419 4116 
z
M 2253 4666 
L 3047 4666 
L 3047 1625 
L 3713 1625 
L 3713 1100 
L 3047 1100 
L 3047 0 
L 2419 0 
L 2419 1100 
L 313 1100 
L 313 1709 
L 2253 4666 
z
" transform="scale(0.015625)"/>
       </defs>
       <use xlink:href="#DejaVuSans-17"/>
       <use xlink:href="#DejaVuSans-13" transform="translate(63.625 0)"/>
       <use xlink:href="#DejaVuSans-13" transform="translate(127.25 0)"/>
      </g>
     </g>
    </g>
    <g id="xtick_6">
     <g id="line2d_11">
      <path d="M 535.473509 244.078125 
L 535.473509 22.318125 
" clip-path="url(#pf59d35f944)" style="fill: none; stroke: #b0b0b0; stroke-opacity: 0.25; stroke-width: 0.8; stroke-linecap: square"/>
     </g>
     <g id="line2d_12">
      <g>
       <use xlink:href="#m5187201d1a" x="535.473509" y="244.078125" style="stroke: #000000; stroke-width: 0.8"/>
      </g>
     </g>
     <g id="text_6">
      <!-- 500 -->
      <g transform="translate(525.929759 258.675781) scale(0.1 -0.1)">
       <defs>
        <path id="DejaVuSans-18" d="M 691 4666 
L 3169 4666 
L 3169 4134 
L 1269 4134 
L 1269 2991 
Q 1406 3038 1543 3061 
Q 1681 3084 1819 3084 
Q 2600 3084 3056 2656 
Q 3513 2228 3513 1497 
Q 3513 744 3044 326 
Q 2575 -91 1722 -91 
Q 1428 -91 1123 -41 
Q 819 9 494 109 
L 494 744 
Q 775 591 1075 516 
Q 1375 441 1709 441 
Q 2250 441 2565 725 
Q 2881 1009 2881 1497 
Q 2881 1984 2565 2268 
Q 2250 2553 1709 2553 
Q 1456 2553 1204 2497 
Q 953 2441 691 2322 
L 691 4666 
z
" transform="scale(0.015625)"/>
       </defs>
       <use xlink:href="#DejaVuSans-18"/>
       <use xlink:href="#DejaVuSans-13" transform="translate(63.625 0)"/>
       <use xlink:href="#DejaVuSans-13" transform="translate(127.25 0)"/>
      </g>
     </g>
    </g>
    <g id="text_7">
     <!-- Frequency (Hz) -->
     <g transform="translate(269.495312 272.675781) scale(0.1 -0.1)">
      <defs>
       <path id="DejaVuSans-29" d="M 628 4666 
L 3309 4666 
L 3309 4134 
L 1259 4134 
L 1259 2759 
L 3109 2759 
L 3109 2228 
L 1259 2228 
L 1259 0 
L 628 0 
L 628 4666 
z
" transform="scale(0.015625)"/>
       <path id="DejaVuSans-55" d="M 2631 2963 
Q 2534 3019 2420 3045 
Q 2306 3072 2169 3072 
Q 1681 3072 1420 2755 
Q 1159 2438 1159 1844 
L 1159 0 
L 581 0 
L 581 3500 
L 1159 3500 
L 1159 2956 
Q 1341 3275 1631 3429 
Q 1922 3584 2338 3584 
Q 2397 3584 2469 3576 
Q 2541 3569 2628 3553 
L 2631 2963 
z
" transform="scale(0.015625)"/>
       <path id="DejaVuSans-48" d="M 3597 1894 
L 3597 1613 
L 953 1613 
Q 991 1019 1311 708 
Q 1631 397 2203 397 
Q 2534 397 2845 478 
Q 3156 559 3463 722 
L 3463 178 
Q 3153 47 2828 -22 
Q 2503 -91 2169 -91 
Q 1331 -91 842 396 
Q 353 884 353 1716 
Q 353 2575 817 3079 
Q 1281 3584 2069 3584 
Q 2775 3584 3186 3129 
Q 3597 2675 3597 1894 
z
M 3022 2063 
Q 3016 2534 2758 2815 
Q 2500 3097 2075 3097 
Q 1594 3097 1305 2825 
Q 1016 2553 972 2059 
L 3022 2063 
z
" transform="scale(0.015625)"/>
       <path id="DejaVuSans-54" d="M 947 1747 
Q 947 1113 1208 752 
Q 1469 391 1925 391 
Q 2381 391 2643 752 
Q 2906 1113 2906 1747 
Q 2906 2381 2643 2742 
Q 2381 3103 1925 3103 
Q 1469 3103 1208 2742 
Q 947 2381 947 1747 
z
M 2906 525 
Q 2725 213 2448 61 
Q 2172 -91 1784 -91 
Q 1150 -91 751 415 
Q 353 922 353 1747 
Q 353 2572 751 3078 
Q 1150 3584 1784 3584 
Q 2172 3584 2448 3432 
Q 2725 3281 2906 2969 
L 2906 3500 
L 3481 3500 
L 3481 -1331 
L 2906 -1331 
L 2906 525 
z
" transform="scale(0.015625)"/>
       <path id="DejaVuSans-58" d="M 544 1381 
L 544 3500 
L 1119 3500 
L 1119 1403 
Q 1119 906 1312 657 
Q 1506 409 1894 409 
Q 2359 409 2629 706 
Q 2900 1003 2900 1516 
L 2900 3500 
L 3475 3500 
L 3475 0 
L 2900 0 
L 2900 538 
Q 2691 219 2414 64 
Q 2138 -91 1772 -91 
Q 1169 -91 856 284 
Q 544 659 544 1381 
z
M 1991 3584 
L 1991 3584 
z
" transform="scale(0.015625)"/>
       <path id="DejaVuSans-51" d="M 3513 2113 
L 3513 0 
L 2938 0 
L 2938 2094 
Q 2938 2591 2744 2837 
Q 2550 3084 2163 3084 
Q 1697 3084 1428 2787 
Q 1159 2491 1159 1978 
L 1159 0 
L 581 0 
L 581 3500 
L 1159 3500 
L 1159 2956 
Q 1366 3272 1645 3428 
Q 1925 3584 2291 3584 
Q 2894 3584 3203 3211 
Q 3513 2838 3513 2113 
z
" transform="scale(0.015625)"/>
       <path id="DejaVuSans-46" d="M 3122 3366 
L 3122 2828 
Q 2878 2963 2633 3030 
Q 2388 3097 2138 3097 
Q 1578 3097 1268 2742 
Q 959 2388 959 1747 
Q 959 1106 1268 751 
Q 1578 397 2138 397 
Q 2388 397 2633 464 
Q 2878 531 3122 666 
L 3122 134 
Q 2881 22 2623 -34 
Q 2366 -91 2075 -91 
Q 1284 -91 818 406 
Q 353 903 353 1747 
Q 353 2603 823 3093 
Q 1294 3584 2113 3584 
Q 2378 3584 2631 3529 
Q 2884 3475 3122 3366 
z
" transform="scale(0.015625)"/>
       <path id="DejaVuSans-5c" d="M 2059 -325 
Q 1816 -950 1584 -1140 
Q 1353 -1331 966 -1331 
L 506 -1331 
L 506 -850 
L 844 -850 
Q 1081 -850 1212 -737 
Q 1344 -625 1503 -206 
L 1606 56 
L 191 3500 
L 800 3500 
L 1894 763 
L 2988 3500 
L 3597 3500 
L 2059 -325 
z
" transform="scale(0.015625)"/>
       <path id="DejaVuSans-3" transform="scale(0.015625)"/>
       <path id="DejaVuSans-b" d="M 1984 4856 
Q 1566 4138 1362 3434 
Q 1159 2731 1159 2009 
Q 1159 1288 1364 580 
Q 1569 -128 1984 -844 
L 1484 -844 
Q 1016 -109 783 600 
Q 550 1309 550 2009 
Q 550 2706 781 3412 
Q 1013 4119 1484 4856 
L 1984 4856 
z
" transform="scale(0.015625)"/>
       <path id="DejaVuSans-2b" d="M 628 4666 
L 1259 4666 
L 1259 2753 
L 3553 2753 
L 3553 4666 
L 4184 4666 
L 4184 0 
L 3553 0 
L 3553 2222 
L 1259 2222 
L 1259 0 
L 628 0 
L 628 4666 
z
" transform="scale(0.015625)"/>
       <path id="DejaVuSans-5d" d="M 353 3500 
L 3084 3500 
L 3084 2975 
L 922 459 
L 3084 459 
L 3084 0 
L 275 0 
L 275 525 
L 2438 3041 
L 353 3041 
L 353 3500 
z
" transform="scale(0.015625)"/>
       <path id="DejaVuSans-c" d="M 513 4856 
L 1013 4856 
Q 1481 4119 1714 3412 
Q 1947 2706 1947 2009 
Q 1947 1309 1714 600 
Q 1481 -109 1013 -844 
L 513 -844 
Q 928 -128 1133 580 
Q 1338 1288 1338 2009 
Q 1338 2731 1133 3434 
Q 928 4138 513 4856 
z
" transform="scale(0.015625)"/>
      </defs>
      <use xlink:href="#DejaVuSans-29"/>
      <use xlink:href="#DejaVuSans-55" transform="translate(50.234375 0)"/>
      <use xlink:href="#DejaVuSans-48" transform="translate(89.140625 0)"/>
      <use xlink:href="#DejaVuSans-54" transform="translate(150.671875 0)"/>
      <use xlink:href="#DejaVuSans-58" transform="translate(214.15625 0)"/>
      <use xlink:href="#DejaVuSans-48" transform="translate(277.53125 0)"/>
      <use xlink:href="#DejaVuSans-51" transform="translate(339.0625 0)"/>
      <use xlink:href="#DejaVuSans-46" transform="translate(402.4375 0)"/>
      <use xlink:href="#DejaVuSans-5c" transform="translate(457.421875 0)"/>
      <use xlink:href="#DejaVuSans-3" transform="translate(516.609375 0)"/>
      <use xlink:href="#DejaVuSans-b" transform="translate(548.390625 0)"/>
      <use xlink:href="#DejaVuSans-2b" transform="translate(587.40625 0)"/>
      <use xlink:href="#DejaVuSans-5d" transform="translate(662.609375 0)"/>
      <use xlink:href="#DejaVuSans-c" transform="translate(715.09375 0)"/>
     </g>
    </g>
   </g>
   <g id="matplotlib.axis_2">
    <g id="ytick_1">
     <g id="line2d_13">
      <path d="M 56.100781 230.439336 
L 558.300781 230.439336 
" clip-path="url(#pf59d35f944)" style="fill: none; stroke: #b0b0b0; stroke-opacity: 0.25; stroke-width: 0.8; stroke-linecap: square"/>
     </g>
     <g id="line2d_14">
      <defs>
       <path id="me2ae2e777e" d="M 0 0 
L -3.5 0 
" style="stroke: #000000; stroke-width: 0.8"/>
      </defs>
      <g>
       <use xlink:href="#me2ae2e777e" x="56.100781" y="230.439336" style="stroke: #000000; stroke-width: 0.8"/>
      </g>
     </g>
     <g id="text_8">
      <!-- $\mathdefault{10^{-12}}$ -->
      <g transform="translate(21.200781 235.139336) scale(0.1 -0.1)">
       <defs>
        <path id="DejaVuSans-c9c" d="M 678 2272 
L 4684 2272 
L 4684 1741 
L 678 1741 
L 678 2272 
z
" transform="scale(0.015625)"/>
       </defs>
       <use xlink:href="#DejaVuSans-14" transform="translate(0 0.746875)"/>
       <use xlink:href="#DejaVuSans-13" transform="translate(63.623047 0.746875)"/>
       <use xlink:href="#DejaVuSans-c9c" transform="translate(128.203125 42.046875) scale(0.7)"/>
       <use xlink:href="#DejaVuSans-14" transform="translate(186.855469 42.046875) scale(0.7)"/>
       <use xlink:href="#DejaVuSans-15" transform="translate(231.391602 42.046875) scale(0.7)"/>
      </g>
     </g>
    </g>
    <g id="ytick_2">
     <g id="line2d_15">
      <path d="M 56.100781 194.455923 
L 558.300781 194.455923 
" clip-path="url(#pf59d35f944)" style="fill: none; stroke: #b0b0b0; stroke-opacity: 0.25; stroke-width: 0.8; stroke-linecap: square"/>
     </g>
     <g id="line2d_16">
      <g>
       <use xlink:href="#me2ae2e777e" x="56.100781" y="194.455923" style="stroke: #000000; stroke-width: 0.8"/>
      </g>
     </g>
     <g id="text_9">
      <!-- $\mathdefault{10^{-10}}$ -->
      <g transform="translate(21.200781 199.155923) scale(0.1 -0.1)">
       <use xlink:href="#DejaVuSans-14" transform="translate(0 0.746875)"/>
       <use xlink:href="#DejaVuSans-13" transform="translate(63.623047 0.746875)"/>
       <use xlink:href="#DejaVuSans-c9c" transform="translate(128.203125 42.046875) scale(0.7)"/>
       <use xlink:href="#DejaVuSans-14" transform="translate(186.855469 42.046875) scale(0.7)"/>
       <use xlink:href="#DejaVuSans-13" transform="translate(231.391602 42.046875) scale(0.7)"/>
      </g>
     </g>
    </g>
    <g id="ytick_3">
     <g id="line2d_17">
      <path d="M 56.100781 158.472511 
L 558.300781 158.472511 
" clip-path="url(#pf59d35f944)" style="fill: none; stroke: #b0b0b0; stroke-opacity: 0.25; stroke-width: 0.8; stroke-linecap: square"/>
     </g>
     <g id="line2d_18">
      <g>
       <use xlink:href="#me2ae2e777e" x="56.100781" y="158.472511" style="stroke: #000000; stroke-width: 0.8"/>
      </g>
     </g>
     <g id="text_10">
      <!-- $\mathdefault{10^{-8}}$ -->
      <g transform="translate(25.600781 163.172511) scale(0.1 -0.1)">
       <defs>
        <path id="DejaVuSans-1b" d="M 2034 2216 
Q 1584 2216 1326 1975 
Q 1069 1734 1069 1313 
Q 1069 891 1326 650 
Q 1584 409 2034 409 
Q 2484 409 2743 651 
Q 3003 894 3003 1313 
Q 3003 1734 2745 1975 
Q 2488 2216 2034 2216 
z
M 1403 2484 
Q 997 2584 770 2862 
Q 544 3141 544 3541 
Q 544 4100 942 4425 
Q 1341 4750 2034 4750 
Q 2731 4750 3128 4425 
Q 3525 4100 3525 3541 
Q 3525 3141 3298 2862 
Q 3072 2584 2669 2484 
Q 3125 2378 3379 2068 
Q 3634 1759 3634 1313 
Q 3634 634 3220 271 
Q 2806 -91 2034 -91 
Q 1263 -91 848 271 
Q 434 634 434 1313 
Q 434 1759 690 2068 
Q 947 2378 1403 2484 
z
M 1172 3481 
Q 1172 3119 1398 2916 
Q 1625 2713 2034 2713 
Q 2441 2713 2670 2916 
Q 2900 3119 2900 3481 
Q 2900 3844 2670 4047 
Q 2441 4250 2034 4250 
Q 1625 4250 1398 4047 
Q 1172 3844 1172 3481 
z
" transform="scale(0.015625)"/>
       </defs>
       <use xlink:href="#DejaVuSans-14" transform="translate(0 0.746875)"/>
       <use xlink:href="#DejaVuSans-13" transform="translate(63.623047 0.746875)"/>
       <use xlink:href="#DejaVuSans-c9c" transform="translate(128.203125 42.046875) scale(0.7)"/>
       <use xlink:href="#DejaVuSans-1b" transform="translate(186.855469 42.046875) scale(0.7)"/>
      </g>
     </g>
    </g>
    <g id="ytick_4">
     <g id="line2d_19">
      <path d="M 56.100781 122.489098 
L 558.300781 122.489098 
" clip-path="url(#pf59d35f944)" style="fill: none; stroke: #b0b0b0; stroke-opacity: 0.25; stroke-width: 0.8; stroke-linecap: square"/>
     </g>
     <g id="line2d_20">
      <g>
       <use xlink:href="#me2ae2e777e" x="56.100781" y="122.489098" style="stroke: #000000; stroke-width: 0.8"/>
      </g>
     </g>
     <g id="text_11">
      <!-- $\mathdefault{10^{-6}}$ -->
      <g transform="translate(25.600781 127.189098) scale(0.1 -0.1)">
       <defs>
        <path id="DejaVuSans-19" d="M 2113 2584 
Q 1688 2584 1439 2293 
Q 1191 2003 1191 1497 
Q 1191 994 1439 701 
Q 1688 409 2113 409 
Q 2538 409 2786 701 
Q 3034 994 3034 1497 
Q 3034 2003 2786 2293 
Q 2538 2584 2113 2584 
z
M 3366 4563 
L 3366 3988 
Q 3128 4100 2886 4159 
Q 2644 4219 2406 4219 
Q 1781 4219 1451 3797 
Q 1122 3375 1075 2522 
Q 1259 2794 1537 2939 
Q 1816 3084 2150 3084 
Q 2853 3084 3261 2657 
Q 3669 2231 3669 1497 
Q 3669 778 3244 343 
Q 2819 -91 2113 -91 
Q 1303 -91 875 529 
Q 447 1150 447 2328 
Q 447 3434 972 4092 
Q 1497 4750 2381 4750 
Q 2619 4750 2861 4703 
Q 3103 4656 3366 4563 
z
" transform="scale(0.015625)"/>
       </defs>
       <use xlink:href="#DejaVuSans-14" transform="translate(0 0.746875)"/>
       <use xlink:href="#DejaVuSans-13" transform="translate(63.623047 0.746875)"/>
       <use xlink:href="#DejaVuSans-c9c" transform="translate(128.203125 42.046875) scale(0.7)"/>
       <use xlink:href="#DejaVuSans-19" transform="translate(186.855469 42.046875) scale(0.7)"/>
      </g>
     </g>
    </g>
    <g id="ytick_5">
     <g id="line2d_21">
      <path d="M 56.100781 86.505686 
L 558.300781 86.505686 
" clip-path="url(#pf59d35f944)" style="fill: none; stroke: #b0b0b0; stroke-opacity: 0.25; stroke-width: 0.8; stroke-linecap: square"/>
     </g>
     <g id="line2d_22">
      <g>
       <use xlink:href="#me2ae2e777e" x="56.100781" y="86.505686" style="stroke: #000000; stroke-width: 0.8"/>
      </g>
     </g>
     <g id="text_12">
      <!-- $\mathdefault{10^{-4}}$ -->
      <g transform="translate(25.600781 91.155686) scale(0.1 -0.1)">
       <use xlink:href="#DejaVuSans-14" transform="translate(0 0.665625)"/>
       <use xlink:href="#DejaVuSans-13" transform="translate(63.623047 0.665625)"/>
       <use xlink:href="#DejaVuSans-c9c" transform="translate(128.203125 41.965625) scale(0.7)"/>
       <use xlink:href="#DejaVuSans-17" transform="translate(186.855469 41.965625) scale(0.7)"/>
      </g>
     </g>
    </g>
    <g id="ytick_6">
     <g id="line2d_23">
      <path d="M 56.100781 50.522273 
L 558.300781 50.522273 
" clip-path="url(#pf59d35f944)" style="fill: none; stroke: #b0b0b0; stroke-opacity: 0.25; stroke-width: 0.8; stroke-linecap: square"/>
     </g>
     <g id="line2d_24">
      <g>
       <use xlink:href="#me2ae2e777e" x="56.100781" y="50.522273" style="stroke: #000000; stroke-width: 0.8"/>
      </g>
     </g>
     <g id="text_13">
      <!-- $\mathdefault{10^{-2}}$ -->
      <g transform="translate(25.600781 55.222273) scale(0.1 -0.1)">
       <use xlink:href="#DejaVuSans-14" transform="translate(0 0.746875)"/>
       <use xlink:href="#DejaVuSans-13" transform="translate(63.623047 0.746875)"/>
       <use xlink:href="#DejaVuSans-c9c" transform="translate(128.203125 42.046875) scale(0.7)"/>
       <use xlink:href="#DejaVuSans-15" transform="translate(186.855469 42.046875) scale(0.7)"/>
      </g>
     </g>
    </g>
    <g id="text_14">
     <!-- PSD (unit²/Hz) -->
     <g transform="translate(14.798438 168.487969) rotate(-90) scale(0.1 -0.1)">
      <defs>
       <path id="DejaVuSans-33" d="M 1259 4147 
L 1259 2394 
L 2053 2394 
Q 2494 2394 2734 2622 
Q 2975 2850 2975 3272 
Q 2975 3691 2734 3919 
Q 2494 4147 2053 4147 
L 1259 4147 
z
M 628 4666 
L 2053 4666 
Q 2838 4666 3239 4311 
Q 3641 3956 3641 3272 
Q 3641 2581 3239 2228 
Q 2838 1875 2053 1875 
L 1259 1875 
L 1259 0 
L 628 0 
L 628 4666 
z
" transform="scale(0.015625)"/>
       <path id="DejaVuSans-36" d="M 3425 4513 
L 3425 3897 
Q 3066 4069 2747 4153 
Q 2428 4238 2131 4238 
Q 1616 4238 1336 4038 
Q 1056 3838 1056 3469 
Q 1056 3159 1242 3001 
Q 1428 2844 1947 2747 
L 2328 2669 
Q 3034 2534 3370 2195 
Q 3706 1856 3706 1288 
Q 3706 609 3251 259 
Q 2797 -91 1919 -91 
Q 1588 -91 1214 -16 
Q 841 59 441 206 
L 441 856 
Q 825 641 1194 531 
Q 1563 422 1919 422 
Q 2459 422 2753 634 
Q 3047 847 3047 1241 
Q 3047 1584 2836 1778 
Q 2625 1972 2144 2069 
L 1759 2144 
Q 1053 2284 737 2584 
Q 422 2884 422 3419 
Q 422 4038 858 4394 
Q 1294 4750 2059 4750 
Q 2388 4750 2728 4690 
Q 3069 4631 3425 4513 
z
" transform="scale(0.015625)"/>
       <path id="DejaVuSans-27" d="M 1259 4147 
L 1259 519 
L 2022 519 
Q 2988 519 3436 956 
Q 3884 1394 3884 2338 
Q 3884 3275 3436 3711 
Q 2988 4147 2022 4147 
L 1259 4147 
z
M 628 4666 
L 1925 4666 
Q 3281 4666 3915 4102 
Q 4550 3538 4550 2338 
Q 4550 1131 3912 565 
Q 3275 0 1925 0 
L 628 0 
L 628 4666 
z
" transform="scale(0.015625)"/>
       <path id="DejaVuSans-4c" d="M 603 3500 
L 1178 3500 
L 1178 0 
L 603 0 
L 603 3500 
z
M 603 4863 
L 1178 4863 
L 1178 4134 
L 603 4134 
L 603 4863 
z
" transform="scale(0.015625)"/>
       <path id="DejaVuSans-57" d="M 1172 4494 
L 1172 3500 
L 2356 3500 
L 2356 3053 
L 1172 3053 
L 1172 1153 
Q 1172 725 1289 603 
Q 1406 481 1766 481 
L 2356 481 
L 2356 0 
L 1766 0 
Q 1100 0 847 248 
Q 594 497 594 1153 
L 594 3053 
L 172 3053 
L 172 3500 
L 594 3500 
L 594 4494 
L 1172 4494 
z
" transform="scale(0.015625)"/>
       <path id="DejaVuSans-74" d="M 838 2444 
L 2163 2444 
L 2163 2088 
L 294 2088 
L 294 2431 
Q 400 2528 597 2703 
Q 1672 3656 1672 3950 
Q 1672 4156 1509 4282 
Q 1347 4409 1081 4409 
Q 919 4409 728 4354 
Q 538 4300 313 4191 
L 313 4575 
Q 553 4663 761 4706 
Q 969 4750 1147 4750 
Q 1600 4750 1872 4544 
Q 2144 4338 2144 4000 
Q 2144 3566 1109 2678 
Q 934 2528 838 2444 
z
" transform="scale(0.015625)"/>
       <path id="DejaVuSans-12" d="M 1625 4666 
L 2156 4666 
L 531 -594 
L 0 -594 
L 1625 4666 
z
" transform="scale(0.015625)"/>
      </defs>
      <use xlink:href="#DejaVuSans-33"/>
      <use xlink:href="#DejaVuSans-36" transform="translate(60.296875 0)"/>
      <use xlink:href="#DejaVuSans-27" transform="translate(123.78125 0)"/>
      <use xlink:href="#DejaVuSans-3" transform="translate(200.78125 0)"/>
      <use xlink:href="#DejaVuSans-b" transform="translate(232.5625 0)"/>
      <use xlink:href="#DejaVuSans-58" transform="translate(271.578125 0)"/>
      <use xlink:href="#DejaVuSans-51" transform="translate(334.953125 0)"/>
      <use xlink:href="#DejaVuSans-4c" transform="translate(398.328125 0)"/>
      <use xlink:href="#DejaVuSans-57" transform="translate(426.109375 0)"/>
      <use xlink:href="#DejaVuSans-74" transform="translate(465.3125 0)"/>
      <use xlink:href="#DejaVuSans-12" transform="translate(505.40625 0)"/>
      <use xlink:href="#DejaVuSans-2b" transform="translate(539.09375 0)"/>
      <use xlink:href="#DejaVuSans-5d" transform="translate(614.296875 0)"/>
      <use xlink:href="#DejaVuSans-c" transform="translate(666.78125 0)"/>
     </g>
    </g>
   </g>
   <g id="line2d_25">
    <path d="M 78.928054 113.320758 
L 79.841145 120.870929 
L 80.754236 112.369971 
L 81.667327 110.27505 
L 82.580418 103.513164 
L 83.493509 135.341321 
L 84.406599 94.013902 
L 85.31969 93.186894 
L 86.232781 103.234923 
L 87.145872 102.713407 
L 88.058963 119.19308 
L 88.972054 115.840163 
L 89.885145 102.820201 
L 90.798236 120.3681 
L 92.624418 87.005428 
L 93.537509 84.879889 
L 94.450599 87.768898 
L 95.36369 94.418017 
L 96.276781 103.45938 
L 97.189872 104.474008 
L 98.102963 100.050809 
L 99.016054 105.279965 
L 99.929145 104.406524 
L 100.842236 115.916471 
L 101.755327 105.816581 
L 102.668418 104.715494 
L 103.581509 97.559132 
L 104.494599 84.800443 
L 105.40769 90.29364 
L 106.320781 115.465514 
L 107.233872 103.02994 
L 108.146963 92.416924 
L 109.060054 91.776895 
L 109.973145 99.837344 
L 110.886236 100.57298 
L 111.799327 102.95892 
L 112.712418 110.661564 
L 113.625509 104.075005 
L 114.538599 43.234008 
L 115.45169 32.398125 
L 116.364781 43.045468 
L 117.277872 108.325855 
L 118.190963 128.081406 
L 119.104054 118.782359 
L 120.017145 103.078331 
L 120.930236 105.292875 
L 121.843327 95.201839 
L 122.756418 92.769576 
L 123.669509 102.281841 
L 124.582599 101.351511 
L 125.49569 96.13444 
L 126.408781 99.065334 
L 127.321872 119.240016 
L 128.234963 113.116486 
L 129.148054 112.107076 
L 130.061145 94.044795 
L 130.974236 90.180892 
L 131.887327 98.36359 
L 132.800418 113.885359 
L 133.713509 103.475732 
L 134.626599 98.070966 
L 135.53969 100.018052 
L 136.452781 109.32042 
L 137.365872 93.970303 
L 138.278963 94.714081 
L 139.192054 137.588905 
L 140.105145 105.241745 
L 141.018236 111.819643 
L 141.931327 124.979313 
L 142.844418 96.896235 
L 143.757509 90.536946 
L 144.670599 93.179296 
L 145.58369 100.78687 
L 146.496781 103.169697 
L 147.409872 97.279335 
L 148.322963 101.46018 
L 149.236054 92.389187 
L 150.149145 89.455224 
L 151.062236 92.678899 
L 151.975327 94.516354 
L 152.888418 89.098808 
L 153.801509 97.037296 
L 154.714599 96.569119 
L 155.62769 103.185761 
L 156.540781 103.576299 
L 157.453872 88.271371 
L 158.366963 82.480613 
L 159.280054 85.648644 
L 160.193145 93.043344 
L 161.106236 95.013951 
L 162.019327 106.13777 
L 162.932418 111.604454 
L 163.845509 100.052356 
L 164.758599 113.816335 
L 165.67169 111.453746 
L 166.584781 100.89442 
L 167.497872 103.399833 
L 168.410963 109.001194 
L 170.237145 97.368049 
L 171.150236 85.545908 
L 172.063327 81.822698 
L 173.889509 102.636176 
L 174.802599 105.994952 
L 175.71569 100.943922 
L 176.628781 100.857606 
L 177.541872 92.84281 
L 178.454963 89.596996 
L 179.368054 105.109589 
L 180.281145 91.782287 
L 181.194236 86.524571 
L 182.107327 87.118106 
L 183.020418 92.276442 
L 183.933509 103.925036 
L 184.846599 104.574344 
L 185.75969 93.339743 
L 186.672781 98.381983 
L 187.585872 115.275351 
L 188.498963 101.080934 
L 189.412054 88.910182 
L 190.325145 87.828924 
L 191.238236 121.277785 
L 192.151327 93.393868 
L 193.064418 92.666971 
L 193.977509 91.11856 
L 194.890599 106.589257 
L 195.80369 85.91371 
L 196.716781 86.137553 
L 197.629872 97.541244 
L 198.542963 91.311972 
L 199.456054 95.729176 
L 200.369145 104.042564 
L 201.282236 94.104816 
L 202.195327 87.221852 
L 203.108418 99.350339 
L 204.021509 109.984699 
L 204.934599 91.562453 
L 205.84769 105.111755 
L 206.760781 105.63231 
L 207.673872 98.095185 
L 208.586963 95.763189 
L 209.500054 98.035161 
L 210.413145 127.730209 
L 211.326236 96.265844 
L 212.239327 100.122556 
L 213.152418 124.487034 
L 214.065509 113.140529 
L 214.978599 97.04798 
L 215.89169 86.159384 
L 216.804781 92.266415 
L 217.717872 104.085239 
L 218.630963 104.210657 
L 219.544054 91.517077 
L 220.457145 90.66872 
L 221.370236 91.353702 
L 222.283327 85.378472 
L 223.196418 92.941911 
L 224.109509 105.155128 
L 225.022599 99.706023 
L 225.93569 93.153214 
L 226.848781 90.702616 
L 227.761872 90.808659 
L 228.674963 86.872738 
L 229.588054 88.366089 
L 230.501145 101.242072 
L 231.414236 106.121362 
L 232.327327 100.549719 
L 233.240418 93.085078 
L 234.153509 89.766592 
L 235.066599 91.184947 
L 235.97969 91.895464 
L 236.892781 86.030481 
L 237.805872 89.461416 
L 238.718963 101.094594 
L 239.632054 119.428395 
L 240.545145 103.251193 
L 241.458236 93.545025 
L 242.371327 101.997679 
L 243.284418 120.981096 
L 244.197509 108.467004 
L 245.110599 114.952741 
L 246.02369 98.704884 
L 246.936781 108.224484 
L 247.849872 102.967493 
L 248.762963 89.770523 
L 249.676054 94.191474 
L 251.502236 109.988913 
L 252.415327 107.019223 
L 253.328418 107.366194 
L 254.241509 90.41722 
L 255.154599 88.823485 
L 256.06769 92.771637 
L 256.980781 94.00683 
L 257.893872 104.13783 
L 258.806963 94.059747 
L 259.720054 95.448195 
L 260.633145 109.784723 
L 261.546236 111.32296 
L 262.459327 96.979069 
L 263.372418 107.228054 
L 264.285509 133.059885 
L 265.198599 97.066835 
L 266.11169 89.717619 
L 267.024781 90.333516 
L 267.937872 92.915046 
L 268.850963 98.738371 
L 269.764054 111.200237 
L 270.677145 90.279066 
L 271.590236 85.491648 
L 272.503327 93.145952 
L 273.416418 99.063054 
L 274.329509 83.716699 
L 276.15569 92.551257 
L 277.068781 98.345277 
L 277.981872 110.668568 
L 278.894963 94.3476 
L 279.808054 89.826856 
L 280.721145 97.108783 
L 281.634236 100.798955 
L 282.547327 87.989328 
L 283.460418 88.688912 
L 284.373509 97.436702 
L 285.286599 99.527552 
L 286.19969 94.860153 
L 287.112781 105.542944 
L 288.025872 100.956971 
L 288.938963 91.167468 
L 289.852054 102.480009 
L 290.765145 119.461609 
L 291.678236 123.928356 
L 292.591327 96.803676 
L 293.504418 95.205796 
L 294.417509 101.039024 
L 295.330599 86.249457 
L 296.24369 98.777189 
L 297.156781 99.625324 
L 298.069872 120.695928 
L 298.982963 94.805925 
L 299.896054 94.584103 
L 300.809145 102.745377 
L 301.722236 88.429507 
L 302.635327 98.187513 
L 303.548418 100.304282 
L 304.461509 103.732727 
L 305.374599 127.666405 
L 306.28769 97.140777 
L 307.200781 104.588949 
L 308.113872 98.118486 
L 309.026963 97.769546 
L 309.940054 104.759108 
L 310.853145 88.650674 
L 311.766236 91.686875 
L 312.679327 102.700973 
L 313.592418 106.847273 
L 314.505509 97.90415 
L 315.418599 97.163578 
L 316.33169 95.550309 
L 317.244781 99.779324 
L 318.157872 103.355988 
L 319.070963 99.073494 
L 319.984054 98.504885 
L 320.897145 104.301412 
L 321.810236 89.340226 
L 322.723327 90.363875 
L 323.636418 103.958045 
L 324.549509 106.666134 
L 325.462599 93.815043 
L 326.37569 103.866893 
L 327.288781 93.092407 
L 328.201872 96.394431 
L 329.114963 103.221336 
L 330.028054 131.703152 
L 330.941145 91.690655 
L 331.854236 93.940632 
L 332.767327 98.904623 
L 333.680418 94.393919 
L 334.593509 110.177466 
L 335.506599 98.211108 
L 336.41969 97.409992 
L 337.332781 110.56024 
L 338.245872 99.21701 
L 339.158963 91.972598 
L 340.072054 97.787557 
L 340.985145 123.828211 
L 341.898236 99.714713 
L 342.811327 106.263019 
L 343.724418 97.344159 
L 344.637509 93.216007 
L 345.550599 94.696071 
L 346.46369 111.296138 
L 347.376781 98.554402 
L 348.289872 98.266737 
L 349.202963 95.246444 
L 350.116054 93.126767 
L 351.029145 96.883577 
L 351.942236 99.123919 
L 352.855327 103.334188 
L 353.768418 131.543796 
L 354.681509 113.994129 
L 355.594599 124.012636 
L 356.50769 102.802889 
L 357.420781 111.680839 
L 358.333872 89.698712 
L 359.246963 86.22846 
L 360.160054 92.612564 
L 361.073145 93.934735 
L 361.986236 115.512048 
L 363.812418 92.605237 
L 364.725509 97.216845 
L 365.638599 104.339285 
L 366.55169 103.812133 
L 367.464781 94.184579 
L 368.377872 93.075634 
L 369.290963 98.436408 
L 370.204054 46.763222 
L 371.117145 35.719635 
L 372.030236 46.50038 
L 372.943327 97.421657 
L 373.856418 86.224164 
L 374.769509 91.731052 
L 375.682599 93.111218 
L 376.59569 104.760265 
L 377.508781 102.262974 
L 378.421872 91.138453 
L 379.334963 88.143323 
L 380.248054 91.306 
L 381.161145 96.502568 
L 382.074236 124.717606 
L 382.987327 92.442201 
L 383.900418 95.402118 
L 384.813509 103.376502 
L 385.726599 137.637285 
L 386.63969 131.411335 
L 387.552781 97.628022 
L 388.465872 93.022801 
L 389.378963 98.280691 
L 390.292054 96.065913 
L 391.205145 97.680358 
L 392.118236 131.388635 
L 393.031327 104.677101 
L 393.944418 99.20287 
L 394.857509 100.552569 
L 395.770599 123.774053 
L 396.68369 104.524298 
L 397.596781 93.448725 
L 398.509872 100.67226 
L 399.422963 100.913563 
L 400.336054 94.141192 
L 401.249145 94.368304 
L 402.162236 114.124737 
L 403.075327 94.773001 
L 403.988418 85.682549 
L 404.901509 86.846101 
L 405.814599 92.061685 
L 406.72769 93.88868 
L 408.553872 109.913263 
L 409.466963 105.714458 
L 410.380054 88.355402 
L 411.293145 93.520433 
L 412.206236 97.135862 
L 413.119327 114.196085 
L 414.032418 102.801615 
L 414.945509 99.000704 
L 415.858599 101.355839 
L 416.77169 126.750555 
L 417.684781 100.204829 
L 418.597872 103.035998 
L 419.510963 104.615474 
L 420.424054 97.662914 
L 421.337145 101.965918 
L 422.250236 113.278137 
L 423.163327 99.11797 
L 424.076418 91.915922 
L 424.989509 98.023814 
L 425.902599 113.254461 
L 426.81569 104.042861 
L 427.728781 109.224763 
L 428.641872 97.717185 
L 429.554963 99.855477 
L 430.468054 107.840507 
L 431.381145 92.034329 
L 432.294236 84.782178 
L 433.207327 88.157207 
L 434.120418 112.215167 
L 435.033509 97.72658 
L 435.946599 97.676187 
L 436.85969 105.819158 
L 437.772781 112.276884 
L 438.685872 112.041499 
L 439.598963 103.92729 
L 440.512054 105.540585 
L 441.425145 96.335498 
L 442.338236 94.444928 
L 443.251327 94.130706 
L 444.164418 120.04483 
L 445.077509 99.013573 
L 445.990599 100.154196 
L 446.90369 96.529445 
L 447.816781 99.995747 
L 448.729872 93.823206 
L 449.642963 92.677507 
L 450.556054 120.602253 
L 451.469145 103.103973 
L 452.382236 110.60762 
L 453.295327 111.994828 
L 454.208418 92.86294 
L 455.121509 84.350565 
L 456.034599 86.881248 
L 457.860781 119.03219 
L 458.773872 100.5093 
L 459.686963 100.30265 
L 460.600054 85.181761 
L 461.513145 85.268467 
L 462.426236 98.404829 
L 463.339327 123.722126 
L 464.252418 118.805833 
L 465.165509 102.92417 
L 466.078599 96.368208 
L 466.99169 101.191144 
L 467.904781 93.220563 
L 468.817872 92.42426 
L 469.730963 96.814483 
L 470.644054 103.747544 
L 471.557145 85.186345 
L 472.470236 88.073055 
L 473.383327 92.580403 
L 474.296418 82.948609 
L 475.209509 89.225297 
L 476.122599 91.568663 
L 477.03569 94.47357 
L 477.948781 131.921353 
L 478.861872 103.151304 
L 479.774963 90.805356 
L 480.688054 96.795965 
L 481.601145 106.129954 
L 482.514236 133.469491 
L 483.427327 122.587857 
L 485.253509 112.492864 
L 486.166599 102.713727 
L 487.07969 106.679952 
L 487.992781 109.563915 
L 488.905872 110.969053 
L 489.818963 111.653737 
L 490.732054 106.480426 
L 491.645145 102.714509 
L 492.558236 100.924779 
L 493.471327 89.294971 
L 494.384418 89.934789 
L 495.297509 105.203651 
L 496.210599 93.57163 
L 497.12369 103.12735 
L 498.036781 103.472193 
L 498.949872 98.564967 
L 499.862963 99.279818 
L 500.776054 96.630204 
L 501.689145 105.131616 
L 502.602236 116.973231 
L 503.515327 98.463697 
L 504.428418 107.567347 
L 505.341509 119.685882 
L 506.254599 102.631553 
L 507.16769 101.527743 
L 508.080781 98.389751 
L 508.993872 104.70379 
L 509.906963 100.265605 
L 510.820054 91.590125 
L 511.733145 95.355104 
L 512.646236 104.490166 
L 513.559327 97.3715 
L 514.472418 106.200663 
L 515.385509 99.913444 
L 516.298599 99.234765 
L 517.21169 97.145873 
L 518.124781 106.913994 
L 519.037872 119.350558 
L 519.950963 105.073015 
L 520.864054 103.345738 
L 521.777145 87.324816 
L 523.603327 106.234801 
L 524.516418 116.962475 
L 525.429509 94.364047 
L 527.25569 105.224375 
L 528.168781 112.318733 
L 529.081872 117.295824 
L 529.994963 103.214971 
L 530.908054 93.482374 
L 531.821145 93.443902 
L 532.734236 118.32443 
L 533.647327 99.028899 
L 534.560418 117.746297 
L 535.473509 109.609636 
L 535.473509 109.609636 
" clip-path="url(#pf59d35f944)" style="fill: none; stroke: #1f77b4; stroke-width: 1.5; stroke-linecap: square"/>
   </g>
   <g id="line2d_26">
    <path d="M 78.928054 104.384882 
L 79.841145 103.176538 
L 80.754236 131.018266 
L 81.667327 152.766638 
L 82.580418 167.123918 
L 83.493509 177.498924 
L 84.406599 177.906435 
L 85.31969 191.617119 
L 86.232781 184.609748 
L 87.145872 172.934877 
L 88.058963 177.603794 
L 89.885145 150.662219 
L 90.798236 177.958393 
L 91.711327 134.496866 
L 92.624418 114.686303 
L 93.537509 109.914818 
L 94.450599 108.39724 
L 95.36369 111.843799 
L 96.276781 118.705166 
L 97.189872 112.980834 
L 98.102963 109.629456 
L 99.016054 111.74015 
L 99.929145 110.309859 
L 100.842236 121.523561 
L 101.755327 108.916961 
L 102.668418 107.982691 
L 103.581509 99.323098 
L 104.494599 86.725131 
L 105.40769 91.992581 
L 106.320781 117.433779 
L 107.233872 104.025561 
L 108.146963 93.245617 
L 109.060054 92.545718 
L 109.973145 100.472085 
L 110.886236 101.094982 
L 111.799327 103.389931 
L 112.712418 111.029208 
L 113.625509 104.410898 
L 114.538599 43.462531 
L 115.45169 32.626319 
L 116.364781 43.273236 
L 117.277872 108.484242 
L 118.190963 128.083929 
L 119.104054 118.962832 
L 120.017145 103.192114 
L 120.930236 105.385478 
L 121.843327 95.284545 
L 122.756418 92.843895 
L 123.669509 102.347276 
L 124.582599 101.410826 
L 125.49569 96.186294 
L 126.408781 99.109704 
L 127.321872 119.293211 
L 128.234963 113.150142 
L 129.148054 112.137854 
L 130.061145 94.073151 
L 130.974236 90.205426 
L 131.887327 98.388526 
L 132.800418 113.89661 
L 133.713509 103.49709 
L 134.626599 98.08431 
L 135.53969 100.036215 
L 136.452781 109.335719 
L 137.365872 93.980746 
L 138.278963 94.726132 
L 139.192054 137.589454 
L 140.105145 105.251342 
L 141.018236 111.824254 
L 141.931327 124.979344 
L 142.844418 96.903871 
L 143.757509 90.54261 
L 144.670599 93.185588 
L 145.58369 100.791566 
L 146.496781 103.175504 
L 147.409872 97.282699 
L 148.322963 101.46508 
L 149.236054 92.3922 
L 150.149145 89.45898 
L 151.062236 92.68161 
L 151.975327 94.518987 
L 152.888418 89.101738 
L 153.801509 97.039229 
L 154.714599 96.571026 
L 155.62769 103.187092 
L 156.540781 103.578981 
L 157.453872 88.273335 
L 158.366963 82.481992 
L 159.280054 85.650401 
L 160.193145 93.044382 
L 161.106236 95.015222 
L 162.019327 106.139323 
L 162.932418 111.604322 
L 163.845509 100.053902 
L 164.758599 113.816057 
L 165.67169 111.454201 
L 166.584781 100.895131 
L 167.497872 103.400423 
L 168.410963 109.001954 
L 170.237145 97.368321 
L 171.150236 85.546619 
L 172.063327 81.823097 
L 173.889509 102.63623 
L 174.802599 105.995697 
L 175.71569 100.944044 
L 176.628781 100.85836 
L 177.541872 92.842994 
L 178.454963 89.597455 
L 179.368054 105.109667 
L 180.281145 91.78242 
L 181.194236 86.524902 
L 182.107327 87.118355 
L 183.020418 92.276672 
L 183.933509 103.924921 
L 184.846599 104.574716 
L 185.75969 93.339947 
L 186.672781 98.382172 
L 187.585872 115.275025 
L 188.498963 101.081339 
L 189.412054 88.910219 
L 190.325145 87.829137 
L 191.238236 121.277157 
L 192.151327 93.393903 
L 193.064418 92.66721 
L 193.977509 91.118594 
L 194.890599 106.589336 
L 195.80369 85.913815 
L 196.716781 86.137651 
L 197.629872 97.541395 
L 198.542963 91.311943 
L 199.456054 95.729378 
L 200.369145 104.042648 
L 201.282236 94.104832 
L 202.195327 87.221918 
L 203.108418 99.350462 
L 204.021509 109.985004 
L 204.934599 91.562415 
L 205.84769 105.111997 
L 206.760781 105.632484 
L 207.673872 98.095206 
L 208.586963 95.763283 
L 209.500054 98.035102 
L 210.413145 127.729542 
L 211.326236 96.265958 
L 212.239327 100.122497 
L 213.152418 124.487658 
L 214.065509 113.140791 
L 214.978599 97.047996 
L 215.89169 86.159379 
L 216.804781 92.266492 
L 217.717872 104.085309 
L 218.630963 104.210538 
L 219.544054 91.517121 
L 220.457145 90.668721 
L 221.370236 91.353769 
L 222.283327 85.378448 
L 223.196418 92.941989 
L 224.109509 105.15508 
L 225.022599 99.706098 
L 225.93569 93.153201 
L 226.848781 90.702627 
L 227.761872 90.808644 
L 228.674963 86.872788 
L 229.588054 88.366062 
L 230.501145 101.242173 
L 231.414236 106.121351 
L 232.327327 100.549712 
L 233.240418 93.085085 
L 234.153509 89.7666 
L 235.066599 91.184956 
L 235.97969 91.895432 
L 236.892781 86.030518 
L 237.805872 89.461387 
L 238.718963 101.094667 
L 239.632054 119.428387 
L 240.545145 103.251164 
L 241.458236 93.545024 
L 242.371327 101.997707 
L 243.284418 120.980862 
L 244.197509 108.467123 
L 245.110599 114.952865 
L 246.02369 98.704829 
L 246.936781 108.22458 
L 247.849872 102.96742 
L 248.762963 89.770556 
L 249.676054 94.191435 
L 251.502236 109.988811 
L 252.415327 107.019269 
L 253.328418 107.366132 
L 254.241509 90.417246 
L 255.154599 88.823466 
L 256.06769 92.771639 
L 256.980781 94.006859 
L 257.893872 104.137781 
L 258.806963 94.05973 
L 259.720054 95.448229 
L 260.633145 109.78463 
L 261.546236 111.322902 
L 262.459327 96.979093 
L 263.372418 107.227984 
L 264.285509 133.059957 
L 265.198599 97.066874 
L 266.11169 89.717596 
L 267.024781 90.333541 
L 267.937872 92.915019 
L 268.850963 98.738398 
L 269.764054 111.200313 
L 270.677145 90.279054 
L 271.590236 85.491649 
L 272.503327 93.145959 
L 273.416418 99.063077 
L 274.329509 83.71669 
L 276.15569 92.551236 
L 277.068781 98.345304 
L 277.981872 110.668507 
L 278.894963 94.34762 
L 279.808054 89.826839 
L 280.721145 97.108813 
L 281.634236 100.798953 
L 282.547327 87.989319 
L 283.460418 88.688926 
L 284.373509 97.436682 
L 285.286599 99.527529 
L 286.19969 94.860177 
L 287.112781 105.542899 
L 288.025872 100.956952 
L 288.938963 91.167482 
L 289.852054 102.479976 
L 290.765145 119.461716 
L 291.678236 123.928306 
L 292.591327 96.803653 
L 293.504418 95.205818 
L 294.417509 101.039043 
L 295.330599 86.249446 
L 296.24369 98.777216 
L 297.156781 99.62534 
L 298.069872 120.695932 
L 298.982963 94.805907 
L 299.896054 94.584122 
L 300.809145 102.745385 
L 301.722236 88.429495 
L 302.635327 98.187534 
L 303.548418 100.304303 
L 304.461509 103.7327 
L 305.374599 127.666513 
L 306.28769 97.140767 
L 307.200781 104.588965 
L 308.113872 98.118507 
L 309.026963 97.769526 
L 309.940054 104.759106 
L 310.853145 88.650677 
L 311.766236 91.686865 
L 312.679327 102.700999 
L 313.592418 106.847293 
L 314.505509 97.904141 
L 315.418599 97.163574 
L 316.33169 95.550311 
L 317.244781 99.779341 
L 318.157872 103.355968 
L 319.070963 99.073487 
L 319.984054 98.504899 
L 320.897145 104.301413 
L 321.810236 89.340218 
L 322.723327 90.36388 
L 323.636418 103.958052 
L 324.549509 106.666158 
L 325.462599 93.815032 
L 326.37569 103.866912 
L 327.288781 93.092408 
L 328.201872 96.394433 
L 329.114963 103.221314 
L 330.028054 131.70317 
L 330.941145 91.690662 
L 331.854236 93.940626 
L 332.767327 98.904628 
L 333.680418 94.393918 
L 334.593509 110.177457 
L 335.506599 98.211103 
L 336.41969 97.41 
L 337.332781 110.560227 
L 338.245872 99.21702 
L 339.158963 91.972589 
L 340.072054 97.78757 
L 340.985145 123.82825 
L 341.898236 99.714702 
L 342.811327 106.263028 
L 343.724418 97.34417 
L 344.637509 93.215999 
L 345.550599 94.696078 
L 346.46369 111.296111 
L 347.376781 98.554398 
L 348.289872 98.266747 
L 349.202963 95.246434 
L 350.116054 93.126774 
L 351.029145 96.883573 
L 351.942236 99.123924 
L 352.855327 103.334181 
L 353.768418 131.543715 
L 354.681509 113.994139 
L 355.594599 124.012599 
L 356.50769 102.802898 
L 357.420781 111.680818 
L 358.333872 89.698712 
L 359.246963 86.228459 
L 360.160054 92.612564 
L 361.073145 93.934742 
L 361.986236 115.512017 
L 363.812418 92.605242 
L 364.725509 97.216842 
L 365.638599 104.339271 
L 366.55169 103.812132 
L 367.464781 94.18458 
L 368.377872 93.075641 
L 369.290963 98.436399 
L 370.204054 46.763222 
L 371.117145 35.719634 
L 372.030236 46.50038 
L 372.943327 97.421665 
L 373.856418 86.22416 
L 374.769509 91.731058 
L 375.682599 93.111217 
L 376.59569 104.76026 
L 377.508781 102.262964 
L 378.421872 91.138458 
L 379.334963 88.14332 
L 380.248054 91.306005 
L 381.161145 96.502561 
L 382.074236 124.717563 
L 382.987327 92.442206 
L 383.900418 95.402112 
L 384.813509 103.376506 
L 385.726599 137.637381 
L 386.63969 131.411386 
L 387.552781 97.628022 
L 388.465872 93.022799 
L 389.378963 98.280698 
L 390.292054 96.065907 
L 391.205145 97.680365 
L 392.118236 131.388679 
L 393.031327 104.677091 
L 393.944418 99.202877 
L 394.857509 100.552563 
L 395.770599 123.774055 
L 396.68369 104.524288 
L 397.596781 93.448729 
L 398.509872 100.672253 
L 399.422963 100.913569 
L 400.336054 94.141187 
L 401.249145 94.368308 
L 402.162236 114.124728 
L 403.075327 94.773001 
L 403.988418 85.682549 
L 404.901509 86.846101 
L 405.814599 92.061686 
L 406.72769 93.888676 
L 408.553872 109.913264 
L 409.466963 105.714466 
L 410.380054 88.3554 
L 411.293145 93.520436 
L 412.206236 97.13586 
L 413.119327 114.196084 
L 414.032418 102.801618 
L 414.945509 99.0007 
L 415.858599 101.355845 
L 416.77169 126.750529 
L 417.684781 100.204829 
L 418.597872 103.035999 
L 419.510963 104.615471 
L 420.424054 97.662917 
L 421.337145 101.965914 
L 422.250236 113.27813 
L 423.163327 99.117974 
L 424.076418 91.91592 
L 424.989509 98.023818 
L 425.902599 113.254467 
L 426.81569 104.042856 
L 427.728781 109.22477 
L 428.641872 97.717182 
L 429.554963 99.855481 
L 430.468054 107.840514 
L 431.381145 92.034327 
L 432.294236 84.78218 
L 433.207327 88.157206 
L 434.120418 112.215169 
L 435.033509 97.726584 
L 435.946599 97.676187 
L 436.85969 105.819155 
L 437.772781 112.276892 
L 438.685872 112.041504 
L 439.598963 103.927292 
L 440.512054 105.54059 
L 441.425145 96.335498 
L 442.338236 94.444932 
L 443.251327 94.130708 
L 444.164418 120.04484 
L 445.077509 99.013578 
L 445.990599 100.154198 
L 446.90369 96.529449 
L 447.816781 99.995753 
L 448.729872 93.82321 
L 449.642963 92.677514 
L 450.556054 120.602252 
L 451.469145 103.103978 
L 452.382236 110.607629 
L 453.295327 111.994841 
L 454.208418 92.862949 
L 455.121509 84.350576 
L 456.034599 86.881258 
L 457.860781 119.03221 
L 458.773872 100.509314 
L 459.686963 100.302667 
L 460.600054 85.18178 
L 461.513145 85.268486 
L 462.426236 98.40485 
L 463.339327 123.72214 
L 464.252418 118.805856 
L 465.165509 102.924204 
L 466.078599 96.368242 
L 466.99169 101.191186 
L 467.904781 93.220604 
L 468.817872 92.424309 
L 469.730963 96.814531 
L 470.644054 103.747614 
L 471.557145 85.18641 
L 472.470236 88.073125 
L 473.383327 92.580493 
L 474.296418 82.948698 
L 475.209509 89.225396 
L 476.122599 91.568775 
L 477.03569 94.473694 
L 477.948781 131.921376 
L 478.861872 103.151489 
L 479.774963 90.805532 
L 480.688054 96.796158 
L 481.601145 106.130181 
L 482.514236 133.469588 
L 483.427327 122.588158 
L 485.253509 112.493284 
L 486.166599 102.714145 
L 487.07969 106.680416 
L 487.992781 109.564463 
L 488.905872 110.969746 
L 489.818963 111.654344 
L 490.732054 106.481304 
L 491.645145 102.715398 
L 492.558236 100.926098 
L 493.471327 89.296183 
L 494.384418 89.936234 
L 495.297509 105.205226 
L 496.210599 93.573489 
L 497.12369 103.129775 
L 498.036781 103.474467 
L 498.949872 98.568245 
L 499.862963 99.283526 
L 500.776054 96.634357 
L 501.689145 105.136146 
L 502.602236 116.982002 
L 503.515327 98.470935 
L 504.428418 107.574878 
L 505.341509 119.698781 
L 506.254599 102.645024 
L 507.16769 101.543417 
L 508.080781 98.40988 
L 508.993872 104.724291 
L 509.906963 100.29756 
L 510.820054 91.629398 
L 511.733145 95.395372 
L 512.646236 104.574046 
L 513.559327 97.434698 
L 514.472418 106.304694 
L 515.385509 100.077141 
L 516.298599 99.375294 
L 517.21169 97.374776 
L 518.124781 107.172068 
L 519.037872 120.097893 
L 519.950963 105.623245 
L 520.864054 104.788332 
L 521.777145 88.706711 
L 522.690236 97.688962 
L 523.603327 109.950055 
L 524.516418 120.548162 
L 525.429509 102.094316 
L 526.342599 107.663006 
L 527.25569 120.37947 
L 528.168781 135.258429 
L 529.081872 146.847088 
L 529.994963 152.65275 
L 530.908054 160.221701 
L 531.821145 170.239745 
L 532.734236 194.076417 
L 533.647327 227.986007 
L 534.560418 229.457734 
L 535.473509 233.998125 
L 535.473509 233.998125 
" clip-path="url(#pf59d35f944)" style="fill: none; stroke: #ff7f0e; stroke-width: 1.5; stroke-linecap: square"/>
   </g>
   <g id="patch_3">
    <path d="M 56.100781 244.078125 
L 56.100781 22.318125 
" style="fill: none; stroke: #000000; stroke-width: 0.8; stroke-linejoin: miter; stroke-linecap: square"/>
   </g>
   <g id="patch_4">
    <path d="M 558.300781 244.078125 
L 558.300781 22.318125 
" style="fill: none; stroke: #000000; stroke-width: 0.8; stroke-linejoin: miter; stroke-linecap: square"/>
   </g>
   <g id="patch_5">
    <path d="M 56.100781 244.078125 
L 558.300781 244.078125 
" style="fill: none; stroke: #000000; stroke-width: 0.8; stroke-linejoin: miter; stroke-linecap: square"/>
   </g>
   <g id="patch_6">
    <path d="M 56.100781 22.318125 
L 558.300781 22.318125 
" style="fill: none; stroke: #000000; stroke-width: 0.8; stroke-linejoin: miter; stroke-linecap: square"/>
   </g>
   <g id="text_15">
    <!-- Raw versus preprocessed PSD -->
    <g transform="translate(216.656094 16.318125) scale(0.12 -0.12)">
     <defs>
      <path id="DejaVuSans-35" d="M 2841 2188 
Q 3044 2119 3236 1894 
Q 3428 1669 3622 1275 
L 4263 0 
L 3584 0 
L 2988 1197 
Q 2756 1666 2539 1819 
Q 2322 1972 1947 1972 
L 1259 1972 
L 1259 0 
L 628 0 
L 628 4666 
L 2053 4666 
Q 2853 4666 3247 4331 
Q 3641 3997 3641 3322 
Q 3641 2881 3436 2590 
Q 3231 2300 2841 2188 
z
M 1259 4147 
L 1259 2491 
L 2053 2491 
Q 2509 2491 2742 2702 
Q 2975 2913 2975 3322 
Q 2975 3731 2742 3939 
Q 2509 4147 2053 4147 
L 1259 4147 
z
" transform="scale(0.015625)"/>
      <path id="DejaVuSans-44" d="M 2194 1759 
Q 1497 1759 1228 1600 
Q 959 1441 959 1056 
Q 959 750 1161 570 
Q 1363 391 1709 391 
Q 2188 391 2477 730 
Q 2766 1069 2766 1631 
L 2766 1759 
L 2194 1759 
z
M 3341 1997 
L 3341 0 
L 2766 0 
L 2766 531 
Q 2569 213 2275 61 
Q 1981 -91 1556 -91 
Q 1019 -91 701 211 
Q 384 513 384 1019 
Q 384 1609 779 1909 
Q 1175 2209 1959 2209 
L 2766 2209 
L 2766 2266 
Q 2766 2663 2505 2880 
Q 2244 3097 1772 3097 
Q 1472 3097 1187 3025 
Q 903 2953 641 2809 
L 641 3341 
Q 956 3463 1253 3523 
Q 1550 3584 1831 3584 
Q 2591 3584 2966 3190 
Q 3341 2797 3341 1997 
z
" transform="scale(0.015625)"/>
      <path id="DejaVuSans-5a" d="M 269 3500 
L 844 3500 
L 1563 769 
L 2278 3500 
L 2956 3500 
L 3675 769 
L 4391 3500 
L 4966 3500 
L 4050 0 
L 3372 0 
L 2619 2869 
L 1863 0 
L 1184 0 
L 269 3500 
z
" transform="scale(0.015625)"/>
      <path id="DejaVuSans-59" d="M 191 3500 
L 800 3500 
L 1894 563 
L 2988 3500 
L 3597 3500 
L 2284 0 
L 1503 0 
L 191 3500 
z
" transform="scale(0.015625)"/>
      <path id="DejaVuSans-56" d="M 2834 3397 
L 2834 2853 
Q 2591 2978 2328 3040 
Q 2066 3103 1784 3103 
Q 1356 3103 1142 2972 
Q 928 2841 928 2578 
Q 928 2378 1081 2264 
Q 1234 2150 1697 2047 
L 1894 2003 
Q 2506 1872 2764 1633 
Q 3022 1394 3022 966 
Q 3022 478 2636 193 
Q 2250 -91 1575 -91 
Q 1294 -91 989 -36 
Q 684 19 347 128 
L 347 722 
Q 666 556 975 473 
Q 1284 391 1588 391 
Q 1994 391 2212 530 
Q 2431 669 2431 922 
Q 2431 1156 2273 1281 
Q 2116 1406 1581 1522 
L 1381 1569 
Q 847 1681 609 1914 
Q 372 2147 372 2553 
Q 372 3047 722 3315 
Q 1072 3584 1716 3584 
Q 2034 3584 2315 3537 
Q 2597 3491 2834 3397 
z
" transform="scale(0.015625)"/>
      <path id="DejaVuSans-53" d="M 1159 525 
L 1159 -1331 
L 581 -1331 
L 581 3500 
L 1159 3500 
L 1159 2969 
Q 1341 3281 1617 3432 
Q 1894 3584 2278 3584 
Q 2916 3584 3314 3078 
Q 3713 2572 3713 1747 
Q 3713 922 3314 415 
Q 2916 -91 2278 -91 
Q 1894 -91 1617 61 
Q 1341 213 1159 525 
z
M 3116 1747 
Q 3116 2381 2855 2742 
Q 2594 3103 2138 3103 
Q 1681 3103 1420 2742 
Q 1159 2381 1159 1747 
Q 1159 1113 1420 752 
Q 1681 391 2138 391 
Q 2594 391 2855 752 
Q 3116 1113 3116 1747 
z
" transform="scale(0.015625)"/>
      <path id="DejaVuSans-52" d="M 1959 3097 
Q 1497 3097 1228 2736 
Q 959 2375 959 1747 
Q 959 1119 1226 758 
Q 1494 397 1959 397 
Q 2419 397 2687 759 
Q 2956 1122 2956 1747 
Q 2956 2369 2687 2733 
Q 2419 3097 1959 3097 
z
M 1959 3584 
Q 2709 3584 3137 3096 
Q 3566 2609 3566 1747 
Q 3566 888 3137 398 
Q 2709 -91 1959 -91 
Q 1206 -91 779 398 
Q 353 888 353 1747 
Q 353 2609 779 3096 
Q 1206 3584 1959 3584 
z
" transform="scale(0.015625)"/>
      <path id="DejaVuSans-47" d="M 2906 2969 
L 2906 4863 
L 3481 4863 
L 3481 0 
L 2906 0 
L 2906 525 
Q 2725 213 2448 61 
Q 2172 -91 1784 -91 
Q 1150 -91 751 415 
Q 353 922 353 1747 
Q 353 2572 751 3078 
Q 1150 3584 1784 3584 
Q 2172 3584 2448 3432 
Q 2725 3281 2906 2969 
z
M 947 1747 
Q 947 1113 1208 752 
Q 1469 391 1925 391 
Q 2381 391 2643 752 
Q 2906 1113 2906 1747 
Q 2906 2381 2643 2742 
Q 2381 3103 1925 3103 
Q 1469 3103 1208 2742 
Q 947 2381 947 1747 
z
" transform="scale(0.015625)"/>
     </defs>
     <use xlink:href="#DejaVuSans-35"/>
     <use xlink:href="#DejaVuSans-44" transform="translate(67.28125 0)"/>
     <use xlink:href="#DejaVuSans-5a" transform="translate(128.5625 0)"/>
     <use xlink:href="#DejaVuSans-3" transform="translate(210.34375 0)"/>
     <use xlink:href="#DejaVuSans-59" transform="translate(242.125 0)"/>
     <use xlink:href="#DejaVuSans-48" transform="translate(301.3125 0)"/>
     <use xlink:href="#DejaVuSans-55" transform="translate(362.84375 0)"/>
     <use xlink:href="#DejaVuSans-56" transform="translate(403.953125 0)"/>
     <use xlink:href="#DejaVuSans-58" transform="translate(456.046875 0)"/>
     <use xlink:href="#DejaVuSans-56" transform="translate(519.421875 0)"/>
     <use xlink:href="#DejaVuSans-3" transform="translate(571.515625 0)"/>
     <use xlink:href="#DejaVuSans-53" transform="translate(603.296875 0)"/>
     <use xlink:href="#DejaVuSans-55" transform="translate(666.78125 0)"/>
     <use xlink:href="#DejaVuSans-48" transform="translate(705.6875 0)"/>
     <use xlink:href="#DejaVuSans-53" transform="translate(767.21875 0)"/>
     <use xlink:href="#DejaVuSans-55" transform="translate(830.703125 0)"/>
     <use xlink:href="#DejaVuSans-52" transform="translate(869.609375 0)"/>
     <use xlink:href="#DejaVuSans-46" transform="translate(930.796875 0)"/>
     <use xlink:href="#DejaVuSans-48" transform="translate(985.78125 0)"/>
     <use xlink:href="#DejaVuSans-56" transform="translate(1047.3125 0)"/>
     <use xlink:href="#DejaVuSans-56" transform="translate(1099.40625 0)"/>
     <use xlink:href="#DejaVuSans-48" transform="translate(1151.5 0)"/>
     <use xlink:href="#DejaVuSans-47" transform="translate(1213.03125 0)"/>
     <use xlink:href="#DejaVuSans-3" transform="translate(1276.515625 0)"/>
     <use xlink:href="#DejaVuSans-33" transform="translate(1308.296875 0)"/>
     <use xlink:href="#DejaVuSans-36" transform="translate(1368.59375 0)"/>
     <use xlink:href="#DejaVuSans-27" transform="translate(1432.078125 0)"/>
    </g>
   </g>
   <g id="legend_1">
    <g id="patch_7">
     <path d="M 452.472656 60.319687 
L 551.300781 60.319687 
Q 553.300781 60.319687 553.300781 58.319687 
L 553.300781 29.318125 
Q 553.300781 27.318125 551.300781 27.318125 
L 452.472656 27.318125 
Q 450.472656 27.318125 450.472656 29.318125 
L 450.472656 58.319687 
Q 450.472656 60.319687 452.472656 60.319687 
z
" style="fill: #ffffff; opacity: 0.8; stroke: #cccccc; stroke-linejoin: miter"/>
    </g>
    <g id="line2d_27">
     <path d="M 454.472656 35.416562 
L 464.472656 35.416562 
L 474.472656 35.416562 
" style="fill: none; stroke: #1f77b4; stroke-width: 1.5; stroke-linecap: square"/>
    </g>
    <g id="text_16">
     <!-- Raw -->
     <g transform="translate(482.472656 38.916562) scale(0.1 -0.1)">
      <use xlink:href="#DejaVuSans-35"/>
      <use xlink:href="#DejaVuSans-44" transform="translate(67.28125 0)"/>
      <use xlink:href="#DejaVuSans-5a" transform="translate(128.5625 0)"/>
     </g>
    </g>
    <g id="line2d_28">
     <path d="M 454.472656 50.417344 
L 464.472656 50.417344 
L 474.472656 50.417344 
" style="fill: none; stroke: #ff7f0e; stroke-width: 1.5; stroke-linecap: square"/>
    </g>
    <g id="text_17">
     <!-- Preprocessed -->
     <g transform="translate(482.472656 53.917344) scale(0.1 -0.1)">
      <use xlink:href="#DejaVuSans-33"/>
      <use xlink:href="#DejaVuSans-55" transform="translate(58.546875 0)"/>
      <use xlink:href="#DejaVuSans-48" transform="translate(97.453125 0)"/>
      <use xlink:href="#DejaVuSans-53" transform="translate(158.984375 0)"/>
      <use xlink:href="#DejaVuSans-55" transform="translate(222.46875 0)"/>
      <use xlink:href="#DejaVuSans-52" transform="translate(261.375 0)"/>
      <use xlink:href="#DejaVuSans-46" transform="translate(322.5625 0)"/>
      <use xlink:href="#DejaVuSans-48" transform="translate(377.546875 0)"/>
      <use xlink:href="#DejaVuSans-56" transform="translate(439.078125 0)"/>
      <use xlink:href="#DejaVuSans-56" transform="translate(491.171875 0)"/>
      <use xlink:href="#DejaVuSans-48" transform="translate(543.265625 0)"/>
      <use xlink:href="#DejaVuSans-47" transform="translate(604.796875 0)"/>
     </g>
    </g>
   </g>
  </g>
 </g>
 <defs>
  <clipPath id="pf59d35f944">
   <rect x="56.100781" y="22.318125" width="502.2" height="221.76"/>
  </clipPath>
 </defs>
</svg>
