<?xml version="1.0" encoding="utf-8" standalone="no"?>
<!DOCTYPE svg PUBLIC "-//W3C//DTD SVG 1.1//EN"
  "http://www.w3.org/Graphics/SVG/1.1/DTD/svg11.dtd">
<svg xmlns:xlink="http://www.w3.org/1999/xlink" width="784.485312pt" height="532.478437pt" viewBox="0 0 784.485312 532.478437" xmlns="http://www.w3.org/2000/svg" version="1.1">
 <metadata>
  <rdf:RDF xmlns:dc="http://purl.org/dc/elements/1.1/" xmlns:cc="http://creativecommons.org/ns#" xmlns:rdf="http://www.w3.org/1999/02/22-rdf-syntax-ns#">
   <cc:Work>
    <dc:type rdf:resource="http://purl.org/dc/dcmitype/StillImage"/>
    <dc:date>2026-07-14T07:01:47.388795</dc:date>
    <dc:format>image/svg+xml</dc:format>
    <dc:creator>
     <cc:Agent>
      <dc:title>Matplotlib v3.11.0, https://matplotlib.org/</dc:title>
     </cc:Agent>
    </dc:creator>
   </cc:Work>
  </rdf:RDF>
 </metadata>
 <defs>
  <style type="text/css">*{stroke-linejoin: round; stroke-linecap: butt}</style>
 </defs>
 <g id="figure_1">
  <g id="patch_1">
   <path d="M 0 532.478437 
L 784.485312 532.478437 
L 784.485312 0 
L 0 0 
z
" style="fill: #ffffff"/>
  </g>
  <g id="axes_1">
   <g id="patch_2">
    <path d="M 58.845313 109.408584 
L 777.285312 109.408584 
L 777.285312 30.242813 
L 58.845313 30.242813 
z
" style="fill: #ffffff"/>
   </g>
   <g id="matplotlib.axis_1">
    <g id="xtick_1">
     <g id="line2d_1">
      <defs>
       <path id="md5ee8f44f8" d="M 0 0 
L 0 3.5 
" style="stroke: #000000; stroke-width: 0.8"/>
      </defs>
      <g>
       <use xlink:href="#md5ee8f44f8" x="100.448625" y="109.408584" style="stroke: #000000; stroke-width: 0.8"/>
      </g>
     </g>
    </g>
    <g id="xtick_2">
     <g id="line2d_2">
      <g>
       <use xlink:href="#md5ee8f44f8" x="228.262181" y="109.408584" style="stroke: #000000; stroke-width: 0.8"/>
      </g>
     </g>
    </g>
    <g id="xtick_3">
     <g id="line2d_3">
      <g>
       <use xlink:href="#md5ee8f44f8" x="356.075738" y="109.408584" style="stroke: #000000; stroke-width: 0.8"/>
      </g>
     </g>
    </g>
    <g id="xtick_4">
     <g id="line2d_4">
      <g>
       <use xlink:href="#md5ee8f44f8" x="483.889294" y="109.408584" style="stroke: #000000; stroke-width: 0.8"/>
      </g>
     </g>
    </g>
    <g id="xtick_5">
     <g id="line2d_5">
      <g>
       <use xlink:href="#md5ee8f44f8" x="611.70285" y="109.408584" style="stroke: #000000; stroke-width: 0.8"/>
      </g>
     </g>
    </g>
    <g id="xtick_6">
     <g id="line2d_6">
      <g>
       <use xlink:href="#md5ee8f44f8" x="739.516407" y="109.408584" style="stroke: #000000; stroke-width: 0.8"/>
      </g>
     </g>
    </g>
   </g>
   <g id="matplotlib.axis_2">
    <g id="ytick_1">
     <g id="line2d_7">
      <defs>
       <path id="m7cc1e2a007" d="M 0 0 
L -3.5 0 
" style="stroke: #000000; stroke-width: 0.8"/>
      </defs>
      <g>
       <use xlink:href="#m7cc1e2a007" x="58.845313" y="102.787882" style="stroke: #000000; stroke-width: 0.8"/>
      </g>
     </g>
     <g id="text_1">
      <!-- −1 -->
      <g transform="translate(37.103125 106.58671) scale(0.1 -0.1)">
       <defs>
        <path id="DejaVuSans-c9c" d="M 678 2272 
L 4684 2272 
L 4684 1741 
L 678 1741 
L 678 2272 
z
" transform="scale(0.015625)"/>
        <path id="DejaVuSans-14" d="M 794 531 
L 1825 531 
L 1825 4091 
L 703 3866 
L 703 4441 
L 1819 4666 
L 2450 4666 
L 2450 531 
L 3481 531 
L 3481 0 
L 794 0 
L 794 531 
z
" transform="scale(0.015625)"/>
       </defs>
       <use xlink:href="#DejaVuSans-c9c"/>
       <use xlink:href="#DejaVuSans-14" transform="translate(83.796875 0)"/>
      </g>
     </g>
    </g>
    <g id="ytick_2">
     <g id="line2d_8">
      <g>
       <use xlink:href="#m7cc1e2a007" x="58.845313" y="69.094623" style="stroke: #000000; stroke-width: 0.8"/>
      </g>
     </g>
     <g id="text_2">
      <!-- 0 -->
      <g transform="translate(45.482813 72.893451) scale(0.1 -0.1)">
       <defs>
        <path id="DejaVuSans-13" d="M 2034 4250 
Q 1547 4250 1301 3770 
Q 1056 3291 1056 2328 
Q 1056 1369 1301 889 
Q 1547 409 2034 409 
Q 2525 409 2770 889 
Q 3016 1369 3016 2328 
Q 3016 3291 2770 3770 
Q 2525 4250 2034 4250 
z
M 2034 4750 
Q 2819 4750 3233 4129 
Q 3647 3509 3647 2328 
Q 3647 1150 3233 529 
Q 2819 -91 2034 -91 
Q 1250 -91 836 529 
Q 422 1150 422 2328 
Q 422 3509 836 4129 
Q 1250 4750 2034 4750 
z
" transform="scale(0.015625)"/>
       </defs>
       <use xlink:href="#DejaVuSans-13"/>
      </g>
     </g>
    </g>
    <g id="ytick_3">
     <g id="line2d_9">
      <g>
       <use xlink:href="#m7cc1e2a007" x="58.845313" y="35.401364" style="stroke: #000000; stroke-width: 0.8"/>
      </g>
     </g>
     <g id="text_3">
      <!-- 1 -->
      <g transform="translate(45.482813 39.200192) scale(0.1 -0.1)">
       <use xlink:href="#DejaVuSans-14"/>
      </g>
     </g>
    </g>
    <g id="text_4">
     <!-- Source -->
     <g transform="translate(30.700781 86.999136) rotate(-90) scale(0.1 -0.1)">
      <defs>
       <path id="DejaVuSans-36" d="M 3425 4513 
L 3425 3897 
Q 3066 4069 2747 4153 
Q 2428 4238 2131 4238 
Q 1616 4238 1336 4038 
Q 1056 3838 1056 3469 
Q 1056 3159 1242 3001 
Q 1428 2844 1947 2747 
L 2328 2669 
Q 3034 2534 3370 2195 
Q 3706 1856 3706 1288 
Q 3706 609 3251 259 
Q 2797 -91 1919 -91 
Q 1588 -91 1214 -16 
Q 841 59 441 206 
L 441 856 
Q 825 641 1194 531 
Q 1563 422 1919 422 
Q 2459 422 2753 634 
Q 3047 847 3047 1241 
Q 3047 1584 2836 1778 
Q 2625 1972 2144 2069 
L 1759 2144 
Q 1053 2284 737 2584 
Q 422 2884 422 3419 
Q 422 4038 858 4394 
Q 1294 4750 2059 4750 
Q 2388 4750 2728 4690 
Q 3069 4631 3425 4513 
z
" transform="scale(0.015625)"/>
       <path id="DejaVuSans-52" d="M 1959 3097 
Q 1497 3097 1228 2736 
Q 959 2375 959 1747 
Q 959 1119 1226 758 
Q 1494 397 1959 397 
Q 2419 397 2687 759 
Q 2956 1122 2956 1747 
Q 2956 2369 2687 2733 
Q 2419 3097 1959 3097 
z
M 1959 3584 
Q 2709 3584 3137 3096 
Q 3566 2609 3566 1747 
Q 3566 888 3137 398 
Q 2709 -91 1959 -91 
Q 1206 -91 779 398 
Q 353 888 353 1747 
Q 353 2609 779 3096 
Q 1206 3584 1959 3584 
z
" transform="scale(0.015625)"/>
       <path id="DejaVuSans-58" d="M 544 1381 
L 544 3500 
L 1119 3500 
L 1119 1403 
Q 1119 906 1312 657 
Q 1506 409 1894 409 
Q 2359 409 2629 706 
Q 2900 1003 2900 1516 
L 2900 3500 
L 3475 3500 
L 3475 0 
L 2900 0 
L 2900 538 
Q 2691 219 2414 64 
Q 2138 -91 1772 -91 
Q 1169 -91 856 284 
Q 544 659 544 1381 
z
M 1991 3584 
L 1991 3584 
z
" transform="scale(0.015625)"/>
       <path id="DejaVuSans-55" d="M 2631 2963 
Q 2534 3019 2420 3045 
Q 2306 3072 2169 3072 
Q 1681 3072 1420 2755 
Q 1159 2438 1159 1844 
L 1159 0 
L 581 0 
L 581 3500 
L 1159 3500 
L 1159 2956 
Q 1341 3275 1631 3429 
Q 1922 3584 2338 3584 
Q 2397 3584 2469 3576 
Q 2541 3569 2628 3553 
L 2631 2963 
z
" transform="scale(0.015625)"/>
       <path id="DejaVuSans-46" d="M 3122 3366 
L 3122 2828 
Q 2878 2963 2633 3030 
Q 2388 3097 2138 3097 
Q 1578 3097 1268 2742 
Q 959 2388 959 1747 
Q 959 1106 1268 751 
Q 1578 397 2138 397 
Q 2388 397 2633 464 
Q 2878 531 3122 666 
L 3122 134 
Q 2881 22 2623 -34 
Q 2366 -91 2075 -91 
Q 1284 -91 818 406 
Q 353 903 353 1747 
Q 353 2603 823 3093 
Q 1294 3584 2113 3584 
Q 2378 3584 2631 3529 
Q 2884 3475 3122 3366 
z
" transform="scale(0.015625)"/>
       <path id="DejaVuSans-48" d="M 3597 1894 
L 3597 1613 
L 953 1613 
Q 991 1019 1311 708 
Q 1631 397 2203 397 
Q 2534 397 2845 478 
Q 3156 559 3463 722 
L 3463 178 
Q 3153 47 2828 -22 
Q 2503 -91 2169 -91 
Q 1331 -91 842 396 
Q 353 884 353 1716 
Q 353 2575 817 3079 
Q 1281 3584 2069 3584 
Q 2775 3584 3186 3129 
Q 3597 2675 3597 1894 
z
M 3022 2063 
Q 3016 2534 2758 2815 
Q 2500 3097 2075 3097 
Q 1594 3097 1305 2825 
Q 1016 2553 972 2059 
L 3022 2063 
z
" transform="scale(0.015625)"/>
      </defs>
      <use xlink:href="#DejaVuSans-36"/>
      <use xlink:href="#DejaVuSans-52" transform="translate(63.484375 0)"/>
      <use xlink:href="#DejaVuSans-58" transform="translate(124.671875 0)"/>
      <use xlink:href="#DejaVuSans-55" transform="translate(188.046875 0)"/>
      <use xlink:href="#DejaVuSans-46" transform="translate(226.953125 0)"/>
      <use xlink:href="#DejaVuSans-48" transform="translate(281.9375 0)"/>
     </g>
    </g>
   </g>
   <g id="line2d_10">
    <path d="M 91.501676 97.413415 
L 92.779812 85.016108 
L 94.057947 78.410315 
L 95.336083 93.641671 
L 96.614218 76.241342 
L 97.892354 73.203882 
L 99.17049 84.584931 
L 100.448625 66.284843 
L 101.726761 55.015135 
L 103.004896 71.700278 
L 104.283032 61.390384 
L 105.561167 42.70005 
L 106.839303 67.011608 
L 108.117438 67.889413 
L 109.395574 39.123388 
L 111.951845 67.905894 
L 113.229981 47.826086 
L 114.508116 59.737396 
L 115.786252 76.697215 
L 117.064387 57.975205 
L 118.342523 68.933886 
L 119.620659 95.3265 
L 120.898794 70.178772 
L 122.17693 78.474169 
L 123.455065 99.40664 
L 124.733201 79.553184 
L 126.011336 79.612815 
L 127.289472 98.957959 
L 128.567607 80.879423 
L 129.845743 66.802048 
L 131.123879 89.041948 
L 132.402014 65.842925 
L 133.68015 49.019527 
L 134.958285 67.557767 
L 136.236421 63.922896 
L 137.514556 40.719885 
L 138.792692 60.628107 
L 140.070828 58.867173 
L 141.348963 37.62211 
L 142.627099 65.954663 
L 143.905234 67.393206 
L 145.18337 54.399735 
L 147.739641 78.368321 
L 149.017776 55.77342 
L 151.574048 87.212317 
L 152.852183 70.492082 
L 154.130319 74.930093 
L 155.408454 105.771134 
L 156.68659 82.237751 
L 157.964725 81.021109 
L 159.242861 105.81014 
L 160.520997 76.439727 
L 161.799132 63.906456 
L 163.077268 80.151755 
L 164.355403 70.821719 
L 165.633539 46.022085 
L 166.911674 73.673408 
L 168.18981 65.891421 
L 169.467945 41.089191 
L 170.746081 62.2183 
L 172.024217 61.977779 
L 173.302352 36.908723 
L 174.580488 63.57812 
L 175.858623 66.117632 
L 177.136759 44.27433 
L 178.414894 60.539678 
L 179.69303 73.323043 
L 180.971166 58.228241 
L 182.249301 73.62711 
L 183.527437 92.258515 
L 184.805572 71.763639 
L 186.083708 81.421005 
L 187.361843 104.392747 
L 188.639979 76.439042 
L 189.918114 79.470961 
L 191.19625 95.439507 
L 192.474386 82.217541 
L 193.752521 67.391903 
L 195.030657 84.466614 
L 196.308792 70.833447 
L 197.586928 52.454067 
L 198.865063 68.823623 
L 200.143199 56.67076 
L 201.421335 42.914642 
L 202.69947 60.281958 
L 203.977606 64.434322 
L 205.255741 33.841257 
L 206.533877 62.466717 
L 207.812012 63.199631 
L 209.090148 54.125035 
L 210.368284 63.330503 
L 211.646419 80.941115 
L 212.924555 61.212831 
L 214.20269 75.088283 
L 215.480826 93.218821 
L 216.758961 68.325954 
L 218.037097 77.897522 
L 219.315232 99.011288 
L 220.593368 74.929107 
L 221.871504 78.589751 
L 223.149639 102.310875 
L 224.427775 74.02056 
L 225.70591 66.117042 
L 226.984046 82.603259 
L 228.262181 69.647889 
L 229.540317 53.800314 
L 230.818453 71.08514 
L 232.096588 66.85289 
L 233.374724 46.386481 
L 234.652859 58.891558 
L 235.930995 62.125622 
L 237.20913 42.21604 
L 238.487266 60.866472 
L 239.765401 66.59312 
L 241.043537 49.531613 
L 242.321673 61.954809 
L 243.599808 80.402589 
L 244.877944 56.611905 
L 246.156079 72.229016 
L 247.434215 91.045314 
L 248.71235 68.011825 
L 249.990486 77.701949 
L 251.268622 102.780042 
L 252.546757 75.985193 
L 253.824893 73.113375 
L 255.103028 93.697191 
L 256.381164 78.697573 
L 257.659299 65.041929 
L 258.937435 84.222538 
L 260.21557 66.399121 
L 261.493706 53.766504 
L 262.771842 72.599034 
L 264.049977 66.812642 
L 265.328113 46.441474 
L 266.606248 54.60059 
L 267.884384 58.500132 
L 269.162519 44.06991 
L 270.440655 62.004313 
L 271.718791 68.845843 
L 272.996926 55.730021 
L 274.275062 67.51176 
L 275.553197 73.176532 
L 276.831333 58.960797 
L 278.109468 75.148826 
L 279.387604 88.896302 
L 280.665739 70.016476 
L 281.943875 79.553882 
L 283.222011 94.115576 
L 284.500146 81.959098 
L 285.778282 79.022883 
L 287.056417 88.824311 
L 288.334553 83.372895 
L 289.612688 67.085865 
L 290.890824 86.382708 
L 292.16896 73.070322 
L 293.447095 57.492451 
L 294.725231 69.859181 
L 296.003366 64.28515 
L 297.281502 43.632805 
L 298.559637 56.335271 
L 299.837773 56.320878 
L 301.115908 38.184861 
L 303.67218 67.85303 
L 304.950315 49.533448 
L 306.228451 64.777282 
L 307.506586 78.34176 
L 308.784722 58.673196 
L 310.062857 71.386707 
L 311.340993 91.558721 
L 312.619129 77.630949 
L 313.897264 82.915265 
L 315.1754 93.855987 
L 316.453535 79.7724 
L 317.731671 73.570392 
L 319.009806 85.355889 
L 320.287942 78.342098 
L 321.566077 72.967322 
L 322.844213 88.941194 
L 324.122349 69.286027 
L 325.400484 53.953135 
L 326.67862 72.204693 
L 327.956755 67.064887 
L 329.234891 45.470976 
L 330.513026 60.794294 
L 331.791162 61.35905 
L 333.069298 39.922655 
L 334.347433 59.762851 
L 335.625569 64.625659 
L 336.903704 50.817643 
L 338.18184 64.578629 
L 339.459975 75.177327 
L 340.738111 62.298694 
L 342.016246 71.715677 
L 343.294382 93.308802 
L 344.572518 66.921081 
L 347.128789 94.217843 
L 348.406924 78.990085 
L 349.68506 75.746785 
L 350.963195 91.556737 
L 352.241331 75.626198 
L 353.519467 73.337655 
L 354.797602 85.411831 
L 356.075738 68.625458 
L 357.353873 56.436163 
L 358.632009 67.658804 
L 359.910144 60.413794 
L 361.18828 39.639483 
L 362.466416 62.14832 
L 363.744551 63.880446 
L 365.022687 40.189554 
L 366.300822 61.355649 
L 367.578958 66.970695 
L 368.857093 46.877642 
L 370.135229 68.627711 
L 371.413364 75.688662 
L 372.6915 67.668706 
L 373.969636 77.207528 
L 375.247771 90.245281 
L 376.525907 71.765549 
L 377.804042 69.820927 
L 379.082178 90.131871 
L 380.360313 80.798797 
L 381.638449 81.148622 
L 382.916585 100.147901 
L 384.19472 77.179663 
L 385.472856 65.87 
L 386.750991 87.159314 
L 388.029127 73.211453 
L 389.307262 48.821504 
L 390.585398 69.217086 
L 391.863533 64.723287 
L 393.141669 38.159451 
L 394.419805 62.051856 
L 395.69794 65.696336 
L 396.976076 39.04973 
L 398.254211 56.010624 
L 399.532347 65.593665 
L 400.810482 45.500128 
L 402.088618 65.998467 
L 403.366754 77.197183 
L 404.644889 58.426512 
L 405.923025 73.33114 
L 407.20116 97.455519 
L 408.479296 73.542843 
L 409.757431 70.706226 
L 411.035567 94.116171 
L 412.313702 78.110264 
L 413.591838 81.870456 
L 414.869974 94.020086 
L 416.148109 81.905766 
L 417.426245 65.597758 
L 418.70438 88.115075 
L 419.982516 73.872765 
L 421.260651 48.007757 
L 422.538787 73.637946 
L 423.816923 64.425746 
L 425.095058 46.001437 
L 426.373194 62.768339 
L 427.651329 57.841694 
L 428.929465 43.080287 
L 430.2076 55.824665 
L 431.485736 62.73961 
L 432.763871 52.378899 
L 435.320143 79.500735 
L 436.598278 55.904167 
L 437.876414 76.232652 
L 439.154549 85.519317 
L 440.432685 69.33014 
L 441.71082 82.780999 
L 442.988956 97.823362 
L 444.267092 73.881828 
L 445.545227 76.97062 
L 446.823363 98.173936 
L 449.379634 61.084663 
L 450.657769 80.341038 
L 451.935905 69.050123 
L 453.21404 55.523878 
L 454.492176 74.914856 
L 455.770312 61.9826 
L 457.048447 42.056492 
L 458.326583 67.51997 
L 459.604718 62.765358 
L 460.882854 36.578705 
L 462.160989 61.55025 
L 463.439125 61.652176 
L 464.717261 47.142463 
L 467.273532 77.540044 
L 468.551667 64.205549 
L 469.829803 82.733047 
L 471.107938 90.287616 
L 472.386074 76.443888 
L 473.664209 79.035487 
L 474.942345 95.315295 
L 476.220481 73.202644 
L 477.498616 74.994042 
L 478.776752 95.784169 
L 480.054887 67.246031 
L 481.333023 71.983898 
L 482.611158 84.985538 
L 483.889294 67.676282 
L 485.16743 57.787081 
L 486.445565 71.6888 
L 487.723701 60.580859 
L 489.001836 42.501814 
L 490.279972 63.115767 
L 491.558107 63.93842 
L 492.836243 39.939952 
L 494.114379 56.90998 
L 495.392514 61.239851 
L 496.67065 47.561424 
L 497.948785 63.377526 
L 499.226921 85.801523 
L 500.505056 62.542151 
L 501.783192 70.295353 
L 503.061327 95.159595 
L 504.339463 65.918963 
L 506.895734 96.681231 
L 508.17387 81.891238 
L 509.452005 77.347707 
L 510.730141 93.029152 
L 512.008276 79.466278 
L 513.286412 64.397783 
L 514.564548 94.008794 
L 515.842683 72.584482 
L 517.120819 53.572924 
L 518.398954 66.103222 
L 519.67709 60.531021 
L 520.955225 43.390972 
L 522.233361 52.725157 
L 523.511496 58.97443 
L 524.789632 37.448999 
L 526.067768 62.953074 
L 527.345903 67.097909 
L 528.624039 47.85945 
L 529.902174 65.34355 
L 531.18031 75.579574 
L 532.458445 61.741357 
L 533.736581 71.955759 
L 535.014717 94.38554 
L 536.292852 66.214911 
L 537.570988 82.472249 
L 538.849123 102.093935 
L 540.127259 72.62408 
L 541.405394 76.811419 
L 542.68353 92.413357 
L 543.961665 79.482721 
L 545.239801 72.904317 
L 546.517937 86.656549 
L 547.796072 63.300356 
L 549.074208 54.679331 
L 550.352343 75.132692 
L 551.630479 61.086386 
L 552.908614 44.019221 
L 554.18675 58.143125 
L 555.464886 55.432213 
L 556.743021 41.383472 
L 558.021157 62.407955 
L 559.299292 73.683099 
L 560.577428 47.630691 
L 563.133699 79.825743 
L 564.411834 61.858486 
L 565.68997 71.643671 
L 566.968106 89.232315 
L 568.246241 68.70522 
L 569.524377 73.57195 
L 570.802512 101.778447 
L 572.080648 77.076504 
L 573.358783 82.604933 
L 574.636919 101.752949 
L 575.915055 72.172182 
L 577.19319 61.415905 
L 578.471326 79.676592 
L 579.749461 67.256393 
L 581.027597 56.686453 
L 582.305732 74.192779 
L 583.583868 62.493329 
L 584.862003 44.623233 
L 586.140139 61.67368 
L 587.418275 64.444617 
L 588.69641 42.381993 
L 589.974546 55.469947 
L 591.252681 64.101604 
L 592.530817 45.79291 
L 593.808952 67.146832 
L 595.087088 78.617705 
L 596.365224 64.084624 
L 597.643359 71.668682 
L 598.921495 93.809962 
L 600.19963 70.993579 
L 601.477766 75.980316 
L 602.755901 98.55155 
L 604.034037 79.333999 
L 605.312172 78.142668 
L 606.590308 96.312566 
L 607.868444 74.260171 
L 609.146579 64.015521 
L 610.424715 80.889602 
L 611.70285 70.077864 
L 612.980986 56.569647 
L 614.259121 69.284635 
L 615.537257 61.581334 
L 616.815393 39.386457 
L 618.093528 63.707118 
L 619.371664 58.668963 
L 620.649799 48.886582 
L 621.927935 62.893847 
L 623.20607 61.780493 
L 624.484206 47.636026 
L 625.762341 58.419284 
L 627.040477 74.038378 
L 628.318613 61.41825 
L 629.596748 71.722626 
L 630.874884 90.640922 
L 632.153019 73.280082 
L 633.431155 78.309807 
L 634.70929 100.751287 
L 635.987426 83.197711 
L 637.265562 77.364532 
L 638.543697 92.397668 
L 639.821833 83.612714 
L 641.099968 67.50642 
L 642.378104 75.662088 
L 643.656239 72.585695 
L 644.934375 57.526541 
L 646.212511 74.20538 
L 648.768782 46.370804 
L 650.046917 59.639795 
L 651.325053 58.535574 
L 652.603188 43.728703 
L 653.881324 60.289934 
L 655.159459 63.220963 
L 656.437595 41.645122 
L 657.715731 63.321312 
L 658.993866 77.020278 
L 660.272002 59.230063 
L 661.550137 74.098558 
L 662.828273 94.674912 
L 664.106408 75.24306 
L 665.384544 74.673751 
L 666.66268 97.241609 
L 667.940815 81.184939 
L 669.218951 80.192436 
L 670.497086 101.165671 
L 671.775222 76.764189 
L 673.053357 67.846326 
L 674.331493 84.15906 
L 675.609628 66.016482 
L 676.887764 51.335522 
L 678.1659 64.745792 
L 679.444035 60.602114 
L 680.722171 42.305572 
L 682.000306 57.454769 
L 683.278442 62.103959 
L 684.556577 38.141751 
L 685.834713 61.259802 
L 687.112849 69.855392 
L 688.390984 51.093159 
L 689.66912 63.966463 
L 690.947255 78.037556 
L 692.225391 60.653649 
L 693.503526 71.341843 
L 694.781662 90.61305 
L 696.059797 69.700453 
L 697.337933 76.819778 
L 698.616069 102.133853 
L 699.894204 80.613786 
L 701.17234 74.474528 
L 702.450475 94.73558 
L 703.728611 81.159946 
L 705.006746 64.790457 
L 706.284882 84.49672 
L 707.563018 67.425359 
L 708.841153 54.23315 
L 710.119289 75.49776 
L 711.397424 61.006605 
L 712.67556 42.153291 
L 713.953695 62.542846 
L 715.231831 58.203434 
L 716.509966 37.398323 
L 717.788102 56.950704 
L 719.066238 67.330344 
L 720.344373 48.731483 
L 721.622509 66.936118 
L 722.900644 82.435754 
L 724.17878 60.490545 
L 725.456915 74.869973 
L 726.735051 85.1788 
L 728.013187 67.354708 
L 729.291322 78.441173 
L 730.569458 97.310333 
L 731.847593 86.014957 
L 733.125729 80.877754 
L 734.403864 91.912795 
L 736.960135 65.103629 
L 738.238271 86.351947 
L 739.516407 67.837519 
L 740.794542 51.699564 
L 742.072678 72.621931 
L 743.350813 64.286775 
L 744.628949 43.336125 
L 744.628949 43.336125 
" clip-path="url(#p6aa47887d8)" style="fill: none; stroke: #000000; stroke-width: 0.8; stroke-linecap: square"/>
   </g>
   <g id="patch_3">
    <path d="M 58.845313 109.408584 
L 58.845313 30.242812 
" style="fill: none; stroke: #000000; stroke-width: 0.8; stroke-linejoin: miter; stroke-linecap: square"/>
   </g>
   <g id="patch_4">
    <path d="M 777.285312 109.408584 
L 777.285312 30.242812 
" style="fill: none; stroke: #000000; stroke-width: 0.8; stroke-linejoin: miter; stroke-linecap: square"/>
   </g>
   <g id="patch_5">
    <path d="M 58.845312 109.408584 
L 777.285312 109.408584 
" style="fill: none; stroke: #000000; stroke-width: 0.8; stroke-linejoin: miter; stroke-linecap: square"/>
   </g>
   <g id="patch_6">
    <path d="M 58.845312 30.242813 
L 777.285312 30.242813 
" style="fill: none; stroke: #000000; stroke-width: 0.8; stroke-linejoin: miter; stroke-linecap: square"/>
   </g>
  </g>
  <g id="axes_2">
   <g id="patch_7">
    <path d="M 58.845313 205.625852 
L 777.285312 205.625852 
L 777.285312 126.46008 
L 58.845313 126.46008 
z
" style="fill: #ffffff"/>
   </g>
   <g id="matplotlib.axis_3">
    <g id="xtick_7">
     <g id="line2d_11">
      <g>
       <use xlink:href="#md5ee8f44f8" x="100.448625" y="205.625852" style="stroke: #000000; stroke-width: 0.8"/>
      </g>
     </g>
    </g>
    <g id="xtick_8">
     <g id="line2d_12">
      <g>
       <use xlink:href="#md5ee8f44f8" x="228.262181" y="205.625852" style="stroke: #000000; stroke-width: 0.8"/>
      </g>
     </g>
    </g>
    <g id="xtick_9">
     <g id="line2d_13">
      <g>
       <use xlink:href="#md5ee8f44f8" x="356.075738" y="205.625852" style="stroke: #000000; stroke-width: 0.8"/>
      </g>
     </g>
    </g>
    <g id="xtick_10">
     <g id="line2d_14">
      <g>
       <use xlink:href="#md5ee8f44f8" x="483.889294" y="205.625852" style="stroke: #000000; stroke-width: 0.8"/>
      </g>
     </g>
    </g>
    <g id="xtick_11">
     <g id="line2d_15">
      <g>
       <use xlink:href="#md5ee8f44f8" x="611.70285" y="205.625852" style="stroke: #000000; stroke-width: 0.8"/>
      </g>
     </g>
    </g>
    <g id="xtick_12">
     <g id="line2d_16">
      <g>
       <use xlink:href="#md5ee8f44f8" x="739.516407" y="205.625852" style="stroke: #000000; stroke-width: 0.8"/>
      </g>
     </g>
    </g>
   </g>
   <g id="matplotlib.axis_4">
    <g id="ytick_4">
     <g id="line2d_17">
      <g>
       <use xlink:href="#m7cc1e2a007" x="58.845313" y="203.289456" style="stroke: #000000; stroke-width: 0.8"/>
      </g>
     </g>
     <g id="text_5">
      <!-- −0.5 -->
      <g transform="translate(27.5625 207.088284) scale(0.1 -0.1)">
       <defs>
        <path id="DejaVuSans-11" d="M 684 794 
L 1344 794 
L 1344 0 
L 684 0 
L 684 794 
z
" transform="scale(0.015625)"/>
        <path id="DejaVuSans-18" d="M 691 4666 
L 3169 4666 
L 3169 4134 
L 1269 4134 
L 1269 2991 
Q 1406 3038 1543 3061 
Q 1681 3084 1819 3084 
Q 2600 3084 3056 2656 
Q 3513 2228 3513 1497 
Q 3513 744 3044 326 
Q 2575 -91 1722 -91 
Q 1428 -91 1123 -41 
Q 819 9 494 109 
L 494 744 
Q 775 591 1075 516 
Q 1375 441 1709 441 
Q 2250 441 2565 725 
Q 2881 1009 2881 1497 
Q 2881 1984 2565 2268 
Q 2250 2553 1709 2553 
Q 1456 2553 1204 2497 
Q 953 2441 691 2322 
L 691 4666 
z
" transform="scale(0.015625)"/>
       </defs>
       <use xlink:href="#DejaVuSans-c9c"/>
       <use xlink:href="#DejaVuSans-13" transform="translate(83.796875 0)"/>
       <use xlink:href="#DejaVuSans-11" transform="translate(147.421875 0)"/>
       <use xlink:href="#DejaVuSans-18" transform="translate(179.203125 0)"/>
      </g>
     </g>
    </g>
    <g id="ytick_5">
     <g id="line2d_18">
      <g>
       <use xlink:href="#m7cc1e2a007" x="58.845313" y="166.12287" style="stroke: #000000; stroke-width: 0.8"/>
      </g>
     </g>
     <g id="text_6">
      <!-- 0.0 -->
      <g transform="translate(35.942188 169.921698) scale(0.1 -0.1)">
       <use xlink:href="#DejaVuSans-13"/>
       <use xlink:href="#DejaVuSans-11" transform="translate(63.625 0)"/>
       <use xlink:href="#DejaVuSans-13" transform="translate(95.40625 0)"/>
      </g>
     </g>
    </g>
    <g id="ytick_6">
     <g id="line2d_19">
      <g>
       <use xlink:href="#m7cc1e2a007" x="58.845313" y="128.956284" style="stroke: #000000; stroke-width: 0.8"/>
      </g>
     </g>
     <g id="text_7">
      <!-- 0.5 -->
      <g transform="translate(35.942188 132.755112) scale(0.1 -0.1)">
       <use xlink:href="#DejaVuSans-13"/>
       <use xlink:href="#DejaVuSans-11" transform="translate(63.625 0)"/>
       <use xlink:href="#DejaVuSans-18" transform="translate(95.40625 0)"/>
      </g>
     </g>
    </g>
    <g id="text_8">
     <!-- IMF 1 -->
     <g transform="translate(21.160156 179.478123) rotate(-90) scale(0.1 -0.1)">
      <defs>
       <path id="DejaVuSans-2c" d="M 628 4666 
L 1259 4666 
L 1259 0 
L 628 0 
L 628 4666 
z
" transform="scale(0.015625)"/>
       <path id="DejaVuSans-30" d="M 628 4666 
L 1569 4666 
L 2759 1491 
L 3956 4666 
L 4897 4666 
L 4897 0 
L 4281 0 
L 4281 4097 
L 3078 897 
L 2444 897 
L 1241 4097 
L 1241 0 
L 628 0 
L 628 4666 
z
" transform="scale(0.015625)"/>
       <path id="DejaVuSans-29" d="M 628 4666 
L 3309 4666 
L 3309 4134 
L 1259 4134 
L 1259 2759 
L 3109 2759 
L 3109 2228 
L 1259 2228 
L 1259 0 
L 628 0 
L 628 4666 
z
" transform="scale(0.015625)"/>
       <path id="DejaVuSans-3" transform="scale(0.015625)"/>
      </defs>
      <use xlink:href="#DejaVuSans-2c"/>
      <use xlink:href="#DejaVuSans-30" transform="translate(29.5 0)"/>
      <use xlink:href="#DejaVuSans-29" transform="translate(115.78125 0)"/>
      <use xlink:href="#DejaVuSans-3" transform="translate(173.296875 0)"/>
      <use xlink:href="#DejaVuSans-14" transform="translate(205.078125 0)"/>
     </g>
    </g>
   </g>
   <g id="line2d_20">
    <path d="M 91.501676 185.938655 
L 92.779812 160.578539 
L 94.057947 147.865733 
L 95.336083 183.33431 
L 96.614218 149.683515 
L 97.892354 150.028495 
L 99.17049 183.844295 
L 100.448625 155.769552 
L 101.726761 144.610661 
L 103.004896 190.018779 
L 104.283032 174.852071 
L 105.561167 137.134894 
L 106.839303 193.433069 
L 108.117438 198.082031 
L 109.395574 135.00169 
L 111.951845 192.025674 
L 113.229981 142.08393 
L 114.508116 161.57211 
L 115.786252 191.712275 
L 117.064387 137.81937 
L 118.342523 151.147617 
L 119.620659 198.111328 
L 120.898794 135.356671 
L 122.17693 148.524001 
L 123.455065 190.617409 
L 124.733201 144.347359 
L 126.011336 144.650484 
L 127.289472 190.658827 
L 128.567607 158.260273 
L 129.845743 136.5059 
L 131.123879 196.560903 
L 132.402014 162.02561 
L 133.68015 138.652649 
L 134.958285 189.388184 
L 136.236421 189.834215 
L 137.514556 142.368112 
L 138.792692 191.287524 
L 140.070828 188.923525 
L 141.348963 139.093703 
L 142.627099 191.81068 
L 143.905234 183.144296 
L 145.18337 143.650251 
L 146.461505 166.307314 
L 147.739641 190.954858 
L 149.017776 139.695336 
L 150.295912 169.533166 
L 151.574048 193.153709 
L 152.852183 142.645179 
L 154.130319 138.572374 
L 155.408454 195.069224 
L 156.68659 137.662138 
L 157.964725 134.540407 
L 159.242861 197.017442 
L 160.520997 147.968523 
L 161.799132 138.890911 
L 163.077268 193.403037 
L 164.355403 183.694767 
L 165.633539 134.88345 
L 166.911674 198.147995 
L 168.18981 185.9412 
L 169.467945 136.536999 
L 170.746081 189.129657 
L 172.024217 194.161699 
L 173.302352 137.641782 
L 174.580488 192.886691 
L 175.858623 194.703502 
L 177.136759 139.210225 
L 178.414894 168.868895 
L 179.69303 188.915532 
L 180.971166 143.340446 
L 182.249301 163.553707 
L 183.527437 193.513326 
L 184.805572 136.220035 
L 186.083708 151.137328 
L 187.361843 197.054851 
L 188.639979 136.964224 
L 189.918114 149.852504 
L 191.19625 190.86771 
L 192.474386 168.896669 
L 193.752521 142.39149 
L 195.030657 189.789472 
L 196.308792 171.223659 
L 197.586928 143.834811 
L 198.865063 188.357512 
L 200.143199 166.45082 
L 201.421335 139.25579 
L 202.69947 183.258717 
L 203.977606 198.809917 
L 205.255741 134.852286 
L 206.533877 192.600668 
L 207.812012 181.658625 
L 209.090148 147.992956 
L 210.368284 156.169512 
L 211.646419 188.412848 
L 212.924555 139.713415 
L 214.20269 163.656689 
L 215.480826 196.242621 
L 216.758961 136.529687 
L 218.037097 153.199706 
L 219.315232 194.855826 
L 220.593368 136.464155 
L 221.871504 140.421232 
L 223.149639 196.750809 
L 224.427775 144.019187 
L 225.70591 140.039426 
L 226.984046 189.64177 
L 228.262181 172.006171 
L 229.540317 144.472564 
L 230.818453 187.845298 
L 232.096588 184.322734 
L 233.374724 144.359358 
L 234.652859 177.071379 
L 235.930995 187.488868 
L 237.20913 144.991527 
L 238.487266 181.920632 
L 239.765401 188.065298 
L 241.043537 142.335644 
L 242.321673 162.202924 
L 243.599808 194.721038 
L 244.877944 136.375336 
L 246.156079 164.16476 
L 247.434215 195.914434 
L 248.71235 135.981159 
L 249.990486 146.414231 
L 251.268622 196.533832 
L 252.546757 140.42325 
L 253.824893 139.278648 
L 255.103028 190.996394 
L 256.381164 163.971815 
L 257.659299 141.802877 
L 258.937435 191.60226 
L 260.21557 160.416565 
L 261.493706 139.890488 
L 262.771842 190.408681 
L 264.049977 183.460927 
L 265.328113 147.632299 
L 266.606248 172.217004 
L 267.884384 183.002965 
L 269.162519 148.589427 
L 270.440655 178.805706 
L 271.718791 183.937798 
L 272.996926 149.041415 
L 274.275062 173.563366 
L 275.553197 183.852267 
L 276.831333 145.762781 
L 278.109468 172.02411 
L 279.387604 191.809102 
L 280.665739 141.003407 
L 281.943875 155.74206 
L 283.222011 183.852754 
L 284.500146 156.526843 
L 285.778282 153.464962 
L 287.056417 180.497124 
L 288.334553 174.698463 
L 289.612688 143.383084 
L 290.890824 191.005855 
L 293.447095 144.043344 
L 294.725231 184.252458 
L 296.003366 184.265791 
L 297.281502 148.473428 
L 298.559637 183.953665 
L 299.837773 186.88005 
L 301.115908 143.503679 
L 303.67218 190.802455 
L 304.950315 140.688635 
L 306.228451 168.505334 
L 307.506586 192.770486 
L 308.784722 140.23929 
L 310.062857 155.500407 
L 311.340993 187.596217 
L 312.619129 146.598364 
L 313.897264 155.986562 
L 315.1754 183.250711 
L 316.453535 159.245802 
L 317.731671 151.640565 
L 319.009806 180.232787 
L 320.287942 159.690854 
L 321.566077 147.62546 
L 322.844213 188.381136 
L 324.122349 158.514294 
L 325.400484 139.796926 
L 326.67862 191.520591 
L 327.956755 187.247811 
L 329.234891 143.725453 
L 330.513026 183.449594 
L 331.791162 189.373755 
L 333.069298 142.665724 
L 334.347433 182.869999 
L 335.625569 186.298998 
L 336.903704 148.067522 
L 338.18184 169.975755 
L 339.459975 184.506829 
L 340.738111 144.292981 
L 342.016246 157.447284 
L 343.294382 196.146726 
L 344.572518 135.081635 
L 347.128789 191.682588 
L 348.406924 155.972312 
L 349.68506 147.884446 
L 350.963195 182.65916 
L 352.241331 150.441275 
L 353.519467 149.217192 
L 354.797602 183.568347 
L 356.075738 159.175406 
L 357.353873 147.428026 
L 358.632009 186.453697 
L 359.910144 182.541749 
L 361.18828 141.359617 
L 362.466416 191.872073 
L 363.744551 193.43495 
L 365.022687 138.333231 
L 366.300822 182.02562 
L 367.578958 192.467941 
L 368.857093 142.751863 
L 370.135229 180.612426 
L 371.413364 182.927233 
L 372.6915 149.4148 
L 373.969636 163.362397 
L 375.247771 186.889662 
L 376.525907 149.734317 
L 377.804042 146.352585 
L 379.082178 184.175093 
L 380.360313 152.604798 
L 381.638449 146.41863 
L 382.916585 189.657441 
L 384.19472 147.050976 
L 385.472856 135.956172 
L 386.750991 196.461601 
L 388.029127 179.253089 
L 389.307262 138.891232 
L 390.585398 193.043782 
L 391.863533 191.01423 
L 393.141669 136.630493 
L 394.419805 189.185758 
L 395.69794 196.688372 
L 396.976076 136.815143 
L 398.254211 173.668039 
L 399.532347 191.137313 
L 400.810482 142.342598 
L 402.088618 177.813441 
L 403.366754 192.447592 
L 404.644889 136.287471 
L 405.923025 156.439388 
L 407.20116 200.537958 
L 408.479296 144.872047 
L 409.757431 138.623082 
L 411.035567 187.668524 
L 412.313702 148.716186 
L 413.591838 154.847167 
L 414.869974 185.456852 
L 416.148109 165.597563 
L 417.426245 137.436565 
L 418.70438 198.543705 
L 419.982516 179.173231 
L 421.260651 132.835207 
L 422.538787 196.7194 
L 423.816923 180.585336 
L 425.095058 142.88777 
L 426.373194 186.375518 
L 427.651329 180.93012 
L 428.929465 150.244205 
L 430.2076 175.431409 
L 431.485736 181.099444 
L 432.763871 148.109212 
L 434.042007 168.659221 
L 435.320143 193.578016 
L 436.598278 137.295751 
L 437.876414 178.321381 
L 439.154549 189.80892 
L 440.432685 144.153982 
L 441.71082 165.389514 
L 442.988956 191.953134 
L 444.267092 136.809036 
L 445.545227 146.215134 
L 446.823363 198.400545 
L 449.379634 138.885382 
L 450.657769 190.144015 
L 451.935905 169.394854 
L 453.21404 143.540452 
L 454.492176 191.074402 
L 455.770312 171.56281 
L 457.048447 135.183827 
L 458.326583 197.86833 
L 459.604718 192.338197 
L 460.882854 138.051743 
L 462.160989 191.447422 
L 463.439125 186.3718 
L 464.717261 144.631243 
L 467.273532 186.536247 
L 468.551667 146.229365 
L 469.829803 175.273744 
L 471.107938 184.394453 
L 472.386074 147.782416 
L 473.664209 151.936089 
L 474.942345 188.241582 
L 476.220481 140.927251 
L 477.498616 145.508641 
L 478.776752 195.529834 
L 480.054887 137.38275 
L 481.333023 153.802072 
L 482.611158 189.206249 
L 483.889294 158.969057 
L 485.16743 146.398252 
L 486.445565 187.181662 
L 487.723701 171.991398 
L 489.001836 139.720336 
L 490.279972 189.146234 
L 491.558107 192.606157 
L 492.836243 142.093021 
L 494.114379 181.884731 
L 495.392514 186.616169 
L 496.67065 144.191914 
L 497.948785 161.928924 
L 499.226921 195.216711 
L 500.505056 133.84037 
L 501.783192 146.953202 
L 503.061327 201.025486 
L 504.339463 132.648646 
L 506.895734 191.087327 
L 508.17387 154.619351 
L 509.452005 147.563459 
L 510.730141 187.543985 
L 512.008276 161.195859 
L 513.286412 131.84444 
L 514.564548 202.027408 
L 515.842683 166.654577 
L 517.120819 141.454823 
L 518.398954 184.309114 
L 519.67709 181.796763 
L 520.955225 150.927264 
L 522.233361 174.244535 
L 523.511496 188.779419 
L 524.789632 140.094535 
L 526.067768 191.487765 
L 527.345903 192.402362 
L 528.624039 142.327966 
L 529.902174 173.635154 
L 531.18031 186.405802 
L 532.458445 143.818389 
L 533.736581 157.419403 
L 535.014717 198.361342 
L 536.292852 130.058525 
L 537.570988 161.689245 
L 538.849123 201.027591 
L 540.127259 135.922327 
L 541.405394 148.460011 
L 542.68353 185.508375 
L 543.961665 158.754142 
L 545.239801 148.802668 
L 546.517937 186.814559 
L 547.796072 145.431029 
L 549.074208 137.876493 
L 550.352343 193.894063 
L 551.630479 173.790961 
L 552.908614 146.054232 
L 554.18675 184.501313 
L 555.464886 177.454249 
L 556.743021 141.834394 
L 558.021157 180.696447 
L 559.299292 198.127701 
L 560.577428 134.273014 
L 563.133699 191.219664 
L 564.411834 143.104264 
L 565.68997 157.756919 
L 566.968106 191.155255 
L 568.246241 139.231343 
L 569.524377 141.114345 
L 570.802512 195.859165 
L 572.080648 134.816581 
L 573.358783 148.521948 
L 574.636919 198.525499 
L 575.915055 148.730422 
L 577.19319 139.403311 
L 578.471326 189.275609 
L 581.027597 144.885267 
L 582.305732 189.254082 
L 583.583868 171.368513 
L 584.862003 139.670794 
L 586.140139 182.332964 
L 587.418275 190.306236 
L 588.69641 143.30827 
L 589.974546 172.631986 
L 591.252681 188.883957 
L 592.530817 143.224189 
L 593.808952 177.03072 
L 595.087088 188.511362 
L 596.365224 143.019177 
L 597.643359 151.252566 
L 598.921495 192.461804 
L 600.19963 139.392315 
L 601.477766 144.516505 
L 602.755901 190.346094 
L 604.034037 143.784978 
L 605.312172 142.935741 
L 606.590308 190.364354 
L 607.868444 153.453119 
L 609.146579 142.068511 
L 610.424715 188.123627 
L 611.70285 169.615223 
L 612.980986 147.003209 
L 614.259121 187.245445 
L 615.537257 181.120179 
L 616.815393 139.684928 
L 618.093528 191.072129 
L 619.371664 174.652434 
L 620.649799 149.407273 
L 621.927935 181.31989 
L 623.20607 179.365532 
L 624.484206 148.000894 
L 625.762341 163.993507 
L 627.040477 186.122303 
L 628.318613 145.774669 
L 629.596748 157.153794 
L 630.874884 188.674725 
L 632.153019 142.038291 
L 633.431155 146.98299 
L 634.70929 191.423681 
L 635.987426 153.438055 
L 637.265562 144.00012 
L 638.543697 185.143228 
L 639.821833 176.908485 
L 641.099968 152.52013 
L 642.378104 179.931713 
L 643.656239 176.008923 
L 644.934375 146.399236 
L 646.212511 188.188706 
L 648.768782 145.370891 
L 650.046917 182.551929 
L 651.325053 182.808782 
L 652.603188 148.88081 
L 653.881324 185.500893 
L 655.159459 189.897833 
L 656.437595 139.644679 
L 657.715731 176.640188 
L 658.993866 193.911481 
L 660.272002 138.201297 
L 661.550137 157.340899 
L 662.828273 193.67227 
L 664.106408 145.819513 
L 665.384544 142.082127 
L 666.66268 188.555632 
L 667.940815 147.480473 
L 669.218951 143.171383 
L 670.497086 190.627478 
L 671.775222 147.213355 
L 673.053357 140.022741 
L 674.331493 191.1568 
L 675.609628 166.237716 
L 676.887764 145.467647 
L 678.1659 185.322956 
L 679.444035 180.476946 
L 680.722171 145.155497 
L 682.000306 181.432384 
L 683.278442 192.96499 
L 684.556577 137.611776 
L 685.834713 183.093985 
L 687.112849 192.655352 
L 688.390984 141.738923 
L 689.66912 163.603059 
L 690.947255 188.289829 
L 692.225391 143.252786 
L 693.503526 159.358949 
L 694.781662 192.995178 
L 696.059797 137.273616 
L 697.337933 143.790162 
L 698.616069 195.739687 
L 699.894204 148.613048 
L 701.17234 139.905019 
L 702.450475 190.891313 
L 703.728611 170.325629 
L 705.006746 141.228054 
L 706.284882 191.996329 
L 707.563018 161.531814 
L 708.841153 138.736662 
L 710.119289 193.545988 
L 711.397424 171.702815 
L 712.67556 139.620754 
L 713.953695 192.203628 
L 715.231831 185.72587 
L 716.509966 140.312859 
L 717.788102 179.05931 
L 719.066238 192.355682 
L 720.344373 139.498877 
L 721.622509 168.499501 
L 722.900644 192.668849 
L 724.17878 140.362606 
L 725.456915 170.636433 
L 726.735051 190.31395 
L 728.013187 142.544881 
L 729.291322 156.282347 
L 730.569458 186.261197 
L 731.847593 158.393975 
L 733.125729 150.481443 
L 734.403864 182.820037 
L 735.682 163.871897 
L 736.960135 140.731023 
L 738.238271 194.77276 
L 739.516407 162.811475 
L 740.794542 137.230959 
L 742.072678 194.192171 
L 743.350813 182.153431 
L 744.628949 138.292498 
L 744.628949 138.292498 
" clip-path="url(#p2a3a0a21de)" style="fill: none; stroke: #1f77b4; stroke-width: 0.7; stroke-linecap: square"/>
   </g>
   <g id="patch_8">
    <path d="M 58.845313 205.625852 
L 58.845313 126.46008 
" style="fill: none; stroke: #000000; stroke-width: 0.8; stroke-linejoin: miter; stroke-linecap: square"/>
   </g>
   <g id="patch_9">
    <path d="M 777.285312 205.625852 
L 777.285312 126.46008 
" style="fill: none; stroke: #000000; stroke-width: 0.8; stroke-linejoin: miter; stroke-linecap: square"/>
   </g>
   <g id="patch_10">
    <path d="M 58.845312 205.625852 
L 777.285312 205.625852 
" style="fill: none; stroke: #000000; stroke-width: 0.8; stroke-linejoin: miter; stroke-linecap: square"/>
   </g>
   <g id="patch_11">
    <path d="M 58.845312 126.46008 
L 777.285312 126.46008 
" style="fill: none; stroke: #000000; stroke-width: 0.8; stroke-linejoin: miter; stroke-linecap: square"/>
   </g>
  </g>
  <g id="axes_3">
   <g id="patch_12">
    <path d="M 58.845313 301.84312 
L 777.285312 301.84312 
L 777.285312 222.677348 
L 58.845313 222.677348 
z
" style="fill: #ffffff"/>
   </g>
   <g id="matplotlib.axis_5">
    <g id="xtick_13">
     <g id="line2d_21">
      <g>
       <use xlink:href="#md5ee8f44f8" x="100.448625" y="301.84312" style="stroke: #000000; stroke-width: 0.8"/>
      </g>
     </g>
    </g>
    <g id="xtick_14">
     <g id="line2d_22">
      <g>
       <use xlink:href="#md5ee8f44f8" x="228.262181" y="301.84312" style="stroke: #000000; stroke-width: 0.8"/>
      </g>
     </g>
    </g>
    <g id="xtick_15">
     <g id="line2d_23">
      <g>
       <use xlink:href="#md5ee8f44f8" x="356.075738" y="301.84312" style="stroke: #000000; stroke-width: 0.8"/>
      </g>
     </g>
    </g>
    <g id="xtick_16">
     <g id="line2d_24">
      <g>
       <use xlink:href="#md5ee8f44f8" x="483.889294" y="301.84312" style="stroke: #000000; stroke-width: 0.8"/>
      </g>
     </g>
    </g>
    <g id="xtick_17">
     <g id="line2d_25">
      <g>
       <use xlink:href="#md5ee8f44f8" x="611.70285" y="301.84312" style="stroke: #000000; stroke-width: 0.8"/>
      </g>
     </g>
    </g>
    <g id="xtick_18">
     <g id="line2d_26">
      <g>
       <use xlink:href="#md5ee8f44f8" x="739.516407" y="301.84312" style="stroke: #000000; stroke-width: 0.8"/>
      </g>
     </g>
    </g>
   </g>
   <g id="matplotlib.axis_6">
    <g id="ytick_7">
     <g id="line2d_27">
      <g>
       <use xlink:href="#m7cc1e2a007" x="58.845313" y="284.920424" style="stroke: #000000; stroke-width: 0.8"/>
      </g>
     </g>
     <g id="text_9">
      <!-- −0.5 -->
      <g transform="translate(27.5625 288.719252) scale(0.1 -0.1)">
       <use xlink:href="#DejaVuSans-c9c"/>
       <use xlink:href="#DejaVuSans-13" transform="translate(83.796875 0)"/>
       <use xlink:href="#DejaVuSans-11" transform="translate(147.421875 0)"/>
       <use xlink:href="#DejaVuSans-18" transform="translate(179.203125 0)"/>
      </g>
     </g>
    </g>
    <g id="ytick_8">
     <g id="line2d_28">
      <g>
       <use xlink:href="#m7cc1e2a007" x="58.845313" y="261.995413" style="stroke: #000000; stroke-width: 0.8"/>
      </g>
     </g>
     <g id="text_10">
      <!-- 0.0 -->
      <g transform="translate(35.942188 265.794241) scale(0.1 -0.1)">
       <use xlink:href="#DejaVuSans-13"/>
       <use xlink:href="#DejaVuSans-11" transform="translate(63.625 0)"/>
       <use xlink:href="#DejaVuSans-13" transform="translate(95.40625 0)"/>
      </g>
     </g>
    </g>
    <g id="ytick_9">
     <g id="line2d_29">
      <g>
       <use xlink:href="#m7cc1e2a007" x="58.845313" y="239.070403" style="stroke: #000000; stroke-width: 0.8"/>
      </g>
     </g>
     <g id="text_11">
      <!-- 0.5 -->
      <g transform="translate(35.942188 242.869231) scale(0.1 -0.1)">
       <use xlink:href="#DejaVuSans-13"/>
       <use xlink:href="#DejaVuSans-11" transform="translate(63.625 0)"/>
       <use xlink:href="#DejaVuSans-18" transform="translate(95.40625 0)"/>
      </g>
     </g>
    </g>
    <g id="text_12">
     <!-- IMF 2 -->
     <g transform="translate(21.160156 275.695391) rotate(-90) scale(0.1 -0.1)">
      <defs>
       <path id="DejaVuSans-15" d="M 1228 531 
L 3431 531 
L 3431 0 
L 469 0 
L 469 531 
Q 828 903 1448 1529 
Q 2069 2156 2228 2338 
Q 2531 2678 2651 2914 
Q 2772 3150 2772 3378 
Q 2772 3750 2511 3984 
Q 2250 4219 1831 4219 
Q 1534 4219 1204 4116 
Q 875 4013 500 3803 
L 500 4441 
Q 881 4594 1212 4672 
Q 1544 4750 1819 4750 
Q 2544 4750 2975 4387 
Q 3406 4025 3406 3419 
Q 3406 3131 3298 2873 
Q 3191 2616 2906 2266 
Q 2828 2175 2409 1742 
Q 1991 1309 1228 531 
z
" transform="scale(0.015625)"/>
      </defs>
      <use xlink:href="#DejaVuSans-2c"/>
      <use xlink:href="#DejaVuSans-30" transform="translate(29.5 0)"/>
      <use xlink:href="#DejaVuSans-29" transform="translate(115.78125 0)"/>
      <use xlink:href="#DejaVuSans-3" transform="translate(173.296875 0)"/>
      <use xlink:href="#DejaVuSans-15" transform="translate(205.078125 0)"/>
     </g>
    </g>
   </g>
   <g id="line2d_30">
    <path d="M 91.501676 286.403638 
L 94.057947 283.759531 
L 95.336083 282.481359 
L 96.614218 279.438638 
L 97.892354 274.980324 
L 99.17049 269.507627 
L 100.448625 261.831716 
L 101.726761 253.302385 
L 103.004896 247.937957 
L 104.283032 243.219096 
L 105.561167 241.024273 
L 108.117438 237.720598 
L 109.395574 237.525306 
L 110.67371 239.297562 
L 111.951845 241.671513 
L 113.229981 245.256886 
L 115.786252 254.183577 
L 117.064387 262.086512 
L 119.620659 276.0083 
L 120.898794 280.63318 
L 122.17693 283.930407 
L 123.455065 286.571244 
L 124.733201 288.199934 
L 126.011336 288.181695 
L 127.289472 286.196863 
L 128.567607 281.629227 
L 129.845743 275.921209 
L 131.123879 269.15234 
L 132.402014 258.874161 
L 133.68015 250.365668 
L 134.958285 244.244412 
L 136.236421 238.947095 
L 137.514556 236.551672 
L 138.792692 233.346812 
L 140.070828 232.263225 
L 141.348963 233.919836 
L 142.627099 239.769342 
L 143.905234 246.867887 
L 145.18337 253.330777 
L 146.461505 256.077097 
L 147.739641 256.319169 
L 149.017776 256.964346 
L 150.295912 260.241159 
L 151.574048 266.342373 
L 154.130319 282.920674 
L 155.408454 289.885145 
L 156.68659 293.141053 
L 157.964725 293.312361 
L 159.242861 288.443971 
L 160.520997 278.699859 
L 163.077268 255.759967 
L 164.355403 249.113514 
L 165.633539 245.563463 
L 166.911674 244.285355 
L 169.467945 238.254779 
L 172.024217 231.53382 
L 173.302352 232.510929 
L 175.858623 237.563841 
L 177.136759 242.334247 
L 178.414894 246.444786 
L 179.69303 251.747013 
L 180.971166 259.586476 
L 182.249301 268.336184 
L 184.805572 283.15178 
L 186.083708 287.31369 
L 187.361843 290.451159 
L 188.639979 289.652468 
L 191.19625 282.541158 
L 192.474386 278.208355 
L 193.752521 274.469421 
L 195.030657 268.536441 
L 196.308792 261.485226 
L 197.586928 253.400252 
L 198.865063 248.229365 
L 200.143199 245.204716 
L 201.421335 243.246299 
L 202.69947 239.711812 
L 203.977606 235.732066 
L 205.255741 233.502263 
L 206.533877 236.777457 
L 210.368284 260.205193 
L 211.646419 264.198277 
L 212.924555 267.304367 
L 214.20269 271.32978 
L 215.480826 275.814374 
L 221.871504 289.942206 
L 223.149639 287.415148 
L 224.427775 281.386862 
L 226.984046 264.819264 
L 228.262181 258.012931 
L 229.540317 253.371983 
L 230.818453 250.075009 
L 232.096588 246.41437 
L 234.652859 239.868661 
L 235.930995 237.728628 
L 237.20913 236.714874 
L 238.487266 239.162299 
L 239.765401 242.993893 
L 243.599808 257.096838 
L 244.877944 260.504431 
L 246.156079 264.408491 
L 249.990486 282.217346 
L 251.268622 285.255662 
L 252.546757 283.247131 
L 253.824893 279.913332 
L 256.381164 272.118486 
L 260.21557 257.691533 
L 261.493706 253.325133 
L 262.771842 248.029632 
L 264.049977 244.759993 
L 265.328113 239.546143 
L 266.606248 235.98827 
L 267.884384 235.248201 
L 269.162519 237.550762 
L 271.718791 251.148558 
L 272.996926 255.76419 
L 274.275062 257.651255 
L 275.553197 260.017157 
L 276.831333 265.176532 
L 278.109468 272.005893 
L 279.387604 279.48062 
L 280.665739 286.05195 
L 281.943875 290.801904 
L 283.222011 294.060717 
L 284.500146 295.058127 
L 285.778282 293.521521 
L 287.056417 290.624911 
L 288.334553 287.075592 
L 289.612688 284.356862 
L 290.890824 281.190832 
L 292.16896 277.201116 
L 293.447095 270.138796 
L 296.003366 252.953859 
L 297.281502 245.735027 
L 298.559637 239.666435 
L 299.837773 236.079203 
L 301.115908 236.098374 
L 302.394044 239.021059 
L 304.950315 246.022054 
L 307.506586 248.127532 
L 308.784722 251.469274 
L 311.340993 263.185593 
L 312.619129 268.146264 
L 313.897264 268.632897 
L 315.1754 266.316391 
L 316.453535 262.111659 
L 317.731671 259.061271 
L 319.009806 258.709099 
L 320.287942 263.604737 
L 321.566077 265.888678 
L 322.844213 264.881491 
L 324.122349 259.109278 
L 325.400484 252.436054 
L 326.67862 248.046313 
L 327.956755 246.332256 
L 329.234891 246.340797 
L 330.513026 245.07867 
L 331.791162 244.357852 
L 333.069298 245.880823 
L 334.347433 249.657968 
L 338.18184 267.295988 
L 339.459975 273.364604 
L 340.738111 281.084557 
L 342.016246 286.087482 
L 343.294382 291.794014 
L 344.572518 293.664895 
L 345.850653 294.63888 
L 348.406924 297.36151 
L 349.68506 298.027671 
L 350.963195 298.244676 
L 352.241331 296.642164 
L 353.519467 294.495962 
L 354.797602 289.913717 
L 356.075738 282.207544 
L 358.632009 263.805164 
L 359.910144 255.912599 
L 361.18828 252.324669 
L 362.466416 250.757185 
L 365.022687 250.746609 
L 366.300822 250.502535 
L 367.578958 249.275472 
L 368.857093 249.863994 
L 370.135229 253.130533 
L 371.413364 258.163829 
L 372.6915 264.678475 
L 373.969636 265.791837 
L 375.247771 265.810578 
L 376.525907 260.542945 
L 377.804042 257.41953 
L 379.082178 259.947555 
L 380.360313 265.857568 
L 381.638449 270.301332 
L 382.916585 270.723741 
L 384.19472 268.020039 
L 385.472856 262.573363 
L 388.029127 253.602826 
L 389.307262 249.483331 
L 390.585398 247.897548 
L 391.863533 246.748285 
L 393.141669 247.275623 
L 394.419805 249.710016 
L 395.69794 251.484661 
L 396.976076 252.652085 
L 398.254211 252.610171 
L 400.810482 254.638804 
L 403.366754 262.051575 
L 404.644889 268.492438 
L 405.923025 273.754518 
L 407.20116 277.032557 
L 408.479296 276.880213 
L 409.757431 275.451266 
L 411.035567 276.272223 
L 412.313702 278.380121 
L 413.591838 280.199376 
L 414.869974 278.916814 
L 417.426245 273.27736 
L 421.260651 258.635852 
L 422.538787 256.111117 
L 423.816923 255.244169 
L 425.095058 254.747701 
L 426.373194 251.642728 
L 427.651329 248.833029 
L 428.929465 247.902103 
L 430.2076 249.657231 
L 432.763871 261.001191 
L 434.042007 265.985171 
L 435.320143 268.312019 
L 436.598278 269.952258 
L 437.876414 271.263097 
L 439.154549 275.719776 
L 440.432685 280.740938 
L 441.71082 284.856614 
L 442.988956 287.904625 
L 444.267092 288.388599 
L 445.545227 285.953886 
L 446.823363 281.897795 
L 449.379634 267.02013 
L 450.657769 261.201305 
L 454.492176 252.57381 
L 455.770312 246.952839 
L 457.048447 242.292845 
L 458.326583 238.364207 
L 459.604718 235.454445 
L 460.882854 233.512305 
L 462.160989 234.819191 
L 463.439125 238.39351 
L 464.717261 244.7343 
L 467.273532 260.995949 
L 469.829803 275.777289 
L 471.107938 280.800668 
L 472.386074 284.891153 
L 473.664209 286.169683 
L 474.942345 286.203556 
L 476.220481 285.531168 
L 477.498616 285.339701 
L 478.776752 282.938142 
L 480.054887 280.09689 
L 481.333023 276.512468 
L 482.611158 272.433802 
L 483.889294 267.569226 
L 485.16743 261.879634 
L 487.723701 249.854946 
L 489.001836 245.108351 
L 490.279972 242.606206 
L 491.558107 241.509497 
L 494.114379 238.357286 
L 495.392514 241.216085 
L 496.67065 248.648653 
L 499.226921 268.956877 
L 500.505056 275.032989 
L 501.783192 277.36612 
L 503.061327 277.722698 
L 504.339463 279.986929 
L 506.895734 285.583958 
L 508.17387 287.858237 
L 509.452005 285.946724 
L 510.730141 282.556645 
L 513.286412 277.845379 
L 514.564548 274.810731 
L 515.842683 267.443098 
L 517.120819 257.090242 
L 518.398954 247.688116 
L 519.67709 241.639106 
L 520.955225 237.342729 
L 522.233361 235.651233 
L 523.511496 235.179698 
L 524.789632 235.907294 
L 526.067768 238.9039 
L 528.624039 248.676069 
L 529.902174 253.158461 
L 531.18031 259.217057 
L 532.458445 266.668083 
L 535.014717 277.500285 
L 536.292852 281.337665 
L 538.849123 286.507479 
L 540.127259 286.643492 
L 541.405394 284.702246 
L 542.68353 283.186795 
L 543.961665 282.207684 
L 545.239801 279.515328 
L 546.517937 274.90896 
L 547.796072 268.780011 
L 550.352343 255.243034 
L 551.630479 248.650289 
L 552.908614 242.648575 
L 554.18675 238.259555 
L 555.464886 239.011201 
L 556.743021 241.940409 
L 559.299292 251.241637 
L 560.577428 255.156937 
L 561.855563 259.732971 
L 563.133699 263.661636 
L 564.411834 268.714747 
L 565.68997 272.751427 
L 566.968106 275.771933 
L 568.246241 279.473244 
L 569.524377 284.455468 
L 570.802512 288.499577 
L 572.080648 291.865505 
L 573.358783 290.160672 
L 574.636919 284.510427 
L 577.19319 264.157686 
L 578.471326 257.213056 
L 579.749461 253.470762 
L 581.027597 251.195284 
L 582.305732 246.602663 
L 584.862003 234.95426 
L 586.140139 230.929633 
L 587.418275 228.949025 
L 588.69641 227.177782 
L 589.974546 226.275793 
L 591.252681 227.502962 
L 592.530817 230.409557 
L 595.087088 247.003057 
L 596.365224 255.533009 
L 598.921495 266.723509 
L 600.19963 269.44438 
L 601.477766 274.412559 
L 602.755901 278.531802 
L 604.034037 283.124825 
L 605.312172 284.41351 
L 606.590308 282.581441 
L 607.868444 278.252379 
L 609.146579 274.357991 
L 610.424715 271.945433 
L 611.70285 271.586482 
L 612.980986 269.890484 
L 615.537257 260.132813 
L 616.815393 257.008474 
L 618.093528 259.321477 
L 619.371664 262.828721 
L 620.649799 264.579691 
L 621.927935 262.676055 
L 624.484206 258.113321 
L 625.762341 260.143896 
L 628.318613 269.262662 
L 629.596748 273.050401 
L 630.874884 276.196022 
L 632.153019 278.344137 
L 633.431155 279.410592 
L 634.70929 280.177238 
L 635.987426 277.808137 
L 637.265562 274.215435 
L 638.543697 268.219619 
L 641.099968 253.383844 
L 642.378104 247.49374 
L 643.656239 245.908597 
L 644.934375 244.08862 
L 646.212511 241.61013 
L 648.768782 231.784383 
L 650.046917 227.877066 
L 651.325053 227.239439 
L 652.603188 229.063664 
L 653.881324 230.067075 
L 655.159459 232.396733 
L 656.437595 235.074901 
L 657.715731 242.772652 
L 658.993866 251.749597 
L 660.272002 262.850493 
L 661.550137 272.17325 
L 662.828273 278.59742 
L 664.106408 282.432681 
L 665.384544 284.643314 
L 666.66268 287.276396 
L 667.940815 291.248691 
L 669.218951 292.930575 
L 670.497086 292.455706 
L 671.775222 286.175264 
L 673.053357 278.524223 
L 675.609628 259.718841 
L 676.887764 252.38202 
L 678.1659 245.8284 
L 679.444035 242.923277 
L 680.722171 239.53229 
L 682.000306 237.479226 
L 683.278442 236.40044 
L 684.556577 237.653918 
L 685.834713 240.791366 
L 688.390984 251.978395 
L 692.225391 263.470469 
L 693.503526 267.931313 
L 696.059797 279.100312 
L 697.337933 284.701288 
L 698.616069 287.068475 
L 699.894204 286.84678 
L 701.17234 283.88724 
L 702.450475 280.058949 
L 703.728611 274.342965 
L 710.119289 252.914736 
L 712.67556 241.094373 
L 713.953695 236.552141 
L 715.231831 234.78349 
L 716.509966 234.616364 
L 717.788102 237.446651 
L 719.066238 243.48216 
L 721.622509 257.855063 
L 722.900644 264.121903 
L 724.17878 266.595981 
L 725.456915 267.555326 
L 726.735051 269.503021 
L 728.013187 274.76152 
L 730.569458 288.635535 
L 731.847593 290.480783 
L 733.125729 288.391147 
L 734.403864 283.474853 
L 735.682 277.620969 
L 738.238271 268.541138 
L 739.516407 263.051417 
L 742.072678 250.170832 
L 743.350813 246.228733 
L 744.628949 244.74296 
L 744.628949 244.74296 
" clip-path="url(#p0c2fe0ff66)" style="fill: none; stroke: #1f77b4; stroke-width: 0.7; stroke-linecap: square"/>
   </g>
   <g id="patch_13">
    <path d="M 58.845313 301.84312 
L 58.845313 222.677348 
" style="fill: none; stroke: #000000; stroke-width: 0.8; stroke-linejoin: miter; stroke-linecap: square"/>
   </g>
   <g id="patch_14">
    <path d="M 777.285312 301.84312 
L 777.285312 222.677348 
" style="fill: none; stroke: #000000; stroke-width: 0.8; stroke-linejoin: miter; stroke-linecap: square"/>
   </g>
   <g id="patch_15">
    <path d="M 58.845312 301.84312 
L 777.285312 301.84312 
" style="fill: none; stroke: #000000; stroke-width: 0.8; stroke-linejoin: miter; stroke-linecap: square"/>
   </g>
   <g id="patch_16">
    <path d="M 58.845312 222.677348 
L 777.285312 222.677348 
" style="fill: none; stroke: #000000; stroke-width: 0.8; stroke-linejoin: miter; stroke-linecap: square"/>
   </g>
  </g>
  <g id="axes_4">
   <g id="patch_17">
    <path d="M 58.845313 398.060388 
L 777.285312 398.060388 
L 777.285312 318.894616 
L 58.845313 318.894616 
z
" style="fill: #ffffff"/>
   </g>
   <g id="matplotlib.axis_7">
    <g id="xtick_19">
     <g id="line2d_31">
      <g>
       <use xlink:href="#md5ee8f44f8" x="100.448625" y="398.060388" style="stroke: #000000; stroke-width: 0.8"/>
      </g>
     </g>
    </g>
    <g id="xtick_20">
     <g id="line2d_32">
      <g>
       <use xlink:href="#md5ee8f44f8" x="228.262181" y="398.060388" style="stroke: #000000; stroke-width: 0.8"/>
      </g>
     </g>
    </g>
    <g id="xtick_21">
     <g id="line2d_33">
      <g>
       <use xlink:href="#md5ee8f44f8" x="356.075738" y="398.060388" style="stroke: #000000; stroke-width: 0.8"/>
      </g>
     </g>
    </g>
    <g id="xtick_22">
     <g id="line2d_34">
      <g>
       <use xlink:href="#md5ee8f44f8" x="483.889294" y="398.060388" style="stroke: #000000; stroke-width: 0.8"/>
      </g>
     </g>
    </g>
    <g id="xtick_23">
     <g id="line2d_35">
      <g>
       <use xlink:href="#md5ee8f44f8" x="611.70285" y="398.060388" style="stroke: #000000; stroke-width: 0.8"/>
      </g>
     </g>
    </g>
    <g id="xtick_24">
     <g id="line2d_36">
      <g>
       <use xlink:href="#md5ee8f44f8" x="739.516407" y="398.060388" style="stroke: #000000; stroke-width: 0.8"/>
      </g>
     </g>
    </g>
   </g>
   <g id="matplotlib.axis_8">
    <g id="ytick_10">
     <g id="line2d_37">
      <g>
       <use xlink:href="#m7cc1e2a007" x="58.845313" y="383.524256" style="stroke: #000000; stroke-width: 0.8"/>
      </g>
     </g>
     <g id="text_13">
      <!-- −0.25 -->
      <g transform="translate(21.2 387.323084) scale(0.1 -0.1)">
       <use xlink:href="#DejaVuSans-c9c"/>
       <use xlink:href="#DejaVuSans-13" transform="translate(83.796875 0)"/>
       <use xlink:href="#DejaVuSans-11" transform="translate(147.421875 0)"/>
       <use xlink:href="#DejaVuSans-15" transform="translate(179.203125 0)"/>
       <use xlink:href="#DejaVuSans-18" transform="translate(242.828125 0)"/>
      </g>
     </g>
    </g>
    <g id="ytick_11">
     <g id="line2d_38">
      <g>
       <use xlink:href="#m7cc1e2a007" x="58.845313" y="361.679743" style="stroke: #000000; stroke-width: 0.8"/>
      </g>
     </g>
     <g id="text_14">
      <!-- 0.00 -->
      <g transform="translate(29.579688 365.478571) scale(0.1 -0.1)">
       <use xlink:href="#DejaVuSans-13"/>
       <use xlink:href="#DejaVuSans-11" transform="translate(63.625 0)"/>
       <use xlink:href="#DejaVuSans-13" transform="translate(95.40625 0)"/>
       <use xlink:href="#DejaVuSans-13" transform="translate(159.03125 0)"/>
      </g>
     </g>
    </g>
    <g id="ytick_12">
     <g id="line2d_39">
      <g>
       <use xlink:href="#m7cc1e2a007" x="58.845313" y="339.83523" style="stroke: #000000; stroke-width: 0.8"/>
      </g>
     </g>
     <g id="text_15">
      <!-- 0.25 -->
      <g transform="translate(29.579688 343.634058) scale(0.1 -0.1)">
       <use xlink:href="#DejaVuSans-13"/>
       <use xlink:href="#DejaVuSans-11" transform="translate(63.625 0)"/>
       <use xlink:href="#DejaVuSans-15" transform="translate(95.40625 0)"/>
       <use xlink:href="#DejaVuSans-18" transform="translate(159.03125 0)"/>
      </g>
     </g>
    </g>
    <g id="text_16">
     <!-- IMF 3 -->
     <g transform="translate(14.797656 371.912659) rotate(-90) scale(0.1 -0.1)">
      <defs>
       <path id="DejaVuSans-16" d="M 2597 2516 
Q 3050 2419 3304 2112 
Q 3559 1806 3559 1356 
Q 3559 666 3084 287 
Q 2609 -91 1734 -91 
Q 1441 -91 1130 -33 
Q 819 25 488 141 
L 488 750 
Q 750 597 1062 519 
Q 1375 441 1716 441 
Q 2309 441 2620 675 
Q 2931 909 2931 1356 
Q 2931 1769 2642 2001 
Q 2353 2234 1838 2234 
L 1294 2234 
L 1294 2753 
L 1863 2753 
Q 2328 2753 2575 2939 
Q 2822 3125 2822 3475 
Q 2822 3834 2567 4026 
Q 2313 4219 1838 4219 
Q 1578 4219 1281 4162 
Q 984 4106 628 3988 
L 628 4550 
Q 988 4650 1302 4700 
Q 1616 4750 1894 4750 
Q 2613 4750 3031 4423 
Q 3450 4097 3450 3541 
Q 3450 3153 3228 2886 
Q 3006 2619 2597 2516 
z
" transform="scale(0.015625)"/>
      </defs>
      <use xlink:href="#DejaVuSans-2c"/>
      <use xlink:href="#DejaVuSans-30" transform="translate(29.5 0)"/>
      <use xlink:href="#DejaVuSans-29" transform="translate(115.78125 0)"/>
      <use xlink:href="#DejaVuSans-3" transform="translate(173.296875 0)"/>
      <use xlink:href="#DejaVuSans-16" transform="translate(205.078125 0)"/>
     </g>
    </g>
   </g>
   <g id="line2d_40">
    <path d="M 91.501676 361.6866 
L 96.614218 362.746674 
L 100.448625 363.341873 
L 104.283032 363.665329 
L 106.839303 363.685357 
L 109.395574 363.518137 
L 111.951845 363.152854 
L 115.786252 362.333587 
L 124.733201 360.158879 
L 128.567607 359.553046 
L 131.123879 359.33066 
L 133.68015 359.264823 
L 136.236421 359.36583 
L 138.792692 359.644241 
L 141.348963 360.10912 
L 145.18337 361.089489 
L 154.130319 363.629773 
L 156.68659 364.14319 
L 159.242861 364.450998 
L 161.799132 364.534356 
L 164.355403 364.414239 
L 166.911674 364.110689 
L 169.467945 363.643227 
L 173.302352 362.678142 
L 179.69303 360.685214 
L 183.527437 359.556442 
L 186.083708 358.946839 
L 188.639979 358.514432 
L 191.19625 358.277633 
L 193.752521 358.219593 
L 197.586928 358.427505 
L 201.421335 358.934223 
L 205.255741 359.676909 
L 210.368284 360.917659 
L 221.871504 363.874949 
L 228.262181 365.164237 
L 233.374724 366.225684 
L 237.20913 367.217632 
L 241.043537 368.454877 
L 248.71235 371.074237 
L 252.546757 372.084682 
L 255.103028 372.492118 
L 257.659299 372.561251 
L 258.937435 372.434166 
L 260.21557 372.181434 
L 261.493706 371.789928 
L 262.771842 371.24652 
L 264.049977 370.538084 
L 265.328113 369.651491 
L 266.606248 368.573614 
L 267.884384 367.291326 
L 269.162519 365.799269 
L 271.718791 362.296511 
L 274.275062 358.325514 
L 280.665739 348.107861 
L 283.222011 344.60809 
L 284.500146 343.118024 
L 285.778282 341.845491 
L 287.056417 340.822295 
L 288.334553 340.079901 
L 289.612688 339.649776 
L 290.890824 339.563368 
L 292.16896 339.85199 
L 293.447095 340.54665 
L 294.725231 341.678284 
L 296.003366 343.277829 
L 297.281502 345.376222 
L 298.559637 348.004398 
L 299.837773 351.193295 
L 301.115908 354.94422 
L 303.67218 363.633708 
L 307.506586 377.43454 
L 308.784722 381.651911 
L 310.062857 385.433108 
L 311.340993 388.631296 
L 312.619129 391.099644 
L 313.897264 392.691318 
L 315.1754 393.282916 
L 316.453535 392.844765 
L 317.731671 391.37066 
L 319.009806 388.854404 
L 320.287942 385.34319 
L 321.566077 381.097771 
L 324.122349 371.4037 
L 329.234891 350.854808 
L 330.513026 346.183051 
L 331.791162 341.93998 
L 333.069298 338.235798 
L 334.347433 335.117979 
L 335.625569 332.548794 
L 336.903704 330.471973 
L 338.18184 328.831246 
L 339.459975 327.570346 
L 340.738111 326.633002 
L 342.016246 325.962944 
L 343.294382 325.503904 
L 345.850653 324.993798 
L 349.68506 324.404537 
L 352.241331 323.587806 
L 354.797602 322.722854 
L 356.075738 322.493061 
L 357.353873 322.518669 
L 358.632009 322.890988 
L 359.910144 323.701585 
L 361.18828 325.042028 
L 362.466416 327.003885 
L 363.744551 329.659742 
L 365.022687 333.00626 
L 366.300822 337.021118 
L 367.578958 341.681994 
L 368.857093 346.947014 
L 371.413364 358.789568 
L 376.525907 383.727597 
L 377.804042 388.838954 
L 379.082178 392.492286 
L 380.360313 394.426897 
L 381.638449 394.461944 
L 382.916585 392.45956 
L 384.19472 388.520277 
L 385.472856 383.03011 
L 386.750991 376.435281 
L 391.863533 347.933796 
L 393.141669 342.508994 
L 394.419805 338.6065 
L 395.69794 336.420713 
L 396.976076 336.0446 
L 398.254211 337.366619 
L 399.532347 340.194582 
L 400.810482 344.221535 
L 402.088618 349.111893 
L 407.20116 370.595642 
L 408.479296 374.792535 
L 409.757431 377.962098 
L 411.035567 379.879937 
L 412.313702 380.531361 
L 413.591838 379.959211 
L 414.869974 378.242108 
L 416.148109 375.589241 
L 417.426245 372.242228 
L 419.982516 364.432246 
L 422.538787 356.745121 
L 423.816923 353.551678 
L 425.095058 351.081642 
L 426.373194 349.385908 
L 427.651329 348.363642 
L 428.929465 347.901746 
L 430.2076 347.951383 
L 431.485736 348.456366 
L 432.763871 349.354265 
L 434.042007 350.582649 
L 435.320143 352.079088 
L 437.876414 355.626412 
L 442.988956 363.190792 
L 444.267092 364.815572 
L 445.545227 366.221297 
L 446.823363 367.407202 
L 448.101498 368.384855 
L 449.379634 369.165821 
L 450.657769 369.761669 
L 451.935905 370.183964 
L 453.21404 370.444273 
L 454.492176 370.554164 
L 455.770312 370.525017 
L 457.048447 370.367237 
L 459.604718 369.702788 
L 462.160989 368.635101 
L 464.717261 367.270331 
L 472.386074 362.78165 
L 474.942345 361.615787 
L 477.498616 360.757644 
L 480.054887 360.173815 
L 482.611158 359.827211 
L 485.16743 359.680743 
L 489.001836 359.755364 
L 492.836243 360.075741 
L 506.895734 361.527885 
L 510.730141 361.518978 
L 514.564548 361.233118 
L 518.398954 360.730685 
L 524.789632 359.606522 
L 531.18031 358.257061 
L 536.292852 356.926278 
L 541.405394 355.307812 
L 550.352343 352.266785 
L 554.18675 351.265919 
L 556.743021 350.824245 
L 559.299292 350.675747 
L 560.577428 350.745906 
L 561.855563 350.929267 
L 563.133699 351.237773 
L 564.411834 351.683241 
L 565.68997 352.277489 
L 566.968106 353.032333 
L 568.246241 353.95959 
L 569.524377 355.071077 
L 570.802512 356.378611 
L 572.080648 357.89401 
L 574.636919 361.535523 
L 577.19319 365.789427 
L 586.140139 381.655486 
L 588.69641 385.369275 
L 589.974546 386.923149 
L 591.252681 388.22891 
L 592.530817 389.244713 
L 593.808952 389.927002 
L 595.087088 390.232148 
L 596.365224 390.116173 
L 597.643359 389.534791 
L 598.921495 388.443658 
L 600.19963 386.798429 
L 601.477766 384.554761 
L 602.755901 381.668308 
L 604.034037 378.094728 
L 605.312172 373.814282 
L 607.868444 363.595034 
L 611.70285 346.975165 
L 612.980986 341.872725 
L 614.259121 337.314785 
L 615.537257 333.496791 
L 616.815393 330.614187 
L 618.093528 328.850304 
L 619.371664 328.340001 
L 620.649799 329.206741 
L 621.927935 331.50512 
L 623.20607 335.003516 
L 624.484206 339.405841 
L 627.040477 349.949953 
L 632.153019 372.492436 
L 633.431155 377.302877 
L 634.70929 381.396452 
L 635.987426 384.623437 
L 637.265562 387.008798 
L 638.543697 388.621172 
L 639.821833 389.5292 
L 641.099968 389.801519 
L 642.378104 389.506696 
L 643.656239 388.712916 
L 644.934375 387.487963 
L 646.212511 385.899533 
L 647.490646 384.015325 
L 650.046917 379.630365 
L 658.993866 363.220002 
L 661.550137 359.105372 
L 664.106408 355.548168 
L 665.384544 354.029957 
L 666.66268 352.71273 
L 667.940815 351.617032 
L 669.218951 350.763403 
L 670.497086 350.165327 
L 671.775222 349.808043 
L 673.053357 349.669729 
L 674.331493 349.728042 
L 675.609628 349.958545 
L 676.887764 350.336283 
L 679.444035 351.433628 
L 683.278442 353.559959 
L 689.66912 357.139011 
L 693.503526 359.002255 
L 696.059797 360.044582 
L 698.616069 360.881489 
L 701.17234 361.487113 
L 703.728611 361.885838 
L 707.563018 362.17801 
L 711.397424 362.21887 
L 724.17878 362.110513 
L 739.516407 362.161187 
L 744.628949 362.068935 
L 744.628949 362.068935 
" clip-path="url(#p891313e3bf)" style="fill: none; stroke: #1f77b4; stroke-width: 0.7; stroke-linecap: square"/>
   </g>
   <g id="patch_18">
    <path d="M 58.845313 398.060388 
L 58.845313 318.894616 
" style="fill: none; stroke: #000000; stroke-width: 0.8; stroke-linejoin: miter; stroke-linecap: square"/>
   </g>
   <g id="patch_19">
    <path d="M 777.285312 398.060388 
L 777.285312 318.894616 
" style="fill: none; stroke: #000000; stroke-width: 0.8; stroke-linejoin: miter; stroke-linecap: square"/>
   </g>
   <g id="patch_20">
    <path d="M 58.845312 398.060388 
L 777.285312 398.060388 
" style="fill: none; stroke: #000000; stroke-width: 0.8; stroke-linejoin: miter; stroke-linecap: square"/>
   </g>
   <g id="patch_21">
    <path d="M 58.845312 318.894616 
L 777.285312 318.894616 
" style="fill: none; stroke: #000000; stroke-width: 0.8; stroke-linejoin: miter; stroke-linecap: square"/>
   </g>
  </g>
  <g id="axes_5">
   <g id="patch_22">
    <path d="M 58.845313 494.277656 
L 777.285312 494.277656 
L 777.285312 415.111884 
L 58.845313 415.111884 
z
" style="fill: #ffffff"/>
   </g>
   <g id="matplotlib.axis_9">
    <g id="xtick_25">
     <g id="line2d_41">
      <g>
       <use xlink:href="#md5ee8f44f8" x="100.448625" y="494.277656" style="stroke: #000000; stroke-width: 0.8"/>
      </g>
     </g>
     <g id="text_17">
      <!-- 0.1 -->
      <g transform="translate(92.497063 508.875312) scale(0.1 -0.1)">
       <use xlink:href="#DejaVuSans-13"/>
       <use xlink:href="#DejaVuSans-11" transform="translate(63.625 0)"/>
       <use xlink:href="#DejaVuSans-14" transform="translate(95.40625 0)"/>
      </g>
     </g>
    </g>
    <g id="xtick_26">
     <g id="line2d_42">
      <g>
       <use xlink:href="#md5ee8f44f8" x="228.262181" y="494.277656" style="stroke: #000000; stroke-width: 0.8"/>
      </g>
     </g>
     <g id="text_18">
      <!-- 0.2 -->
      <g transform="translate(220.310619 508.875312) scale(0.1 -0.1)">
       <use xlink:href="#DejaVuSans-13"/>
       <use xlink:href="#DejaVuSans-11" transform="translate(63.625 0)"/>
       <use xlink:href="#DejaVuSans-15" transform="translate(95.40625 0)"/>
      </g>
     </g>
    </g>
    <g id="xtick_27">
     <g id="line2d_43">
      <g>
       <use xlink:href="#md5ee8f44f8" x="356.075738" y="494.277656" style="stroke: #000000; stroke-width: 0.8"/>
      </g>
     </g>
     <g id="text_19">
      <!-- 0.3 -->
      <g transform="translate(348.124175 508.875312) scale(0.1 -0.1)">
       <use xlink:href="#DejaVuSans-13"/>
       <use xlink:href="#DejaVuSans-11" transform="translate(63.625 0)"/>
       <use xlink:href="#DejaVuSans-16" transform="translate(95.40625 0)"/>
      </g>
     </g>
    </g>
    <g id="xtick_28">
     <g id="line2d_44">
      <g>
       <use xlink:href="#md5ee8f44f8" x="483.889294" y="494.277656" style="stroke: #000000; stroke-width: 0.8"/>
      </g>
     </g>
     <g id="text_20">
      <!-- 0.4 -->
      <g transform="translate(475.937731 508.875312) scale(0.1 -0.1)">
       <defs>
        <path id="DejaVuSans-17" d="M 2419 4116 
L 825 1625 
L 2419 1625 
L 2419 4116 
z
M 2253 4666 
L 3047 4666 
L 3047 1625 
L 3713 1625 
L 3713 1100 
L 3047 1100 
L 3047 0 
L 2419 0 
L 2419 1100 
L 313 1100 
L 313 1709 
L 2253 4666 
z
" transform="scale(0.015625)"/>
       </defs>
       <use xlink:href="#DejaVuSans-13"/>
       <use xlink:href="#DejaVuSans-11" transform="translate(63.625 0)"/>
       <use xlink:href="#DejaVuSans-17" transform="translate(95.40625 0)"/>
      </g>
     </g>
    </g>
    <g id="xtick_29">
     <g id="line2d_45">
      <g>
       <use xlink:href="#md5ee8f44f8" x="611.70285" y="494.277656" style="stroke: #000000; stroke-width: 0.8"/>
      </g>
     </g>
     <g id="text_21">
      <!-- 0.5 -->
      <g transform="translate(603.751288 508.875312) scale(0.1 -0.1)">
       <use xlink:href="#DejaVuSans-13"/>
       <use xlink:href="#DejaVuSans-11" transform="translate(63.625 0)"/>
       <use xlink:href="#DejaVuSans-18" transform="translate(95.40625 0)"/>
      </g>
     </g>
    </g>
    <g id="xtick_30">
     <g id="line2d_46">
      <g>
       <use xlink:href="#md5ee8f44f8" x="739.516407" y="494.277656" style="stroke: #000000; stroke-width: 0.8"/>
      </g>
     </g>
     <g id="text_22">
      <!-- 0.6 -->
      <g transform="translate(731.564844 508.875312) scale(0.1 -0.1)">
       <defs>
        <path id="DejaVuSans-19" d="M 2113 2584 
Q 1688 2584 1439 2293 
Q 1191 2003 1191 1497 
Q 1191 994 1439 701 
Q 1688 409 2113 409 
Q 2538 409 2786 701 
Q 3034 994 3034 1497 
Q 3034 2003 2786 2293 
Q 2538 2584 2113 2584 
z
M 3366 4563 
L 3366 3988 
Q 3128 4100 2886 4159 
Q 2644 4219 2406 4219 
Q 1781 4219 1451 3797 
Q 1122 3375 1075 2522 
Q 1259 2794 1537 2939 
Q 1816 3084 2150 3084 
Q 2853 3084 3261 2657 
Q 3669 2231 3669 1497 
Q 3669 778 3244 343 
Q 2819 -91 2113 -91 
Q 1303 -91 875 529 
Q 447 1150 447 2328 
Q 447 3434 972 4092 
Q 1497 4750 2381 4750 
Q 2619 4750 2861 4703 
Q 3103 4656 3366 4563 
z
" transform="scale(0.015625)"/>
       </defs>
       <use xlink:href="#DejaVuSans-13"/>
       <use xlink:href="#DejaVuSans-11" transform="translate(63.625 0)"/>
       <use xlink:href="#DejaVuSans-19" transform="translate(95.40625 0)"/>
      </g>
     </g>
    </g>
    <g id="text_23">
     <!-- Time (s) -->
     <g transform="translate(397.734062 522.876094) scale(0.1 -0.1)">
      <defs>
       <path id="DejaVuSans-37" d="M -19 4666 
L 3928 4666 
L 3928 4134 
L 2272 4134 
L 2272 0 
L 1638 0 
L 1638 4134 
L -19 4134 
L -19 4666 
z
" transform="scale(0.015625)"/>
       <path id="DejaVuSans-4c" d="M 603 3500 
L 1178 3500 
L 1178 0 
L 603 0 
L 603 3500 
z
M 603 4863 
L 1178 4863 
L 1178 4134 
L 603 4134 
L 603 4863 
z
" transform="scale(0.015625)"/>
       <path id="DejaVuSans-50" d="M 3328 2828 
Q 3544 3216 3844 3400 
Q 4144 3584 4550 3584 
Q 5097 3584 5394 3201 
Q 5691 2819 5691 2113 
L 5691 0 
L 5113 0 
L 5113 2094 
Q 5113 2597 4934 2840 
Q 4756 3084 4391 3084 
Q 3944 3084 3684 2787 
Q 3425 2491 3425 1978 
L 3425 0 
L 2847 0 
L 2847 2094 
Q 2847 2600 2669 2842 
Q 2491 3084 2119 3084 
Q 1678 3084 1418 2786 
Q 1159 2488 1159 1978 
L 1159 0 
L 581 0 
L 581 3500 
L 1159 3500 
L 1159 2956 
Q 1356 3278 1631 3431 
Q 1906 3584 2284 3584 
Q 2666 3584 2933 3390 
Q 3200 3197 3328 2828 
z
" transform="scale(0.015625)"/>
       <path id="DejaVuSans-b" d="M 1984 4856 
Q 1566 4138 1362 3434 
Q 1159 2731 1159 2009 
Q 1159 1288 1364 580 
Q 1569 -128 1984 -844 
L 1484 -844 
Q 1016 -109 783 600 
Q 550 1309 550 2009 
Q 550 2706 781 3412 
Q 1013 4119 1484 4856 
L 1984 4856 
z
" transform="scale(0.015625)"/>
       <path id="DejaVuSans-56" d="M 2834 3397 
L 2834 2853 
Q 2591 2978 2328 3040 
Q 2066 3103 1784 3103 
Q 1356 3103 1142 2972 
Q 928 2841 928 2578 
Q 928 2378 1081 2264 
Q 1234 2150 1697 2047 
L 1894 2003 
Q 2506 1872 2764 1633 
Q 3022 1394 3022 966 
Q 3022 478 2636 193 
Q 2250 -91 1575 -91 
Q 1294 -91 989 -36 
Q 684 19 347 128 
L 347 722 
Q 666 556 975 473 
Q 1284 391 1588 391 
Q 1994 391 2212 530 
Q 2431 669 2431 922 
Q 2431 1156 2273 1281 
Q 2116 1406 1581 1522 
L 1381 1569 
Q 847 1681 609 1914 
Q 372 2147 372 2553 
Q 372 3047 722 3315 
Q 1072 3584 1716 3584 
Q 2034 3584 2315 3537 
Q 2597 3491 2834 3397 
z
" transform="scale(0.015625)"/>
       <path id="DejaVuSans-c" d="M 513 4856 
L 1013 4856 
Q 1481 4119 1714 3412 
Q 1947 2706 1947 2009 
Q 1947 1309 1714 600 
Q 1481 -109 1013 -844 
L 513 -844 
Q 928 -128 1133 580 
Q 1338 1288 1338 2009 
Q 1338 2731 1133 3434 
Q 928 4138 513 4856 
z
" transform="scale(0.015625)"/>
      </defs>
      <use xlink:href="#DejaVuSans-37"/>
      <use xlink:href="#DejaVuSans-4c" transform="translate(58 0)"/>
      <use xlink:href="#DejaVuSans-50" transform="translate(85.78125 0)"/>
      <use xlink:href="#DejaVuSans-48" transform="translate(183.1875 0)"/>
      <use xlink:href="#DejaVuSans-3" transform="translate(244.71875 0)"/>
      <use xlink:href="#DejaVuSans-b" transform="translate(276.5 0)"/>
      <use xlink:href="#DejaVuSans-56" transform="translate(315.515625 0)"/>
      <use xlink:href="#DejaVuSans-c" transform="translate(367.609375 0)"/>
     </g>
    </g>
   </g>
   <g id="matplotlib.axis_10">
    <g id="ytick_13">
     <g id="line2d_47">
      <g>
       <use xlink:href="#m7cc1e2a007" x="58.845313" y="494.125269" style="stroke: #000000; stroke-width: 0.8"/>
      </g>
     </g>
     <g id="text_24">
      <!-- −0.1 -->
      <g transform="translate(27.5625 497.924097) scale(0.1 -0.1)">
       <use xlink:href="#DejaVuSans-c9c"/>
       <use xlink:href="#DejaVuSans-13" transform="translate(83.796875 0)"/>
       <use xlink:href="#DejaVuSans-11" transform="translate(147.421875 0)"/>
       <use xlink:href="#DejaVuSans-14" transform="translate(179.203125 0)"/>
      </g>
     </g>
    </g>
    <g id="ytick_14">
     <g id="line2d_48">
      <g>
       <use xlink:href="#m7cc1e2a007" x="58.845313" y="455.196853" style="stroke: #000000; stroke-width: 0.8"/>
      </g>
     </g>
     <g id="text_25">
      <!-- 0.0 -->
      <g transform="translate(35.942188 458.995681) scale(0.1 -0.1)">
       <use xlink:href="#DejaVuSans-13"/>
       <use xlink:href="#DejaVuSans-11" transform="translate(63.625 0)"/>
       <use xlink:href="#DejaVuSans-13" transform="translate(95.40625 0)"/>
      </g>
     </g>
    </g>
    <g id="ytick_15">
     <g id="line2d_49">
      <g>
       <use xlink:href="#m7cc1e2a007" x="58.845313" y="416.268437" style="stroke: #000000; stroke-width: 0.8"/>
      </g>
     </g>
     <g id="text_26">
      <!-- 0.1 -->
      <g transform="translate(35.942188 420.067265) scale(0.1 -0.1)">
       <use xlink:href="#DejaVuSans-13"/>
       <use xlink:href="#DejaVuSans-11" transform="translate(63.625 0)"/>
       <use xlink:href="#DejaVuSans-14" transform="translate(95.40625 0)"/>
      </g>
     </g>
    </g>
    <g id="text_27">
     <!-- Residual -->
     <g transform="translate(21.160156 475.811177) rotate(-90) scale(0.1 -0.1)">
      <defs>
       <path id="DejaVuSans-35" d="M 2841 2188 
Q 3044 2119 3236 1894 
Q 3428 1669 3622 1275 
L 4263 0 
L 3584 0 
L 2988 1197 
Q 2756 1666 2539 1819 
Q 2322 1972 1947 1972 
L 1259 1972 
L 1259 0 
L 628 0 
L 628 4666 
L 2053 4666 
Q 2853 4666 3247 4331 
Q 3641 3997 3641 3322 
Q 3641 2881 3436 2590 
Q 3231 2300 2841 2188 
z
M 1259 4147 
L 1259 2491 
L 2053 2491 
Q 2509 2491 2742 2702 
Q 2975 2913 2975 3322 
Q 2975 3731 2742 3939 
Q 2509 4147 2053 4147 
L 1259 4147 
z
" transform="scale(0.015625)"/>
       <path id="DejaVuSans-47" d="M 2906 2969 
L 2906 4863 
L 3481 4863 
L 3481 0 
L 2906 0 
L 2906 525 
Q 2725 213 2448 61 
Q 2172 -91 1784 -91 
Q 1150 -91 751 415 
Q 353 922 353 1747 
Q 353 2572 751 3078 
Q 1150 3584 1784 3584 
Q 2172 3584 2448 3432 
Q 2725 3281 2906 2969 
z
M 947 1747 
Q 947 1113 1208 752 
Q 1469 391 1925 391 
Q 2381 391 2643 752 
Q 2906 1113 2906 1747 
Q 2906 2381 2643 2742 
Q 2381 3103 1925 3103 
Q 1469 3103 1208 2742 
Q 947 2381 947 1747 
z
" transform="scale(0.015625)"/>
       <path id="DejaVuSans-44" d="M 2194 1759 
Q 1497 1759 1228 1600 
Q 959 1441 959 1056 
Q 959 750 1161 570 
Q 1363 391 1709 391 
Q 2188 391 2477 730 
Q 2766 1069 2766 1631 
L 2766 1759 
L 2194 1759 
z
M 3341 1997 
L 3341 0 
L 2766 0 
L 2766 531 
Q 2569 213 2275 61 
Q 1981 -91 1556 -91 
Q 1019 -91 701 211 
Q 384 513 384 1019 
Q 384 1609 779 1909 
Q 1175 2209 1959 2209 
L 2766 2209 
L 2766 2266 
Q 2766 2663 2505 2880 
Q 2244 3097 1772 3097 
Q 1472 3097 1187 3025 
Q 903 2953 641 2809 
L 641 3341 
Q 956 3463 1253 3523 
Q 1550 3584 1831 3584 
Q 2591 3584 2966 3190 
Q 3341 2797 3341 1997 
z
" transform="scale(0.015625)"/>
       <path id="DejaVuSans-4f" d="M 603 4863 
L 1178 4863 
L 1178 0 
L 603 0 
L 603 4863 
z
" transform="scale(0.015625)"/>
      </defs>
      <use xlink:href="#DejaVuSans-35"/>
      <use xlink:href="#DejaVuSans-48" transform="translate(65 0)"/>
      <use xlink:href="#DejaVuSans-56" transform="translate(126.53125 0)"/>
      <use xlink:href="#DejaVuSans-4c" transform="translate(178.625 0)"/>
      <use xlink:href="#DejaVuSans-47" transform="translate(206.40625 0)"/>
      <use xlink:href="#DejaVuSans-58" transform="translate(269.890625 0)"/>
      <use xlink:href="#DejaVuSans-44" transform="translate(333.265625 0)"/>
      <use xlink:href="#DejaVuSans-4f" transform="translate(394.546875 0)"/>
     </g>
    </g>
   </g>
   <g id="line2d_50">
    <path d="M 91.501676 471.344347 
L 96.614218 471.00861 
L 101.726761 470.952805 
L 105.561167 471.115739 
L 109.395574 471.468461 
L 114.508116 472.209358 
L 119.620659 473.196511 
L 126.011336 474.671362 
L 143.905234 479.04532 
L 149.017776 479.964378 
L 152.852183 480.440332 
L 156.68659 480.685453 
L 160.520997 480.656567 
L 164.355403 480.316579 
L 168.18981 479.669436 
L 172.024217 478.739429 
L 175.858623 477.551122 
L 179.69303 476.12908 
L 183.527437 474.497866 
L 188.639979 472.039994 
L 193.752521 469.31216 
L 200.143199 465.611425 
L 209.090148 460.113686 
L 218.037097 454.653549 
L 223.149639 451.732615 
L 228.262181 449.066986 
L 232.096588 447.288473 
L 235.930995 445.740567 
L 239.765401 444.460551 
L 243.599808 443.48571 
L 246.156079 443.023769 
L 248.71235 442.725081 
L 251.268622 442.600691 
L 253.824893 442.661648 
L 256.381164 442.918997 
L 258.937435 443.383161 
L 261.493706 444.050138 
L 264.049977 444.901511 
L 267.884384 446.482648 
L 271.718791 448.37154 
L 275.553197 450.503906 
L 280.665739 453.614697 
L 299.837773 465.663643 
L 307.506586 470.03539 
L 313.897264 473.444756 
L 320.287942 476.636159 
L 326.67862 479.585882 
L 333.069298 482.261942 
L 338.18184 484.184233 
L 343.294382 485.894491 
L 348.406924 487.37632 
L 353.519467 488.613324 
L 358.632009 489.579885 
L 361.18828 489.900135 
L 363.744551 490.038254 
L 366.300822 489.936855 
L 368.857093 489.538549 
L 371.413364 488.785948 
L 373.969636 487.621665 
L 376.525907 485.988312 
L 379.082178 483.8285 
L 381.638449 481.086708 
L 384.19472 477.758862 
L 386.750991 473.917854 
L 389.307262 469.646951 
L 393.141669 462.616688 
L 398.254211 452.516572 
L 403.366754 442.325113 
L 405.923025 437.518927 
L 408.479296 433.084148 
L 411.035567 429.154556 
L 413.591838 425.860202 
L 414.869974 424.470187 
L 416.148109 423.245297 
L 417.426245 422.179863 
L 418.70438 421.268215 
L 419.982516 420.504683 
L 421.260651 419.883598 
L 422.538787 419.39929 
L 423.816923 419.046089 
L 425.095058 418.818325 
L 426.373194 418.710329 
L 428.929465 418.830959 
L 431.485736 419.359689 
L 434.042007 420.236495 
L 436.598278 421.398419 
L 439.154549 422.782504 
L 442.988956 425.137466 
L 451.935905 430.831847 
L 454.492176 432.226798 
L 457.048447 433.410882 
L 459.604718 434.378738 
L 462.160989 435.154945 
L 465.995396 436.015895 
L 469.829803 436.589585 
L 474.942345 437.056943 
L 487.723701 438.00632 
L 491.558107 438.5748 
L 495.392514 439.383884 
L 499.226921 440.466951 
L 503.061327 441.857162 
L 506.895734 443.587681 
L 509.452005 444.946796 
L 512.008276 446.481724 
L 514.564548 448.199597 
L 518.398954 451.095829 
L 522.233361 454.318389 
L 526.067768 457.802556 
L 531.18031 462.738337 
L 538.849123 470.164135 
L 542.68353 473.537035 
L 545.239801 475.54901 
L 547.796072 477.31533 
L 550.352343 478.787689 
L 552.908614 479.917781 
L 555.464886 480.657302 
L 556.743021 480.865502 
L 558.021157 480.957946 
L 559.299292 480.929516 
L 560.577428 480.779174 
L 561.855563 480.508896 
L 564.411834 479.627457 
L 566.968106 478.325842 
L 569.524377 476.645254 
L 572.080648 474.626894 
L 574.636919 472.311961 
L 577.19319 469.741658 
L 581.027597 465.497512 
L 584.862003 460.91054 
L 592.530817 451.264329 
L 597.643359 444.940896 
L 601.477766 440.567069 
L 604.034037 437.955862 
L 606.590308 435.669254 
L 609.146579 433.776548 
L 611.70285 432.347049 
L 612.980986 431.82766 
L 614.259121 431.450062 
L 615.537257 431.222918 
L 616.815393 431.154892 
L 618.093528 431.254645 
L 619.371664 431.530841 
L 620.649799 431.988948 
L 621.927935 432.621646 
L 623.20607 433.418421 
L 624.484206 434.368758 
L 627.040477 436.68806 
L 629.596748 439.495434 
L 632.153019 442.706761 
L 634.70929 446.237925 
L 638.543697 451.950356 
L 650.046917 469.623349 
L 653.881324 475.023777 
L 656.437595 478.339074 
L 658.993866 481.367359 
L 661.550137 484.058045 
L 664.106408 486.360543 
L 666.66268 488.224264 
L 669.218951 489.59862 
L 670.497086 490.086477 
L 671.775222 490.433023 
L 673.053357 490.631933 
L 674.331493 490.679212 
L 675.609628 490.580181 
L 676.887764 490.342487 
L 678.1659 489.973778 
L 680.722171 488.873911 
L 683.278442 487.341765 
L 685.834713 485.438526 
L 688.390984 483.225379 
L 690.947255 480.763511 
L 694.781662 476.738199 
L 708.841153 461.48422 
L 712.67556 457.854914 
L 715.231831 455.667114 
L 717.788102 453.683433 
L 720.344373 451.918741 
L 722.900644 450.387874 
L 725.456915 449.10482 
L 728.013187 448.082585 
L 730.569458 447.33086 
L 733.125729 446.856065 
L 735.682 446.664473 
L 738.238271 446.756964 
L 740.794542 447.112813 
L 743.350813 447.705901 
L 744.628949 448.083246 
L 744.628949 448.083246 
" clip-path="url(#p8033840c38)" style="fill: none; stroke: #dc143c; stroke-width: 0.8; stroke-linecap: square"/>
   </g>
   <g id="patch_23">
    <path d="M 58.845313 494.277656 
L 58.845313 415.111884 
" style="fill: none; stroke: #000000; stroke-width: 0.8; stroke-linejoin: miter; stroke-linecap: square"/>
   </g>
   <g id="patch_24">
    <path d="M 777.285312 494.277656 
L 777.285312 415.111884 
" style="fill: none; stroke: #000000; stroke-width: 0.8; stroke-linejoin: miter; stroke-linecap: square"/>
   </g>
   <g id="patch_25">
    <path d="M 58.845312 494.277656 
L 777.285312 494.277656 
" style="fill: none; stroke: #000000; stroke-width: 0.8; stroke-linejoin: miter; stroke-linecap: square"/>
   </g>
   <g id="patch_26">
    <path d="M 58.845312 415.111884 
L 777.285312 415.111884 
" style="fill: none; stroke: #000000; stroke-width: 0.8; stroke-linejoin: miter; stroke-linecap: square"/>
   </g>
  </g>
  <g id="text_28">
   <!-- CEEMDAN decomposition (scaled processing units) -->
   <g transform="translate(239.283125 16.318125) scale(0.12 -0.12)">
    <defs>
     <path id="DejaVuSans-26" d="M 4122 4306 
L 4122 3641 
Q 3803 3938 3442 4084 
Q 3081 4231 2675 4231 
Q 1875 4231 1450 3742 
Q 1025 3253 1025 2328 
Q 1025 1406 1450 917 
Q 1875 428 2675 428 
Q 3081 428 3442 575 
Q 3803 722 4122 1019 
L 4122 359 
Q 3791 134 3420 21 
Q 3050 -91 2638 -91 
Q 1578 -91 968 557 
Q 359 1206 359 2328 
Q 359 3453 968 4101 
Q 1578 4750 2638 4750 
Q 3056 4750 3426 4639 
Q 3797 4528 4122 4306 
z
" transform="scale(0.015625)"/>
     <path id="DejaVuSans-28" d="M 628 4666 
L 3578 4666 
L 3578 4134 
L 1259 4134 
L 1259 2753 
L 3481 2753 
L 3481 2222 
L 1259 2222 
L 1259 531 
L 3634 531 
L 3634 0 
L 628 0 
L 628 4666 
z
" transform="scale(0.015625)"/>
     <path id="DejaVuSans-27" d="M 1259 4147 
L 1259 519 
L 2022 519 
Q 2988 519 3436 956 
Q 3884 1394 3884 2338 
Q 3884 3275 3436 3711 
Q 2988 4147 2022 4147 
L 1259 4147 
z
M 628 4666 
L 1925 4666 
Q 3281 4666 3915 4102 
Q 4550 3538 4550 2338 
Q 4550 1131 3912 565 
Q 3275 0 1925 0 
L 628 0 
L 628 4666 
z
" transform="scale(0.015625)"/>
     <path id="DejaVuSans-24" d="M 2188 4044 
L 1331 1722 
L 3047 1722 
L 2188 4044 
z
M 1831 4666 
L 2547 4666 
L 4325 0 
L 3669 0 
L 3244 1197 
L 1141 1197 
L 716 0 
L 50 0 
L 1831 4666 
z
" transform="scale(0.015625)"/>
     <path id="DejaVuSans-31" d="M 628 4666 
L 1478 4666 
L 3547 763 
L 3547 4666 
L 4159 4666 
L 4159 0 
L 3309 0 
L 1241 3903 
L 1241 0 
L 628 0 
L 628 4666 
z
" transform="scale(0.015625)"/>
     <path id="DejaVuSans-53" d="M 1159 525 
L 1159 -1331 
L 581 -1331 
L 581 3500 
L 1159 3500 
L 1159 2969 
Q 1341 3281 1617 3432 
Q 1894 3584 2278 3584 
Q 2916 3584 3314 3078 
Q 3713 2572 3713 1747 
Q 3713 922 3314 415 
Q 2916 -91 2278 -91 
Q 1894 -91 1617 61 
Q 1341 213 1159 525 
z
M 3116 1747 
Q 3116 2381 2855 2742 
Q 2594 3103 2138 3103 
Q 1681 3103 1420 2742 
Q 1159 2381 1159 1747 
Q 1159 1113 1420 752 
Q 1681 391 2138 391 
Q 2594 391 2855 752 
Q 3116 1113 3116 1747 
z
" transform="scale(0.015625)"/>
     <path id="DejaVuSans-57" d="M 1172 4494 
L 1172 3500 
L 2356 3500 
L 2356 3053 
L 1172 3053 
L 1172 1153 
Q 1172 725 1289 603 
Q 1406 481 1766 481 
L 2356 481 
L 2356 0 
L 1766 0 
Q 1100 0 847 248 
Q 594 497 594 1153 
L 594 3053 
L 172 3053 
L 172 3500 
L 594 3500 
L 594 4494 
L 1172 4494 
z
" transform="scale(0.015625)"/>
     <path id="DejaVuSans-51" d="M 3513 2113 
L 3513 0 
L 2938 0 
L 2938 2094 
Q 2938 2591 2744 2837 
Q 2550 3084 2163 3084 
Q 1697 3084 1428 2787 
Q 1159 2491 1159 1978 
L 1159 0 
L 581 0 
L 581 3500 
L 1159 3500 
L 1159 2956 
Q 1366 3272 1645 3428 
Q 1925 3584 2291 3584 
Q 2894 3584 3203 3211 
Q 3513 2838 3513 2113 
z
" transform="scale(0.015625)"/>
     <path id="DejaVuSans-4a" d="M 2906 1791 
Q 2906 2416 2648 2759 
Q 2391 3103 1925 3103 
Q 1463 3103 1205 2759 
Q 947 2416 947 1791 
Q 947 1169 1205 825 
Q 1463 481 1925 481 
Q 2391 481 2648 825 
Q 2906 1169 2906 1791 
z
M 3481 434 
Q 3481 -459 3084 -895 
Q 2688 -1331 1869 -1331 
Q 1566 -1331 1297 -1286 
Q 1028 -1241 775 -1147 
L 775 -588 
Q 1028 -725 1275 -790 
Q 1522 -856 1778 -856 
Q 2344 -856 2625 -561 
Q 2906 -266 2906 331 
L 2906 616 
Q 2728 306 2450 153 
Q 2172 0 1784 0 
Q 1141 0 747 490 
Q 353 981 353 1791 
Q 353 2603 747 3093 
Q 1141 3584 1784 3584 
Q 2172 3584 2450 3431 
Q 2728 3278 2906 2969 
L 2906 3500 
L 3481 3500 
L 3481 434 
z
" transform="scale(0.015625)"/>
    </defs>
    <use xlink:href="#DejaVuSans-26"/>
    <use xlink:href="#DejaVuSans-28" transform="translate(69.828125 0)"/>
    <use xlink:href="#DejaVuSans-28" transform="translate(133.015625 0)"/>
    <use xlink:href="#DejaVuSans-30" transform="translate(196.203125 0)"/>
    <use xlink:href="#DejaVuSans-27" transform="translate(282.484375 0)"/>
    <use xlink:href="#DejaVuSans-24" transform="translate(357.734375 0)"/>
    <use xlink:href="#DejaVuSans-31" transform="translate(426.140625 0)"/>
    <use xlink:href="#DejaVuSans-3" transform="translate(500.953125 0)"/>
    <use xlink:href="#DejaVuSans-47" transform="translate(532.734375 0)"/>
    <use xlink:href="#DejaVuSans-48" transform="translate(596.21875 0)"/>
    <use xlink:href="#DejaVuSans-46" transform="translate(657.75 0)"/>
    <use xlink:href="#DejaVuSans-52" transform="translate(712.734375 0)"/>
    <use xlink:href="#DejaVuSans-50" transform="translate(773.921875 0)"/>
    <use xlink:href="#DejaVuSans-53" transform="translate(871.328125 0)"/>
    <use xlink:href="#DejaVuSans-52" transform="translate(934.8125 0)"/>
    <use xlink:href="#DejaVuSans-56" transform="translate(996 0)"/>
    <use xlink:href="#DejaVuSans-4c" transform="translate(1048.09375 0)"/>
    <use xlink:href="#DejaVuSans-57" transform="translate(1075.875 0)"/>
    <use xlink:href="#DejaVuSans-4c" transform="translate(1115.078125 0)"/>
    <use xlink:href="#DejaVuSans-52" transform="translate(1142.859375 0)"/>
    <use xlink:href="#DejaVuSans-51" transform="translate(1204.046875 0)"/>
    <use xlink:href="#DejaVuSans-3" transform="translate(1267.421875 0)"/>
    <use xlink:href="#DejaVuSans-b" transform="translate(1299.203125 0)"/>
    <use xlink:href="#DejaVuSans-56" transform="translate(1338.21875 0)"/>
    <use xlink:href="#DejaVuSans-46" transform="translate(1390.3125 0)"/>
    <use xlink:href="#DejaVuSans-44" transform="translate(1445.296875 0)"/>
    <use xlink:href="#DejaVuSans-4f" transform="translate(1506.578125 0)"/>
    <use xlink:href="#DejaVuSans-48" transform="translate(1534.359375 0)"/>
    <use xlink:href="#DejaVuSans-47" transform="translate(1595.890625 0)"/>
    <use xlink:href="#DejaVuSans-3" transform="translate(1659.375 0)"/>
    <use xlink:href="#DejaVuSans-53" transform="translate(1691.15625 0)"/>
    <use xlink:href="#DejaVuSans-55" transform="translate(1754.640625 0)"/>
    <use xlink:href="#DejaVuSans-52" transform="translate(1793.546875 0)"/>
    <use xlink:href="#DejaVuSans-46" transform="translate(1854.734375 0)"/>
    <use xlink:href="#DejaVuSans-48" transform="translate(1909.71875 0)"/>
    <use xlink:href="#DejaVuSans-56" transform="translate(1971.25 0)"/>
    <use xlink:href="#DejaVuSans-56" transform="translate(2023.34375 0)"/>
    <use xlink:href="#DejaVuSans-4c" transform="translate(2075.4375 0)"/>
    <use xlink:href="#DejaVuSans-51" transform="translate(2103.21875 0)"/>
    <use xlink:href="#DejaVuSans-4a" transform="translate(2166.59375 0)"/>
    <use xlink:href="#DejaVuSans-3" transform="translate(2230.078125 0)"/>
    <use xlink:href="#DejaVuSans-58" transform="translate(2261.859375 0)"/>
    <use xlink:href="#DejaVuSans-51" transform="translate(2325.234375 0)"/>
    <use xlink:href="#DejaVuSans-4c" transform="translate(2388.609375 0)"/>
    <use xlink:href="#DejaVuSans-57" transform="translate(2416.390625 0)"/>
    <use xlink:href="#DejaVuSans-56" transform="translate(2455.59375 0)"/>
    <use xlink:href="#DejaVuSans-c" transform="translate(2507.6875 0)"/>
   </g>
  </g>
 </g>
 <defs>
  <clipPath id="p6aa47887d8">
   <rect x="58.845313" y="30.242813" width="718.44" height="79.165772"/>
  </clipPath>
  <clipPath id="p2a3a0a21de">
   <rect x="58.845313" y="126.46008" width="718.44" height="79.165772"/>
  </clipPath>
  <clipPath id="p0c2fe0ff66">
   <rect x="58.845313" y="222.677348" width="718.44" height="79.165772"/>
  </clipPath>
  <clipPath id="p891313e3bf">
   <rect x="58.845313" y="318.894616" width="718.44" height="79.165772"/>
  </clipPath>
  <clipPath id="p8033840c38">
   <rect x="58.845313" y="415.111884" width="718.44" height="79.165772"/>
  </clipPath>
 </defs>
</svg>
