<?xml version="1.0" encoding="utf-8" standalone="no"?>
<!DOCTYPE svg PUBLIC "-//W3C//DTD SVG 1.1//EN"
  "http://www.w3.org/Graphics/SVG/1.1/DTD/svg11.dtd">
<svg xmlns:xlink="http://www.w3.org/1999/xlink" width="784.602812pt" height="320.798437pt" viewBox="0 0 784.602812 320.798437" xmlns="http://www.w3.org/2000/svg" version="1.1">
 <metadata>
  <rdf:RDF xmlns:dc="http://purl.org/dc/elements/1.1/" xmlns:cc="http://creativecommons.org/ns#" xmlns:rdf="http://www.w3.org/1999/02/22-rdf-syntax-ns#">
   <cc:Work>
    <dc:type rdf:resource="http://purl.org/dc/dcmitype/StillImage"/>
    <dc:date>2026-07-14T07:01:47.528258</dc:date>
    <dc:format>image/svg+xml</dc:format>
    <dc:creator>
     <cc:Agent>
      <dc:title>Matplotlib v3.11.0, https://matplotlib.org/</dc:title>
     </cc:Agent>
    </dc:creator>
   </cc:Work>
  </rdf:RDF>
 </metadata>
 <defs>
  <style type="text/css">*{stroke-linejoin: round; stroke-linecap: butt}</style>
 </defs>
 <g id="figure_1">
  <g id="patch_1">
   <path d="M 0 320.798437 
L 784.602812 320.798437 
L 784.602812 -0 
L 0 -0 
z
" style="fill: #ffffff"/>
  </g>
  <g id="axes_1">
   <g id="patch_2">
    <path d="M 52.482813 106.121491 
L 777.402812 106.121491 
L 777.402812 34.562812 
L 52.482813 34.562812 
z
" style="fill: #ffffff"/>
   </g>
   <g id="matplotlib.axis_1">
    <g id="xtick_1">
     <g id="line2d_1">
      <defs>
       <path id="m2e6ceaa461" d="M 0 0 
L 0 3.5 
" style="stroke: #000000; stroke-width: 0.8"/>
      </defs>
      <g>
       <use xlink:href="#m2e6ceaa461" x="94.461368" y="106.121491" style="stroke: #000000; stroke-width: 0.8"/>
      </g>
     </g>
    </g>
    <g id="xtick_2">
     <g id="line2d_2">
      <g>
       <use xlink:href="#m2e6ceaa461" x="223.427744" y="106.121491" style="stroke: #000000; stroke-width: 0.8"/>
      </g>
     </g>
    </g>
    <g id="xtick_3">
     <g id="line2d_3">
      <g>
       <use xlink:href="#m2e6ceaa461" x="352.39412" y="106.121491" style="stroke: #000000; stroke-width: 0.8"/>
      </g>
     </g>
    </g>
    <g id="xtick_4">
     <g id="line2d_4">
      <g>
       <use xlink:href="#m2e6ceaa461" x="481.360496" y="106.121491" style="stroke: #000000; stroke-width: 0.8"/>
      </g>
     </g>
    </g>
    <g id="xtick_5">
     <g id="line2d_5">
      <g>
       <use xlink:href="#m2e6ceaa461" x="610.326872" y="106.121491" style="stroke: #000000; stroke-width: 0.8"/>
      </g>
     </g>
    </g>
    <g id="xtick_6">
     <g id="line2d_6">
      <g>
       <use xlink:href="#m2e6ceaa461" x="739.293248" y="106.121491" style="stroke: #000000; stroke-width: 0.8"/>
      </g>
     </g>
    </g>
   </g>
   <g id="matplotlib.axis_2">
    <g id="ytick_1">
     <g id="line2d_7">
      <defs>
       <path id="m44d9dd315f" d="M 0 0 
L -3.5 0 
" style="stroke: #000000; stroke-width: 0.8"/>
      </defs>
      <g>
       <use xlink:href="#m44d9dd315f" x="52.482813" y="99.357219" style="stroke: #000000; stroke-width: 0.8"/>
      </g>
     </g>
     <g id="text_1">
      <!-- −0.5 -->
      <g transform="translate(21.2 103.156047) scale(0.1 -0.1)">
       <defs>
        <path id="DejaVuSans-c9c" d="M 678 2272 
L 4684 2272 
L 4684 1741 
L 678 1741 
L 678 2272 
z
" transform="scale(0.015625)"/>
        <path id="DejaVuSans-13" d="M 2034 4250 
Q 1547 4250 1301 3770 
Q 1056 3291 1056 2328 
Q 1056 1369 1301 889 
Q 1547 409 2034 409 
Q 2525 409 2770 889 
Q 3016 1369 3016 2328 
Q 3016 3291 2770 3770 
Q 2525 4250 2034 4250 
z
M 2034 4750 
Q 2819 4750 3233 4129 
Q 3647 3509 3647 2328 
Q 3647 1150 3233 529 
Q 2819 -91 2034 -91 
Q 1250 -91 836 529 
Q 422 1150 422 2328 
Q 422 3509 836 4129 
Q 1250 4750 2034 4750 
z
" transform="scale(0.015625)"/>
        <path id="DejaVuSans-11" d="M 684 794 
L 1344 794 
L 1344 0 
L 684 0 
L 684 794 
z
" transform="scale(0.015625)"/>
        <path id="DejaVuSans-18" d="M 691 4666 
L 3169 4666 
L 3169 4134 
L 1269 4134 
L 1269 2991 
Q 1406 3038 1543 3061 
Q 1681 3084 1819 3084 
Q 2600 3084 3056 2656 
Q 3513 2228 3513 1497 
Q 3513 744 3044 326 
Q 2575 -91 1722 -91 
Q 1428 -91 1123 -41 
Q 819 9 494 109 
L 494 744 
Q 775 591 1075 516 
Q 1375 441 1709 441 
Q 2250 441 2565 725 
Q 2881 1009 2881 1497 
Q 2881 1984 2565 2268 
Q 2250 2553 1709 2553 
Q 1456 2553 1204 2497 
Q 953 2441 691 2322 
L 691 4666 
z
" transform="scale(0.015625)"/>
       </defs>
       <use xlink:href="#DejaVuSans-c9c"/>
       <use xlink:href="#DejaVuSans-13" transform="translate(83.796875 0)"/>
       <use xlink:href="#DejaVuSans-11" transform="translate(147.421875 0)"/>
       <use xlink:href="#DejaVuSans-18" transform="translate(179.203125 0)"/>
      </g>
     </g>
    </g>
    <g id="ytick_2">
     <g id="line2d_8">
      <g>
       <use xlink:href="#m44d9dd315f" x="52.482813" y="70.414377" style="stroke: #000000; stroke-width: 0.8"/>
      </g>
     </g>
     <g id="text_2">
      <!-- 0.0 -->
      <g transform="translate(29.579687 74.213205) scale(0.1 -0.1)">
       <use xlink:href="#DejaVuSans-13"/>
       <use xlink:href="#DejaVuSans-11" transform="translate(63.625 0)"/>
       <use xlink:href="#DejaVuSans-13" transform="translate(95.40625 0)"/>
      </g>
     </g>
    </g>
    <g id="ytick_3">
     <g id="line2d_9">
      <g>
       <use xlink:href="#m44d9dd315f" x="52.482813" y="41.471536" style="stroke: #000000; stroke-width: 0.8"/>
      </g>
     </g>
     <g id="text_3">
      <!-- 0.5 -->
      <g transform="translate(29.579687 45.270364) scale(0.1 -0.1)">
       <use xlink:href="#DejaVuSans-13"/>
       <use xlink:href="#DejaVuSans-11" transform="translate(63.625 0)"/>
       <use xlink:href="#DejaVuSans-18" transform="translate(95.40625 0)"/>
      </g>
     </g>
    </g>
    <g id="text_4">
     <!-- IMF 1 -->
     <g transform="translate(14.797656 83.777308) rotate(-90) scale(0.1 -0.1)">
      <defs>
       <path id="DejaVuSans-2c" d="M 628 4666 
L 1259 4666 
L 1259 0 
L 628 0 
L 628 4666 
z
" transform="scale(0.015625)"/>
       <path id="DejaVuSans-30" d="M 628 4666 
L 1569 4666 
L 2759 1491 
L 3956 4666 
L 4897 4666 
L 4897 0 
L 4281 0 
L 4281 4097 
L 3078 897 
L 2444 897 
L 1241 4097 
L 1241 0 
L 628 0 
L 628 4666 
z
" transform="scale(0.015625)"/>
       <path id="DejaVuSans-29" d="M 628 4666 
L 3309 4666 
L 3309 4134 
L 1259 4134 
L 1259 2759 
L 3109 2759 
L 3109 2228 
L 1259 2228 
L 1259 0 
L 628 0 
L 628 4666 
z
" transform="scale(0.015625)"/>
       <path id="DejaVuSans-3" transform="scale(0.015625)"/>
       <path id="DejaVuSans-14" d="M 794 531 
L 1825 531 
L 1825 4091 
L 703 3866 
L 703 4441 
L 1819 4666 
L 2450 4666 
L 2450 531 
L 3481 531 
L 3481 0 
L 794 0 
L 794 531 
z
" transform="scale(0.015625)"/>
      </defs>
      <use xlink:href="#DejaVuSans-2c"/>
      <use xlink:href="#DejaVuSans-30" transform="translate(29.5 0)"/>
      <use xlink:href="#DejaVuSans-29" transform="translate(115.78125 0)"/>
      <use xlink:href="#DejaVuSans-3" transform="translate(173.296875 0)"/>
      <use xlink:href="#DejaVuSans-14" transform="translate(205.078125 0)"/>
     </g>
    </g>
   </g>
   <g id="line2d_10">
    <path d="M 85.433722 88.32605 
L 86.723385 65.402805 
L 88.013049 53.911581 
L 89.302713 85.971958 
L 90.592377 55.554691 
L 91.88204 55.866522 
L 93.171704 86.432938 
L 94.461368 61.055917 
L 95.751032 50.969291 
L 97.040695 92.014112 
L 98.330359 78.304784 
L 99.620023 44.211876 
L 100.909687 95.100321 
L 102.19935 99.30256 
L 103.489014 42.283653 
L 106.068342 93.828163 
L 107.358006 48.685355 
L 108.647669 66.300903 
L 109.937333 93.544878 
L 111.226997 44.83058 
L 112.516661 56.878106 
L 113.806324 99.329043 
L 115.095988 42.604524 
L 116.385652 54.506596 
L 117.675316 92.555219 
L 118.964979 50.73129 
L 120.254643 51.005288 
L 121.544307 92.592657 
L 122.833971 63.307303 
L 124.123634 43.643323 
L 125.413298 97.927599 
L 126.702962 66.710826 
L 127.992626 45.583789 
L 129.282289 91.444111 
L 130.571953 91.847282 
L 131.861617 48.94223 
L 133.151281 93.160942 
L 134.440945 91.024101 
L 135.730608 45.982462 
L 137.020272 93.633828 
L 138.309936 85.800203 
L 139.5996 50.101168 
L 140.889263 70.581098 
L 142.178927 92.860243 
L 143.468591 46.526283 
L 144.758255 73.496976 
L 146.047918 94.847804 
L 147.337582 49.192674 
L 148.627246 45.511227 
L 149.91691 96.579256 
L 151.206573 44.688457 
L 152.496237 41.866695 
L 153.785901 98.340268 
L 155.075565 54.004494 
L 156.365228 45.799156 
L 157.654892 95.073174 
L 158.944556 86.297778 
L 160.23422 42.176775 
L 161.523883 99.362186 
L 162.813547 88.32835 
L 164.103211 43.671433 
L 165.392875 91.210426 
L 166.682539 95.758936 
L 167.972202 44.670056 
L 169.261866 94.606444 
L 170.55153 96.248676 
L 171.841194 46.087787 
L 173.130857 72.896535 
L 174.420521 91.016877 
L 175.710185 49.821132 
L 176.999849 68.092087 
L 178.289512 95.172865 
L 179.579176 43.384926 
L 180.86884 56.868806 
L 182.158504 98.374083 
L 183.448167 44.057606 
L 184.737831 55.707442 
L 186.027495 92.781469 
L 187.317159 72.92164 
L 188.606822 48.963362 
L 189.896486 91.806839 
L 191.18615 75.025028 
L 192.475814 50.267993 
L 193.765478 90.512478 
L 195.055141 70.710814 
L 196.344805 46.128973 
L 197.634469 85.903629 
L 198.924133 99.960504 
L 200.213796 42.148605 
L 201.50346 94.347906 
L 202.793124 84.457291 
L 204.082788 54.026579 
L 205.372451 61.417444 
L 206.662115 90.562496 
L 207.951779 46.542625 
L 209.241443 68.185174 
L 210.531106 97.639901 
L 211.82077 43.664824 
L 213.110434 58.733009 
L 214.400098 96.386364 
L 215.689761 43.605589 
L 216.979425 47.182428 
L 218.269089 98.099257 
L 219.558753 50.434652 
L 220.848416 46.83731 
L 222.13808 91.67333 
L 223.427744 75.732348 
L 224.717408 50.844465 
L 226.007072 90.049482 
L 227.296735 86.865404 
L 228.586399 50.742137 
L 229.876063 80.310836 
L 231.165727 89.727302 
L 232.45539 51.313559 
L 233.745054 84.694122 
L 235.034718 90.248343 
L 236.324382 48.912882 
L 237.614045 66.871101 
L 238.903709 96.264528 
L 240.193373 43.525305 
L 241.483037 68.644424 
L 242.7727 97.34325 
L 244.062364 43.169004 
L 245.352028 52.599555 
L 246.641692 97.903129 
L 247.931355 47.184251 
L 249.221019 46.149635 
L 250.510683 92.897787 
L 251.800347 68.470019 
L 253.090011 48.431309 
L 254.379674 93.445435 
L 255.669338 65.256395 
L 256.959002 46.702683 
L 258.248666 92.366548 
L 259.538329 86.086409 
L 260.827993 53.700578 
L 262.117657 75.922922 
L 263.407321 85.672452 
L 264.696984 54.565735 
L 265.986648 81.878511 
L 267.276312 86.517457 
L 268.565976 54.974291 
L 269.855639 77.139911 
L 271.145303 86.440144 
L 272.434967 52.010703 
L 273.724631 75.748563 
L 275.014294 93.632402 
L 276.303958 47.70866 
L 277.593622 61.031067 
L 278.883286 86.440585 
L 280.172949 61.740439 
L 281.462613 58.972776 
L 282.752277 83.407399 
L 284.041941 78.165936 
L 285.331605 49.859673 
L 286.621268 92.906339 
L 289.200596 50.456488 
L 290.49026 86.801881 
L 291.779923 86.813932 
L 293.069587 54.460882 
L 294.359251 86.531799 
L 295.648915 89.176986 
L 296.938578 49.96868 
L 299.517906 92.722484 
L 300.80757 47.424135 
L 302.097233 72.567909 
L 303.386897 94.501406 
L 304.676561 47.017969 
L 305.966225 60.812634 
L 307.255888 89.824335 
L 308.545552 52.765994 
L 309.835216 61.252074 
L 311.12488 85.896392 
L 312.414544 64.198131 
L 313.704207 57.323687 
L 314.993871 83.168463 
L 316.283535 64.600418 
L 317.573199 53.694396 
L 318.862862 90.533831 
L 320.152526 63.536915 
L 321.44219 46.618111 
L 322.731854 93.371614 
L 324.021517 89.509408 
L 325.311181 50.169144 
L 326.600845 86.076164 
L 327.890509 91.431069 
L 329.180172 49.211244 
L 330.469836 85.552264 
L 331.7595 88.651767 
L 333.049164 54.09398 
L 334.338827 73.897036 
L 335.628491 87.031809 
L 336.918155 50.682137 
L 338.207819 62.572435 
L 339.497482 97.55322 
L 340.787146 42.355916 
L 343.366474 93.518045 
L 344.656138 61.239194 
L 345.945801 53.928496 
L 347.235465 85.361684 
L 348.525129 56.239637 
L 349.814793 55.133178 
L 351.104456 86.183507 
L 352.39412 64.1345 
L 353.683784 53.515933 
L 354.973448 88.791601 
L 356.263111 85.255555 
L 357.552775 48.030642 
L 358.842439 93.689322 
L 360.132103 95.10202 
L 361.421766 45.295064 
L 362.71143 84.789021 
L 364.001094 94.227933 
L 365.290758 49.289106 
L 366.580421 83.511622 
L 367.870085 85.603998 
L 369.159749 55.311797 
L 370.449413 67.91916 
L 371.739077 89.185674 
L 373.02874 55.600612 
L 374.318404 52.543833 
L 375.608068 86.73195 
L 376.897732 58.195266 
L 378.187395 52.603532 
L 379.477059 91.687495 
L 380.766723 53.175115 
L 382.056387 43.146418 
L 383.34605 97.837839 
L 384.635714 82.282905 
L 385.925378 45.799446 
L 387.215042 94.74844 
L 388.504705 92.913909 
L 389.794369 43.755943 
L 391.084033 91.261137 
L 392.373697 98.042819 
L 393.66336 43.92285 
L 394.953024 77.234526 
L 396.242688 93.025165 
L 397.532352 48.919168 
L 398.822015 80.981593 
L 400.111679 94.209539 
L 401.401343 43.445882 
L 402.691007 61.661388 
L 403.980671 101.522496 
L 405.270334 51.205561 
L 406.559998 45.557063 
L 407.849662 89.889695 
L 409.139326 54.680314 
L 410.428989 60.222164 
L 411.718653 87.890543 
L 413.008317 69.939548 
L 414.297981 44.484559 
L 415.587644 99.719872 
L 416.877308 82.21072 
L 418.166972 40.325349 
L 419.456636 98.070866 
L 420.746299 83.487135 
L 422.035963 49.411954 
L 423.325627 88.720934 
L 424.615291 83.798789 
L 425.904954 56.061505 
L 427.194618 78.828452 
L 428.484282 83.951842 
L 429.773946 54.131664 
L 431.06361 72.707009 
L 432.353273 95.231339 
L 433.642937 44.357276 
L 434.932601 81.440725 
L 436.222265 91.824418 
L 437.511928 50.556495 
L 438.801592 69.75149 
L 440.091256 93.762593 
L 441.38092 43.91733 
L 442.670583 52.419589 
L 443.960247 99.590468 
L 446.539575 45.794159 
L 447.829238 92.127314 
L 449.118902 73.371954 
L 450.408566 50.001919 
L 451.69823 92.968299 
L 452.987893 75.33159 
L 454.277557 42.448288 
L 455.567221 99.109394 
L 456.856885 94.110655 
L 458.146548 45.040624 
L 459.436212 93.305476 
L 460.725876 88.717574 
L 462.01554 50.987895 
L 464.594867 88.866219 
L 465.884531 52.432453 
L 467.174195 78.685938 
L 468.463859 86.930231 
L 469.753522 53.83627 
L 471.043186 57.590814 
L 472.33285 90.407687 
L 473.622514 47.639823 
L 474.912177 51.780984 
L 476.201841 96.995606 
L 477.491505 44.435915 
L 478.781169 59.277494 
L 480.070832 91.279658 
L 481.360496 63.947979 
L 482.65016 52.585111 
L 483.939824 89.449616 
L 485.229487 75.718994 
L 486.519151 46.548881 
L 487.808815 91.22541 
L 489.098479 94.352867 
L 490.388143 48.693573 
L 491.677806 84.66167 
L 492.96747 88.938461 
L 494.257134 50.590782 
L 495.546798 66.62343 
L 496.836461 96.712571 
L 498.126125 41.233925 
L 499.415789 53.086736 
L 500.705453 101.963177 
L 501.995116 40.156715 
L 504.574444 92.979983 
L 505.864108 60.016239 
L 507.153771 53.638353 
L 508.443435 89.777123 
L 509.733099 65.960806 
L 511.022763 39.429785 
L 512.312426 102.868824 
L 513.60209 70.894992 
L 514.891754 48.1167 
L 516.181418 86.853092 
L 517.471081 84.582155 
L 518.760745 56.678928 
L 520.050409 77.755626 
L 521.340073 90.893842 
L 522.629737 46.887123 
L 523.9194 93.341942 
L 525.209064 94.168655 
L 526.498728 48.905942 
L 527.788392 77.2048 
L 529.078055 88.748309 
L 530.367719 50.253149 
L 531.657383 62.547232 
L 532.947047 99.555033 
L 534.23671 37.81548 
L 535.526374 66.406783 
L 536.816038 101.96508 
L 538.105702 43.115825 
L 539.395365 54.448755 
L 540.685029 87.937116 
L 541.974693 63.753716 
L 543.264357 54.758486 
L 544.55402 89.117788 
L 545.843684 51.710829 
L 547.133348 44.882214 
L 548.423012 95.517017 
L 549.712676 77.345636 
L 551.002339 52.274148 
L 552.292003 87.026823 
L 553.581667 80.656916 
L 554.871331 48.459798 
L 556.160994 83.58757 
L 557.450658 99.343842 
L 558.740322 41.624996 
L 561.319649 93.099603 
L 562.609313 49.607645 
L 563.898977 62.852317 
L 565.188641 93.041383 
L 566.478304 46.106876 
L 567.767968 47.808939 
L 569.057632 97.293291 
L 570.347296 42.116331 
L 571.636959 54.50474 
L 572.926623 99.703415 
L 574.216287 54.693181 
L 575.505951 46.262319 
L 576.795614 91.342354 
L 579.374942 51.21751 
L 580.664606 91.322896 
L 581.95427 75.155962 
L 583.243933 46.504099 
L 584.533597 85.066833 
L 585.823261 92.273947 
L 587.112925 49.792048 
L 588.402588 76.298028 
L 589.692252 90.988335 
L 590.981916 49.716046 
L 592.27158 80.274084 
L 593.561243 90.651544 
L 594.850907 49.530734 
L 596.140571 56.972971 
L 597.430235 94.222385 
L 598.719898 46.25238 
L 600.009562 50.884182 
L 601.299226 92.309975 
L 602.58889 50.222949 
L 603.878553 49.455315 
L 605.168217 92.32648 
L 606.457881 58.962072 
L 607.747545 48.671418 
L 609.037209 90.301066 
L 610.326872 73.571148 
L 611.616536 53.131938 
L 612.9062 89.50727 
L 614.195864 83.970584 
L 615.485527 46.516875 
L 616.775191 92.966245 
L 618.064855 78.12433 
L 619.354519 55.304993 
L 620.644182 84.151105 
L 621.933846 82.384543 
L 623.22351 54.033754 
L 624.513174 68.489626 
L 625.802837 88.492051 
L 627.092501 52.021449 
L 628.382165 62.307146 
L 629.671829 90.799209 
L 630.961492 48.644102 
L 632.251156 53.113662 
L 633.54082 93.284016 
L 634.830484 58.948455 
L 636.120147 50.417417 
L 637.409811 87.607056 
L 638.699475 80.163595 
L 639.989139 58.118734 
L 641.278803 82.896319 
L 642.568466 79.350473 
L 643.85813 52.586001 
L 645.147794 90.359892 
L 647.727121 51.65647 
L 649.016785 85.264757 
L 650.306449 85.496928 
L 651.596113 54.829119 
L 652.885776 87.930352 
L 654.17544 91.904788 
L 655.465104 46.480494 
L 656.754768 79.921079 
L 658.044431 95.532762 
L 659.334095 45.175807 
L 660.623759 62.476272 
L 661.913423 95.316536 
L 663.203086 52.061984 
L 664.49275 48.683726 
L 665.782414 90.69156 
L 667.072078 53.563341 
L 668.361742 49.668315 
L 669.651405 92.56432 
L 670.941069 53.321891 
L 672.230733 46.822227 
L 673.520397 93.042779 
L 674.81006 70.518187 
L 676.099724 51.743929 
L 677.389388 87.769514 
L 678.679052 83.38916 
L 679.968715 51.461773 
L 681.258379 84.25279 
L 682.548043 94.677219 
L 683.837707 44.642934 
L 685.12737 85.754726 
L 686.417034 94.397335 
L 687.706698 48.3735 
L 688.996362 68.136697 
L 690.286025 90.451298 
L 691.575689 49.741896 
L 692.865353 64.300406 
L 694.155017 94.704507 
L 695.44468 44.337268 
L 696.734344 50.227635 
L 698.024008 97.185294 
L 699.313672 54.587086 
L 700.603336 46.715817 
L 701.892999 92.802804 
L 703.182663 74.21329 
L 704.472327 47.911721 
L 705.761991 93.801637 
L 707.051654 66.264479 
L 708.341318 45.659729 
L 709.630982 95.202389 
L 710.920646 75.458141 
L 712.210309 46.458868 
L 713.499973 93.989017 
L 714.789637 88.133712 
L 716.079301 47.084468 
L 717.368964 82.107746 
L 718.658628 94.12646 
L 719.948292 46.348702 
L 721.237956 72.562636 
L 722.527619 94.409535 
L 723.817283 47.129435 
L 725.106947 74.494229 
L 726.396611 92.280919 
L 727.686275 49.102014 
L 728.975938 61.519437 
L 730.265602 88.617599 
L 731.555266 63.428157 
L 732.84493 56.275945 
L 734.134593 85.507102 
L 735.424257 68.379702 
L 736.713921 47.46245 
L 738.003585 96.31128 
L 739.293248 67.421177 
L 740.582912 44.29871 
L 741.872576 95.78648 
L 743.16224 84.904551 
L 744.451903 45.258245 
L 744.451903 45.258245 
" clip-path="url(#p83143a70a5)" style="fill: none; stroke: #1f77b4; stroke-width: 0.7; stroke-linecap: square"/>
   </g>
   <g id="patch_3">
    <path d="M 52.482813 106.121491 
L 52.482813 34.562812 
" style="fill: none; stroke: #000000; stroke-width: 0.8; stroke-linejoin: miter; stroke-linecap: square"/>
   </g>
   <g id="patch_4">
    <path d="M 777.402812 106.121491 
L 777.402812 34.562812 
" style="fill: none; stroke: #000000; stroke-width: 0.8; stroke-linejoin: miter; stroke-linecap: square"/>
   </g>
   <g id="patch_5">
    <path d="M 52.482813 106.121491 
L 777.402812 106.121491 
" style="fill: none; stroke: #000000; stroke-width: 0.8; stroke-linejoin: miter; stroke-linecap: square"/>
   </g>
   <g id="patch_6">
    <path d="M 52.482813 34.562812 
L 777.402812 34.562812 
" style="fill: none; stroke: #000000; stroke-width: 0.8; stroke-linejoin: miter; stroke-linecap: square"/>
   </g>
  </g>
  <g id="axes_2">
   <g id="patch_7">
    <path d="M 52.482813 194.359574 
L 777.402812 194.359574 
L 777.402812 122.800895 
L 52.482813 122.800895 
z
" style="fill: #ffffff"/>
   </g>
   <g id="matplotlib.axis_3">
    <g id="xtick_7">
     <g id="line2d_11">
      <g>
       <use xlink:href="#m2e6ceaa461" x="94.461368" y="194.359574" style="stroke: #000000; stroke-width: 0.8"/>
      </g>
     </g>
    </g>
    <g id="xtick_8">
     <g id="line2d_12">
      <g>
       <use xlink:href="#m2e6ceaa461" x="223.427744" y="194.359574" style="stroke: #000000; stroke-width: 0.8"/>
      </g>
     </g>
    </g>
    <g id="xtick_9">
     <g id="line2d_13">
      <g>
       <use xlink:href="#m2e6ceaa461" x="352.39412" y="194.359574" style="stroke: #000000; stroke-width: 0.8"/>
      </g>
     </g>
    </g>
    <g id="xtick_10">
     <g id="line2d_14">
      <g>
       <use xlink:href="#m2e6ceaa461" x="481.360496" y="194.359574" style="stroke: #000000; stroke-width: 0.8"/>
      </g>
     </g>
    </g>
    <g id="xtick_11">
     <g id="line2d_15">
      <g>
       <use xlink:href="#m2e6ceaa461" x="610.326872" y="194.359574" style="stroke: #000000; stroke-width: 0.8"/>
      </g>
     </g>
    </g>
    <g id="xtick_12">
     <g id="line2d_16">
      <g>
       <use xlink:href="#m2e6ceaa461" x="739.293248" y="194.359574" style="stroke: #000000; stroke-width: 0.8"/>
      </g>
     </g>
    </g>
   </g>
   <g id="matplotlib.axis_4">
    <g id="ytick_4">
     <g id="line2d_17">
      <g>
       <use xlink:href="#m44d9dd315f" x="52.482813" y="194.045777" style="stroke: #000000; stroke-width: 0.8"/>
      </g>
     </g>
     <g id="text_5">
      <!-- −1 -->
      <g transform="translate(30.740625 197.844605) scale(0.1 -0.1)">
       <use xlink:href="#DejaVuSans-c9c"/>
       <use xlink:href="#DejaVuSans-14" transform="translate(83.796875 0)"/>
      </g>
     </g>
    </g>
    <g id="ytick_5">
     <g id="line2d_18">
      <g>
       <use xlink:href="#m44d9dd315f" x="52.482813" y="158.34086" style="stroke: #000000; stroke-width: 0.8"/>
      </g>
     </g>
     <g id="text_6">
      <!-- 0 -->
      <g transform="translate(39.120312 162.139688) scale(0.1 -0.1)">
       <use xlink:href="#DejaVuSans-13"/>
      </g>
     </g>
    </g>
    <g id="text_7">
     <!-- IMF 2 -->
     <g transform="translate(24.338281 172.015391) rotate(-90) scale(0.1 -0.1)">
      <defs>
       <path id="DejaVuSans-15" d="M 1228 531 
L 3431 531 
L 3431 0 
L 469 0 
L 469 531 
Q 828 903 1448 1529 
Q 2069 2156 2228 2338 
Q 2531 2678 2651 2914 
Q 2772 3150 2772 3378 
Q 2772 3750 2511 3984 
Q 2250 4219 1831 4219 
Q 1534 4219 1204 4116 
Q 875 4013 500 3803 
L 500 4441 
Q 881 4594 1212 4672 
Q 1544 4750 1819 4750 
Q 2544 4750 2975 4387 
Q 3406 4025 3406 3419 
Q 3406 3131 3298 2873 
Q 3191 2616 2906 2266 
Q 2828 2175 2409 1742 
Q 1991 1309 1228 531 
z
" transform="scale(0.015625)"/>
      </defs>
      <use xlink:href="#DejaVuSans-2c"/>
      <use xlink:href="#DejaVuSans-30" transform="translate(29.5 0)"/>
      <use xlink:href="#DejaVuSans-29" transform="translate(115.78125 0)"/>
      <use xlink:href="#DejaVuSans-3" transform="translate(173.296875 0)"/>
      <use xlink:href="#DejaVuSans-15" transform="translate(205.078125 0)"/>
     </g>
    </g>
   </g>
   <g id="line2d_19">
    <path d="M 85.433722 180.403682 
L 89.302713 176.858297 
L 90.592377 174.107953 
L 91.88204 170.078042 
L 93.171704 165.13122 
L 94.461368 158.192892 
L 95.751032 150.483151 
L 97.040695 145.634195 
L 98.330359 141.368772 
L 99.620023 139.384851 
L 102.19935 136.398629 
L 103.489014 136.222103 
L 104.778678 137.824061 
L 106.068342 139.969897 
L 107.358006 143.210749 
L 109.937333 151.279668 
L 111.226997 158.423205 
L 113.806324 171.007239 
L 115.095988 175.187711 
L 116.385652 178.168105 
L 117.675316 180.555182 
L 118.964979 182.02737 
L 120.254643 182.010884 
L 121.544307 180.216776 
L 122.833971 176.088047 
L 124.123634 170.928517 
L 125.413298 164.810073 
L 126.702962 155.519532 
L 127.992626 147.828625 
L 129.282289 142.295564 
L 130.571953 137.507271 
L 131.861617 135.342025 
L 133.151281 132.445123 
L 134.440945 131.465658 
L 135.730608 132.963084 
L 137.020272 138.250507 
L 138.309936 144.666948 
L 139.5996 150.508814 
L 140.889263 152.991239 
L 142.178927 153.21005 
L 143.468591 153.793232 
L 144.758255 156.755173 
L 146.047918 162.270118 
L 148.627246 177.255398 
L 149.91691 183.550648 
L 151.206573 186.493694 
L 152.496237 186.648541 
L 153.785901 182.247958 
L 155.075565 173.440164 
L 157.654892 152.704582 
L 158.944556 146.696791 
L 160.23422 143.487867 
L 161.523883 142.332574 
L 164.103211 136.88148 
L 166.682539 130.806342 
L 167.972202 131.68956 
L 170.55153 136.256935 
L 171.841194 140.568949 
L 173.130857 144.284503 
L 174.420521 149.077236 
L 175.710185 156.1634 
L 176.999849 164.072342 
L 179.579176 177.464297 
L 180.86884 181.226286 
L 182.158504 184.062274 
L 183.448167 183.340329 
L 186.027495 176.91235 
L 187.317159 172.995889 
L 188.606822 169.616232 
L 189.896486 164.253356 
L 191.18615 157.879697 
L 192.475814 150.571614 
L 193.765478 145.897601 
L 195.055141 143.163593 
L 196.344805 141.393361 
L 197.634469 138.198505 
L 198.924133 134.601176 
L 200.213796 132.585636 
L 201.50346 135.546114 
L 205.372451 156.722663 
L 206.662115 160.332049 
L 207.951779 163.139673 
L 209.241443 166.778281 
L 210.531106 170.831947 
L 216.979425 183.602226 
L 218.269089 181.317995 
L 219.558753 175.868971 
L 222.13808 160.893365 
L 223.427744 154.741057 
L 224.717408 150.546061 
L 226.007072 147.565896 
L 227.296735 144.25701 
L 229.876063 138.340283 
L 231.165727 136.405887 
L 232.45539 135.489545 
L 233.745054 137.701796 
L 235.034718 141.165209 
L 238.903709 153.912992 
L 240.193373 156.993147 
L 241.483037 160.522064 
L 245.352028 176.619654 
L 246.641692 179.366016 
L 247.931355 177.550486 
L 249.221019 174.537034 
L 251.800347 167.4912 
L 255.669338 154.450543 
L 256.959002 150.503713 
L 258.248666 145.71706 
L 259.538329 142.761604 
L 260.827993 138.048756 
L 262.117657 134.832761 
L 263.407321 134.163806 
L 264.696984 136.245112 
L 267.276312 148.536287 
L 268.565976 152.708399 
L 269.855639 154.414135 
L 271.145303 156.552696 
L 272.434967 161.216303 
L 273.724631 167.389426 
L 275.014294 174.145902 
L 276.303958 180.085788 
L 277.593622 184.379316 
L 278.883286 187.324987 
L 280.172949 188.226555 
L 281.462613 186.837602 
L 282.752277 184.21933 
L 284.041941 181.011067 
L 285.331605 178.553582 
L 286.621268 175.691777 
L 287.910932 172.085437 
L 289.200596 165.70174 
L 291.779923 150.168115 
L 293.069587 143.642946 
L 294.359251 138.157489 
L 295.648915 134.914957 
L 296.938578 134.932285 
L 298.228242 137.574127 
L 300.80757 143.902392 
L 303.386897 145.805553 
L 304.676561 148.826185 
L 307.255888 159.416675 
L 308.545552 163.900671 
L 309.835216 164.340544 
L 311.12488 162.246632 
L 312.414544 158.445936 
L 313.704207 155.688662 
L 314.993871 155.37033 
L 316.283535 159.795543 
L 317.573199 161.860019 
L 318.862862 160.949612 
L 320.152526 155.732056 
L 321.44219 149.700067 
L 322.731854 145.732138 
L 324.021517 144.182786 
L 325.311181 144.190507 
L 326.600845 143.049658 
L 327.890509 142.398104 
L 329.180172 143.774732 
L 330.469836 147.188929 
L 334.338827 163.132099 
L 335.628491 168.617578 
L 336.918155 175.595715 
L 338.207819 180.117905 
L 339.497482 185.276093 
L 340.787146 186.967199 
L 342.07681 187.847594 
L 344.656138 190.308604 
L 345.945801 190.910753 
L 347.235465 191.106906 
L 348.525129 189.658381 
L 349.814793 187.718408 
L 351.104456 183.576475 
L 352.39412 176.610793 
L 354.973448 159.97671 
L 356.263111 152.842547 
L 357.552775 149.599385 
L 358.842439 148.182521 
L 361.421766 148.172961 
L 362.71143 147.95234 
L 364.001094 146.843187 
L 365.290758 147.375157 
L 366.580421 150.327813 
L 367.870085 154.877455 
L 369.159749 160.766104 
L 370.449413 161.772483 
L 371.739077 161.789423 
L 373.02874 157.027961 
L 374.318404 154.204677 
L 375.608068 156.489782 
L 376.897732 161.831897 
L 378.187395 165.848658 
L 379.477059 166.230477 
L 380.766723 163.786575 
L 382.056387 158.863274 
L 384.635714 150.754723 
L 385.925378 147.031072 
L 387.215042 145.597669 
L 388.504705 144.558839 
L 389.794369 145.035505 
L 391.084033 147.235976 
L 392.373697 148.840093 
L 393.66336 149.895339 
L 394.953024 149.857452 
L 397.532352 151.691152 
L 400.111679 158.391625 
L 401.401343 164.213581 
L 402.691007 168.970024 
L 403.980671 171.933074 
L 405.270334 171.795369 
L 406.559998 170.50373 
L 407.849662 171.245801 
L 409.139326 173.15115 
L 410.428989 174.795592 
L 411.718653 173.636272 
L 414.297981 168.538717 
L 418.166972 155.304121 
L 419.456636 153.02199 
L 420.746299 152.238347 
L 422.035963 151.789585 
L 423.325627 148.982972 
L 424.615291 146.443259 
L 425.904954 145.601785 
L 427.194618 147.188263 
L 429.773946 157.442174 
L 431.06361 161.947239 
L 432.353273 164.050499 
L 433.642937 165.533126 
L 434.932601 166.718005 
L 436.222265 170.746439 
L 437.511928 175.285114 
L 438.801592 179.005312 
L 440.091256 181.760438 
L 441.38092 182.197907 
L 442.670583 179.997147 
L 443.960247 176.330808 
L 446.539575 162.882749 
L 447.829238 157.623058 
L 451.69823 149.824586 
L 452.987893 144.743737 
L 454.277557 140.531526 
L 455.567221 136.980392 
L 456.856885 134.350232 
L 458.146548 132.594713 
L 459.436212 133.77602 
L 460.725876 137.00688 
L 462.01554 142.738379 
L 464.594867 157.437435 
L 467.174195 170.798426 
L 468.463859 175.339105 
L 469.753522 179.036533 
L 471.043186 180.192207 
L 472.33285 180.222826 
L 473.622514 179.615048 
L 474.912177 179.441979 
L 476.201841 177.271187 
L 477.491505 174.702953 
L 478.781169 171.462961 
L 480.070832 167.776217 
L 481.360496 163.379082 
L 482.65016 158.236206 
L 485.229487 147.366979 
L 486.519151 143.076487 
L 487.808815 140.814775 
L 489.098479 139.82345 
L 491.677806 136.974137 
L 492.96747 139.558232 
L 494.257134 146.276599 
L 496.836461 164.633392 
L 498.126125 170.125646 
L 499.415789 172.234585 
L 500.705453 172.556899 
L 501.995116 174.603559 
L 504.574444 179.662765 
L 505.864108 181.718507 
L 507.153771 179.990673 
L 508.443435 176.926349 
L 511.022763 172.667792 
L 512.312426 169.924745 
L 513.60209 163.265073 
L 514.891754 153.90703 
L 516.181418 145.408361 
L 517.471081 139.940605 
L 518.760745 136.057069 
L 520.050409 134.528111 
L 521.340073 134.101885 
L 522.629737 134.759566 
L 523.9194 137.468227 
L 526.498728 146.301381 
L 527.788392 150.353057 
L 529.078055 155.829478 
L 530.367719 162.56453 
L 532.947047 172.355858 
L 534.23671 175.824502 
L 536.816038 180.497544 
L 538.105702 180.620488 
L 539.395365 178.865777 
L 540.685029 177.495947 
L 541.974693 176.61092 
L 543.264357 174.177274 
L 544.55402 170.013535 
L 545.843684 164.473521 
L 548.423012 152.237322 
L 549.712676 146.278078 
L 551.002339 140.853072 
L 552.292003 136.885797 
L 553.581667 137.565217 
L 554.871331 140.212955 
L 557.450658 148.620421 
L 558.740322 152.159498 
L 560.029986 156.295817 
L 561.319649 159.846974 
L 562.609313 164.414529 
L 563.898977 168.063321 
L 565.188641 170.793585 
L 566.478304 174.139234 
L 567.767968 178.642713 
L 569.057632 182.298221 
L 570.347296 185.340714 
L 571.636959 183.7997 
L 572.926623 178.692391 
L 575.505951 160.295359 
L 576.795614 154.018043 
L 578.085278 150.635348 
L 579.374942 148.578522 
L 580.664606 144.42721 
L 583.243933 133.89811 
L 584.533597 130.260212 
L 587.112925 126.868879 
L 588.402588 126.053562 
L 589.692252 127.162813 
L 590.981916 129.790111 
L 593.561243 144.78913 
L 594.850907 152.499432 
L 597.430235 162.61463 
L 598.719898 165.07405 
L 600.009562 169.564834 
L 601.299226 173.288256 
L 602.58889 177.439932 
L 603.878553 178.604787 
L 605.168217 176.948763 
L 606.457881 173.035682 
L 607.747545 169.515509 
L 609.037209 167.334776 
L 610.326872 167.010316 
L 611.616536 165.477288 
L 614.195864 156.657239 
L 615.485527 153.83312 
L 616.775191 155.923864 
L 618.064855 159.094095 
L 619.354519 160.676813 
L 620.644182 158.956098 
L 623.22351 154.8318 
L 624.513174 156.667256 
L 627.092501 164.909794 
L 628.382165 168.333567 
L 629.671829 171.176923 
L 630.961492 173.118623 
L 632.251156 174.082602 
L 633.54082 174.77558 
L 634.830484 172.634128 
L 636.120147 169.386652 
L 637.409811 163.966978 
L 639.989139 150.556782 
L 641.278803 145.232662 
L 642.568466 143.799837 
L 643.85813 142.154743 
L 645.147794 139.914412 
L 647.727121 131.032828 
L 649.016785 127.500968 
L 650.306449 126.924611 
L 651.596113 128.573545 
L 652.885776 129.480538 
L 654.17544 131.586337 
L 655.465104 134.007158 
L 656.754768 140.965227 
L 658.044431 149.079571 
L 659.334095 159.113775 
L 660.623759 167.540702 
L 661.913423 173.347569 
L 663.203086 176.814296 
L 664.49275 178.812509 
L 665.782414 181.192576 
L 667.072078 184.78317 
L 668.361742 186.303441 
L 669.651405 185.874202 
L 670.941069 180.197252 
L 672.230733 173.281405 
L 674.81006 156.283045 
L 676.099724 149.651225 
L 677.389388 143.727346 
L 678.679052 141.101379 
L 679.968715 138.036234 
L 681.258379 136.18045 
L 682.548043 135.205326 
L 683.837707 136.338356 
L 685.12737 139.174324 
L 687.706698 149.286384 
L 691.575689 159.674177 
L 692.865353 163.706375 
L 695.44468 173.802137 
L 696.734344 178.864912 
L 698.024008 181.004634 
L 699.313672 180.804242 
L 700.603336 178.129086 
L 701.892999 174.668659 
L 703.182663 169.501927 
L 709.630982 150.132751 
L 712.210309 139.448216 
L 713.499973 135.34245 
L 714.789637 133.743749 
L 716.079301 133.592683 
L 717.368964 136.151005 
L 718.658628 141.606558 
L 721.237956 154.598359 
L 722.527619 160.263014 
L 723.817283 162.499356 
L 725.106947 163.366517 
L 726.396611 165.127056 
L 727.686275 169.880263 
L 730.265602 182.421114 
L 731.555266 184.089051 
L 732.84493 182.20021 
L 734.134593 177.756325 
L 735.424257 172.464945 
L 738.003585 164.257602 
L 739.293248 159.295392 
L 741.872576 147.652511 
L 743.16224 144.089211 
L 744.451903 142.746207 
L 744.451903 142.746207 
" clip-path="url(#pc1b6c2918d)" style="fill: none; stroke: #1f77b4; stroke-width: 0.7; stroke-linecap: square"/>
   </g>
   <g id="patch_8">
    <path d="M 52.482813 194.359574 
L 52.482813 122.800895 
" style="fill: none; stroke: #000000; stroke-width: 0.8; stroke-linejoin: miter; stroke-linecap: square"/>
   </g>
   <g id="patch_9">
    <path d="M 777.402812 194.359574 
L 777.402812 122.800895 
" style="fill: none; stroke: #000000; stroke-width: 0.8; stroke-linejoin: miter; stroke-linecap: square"/>
   </g>
   <g id="patch_10">
    <path d="M 52.482813 194.359574 
L 777.402812 194.359574 
" style="fill: none; stroke: #000000; stroke-width: 0.8; stroke-linejoin: miter; stroke-linecap: square"/>
   </g>
   <g id="patch_11">
    <path d="M 52.482813 122.800895 
L 777.402812 122.800895 
" style="fill: none; stroke: #000000; stroke-width: 0.8; stroke-linejoin: miter; stroke-linecap: square"/>
   </g>
  </g>
  <g id="axes_3">
   <g id="patch_12">
    <path d="M 52.482813 282.597656 
L 777.402812 282.597656 
L 777.402812 211.038978 
L 52.482813 211.038978 
z
" style="fill: #ffffff"/>
   </g>
   <g id="matplotlib.axis_5">
    <g id="xtick_13">
     <g id="line2d_20">
      <g>
       <use xlink:href="#m2e6ceaa461" x="94.461368" y="282.597656" style="stroke: #000000; stroke-width: 0.8"/>
      </g>
     </g>
     <g id="text_8">
      <!-- 0.1 -->
      <g transform="translate(86.509805 297.195312) scale(0.1 -0.1)">
       <use xlink:href="#DejaVuSans-13"/>
       <use xlink:href="#DejaVuSans-11" transform="translate(63.625 0)"/>
       <use xlink:href="#DejaVuSans-14" transform="translate(95.40625 0)"/>
      </g>
     </g>
    </g>
    <g id="xtick_14">
     <g id="line2d_21">
      <g>
       <use xlink:href="#m2e6ceaa461" x="223.427744" y="282.597656" style="stroke: #000000; stroke-width: 0.8"/>
      </g>
     </g>
     <g id="text_9">
      <!-- 0.2 -->
      <g transform="translate(215.476182 297.195312) scale(0.1 -0.1)">
       <use xlink:href="#DejaVuSans-13"/>
       <use xlink:href="#DejaVuSans-11" transform="translate(63.625 0)"/>
       <use xlink:href="#DejaVuSans-15" transform="translate(95.40625 0)"/>
      </g>
     </g>
    </g>
    <g id="xtick_15">
     <g id="line2d_22">
      <g>
       <use xlink:href="#m2e6ceaa461" x="352.39412" y="282.597656" style="stroke: #000000; stroke-width: 0.8"/>
      </g>
     </g>
     <g id="text_10">
      <!-- 0.3 -->
      <g transform="translate(344.442558 297.195312) scale(0.1 -0.1)">
       <defs>
        <path id="DejaVuSans-16" d="M 2597 2516 
Q 3050 2419 3304 2112 
Q 3559 1806 3559 1356 
Q 3559 666 3084 287 
Q 2609 -91 1734 -91 
Q 1441 -91 1130 -33 
Q 819 25 488 141 
L 488 750 
Q 750 597 1062 519 
Q 1375 441 1716 441 
Q 2309 441 2620 675 
Q 2931 909 2931 1356 
Q 2931 1769 2642 2001 
Q 2353 2234 1838 2234 
L 1294 2234 
L 1294 2753 
L 1863 2753 
Q 2328 2753 2575 2939 
Q 2822 3125 2822 3475 
Q 2822 3834 2567 4026 
Q 2313 4219 1838 4219 
Q 1578 4219 1281 4162 
Q 984 4106 628 3988 
L 628 4550 
Q 988 4650 1302 4700 
Q 1616 4750 1894 4750 
Q 2613 4750 3031 4423 
Q 3450 4097 3450 3541 
Q 3450 3153 3228 2886 
Q 3006 2619 2597 2516 
z
" transform="scale(0.015625)"/>
       </defs>
       <use xlink:href="#DejaVuSans-13"/>
       <use xlink:href="#DejaVuSans-11" transform="translate(63.625 0)"/>
       <use xlink:href="#DejaVuSans-16" transform="translate(95.40625 0)"/>
      </g>
     </g>
    </g>
    <g id="xtick_16">
     <g id="line2d_23">
      <g>
       <use xlink:href="#m2e6ceaa461" x="481.360496" y="282.597656" style="stroke: #000000; stroke-width: 0.8"/>
      </g>
     </g>
     <g id="text_11">
      <!-- 0.4 -->
      <g transform="translate(473.408934 297.195312) scale(0.1 -0.1)">
       <defs>
        <path id="DejaVuSans-17" d="M 2419 4116 
L 825 1625 
L 2419 1625 
L 2419 4116 
z
M 2253 4666 
L 3047 4666 
L 3047 1625 
L 3713 1625 
L 3713 1100 
L 3047 1100 
L 3047 0 
L 2419 0 
L 2419 1100 
L 313 1100 
L 313 1709 
L 2253 4666 
z
" transform="scale(0.015625)"/>
       </defs>
       <use xlink:href="#DejaVuSans-13"/>
       <use xlink:href="#DejaVuSans-11" transform="translate(63.625 0)"/>
       <use xlink:href="#DejaVuSans-17" transform="translate(95.40625 0)"/>
      </g>
     </g>
    </g>
    <g id="xtick_17">
     <g id="line2d_24">
      <g>
       <use xlink:href="#m2e6ceaa461" x="610.326872" y="282.597656" style="stroke: #000000; stroke-width: 0.8"/>
      </g>
     </g>
     <g id="text_12">
      <!-- 0.5 -->
      <g transform="translate(602.37531 297.195312) scale(0.1 -0.1)">
       <use xlink:href="#DejaVuSans-13"/>
       <use xlink:href="#DejaVuSans-11" transform="translate(63.625 0)"/>
       <use xlink:href="#DejaVuSans-18" transform="translate(95.40625 0)"/>
      </g>
     </g>
    </g>
    <g id="xtick_18">
     <g id="line2d_25">
      <g>
       <use xlink:href="#m2e6ceaa461" x="739.293248" y="282.597656" style="stroke: #000000; stroke-width: 0.8"/>
      </g>
     </g>
     <g id="text_13">
      <!-- 0.6 -->
      <g transform="translate(731.341686 297.195312) scale(0.1 -0.1)">
       <defs>
        <path id="DejaVuSans-19" d="M 2113 2584 
Q 1688 2584 1439 2293 
Q 1191 2003 1191 1497 
Q 1191 994 1439 701 
Q 1688 409 2113 409 
Q 2538 409 2786 701 
Q 3034 994 3034 1497 
Q 3034 2003 2786 2293 
Q 2538 2584 2113 2584 
z
M 3366 4563 
L 3366 3988 
Q 3128 4100 2886 4159 
Q 2644 4219 2406 4219 
Q 1781 4219 1451 3797 
Q 1122 3375 1075 2522 
Q 1259 2794 1537 2939 
Q 1816 3084 2150 3084 
Q 2853 3084 3261 2657 
Q 3669 2231 3669 1497 
Q 3669 778 3244 343 
Q 2819 -91 2113 -91 
Q 1303 -91 875 529 
Q 447 1150 447 2328 
Q 447 3434 972 4092 
Q 1497 4750 2381 4750 
Q 2619 4750 2861 4703 
Q 3103 4656 3366 4563 
z
" transform="scale(0.015625)"/>
       </defs>
       <use xlink:href="#DejaVuSans-13"/>
       <use xlink:href="#DejaVuSans-11" transform="translate(63.625 0)"/>
       <use xlink:href="#DejaVuSans-19" transform="translate(95.40625 0)"/>
      </g>
     </g>
    </g>
    <g id="text_14">
     <!-- Time (s) -->
     <g transform="translate(394.611562 311.196094) scale(0.1 -0.1)">
      <defs>
       <path id="DejaVuSans-37" d="M -19 4666 
L 3928 4666 
L 3928 4134 
L 2272 4134 
L 2272 0 
L 1638 0 
L 1638 4134 
L -19 4134 
L -19 4666 
z
" transform="scale(0.015625)"/>
       <path id="DejaVuSans-4c" d="M 603 3500 
L 1178 3500 
L 1178 0 
L 603 0 
L 603 3500 
z
M 603 4863 
L 1178 4863 
L 1178 4134 
L 603 4134 
L 603 4863 
z
" transform="scale(0.015625)"/>
       <path id="DejaVuSans-50" d="M 3328 2828 
Q 3544 3216 3844 3400 
Q 4144 3584 4550 3584 
Q 5097 3584 5394 3201 
Q 5691 2819 5691 2113 
L 5691 0 
L 5113 0 
L 5113 2094 
Q 5113 2597 4934 2840 
Q 4756 3084 4391 3084 
Q 3944 3084 3684 2787 
Q 3425 2491 3425 1978 
L 3425 0 
L 2847 0 
L 2847 2094 
Q 2847 2600 2669 2842 
Q 2491 3084 2119 3084 
Q 1678 3084 1418 2786 
Q 1159 2488 1159 1978 
L 1159 0 
L 581 0 
L 581 3500 
L 1159 3500 
L 1159 2956 
Q 1356 3278 1631 3431 
Q 1906 3584 2284 3584 
Q 2666 3584 2933 3390 
Q 3200 3197 3328 2828 
z
" transform="scale(0.015625)"/>
       <path id="DejaVuSans-48" d="M 3597 1894 
L 3597 1613 
L 953 1613 
Q 991 1019 1311 708 
Q 1631 397 2203 397 
Q 2534 397 2845 478 
Q 3156 559 3463 722 
L 3463 178 
Q 3153 47 2828 -22 
Q 2503 -91 2169 -91 
Q 1331 -91 842 396 
Q 353 884 353 1716 
Q 353 2575 817 3079 
Q 1281 3584 2069 3584 
Q 2775 3584 3186 3129 
Q 3597 2675 3597 1894 
z
M 3022 2063 
Q 3016 2534 2758 2815 
Q 2500 3097 2075 3097 
Q 1594 3097 1305 2825 
Q 1016 2553 972 2059 
L 3022 2063 
z
" transform="scale(0.015625)"/>
       <path id="DejaVuSans-b" d="M 1984 4856 
Q 1566 4138 1362 3434 
Q 1159 2731 1159 2009 
Q 1159 1288 1364 580 
Q 1569 -128 1984 -844 
L 1484 -844 
Q 1016 -109 783 600 
Q 550 1309 550 2009 
Q 550 2706 781 3412 
Q 1013 4119 1484 4856 
L 1984 4856 
z
" transform="scale(0.015625)"/>
       <path id="DejaVuSans-56" d="M 2834 3397 
L 2834 2853 
Q 2591 2978 2328 3040 
Q 2066 3103 1784 3103 
Q 1356 3103 1142 2972 
Q 928 2841 928 2578 
Q 928 2378 1081 2264 
Q 1234 2150 1697 2047 
L 1894 2003 
Q 2506 1872 2764 1633 
Q 3022 1394 3022 966 
Q 3022 478 2636 193 
Q 2250 -91 1575 -91 
Q 1294 -91 989 -36 
Q 684 19 347 128 
L 347 722 
Q 666 556 975 473 
Q 1284 391 1588 391 
Q 1994 391 2212 530 
Q 2431 669 2431 922 
Q 2431 1156 2273 1281 
Q 2116 1406 1581 1522 
L 1381 1569 
Q 847 1681 609 1914 
Q 372 2147 372 2553 
Q 372 3047 722 3315 
Q 1072 3584 1716 3584 
Q 2034 3584 2315 3537 
Q 2597 3491 2834 3397 
z
" transform="scale(0.015625)"/>
       <path id="DejaVuSans-c" d="M 513 4856 
L 1013 4856 
Q 1481 4119 1714 3412 
Q 1947 2706 1947 2009 
Q 1947 1309 1714 600 
Q 1481 -109 1013 -844 
L 513 -844 
Q 928 -128 1133 580 
Q 1338 1288 1338 2009 
Q 1338 2731 1133 3434 
Q 928 4138 513 4856 
z
" transform="scale(0.015625)"/>
      </defs>
      <use xlink:href="#DejaVuSans-37"/>
      <use xlink:href="#DejaVuSans-4c" transform="translate(58 0)"/>
      <use xlink:href="#DejaVuSans-50" transform="translate(85.78125 0)"/>
      <use xlink:href="#DejaVuSans-48" transform="translate(183.1875 0)"/>
      <use xlink:href="#DejaVuSans-3" transform="translate(244.71875 0)"/>
      <use xlink:href="#DejaVuSans-b" transform="translate(276.5 0)"/>
      <use xlink:href="#DejaVuSans-56" transform="translate(315.515625 0)"/>
      <use xlink:href="#DejaVuSans-c" transform="translate(367.609375 0)"/>
     </g>
    </g>
   </g>
   <g id="matplotlib.axis_6">
    <g id="ytick_6">
     <g id="line2d_26">
      <g>
       <use xlink:href="#m44d9dd315f" x="52.482813" y="249.712852" style="stroke: #000000; stroke-width: 0.8"/>
      </g>
     </g>
     <g id="text_15">
      <!-- 0.0 -->
      <g transform="translate(29.579687 253.51168) scale(0.1 -0.1)">
       <use xlink:href="#DejaVuSans-13"/>
       <use xlink:href="#DejaVuSans-11" transform="translate(63.625 0)"/>
       <use xlink:href="#DejaVuSans-13" transform="translate(95.40625 0)"/>
      </g>
     </g>
    </g>
    <g id="ytick_7">
     <g id="line2d_27">
      <g>
       <use xlink:href="#m44d9dd315f" x="52.482813" y="215.690773" style="stroke: #000000; stroke-width: 0.8"/>
      </g>
     </g>
     <g id="text_16">
      <!-- 0.5 -->
      <g transform="translate(29.579687 219.489601) scale(0.1 -0.1)">
       <use xlink:href="#DejaVuSans-13"/>
       <use xlink:href="#DejaVuSans-11" transform="translate(63.625 0)"/>
       <use xlink:href="#DejaVuSans-18" transform="translate(95.40625 0)"/>
      </g>
     </g>
    </g>
    <g id="text_17">
     <!-- IMF 3 -->
     <g transform="translate(23.177344 260.253473) rotate(-90) scale(0.1 -0.1)">
      <use xlink:href="#DejaVuSans-2c"/>
      <use xlink:href="#DejaVuSans-30" transform="translate(29.5 0)"/>
      <use xlink:href="#DejaVuSans-29" transform="translate(115.78125 0)"/>
      <use xlink:href="#DejaVuSans-3" transform="translate(173.296875 0)"/>
      <use xlink:href="#DejaVuSans-16" transform="translate(205.078125 0)"/>
     </g>
    </g>
   </g>
   <g id="line2d_28">
    <path d="M 85.433722 249.71905 
L 90.592377 250.677261 
L 94.461368 251.215267 
L 98.330359 251.507641 
L 100.909687 251.525745 
L 103.489014 251.374594 
L 106.068342 251.044411 
L 109.937333 250.303868 
L 120.254643 248.124229 
L 124.123634 247.672871 
L 127.992626 247.529983 
L 130.571953 247.621285 
L 133.151281 247.872943 
L 135.730608 248.293152 
L 139.5996 249.179316 
L 148.627246 251.475503 
L 151.206573 251.939585 
L 153.785901 252.217815 
L 156.365228 252.293164 
L 158.944556 252.184588 
L 161.523883 251.910207 
L 165.392875 251.226345 
L 169.261866 250.274044 
L 179.579176 247.500992 
L 182.158504 247.024506 
L 184.737831 246.723439 
L 187.317159 246.592262 
L 191.18615 246.677698 
L 195.055141 247.051934 
L 198.924133 247.658589 
L 204.082788 248.726847 
L 219.558753 252.185626 
L 229.876063 254.097589 
L 233.745054 255.07 
L 240.193373 257.05478 
L 245.352028 258.543857 
L 247.931355 259.117973 
L 250.510683 259.486258 
L 253.090011 259.548749 
L 254.379674 259.433875 
L 255.669338 259.205428 
L 256.959002 258.851543 
L 258.248666 258.360351 
L 259.538329 257.719989 
L 260.827993 256.918589 
L 262.117657 255.944286 
L 263.407321 254.785214 
L 264.696984 253.43653 
L 267.276312 250.270354 
L 269.855639 246.680933 
L 276.303958 237.445102 
L 278.883286 234.281626 
L 280.172949 232.934742 
L 281.462613 231.784487 
L 282.752277 230.859611 
L 284.041941 230.188554 
L 285.331605 229.79976 
L 286.621268 229.721655 
L 287.910932 229.982543 
L 289.200596 230.610453 
L 290.49026 231.633348 
L 291.779923 233.079191 
L 293.069587 234.975948 
L 294.359251 237.351581 
L 295.648915 240.234054 
L 296.938578 243.62455 
L 299.517906 251.479059 
L 303.386897 263.95376 
L 304.676561 267.765881 
L 305.966225 271.18374 
L 307.255888 274.074612 
L 308.545552 276.305775 
L 309.835216 277.744504 
L 311.12488 278.279254 
L 312.414544 277.883206 
L 313.704207 276.550749 
L 314.993871 274.276282 
L 316.283535 271.102462 
L 317.573199 267.264988 
L 320.152526 258.502427 
L 325.311181 239.928092 
L 326.600845 235.705248 
L 327.890509 231.869897 
L 329.180172 228.521652 
L 330.469836 225.703426 
L 331.7595 223.381116 
L 333.049164 221.503858 
L 334.338827 220.02079 
L 335.628491 218.881051 
L 336.918155 218.033776 
L 338.207819 217.428105 
L 339.497482 217.013174 
L 342.07681 216.552085 
L 345.945801 216.019446 
L 348.525129 215.281196 
L 351.104456 214.499357 
L 352.39412 214.291645 
L 353.683784 214.314793 
L 354.973448 214.651335 
L 356.263111 215.384041 
L 357.552775 216.59568 
L 358.842439 218.369021 
L 360.132103 220.769675 
L 361.421766 223.794624 
L 362.71143 227.423691 
L 364.001094 231.636701 
L 365.290758 236.395802 
L 367.870085 247.100396 
L 373.02874 269.642113 
L 374.318404 274.262316 
L 375.608068 277.564597 
L 376.897732 279.31331 
L 378.187395 279.344989 
L 379.477059 277.535015 
L 380.766723 273.974261 
L 382.056387 269.011647 
L 383.34605 263.05052 
L 388.504705 237.287762 
L 389.794369 232.384233 
L 391.084033 228.856733 
L 392.373697 226.88098 
L 393.66336 226.541008 
L 394.953024 227.735993 
L 396.242688 230.292215 
L 397.532352 233.932216 
L 398.822015 238.352656 
L 403.980671 257.772016 
L 405.270334 261.565627 
L 406.559998 264.430624 
L 407.849662 266.164177 
L 409.139326 266.753005 
L 410.428989 266.235834 
L 411.718653 264.683729 
L 413.008317 262.285777 
L 414.297981 259.260381 
L 416.877308 252.200866 
L 419.456636 245.252401 
L 420.746299 242.365819 
L 422.035963 240.13313 
L 423.325627 238.600341 
L 424.615291 237.676305 
L 425.904954 237.258793 
L 427.194618 237.30366 
L 428.484282 237.760119 
L 429.773946 238.571738 
L 431.06361 239.682085 
L 432.353273 241.034731 
L 434.932601 244.24119 
L 440.091256 251.078704 
L 441.38092 252.547357 
L 442.670583 253.818005 
L 443.960247 254.889956 
L 445.249911 255.773665 
L 446.539575 256.479588 
L 447.829238 257.01818 
L 449.118902 257.399896 
L 450.408566 257.635193 
L 451.69823 257.734524 
L 452.987893 257.708178 
L 455.567221 257.315082 
L 458.146548 256.523395 
L 460.725876 255.408886 
L 464.594867 253.389041 
L 468.463859 251.330192 
L 471.043186 250.146343 
L 473.622514 249.23411 
L 476.201841 248.586595 
L 478.781169 248.170273 
L 481.360496 247.951617 
L 485.229487 247.920944 
L 489.098479 248.148218 
L 495.546798 248.816275 
L 501.995116 249.441332 
L 505.864108 249.603093 
L 509.733099 249.506948 
L 513.60209 249.176341 
L 518.760745 248.475467 
L 526.498728 247.138683 
L 531.657383 246.047214 
L 536.816038 244.718866 
L 543.264357 242.737421 
L 548.423012 241.204392 
L 552.292003 240.2997 
L 554.871331 239.900467 
L 557.450658 239.766238 
L 560.029986 239.995397 
L 561.319649 240.274258 
L 562.609313 240.676921 
L 563.898977 241.214067 
L 565.188641 241.896378 
L 566.478304 242.734534 
L 567.767968 243.739217 
L 569.057632 244.92111 
L 570.347296 246.290893 
L 572.926623 249.58249 
L 575.505951 253.427634 
L 584.533597 267.769113 
L 587.112925 271.126041 
L 588.402588 272.530602 
L 589.692252 273.710891 
L 590.981916 274.629085 
L 592.27158 275.245812 
L 593.561243 275.521637 
L 594.850907 275.416806 
L 596.140571 274.891289 
L 597.430235 273.905004 
L 598.719898 272.417866 
L 600.009562 270.389794 
L 601.299226 267.780702 
L 602.58889 264.55051 
L 603.878553 260.681375 
L 606.457881 251.444102 
L 610.326872 236.421248 
L 611.616536 231.809104 
L 612.9062 227.68914 
L 614.195864 224.238019 
L 615.485527 221.632407 
L 616.775191 220.038017 
L 618.064855 219.576749 
L 619.354519 220.360203 
L 620.644182 222.437729 
L 621.933846 225.599962 
L 623.22351 229.579265 
L 625.802837 239.110186 
L 630.961492 259.486546 
L 632.251156 263.834748 
L 633.54082 267.534969 
L 634.830484 270.451871 
L 636.120147 272.60802 
L 637.409811 274.065461 
L 638.699475 274.886236 
L 639.989139 275.132388 
L 641.278803 274.865894 
L 642.568466 274.148389 
L 643.85813 273.041142 
L 645.147794 271.605346 
L 646.437458 269.902193 
L 649.016785 265.938587 
L 658.044431 251.105106 
L 660.623759 247.385855 
L 663.203086 244.170464 
L 664.49275 242.798139 
L 665.782414 241.607486 
L 667.072078 240.617074 
L 668.361742 239.845471 
L 669.651405 239.304865 
L 670.941069 238.981912 
L 672.230733 238.856889 
L 673.520397 238.909598 
L 674.81006 239.117953 
L 677.389388 239.911359 
L 679.968715 241.056635 
L 690.286025 246.200082 
L 694.155017 247.784738 
L 696.734344 248.638461 
L 699.313672 249.290499 
L 701.892999 249.740201 
L 705.761991 250.106401 
L 709.630982 250.205599 
L 744.451903 250.064646 
L 744.451903 250.064646 
" clip-path="url(#pde4e06929a)" style="fill: none; stroke: #1f77b4; stroke-width: 0.7; stroke-linecap: square"/>
   </g>
   <g id="patch_13">
    <path d="M 52.482813 282.597656 
L 52.482813 211.038978 
" style="fill: none; stroke: #000000; stroke-width: 0.8; stroke-linejoin: miter; stroke-linecap: square"/>
   </g>
   <g id="patch_14">
    <path d="M 777.402812 282.597656 
L 777.402812 211.038978 
" style="fill: none; stroke: #000000; stroke-width: 0.8; stroke-linejoin: miter; stroke-linecap: square"/>
   </g>
   <g id="patch_15">
    <path d="M 52.482813 282.597656 
L 777.402812 282.597656 
" style="fill: none; stroke: #000000; stroke-width: 0.8; stroke-linejoin: miter; stroke-linecap: square"/>
   </g>
   <g id="patch_16">
    <path d="M 52.482813 211.038978 
L 777.402812 211.038978 
" style="fill: none; stroke: #000000; stroke-width: 0.8; stroke-linejoin: miter; stroke-linecap: square"/>
   </g>
  </g>
  <g id="text_18">
   <!-- Individual physical-unit IMFs -->
   <g transform="translate(307.256875 16.318125) scale(0.12 -0.12)">
    <defs>
     <path id="DejaVuSans-51" d="M 3513 2113 
L 3513 0 
L 2938 0 
L 2938 2094 
Q 2938 2591 2744 2837 
Q 2550 3084 2163 3084 
Q 1697 3084 1428 2787 
Q 1159 2491 1159 1978 
L 1159 0 
L 581 0 
L 581 3500 
L 1159 3500 
L 1159 2956 
Q 1366 3272 1645 3428 
Q 1925 3584 2291 3584 
Q 2894 3584 3203 3211 
Q 3513 2838 3513 2113 
z
" transform="scale(0.015625)"/>
     <path id="DejaVuSans-47" d="M 2906 2969 
L 2906 4863 
L 3481 4863 
L 3481 0 
L 2906 0 
L 2906 525 
Q 2725 213 2448 61 
Q 2172 -91 1784 -91 
Q 1150 -91 751 415 
Q 353 922 353 1747 
Q 353 2572 751 3078 
Q 1150 3584 1784 3584 
Q 2172 3584 2448 3432 
Q 2725 3281 2906 2969 
z
M 947 1747 
Q 947 1113 1208 752 
Q 1469 391 1925 391 
Q 2381 391 2643 752 
Q 2906 1113 2906 1747 
Q 2906 2381 2643 2742 
Q 2381 3103 1925 3103 
Q 1469 3103 1208 2742 
Q 947 2381 947 1747 
z
" transform="scale(0.015625)"/>
     <path id="DejaVuSans-59" d="M 191 3500 
L 800 3500 
L 1894 563 
L 2988 3500 
L 3597 3500 
L 2284 0 
L 1503 0 
L 191 3500 
z
" transform="scale(0.015625)"/>
     <path id="DejaVuSans-58" d="M 544 1381 
L 544 3500 
L 1119 3500 
L 1119 1403 
Q 1119 906 1312 657 
Q 1506 409 1894 409 
Q 2359 409 2629 706 
Q 2900 1003 2900 1516 
L 2900 3500 
L 3475 3500 
L 3475 0 
L 2900 0 
L 2900 538 
Q 2691 219 2414 64 
Q 2138 -91 1772 -91 
Q 1169 -91 856 284 
Q 544 659 544 1381 
z
M 1991 3584 
L 1991 3584 
z
" transform="scale(0.015625)"/>
     <path id="DejaVuSans-44" d="M 2194 1759 
Q 1497 1759 1228 1600 
Q 959 1441 959 1056 
Q 959 750 1161 570 
Q 1363 391 1709 391 
Q 2188 391 2477 730 
Q 2766 1069 2766 1631 
L 2766 1759 
L 2194 1759 
z
M 3341 1997 
L 3341 0 
L 2766 0 
L 2766 531 
Q 2569 213 2275 61 
Q 1981 -91 1556 -91 
Q 1019 -91 701 211 
Q 384 513 384 1019 
Q 384 1609 779 1909 
Q 1175 2209 1959 2209 
L 2766 2209 
L 2766 2266 
Q 2766 2663 2505 2880 
Q 2244 3097 1772 3097 
Q 1472 3097 1187 3025 
Q 903 2953 641 2809 
L 641 3341 
Q 956 3463 1253 3523 
Q 1550 3584 1831 3584 
Q 2591 3584 2966 3190 
Q 3341 2797 3341 1997 
z
" transform="scale(0.015625)"/>
     <path id="DejaVuSans-4f" d="M 603 4863 
L 1178 4863 
L 1178 0 
L 603 0 
L 603 4863 
z
" transform="scale(0.015625)"/>
     <path id="DejaVuSans-53" d="M 1159 525 
L 1159 -1331 
L 581 -1331 
L 581 3500 
L 1159 3500 
L 1159 2969 
Q 1341 3281 1617 3432 
Q 1894 3584 2278 3584 
Q 2916 3584 3314 3078 
Q 3713 2572 3713 1747 
Q 3713 922 3314 415 
Q 2916 -91 2278 -91 
Q 1894 -91 1617 61 
Q 1341 213 1159 525 
z
M 3116 1747 
Q 3116 2381 2855 2742 
Q 2594 3103 2138 3103 
Q 1681 3103 1420 2742 
Q 1159 2381 1159 1747 
Q 1159 1113 1420 752 
Q 1681 391 2138 391 
Q 2594 391 2855 752 
Q 3116 1113 3116 1747 
z
" transform="scale(0.015625)"/>
     <path id="DejaVuSans-4b" d="M 3513 2113 
L 3513 0 
L 2938 0 
L 2938 2094 
Q 2938 2591 2744 2837 
Q 2550 3084 2163 3084 
Q 1697 3084 1428 2787 
Q 1159 2491 1159 1978 
L 1159 0 
L 581 0 
L 581 4863 
L 1159 4863 
L 1159 2956 
Q 1366 3272 1645 3428 
Q 1925 3584 2291 3584 
Q 2894 3584 3203 3211 
Q 3513 2838 3513 2113 
z
" transform="scale(0.015625)"/>
     <path id="DejaVuSans-5c" d="M 2059 -325 
Q 1816 -950 1584 -1140 
Q 1353 -1331 966 -1331 
L 506 -1331 
L 506 -850 
L 844 -850 
Q 1081 -850 1212 -737 
Q 1344 -625 1503 -206 
L 1606 56 
L 191 3500 
L 800 3500 
L 1894 763 
L 2988 3500 
L 3597 3500 
L 2059 -325 
z
" transform="scale(0.015625)"/>
     <path id="DejaVuSans-46" d="M 3122 3366 
L 3122 2828 
Q 2878 2963 2633 3030 
Q 2388 3097 2138 3097 
Q 1578 3097 1268 2742 
Q 959 2388 959 1747 
Q 959 1106 1268 751 
Q 1578 397 2138 397 
Q 2388 397 2633 464 
Q 2878 531 3122 666 
L 3122 134 
Q 2881 22 2623 -34 
Q 2366 -91 2075 -91 
Q 1284 -91 818 406 
Q 353 903 353 1747 
Q 353 2603 823 3093 
Q 1294 3584 2113 3584 
Q 2378 3584 2631 3529 
Q 2884 3475 3122 3366 
z
" transform="scale(0.015625)"/>
     <path id="DejaVuSans-10" d="M 313 2009 
L 1997 2009 
L 1997 1497 
L 313 1497 
L 313 2009 
z
" transform="scale(0.015625)"/>
     <path id="DejaVuSans-57" d="M 1172 4494 
L 1172 3500 
L 2356 3500 
L 2356 3053 
L 1172 3053 
L 1172 1153 
Q 1172 725 1289 603 
Q 1406 481 1766 481 
L 2356 481 
L 2356 0 
L 1766 0 
Q 1100 0 847 248 
Q 594 497 594 1153 
L 594 3053 
L 172 3053 
L 172 3500 
L 594 3500 
L 594 4494 
L 1172 4494 
z
" transform="scale(0.015625)"/>
    </defs>
    <use xlink:href="#DejaVuSans-2c"/>
    <use xlink:href="#DejaVuSans-51" transform="translate(29.5 0)"/>
    <use xlink:href="#DejaVuSans-47" transform="translate(92.875 0)"/>
    <use xlink:href="#DejaVuSans-4c" transform="translate(156.359375 0)"/>
    <use xlink:href="#DejaVuSans-59" transform="translate(184.140625 0)"/>
    <use xlink:href="#DejaVuSans-4c" transform="translate(243.328125 0)"/>
    <use xlink:href="#DejaVuSans-47" transform="translate(271.109375 0)"/>
    <use xlink:href="#DejaVuSans-58" transform="translate(334.59375 0)"/>
    <use xlink:href="#DejaVuSans-44" transform="translate(397.96875 0)"/>
    <use xlink:href="#DejaVuSans-4f" transform="translate(459.25 0)"/>
    <use xlink:href="#DejaVuSans-3" transform="translate(487.03125 0)"/>
    <use xlink:href="#DejaVuSans-53" transform="translate(518.8125 0)"/>
    <use xlink:href="#DejaVuSans-4b" transform="translate(582.296875 0)"/>
    <use xlink:href="#DejaVuSans-5c" transform="translate(645.671875 0)"/>
    <use xlink:href="#DejaVuSans-56" transform="translate(704.859375 0)"/>
    <use xlink:href="#DejaVuSans-4c" transform="translate(756.953125 0)"/>
    <use xlink:href="#DejaVuSans-46" transform="translate(784.734375 0)"/>
    <use xlink:href="#DejaVuSans-44" transform="translate(839.71875 0)"/>
    <use xlink:href="#DejaVuSans-4f" transform="translate(901 0)"/>
    <use xlink:href="#DejaVuSans-10" transform="translate(928.78125 0)"/>
    <use xlink:href="#DejaVuSans-58" transform="translate(964.859375 0)"/>
    <use xlink:href="#DejaVuSans-51" transform="translate(1028.234375 0)"/>
    <use xlink:href="#DejaVuSans-4c" transform="translate(1091.609375 0)"/>
    <use xlink:href="#DejaVuSans-57" transform="translate(1119.390625 0)"/>
    <use xlink:href="#DejaVuSans-3" transform="translate(1158.59375 0)"/>
    <use xlink:href="#DejaVuSans-2c" transform="translate(1190.375 0)"/>
    <use xlink:href="#DejaVuSans-30" transform="translate(1219.875 0)"/>
    <use xlink:href="#DejaVuSans-29" transform="translate(1306.15625 0)"/>
    <use xlink:href="#DejaVuSans-56" transform="translate(1363.671875 0)"/>
   </g>
  </g>
 </g>
 <defs>
  <clipPath id="p83143a70a5">
   <rect x="52.482813" y="34.562812" width="724.92" height="71.558678"/>
  </clipPath>
  <clipPath id="pc1b6c2918d">
   <rect x="52.482813" y="122.800895" width="724.92" height="71.558678"/>
  </clipPath>
  <clipPath id="pde4e06929a">
   <rect x="52.482813" y="211.038978" width="724.92" height="71.558678"/>
  </clipPath>
 </defs>
</svg>
