<?xml version="1.0" encoding="utf-8" standalone="no"?>
<!DOCTYPE svg PUBLIC "-//W3C//DTD SVG 1.1//EN"
  "http://www.w3.org/Graphics/SVG/1.1/DTD/svg11.dtd">
<svg xmlns:xlink="http://www.w3.org/1999/xlink" width="608.142969pt" height="260.102906pt" viewBox="0 0 608.142969 260.102906" xmlns="http://www.w3.org/2000/svg" version="1.1">
 <metadata>
  <rdf:RDF xmlns:dc="http://purl.org/dc/elements/1.1/" xmlns:cc="http://creativecommons.org/ns#" xmlns:rdf="http://www.w3.org/1999/02/22-rdf-syntax-ns#">
   <cc:Work>
    <dc:type rdf:resource="http://purl.org/dc/dcmitype/StillImage"/>
    <dc:date>2026-07-14T07:01:48.207111</dc:date>
    <dc:format>image/svg+xml</dc:format>
    <dc:creator>
     <cc:Agent>
      <dc:title>Matplotlib v3.11.0, https://matplotlib.org/</dc:title>
     </cc:Agent>
    </dc:creator>
   </cc:Work>
  </rdf:RDF>
 </metadata>
 <defs>
  <style type="text/css">*{stroke-linejoin: round; stroke-linecap: butt}</style>
 </defs>
 <g id="figure_1">
  <g id="patch_1">
   <path d="M 0 260.102906 
L 608.142969 260.102906 
L 608.142969 0 
L 0 0 
z
" style="fill: #ffffff"/>
  </g>
  <g id="axes_1">
   <g id="patch_2">
    <path d="M 42.942969 221.902125 
L 600.942969 221.902125 
L 600.942969 22.318125 
L 42.942969 22.318125 
z
" style="fill: #ffffff"/>
   </g>
   <g id="matplotlib.axis_1">
    <g id="xtick_1">
     <g id="line2d_1">
      <path d="M 75.255547 221.902125 
L 75.255547 22.318125 
" clip-path="url(#p263d8df15c)" style="fill: none; stroke: #b0b0b0; stroke-opacity: 0.25; stroke-width: 0.8; stroke-linecap: square"/>
     </g>
     <g id="line2d_2">
      <defs>
       <path id="m2a6c64a2a2" d="M 0 0 
L 0 3.5 
" style="stroke: #000000; stroke-width: 0.8"/>
      </defs>
      <g>
       <use xlink:href="#m2a6c64a2a2" x="75.255547" y="221.902125" style="stroke: #000000; stroke-width: 0.8"/>
      </g>
     </g>
     <g id="text_1">
      <!-- 0.1 -->
      <g transform="translate(67.303984 236.499781) scale(0.1 -0.1)">
       <defs>
        <path id="DejaVuSans-13" d="M 2034 4250 
Q 1547 4250 1301 3770 
Q 1056 3291 1056 2328 
Q 1056 1369 1301 889 
Q 1547 409 2034 409 
Q 2525 409 2770 889 
Q 3016 1369 3016 2328 
Q 3016 3291 2770 3770 
Q 2525 4250 2034 4250 
z
M 2034 4750 
Q 2819 4750 3233 4129 
Q 3647 3509 3647 2328 
Q 3647 1150 3233 529 
Q 2819 -91 2034 -91 
Q 1250 -91 836 529 
Q 422 1150 422 2328 
Q 422 3509 836 4129 
Q 1250 4750 2034 4750 
z
" transform="scale(0.015625)"/>
        <path id="DejaVuSans-11" d="M 684 794 
L 1344 794 
L 1344 0 
L 684 0 
L 684 794 
z
" transform="scale(0.015625)"/>
        <path id="DejaVuSans-14" d="M 794 531 
L 1825 531 
L 1825 4091 
L 703 3866 
L 703 4441 
L 1819 4666 
L 2450 4666 
L 2450 531 
L 3481 531 
L 3481 0 
L 794 0 
L 794 531 
z
" transform="scale(0.015625)"/>
       </defs>
       <use xlink:href="#DejaVuSans-13"/>
       <use xlink:href="#DejaVuSans-11" transform="translate(63.625 0)"/>
       <use xlink:href="#DejaVuSans-14" transform="translate(95.40625 0)"/>
      </g>
     </g>
    </g>
    <g id="xtick_2">
     <g id="line2d_3">
      <path d="M 174.526139 221.902125 
L 174.526139 22.318125 
" clip-path="url(#p263d8df15c)" style="fill: none; stroke: #b0b0b0; stroke-opacity: 0.25; stroke-width: 0.8; stroke-linecap: square"/>
     </g>
     <g id="line2d_4">
      <g>
       <use xlink:href="#m2a6c64a2a2" x="174.526139" y="221.902125" style="stroke: #000000; stroke-width: 0.8"/>
      </g>
     </g>
     <g id="text_2">
      <!-- 0.2 -->
      <g transform="translate(166.574577 236.499781) scale(0.1 -0.1)">
       <defs>
        <path id="DejaVuSans-15" d="M 1228 531 
L 3431 531 
L 3431 0 
L 469 0 
L 469 531 
Q 828 903 1448 1529 
Q 2069 2156 2228 2338 
Q 2531 2678 2651 2914 
Q 2772 3150 2772 3378 
Q 2772 3750 2511 3984 
Q 2250 4219 1831 4219 
Q 1534 4219 1204 4116 
Q 875 4013 500 3803 
L 500 4441 
Q 881 4594 1212 4672 
Q 1544 4750 1819 4750 
Q 2544 4750 2975 4387 
Q 3406 4025 3406 3419 
Q 3406 3131 3298 2873 
Q 3191 2616 2906 2266 
Q 2828 2175 2409 1742 
Q 1991 1309 1228 531 
z
" transform="scale(0.015625)"/>
       </defs>
       <use xlink:href="#DejaVuSans-13"/>
       <use xlink:href="#DejaVuSans-11" transform="translate(63.625 0)"/>
       <use xlink:href="#DejaVuSans-15" transform="translate(95.40625 0)"/>
      </g>
     </g>
    </g>
    <g id="xtick_3">
     <g id="line2d_5">
      <path d="M 273.796731 221.902125 
L 273.796731 22.318125 
" clip-path="url(#p263d8df15c)" style="fill: none; stroke: #b0b0b0; stroke-opacity: 0.25; stroke-width: 0.8; stroke-linecap: square"/>
     </g>
     <g id="line2d_6">
      <g>
       <use xlink:href="#m2a6c64a2a2" x="273.796731" y="221.902125" style="stroke: #000000; stroke-width: 0.8"/>
      </g>
     </g>
     <g id="text_3">
      <!-- 0.3 -->
      <g transform="translate(265.845169 236.499781) scale(0.1 -0.1)">
       <defs>
        <path id="DejaVuSans-16" d="M 2597 2516 
Q 3050 2419 3304 2112 
Q 3559 1806 3559 1356 
Q 3559 666 3084 287 
Q 2609 -91 1734 -91 
Q 1441 -91 1130 -33 
Q 819 25 488 141 
L 488 750 
Q 750 597 1062 519 
Q 1375 441 1716 441 
Q 2309 441 2620 675 
Q 2931 909 2931 1356 
Q 2931 1769 2642 2001 
Q 2353 2234 1838 2234 
L 1294 2234 
L 1294 2753 
L 1863 2753 
Q 2328 2753 2575 2939 
Q 2822 3125 2822 3475 
Q 2822 3834 2567 4026 
Q 2313 4219 1838 4219 
Q 1578 4219 1281 4162 
Q 984 4106 628 3988 
L 628 4550 
Q 988 4650 1302 4700 
Q 1616 4750 1894 4750 
Q 2613 4750 3031 4423 
Q 3450 4097 3450 3541 
Q 3450 3153 3228 2886 
Q 3006 2619 2597 2516 
z
" transform="scale(0.015625)"/>
       </defs>
       <use xlink:href="#DejaVuSans-13"/>
       <use xlink:href="#DejaVuSans-11" transform="translate(63.625 0)"/>
       <use xlink:href="#DejaVuSans-16" transform="translate(95.40625 0)"/>
      </g>
     </g>
    </g>
    <g id="xtick_4">
     <g id="line2d_7">
      <path d="M 373.067324 221.902125 
L 373.067324 22.318125 
" clip-path="url(#p263d8df15c)" style="fill: none; stroke: #b0b0b0; stroke-opacity: 0.25; stroke-width: 0.8; stroke-linecap: square"/>
     </g>
     <g id="line2d_8">
      <g>
       <use xlink:href="#m2a6c64a2a2" x="373.067324" y="221.902125" style="stroke: #000000; stroke-width: 0.8"/>
      </g>
     </g>
     <g id="text_4">
      <!-- 0.4 -->
      <g transform="translate(365.115761 236.499781) scale(0.1 -0.1)">
       <defs>
        <path id="DejaVuSans-17" d="M 2419 4116 
L 825 1625 
L 2419 1625 
L 2419 4116 
z
M 2253 4666 
L 3047 4666 
L 3047 1625 
L 3713 1625 
L 3713 1100 
L 3047 1100 
L 3047 0 
L 2419 0 
L 2419 1100 
L 313 1100 
L 313 1709 
L 2253 4666 
z
" transform="scale(0.015625)"/>
       </defs>
       <use xlink:href="#DejaVuSans-13"/>
       <use xlink:href="#DejaVuSans-11" transform="translate(63.625 0)"/>
       <use xlink:href="#DejaVuSans-17" transform="translate(95.40625 0)"/>
      </g>
     </g>
    </g>
    <g id="xtick_5">
     <g id="line2d_9">
      <path d="M 472.337916 221.902125 
L 472.337916 22.318125 
" clip-path="url(#p263d8df15c)" style="fill: none; stroke: #b0b0b0; stroke-opacity: 0.25; stroke-width: 0.8; stroke-linecap: square"/>
     </g>
     <g id="line2d_10">
      <g>
       <use xlink:href="#m2a6c64a2a2" x="472.337916" y="221.902125" style="stroke: #000000; stroke-width: 0.8"/>
      </g>
     </g>
     <g id="text_5">
      <!-- 0.5 -->
      <g transform="translate(464.386354 236.499781) scale(0.1 -0.1)">
       <defs>
        <path id="DejaVuSans-18" d="M 691 4666 
L 3169 4666 
L 3169 4134 
L 1269 4134 
L 1269 2991 
Q 1406 3038 1543 3061 
Q 1681 3084 1819 3084 
Q 2600 3084 3056 2656 
Q 3513 2228 3513 1497 
Q 3513 744 3044 326 
Q 2575 -91 1722 -91 
Q 1428 -91 1123 -41 
Q 819 9 494 109 
L 494 744 
Q 775 591 1075 516 
Q 1375 441 1709 441 
Q 2250 441 2565 725 
Q 2881 1009 2881 1497 
Q 2881 1984 2565 2268 
Q 2250 2553 1709 2553 
Q 1456 2553 1204 2497 
Q 953 2441 691 2322 
L 691 4666 
z
" transform="scale(0.015625)"/>
       </defs>
       <use xlink:href="#DejaVuSans-13"/>
       <use xlink:href="#DejaVuSans-11" transform="translate(63.625 0)"/>
       <use xlink:href="#DejaVuSans-18" transform="translate(95.40625 0)"/>
      </g>
     </g>
    </g>
    <g id="xtick_6">
     <g id="line2d_11">
      <path d="M 571.608509 221.902125 
L 571.608509 22.318125 
" clip-path="url(#p263d8df15c)" style="fill: none; stroke: #b0b0b0; stroke-opacity: 0.25; stroke-width: 0.8; stroke-linecap: square"/>
     </g>
     <g id="line2d_12">
      <g>
       <use xlink:href="#m2a6c64a2a2" x="571.608509" y="221.902125" style="stroke: #000000; stroke-width: 0.8"/>
      </g>
     </g>
     <g id="text_6">
      <!-- 0.6 -->
      <g transform="translate(563.656946 236.499781) scale(0.1 -0.1)">
       <defs>
        <path id="DejaVuSans-19" d="M 2113 2584 
Q 1688 2584 1439 2293 
Q 1191 2003 1191 1497 
Q 1191 994 1439 701 
Q 1688 409 2113 409 
Q 2538 409 2786 701 
Q 3034 994 3034 1497 
Q 3034 2003 2786 2293 
Q 2538 2584 2113 2584 
z
M 3366 4563 
L 3366 3988 
Q 3128 4100 2886 4159 
Q 2644 4219 2406 4219 
Q 1781 4219 1451 3797 
Q 1122 3375 1075 2522 
Q 1259 2794 1537 2939 
Q 1816 3084 2150 3084 
Q 2853 3084 3261 2657 
Q 3669 2231 3669 1497 
Q 3669 778 3244 343 
Q 2819 -91 2113 -91 
Q 1303 -91 875 529 
Q 447 1150 447 2328 
Q 447 3434 972 4092 
Q 1497 4750 2381 4750 
Q 2619 4750 2861 4703 
Q 3103 4656 3366 4563 
z
" transform="scale(0.015625)"/>
       </defs>
       <use xlink:href="#DejaVuSans-13"/>
       <use xlink:href="#DejaVuSans-11" transform="translate(63.625 0)"/>
       <use xlink:href="#DejaVuSans-19" transform="translate(95.40625 0)"/>
      </g>
     </g>
    </g>
    <g id="text_7">
     <!-- Time (s) -->
     <g transform="translate(301.611719 250.500563) scale(0.1 -0.1)">
      <defs>
       <path id="DejaVuSans-37" d="M -19 4666 
L 3928 4666 
L 3928 4134 
L 2272 4134 
L 2272 0 
L 1638 0 
L 1638 4134 
L -19 4134 
L -19 4666 
z
" transform="scale(0.015625)"/>
       <path id="DejaVuSans-4c" d="M 603 3500 
L 1178 3500 
L 1178 0 
L 603 0 
L 603 3500 
z
M 603 4863 
L 1178 4863 
L 1178 4134 
L 603 4134 
L 603 4863 
z
" transform="scale(0.015625)"/>
       <path id="DejaVuSans-50" d="M 3328 2828 
Q 3544 3216 3844 3400 
Q 4144 3584 4550 3584 
Q 5097 3584 5394 3201 
Q 5691 2819 5691 2113 
L 5691 0 
L 5113 0 
L 5113 2094 
Q 5113 2597 4934 2840 
Q 4756 3084 4391 3084 
Q 3944 3084 3684 2787 
Q 3425 2491 3425 1978 
L 3425 0 
L 2847 0 
L 2847 2094 
Q 2847 2600 2669 2842 
Q 2491 3084 2119 3084 
Q 1678 3084 1418 2786 
Q 1159 2488 1159 1978 
L 1159 0 
L 581 0 
L 581 3500 
L 1159 3500 
L 1159 2956 
Q 1356 3278 1631 3431 
Q 1906 3584 2284 3584 
Q 2666 3584 2933 3390 
Q 3200 3197 3328 2828 
z
" transform="scale(0.015625)"/>
       <path id="DejaVuSans-48" d="M 3597 1894 
L 3597 1613 
L 953 1613 
Q 991 1019 1311 708 
Q 1631 397 2203 397 
Q 2534 397 2845 478 
Q 3156 559 3463 722 
L 3463 178 
Q 3153 47 2828 -22 
Q 2503 -91 2169 -91 
Q 1331 -91 842 396 
Q 353 884 353 1716 
Q 353 2575 817 3079 
Q 1281 3584 2069 3584 
Q 2775 3584 3186 3129 
Q 3597 2675 3597 1894 
z
M 3022 2063 
Q 3016 2534 2758 2815 
Q 2500 3097 2075 3097 
Q 1594 3097 1305 2825 
Q 1016 2553 972 2059 
L 3022 2063 
z
" transform="scale(0.015625)"/>
       <path id="DejaVuSans-3" transform="scale(0.015625)"/>
       <path id="DejaVuSans-b" d="M 1984 4856 
Q 1566 4138 1362 3434 
Q 1159 2731 1159 2009 
Q 1159 1288 1364 580 
Q 1569 -128 1984 -844 
L 1484 -844 
Q 1016 -109 783 600 
Q 550 1309 550 2009 
Q 550 2706 781 3412 
Q 1013 4119 1484 4856 
L 1984 4856 
z
" transform="scale(0.015625)"/>
       <path id="DejaVuSans-56" d="M 2834 3397 
L 2834 2853 
Q 2591 2978 2328 3040 
Q 2066 3103 1784 3103 
Q 1356 3103 1142 2972 
Q 928 2841 928 2578 
Q 928 2378 1081 2264 
Q 1234 2150 1697 2047 
L 1894 2003 
Q 2506 1872 2764 1633 
Q 3022 1394 3022 966 
Q 3022 478 2636 193 
Q 2250 -91 1575 -91 
Q 1294 -91 989 -36 
Q 684 19 347 128 
L 347 722 
Q 666 556 975 473 
Q 1284 391 1588 391 
Q 1994 391 2212 530 
Q 2431 669 2431 922 
Q 2431 1156 2273 1281 
Q 2116 1406 1581 1522 
L 1381 1569 
Q 847 1681 609 1914 
Q 372 2147 372 2553 
Q 372 3047 722 3315 
Q 1072 3584 1716 3584 
Q 2034 3584 2315 3537 
Q 2597 3491 2834 3397 
z
" transform="scale(0.015625)"/>
       <path id="DejaVuSans-c" d="M 513 4856 
L 1013 4856 
Q 1481 4119 1714 3412 
Q 1947 2706 1947 2009 
Q 1947 1309 1714 600 
Q 1481 -109 1013 -844 
L 513 -844 
Q 928 -128 1133 580 
Q 1338 1288 1338 2009 
Q 1338 2731 1133 3434 
Q 928 4138 513 4856 
z
" transform="scale(0.015625)"/>
      </defs>
      <use xlink:href="#DejaVuSans-37"/>
      <use xlink:href="#DejaVuSans-4c" transform="translate(58 0)"/>
      <use xlink:href="#DejaVuSans-50" transform="translate(85.78125 0)"/>
      <use xlink:href="#DejaVuSans-48" transform="translate(183.1875 0)"/>
      <use xlink:href="#DejaVuSans-3" transform="translate(244.71875 0)"/>
      <use xlink:href="#DejaVuSans-b" transform="translate(276.5 0)"/>
      <use xlink:href="#DejaVuSans-56" transform="translate(315.515625 0)"/>
      <use xlink:href="#DejaVuSans-c" transform="translate(367.609375 0)"/>
     </g>
    </g>
   </g>
   <g id="matplotlib.axis_2">
    <g id="ytick_1">
     <g id="line2d_13">
      <path d="M 42.942969 203.823437 
L 600.942969 203.823437 
" clip-path="url(#p263d8df15c)" style="fill: none; stroke: #b0b0b0; stroke-opacity: 0.25; stroke-width: 0.8; stroke-linecap: square"/>
     </g>
     <g id="line2d_14">
      <defs>
       <path id="m679e4ac0f9" d="M 0 0 
L -3.5 0 
" style="stroke: #000000; stroke-width: 0.8"/>
      </defs>
      <g>
       <use xlink:href="#m679e4ac0f9" x="42.942969" y="203.823437" style="stroke: #000000; stroke-width: 0.8"/>
      </g>
     </g>
     <g id="text_8">
      <!-- −2 -->
      <g transform="translate(21.200781 207.622265) scale(0.1 -0.1)">
       <defs>
        <path id="DejaVuSans-c9c" d="M 678 2272 
L 4684 2272 
L 4684 1741 
L 678 1741 
L 678 2272 
z
" transform="scale(0.015625)"/>
       </defs>
       <use xlink:href="#DejaVuSans-c9c"/>
       <use xlink:href="#DejaVuSans-15" transform="translate(83.796875 0)"/>
      </g>
     </g>
    </g>
    <g id="ytick_2">
     <g id="line2d_15">
      <path d="M 42.942969 162.966781 
L 600.942969 162.966781 
" clip-path="url(#p263d8df15c)" style="fill: none; stroke: #b0b0b0; stroke-opacity: 0.25; stroke-width: 0.8; stroke-linecap: square"/>
     </g>
     <g id="line2d_16">
      <g>
       <use xlink:href="#m679e4ac0f9" x="42.942969" y="162.966781" style="stroke: #000000; stroke-width: 0.8"/>
      </g>
     </g>
     <g id="text_9">
      <!-- −1 -->
      <g transform="translate(21.200781 166.765609) scale(0.1 -0.1)">
       <use xlink:href="#DejaVuSans-c9c"/>
       <use xlink:href="#DejaVuSans-14" transform="translate(83.796875 0)"/>
      </g>
     </g>
    </g>
    <g id="ytick_3">
     <g id="line2d_17">
      <path d="M 42.942969 122.110125 
L 600.942969 122.110125 
" clip-path="url(#p263d8df15c)" style="fill: none; stroke: #b0b0b0; stroke-opacity: 0.25; stroke-width: 0.8; stroke-linecap: square"/>
     </g>
     <g id="line2d_18">
      <g>
       <use xlink:href="#m679e4ac0f9" x="42.942969" y="122.110125" style="stroke: #000000; stroke-width: 0.8"/>
      </g>
     </g>
     <g id="text_10">
      <!-- 0 -->
      <g transform="translate(29.580469 125.908953) scale(0.1 -0.1)">
       <use xlink:href="#DejaVuSans-13"/>
      </g>
     </g>
    </g>
    <g id="ytick_4">
     <g id="line2d_19">
      <path d="M 42.942969 81.253469 
L 600.942969 81.253469 
" clip-path="url(#p263d8df15c)" style="fill: none; stroke: #b0b0b0; stroke-opacity: 0.25; stroke-width: 0.8; stroke-linecap: square"/>
     </g>
     <g id="line2d_20">
      <g>
       <use xlink:href="#m679e4ac0f9" x="42.942969" y="81.253469" style="stroke: #000000; stroke-width: 0.8"/>
      </g>
     </g>
     <g id="text_11">
      <!-- 1 -->
      <g transform="translate(29.580469 85.052297) scale(0.1 -0.1)">
       <use xlink:href="#DejaVuSans-14"/>
      </g>
     </g>
    </g>
    <g id="ytick_5">
     <g id="line2d_21">
      <path d="M 42.942969 40.396813 
L 600.942969 40.396813 
" clip-path="url(#p263d8df15c)" style="fill: none; stroke: #b0b0b0; stroke-opacity: 0.25; stroke-width: 0.8; stroke-linecap: square"/>
     </g>
     <g id="line2d_22">
      <g>
       <use xlink:href="#m679e4ac0f9" x="42.942969" y="40.396813" style="stroke: #000000; stroke-width: 0.8"/>
      </g>
     </g>
     <g id="text_12">
      <!-- 2 -->
      <g transform="translate(29.580469 44.195641) scale(0.1 -0.1)">
       <use xlink:href="#DejaVuSans-15"/>
      </g>
     </g>
    </g>
    <g id="text_13">
     <!-- Scaled amplitude -->
     <g transform="translate(14.798438 165.592937) rotate(-90) scale(0.1 -0.1)">
      <defs>
       <path id="DejaVuSans-36" d="M 3425 4513 
L 3425 3897 
Q 3066 4069 2747 4153 
Q 2428 4238 2131 4238 
Q 1616 4238 1336 4038 
Q 1056 3838 1056 3469 
Q 1056 3159 1242 3001 
Q 1428 2844 1947 2747 
L 2328 2669 
Q 3034 2534 3370 2195 
Q 3706 1856 3706 1288 
Q 3706 609 3251 259 
Q 2797 -91 1919 -91 
Q 1588 -91 1214 -16 
Q 841 59 441 206 
L 441 856 
Q 825 641 1194 531 
Q 1563 422 1919 422 
Q 2459 422 2753 634 
Q 3047 847 3047 1241 
Q 3047 1584 2836 1778 
Q 2625 1972 2144 2069 
L 1759 2144 
Q 1053 2284 737 2584 
Q 422 2884 422 3419 
Q 422 4038 858 4394 
Q 1294 4750 2059 4750 
Q 2388 4750 2728 4690 
Q 3069 4631 3425 4513 
z
" transform="scale(0.015625)"/>
       <path id="DejaVuSans-46" d="M 3122 3366 
L 3122 2828 
Q 2878 2963 2633 3030 
Q 2388 3097 2138 3097 
Q 1578 3097 1268 2742 
Q 959 2388 959 1747 
Q 959 1106 1268 751 
Q 1578 397 2138 397 
Q 2388 397 2633 464 
Q 2878 531 3122 666 
L 3122 134 
Q 2881 22 2623 -34 
Q 2366 -91 2075 -91 
Q 1284 -91 818 406 
Q 353 903 353 1747 
Q 353 2603 823 3093 
Q 1294 3584 2113 3584 
Q 2378 3584 2631 3529 
Q 2884 3475 3122 3366 
z
" transform="scale(0.015625)"/>
       <path id="DejaVuSans-44" d="M 2194 1759 
Q 1497 1759 1228 1600 
Q 959 1441 959 1056 
Q 959 750 1161 570 
Q 1363 391 1709 391 
Q 2188 391 2477 730 
Q 2766 1069 2766 1631 
L 2766 1759 
L 2194 1759 
z
M 3341 1997 
L 3341 0 
L 2766 0 
L 2766 531 
Q 2569 213 2275 61 
Q 1981 -91 1556 -91 
Q 1019 -91 701 211 
Q 384 513 384 1019 
Q 384 1609 779 1909 
Q 1175 2209 1959 2209 
L 2766 2209 
L 2766 2266 
Q 2766 2663 2505 2880 
Q 2244 3097 1772 3097 
Q 1472 3097 1187 3025 
Q 903 2953 641 2809 
L 641 3341 
Q 956 3463 1253 3523 
Q 1550 3584 1831 3584 
Q 2591 3584 2966 3190 
Q 3341 2797 3341 1997 
z
" transform="scale(0.015625)"/>
       <path id="DejaVuSans-4f" d="M 603 4863 
L 1178 4863 
L 1178 0 
L 603 0 
L 603 4863 
z
" transform="scale(0.015625)"/>
       <path id="DejaVuSans-47" d="M 2906 2969 
L 2906 4863 
L 3481 4863 
L 3481 0 
L 2906 0 
L 2906 525 
Q 2725 213 2448 61 
Q 2172 -91 1784 -91 
Q 1150 -91 751 415 
Q 353 922 353 1747 
Q 353 2572 751 3078 
Q 1150 3584 1784 3584 
Q 2172 3584 2448 3432 
Q 2725 3281 2906 2969 
z
M 947 1747 
Q 947 1113 1208 752 
Q 1469 391 1925 391 
Q 2381 391 2643 752 
Q 2906 1113 2906 1747 
Q 2906 2381 2643 2742 
Q 2381 3103 1925 3103 
Q 1469 3103 1208 2742 
Q 947 2381 947 1747 
z
" transform="scale(0.015625)"/>
       <path id="DejaVuSans-53" d="M 1159 525 
L 1159 -1331 
L 581 -1331 
L 581 3500 
L 1159 3500 
L 1159 2969 
Q 1341 3281 1617 3432 
Q 1894 3584 2278 3584 
Q 2916 3584 3314 3078 
Q 3713 2572 3713 1747 
Q 3713 922 3314 415 
Q 2916 -91 2278 -91 
Q 1894 -91 1617 61 
Q 1341 213 1159 525 
z
M 3116 1747 
Q 3116 2381 2855 2742 
Q 2594 3103 2138 3103 
Q 1681 3103 1420 2742 
Q 1159 2381 1159 1747 
Q 1159 1113 1420 752 
Q 1681 391 2138 391 
Q 2594 391 2855 752 
Q 3116 1113 3116 1747 
z
" transform="scale(0.015625)"/>
       <path id="DejaVuSans-57" d="M 1172 4494 
L 1172 3500 
L 2356 3500 
L 2356 3053 
L 1172 3053 
L 1172 1153 
Q 1172 725 1289 603 
Q 1406 481 1766 481 
L 2356 481 
L 2356 0 
L 1766 0 
Q 1100 0 847 248 
Q 594 497 594 1153 
L 594 3053 
L 172 3053 
L 172 3500 
L 594 3500 
L 594 4494 
L 1172 4494 
z
" transform="scale(0.015625)"/>
       <path id="DejaVuSans-58" d="M 544 1381 
L 544 3500 
L 1119 3500 
L 1119 1403 
Q 1119 906 1312 657 
Q 1506 409 1894 409 
Q 2359 409 2629 706 
Q 2900 1003 2900 1516 
L 2900 3500 
L 3475 3500 
L 3475 0 
L 2900 0 
L 2900 538 
Q 2691 219 2414 64 
Q 2138 -91 1772 -91 
Q 1169 -91 856 284 
Q 544 659 544 1381 
z
M 1991 3584 
L 1991 3584 
z
" transform="scale(0.015625)"/>
      </defs>
      <use xlink:href="#DejaVuSans-36"/>
      <use xlink:href="#DejaVuSans-46" transform="translate(63.484375 0)"/>
      <use xlink:href="#DejaVuSans-44" transform="translate(118.46875 0)"/>
      <use xlink:href="#DejaVuSans-4f" transform="translate(179.75 0)"/>
      <use xlink:href="#DejaVuSans-48" transform="translate(207.53125 0)"/>
      <use xlink:href="#DejaVuSans-47" transform="translate(269.0625 0)"/>
      <use xlink:href="#DejaVuSans-3" transform="translate(332.546875 0)"/>
      <use xlink:href="#DejaVuSans-44" transform="translate(364.328125 0)"/>
      <use xlink:href="#DejaVuSans-50" transform="translate(425.609375 0)"/>
      <use xlink:href="#DejaVuSans-53" transform="translate(523.015625 0)"/>
      <use xlink:href="#DejaVuSans-4f" transform="translate(586.5 0)"/>
      <use xlink:href="#DejaVuSans-4c" transform="translate(614.28125 0)"/>
      <use xlink:href="#DejaVuSans-57" transform="translate(642.0625 0)"/>
      <use xlink:href="#DejaVuSans-58" transform="translate(681.265625 0)"/>
      <use xlink:href="#DejaVuSans-47" transform="translate(744.640625 0)"/>
      <use xlink:href="#DejaVuSans-48" transform="translate(808.125 0)"/>
     </g>
    </g>
    <g id="text_14">
     <!-- 1e−16 -->
     <g transform="translate(42.942969 19.318125) scale(0.1 -0.1)">
      <use xlink:href="#DejaVuSans-14"/>
      <use xlink:href="#DejaVuSans-48" transform="translate(63.625 0)"/>
      <use xlink:href="#DejaVuSans-c9c" transform="translate(125.15625 0)"/>
      <use xlink:href="#DejaVuSans-14" transform="translate(208.953125 0)"/>
      <use xlink:href="#DejaVuSans-19" transform="translate(272.578125 0)"/>
     </g>
    </g>
   </g>
   <g id="line2d_23">
    <path d="M 68.306605 76.750125 
L 70.292017 122.110125 
L 72.277429 122.110125 
L 74.262841 99.430125 
L 75.255547 116.440125 
L 76.248253 122.110125 
L 77.240958 133.450125 
L 78.233664 110.770125 
L 79.22637 76.750125 
L 80.219076 139.120125 
L 81.211782 105.100125 
L 82.204488 167.470125 
L 83.197194 144.790125 
L 84.1899 136.285125 
L 85.182606 122.110125 
L 86.175312 99.430125 
L 87.168018 133.450125 
L 88.160724 99.430125 
L 89.15343 118.212 
L 90.146135 122.110125 
L 91.138841 116.440125 
L 92.131547 122.110125 
L 93.124253 167.470125 
L 94.116959 167.470125 
L 95.109665 122.110125 
L 96.102371 122.110125 
L 97.095077 76.750125 
L 98.087783 105.100125 
L 99.080489 122.110125 
L 100.073195 116.440125 
L 101.065901 122.110125 
L 102.058607 130.615125 
L 103.051312 122.110125 
L 104.044018 122.110125 
L 105.036724 167.470125 
L 106.02943 122.110125 
L 107.022136 122.110125 
L 108.014842 133.450125 
L 109.007548 122.110125 
L 110.000254 99.430125 
L 110.99296 133.450125 
L 111.985666 122.110125 
L 112.978372 99.430125 
L 113.971078 122.110125 
L 114.963784 76.750125 
L 115.956489 119.275125 
L 116.949195 122.110125 
L 117.941901 122.110125 
L 118.934607 144.790125 
L 119.927313 122.110125 
L 120.920019 31.390125 
L 121.912725 110.770125 
L 122.905431 133.450125 
L 123.898137 122.110125 
L 124.890843 113.605125 
L 125.883549 76.750125 
L 126.876255 122.110125 
L 127.868961 122.110125 
L 128.861666 212.830125 
L 129.854372 99.430125 
L 130.847078 144.790125 
L 131.839784 167.470125 
L 132.83249 110.770125 
L 133.825196 93.760125 
L 134.817902 167.470125 
L 135.810608 99.430125 
L 136.803314 133.450125 
L 138.788726 110.770125 
L 139.781432 122.110125 
L 140.774138 127.780125 
L 141.766844 122.110125 
L 142.759549 31.390125 
L 143.752255 110.770125 
L 144.744961 122.110125 
L 145.737667 122.110125 
L 146.730373 144.790125 
L 147.723079 136.285125 
L 148.715785 76.750125 
L 149.708491 124.945125 
L 150.701197 144.790125 
L 151.693903 122.110125 
L 152.686609 122.110125 
L 153.679315 167.470125 
L 154.672021 144.790125 
L 155.664726 99.430125 
L 156.657432 122.110125 
L 157.650138 99.430125 
L 158.642844 133.450125 
L 159.63555 122.110125 
L 161.620962 122.110125 
L 162.613668 156.130125 
L 163.606374 122.110125 
L 164.59908 122.110125 
L 165.591786 110.770125 
L 166.584492 144.790125 
L 167.577198 167.470125 
L 168.569903 133.450125 
L 169.562609 122.110125 
L 170.555315 122.110125 
L 171.548021 110.770125 
L 172.540727 110.770125 
L 173.533433 99.430125 
L 174.526139 119.275125 
L 175.518845 144.790125 
L 176.511551 136.285125 
L 177.504257 133.450125 
L 178.496963 31.390125 
L 179.489669 122.110125 
L 180.482375 110.770125 
L 181.47508 122.110125 
L 182.467786 122.110125 
L 183.460492 144.790125 
L 185.445904 99.430125 
L 186.43861 99.430125 
L 187.431316 122.110125 
L 188.424022 116.440125 
L 189.416728 76.750125 
L 190.409434 116.440125 
L 191.40214 122.110125 
L 192.394846 167.470125 
L 193.387552 133.450125 
L 194.380257 127.780125 
L 195.372963 167.470125 
L 196.365669 99.430125 
L 197.358375 116.440125 
L 198.351081 122.110125 
L 200.336493 144.790125 
L 201.329199 139.120125 
L 202.321905 127.780125 
L 203.314611 76.750125 
L 204.307317 76.750125 
L 205.300023 122.110125 
L 206.292729 122.110125 
L 207.285435 133.450125 
L 208.27814 129.197625 
L 209.270846 99.430125 
L 210.263552 122.110125 
L 211.256258 110.770125 
L 212.248964 122.110125 
L 213.24167 122.110125 
L 214.234376 167.470125 
L 215.227082 130.615125 
L 216.219788 122.110125 
L 217.212494 212.830125 
L 218.2052 122.110125 
L 219.197906 167.470125 
L 220.190612 122.110125 
L 221.183317 122.110125 
L 222.176023 105.100125 
L 223.168729 167.470125 
L 224.161435 127.780125 
L 225.154141 122.110125 
L 226.146847 113.605125 
L 227.139553 133.450125 
L 228.132259 167.470125 
L 230.117671 76.750125 
L 231.110377 76.750125 
L 232.103083 99.430125 
L 233.095789 110.770125 
L 234.088494 76.750125 
L 235.0812 110.770125 
L 236.073906 122.110125 
L 237.066612 144.790125 
L 238.059318 144.790125 
L 240.04473 99.430125 
L 241.037436 99.430125 
L 242.030142 122.110125 
L 243.022848 122.110125 
L 245.00826 144.790125 
L 246.000966 122.110125 
L 246.993671 110.770125 
L 247.986377 76.750125 
L 248.979083 121.401375 
L 249.971789 76.750125 
L 250.964495 122.110125 
L 251.957201 124.945125 
L 252.949907 122.110125 
L 253.942613 110.770125 
L 254.935319 122.110125 
L 255.928025 122.110125 
L 256.920731 144.790125 
L 257.913437 110.770125 
L 259.898848 133.450125 
L 260.891554 122.110125 
L 261.88426 122.110125 
L 262.876966 127.780125 
L 263.869672 167.470125 
L 264.862378 105.100125 
L 265.855084 144.790125 
L 266.84779 31.390125 
L 267.840496 144.790125 
L 268.833202 133.450125 
L 269.825908 212.830125 
L 270.818614 144.790125 
L 271.81132 122.110125 
L 272.804026 122.110125 
L 273.796731 119.275125 
L 274.789437 144.790125 
L 275.782143 110.770125 
L 276.774849 122.110125 
L 279.752967 122.110125 
L 280.745673 76.750125 
L 281.738379 99.430125 
L 283.723791 167.470125 
L 284.716497 126.362625 
L 285.709203 122.110125 
L 286.701908 127.780125 
L 287.694614 122.110125 
L 288.68732 76.750125 
L 289.680026 144.790125 
L 290.672732 110.770125 
L 291.665438 122.110125 
L 294.643556 122.110125 
L 295.636262 110.770125 
L 297.621674 122.110125 
L 298.61438 122.110125 
L 299.607085 167.470125 
L 300.599791 126.717 
L 301.592497 110.770125 
L 302.585203 122.110125 
L 306.556027 122.110125 
L 307.548733 133.450125 
L 308.541439 122.110125 
L 309.534145 122.110125 
L 310.526851 133.450125 
L 311.519557 122.110125 
L 313.504968 122.110125 
L 314.497674 144.790125 
L 315.49038 147.625125 
L 316.483086 167.470125 
L 317.475792 144.790125 
L 318.468498 144.790125 
L 320.45391 99.430125 
L 321.446616 127.780125 
L 322.439322 122.110125 
L 323.432028 133.450125 
L 324.424734 167.470125 
L 325.417439 110.770125 
L 326.410145 122.110125 
L 327.402851 167.470125 
L 328.395557 110.770125 
L 329.388263 99.430125 
L 331.373675 144.790125 
L 332.366381 122.110125 
L 333.359087 144.790125 
L 334.351793 122.110125 
L 335.344499 167.470125 
L 336.337205 122.110125 
L 337.329911 110.770125 
L 338.322616 167.470125 
L 339.315322 136.6395 
L 340.308028 99.430125 
L 341.300734 76.750125 
L 342.29344 110.770125 
L 343.286146 110.770125 
L 344.278852 167.470125 
L 345.271558 144.790125 
L 346.264264 133.450125 
L 347.25697 99.430125 
L 348.249676 123.261844 
L 349.242382 122.110125 
L 350.235088 122.110125 
L 351.227794 99.430125 
L 352.220499 122.110125 
L 353.213205 124.945125 
L 354.205911 167.470125 
L 355.198617 167.470125 
L 356.191323 110.770125 
L 357.184029 110.770125 
L 358.176735 212.830125 
L 359.169441 110.770125 
L 360.162147 122.110125 
L 362.147559 122.110125 
L 363.140265 76.750125 
L 364.132971 133.450125 
L 365.125676 144.790125 
L 366.118382 167.470125 
L 367.111088 139.120125 
L 368.103794 133.450125 
L 370.089206 110.770125 
L 371.081912 127.780125 
L 372.074618 167.470125 
L 373.067324 124.945125 
L 374.06003 144.790125 
L 375.052736 110.770125 
L 376.045442 144.790125 
L 377.038148 76.750125 
L 378.030853 133.450125 
L 379.023559 122.110125 
L 380.016265 122.110125 
L 381.008971 99.430125 
L 382.994383 167.470125 
L 383.987089 110.770125 
L 384.979795 99.430125 
L 385.972501 122.110125 
L 386.965207 113.605125 
L 387.957913 167.470125 
L 388.950619 122.110125 
L 390.93603 167.470125 
L 391.928736 99.430125 
L 392.921442 144.790125 
L 393.914148 122.110125 
L 394.906854 144.790125 
L 395.89956 122.110125 
L 396.892266 76.750125 
L 397.884972 133.450125 
L 398.877678 76.750125 
L 399.870384 133.450125 
L 400.86309 122.110125 
L 401.855796 122.110125 
L 402.848502 144.790125 
L 403.841207 76.750125 
L 404.833913 76.750125 
L 405.826619 110.770125 
L 406.819325 124.945125 
L 407.812031 76.750125 
L 408.804737 122.110125 
L 409.797443 122.110125 
L 410.790149 110.770125 
L 412.775561 122.110125 
L 413.768267 116.440125 
L 414.760973 99.430125 
L 415.753679 122.110125 
L 416.746385 139.120125 
L 417.73909 133.450125 
L 418.731796 167.470125 
L 419.724502 99.430125 
L 420.717208 116.440125 
L 421.709914 167.470125 
L 422.70262 122.110125 
L 423.695326 99.430125 
L 424.688032 133.450125 
L 425.680738 110.770125 
L 426.673444 167.470125 
L 427.66615 122.110125 
L 429.651562 122.110125 
L 430.644267 110.770125 
L 431.636973 122.110125 
L 434.615091 122.110125 
L 435.607797 144.790125 
L 436.600503 122.110125 
L 437.593209 122.110125 
L 438.585915 131.323875 
L 439.578621 122.110125 
L 440.571327 76.750125 
L 441.564033 122.110125 
L 443.549444 122.110125 
L 444.54215 116.440125 
L 445.534856 144.790125 
L 446.527562 122.110125 
L 447.520268 122.110125 
L 448.512974 99.430125 
L 449.50568 133.450125 
L 450.498386 133.450125 
L 451.491092 122.110125 
L 452.483798 122.110125 
L 453.476504 110.770125 
L 454.46921 122.110125 
L 456.454621 122.110125 
L 457.447327 76.750125 
L 458.440033 116.440125 
L 459.432739 122.110125 
L 460.425445 122.110125 
L 461.418151 116.440125 
L 463.403563 127.780125 
L 464.396269 122.110125 
L 465.388975 76.750125 
L 466.381681 122.110125 
L 471.34521 122.110125 
L 472.337916 139.120125 
L 473.330622 122.110125 
L 474.323328 137.702625 
L 475.316034 110.770125 
L 476.30874 122.110125 
L 478.294152 122.110125 
L 479.286858 76.750125 
L 480.279564 122.110125 
L 482.264976 122.110125 
L 483.257681 144.790125 
L 484.250387 133.450125 
L 485.243093 110.770125 
L 486.235799 110.770125 
L 487.228505 167.470125 
L 488.221211 133.450125 
L 489.213917 122.110125 
L 491.199329 122.110125 
L 492.192035 133.450125 
L 493.184741 76.750125 
L 494.177447 122.110125 
L 495.170153 136.285125 
L 496.162858 110.770125 
L 497.155564 133.450125 
L 498.14827 76.750125 
L 499.140976 122.110125 
L 500.133682 122.110125 
L 501.126388 167.470125 
L 502.119094 122.110125 
L 503.1118 99.430125 
L 504.104506 31.390125 
L 505.097212 99.430125 
L 506.089918 99.430125 
L 507.082624 31.390125 
L 508.07533 122.110125 
L 509.068035 110.770125 
L 510.060741 122.110125 
L 512.046153 122.110125 
L 513.038859 110.770125 
L 514.031565 122.110125 
L 515.024271 167.470125 
L 516.016977 122.110125 
L 517.009683 122.110125 
L 518.002389 76.750125 
L 518.995095 144.790125 
L 520.980507 122.110125 
L 521.973212 127.780125 
L 522.965918 76.750125 
L 523.958624 122.110125 
L 525.944036 122.110125 
L 526.936742 76.750125 
L 527.929448 133.450125 
L 529.91486 110.770125 
L 530.907566 133.450125 
L 531.900272 76.750125 
L 532.892978 133.450125 
L 533.885684 144.790125 
L 534.878389 122.110125 
L 535.871095 116.440125 
L 536.863801 122.110125 
L 537.856507 106.517625 
L 538.849213 122.110125 
L 539.841919 167.470125 
L 540.834625 99.430125 
L 542.820037 122.110125 
L 543.812743 122.110125 
L 544.805449 110.770125 
L 545.798155 122.110125 
L 546.790861 122.110125 
L 547.783567 99.430125 
L 548.776272 110.770125 
L 549.768978 144.790125 
L 550.761684 122.110125 
L 552.747096 99.430125 
L 553.739802 122.110125 
L 554.732508 122.110125 
L 555.725214 130.615125 
L 556.71792 167.470125 
L 557.710626 116.440125 
L 558.703332 144.790125 
L 559.696038 122.110125 
L 561.681449 122.110125 
L 562.674155 127.780125 
L 563.666861 122.110125 
L 564.659567 167.470125 
L 565.652273 76.750125 
L 566.644979 122.110125 
L 567.637685 122.110125 
L 568.630391 99.430125 
L 569.623097 116.440125 
L 570.615803 167.470125 
L 571.608509 124.945125 
L 572.601215 122.110125 
L 573.593921 139.120125 
L 574.586626 110.770125 
L 575.579332 122.110125 
L 575.579332 122.110125 
" clip-path="url(#p263d8df15c)" style="fill: none; stroke: #1f77b4; stroke-width: 0.9; stroke-linecap: square"/>
   </g>
   <g id="patch_3">
    <path d="M 42.942969 221.902125 
L 42.942969 22.318125 
" style="fill: none; stroke: #000000; stroke-width: 0.8; stroke-linejoin: miter; stroke-linecap: square"/>
   </g>
   <g id="patch_4">
    <path d="M 600.942969 221.902125 
L 600.942969 22.318125 
" style="fill: none; stroke: #000000; stroke-width: 0.8; stroke-linejoin: miter; stroke-linecap: square"/>
   </g>
   <g id="patch_5">
    <path d="M 42.942969 221.902125 
L 600.942969 221.902125 
" style="fill: none; stroke: #000000; stroke-width: 0.8; stroke-linejoin: miter; stroke-linecap: square"/>
   </g>
   <g id="patch_6">
    <path d="M 42.942969 22.318125 
L 600.942969 22.318125 
" style="fill: none; stroke: #000000; stroke-width: 0.8; stroke-linejoin: miter; stroke-linecap: square"/>
   </g>
   <g id="text_15">
    <!-- CEEMDAN reconstruction error -->
    <g transform="translate(230.208594 16.318125) scale(0.12 -0.12)">
     <defs>
      <path id="DejaVuSans-26" d="M 4122 4306 
L 4122 3641 
Q 3803 3938 3442 4084 
Q 3081 4231 2675 4231 
Q 1875 4231 1450 3742 
Q 1025 3253 1025 2328 
Q 1025 1406 1450 917 
Q 1875 428 2675 428 
Q 3081 428 3442 575 
Q 3803 722 4122 1019 
L 4122 359 
Q 3791 134 3420 21 
Q 3050 -91 2638 -91 
Q 1578 -91 968 557 
Q 359 1206 359 2328 
Q 359 3453 968 4101 
Q 1578 4750 2638 4750 
Q 3056 4750 3426 4639 
Q 3797 4528 4122 4306 
z
" transform="scale(0.015625)"/>
      <path id="DejaVuSans-28" d="M 628 4666 
L 3578 4666 
L 3578 4134 
L 1259 4134 
L 1259 2753 
L 3481 2753 
L 3481 2222 
L 1259 2222 
L 1259 531 
L 3634 531 
L 3634 0 
L 628 0 
L 628 4666 
z
" transform="scale(0.015625)"/>
      <path id="DejaVuSans-30" d="M 628 4666 
L 1569 4666 
L 2759 1491 
L 3956 4666 
L 4897 4666 
L 4897 0 
L 4281 0 
L 4281 4097 
L 3078 897 
L 2444 897 
L 1241 4097 
L 1241 0 
L 628 0 
L 628 4666 
z
" transform="scale(0.015625)"/>
      <path id="DejaVuSans-27" d="M 1259 4147 
L 1259 519 
L 2022 519 
Q 2988 519 3436 956 
Q 3884 1394 3884 2338 
Q 3884 3275 3436 3711 
Q 2988 4147 2022 4147 
L 1259 4147 
z
M 628 4666 
L 1925 4666 
Q 3281 4666 3915 4102 
Q 4550 3538 4550 2338 
Q 4550 1131 3912 565 
Q 3275 0 1925 0 
L 628 0 
L 628 4666 
z
" transform="scale(0.015625)"/>
      <path id="DejaVuSans-24" d="M 2188 4044 
L 1331 1722 
L 3047 1722 
L 2188 4044 
z
M 1831 4666 
L 2547 4666 
L 4325 0 
L 3669 0 
L 3244 1197 
L 1141 1197 
L 716 0 
L 50 0 
L 1831 4666 
z
" transform="scale(0.015625)"/>
      <path id="DejaVuSans-31" d="M 628 4666 
L 1478 4666 
L 3547 763 
L 3547 4666 
L 4159 4666 
L 4159 0 
L 3309 0 
L 1241 3903 
L 1241 0 
L 628 0 
L 628 4666 
z
" transform="scale(0.015625)"/>
      <path id="DejaVuSans-55" d="M 2631 2963 
Q 2534 3019 2420 3045 
Q 2306 3072 2169 3072 
Q 1681 3072 1420 2755 
Q 1159 2438 1159 1844 
L 1159 0 
L 581 0 
L 581 3500 
L 1159 3500 
L 1159 2956 
Q 1341 3275 1631 3429 
Q 1922 3584 2338 3584 
Q 2397 3584 2469 3576 
Q 2541 3569 2628 3553 
L 2631 2963 
z
" transform="scale(0.015625)"/>
      <path id="DejaVuSans-52" d="M 1959 3097 
Q 1497 3097 1228 2736 
Q 959 2375 959 1747 
Q 959 1119 1226 758 
Q 1494 397 1959 397 
Q 2419 397 2687 759 
Q 2956 1122 2956 1747 
Q 2956 2369 2687 2733 
Q 2419 3097 1959 3097 
z
M 1959 3584 
Q 2709 3584 3137 3096 
Q 3566 2609 3566 1747 
Q 3566 888 3137 398 
Q 2709 -91 1959 -91 
Q 1206 -91 779 398 
Q 353 888 353 1747 
Q 353 2609 779 3096 
Q 1206 3584 1959 3584 
z
" transform="scale(0.015625)"/>
      <path id="DejaVuSans-51" d="M 3513 2113 
L 3513 0 
L 2938 0 
L 2938 2094 
Q 2938 2591 2744 2837 
Q 2550 3084 2163 3084 
Q 1697 3084 1428 2787 
Q 1159 2491 1159 1978 
L 1159 0 
L 581 0 
L 581 3500 
L 1159 3500 
L 1159 2956 
Q 1366 3272 1645 3428 
Q 1925 3584 2291 3584 
Q 2894 3584 3203 3211 
Q 3513 2838 3513 2113 
z
" transform="scale(0.015625)"/>
     </defs>
     <use xlink:href="#DejaVuSans-26"/>
     <use xlink:href="#DejaVuSans-28" transform="translate(69.828125 0)"/>
     <use xlink:href="#DejaVuSans-28" transform="translate(133.015625 0)"/>
     <use xlink:href="#DejaVuSans-30" transform="translate(196.203125 0)"/>
     <use xlink:href="#DejaVuSans-27" transform="translate(282.484375 0)"/>
     <use xlink:href="#DejaVuSans-24" transform="translate(357.734375 0)"/>
     <use xlink:href="#DejaVuSans-31" transform="translate(426.140625 0)"/>
     <use xlink:href="#DejaVuSans-3" transform="translate(500.953125 0)"/>
     <use xlink:href="#DejaVuSans-55" transform="translate(532.734375 0)"/>
     <use xlink:href="#DejaVuSans-48" transform="translate(571.640625 0)"/>
     <use xlink:href="#DejaVuSans-46" transform="translate(633.171875 0)"/>
     <use xlink:href="#DejaVuSans-52" transform="translate(688.15625 0)"/>
     <use xlink:href="#DejaVuSans-51" transform="translate(749.34375 0)"/>
     <use xlink:href="#DejaVuSans-56" transform="translate(812.71875 0)"/>
     <use xlink:href="#DejaVuSans-57" transform="translate(864.8125 0)"/>
     <use xlink:href="#DejaVuSans-55" transform="translate(904.015625 0)"/>
     <use xlink:href="#DejaVuSans-58" transform="translate(945.125 0)"/>
     <use xlink:href="#DejaVuSans-46" transform="translate(1008.5 0)"/>
     <use xlink:href="#DejaVuSans-57" transform="translate(1063.484375 0)"/>
     <use xlink:href="#DejaVuSans-4c" transform="translate(1102.6875 0)"/>
     <use xlink:href="#DejaVuSans-52" transform="translate(1130.46875 0)"/>
     <use xlink:href="#DejaVuSans-51" transform="translate(1191.65625 0)"/>
     <use xlink:href="#DejaVuSans-3" transform="translate(1255.03125 0)"/>
     <use xlink:href="#DejaVuSans-48" transform="translate(1286.8125 0)"/>
     <use xlink:href="#DejaVuSans-55" transform="translate(1348.34375 0)"/>
     <use xlink:href="#DejaVuSans-55" transform="translate(1387.703125 0)"/>
     <use xlink:href="#DejaVuSans-52" transform="translate(1426.609375 0)"/>
     <use xlink:href="#DejaVuSans-55" transform="translate(1487.796875 0)"/>
    </g>
   </g>
  </g>
 </g>
 <defs>
  <clipPath id="p263d8df15c">
   <rect x="42.942969" y="22.318125" width="558" height="199.584"/>
  </clipPath>
 </defs>
</svg>
