<?xml version="1.0" encoding="utf-8" standalone="no"?>
<!DOCTYPE svg PUBLIC "-//W3C//DTD SVG 1.1//EN"
  "http://www.w3.org/Graphics/SVG/1.1/DTD/svg11.dtd">
<svg xmlns:xlink="http://www.w3.org/1999/xlink" width="565.178125pt" height="281.634375pt" viewBox="0 0 565.178125 281.634375" xmlns="http://www.w3.org/2000/svg" version="1.1">
 <metadata>
  <rdf:RDF xmlns:dc="http://purl.org/dc/elements/1.1/" xmlns:cc="http://creativecommons.org/ns#" xmlns:rdf="http://www.w3.org/1999/02/22-rdf-syntax-ns#">
   <cc:Work>
    <dc:type rdf:resource="http://purl.org/dc/dcmitype/StillImage"/>
    <dc:date>2026-07-14T06:51:23.317562</dc:date>
    <dc:format>image/svg+xml</dc:format>
    <dc:creator>
     <cc:Agent>
      <dc:title>Matplotlib v3.10.8, https://matplotlib.org/</dc:title>
     </cc:Agent>
    </dc:creator>
   </cc:Work>
  </rdf:RDF>
 </metadata>
 <defs>
  <style type="text/css">*{stroke-linejoin: round; stroke-linecap: butt}</style>
 </defs>
 <g id="figure_1">
  <g id="patch_1">
   <path d="M 0 281.634375 
L 565.178125 281.634375 
L 565.178125 0 
L 0 0 
z
" style="fill: #ffffff"/>
  </g>
  <g id="axes_1">
   <g id="patch_2">
    <path d="M 55.778125 244.078125 
L 557.978125 244.078125 
L 557.978125 22.318125 
L 55.778125 22.318125 
z
" style="fill: #ffffff"/>
   </g>
   <g id="patch_3">
    <path d="M 147.087216 244.078125 
L 238.396307 244.078125 
L 238.396307 22.318125 
L 147.087216 22.318125 
z
" clip-path="url(#p10444696e9)" style="fill: #dc143c; opacity: 0.15; stroke: #dc143c; stroke-linejoin: miter"/>
   </g>
   <g id="matplotlib.axis_1">
    <g id="xtick_1">
     <g id="line2d_1">
      <path d="M 78.605398 244.078125 
L 78.605398 22.318125 
" clip-path="url(#p10444696e9)" style="fill: none; stroke: #b0b0b0; stroke-opacity: 0.25; stroke-width: 0.8; stroke-linecap: square"/>
     </g>
     <g id="line2d_2">
      <defs>
       <path id="m00bd703d2a" d="M 0 0 
L 0 3.5 
" style="stroke: #000000; stroke-width: 0.8"/>
      </defs>
      <g>
       <use xlink:href="#m00bd703d2a" x="78.605398" y="244.078125" style="stroke: #000000; stroke-width: 0.8"/>
      </g>
     </g>
     <g id="text_1">
      <!-- 0 -->
      <g transform="translate(75.424148 258.676562) scale(0.1 -0.1)">
       <defs>
        <path id="DejaVuSans-30" d="M 2034 4250 
Q 1547 4250 1301 3770 
Q 1056 3291 1056 2328 
Q 1056 1369 1301 889 
Q 1547 409 2034 409 
Q 2525 409 2770 889 
Q 3016 1369 3016 2328 
Q 3016 3291 2770 3770 
Q 2525 4250 2034 4250 
z
M 2034 4750 
Q 2819 4750 3233 4129 
Q 3647 3509 3647 2328 
Q 3647 1150 3233 529 
Q 2819 -91 2034 -91 
Q 1250 -91 836 529 
Q 422 1150 422 2328 
Q 422 3509 836 4129 
Q 1250 4750 2034 4750 
z
" transform="scale(0.015625)"/>
       </defs>
       <use xlink:href="#DejaVuSans-30"/>
      </g>
     </g>
    </g>
    <g id="xtick_2">
     <g id="line2d_3">
      <path d="M 169.914489 244.078125 
L 169.914489 22.318125 
" clip-path="url(#p10444696e9)" style="fill: none; stroke: #b0b0b0; stroke-opacity: 0.25; stroke-width: 0.8; stroke-linecap: square"/>
     </g>
     <g id="line2d_4">
      <g>
       <use xlink:href="#m00bd703d2a" x="169.914489" y="244.078125" style="stroke: #000000; stroke-width: 0.8"/>
      </g>
     </g>
     <g id="text_2">
      <!-- 1000 -->
      <g transform="translate(157.189489 258.676562) scale(0.1 -0.1)">
       <defs>
        <path id="DejaVuSans-31" d="M 794 531 
L 1825 531 
L 1825 4091 
L 703 3866 
L 703 4441 
L 1819 4666 
L 2450 4666 
L 2450 531 
L 3481 531 
L 3481 0 
L 794 0 
L 794 531 
z
" transform="scale(0.015625)"/>
       </defs>
       <use xlink:href="#DejaVuSans-31"/>
       <use xlink:href="#DejaVuSans-30" transform="translate(63.623047 0)"/>
       <use xlink:href="#DejaVuSans-30" transform="translate(127.246094 0)"/>
       <use xlink:href="#DejaVuSans-30" transform="translate(190.869141 0)"/>
      </g>
     </g>
    </g>
    <g id="xtick_3">
     <g id="line2d_5">
      <path d="M 261.22358 244.078125 
L 261.22358 22.318125 
" clip-path="url(#p10444696e9)" style="fill: none; stroke: #b0b0b0; stroke-opacity: 0.25; stroke-width: 0.8; stroke-linecap: square"/>
     </g>
     <g id="line2d_6">
      <g>
       <use xlink:href="#m00bd703d2a" x="261.22358" y="244.078125" style="stroke: #000000; stroke-width: 0.8"/>
      </g>
     </g>
     <g id="text_3">
      <!-- 2000 -->
      <g transform="translate(248.49858 258.676562) scale(0.1 -0.1)">
       <defs>
        <path id="DejaVuSans-32" d="M 1228 531 
L 3431 531 
L 3431 0 
L 469 0 
L 469 531 
Q 828 903 1448 1529 
Q 2069 2156 2228 2338 
Q 2531 2678 2651 2914 
Q 2772 3150 2772 3378 
Q 2772 3750 2511 3984 
Q 2250 4219 1831 4219 
Q 1534 4219 1204 4116 
Q 875 4013 500 3803 
L 500 4441 
Q 881 4594 1212 4672 
Q 1544 4750 1819 4750 
Q 2544 4750 2975 4387 
Q 3406 4025 3406 3419 
Q 3406 3131 3298 2873 
Q 3191 2616 2906 2266 
Q 2828 2175 2409 1742 
Q 1991 1309 1228 531 
z
" transform="scale(0.015625)"/>
       </defs>
       <use xlink:href="#DejaVuSans-32"/>
       <use xlink:href="#DejaVuSans-30" transform="translate(63.623047 0)"/>
       <use xlink:href="#DejaVuSans-30" transform="translate(127.246094 0)"/>
       <use xlink:href="#DejaVuSans-30" transform="translate(190.869141 0)"/>
      </g>
     </g>
    </g>
    <g id="xtick_4">
     <g id="line2d_7">
      <path d="M 352.53267 244.078125 
L 352.53267 22.318125 
" clip-path="url(#p10444696e9)" style="fill: none; stroke: #b0b0b0; stroke-opacity: 0.25; stroke-width: 0.8; stroke-linecap: square"/>
     </g>
     <g id="line2d_8">
      <g>
       <use xlink:href="#m00bd703d2a" x="352.53267" y="244.078125" style="stroke: #000000; stroke-width: 0.8"/>
      </g>
     </g>
     <g id="text_4">
      <!-- 3000 -->
      <g transform="translate(339.80767 258.676562) scale(0.1 -0.1)">
       <defs>
        <path id="DejaVuSans-33" d="M 2597 2516 
Q 3050 2419 3304 2112 
Q 3559 1806 3559 1356 
Q 3559 666 3084 287 
Q 2609 -91 1734 -91 
Q 1441 -91 1130 -33 
Q 819 25 488 141 
L 488 750 
Q 750 597 1062 519 
Q 1375 441 1716 441 
Q 2309 441 2620 675 
Q 2931 909 2931 1356 
Q 2931 1769 2642 2001 
Q 2353 2234 1838 2234 
L 1294 2234 
L 1294 2753 
L 1863 2753 
Q 2328 2753 2575 2939 
Q 2822 3125 2822 3475 
Q 2822 3834 2567 4026 
Q 2313 4219 1838 4219 
Q 1578 4219 1281 4162 
Q 984 4106 628 3988 
L 628 4550 
Q 988 4650 1302 4700 
Q 1616 4750 1894 4750 
Q 2613 4750 3031 4423 
Q 3450 4097 3450 3541 
Q 3450 3153 3228 2886 
Q 3006 2619 2597 2516 
z
" transform="scale(0.015625)"/>
       </defs>
       <use xlink:href="#DejaVuSans-33"/>
       <use xlink:href="#DejaVuSans-30" transform="translate(63.623047 0)"/>
       <use xlink:href="#DejaVuSans-30" transform="translate(127.246094 0)"/>
       <use xlink:href="#DejaVuSans-30" transform="translate(190.869141 0)"/>
      </g>
     </g>
    </g>
    <g id="xtick_5">
     <g id="line2d_9">
      <path d="M 443.841761 244.078125 
L 443.841761 22.318125 
" clip-path="url(#p10444696e9)" style="fill: none; stroke: #b0b0b0; stroke-opacity: 0.25; stroke-width: 0.8; stroke-linecap: square"/>
     </g>
     <g id="line2d_10">
      <g>
       <use xlink:href="#m00bd703d2a" x="443.841761" y="244.078125" style="stroke: #000000; stroke-width: 0.8"/>
      </g>
     </g>
     <g id="text_5">
      <!-- 4000 -->
      <g transform="translate(431.116761 258.676562) scale(0.1 -0.1)">
       <defs>
        <path id="DejaVuSans-34" d="M 2419 4116 
L 825 1625 
L 2419 1625 
L 2419 4116 
z
M 2253 4666 
L 3047 4666 
L 3047 1625 
L 3713 1625 
L 3713 1100 
L 3047 1100 
L 3047 0 
L 2419 0 
L 2419 1100 
L 313 1100 
L 313 1709 
L 2253 4666 
z
" transform="scale(0.015625)"/>
       </defs>
       <use xlink:href="#DejaVuSans-34"/>
       <use xlink:href="#DejaVuSans-30" transform="translate(63.623047 0)"/>
       <use xlink:href="#DejaVuSans-30" transform="translate(127.246094 0)"/>
       <use xlink:href="#DejaVuSans-30" transform="translate(190.869141 0)"/>
      </g>
     </g>
    </g>
    <g id="xtick_6">
     <g id="line2d_11">
      <path d="M 535.150852 244.078125 
L 535.150852 22.318125 
" clip-path="url(#p10444696e9)" style="fill: none; stroke: #b0b0b0; stroke-opacity: 0.25; stroke-width: 0.8; stroke-linecap: square"/>
     </g>
     <g id="line2d_12">
      <g>
       <use xlink:href="#m00bd703d2a" x="535.150852" y="244.078125" style="stroke: #000000; stroke-width: 0.8"/>
      </g>
     </g>
     <g id="text_6">
      <!-- 5000 -->
      <g transform="translate(522.425852 258.676562) scale(0.1 -0.1)">
       <defs>
        <path id="DejaVuSans-35" d="M 691 4666 
L 3169 4666 
L 3169 4134 
L 1269 4134 
L 1269 2991 
Q 1406 3038 1543 3061 
Q 1681 3084 1819 3084 
Q 2600 3084 3056 2656 
Q 3513 2228 3513 1497 
Q 3513 744 3044 326 
Q 2575 -91 1722 -91 
Q 1428 -91 1123 -41 
Q 819 9 494 109 
L 494 744 
Q 775 591 1075 516 
Q 1375 441 1709 441 
Q 2250 441 2565 725 
Q 2881 1009 2881 1497 
Q 2881 1984 2565 2268 
Q 2250 2553 1709 2553 
Q 1456 2553 1204 2497 
Q 953 2441 691 2322 
L 691 4666 
z
" transform="scale(0.015625)"/>
       </defs>
       <use xlink:href="#DejaVuSans-35"/>
       <use xlink:href="#DejaVuSans-30" transform="translate(63.623047 0)"/>
       <use xlink:href="#DejaVuSans-30" transform="translate(127.246094 0)"/>
       <use xlink:href="#DejaVuSans-30" transform="translate(190.869141 0)"/>
      </g>
     </g>
    </g>
    <g id="text_7">
     <!-- Frequency (Hz) -->
     <g transform="translate(269.173438 272.354687) scale(0.1 -0.1)">
      <defs>
       <path id="DejaVuSans-46" d="M 628 4666 
L 3309 4666 
L 3309 4134 
L 1259 4134 
L 1259 2759 
L 3109 2759 
L 3109 2228 
L 1259 2228 
L 1259 0 
L 628 0 
L 628 4666 
z
" transform="scale(0.015625)"/>
       <path id="DejaVuSans-72" d="M 2631 2963 
Q 2534 3019 2420 3045 
Q 2306 3072 2169 3072 
Q 1681 3072 1420 2755 
Q 1159 2438 1159 1844 
L 1159 0 
L 581 0 
L 581 3500 
L 1159 3500 
L 1159 2956 
Q 1341 3275 1631 3429 
Q 1922 3584 2338 3584 
Q 2397 3584 2469 3576 
Q 2541 3569 2628 3553 
L 2631 2963 
z
" transform="scale(0.015625)"/>
       <path id="DejaVuSans-65" d="M 3597 1894 
L 3597 1613 
L 953 1613 
Q 991 1019 1311 708 
Q 1631 397 2203 397 
Q 2534 397 2845 478 
Q 3156 559 3463 722 
L 3463 178 
Q 3153 47 2828 -22 
Q 2503 -91 2169 -91 
Q 1331 -91 842 396 
Q 353 884 353 1716 
Q 353 2575 817 3079 
Q 1281 3584 2069 3584 
Q 2775 3584 3186 3129 
Q 3597 2675 3597 1894 
z
M 3022 2063 
Q 3016 2534 2758 2815 
Q 2500 3097 2075 3097 
Q 1594 3097 1305 2825 
Q 1016 2553 972 2059 
L 3022 2063 
z
" transform="scale(0.015625)"/>
       <path id="DejaVuSans-71" d="M 947 1747 
Q 947 1113 1208 752 
Q 1469 391 1925 391 
Q 2381 391 2643 752 
Q 2906 1113 2906 1747 
Q 2906 2381 2643 2742 
Q 2381 3103 1925 3103 
Q 1469 3103 1208 2742 
Q 947 2381 947 1747 
z
M 2906 525 
Q 2725 213 2448 61 
Q 2172 -91 1784 -91 
Q 1150 -91 751 415 
Q 353 922 353 1747 
Q 353 2572 751 3078 
Q 1150 3584 1784 3584 
Q 2172 3584 2448 3432 
Q 2725 3281 2906 2969 
L 2906 3500 
L 3481 3500 
L 3481 -1331 
L 2906 -1331 
L 2906 525 
z
" transform="scale(0.015625)"/>
       <path id="DejaVuSans-75" d="M 544 1381 
L 544 3500 
L 1119 3500 
L 1119 1403 
Q 1119 906 1312 657 
Q 1506 409 1894 409 
Q 2359 409 2629 706 
Q 2900 1003 2900 1516 
L 2900 3500 
L 3475 3500 
L 3475 0 
L 2900 0 
L 2900 538 
Q 2691 219 2414 64 
Q 2138 -91 1772 -91 
Q 1169 -91 856 284 
Q 544 659 544 1381 
z
M 1991 3584 
L 1991 3584 
z
" transform="scale(0.015625)"/>
       <path id="DejaVuSans-6e" d="M 3513 2113 
L 3513 0 
L 2938 0 
L 2938 2094 
Q 2938 2591 2744 2837 
Q 2550 3084 2163 3084 
Q 1697 3084 1428 2787 
Q 1159 2491 1159 1978 
L 1159 0 
L 581 0 
L 581 3500 
L 1159 3500 
L 1159 2956 
Q 1366 3272 1645 3428 
Q 1925 3584 2291 3584 
Q 2894 3584 3203 3211 
Q 3513 2838 3513 2113 
z
" transform="scale(0.015625)"/>
       <path id="DejaVuSans-63" d="M 3122 3366 
L 3122 2828 
Q 2878 2963 2633 3030 
Q 2388 3097 2138 3097 
Q 1578 3097 1268 2742 
Q 959 2388 959 1747 
Q 959 1106 1268 751 
Q 1578 397 2138 397 
Q 2388 397 2633 464 
Q 2878 531 3122 666 
L 3122 134 
Q 2881 22 2623 -34 
Q 2366 -91 2075 -91 
Q 1284 -91 818 406 
Q 353 903 353 1747 
Q 353 2603 823 3093 
Q 1294 3584 2113 3584 
Q 2378 3584 2631 3529 
Q 2884 3475 3122 3366 
z
" transform="scale(0.015625)"/>
       <path id="DejaVuSans-79" d="M 2059 -325 
Q 1816 -950 1584 -1140 
Q 1353 -1331 966 -1331 
L 506 -1331 
L 506 -850 
L 844 -850 
Q 1081 -850 1212 -737 
Q 1344 -625 1503 -206 
L 1606 56 
L 191 3500 
L 800 3500 
L 1894 763 
L 2988 3500 
L 3597 3500 
L 2059 -325 
z
" transform="scale(0.015625)"/>
       <path id="DejaVuSans-20" transform="scale(0.015625)"/>
       <path id="DejaVuSans-28" d="M 1984 4856 
Q 1566 4138 1362 3434 
Q 1159 2731 1159 2009 
Q 1159 1288 1364 580 
Q 1569 -128 1984 -844 
L 1484 -844 
Q 1016 -109 783 600 
Q 550 1309 550 2009 
Q 550 2706 781 3412 
Q 1013 4119 1484 4856 
L 1984 4856 
z
" transform="scale(0.015625)"/>
       <path id="DejaVuSans-48" d="M 628 4666 
L 1259 4666 
L 1259 2753 
L 3553 2753 
L 3553 4666 
L 4184 4666 
L 4184 0 
L 3553 0 
L 3553 2222 
L 1259 2222 
L 1259 0 
L 628 0 
L 628 4666 
z
" transform="scale(0.015625)"/>
       <path id="DejaVuSans-7a" d="M 353 3500 
L 3084 3500 
L 3084 2975 
L 922 459 
L 3084 459 
L 3084 0 
L 275 0 
L 275 525 
L 2438 3041 
L 353 3041 
L 353 3500 
z
" transform="scale(0.015625)"/>
       <path id="DejaVuSans-29" d="M 513 4856 
L 1013 4856 
Q 1481 4119 1714 3412 
Q 1947 2706 1947 2009 
Q 1947 1309 1714 600 
Q 1481 -109 1013 -844 
L 513 -844 
Q 928 -128 1133 580 
Q 1338 1288 1338 2009 
Q 1338 2731 1133 3434 
Q 928 4138 513 4856 
z
" transform="scale(0.015625)"/>
      </defs>
      <use xlink:href="#DejaVuSans-46"/>
      <use xlink:href="#DejaVuSans-72" transform="translate(50.269531 0)"/>
      <use xlink:href="#DejaVuSans-65" transform="translate(89.132812 0)"/>
      <use xlink:href="#DejaVuSans-71" transform="translate(150.65625 0)"/>
      <use xlink:href="#DejaVuSans-75" transform="translate(214.132812 0)"/>
      <use xlink:href="#DejaVuSans-65" transform="translate(277.511719 0)"/>
      <use xlink:href="#DejaVuSans-6e" transform="translate(339.035156 0)"/>
      <use xlink:href="#DejaVuSans-63" transform="translate(402.414062 0)"/>
      <use xlink:href="#DejaVuSans-79" transform="translate(457.394531 0)"/>
      <use xlink:href="#DejaVuSans-20" transform="translate(516.574219 0)"/>
      <use xlink:href="#DejaVuSans-28" transform="translate(548.361328 0)"/>
      <use xlink:href="#DejaVuSans-48" transform="translate(587.375 0)"/>
      <use xlink:href="#DejaVuSans-7a" transform="translate(662.570312 0)"/>
      <use xlink:href="#DejaVuSans-29" transform="translate(715.060547 0)"/>
     </g>
    </g>
   </g>
   <g id="matplotlib.axis_2">
    <g id="ytick_1">
     <g id="line2d_13">
      <path d="M 55.778125 217.767388 
L 557.978125 217.767388 
" clip-path="url(#p10444696e9)" style="fill: none; stroke: #b0b0b0; stroke-opacity: 0.25; stroke-width: 0.8; stroke-linecap: square"/>
     </g>
     <g id="line2d_14">
      <defs>
       <path id="m20899d3b1a" d="M 0 0 
L -3.5 0 
" style="stroke: #000000; stroke-width: 0.8"/>
      </defs>
      <g>
       <use xlink:href="#m20899d3b1a" x="55.778125" y="217.767388" style="stroke: #000000; stroke-width: 0.8"/>
      </g>
     </g>
     <g id="text_8">
      <!-- $\mathdefault{10^{-20}}$ -->
      <g transform="translate(20.878125 221.566607) scale(0.1 -0.1)">
       <defs>
        <path id="DejaVuSans-2212" d="M 678 2272 
L 4684 2272 
L 4684 1741 
L 678 1741 
L 678 2272 
z
" transform="scale(0.015625)"/>
       </defs>
       <use xlink:href="#DejaVuSans-31" transform="translate(0 0.765625)"/>
       <use xlink:href="#DejaVuSans-30" transform="translate(63.623047 0.765625)"/>
       <use xlink:href="#DejaVuSans-2212" transform="translate(128.203125 39.046875) scale(0.7)"/>
       <use xlink:href="#DejaVuSans-32" transform="translate(186.855469 39.046875) scale(0.7)"/>
       <use xlink:href="#DejaVuSans-30" transform="translate(231.391602 39.046875) scale(0.7)"/>
      </g>
     </g>
    </g>
    <g id="ytick_2">
     <g id="line2d_15">
      <path d="M 55.778125 188.687175 
L 557.978125 188.687175 
" clip-path="url(#p10444696e9)" style="fill: none; stroke: #b0b0b0; stroke-opacity: 0.25; stroke-width: 0.8; stroke-linecap: square"/>
     </g>
     <g id="line2d_16">
      <g>
       <use xlink:href="#m20899d3b1a" x="55.778125" y="188.687175" style="stroke: #000000; stroke-width: 0.8"/>
      </g>
     </g>
     <g id="text_9">
      <!-- $\mathdefault{10^{-18}}$ -->
      <g transform="translate(20.878125 192.486394) scale(0.1 -0.1)">
       <defs>
        <path id="DejaVuSans-38" d="M 2034 2216 
Q 1584 2216 1326 1975 
Q 1069 1734 1069 1313 
Q 1069 891 1326 650 
Q 1584 409 2034 409 
Q 2484 409 2743 651 
Q 3003 894 3003 1313 
Q 3003 1734 2745 1975 
Q 2488 2216 2034 2216 
z
M 1403 2484 
Q 997 2584 770 2862 
Q 544 3141 544 3541 
Q 544 4100 942 4425 
Q 1341 4750 2034 4750 
Q 2731 4750 3128 4425 
Q 3525 4100 3525 3541 
Q 3525 3141 3298 2862 
Q 3072 2584 2669 2484 
Q 3125 2378 3379 2068 
Q 3634 1759 3634 1313 
Q 3634 634 3220 271 
Q 2806 -91 2034 -91 
Q 1263 -91 848 271 
Q 434 634 434 1313 
Q 434 1759 690 2068 
Q 947 2378 1403 2484 
z
M 1172 3481 
Q 1172 3119 1398 2916 
Q 1625 2713 2034 2713 
Q 2441 2713 2670 2916 
Q 2900 3119 2900 3481 
Q 2900 3844 2670 4047 
Q 2441 4250 2034 4250 
Q 1625 4250 1398 4047 
Q 1172 3844 1172 3481 
z
" transform="scale(0.015625)"/>
       </defs>
       <use xlink:href="#DejaVuSans-31" transform="translate(0 0.765625)"/>
       <use xlink:href="#DejaVuSans-30" transform="translate(63.623047 0.765625)"/>
       <use xlink:href="#DejaVuSans-2212" transform="translate(128.203125 39.046875) scale(0.7)"/>
       <use xlink:href="#DejaVuSans-31" transform="translate(186.855469 39.046875) scale(0.7)"/>
       <use xlink:href="#DejaVuSans-38" transform="translate(231.391602 39.046875) scale(0.7)"/>
      </g>
     </g>
    </g>
    <g id="ytick_3">
     <g id="line2d_17">
      <path d="M 55.778125 159.606962 
L 557.978125 159.606962 
" clip-path="url(#p10444696e9)" style="fill: none; stroke: #b0b0b0; stroke-opacity: 0.25; stroke-width: 0.8; stroke-linecap: square"/>
     </g>
     <g id="line2d_18">
      <g>
       <use xlink:href="#m20899d3b1a" x="55.778125" y="159.606962" style="stroke: #000000; stroke-width: 0.8"/>
      </g>
     </g>
     <g id="text_10">
      <!-- $\mathdefault{10^{-16}}$ -->
      <g transform="translate(20.878125 163.40618) scale(0.1 -0.1)">
       <defs>
        <path id="DejaVuSans-36" d="M 2113 2584 
Q 1688 2584 1439 2293 
Q 1191 2003 1191 1497 
Q 1191 994 1439 701 
Q 1688 409 2113 409 
Q 2538 409 2786 701 
Q 3034 994 3034 1497 
Q 3034 2003 2786 2293 
Q 2538 2584 2113 2584 
z
M 3366 4563 
L 3366 3988 
Q 3128 4100 2886 4159 
Q 2644 4219 2406 4219 
Q 1781 4219 1451 3797 
Q 1122 3375 1075 2522 
Q 1259 2794 1537 2939 
Q 1816 3084 2150 3084 
Q 2853 3084 3261 2657 
Q 3669 2231 3669 1497 
Q 3669 778 3244 343 
Q 2819 -91 2113 -91 
Q 1303 -91 875 529 
Q 447 1150 447 2328 
Q 447 3434 972 4092 
Q 1497 4750 2381 4750 
Q 2619 4750 2861 4703 
Q 3103 4656 3366 4563 
z
" transform="scale(0.015625)"/>
       </defs>
       <use xlink:href="#DejaVuSans-31" transform="translate(0 0.765625)"/>
       <use xlink:href="#DejaVuSans-30" transform="translate(63.623047 0.765625)"/>
       <use xlink:href="#DejaVuSans-2212" transform="translate(128.203125 39.046875) scale(0.7)"/>
       <use xlink:href="#DejaVuSans-31" transform="translate(186.855469 39.046875) scale(0.7)"/>
       <use xlink:href="#DejaVuSans-36" transform="translate(231.391602 39.046875) scale(0.7)"/>
      </g>
     </g>
    </g>
    <g id="ytick_4">
     <g id="line2d_19">
      <path d="M 55.778125 130.526748 
L 557.978125 130.526748 
" clip-path="url(#p10444696e9)" style="fill: none; stroke: #b0b0b0; stroke-opacity: 0.25; stroke-width: 0.8; stroke-linecap: square"/>
     </g>
     <g id="line2d_20">
      <g>
       <use xlink:href="#m20899d3b1a" x="55.778125" y="130.526748" style="stroke: #000000; stroke-width: 0.8"/>
      </g>
     </g>
     <g id="text_11">
      <!-- $\mathdefault{10^{-14}}$ -->
      <g transform="translate(20.878125 134.325967) scale(0.1 -0.1)">
       <use xlink:href="#DejaVuSans-31" transform="translate(0 0.684375)"/>
       <use xlink:href="#DejaVuSans-30" transform="translate(63.623047 0.684375)"/>
       <use xlink:href="#DejaVuSans-2212" transform="translate(128.203125 38.965625) scale(0.7)"/>
       <use xlink:href="#DejaVuSans-31" transform="translate(186.855469 38.965625) scale(0.7)"/>
       <use xlink:href="#DejaVuSans-34" transform="translate(231.391602 38.965625) scale(0.7)"/>
      </g>
     </g>
    </g>
    <g id="ytick_5">
     <g id="line2d_21">
      <path d="M 55.778125 101.446535 
L 557.978125 101.446535 
" clip-path="url(#p10444696e9)" style="fill: none; stroke: #b0b0b0; stroke-opacity: 0.25; stroke-width: 0.8; stroke-linecap: square"/>
     </g>
     <g id="line2d_22">
      <g>
       <use xlink:href="#m20899d3b1a" x="55.778125" y="101.446535" style="stroke: #000000; stroke-width: 0.8"/>
      </g>
     </g>
     <g id="text_12">
      <!-- $\mathdefault{10^{-12}}$ -->
      <g transform="translate(20.878125 105.245753) scale(0.1 -0.1)">
       <use xlink:href="#DejaVuSans-31" transform="translate(0 0.765625)"/>
       <use xlink:href="#DejaVuSans-30" transform="translate(63.623047 0.765625)"/>
       <use xlink:href="#DejaVuSans-2212" transform="translate(128.203125 39.046875) scale(0.7)"/>
       <use xlink:href="#DejaVuSans-31" transform="translate(186.855469 39.046875) scale(0.7)"/>
       <use xlink:href="#DejaVuSans-32" transform="translate(231.391602 39.046875) scale(0.7)"/>
      </g>
     </g>
    </g>
    <g id="ytick_6">
     <g id="line2d_23">
      <path d="M 55.778125 72.366321 
L 557.978125 72.366321 
" clip-path="url(#p10444696e9)" style="fill: none; stroke: #b0b0b0; stroke-opacity: 0.25; stroke-width: 0.8; stroke-linecap: square"/>
     </g>
     <g id="line2d_24">
      <g>
       <use xlink:href="#m20899d3b1a" x="55.778125" y="72.366321" style="stroke: #000000; stroke-width: 0.8"/>
      </g>
     </g>
     <g id="text_13">
      <!-- $\mathdefault{10^{-10}}$ -->
      <g transform="translate(20.878125 76.16554) scale(0.1 -0.1)">
       <use xlink:href="#DejaVuSans-31" transform="translate(0 0.765625)"/>
       <use xlink:href="#DejaVuSans-30" transform="translate(63.623047 0.765625)"/>
       <use xlink:href="#DejaVuSans-2212" transform="translate(128.203125 39.046875) scale(0.7)"/>
       <use xlink:href="#DejaVuSans-31" transform="translate(186.855469 39.046875) scale(0.7)"/>
       <use xlink:href="#DejaVuSans-30" transform="translate(231.391602 39.046875) scale(0.7)"/>
      </g>
     </g>
    </g>
    <g id="ytick_7">
     <g id="line2d_25">
      <path d="M 55.778125 43.286108 
L 557.978125 43.286108 
" clip-path="url(#p10444696e9)" style="fill: none; stroke: #b0b0b0; stroke-opacity: 0.25; stroke-width: 0.8; stroke-linecap: square"/>
     </g>
     <g id="line2d_26">
      <g>
       <use xlink:href="#m20899d3b1a" x="55.778125" y="43.286108" style="stroke: #000000; stroke-width: 0.8"/>
      </g>
     </g>
     <g id="text_14">
      <!-- $\mathdefault{10^{-8}}$ -->
      <g transform="translate(25.278125 47.085327) scale(0.1 -0.1)">
       <use xlink:href="#DejaVuSans-31" transform="translate(0 0.765625)"/>
       <use xlink:href="#DejaVuSans-30" transform="translate(63.623047 0.765625)"/>
       <use xlink:href="#DejaVuSans-2212" transform="translate(128.203125 39.046875) scale(0.7)"/>
       <use xlink:href="#DejaVuSans-38" transform="translate(186.855469 39.046875) scale(0.7)"/>
      </g>
     </g>
    </g>
    <g id="text_15">
     <!-- PSD (unit²/Hz) -->
     <g transform="translate(14.798438 168.487969) rotate(-90) scale(0.1 -0.1)">
      <defs>
       <path id="DejaVuSans-50" d="M 1259 4147 
L 1259 2394 
L 2053 2394 
Q 2494 2394 2734 2622 
Q 2975 2850 2975 3272 
Q 2975 3691 2734 3919 
Q 2494 4147 2053 4147 
L 1259 4147 
z
M 628 4666 
L 2053 4666 
Q 2838 4666 3239 4311 
Q 3641 3956 3641 3272 
Q 3641 2581 3239 2228 
Q 2838 1875 2053 1875 
L 1259 1875 
L 1259 0 
L 628 0 
L 628 4666 
z
" transform="scale(0.015625)"/>
       <path id="DejaVuSans-53" d="M 3425 4513 
L 3425 3897 
Q 3066 4069 2747 4153 
Q 2428 4238 2131 4238 
Q 1616 4238 1336 4038 
Q 1056 3838 1056 3469 
Q 1056 3159 1242 3001 
Q 1428 2844 1947 2747 
L 2328 2669 
Q 3034 2534 3370 2195 
Q 3706 1856 3706 1288 
Q 3706 609 3251 259 
Q 2797 -91 1919 -91 
Q 1588 -91 1214 -16 
Q 841 59 441 206 
L 441 856 
Q 825 641 1194 531 
Q 1563 422 1919 422 
Q 2459 422 2753 634 
Q 3047 847 3047 1241 
Q 3047 1584 2836 1778 
Q 2625 1972 2144 2069 
L 1759 2144 
Q 1053 2284 737 2584 
Q 422 2884 422 3419 
Q 422 4038 858 4394 
Q 1294 4750 2059 4750 
Q 2388 4750 2728 4690 
Q 3069 4631 3425 4513 
z
" transform="scale(0.015625)"/>
       <path id="DejaVuSans-44" d="M 1259 4147 
L 1259 519 
L 2022 519 
Q 2988 519 3436 956 
Q 3884 1394 3884 2338 
Q 3884 3275 3436 3711 
Q 2988 4147 2022 4147 
L 1259 4147 
z
M 628 4666 
L 1925 4666 
Q 3281 4666 3915 4102 
Q 4550 3538 4550 2338 
Q 4550 1131 3912 565 
Q 3275 0 1925 0 
L 628 0 
L 628 4666 
z
" transform="scale(0.015625)"/>
       <path id="DejaVuSans-69" d="M 603 3500 
L 1178 3500 
L 1178 0 
L 603 0 
L 603 3500 
z
M 603 4863 
L 1178 4863 
L 1178 4134 
L 603 4134 
L 603 4863 
z
" transform="scale(0.015625)"/>
       <path id="DejaVuSans-74" d="M 1172 4494 
L 1172 3500 
L 2356 3500 
L 2356 3053 
L 1172 3053 
L 1172 1153 
Q 1172 725 1289 603 
Q 1406 481 1766 481 
L 2356 481 
L 2356 0 
L 1766 0 
Q 1100 0 847 248 
Q 594 497 594 1153 
L 594 3053 
L 172 3053 
L 172 3500 
L 594 3500 
L 594 4494 
L 1172 4494 
z
" transform="scale(0.015625)"/>
       <path id="DejaVuSans-b2" d="M 838 2444 
L 2163 2444 
L 2163 2088 
L 294 2088 
L 294 2431 
Q 400 2528 597 2703 
Q 1672 3656 1672 3950 
Q 1672 4156 1509 4282 
Q 1347 4409 1081 4409 
Q 919 4409 728 4354 
Q 538 4300 313 4191 
L 313 4575 
Q 553 4663 761 4706 
Q 969 4750 1147 4750 
Q 1600 4750 1872 4544 
Q 2144 4338 2144 4000 
Q 2144 3566 1109 2678 
Q 934 2528 838 2444 
z
" transform="scale(0.015625)"/>
       <path id="DejaVuSans-2f" d="M 1625 4666 
L 2156 4666 
L 531 -594 
L 0 -594 
L 1625 4666 
z
" transform="scale(0.015625)"/>
      </defs>
      <use xlink:href="#DejaVuSans-50"/>
      <use xlink:href="#DejaVuSans-53" transform="translate(60.302734 0)"/>
      <use xlink:href="#DejaVuSans-44" transform="translate(123.779297 0)"/>
      <use xlink:href="#DejaVuSans-20" transform="translate(200.78125 0)"/>
      <use xlink:href="#DejaVuSans-28" transform="translate(232.568359 0)"/>
      <use xlink:href="#DejaVuSans-75" transform="translate(271.582031 0)"/>
      <use xlink:href="#DejaVuSans-6e" transform="translate(334.960938 0)"/>
      <use xlink:href="#DejaVuSans-69" transform="translate(398.339844 0)"/>
      <use xlink:href="#DejaVuSans-74" transform="translate(426.123047 0)"/>
      <use xlink:href="#DejaVuSans-b2" transform="translate(465.332031 0)"/>
      <use xlink:href="#DejaVuSans-2f" transform="translate(505.419922 0)"/>
      <use xlink:href="#DejaVuSans-48" transform="translate(539.111328 0)"/>
      <use xlink:href="#DejaVuSans-7a" transform="translate(614.306641 0)"/>
      <use xlink:href="#DejaVuSans-29" transform="translate(666.796875 0)"/>
     </g>
    </g>
   </g>
   <g id="line2d_27">
    <path d="M 78.605398 80.704136 
L 79.497088 85.339287 
L 80.388778 136.514788 
L 81.280469 133.081797 
L 82.172159 128.968174 
L 83.95554 117.7138 
L 85.73892 97.393008 
L 86.630611 84.421489 
L 87.522301 75.001518 
L 88.413991 46.869299 
L 89.305682 32.398125 
L 90.197372 36.003938 
L 91.089063 61.071199 
L 91.980753 67.622058 
L 92.872443 71.02736 
L 93.764134 77.090746 
L 94.655824 74.3975 
L 95.547514 78.083746 
L 96.439205 77.312931 
L 97.330895 72.11944 
L 98.222585 70.0397 
L 99.114276 70.899503 
L 100.005966 63.226712 
L 100.897656 60.983577 
L 101.789347 61.650475 
L 102.681037 58.263016 
L 103.572727 57.378442 
L 104.464418 66.236536 
L 105.356108 70.127649 
L 106.247798 69.737957 
L 107.139489 76.69166 
L 108.031179 77.681615 
L 108.922869 75.988152 
L 109.81456 78.17803 
L 110.70625 65.58444 
L 111.59794 60.30348 
L 112.489631 69.045128 
L 113.381321 71.565015 
L 114.273011 69.097946 
L 115.164702 71.11968 
L 116.056392 73.989979 
L 116.948082 74.563166 
L 117.839773 70.845718 
L 118.731463 69.313109 
L 119.623153 68.672841 
L 120.514844 71.673164 
L 121.406534 68.855909 
L 122.298224 65.558285 
L 123.189915 70.405502 
L 124.081605 76.274714 
L 124.973295 70.825577 
L 125.864986 67.618715 
L 126.756676 69.73018 
L 127.648366 66.386894 
L 128.540057 64.114175 
L 129.431747 62.155679 
L 130.323438 62.444818 
L 131.215128 61.237904 
L 132.106818 61.976593 
L 132.998509 64.405389 
L 133.890199 66.007072 
L 134.781889 69.100507 
L 135.67358 70.306703 
L 137.45696 65.635583 
L 138.348651 64.365956 
L 139.240341 63.723962 
L 140.132031 67.021035 
L 141.023722 60.037473 
L 141.915412 49.517284 
L 142.807102 52.529103 
L 143.698793 57.050312 
L 144.590483 54.488975 
L 145.482173 58.735346 
L 146.373864 55.175013 
L 147.265554 54.648645 
L 148.157244 54.403996 
L 149.048935 57.076817 
L 149.940625 62.087631 
L 150.832315 58.386365 
L 151.724006 59.751319 
L 152.615696 55.066917 
L 153.507386 56.044648 
L 154.399077 61.60895 
L 155.290767 61.373145 
L 156.182457 60.900213 
L 157.074148 60.97014 
L 157.965838 61.886601 
L 158.857528 63.186619 
L 159.749219 65.485791 
L 160.640909 64.074997 
L 161.532599 63.428694 
L 162.42429 64.876344 
L 163.31598 64.443405 
L 164.20767 66.179902 
L 165.099361 71.547917 
L 165.991051 73.127836 
L 166.882741 68.883362 
L 167.774432 67.853985 
L 168.666122 68.724371 
L 169.557813 66.512209 
L 170.449503 67.372648 
L 171.341193 67.743386 
L 172.232884 68.993817 
L 174.016264 61.694172 
L 174.907955 52.96266 
L 175.799645 57.849139 
L 176.691335 63.937409 
L 177.583026 62.92707 
L 178.474716 62.920843 
L 179.366406 62.714995 
L 180.258097 63.702328 
L 181.149787 63.440445 
L 182.041477 61.486132 
L 182.933168 62.905558 
L 183.824858 65.656358 
L 184.716548 67.733435 
L 185.608239 62.599766 
L 186.499929 63.474782 
L 187.391619 68.145616 
L 188.28331 71.633023 
L 189.175 69.835179 
L 190.06669 70.069419 
L 190.958381 70.108321 
L 191.850071 70.343809 
L 192.741761 70.242751 
L 193.633452 73.19393 
L 194.525142 70.920565 
L 195.416832 73.44325 
L 196.308523 74.277819 
L 197.200213 72.69394 
L 198.091903 75.217144 
L 199.875284 76.439118 
L 200.766974 73.250435 
L 201.658665 71.113098 
L 202.550355 72.684929 
L 203.442045 74.018145 
L 204.333736 72.994616 
L 205.225426 72.567501 
L 206.117116 74.736139 
L 207.008807 71.88543 
L 207.900497 72.68135 
L 208.792188 71.739461 
L 209.683878 69.630369 
L 211.467259 78.50815 
L 212.358949 78.647733 
L 213.250639 76.781819 
L 214.14233 76.704806 
L 215.03402 78.158377 
L 215.92571 75.804463 
L 216.817401 72.926928 
L 217.709091 73.316795 
L 218.600781 78.263981 
L 219.492472 76.215124 
L 220.384162 77.373627 
L 221.275852 76.632666 
L 222.167543 74.048009 
L 223.059233 73.86737 
L 223.950923 78.954865 
L 224.842614 78.246106 
L 225.734304 72.041104 
L 226.625994 66.809852 
L 227.517685 66.737055 
L 228.409375 69.575491 
L 229.301065 71.547148 
L 230.192756 73.828751 
L 231.084446 76.534539 
L 231.976136 78.114712 
L 232.867827 74.725427 
L 233.759517 73.739005 
L 234.651207 73.558975 
L 235.542898 74.018108 
L 236.434588 74.711502 
L 237.326278 74.171759 
L 238.217969 69.241849 
L 239.109659 68.159244 
L 240.001349 71.224756 
L 240.89304 71.374174 
L 241.78473 73.138731 
L 242.67642 74.590224 
L 243.568111 75.804218 
L 244.459801 76.112288 
L 245.351491 73.151249 
L 246.243182 73.199303 
L 247.134872 70.794578 
L 248.026563 69.962594 
L 248.918253 69.907013 
L 249.809943 69.278498 
L 250.701634 67.383188 
L 251.593324 67.061421 
L 252.485014 67.152936 
L 253.376705 70.448372 
L 254.268395 69.296311 
L 255.160085 66.272542 
L 256.051776 67.855114 
L 256.943466 70.064988 
L 257.835156 67.978296 
L 258.726847 65.08818 
L 259.618537 67.073232 
L 260.510227 70.623667 
L 261.401918 65.887655 
L 262.293608 63.442888 
L 263.185298 65.061246 
L 264.076989 65.600736 
L 265.860369 60.914568 
L 266.75206 60.740108 
L 267.64375 66.008975 
L 268.53544 57.849099 
L 269.427131 55.935645 
L 270.318821 57.35946 
L 271.210511 60.855493 
L 272.102202 60.45171 
L 272.993892 57.086584 
L 273.885582 59.614558 
L 274.777273 61.451503 
L 275.668963 59.683651 
L 276.560653 62.296841 
L 277.452344 57.873726 
L 278.344034 54.727902 
L 279.235724 53.314284 
L 280.127415 51.346008 
L 281.019105 47.828608 
L 281.910795 46.111543 
L 282.802486 46.098765 
L 283.694176 44.987134 
L 284.585866 44.055928 
L 285.477557 45.690651 
L 286.369247 43.589657 
L 287.260938 43.573068 
L 288.152628 42.726429 
L 289.044318 40.594996 
L 289.936009 41.875991 
L 290.827699 43.700373 
L 291.719389 42.711328 
L 292.61108 44.85428 
L 293.50277 46.579398 
L 294.39446 47.295851 
L 295.286151 46.7879 
L 296.177841 45.682229 
L 297.069531 44.341192 
L 297.961222 44.205862 
L 298.852912 46.042004 
L 299.744602 44.840216 
L 300.636293 46.15574 
L 301.527983 43.208653 
L 302.419673 45.612546 
L 303.311364 48.717747 
L 304.203054 47.530041 
L 305.094744 50.623493 
L 305.986435 51.29102 
L 307.769815 54.954401 
L 308.661506 55.452814 
L 309.553196 56.132571 
L 310.444886 54.431694 
L 311.336577 52.311319 
L 312.228267 56.477806 
L 313.119957 54.179563 
L 314.011648 55.022837 
L 315.795028 59.143065 
L 316.686719 59.0238 
L 317.578409 59.38794 
L 318.470099 59.309607 
L 319.36179 59.7328 
L 320.25348 59.19994 
L 322.036861 56.899639 
L 322.928551 58.222381 
L 323.820241 61.023047 
L 324.711932 61.547255 
L 325.603622 61.116234 
L 326.495313 61.891729 
L 327.387003 64.409554 
L 328.278693 62.427247 
L 329.170384 62.981545 
L 330.062074 61.57636 
L 330.953764 62.465494 
L 331.845455 62.149913 
L 332.737145 66.310787 
L 333.628835 66.583642 
L 334.520526 63.333668 
L 335.412216 63.270399 
L 336.303906 66.807153 
L 337.195597 63.781299 
L 338.087287 62.927225 
L 338.978977 62.87614 
L 339.870668 64.277889 
L 340.762358 65.976243 
L 341.654048 66.833871 
L 342.545739 66.114894 
L 343.437429 68.316637 
L 344.329119 66.125857 
L 345.22081 68.134474 
L 346.1125 65.928259 
L 347.00419 65.066696 
L 347.895881 67.435591 
L 348.787571 65.983232 
L 350.570952 67.343026 
L 351.462642 67.365544 
L 352.354332 65.797246 
L 353.246023 66.760319 
L 354.137713 69.883334 
L 355.029403 66.055988 
L 357.704474 65.832588 
L 358.596165 64.760654 
L 359.487855 64.08884 
L 360.379545 67.556064 
L 361.271236 66.26217 
L 362.162926 65.747448 
L 363.054616 66.479699 
L 363.946307 68.990135 
L 364.837997 70.108296 
L 365.729688 68.613497 
L 366.621378 67.667587 
L 367.513068 67.353771 
L 368.404759 69.345062 
L 369.296449 68.79779 
L 370.188139 70.405469 
L 371.07983 72.943105 
L 371.97152 72.098087 
L 372.86321 70.428767 
L 373.754901 69.349135 
L 374.646591 71.87382 
L 375.538281 70.976831 
L 376.429972 71.886079 
L 377.321662 71.80715 
L 378.213352 70.055163 
L 379.105043 71.040341 
L 379.996733 73.592903 
L 380.888423 73.298167 
L 381.780114 74.259158 
L 382.671804 71.49419 
L 383.563494 68.184818 
L 384.455185 68.0804 
L 385.346875 67.05701 
L 386.238565 67.533371 
L 388.021946 69.979009 
L 388.913636 69.69362 
L 389.805327 69.619818 
L 390.697017 70.844074 
L 392.480398 76.717689 
L 393.372088 82.12754 
L 394.263778 84.009519 
L 395.155469 83.836934 
L 396.047159 82.455739 
L 397.83054 84.460595 
L 398.72223 81.654702 
L 399.61392 79.794655 
L 400.505611 78.999715 
L 401.397301 79.16011 
L 402.288991 77.089169 
L 403.180682 76.154939 
L 404.964063 75.361144 
L 405.855753 73.872633 
L 406.747443 72.833755 
L 407.639134 73.178454 
L 408.530824 75.251979 
L 409.422514 75.930709 
L 410.314205 72.500181 
L 411.205895 73.924223 
L 412.097585 73.922623 
L 412.989276 69.891438 
L 413.880966 73.364341 
L 414.772656 73.571956 
L 415.664347 74.779927 
L 416.556037 71.128699 
L 417.447727 71.47466 
L 418.339418 70.920039 
L 419.231108 71.828536 
L 420.122798 71.321195 
L 421.014489 70.293981 
L 421.906179 70.308708 
L 422.797869 67.539933 
L 423.68956 66.224466 
L 424.58125 68.048613 
L 425.47294 67.760901 
L 426.364631 68.558701 
L 427.256321 68.503299 
L 428.148011 70.237281 
L 429.039702 73.311355 
L 429.931392 68.86434 
L 430.823082 65.376908 
L 431.714773 66.78172 
L 432.606463 70.502314 
L 434.389844 69.849651 
L 435.281534 73.781878 
L 436.173224 68.801636 
L 437.064915 66.38779 
L 437.956605 64.490462 
L 438.848295 65.096408 
L 439.739986 68.29273 
L 440.631676 68.673926 
L 441.523366 67.635728 
L 442.415057 66.364983 
L 443.306747 66.749236 
L 444.198438 68.691351 
L 445.090128 68.392607 
L 445.981818 66.354329 
L 446.873509 66.011222 
L 447.765199 68.426406 
L 448.656889 69.053825 
L 449.54858 66.04826 
L 451.33196 71.345593 
L 452.223651 65.495359 
L 453.115341 64.961674 
L 454.007031 71.64036 
L 454.898722 73.808738 
L 455.790412 66.997355 
L 456.682102 67.158255 
L 457.573793 74.132645 
L 458.465483 72.030509 
L 459.357173 66.876315 
L 460.248864 67.893147 
L 461.140554 73.851456 
L 462.032244 73.327714 
L 462.923935 70.562701 
L 463.815625 73.391082 
L 464.707315 74.3075 
L 465.599006 73.061704 
L 466.490696 73.17452 
L 467.382386 76.036962 
L 468.274077 76.14804 
L 469.165767 75.451253 
L 470.057457 77.389065 
L 470.949148 82.987624 
L 471.840838 86.303467 
L 472.732528 88.451082 
L 473.624219 91.251373 
L 474.515909 93.504142 
L 475.407599 91.46203 
L 476.29929 91.716303 
L 477.19098 90.067322 
L 478.08267 89.30035 
L 478.974361 89.807481 
L 479.866051 90.980603 
L 481.649432 94.919596 
L 482.541122 96.900702 
L 483.432813 97.399063 
L 484.324503 98.656396 
L 485.216193 101.280025 
L 486.107884 102.701071 
L 486.999574 104.627441 
L 487.891264 106.924713 
L 488.782955 108.411989 
L 489.674645 110.573004 
L 490.566335 112.414333 
L 491.458026 116.515136 
L 492.349716 119.465112 
L 493.241406 119.651048 
L 494.133097 120.891506 
L 495.024787 121.809822 
L 495.916477 123.402736 
L 496.808168 125.917324 
L 497.699858 129.884107 
L 498.591548 129.685228 
L 499.483239 130.203914 
L 500.374929 132.728585 
L 503.05 136.387254 
L 503.94169 139.13649 
L 505.725071 145.466556 
L 506.616761 147.732587 
L 507.508452 150.491283 
L 508.400142 150.801912 
L 509.291832 154.294646 
L 510.183523 158.988045 
L 511.075213 161.950899 
L 511.966903 165.372512 
L 512.858594 170.037118 
L 513.750284 172.125418 
L 514.641974 177.480448 
L 515.533665 184.130597 
L 516.425355 186.810916 
L 517.317045 192.466401 
L 518.208736 195.378512 
L 519.100426 197.162606 
L 519.992116 197.925309 
L 520.883807 203.78813 
L 521.775497 207.906635 
L 522.667188 213.259856 
L 523.558878 217.087964 
L 524.450568 221.412336 
L 526.233949 227.902768 
L 527.125639 228.099486 
L 529.80071 229.063911 
L 532.475781 229.483198 
L 534.259162 229.605824 
L 535.150852 233.998125 
L 535.150852 233.998125 
" clip-path="url(#p10444696e9)" style="fill: none; stroke: #1f77b4; stroke-width: 1.5; stroke-linecap: square"/>
   </g>
   <g id="line2d_28">
    <path d="M 78.605398 95.500575 
L 79.497088 88.097055 
L 80.388778 87.776216 
L 81.280469 87.291443 
L 82.172159 86.101843 
L 83.063849 86.899667 
L 84.84723 89.100901 
L 85.73892 90.632611 
L 86.630611 91.942724 
L 87.522301 92.361833 
L 88.413991 72.621974 
L 89.305682 58.475993 
L 90.197372 62.028433 
L 91.089063 84.296635 
L 91.980753 89.86554 
L 92.872443 92.779809 
L 93.764134 93.812888 
L 94.655824 91.314874 
L 95.547514 93.189102 
L 96.439205 95.476872 
L 98.222585 88.821314 
L 99.114276 88.364036 
L 100.005966 85.980423 
L 100.897656 84.927287 
L 101.789347 85.89964 
L 102.681037 83.431192 
L 103.572727 82.31974 
L 104.464418 88.64302 
L 105.356108 90.368694 
L 106.247798 89.137142 
L 108.031179 97.999018 
L 108.922869 97.71959 
L 109.81456 94.015611 
L 110.70625 87.768305 
L 111.59794 84.378202 
L 112.489631 89.520851 
L 113.381321 92.260636 
L 114.273011 89.669999 
L 116.056392 93.453998 
L 116.948082 92.321399 
L 117.839773 91.960032 
L 118.731463 90.070366 
L 119.623153 88.96856 
L 120.514844 90.835656 
L 121.406534 89.01248 
L 122.298224 85.237372 
L 123.189915 88.454194 
L 124.081605 93.854525 
L 124.973295 88.987474 
L 125.864986 87.685433 
L 126.756676 88.884945 
L 129.431747 82.224586 
L 130.323438 81.0754 
L 131.215128 80.776675 
L 133.890199 85.447654 
L 134.781889 88.601245 
L 135.67358 89.624653 
L 136.56527 86.763439 
L 137.45696 84.775069 
L 138.348651 83.253035 
L 139.240341 83.005484 
L 140.132031 86.370157 
L 141.023722 79.08779 
L 141.915412 68.81695 
L 142.807102 71.995473 
L 143.698793 76.059189 
L 144.590483 73.147309 
L 145.482173 77.372334 
L 146.373864 73.918019 
L 148.157244 73.438699 
L 149.048935 76.244257 
L 149.940625 81.278086 
L 150.832315 77.842502 
L 151.724006 78.690657 
L 152.615696 73.966693 
L 153.507386 74.748494 
L 154.399077 79.370185 
L 155.290767 79.514659 
L 156.182457 79.064705 
L 157.074148 79.328987 
L 157.965838 80.410703 
L 158.857528 81.054855 
L 159.749219 83.287422 
L 160.640909 82.210553 
L 161.532599 81.336432 
L 162.42429 82.082976 
L 163.31598 81.708522 
L 164.20767 84.310962 
L 165.099361 89.283387 
L 165.991051 91.331508 
L 166.882741 86.649965 
L 167.774432 85.294175 
L 168.666122 86.883364 
L 169.557813 83.692231 
L 170.449503 84.173388 
L 171.341193 84.359097 
L 172.232884 86.075004 
L 173.124574 82.80031 
L 174.016264 78.907484 
L 174.907955 70.84557 
L 176.691335 81.076534 
L 177.583026 79.600848 
L 178.474716 79.607186 
L 179.366406 80.140567 
L 180.258097 81.05086 
L 181.149787 80.532984 
L 182.041477 78.581155 
L 182.933168 79.468556 
L 183.824858 82.117242 
L 184.716548 84.050513 
L 185.608239 78.547854 
L 186.499929 79.02652 
L 187.391619 84.222425 
L 188.28331 87.219902 
L 189.175 86.921989 
L 190.06669 87.520341 
L 190.958381 85.927641 
L 191.850071 85.49627 
L 192.741761 85.471639 
L 193.633452 89.647844 
L 194.525142 85.880948 
L 195.416832 87.640686 
L 196.308523 88.68398 
L 197.200213 88.593049 
L 198.091903 90.074099 
L 198.983594 90.651202 
L 199.875284 90.953015 
L 200.766974 88.523818 
L 201.658665 86.746626 
L 202.550355 87.355428 
L 203.442045 88.341879 
L 204.333736 88.313572 
L 205.225426 87.771498 
L 206.117116 89.449148 
L 207.008807 86.024921 
L 207.900497 87.146583 
L 208.792188 86.197628 
L 209.683878 84.214493 
L 211.467259 93.72184 
L 212.358949 93.024328 
L 213.250639 90.54734 
L 214.14233 91.363409 
L 215.03402 91.475946 
L 216.817401 87.04305 
L 217.709091 87.584579 
L 218.600781 91.440033 
L 219.492472 89.665678 
L 220.384162 91.189082 
L 221.275852 90.096054 
L 222.167543 86.946569 
L 223.059233 87.393253 
L 223.950923 92.386825 
L 224.842614 92.162242 
L 226.625994 80.154823 
L 227.517685 80.045335 
L 228.409375 82.905806 
L 230.192756 86.88836 
L 231.084446 89.715566 
L 231.976136 90.849874 
L 232.867827 87.138102 
L 233.759517 86.398973 
L 234.651207 86.881835 
L 235.542898 87.114805 
L 236.434588 86.882314 
L 237.326278 86.495314 
L 238.217969 82.434889 
L 239.109659 81.415943 
L 240.001349 83.755723 
L 240.89304 83.49113 
L 241.78473 86.071865 
L 242.67642 87.86745 
L 243.568111 88.629474 
L 244.459801 89.723121 
L 245.351491 86.205071 
L 246.243182 85.853061 
L 247.134872 84.242906 
L 248.026563 83.268808 
L 248.918253 82.724961 
L 249.809943 82.007335 
L 250.701634 80.51385 
L 251.593324 80.106872 
L 252.485014 80.209126 
L 253.376705 83.571494 
L 254.268395 82.373581 
L 255.160085 79.624117 
L 256.051776 81.240721 
L 256.943466 83.555311 
L 258.726847 78.394153 
L 259.618537 80.588627 
L 260.510227 83.379124 
L 261.401918 78.838221 
L 262.293608 76.936561 
L 263.185298 78.469454 
L 264.076989 78.507635 
L 264.968679 76.629388 
L 265.860369 74.401569 
L 266.75206 74.101423 
L 267.64375 79.005621 
L 268.53544 71.083928 
L 269.427131 69.322393 
L 270.318821 70.599927 
L 271.210511 73.675252 
L 272.102202 73.435082 
L 272.993892 70.306489 
L 273.885582 72.848156 
L 274.777273 74.520949 
L 275.668963 72.740326 
L 276.560653 75.305681 
L 277.452344 70.848999 
L 278.344034 67.684043 
L 279.235724 66.239335 
L 280.127415 64.26756 
L 281.019105 60.810446 
L 281.910795 59.056465 
L 282.802486 59.042028 
L 284.585866 56.996212 
L 285.477557 58.619198 
L 286.369247 56.54255 
L 287.260938 56.534224 
L 288.152628 55.680938 
L 289.044318 53.534549 
L 289.936009 54.820594 
L 290.827699 56.638901 
L 291.719389 55.637202 
L 292.61108 57.793568 
L 293.50277 59.505438 
L 294.39446 60.236076 
L 295.286151 59.723794 
L 296.177841 58.61549 
L 297.069531 57.287481 
L 297.961222 57.136362 
L 298.852912 58.97356 
L 299.744602 57.775664 
L 300.636293 59.084425 
L 301.527983 56.141401 
L 302.419673 58.543688 
L 303.311364 61.63728 
L 304.203054 60.450378 
L 305.094744 63.55224 
L 305.986435 64.221718 
L 307.769815 67.886896 
L 308.661506 68.407366 
L 309.553196 69.073198 
L 310.444886 67.358773 
L 311.336577 65.239107 
L 312.228267 69.408234 
L 313.119957 67.115115 
L 314.011648 67.966399 
L 315.795028 72.086256 
L 316.686719 71.966386 
L 317.578409 72.309603 
L 318.470099 72.219648 
L 319.36179 72.650071 
L 320.25348 72.083896 
L 322.036861 69.843742 
L 322.928551 71.164409 
L 323.820241 73.974737 
L 324.711932 74.471959 
L 325.603622 74.031844 
L 326.495313 74.809173 
L 327.387003 77.333202 
L 328.278693 75.340903 
L 329.170384 75.959447 
L 330.062074 74.538445 
L 330.953764 75.414636 
L 331.845455 75.108025 
L 332.737145 79.269739 
L 333.628835 79.559994 
L 334.520526 76.291657 
L 335.412216 76.215597 
L 336.303906 79.71554 
L 337.195597 76.676278 
L 338.087287 75.839764 
L 338.978977 75.846923 
L 339.870668 77.256586 
L 340.762358 78.931898 
L 341.654048 79.739321 
L 342.545739 78.987173 
L 343.437429 81.204487 
L 344.329119 79.092409 
L 345.22081 81.09632 
L 346.1125 78.870184 
L 347.00419 78.079245 
L 347.895881 80.395864 
L 348.787571 78.901195 
L 350.570952 80.241841 
L 351.462642 80.305496 
L 352.354332 78.772873 
L 353.246023 79.69999 
L 354.137713 82.823317 
L 355.029403 78.986474 
L 357.704474 78.760498 
L 358.596165 77.701885 
L 359.487855 77.03888 
L 360.379545 80.498584 
L 361.271236 79.169413 
L 362.162926 78.714733 
L 363.054616 79.408435 
L 363.946307 81.890777 
L 364.837997 83.045184 
L 365.729688 81.572283 
L 366.621378 80.604187 
L 367.513068 80.247117 
L 368.404759 82.260769 
L 369.296449 81.743667 
L 370.188139 83.293383 
L 371.07983 85.876156 
L 371.97152 85.075401 
L 372.86321 83.389067 
L 373.754901 82.371561 
L 374.646591 84.904454 
L 375.538281 83.906991 
L 376.429972 84.824897 
L 377.321662 84.721528 
L 378.213352 82.99652 
L 379.105043 84.000937 
L 379.996733 86.62413 
L 380.888423 86.30007 
L 381.780114 87.162495 
L 382.671804 84.425924 
L 383.563494 81.170855 
L 384.455185 81.038498 
L 385.346875 80.009883 
L 386.238565 80.442151 
L 387.130256 81.570156 
L 388.021946 82.945081 
L 388.913636 82.68496 
L 389.805327 82.569217 
L 390.697017 83.835417 
L 392.480398 89.68507 
L 393.372088 95.171436 
L 394.263778 96.849793 
L 395.155469 96.65021 
L 396.047159 95.282997 
L 396.938849 96.268288 
L 397.83054 97.448146 
L 398.72223 94.624643 
L 399.61392 92.741685 
L 400.505611 91.888824 
L 401.397301 92.123526 
L 402.288991 90.12838 
L 403.180682 89.16694 
L 404.964063 88.383268 
L 405.855753 86.831622 
L 406.747443 85.773582 
L 407.639134 86.139703 
L 408.530824 88.240685 
L 409.422514 88.889303 
L 410.314205 85.42258 
L 411.205895 86.819384 
L 412.097585 86.854728 
L 412.989276 82.878877 
L 413.880966 86.293568 
L 414.772656 86.509619 
L 415.664347 87.700378 
L 416.556037 84.014289 
L 417.447727 84.397843 
L 418.339418 83.885363 
L 419.231108 84.771822 
L 420.122798 84.300501 
L 421.014489 83.268349 
L 421.906179 83.182278 
L 422.797869 80.496665 
L 423.68956 79.198371 
L 424.58125 80.98922 
L 425.47294 80.687342 
L 426.364631 81.557862 
L 427.256321 81.520722 
L 428.148011 83.208411 
L 429.039702 86.307204 
L 429.931392 81.847707 
L 430.823082 78.335236 
L 431.714773 79.715501 
L 432.606463 83.424446 
L 434.389844 82.863102 
L 435.281534 86.745085 
L 436.173224 81.783828 
L 437.064915 79.303958 
L 437.956605 77.386793 
L 438.848295 77.995681 
L 439.739986 81.185895 
L 440.631676 81.549973 
L 441.523366 80.546786 
L 442.415057 79.275503 
L 443.306747 79.649932 
L 444.198438 81.629425 
L 445.090128 81.365247 
L 445.981818 79.264959 
L 446.873509 78.898832 
L 447.765199 81.325096 
L 448.656889 81.991819 
L 449.54858 78.968774 
L 451.33196 84.323468 
L 452.223651 78.473047 
L 453.115341 77.893016 
L 454.007031 84.513278 
L 454.898722 86.76049 
L 455.790412 79.926649 
L 456.682102 80.076928 
L 457.573793 87.157522 
L 458.465483 84.980935 
L 459.357173 79.792433 
L 460.248864 80.792594 
L 461.140554 86.685899 
L 462.032244 86.255385 
L 462.923935 83.572797 
L 463.815625 86.462674 
L 464.707315 87.312052 
L 465.599006 86.034898 
L 466.490696 86.149993 
L 467.382386 89.041099 
L 468.274077 89.074067 
L 469.165767 88.355294 
L 470.057457 90.29913 
L 470.949148 95.976217 
L 471.840838 99.179797 
L 472.732528 101.254616 
L 473.624219 103.848435 
L 474.515909 106.030255 
L 475.407599 104.355264 
L 476.29929 104.804354 
L 477.19098 102.992427 
L 478.08267 101.957892 
L 478.974361 102.505676 
L 479.866051 103.773582 
L 480.757741 105.454329 
L 481.649432 107.688341 
L 482.541122 109.484143 
L 483.432813 109.881949 
L 484.324503 111.393127 
L 485.216193 114.572711 
L 486.999574 118.191808 
L 487.891264 120.357984 
L 489.674645 123.075105 
L 490.566335 124.660481 
L 491.458026 126.817478 
L 492.349716 128.051609 
L 494.133097 131.618285 
L 495.024787 131.897719 
L 495.916477 132.405835 
L 496.808168 133.951184 
L 497.699858 133.05225 
L 498.591548 130.918123 
L 499.483239 133.195081 
L 500.374929 134.012271 
L 502.15831 134.58802 
L 503.05 136.930146 
L 503.94169 137.032451 
L 504.833381 137.281922 
L 505.725071 136.425511 
L 507.508452 138.962892 
L 508.400142 137.494911 
L 509.291832 138.103719 
L 510.183523 137.366778 
L 511.075213 138.046535 
L 511.966903 137.774123 
L 512.858594 135.17189 
L 513.750284 137.313832 
L 514.641974 133.906175 
L 516.425355 137.366998 
L 517.317045 136.389341 
L 518.208736 136.256638 
L 519.100426 138.101005 
L 519.992116 137.977177 
L 520.883807 135.375096 
L 522.667188 137.004697 
L 524.450568 134.77913 
L 525.342259 135.500006 
L 526.233949 137.931876 
L 527.125639 135.521252 
L 528.01733 134.207946 
L 528.90902 134.720589 
L 529.80071 138.101882 
L 530.692401 138.719638 
L 531.584091 135.893091 
L 532.475781 134.351783 
L 533.367472 134.648774 
L 534.259162 135.909652 
L 535.150852 141.807856 
L 535.150852 141.807856 
" clip-path="url(#p10444696e9)" style="fill: none; stroke: #ff7f0e; stroke-width: 1.5; stroke-linecap: square"/>
   </g>
   <g id="patch_4">
    <path d="M 55.778125 244.078125 
L 55.778125 22.318125 
" style="fill: none; stroke: #000000; stroke-width: 0.8; stroke-linejoin: miter; stroke-linecap: square"/>
   </g>
   <g id="patch_5">
    <path d="M 557.978125 244.078125 
L 557.978125 22.318125 
" style="fill: none; stroke: #000000; stroke-width: 0.8; stroke-linejoin: miter; stroke-linecap: square"/>
   </g>
   <g id="patch_6">
    <path d="M 55.778125 244.078125 
L 557.978125 244.078125 
" style="fill: none; stroke: #000000; stroke-width: 0.8; stroke-linejoin: miter; stroke-linecap: square"/>
   </g>
   <g id="patch_7">
    <path d="M 55.778125 22.318125 
L 557.978125 22.318125 
" style="fill: none; stroke: #000000; stroke-width: 0.8; stroke-linejoin: miter; stroke-linecap: square"/>
   </g>
   <g id="text_16">
    <!-- PSD before and after IMF gating -->
    <g transform="translate(210.991563 16.318125) scale(0.12 -0.12)">
     <defs>
      <path id="DejaVuSans-62" d="M 3116 1747 
Q 3116 2381 2855 2742 
Q 2594 3103 2138 3103 
Q 1681 3103 1420 2742 
Q 1159 2381 1159 1747 
Q 1159 1113 1420 752 
Q 1681 391 2138 391 
Q 2594 391 2855 752 
Q 3116 1113 3116 1747 
z
M 1159 2969 
Q 1341 3281 1617 3432 
Q 1894 3584 2278 3584 
Q 2916 3584 3314 3078 
Q 3713 2572 3713 1747 
Q 3713 922 3314 415 
Q 2916 -91 2278 -91 
Q 1894 -91 1617 61 
Q 1341 213 1159 525 
L 1159 0 
L 581 0 
L 581 4863 
L 1159 4863 
L 1159 2969 
z
" transform="scale(0.015625)"/>
      <path id="DejaVuSans-66" d="M 2375 4863 
L 2375 4384 
L 1825 4384 
Q 1516 4384 1395 4259 
Q 1275 4134 1275 3809 
L 1275 3500 
L 2222 3500 
L 2222 3053 
L 1275 3053 
L 1275 0 
L 697 0 
L 697 3053 
L 147 3053 
L 147 3500 
L 697 3500 
L 697 3744 
Q 697 4328 969 4595 
Q 1241 4863 1831 4863 
L 2375 4863 
z
" transform="scale(0.015625)"/>
      <path id="DejaVuSans-6f" d="M 1959 3097 
Q 1497 3097 1228 2736 
Q 959 2375 959 1747 
Q 959 1119 1226 758 
Q 1494 397 1959 397 
Q 2419 397 2687 759 
Q 2956 1122 2956 1747 
Q 2956 2369 2687 2733 
Q 2419 3097 1959 3097 
z
M 1959 3584 
Q 2709 3584 3137 3096 
Q 3566 2609 3566 1747 
Q 3566 888 3137 398 
Q 2709 -91 1959 -91 
Q 1206 -91 779 398 
Q 353 888 353 1747 
Q 353 2609 779 3096 
Q 1206 3584 1959 3584 
z
" transform="scale(0.015625)"/>
      <path id="DejaVuSans-61" d="M 2194 1759 
Q 1497 1759 1228 1600 
Q 959 1441 959 1056 
Q 959 750 1161 570 
Q 1363 391 1709 391 
Q 2188 391 2477 730 
Q 2766 1069 2766 1631 
L 2766 1759 
L 2194 1759 
z
M 3341 1997 
L 3341 0 
L 2766 0 
L 2766 531 
Q 2569 213 2275 61 
Q 1981 -91 1556 -91 
Q 1019 -91 701 211 
Q 384 513 384 1019 
Q 384 1609 779 1909 
Q 1175 2209 1959 2209 
L 2766 2209 
L 2766 2266 
Q 2766 2663 2505 2880 
Q 2244 3097 1772 3097 
Q 1472 3097 1187 3025 
Q 903 2953 641 2809 
L 641 3341 
Q 956 3463 1253 3523 
Q 1550 3584 1831 3584 
Q 2591 3584 2966 3190 
Q 3341 2797 3341 1997 
z
" transform="scale(0.015625)"/>
      <path id="DejaVuSans-64" d="M 2906 2969 
L 2906 4863 
L 3481 4863 
L 3481 0 
L 2906 0 
L 2906 525 
Q 2725 213 2448 61 
Q 2172 -91 1784 -91 
Q 1150 -91 751 415 
Q 353 922 353 1747 
Q 353 2572 751 3078 
Q 1150 3584 1784 3584 
Q 2172 3584 2448 3432 
Q 2725 3281 2906 2969 
z
M 947 1747 
Q 947 1113 1208 752 
Q 1469 391 1925 391 
Q 2381 391 2643 752 
Q 2906 1113 2906 1747 
Q 2906 2381 2643 2742 
Q 2381 3103 1925 3103 
Q 1469 3103 1208 2742 
Q 947 2381 947 1747 
z
" transform="scale(0.015625)"/>
      <path id="DejaVuSans-49" d="M 628 4666 
L 1259 4666 
L 1259 0 
L 628 0 
L 628 4666 
z
" transform="scale(0.015625)"/>
      <path id="DejaVuSans-4d" d="M 628 4666 
L 1569 4666 
L 2759 1491 
L 3956 4666 
L 4897 4666 
L 4897 0 
L 4281 0 
L 4281 4097 
L 3078 897 
L 2444 897 
L 1241 4097 
L 1241 0 
L 628 0 
L 628 4666 
z
" transform="scale(0.015625)"/>
      <path id="DejaVuSans-67" d="M 2906 1791 
Q 2906 2416 2648 2759 
Q 2391 3103 1925 3103 
Q 1463 3103 1205 2759 
Q 947 2416 947 1791 
Q 947 1169 1205 825 
Q 1463 481 1925 481 
Q 2391 481 2648 825 
Q 2906 1169 2906 1791 
z
M 3481 434 
Q 3481 -459 3084 -895 
Q 2688 -1331 1869 -1331 
Q 1566 -1331 1297 -1286 
Q 1028 -1241 775 -1147 
L 775 -588 
Q 1028 -725 1275 -790 
Q 1522 -856 1778 -856 
Q 2344 -856 2625 -561 
Q 2906 -266 2906 331 
L 2906 616 
Q 2728 306 2450 153 
Q 2172 0 1784 0 
Q 1141 0 747 490 
Q 353 981 353 1791 
Q 353 2603 747 3093 
Q 1141 3584 1784 3584 
Q 2172 3584 2450 3431 
Q 2728 3278 2906 2969 
L 2906 3500 
L 3481 3500 
L 3481 434 
z
" transform="scale(0.015625)"/>
     </defs>
     <use xlink:href="#DejaVuSans-50"/>
     <use xlink:href="#DejaVuSans-53" transform="translate(60.302734 0)"/>
     <use xlink:href="#DejaVuSans-44" transform="translate(123.779297 0)"/>
     <use xlink:href="#DejaVuSans-20" transform="translate(200.78125 0)"/>
     <use xlink:href="#DejaVuSans-62" transform="translate(232.568359 0)"/>
     <use xlink:href="#DejaVuSans-65" transform="translate(296.044922 0)"/>
     <use xlink:href="#DejaVuSans-66" transform="translate(357.568359 0)"/>
     <use xlink:href="#DejaVuSans-6f" transform="translate(392.773438 0)"/>
     <use xlink:href="#DejaVuSans-72" transform="translate(453.955078 0)"/>
     <use xlink:href="#DejaVuSans-65" transform="translate(492.818359 0)"/>
     <use xlink:href="#DejaVuSans-20" transform="translate(554.341797 0)"/>
     <use xlink:href="#DejaVuSans-61" transform="translate(586.128906 0)"/>
     <use xlink:href="#DejaVuSans-6e" transform="translate(647.408203 0)"/>
     <use xlink:href="#DejaVuSans-64" transform="translate(710.787109 0)"/>
     <use xlink:href="#DejaVuSans-20" transform="translate(774.263672 0)"/>
     <use xlink:href="#DejaVuSans-61" transform="translate(806.050781 0)"/>
     <use xlink:href="#DejaVuSans-66" transform="translate(867.330078 0)"/>
     <use xlink:href="#DejaVuSans-74" transform="translate(900.785156 0)"/>
     <use xlink:href="#DejaVuSans-65" transform="translate(939.994141 0)"/>
     <use xlink:href="#DejaVuSans-72" transform="translate(1001.517578 0)"/>
     <use xlink:href="#DejaVuSans-20" transform="translate(1042.630859 0)"/>
     <use xlink:href="#DejaVuSans-49" transform="translate(1074.417969 0)"/>
     <use xlink:href="#DejaVuSans-4d" transform="translate(1103.910156 0)"/>
     <use xlink:href="#DejaVuSans-46" transform="translate(1190.189453 0)"/>
     <use xlink:href="#DejaVuSans-20" transform="translate(1247.708984 0)"/>
     <use xlink:href="#DejaVuSans-67" transform="translate(1279.496094 0)"/>
     <use xlink:href="#DejaVuSans-61" transform="translate(1342.972656 0)"/>
     <use xlink:href="#DejaVuSans-74" transform="translate(1404.251953 0)"/>
     <use xlink:href="#DejaVuSans-69" transform="translate(1443.460938 0)"/>
     <use xlink:href="#DejaVuSans-6e" transform="translate(1471.244141 0)"/>
     <use xlink:href="#DejaVuSans-67" transform="translate(1534.623047 0)"/>
    </g>
   </g>
   <g id="legend_1">
    <g id="patch_8">
     <path d="M 257.46875 239.078125 
L 356.2875 239.078125 
Q 358.2875 239.078125 358.2875 237.078125 
L 358.2875 194.04375 
Q 358.2875 192.04375 356.2875 192.04375 
L 257.46875 192.04375 
Q 255.46875 192.04375 255.46875 194.04375 
L 255.46875 237.078125 
Q 255.46875 239.078125 257.46875 239.078125 
z
" style="fill: #ffffff; opacity: 0.8; stroke: #cccccc; stroke-linejoin: miter"/>
    </g>
    <g id="line2d_29">
     <path d="M 259.46875 200.142187 
L 269.46875 200.142187 
L 279.46875 200.142187 
" style="fill: none; stroke: #1f77b4; stroke-width: 1.5; stroke-linecap: square"/>
    </g>
    <g id="text_17">
     <!-- Preprocessed -->
     <g transform="translate(287.46875 203.642187) scale(0.1 -0.1)">
      <defs>
       <path id="DejaVuSans-70" d="M 1159 525 
L 1159 -1331 
L 581 -1331 
L 581 3500 
L 1159 3500 
L 1159 2969 
Q 1341 3281 1617 3432 
Q 1894 3584 2278 3584 
Q 2916 3584 3314 3078 
Q 3713 2572 3713 1747 
Q 3713 922 3314 415 
Q 2916 -91 2278 -91 
Q 1894 -91 1617 61 
Q 1341 213 1159 525 
z
M 3116 1747 
Q 3116 2381 2855 2742 
Q 2594 3103 2138 3103 
Q 1681 3103 1420 2742 
Q 1159 2381 1159 1747 
Q 1159 1113 1420 752 
Q 1681 391 2138 391 
Q 2594 391 2855 752 
Q 3116 1113 3116 1747 
z
" transform="scale(0.015625)"/>
       <path id="DejaVuSans-73" d="M 2834 3397 
L 2834 2853 
Q 2591 2978 2328 3040 
Q 2066 3103 1784 3103 
Q 1356 3103 1142 2972 
Q 928 2841 928 2578 
Q 928 2378 1081 2264 
Q 1234 2150 1697 2047 
L 1894 2003 
Q 2506 1872 2764 1633 
Q 3022 1394 3022 966 
Q 3022 478 2636 193 
Q 2250 -91 1575 -91 
Q 1294 -91 989 -36 
Q 684 19 347 128 
L 347 722 
Q 666 556 975 473 
Q 1284 391 1588 391 
Q 1994 391 2212 530 
Q 2431 669 2431 922 
Q 2431 1156 2273 1281 
Q 2116 1406 1581 1522 
L 1381 1569 
Q 847 1681 609 1914 
Q 372 2147 372 2553 
Q 372 3047 722 3315 
Q 1072 3584 1716 3584 
Q 2034 3584 2315 3537 
Q 2597 3491 2834 3397 
z
" transform="scale(0.015625)"/>
      </defs>
      <use xlink:href="#DejaVuSans-50"/>
      <use xlink:href="#DejaVuSans-72" transform="translate(58.552734 0)"/>
      <use xlink:href="#DejaVuSans-65" transform="translate(97.416016 0)"/>
      <use xlink:href="#DejaVuSans-70" transform="translate(158.939453 0)"/>
      <use xlink:href="#DejaVuSans-72" transform="translate(222.416016 0)"/>
      <use xlink:href="#DejaVuSans-6f" transform="translate(261.279297 0)"/>
      <use xlink:href="#DejaVuSans-63" transform="translate(322.460938 0)"/>
      <use xlink:href="#DejaVuSans-65" transform="translate(377.441406 0)"/>
      <use xlink:href="#DejaVuSans-73" transform="translate(438.964844 0)"/>
      <use xlink:href="#DejaVuSans-73" transform="translate(491.064453 0)"/>
      <use xlink:href="#DejaVuSans-65" transform="translate(543.164062 0)"/>
      <use xlink:href="#DejaVuSans-64" transform="translate(604.6875 0)"/>
     </g>
    </g>
    <g id="line2d_30">
     <path d="M 259.46875 214.820312 
L 269.46875 214.820312 
L 279.46875 214.820312 
" style="fill: none; stroke: #ff7f0e; stroke-width: 1.5; stroke-linecap: square"/>
    </g>
    <g id="text_18">
     <!-- Weighted -->
     <g transform="translate(287.46875 218.320312) scale(0.1 -0.1)">
      <defs>
       <path id="DejaVuSans-57" d="M 213 4666 
L 850 4666 
L 1831 722 
L 2809 4666 
L 3519 4666 
L 4500 722 
L 5478 4666 
L 6119 4666 
L 4947 0 
L 4153 0 
L 3169 4050 
L 2175 0 
L 1381 0 
L 213 4666 
z
" transform="scale(0.015625)"/>
       <path id="DejaVuSans-68" d="M 3513 2113 
L 3513 0 
L 2938 0 
L 2938 2094 
Q 2938 2591 2744 2837 
Q 2550 3084 2163 3084 
Q 1697 3084 1428 2787 
Q 1159 2491 1159 1978 
L 1159 0 
L 581 0 
L 581 4863 
L 1159 4863 
L 1159 2956 
Q 1366 3272 1645 3428 
Q 1925 3584 2291 3584 
Q 2894 3584 3203 3211 
Q 3513 2838 3513 2113 
z
" transform="scale(0.015625)"/>
      </defs>
      <use xlink:href="#DejaVuSans-57"/>
      <use xlink:href="#DejaVuSans-65" transform="translate(93.001953 0)"/>
      <use xlink:href="#DejaVuSans-69" transform="translate(154.525391 0)"/>
      <use xlink:href="#DejaVuSans-67" transform="translate(182.308594 0)"/>
      <use xlink:href="#DejaVuSans-68" transform="translate(245.785156 0)"/>
      <use xlink:href="#DejaVuSans-74" transform="translate(309.164062 0)"/>
      <use xlink:href="#DejaVuSans-65" transform="translate(348.373047 0)"/>
      <use xlink:href="#DejaVuSans-64" transform="translate(409.896484 0)"/>
     </g>
    </g>
    <g id="patch_9">
     <path d="M 259.46875 232.998437 
L 279.46875 232.998437 
L 279.46875 225.998437 
L 259.46875 225.998437 
z
" style="fill: #dc143c; opacity: 0.15; stroke: #dc143c; stroke-linejoin: miter"/>
    </g>
    <g id="text_19">
     <!-- Chatter band -->
     <g transform="translate(287.46875 232.998437) scale(0.1 -0.1)">
      <defs>
       <path id="DejaVuSans-43" d="M 4122 4306 
L 4122 3641 
Q 3803 3938 3442 4084 
Q 3081 4231 2675 4231 
Q 1875 4231 1450 3742 
Q 1025 3253 1025 2328 
Q 1025 1406 1450 917 
Q 1875 428 2675 428 
Q 3081 428 3442 575 
Q 3803 722 4122 1019 
L 4122 359 
Q 3791 134 3420 21 
Q 3050 -91 2638 -91 
Q 1578 -91 968 557 
Q 359 1206 359 2328 
Q 359 3453 968 4101 
Q 1578 4750 2638 4750 
Q 3056 4750 3426 4639 
Q 3797 4528 4122 4306 
z
" transform="scale(0.015625)"/>
      </defs>
      <use xlink:href="#DejaVuSans-43"/>
      <use xlink:href="#DejaVuSans-68" transform="translate(69.824219 0)"/>
      <use xlink:href="#DejaVuSans-61" transform="translate(133.203125 0)"/>
      <use xlink:href="#DejaVuSans-74" transform="translate(194.482422 0)"/>
      <use xlink:href="#DejaVuSans-74" transform="translate(233.691406 0)"/>
      <use xlink:href="#DejaVuSans-65" transform="translate(272.900391 0)"/>
      <use xlink:href="#DejaVuSans-72" transform="translate(334.423828 0)"/>
      <use xlink:href="#DejaVuSans-20" transform="translate(375.537109 0)"/>
      <use xlink:href="#DejaVuSans-62" transform="translate(407.324219 0)"/>
      <use xlink:href="#DejaVuSans-61" transform="translate(470.800781 0)"/>
      <use xlink:href="#DejaVuSans-6e" transform="translate(532.080078 0)"/>
      <use xlink:href="#DejaVuSans-64" transform="translate(595.458984 0)"/>
     </g>
    </g>
   </g>
  </g>
 </g>
 <defs>
  <clipPath id="p10444696e9">
   <rect x="55.778125" y="22.318125" width="502.2" height="221.76"/>
  </clipPath>
 </defs>
</svg>
