<?xml version="1.0" encoding="utf-8" standalone="no"?>
<!DOCTYPE svg PUBLIC "-//W3C//DTD SVG 1.1//EN"
  "http://www.w3.org/Graphics/SVG/1.1/DTD/svg11.dtd">
<svg xmlns:xlink="http://www.w3.org/1999/xlink" width="565.178125pt" height="281.634375pt" viewBox="0 0 565.178125 281.634375" xmlns="http://www.w3.org/2000/svg" version="1.1">
 <metadata>
  <rdf:RDF xmlns:dc="http://purl.org/dc/elements/1.1/" xmlns:cc="http://creativecommons.org/ns#" xmlns:rdf="http://www.w3.org/1999/02/22-rdf-syntax-ns#">
   <cc:Work>
    <dc:type rdf:resource="http://purl.org/dc/dcmitype/StillImage"/>
    <dc:date>2026-07-14T06:51:24.086772</dc:date>
    <dc:format>image/svg+xml</dc:format>
    <dc:creator>
     <cc:Agent>
      <dc:title>Matplotlib v3.10.8, https://matplotlib.org/</dc:title>
     </cc:Agent>
    </dc:creator>
   </cc:Work>
  </rdf:RDF>
 </metadata>
 <defs>
  <style type="text/css">*{stroke-linejoin: round; stroke-linecap: butt}</style>
 </defs>
 <g id="figure_1">
  <g id="patch_1">
   <path d="M 0 281.634375 
L 565.178125 281.634375 
L 565.178125 0 
L 0 0 
z
" style="fill: #ffffff"/>
  </g>
  <g id="axes_1">
   <g id="patch_2">
    <path d="M 55.778125 244.078125 
L 557.978125 244.078125 
L 557.978125 22.318125 
L 55.778125 22.318125 
z
" style="fill: #ffffff"/>
   </g>
   <g id="patch_3">
    <path d="M 147.087216 244.078125 
L 238.396307 244.078125 
L 238.396307 22.318125 
L 147.087216 22.318125 
z
" clip-path="url(#p9c9404410f)" style="fill: #dc143c; opacity: 0.15; stroke: #dc143c; stroke-linejoin: miter"/>
   </g>
   <g id="matplotlib.axis_1">
    <g id="xtick_1">
     <g id="line2d_1">
      <path d="M 78.605398 244.078125 
L 78.605398 22.318125 
" clip-path="url(#p9c9404410f)" style="fill: none; stroke: #b0b0b0; stroke-opacity: 0.25; stroke-width: 0.8; stroke-linecap: square"/>
     </g>
     <g id="line2d_2">
      <defs>
       <path id="m3616bd3f9b" d="M 0 0 
L 0 3.5 
" style="stroke: #000000; stroke-width: 0.8"/>
      </defs>
      <g>
       <use xlink:href="#m3616bd3f9b" x="78.605398" y="244.078125" style="stroke: #000000; stroke-width: 0.8"/>
      </g>
     </g>
     <g id="text_1">
      <!-- 0 -->
      <g transform="translate(75.424148 258.676562) scale(0.1 -0.1)">
       <defs>
        <path id="DejaVuSans-30" d="M 2034 4250 
Q 1547 4250 1301 3770 
Q 1056 3291 1056 2328 
Q 1056 1369 1301 889 
Q 1547 409 2034 409 
Q 2525 409 2770 889 
Q 3016 1369 3016 2328 
Q 3016 3291 2770 3770 
Q 2525 4250 2034 4250 
z
M 2034 4750 
Q 2819 4750 3233 4129 
Q 3647 3509 3647 2328 
Q 3647 1150 3233 529 
Q 2819 -91 2034 -91 
Q 1250 -91 836 529 
Q 422 1150 422 2328 
Q 422 3509 836 4129 
Q 1250 4750 2034 4750 
z
" transform="scale(0.015625)"/>
       </defs>
       <use xlink:href="#DejaVuSans-30"/>
      </g>
     </g>
    </g>
    <g id="xtick_2">
     <g id="line2d_3">
      <path d="M 169.914489 244.078125 
L 169.914489 22.318125 
" clip-path="url(#p9c9404410f)" style="fill: none; stroke: #b0b0b0; stroke-opacity: 0.25; stroke-width: 0.8; stroke-linecap: square"/>
     </g>
     <g id="line2d_4">
      <g>
       <use xlink:href="#m3616bd3f9b" x="169.914489" y="244.078125" style="stroke: #000000; stroke-width: 0.8"/>
      </g>
     </g>
     <g id="text_2">
      <!-- 1000 -->
      <g transform="translate(157.189489 258.676562) scale(0.1 -0.1)">
       <defs>
        <path id="DejaVuSans-31" d="M 794 531 
L 1825 531 
L 1825 4091 
L 703 3866 
L 703 4441 
L 1819 4666 
L 2450 4666 
L 2450 531 
L 3481 531 
L 3481 0 
L 794 0 
L 794 531 
z
" transform="scale(0.015625)"/>
       </defs>
       <use xlink:href="#DejaVuSans-31"/>
       <use xlink:href="#DejaVuSans-30" transform="translate(63.623047 0)"/>
       <use xlink:href="#DejaVuSans-30" transform="translate(127.246094 0)"/>
       <use xlink:href="#DejaVuSans-30" transform="translate(190.869141 0)"/>
      </g>
     </g>
    </g>
    <g id="xtick_3">
     <g id="line2d_5">
      <path d="M 261.22358 244.078125 
L 261.22358 22.318125 
" clip-path="url(#p9c9404410f)" style="fill: none; stroke: #b0b0b0; stroke-opacity: 0.25; stroke-width: 0.8; stroke-linecap: square"/>
     </g>
     <g id="line2d_6">
      <g>
       <use xlink:href="#m3616bd3f9b" x="261.22358" y="244.078125" style="stroke: #000000; stroke-width: 0.8"/>
      </g>
     </g>
     <g id="text_3">
      <!-- 2000 -->
      <g transform="translate(248.49858 258.676562) scale(0.1 -0.1)">
       <defs>
        <path id="DejaVuSans-32" d="M 1228 531 
L 3431 531 
L 3431 0 
L 469 0 
L 469 531 
Q 828 903 1448 1529 
Q 2069 2156 2228 2338 
Q 2531 2678 2651 2914 
Q 2772 3150 2772 3378 
Q 2772 3750 2511 3984 
Q 2250 4219 1831 4219 
Q 1534 4219 1204 4116 
Q 875 4013 500 3803 
L 500 4441 
Q 881 4594 1212 4672 
Q 1544 4750 1819 4750 
Q 2544 4750 2975 4387 
Q 3406 4025 3406 3419 
Q 3406 3131 3298 2873 
Q 3191 2616 2906 2266 
Q 2828 2175 2409 1742 
Q 1991 1309 1228 531 
z
" transform="scale(0.015625)"/>
       </defs>
       <use xlink:href="#DejaVuSans-32"/>
       <use xlink:href="#DejaVuSans-30" transform="translate(63.623047 0)"/>
       <use xlink:href="#DejaVuSans-30" transform="translate(127.246094 0)"/>
       <use xlink:href="#DejaVuSans-30" transform="translate(190.869141 0)"/>
      </g>
     </g>
    </g>
    <g id="xtick_4">
     <g id="line2d_7">
      <path d="M 352.53267 244.078125 
L 352.53267 22.318125 
" clip-path="url(#p9c9404410f)" style="fill: none; stroke: #b0b0b0; stroke-opacity: 0.25; stroke-width: 0.8; stroke-linecap: square"/>
     </g>
     <g id="line2d_8">
      <g>
       <use xlink:href="#m3616bd3f9b" x="352.53267" y="244.078125" style="stroke: #000000; stroke-width: 0.8"/>
      </g>
     </g>
     <g id="text_4">
      <!-- 3000 -->
      <g transform="translate(339.80767 258.676562) scale(0.1 -0.1)">
       <defs>
        <path id="DejaVuSans-33" d="M 2597 2516 
Q 3050 2419 3304 2112 
Q 3559 1806 3559 1356 
Q 3559 666 3084 287 
Q 2609 -91 1734 -91 
Q 1441 -91 1130 -33 
Q 819 25 488 141 
L 488 750 
Q 750 597 1062 519 
Q 1375 441 1716 441 
Q 2309 441 2620 675 
Q 2931 909 2931 1356 
Q 2931 1769 2642 2001 
Q 2353 2234 1838 2234 
L 1294 2234 
L 1294 2753 
L 1863 2753 
Q 2328 2753 2575 2939 
Q 2822 3125 2822 3475 
Q 2822 3834 2567 4026 
Q 2313 4219 1838 4219 
Q 1578 4219 1281 4162 
Q 984 4106 628 3988 
L 628 4550 
Q 988 4650 1302 4700 
Q 1616 4750 1894 4750 
Q 2613 4750 3031 4423 
Q 3450 4097 3450 3541 
Q 3450 3153 3228 2886 
Q 3006 2619 2597 2516 
z
" transform="scale(0.015625)"/>
       </defs>
       <use xlink:href="#DejaVuSans-33"/>
       <use xlink:href="#DejaVuSans-30" transform="translate(63.623047 0)"/>
       <use xlink:href="#DejaVuSans-30" transform="translate(127.246094 0)"/>
       <use xlink:href="#DejaVuSans-30" transform="translate(190.869141 0)"/>
      </g>
     </g>
    </g>
    <g id="xtick_5">
     <g id="line2d_9">
      <path d="M 443.841761 244.078125 
L 443.841761 22.318125 
" clip-path="url(#p9c9404410f)" style="fill: none; stroke: #b0b0b0; stroke-opacity: 0.25; stroke-width: 0.8; stroke-linecap: square"/>
     </g>
     <g id="line2d_10">
      <g>
       <use xlink:href="#m3616bd3f9b" x="443.841761" y="244.078125" style="stroke: #000000; stroke-width: 0.8"/>
      </g>
     </g>
     <g id="text_5">
      <!-- 4000 -->
      <g transform="translate(431.116761 258.676562) scale(0.1 -0.1)">
       <defs>
        <path id="DejaVuSans-34" d="M 2419 4116 
L 825 1625 
L 2419 1625 
L 2419 4116 
z
M 2253 4666 
L 3047 4666 
L 3047 1625 
L 3713 1625 
L 3713 1100 
L 3047 1100 
L 3047 0 
L 2419 0 
L 2419 1100 
L 313 1100 
L 313 1709 
L 2253 4666 
z
" transform="scale(0.015625)"/>
       </defs>
       <use xlink:href="#DejaVuSans-34"/>
       <use xlink:href="#DejaVuSans-30" transform="translate(63.623047 0)"/>
       <use xlink:href="#DejaVuSans-30" transform="translate(127.246094 0)"/>
       <use xlink:href="#DejaVuSans-30" transform="translate(190.869141 0)"/>
      </g>
     </g>
    </g>
    <g id="xtick_6">
     <g id="line2d_11">
      <path d="M 535.150852 244.078125 
L 535.150852 22.318125 
" clip-path="url(#p9c9404410f)" style="fill: none; stroke: #b0b0b0; stroke-opacity: 0.25; stroke-width: 0.8; stroke-linecap: square"/>
     </g>
     <g id="line2d_12">
      <g>
       <use xlink:href="#m3616bd3f9b" x="535.150852" y="244.078125" style="stroke: #000000; stroke-width: 0.8"/>
      </g>
     </g>
     <g id="text_6">
      <!-- 5000 -->
      <g transform="translate(522.425852 258.676562) scale(0.1 -0.1)">
       <defs>
        <path id="DejaVuSans-35" d="M 691 4666 
L 3169 4666 
L 3169 4134 
L 1269 4134 
L 1269 2991 
Q 1406 3038 1543 3061 
Q 1681 3084 1819 3084 
Q 2600 3084 3056 2656 
Q 3513 2228 3513 1497 
Q 3513 744 3044 326 
Q 2575 -91 1722 -91 
Q 1428 -91 1123 -41 
Q 819 9 494 109 
L 494 744 
Q 775 591 1075 516 
Q 1375 441 1709 441 
Q 2250 441 2565 725 
Q 2881 1009 2881 1497 
Q 2881 1984 2565 2268 
Q 2250 2553 1709 2553 
Q 1456 2553 1204 2497 
Q 953 2441 691 2322 
L 691 4666 
z
" transform="scale(0.015625)"/>
       </defs>
       <use xlink:href="#DejaVuSans-35"/>
       <use xlink:href="#DejaVuSans-30" transform="translate(63.623047 0)"/>
       <use xlink:href="#DejaVuSans-30" transform="translate(127.246094 0)"/>
       <use xlink:href="#DejaVuSans-30" transform="translate(190.869141 0)"/>
      </g>
     </g>
    </g>
    <g id="text_7">
     <!-- Frequency (Hz) -->
     <g transform="translate(269.173438 272.354687) scale(0.1 -0.1)">
      <defs>
       <path id="DejaVuSans-46" d="M 628 4666 
L 3309 4666 
L 3309 4134 
L 1259 4134 
L 1259 2759 
L 3109 2759 
L 3109 2228 
L 1259 2228 
L 1259 0 
L 628 0 
L 628 4666 
z
" transform="scale(0.015625)"/>
       <path id="DejaVuSans-72" d="M 2631 2963 
Q 2534 3019 2420 3045 
Q 2306 3072 2169 3072 
Q 1681 3072 1420 2755 
Q 1159 2438 1159 1844 
L 1159 0 
L 581 0 
L 581 3500 
L 1159 3500 
L 1159 2956 
Q 1341 3275 1631 3429 
Q 1922 3584 2338 3584 
Q 2397 3584 2469 3576 
Q 2541 3569 2628 3553 
L 2631 2963 
z
" transform="scale(0.015625)"/>
       <path id="DejaVuSans-65" d="M 3597 1894 
L 3597 1613 
L 953 1613 
Q 991 1019 1311 708 
Q 1631 397 2203 397 
Q 2534 397 2845 478 
Q 3156 559 3463 722 
L 3463 178 
Q 3153 47 2828 -22 
Q 2503 -91 2169 -91 
Q 1331 -91 842 396 
Q 353 884 353 1716 
Q 353 2575 817 3079 
Q 1281 3584 2069 3584 
Q 2775 3584 3186 3129 
Q 3597 2675 3597 1894 
z
M 3022 2063 
Q 3016 2534 2758 2815 
Q 2500 3097 2075 3097 
Q 1594 3097 1305 2825 
Q 1016 2553 972 2059 
L 3022 2063 
z
" transform="scale(0.015625)"/>
       <path id="DejaVuSans-71" d="M 947 1747 
Q 947 1113 1208 752 
Q 1469 391 1925 391 
Q 2381 391 2643 752 
Q 2906 1113 2906 1747 
Q 2906 2381 2643 2742 
Q 2381 3103 1925 3103 
Q 1469 3103 1208 2742 
Q 947 2381 947 1747 
z
M 2906 525 
Q 2725 213 2448 61 
Q 2172 -91 1784 -91 
Q 1150 -91 751 415 
Q 353 922 353 1747 
Q 353 2572 751 3078 
Q 1150 3584 1784 3584 
Q 2172 3584 2448 3432 
Q 2725 3281 2906 2969 
L 2906 3500 
L 3481 3500 
L 3481 -1331 
L 2906 -1331 
L 2906 525 
z
" transform="scale(0.015625)"/>
       <path id="DejaVuSans-75" d="M 544 1381 
L 544 3500 
L 1119 3500 
L 1119 1403 
Q 1119 906 1312 657 
Q 1506 409 1894 409 
Q 2359 409 2629 706 
Q 2900 1003 2900 1516 
L 2900 3500 
L 3475 3500 
L 3475 0 
L 2900 0 
L 2900 538 
Q 2691 219 2414 64 
Q 2138 -91 1772 -91 
Q 1169 -91 856 284 
Q 544 659 544 1381 
z
M 1991 3584 
L 1991 3584 
z
" transform="scale(0.015625)"/>
       <path id="DejaVuSans-6e" d="M 3513 2113 
L 3513 0 
L 2938 0 
L 2938 2094 
Q 2938 2591 2744 2837 
Q 2550 3084 2163 3084 
Q 1697 3084 1428 2787 
Q 1159 2491 1159 1978 
L 1159 0 
L 581 0 
L 581 3500 
L 1159 3500 
L 1159 2956 
Q 1366 3272 1645 3428 
Q 1925 3584 2291 3584 
Q 2894 3584 3203 3211 
Q 3513 2838 3513 2113 
z
" transform="scale(0.015625)"/>
       <path id="DejaVuSans-63" d="M 3122 3366 
L 3122 2828 
Q 2878 2963 2633 3030 
Q 2388 3097 2138 3097 
Q 1578 3097 1268 2742 
Q 959 2388 959 1747 
Q 959 1106 1268 751 
Q 1578 397 2138 397 
Q 2388 397 2633 464 
Q 2878 531 3122 666 
L 3122 134 
Q 2881 22 2623 -34 
Q 2366 -91 2075 -91 
Q 1284 -91 818 406 
Q 353 903 353 1747 
Q 353 2603 823 3093 
Q 1294 3584 2113 3584 
Q 2378 3584 2631 3529 
Q 2884 3475 3122 3366 
z
" transform="scale(0.015625)"/>
       <path id="DejaVuSans-79" d="M 2059 -325 
Q 1816 -950 1584 -1140 
Q 1353 -1331 966 -1331 
L 506 -1331 
L 506 -850 
L 844 -850 
Q 1081 -850 1212 -737 
Q 1344 -625 1503 -206 
L 1606 56 
L 191 3500 
L 800 3500 
L 1894 763 
L 2988 3500 
L 3597 3500 
L 2059 -325 
z
" transform="scale(0.015625)"/>
       <path id="DejaVuSans-20" transform="scale(0.015625)"/>
       <path id="DejaVuSans-28" d="M 1984 4856 
Q 1566 4138 1362 3434 
Q 1159 2731 1159 2009 
Q 1159 1288 1364 580 
Q 1569 -128 1984 -844 
L 1484 -844 
Q 1016 -109 783 600 
Q 550 1309 550 2009 
Q 550 2706 781 3412 
Q 1013 4119 1484 4856 
L 1984 4856 
z
" transform="scale(0.015625)"/>
       <path id="DejaVuSans-48" d="M 628 4666 
L 1259 4666 
L 1259 2753 
L 3553 2753 
L 3553 4666 
L 4184 4666 
L 4184 0 
L 3553 0 
L 3553 2222 
L 1259 2222 
L 1259 0 
L 628 0 
L 628 4666 
z
" transform="scale(0.015625)"/>
       <path id="DejaVuSans-7a" d="M 353 3500 
L 3084 3500 
L 3084 2975 
L 922 459 
L 3084 459 
L 3084 0 
L 275 0 
L 275 525 
L 2438 3041 
L 353 3041 
L 353 3500 
z
" transform="scale(0.015625)"/>
       <path id="DejaVuSans-29" d="M 513 4856 
L 1013 4856 
Q 1481 4119 1714 3412 
Q 1947 2706 1947 2009 
Q 1947 1309 1714 600 
Q 1481 -109 1013 -844 
L 513 -844 
Q 928 -128 1133 580 
Q 1338 1288 1338 2009 
Q 1338 2731 1133 3434 
Q 928 4138 513 4856 
z
" transform="scale(0.015625)"/>
      </defs>
      <use xlink:href="#DejaVuSans-46"/>
      <use xlink:href="#DejaVuSans-72" transform="translate(50.269531 0)"/>
      <use xlink:href="#DejaVuSans-65" transform="translate(89.132812 0)"/>
      <use xlink:href="#DejaVuSans-71" transform="translate(150.65625 0)"/>
      <use xlink:href="#DejaVuSans-75" transform="translate(214.132812 0)"/>
      <use xlink:href="#DejaVuSans-65" transform="translate(277.511719 0)"/>
      <use xlink:href="#DejaVuSans-6e" transform="translate(339.035156 0)"/>
      <use xlink:href="#DejaVuSans-63" transform="translate(402.414062 0)"/>
      <use xlink:href="#DejaVuSans-79" transform="translate(457.394531 0)"/>
      <use xlink:href="#DejaVuSans-20" transform="translate(516.574219 0)"/>
      <use xlink:href="#DejaVuSans-28" transform="translate(548.361328 0)"/>
      <use xlink:href="#DejaVuSans-48" transform="translate(587.375 0)"/>
      <use xlink:href="#DejaVuSans-7a" transform="translate(662.570312 0)"/>
      <use xlink:href="#DejaVuSans-29" transform="translate(715.060547 0)"/>
     </g>
    </g>
   </g>
   <g id="matplotlib.axis_2">
    <g id="ytick_1">
     <g id="line2d_13">
      <path d="M 55.778125 241.441079 
L 557.978125 241.441079 
" clip-path="url(#p9c9404410f)" style="fill: none; stroke: #b0b0b0; stroke-opacity: 0.25; stroke-width: 0.8; stroke-linecap: square"/>
     </g>
     <g id="line2d_14">
      <defs>
       <path id="mff13f71906" d="M 0 0 
L -3.5 0 
" style="stroke: #000000; stroke-width: 0.8"/>
      </defs>
      <g>
       <use xlink:href="#mff13f71906" x="55.778125" y="241.441079" style="stroke: #000000; stroke-width: 0.8"/>
      </g>
     </g>
     <g id="text_8">
      <!-- $\mathdefault{10^{-15}}$ -->
      <g transform="translate(20.878125 245.240298) scale(0.1 -0.1)">
       <defs>
        <path id="DejaVuSans-2212" d="M 678 2272 
L 4684 2272 
L 4684 1741 
L 678 1741 
L 678 2272 
z
" transform="scale(0.015625)"/>
       </defs>
       <use xlink:href="#DejaVuSans-31" transform="translate(0 0.684375)"/>
       <use xlink:href="#DejaVuSans-30" transform="translate(63.623047 0.684375)"/>
       <use xlink:href="#DejaVuSans-2212" transform="translate(128.203125 38.965625) scale(0.7)"/>
       <use xlink:href="#DejaVuSans-31" transform="translate(186.855469 38.965625) scale(0.7)"/>
       <use xlink:href="#DejaVuSans-35" transform="translate(231.391602 38.965625) scale(0.7)"/>
      </g>
     </g>
    </g>
    <g id="ytick_2">
     <g id="line2d_15">
      <path d="M 55.778125 208.234149 
L 557.978125 208.234149 
" clip-path="url(#p9c9404410f)" style="fill: none; stroke: #b0b0b0; stroke-opacity: 0.25; stroke-width: 0.8; stroke-linecap: square"/>
     </g>
     <g id="line2d_16">
      <g>
       <use xlink:href="#mff13f71906" x="55.778125" y="208.234149" style="stroke: #000000; stroke-width: 0.8"/>
      </g>
     </g>
     <g id="text_9">
      <!-- $\mathdefault{10^{-14}}$ -->
      <g transform="translate(20.878125 212.033368) scale(0.1 -0.1)">
       <use xlink:href="#DejaVuSans-31" transform="translate(0 0.684375)"/>
       <use xlink:href="#DejaVuSans-30" transform="translate(63.623047 0.684375)"/>
       <use xlink:href="#DejaVuSans-2212" transform="translate(128.203125 38.965625) scale(0.7)"/>
       <use xlink:href="#DejaVuSans-31" transform="translate(186.855469 38.965625) scale(0.7)"/>
       <use xlink:href="#DejaVuSans-34" transform="translate(231.391602 38.965625) scale(0.7)"/>
      </g>
     </g>
    </g>
    <g id="ytick_3">
     <g id="line2d_17">
      <path d="M 55.778125 175.02722 
L 557.978125 175.02722 
" clip-path="url(#p9c9404410f)" style="fill: none; stroke: #b0b0b0; stroke-opacity: 0.25; stroke-width: 0.8; stroke-linecap: square"/>
     </g>
     <g id="line2d_18">
      <g>
       <use xlink:href="#mff13f71906" x="55.778125" y="175.02722" style="stroke: #000000; stroke-width: 0.8"/>
      </g>
     </g>
     <g id="text_10">
      <!-- $\mathdefault{10^{-13}}$ -->
      <g transform="translate(20.878125 178.826438) scale(0.1 -0.1)">
       <use xlink:href="#DejaVuSans-31" transform="translate(0 0.765625)"/>
       <use xlink:href="#DejaVuSans-30" transform="translate(63.623047 0.765625)"/>
       <use xlink:href="#DejaVuSans-2212" transform="translate(128.203125 39.046875) scale(0.7)"/>
       <use xlink:href="#DejaVuSans-31" transform="translate(186.855469 39.046875) scale(0.7)"/>
       <use xlink:href="#DejaVuSans-33" transform="translate(231.391602 39.046875) scale(0.7)"/>
      </g>
     </g>
    </g>
    <g id="ytick_4">
     <g id="line2d_19">
      <path d="M 55.778125 141.82029 
L 557.978125 141.82029 
" clip-path="url(#p9c9404410f)" style="fill: none; stroke: #b0b0b0; stroke-opacity: 0.25; stroke-width: 0.8; stroke-linecap: square"/>
     </g>
     <g id="line2d_20">
      <g>
       <use xlink:href="#mff13f71906" x="55.778125" y="141.82029" style="stroke: #000000; stroke-width: 0.8"/>
      </g>
     </g>
     <g id="text_11">
      <!-- $\mathdefault{10^{-12}}$ -->
      <g transform="translate(20.878125 145.619509) scale(0.1 -0.1)">
       <use xlink:href="#DejaVuSans-31" transform="translate(0 0.765625)"/>
       <use xlink:href="#DejaVuSans-30" transform="translate(63.623047 0.765625)"/>
       <use xlink:href="#DejaVuSans-2212" transform="translate(128.203125 39.046875) scale(0.7)"/>
       <use xlink:href="#DejaVuSans-31" transform="translate(186.855469 39.046875) scale(0.7)"/>
       <use xlink:href="#DejaVuSans-32" transform="translate(231.391602 39.046875) scale(0.7)"/>
      </g>
     </g>
    </g>
    <g id="ytick_5">
     <g id="line2d_21">
      <path d="M 55.778125 108.61336 
L 557.978125 108.61336 
" clip-path="url(#p9c9404410f)" style="fill: none; stroke: #b0b0b0; stroke-opacity: 0.25; stroke-width: 0.8; stroke-linecap: square"/>
     </g>
     <g id="line2d_22">
      <g>
       <use xlink:href="#mff13f71906" x="55.778125" y="108.61336" style="stroke: #000000; stroke-width: 0.8"/>
      </g>
     </g>
     <g id="text_12">
      <!-- $\mathdefault{10^{-11}}$ -->
      <g transform="translate(20.878125 112.412579) scale(0.1 -0.1)">
       <use xlink:href="#DejaVuSans-31" transform="translate(0 0.684375)"/>
       <use xlink:href="#DejaVuSans-30" transform="translate(63.623047 0.684375)"/>
       <use xlink:href="#DejaVuSans-2212" transform="translate(128.203125 38.965625) scale(0.7)"/>
       <use xlink:href="#DejaVuSans-31" transform="translate(186.855469 38.965625) scale(0.7)"/>
       <use xlink:href="#DejaVuSans-31" transform="translate(231.391602 38.965625) scale(0.7)"/>
      </g>
     </g>
    </g>
    <g id="ytick_6">
     <g id="line2d_23">
      <path d="M 55.778125 75.40643 
L 557.978125 75.40643 
" clip-path="url(#p9c9404410f)" style="fill: none; stroke: #b0b0b0; stroke-opacity: 0.25; stroke-width: 0.8; stroke-linecap: square"/>
     </g>
     <g id="line2d_24">
      <g>
       <use xlink:href="#mff13f71906" x="55.778125" y="75.40643" style="stroke: #000000; stroke-width: 0.8"/>
      </g>
     </g>
     <g id="text_13">
      <!-- $\mathdefault{10^{-10}}$ -->
      <g transform="translate(20.878125 79.205649) scale(0.1 -0.1)">
       <use xlink:href="#DejaVuSans-31" transform="translate(0 0.765625)"/>
       <use xlink:href="#DejaVuSans-30" transform="translate(63.623047 0.765625)"/>
       <use xlink:href="#DejaVuSans-2212" transform="translate(128.203125 39.046875) scale(0.7)"/>
       <use xlink:href="#DejaVuSans-31" transform="translate(186.855469 39.046875) scale(0.7)"/>
       <use xlink:href="#DejaVuSans-30" transform="translate(231.391602 39.046875) scale(0.7)"/>
      </g>
     </g>
    </g>
    <g id="ytick_7">
     <g id="line2d_25">
      <path d="M 55.778125 42.199501 
L 557.978125 42.199501 
" clip-path="url(#p9c9404410f)" style="fill: none; stroke: #b0b0b0; stroke-opacity: 0.25; stroke-width: 0.8; stroke-linecap: square"/>
     </g>
     <g id="line2d_26">
      <g>
       <use xlink:href="#mff13f71906" x="55.778125" y="42.199501" style="stroke: #000000; stroke-width: 0.8"/>
      </g>
     </g>
     <g id="text_14">
      <!-- $\mathdefault{10^{-9}}$ -->
      <g transform="translate(25.278125 45.998719) scale(0.1 -0.1)">
       <defs>
        <path id="DejaVuSans-39" d="M 703 97 
L 703 672 
Q 941 559 1184 500 
Q 1428 441 1663 441 
Q 2288 441 2617 861 
Q 2947 1281 2994 2138 
Q 2813 1869 2534 1725 
Q 2256 1581 1919 1581 
Q 1219 1581 811 2004 
Q 403 2428 403 3163 
Q 403 3881 828 4315 
Q 1253 4750 1959 4750 
Q 2769 4750 3195 4129 
Q 3622 3509 3622 2328 
Q 3622 1225 3098 567 
Q 2575 -91 1691 -91 
Q 1453 -91 1209 -44 
Q 966 3 703 97 
z
M 1959 2075 
Q 2384 2075 2632 2365 
Q 2881 2656 2881 3163 
Q 2881 3666 2632 3958 
Q 2384 4250 1959 4250 
Q 1534 4250 1286 3958 
Q 1038 3666 1038 3163 
Q 1038 2656 1286 2365 
Q 1534 2075 1959 2075 
z
" transform="scale(0.015625)"/>
       </defs>
       <use xlink:href="#DejaVuSans-31" transform="translate(0 0.765625)"/>
       <use xlink:href="#DejaVuSans-30" transform="translate(63.623047 0.765625)"/>
       <use xlink:href="#DejaVuSans-2212" transform="translate(128.203125 39.046875) scale(0.7)"/>
       <use xlink:href="#DejaVuSans-39" transform="translate(186.855469 39.046875) scale(0.7)"/>
      </g>
     </g>
    </g>
    <g id="ytick_8">
     <g id="line2d_27">
      <defs>
       <path id="m510d5af440" d="M 0 0 
L -2 0 
" style="stroke: #000000; stroke-width: 0.6"/>
      </defs>
      <g>
       <use xlink:href="#m510d5af440" x="55.778125" y="242.960545" style="stroke: #000000; stroke-width: 0.6"/>
      </g>
     </g>
    </g>
    <g id="ytick_9">
     <g id="line2d_28">
      <g>
       <use xlink:href="#m510d5af440" x="55.778125" y="231.444797" style="stroke: #000000; stroke-width: 0.6"/>
      </g>
     </g>
    </g>
    <g id="ytick_10">
     <g id="line2d_29">
      <g>
       <use xlink:href="#m510d5af440" x="55.778125" y="225.597347" style="stroke: #000000; stroke-width: 0.6"/>
      </g>
     </g>
    </g>
    <g id="ytick_11">
     <g id="line2d_30">
      <g>
       <use xlink:href="#m510d5af440" x="55.778125" y="221.448515" style="stroke: #000000; stroke-width: 0.6"/>
      </g>
     </g>
    </g>
    <g id="ytick_12">
     <g id="line2d_31">
      <g>
       <use xlink:href="#m510d5af440" x="55.778125" y="218.230431" style="stroke: #000000; stroke-width: 0.6"/>
      </g>
     </g>
    </g>
    <g id="ytick_13">
     <g id="line2d_32">
      <g>
       <use xlink:href="#m510d5af440" x="55.778125" y="215.601065" style="stroke: #000000; stroke-width: 0.6"/>
      </g>
     </g>
    </g>
    <g id="ytick_14">
     <g id="line2d_33">
      <g>
       <use xlink:href="#m510d5af440" x="55.778125" y="213.377968" style="stroke: #000000; stroke-width: 0.6"/>
      </g>
     </g>
    </g>
    <g id="ytick_15">
     <g id="line2d_34">
      <g>
       <use xlink:href="#m510d5af440" x="55.778125" y="211.452233" style="stroke: #000000; stroke-width: 0.6"/>
      </g>
     </g>
    </g>
    <g id="ytick_16">
     <g id="line2d_35">
      <g>
       <use xlink:href="#m510d5af440" x="55.778125" y="209.753615" style="stroke: #000000; stroke-width: 0.6"/>
      </g>
     </g>
    </g>
    <g id="ytick_17">
     <g id="line2d_36">
      <g>
       <use xlink:href="#m510d5af440" x="55.778125" y="198.237867" style="stroke: #000000; stroke-width: 0.6"/>
      </g>
     </g>
    </g>
    <g id="ytick_18">
     <g id="line2d_37">
      <g>
       <use xlink:href="#m510d5af440" x="55.778125" y="192.390417" style="stroke: #000000; stroke-width: 0.6"/>
      </g>
     </g>
    </g>
    <g id="ytick_19">
     <g id="line2d_38">
      <g>
       <use xlink:href="#m510d5af440" x="55.778125" y="188.241585" style="stroke: #000000; stroke-width: 0.6"/>
      </g>
     </g>
    </g>
    <g id="ytick_20">
     <g id="line2d_39">
      <g>
       <use xlink:href="#m510d5af440" x="55.778125" y="185.023501" style="stroke: #000000; stroke-width: 0.6"/>
      </g>
     </g>
    </g>
    <g id="ytick_21">
     <g id="line2d_40">
      <g>
       <use xlink:href="#m510d5af440" x="55.778125" y="182.394135" style="stroke: #000000; stroke-width: 0.6"/>
      </g>
     </g>
    </g>
    <g id="ytick_22">
     <g id="line2d_41">
      <g>
       <use xlink:href="#m510d5af440" x="55.778125" y="180.171038" style="stroke: #000000; stroke-width: 0.6"/>
      </g>
     </g>
    </g>
    <g id="ytick_23">
     <g id="line2d_42">
      <g>
       <use xlink:href="#m510d5af440" x="55.778125" y="178.245304" style="stroke: #000000; stroke-width: 0.6"/>
      </g>
     </g>
    </g>
    <g id="ytick_24">
     <g id="line2d_43">
      <g>
       <use xlink:href="#m510d5af440" x="55.778125" y="176.546685" style="stroke: #000000; stroke-width: 0.6"/>
      </g>
     </g>
    </g>
    <g id="ytick_25">
     <g id="line2d_44">
      <g>
       <use xlink:href="#m510d5af440" x="55.778125" y="165.030938" style="stroke: #000000; stroke-width: 0.6"/>
      </g>
     </g>
    </g>
    <g id="ytick_26">
     <g id="line2d_45">
      <g>
       <use xlink:href="#m510d5af440" x="55.778125" y="159.183488" style="stroke: #000000; stroke-width: 0.6"/>
      </g>
     </g>
    </g>
    <g id="ytick_27">
     <g id="line2d_46">
      <g>
       <use xlink:href="#m510d5af440" x="55.778125" y="155.034656" style="stroke: #000000; stroke-width: 0.6"/>
      </g>
     </g>
    </g>
    <g id="ytick_28">
     <g id="line2d_47">
      <g>
       <use xlink:href="#m510d5af440" x="55.778125" y="151.816572" style="stroke: #000000; stroke-width: 0.6"/>
      </g>
     </g>
    </g>
    <g id="ytick_29">
     <g id="line2d_48">
      <g>
       <use xlink:href="#m510d5af440" x="55.778125" y="149.187206" style="stroke: #000000; stroke-width: 0.6"/>
      </g>
     </g>
    </g>
    <g id="ytick_30">
     <g id="line2d_49">
      <g>
       <use xlink:href="#m510d5af440" x="55.778125" y="146.964108" style="stroke: #000000; stroke-width: 0.6"/>
      </g>
     </g>
    </g>
    <g id="ytick_31">
     <g id="line2d_50">
      <g>
       <use xlink:href="#m510d5af440" x="55.778125" y="145.038374" style="stroke: #000000; stroke-width: 0.6"/>
      </g>
     </g>
    </g>
    <g id="ytick_32">
     <g id="line2d_51">
      <g>
       <use xlink:href="#m510d5af440" x="55.778125" y="143.339756" style="stroke: #000000; stroke-width: 0.6"/>
      </g>
     </g>
    </g>
    <g id="ytick_33">
     <g id="line2d_52">
      <g>
       <use xlink:href="#m510d5af440" x="55.778125" y="131.824008" style="stroke: #000000; stroke-width: 0.6"/>
      </g>
     </g>
    </g>
    <g id="ytick_34">
     <g id="line2d_53">
      <g>
       <use xlink:href="#m510d5af440" x="55.778125" y="125.976558" style="stroke: #000000; stroke-width: 0.6"/>
      </g>
     </g>
    </g>
    <g id="ytick_35">
     <g id="line2d_54">
      <g>
       <use xlink:href="#m510d5af440" x="55.778125" y="121.827726" style="stroke: #000000; stroke-width: 0.6"/>
      </g>
     </g>
    </g>
    <g id="ytick_36">
     <g id="line2d_55">
      <g>
       <use xlink:href="#m510d5af440" x="55.778125" y="118.609642" style="stroke: #000000; stroke-width: 0.6"/>
      </g>
     </g>
    </g>
    <g id="ytick_37">
     <g id="line2d_56">
      <g>
       <use xlink:href="#m510d5af440" x="55.778125" y="115.980276" style="stroke: #000000; stroke-width: 0.6"/>
      </g>
     </g>
    </g>
    <g id="ytick_38">
     <g id="line2d_57">
      <g>
       <use xlink:href="#m510d5af440" x="55.778125" y="113.757179" style="stroke: #000000; stroke-width: 0.6"/>
      </g>
     </g>
    </g>
    <g id="ytick_39">
     <g id="line2d_58">
      <g>
       <use xlink:href="#m510d5af440" x="55.778125" y="111.831444" style="stroke: #000000; stroke-width: 0.6"/>
      </g>
     </g>
    </g>
    <g id="ytick_40">
     <g id="line2d_59">
      <g>
       <use xlink:href="#m510d5af440" x="55.778125" y="110.132826" style="stroke: #000000; stroke-width: 0.6"/>
      </g>
     </g>
    </g>
    <g id="ytick_41">
     <g id="line2d_60">
      <g>
       <use xlink:href="#m510d5af440" x="55.778125" y="98.617078" style="stroke: #000000; stroke-width: 0.6"/>
      </g>
     </g>
    </g>
    <g id="ytick_42">
     <g id="line2d_61">
      <g>
       <use xlink:href="#m510d5af440" x="55.778125" y="92.769628" style="stroke: #000000; stroke-width: 0.6"/>
      </g>
     </g>
    </g>
    <g id="ytick_43">
     <g id="line2d_62">
      <g>
       <use xlink:href="#m510d5af440" x="55.778125" y="88.620796" style="stroke: #000000; stroke-width: 0.6"/>
      </g>
     </g>
    </g>
    <g id="ytick_44">
     <g id="line2d_63">
      <g>
       <use xlink:href="#m510d5af440" x="55.778125" y="85.402712" style="stroke: #000000; stroke-width: 0.6"/>
      </g>
     </g>
    </g>
    <g id="ytick_45">
     <g id="line2d_64">
      <g>
       <use xlink:href="#m510d5af440" x="55.778125" y="82.773346" style="stroke: #000000; stroke-width: 0.6"/>
      </g>
     </g>
    </g>
    <g id="ytick_46">
     <g id="line2d_65">
      <g>
       <use xlink:href="#m510d5af440" x="55.778125" y="80.550249" style="stroke: #000000; stroke-width: 0.6"/>
      </g>
     </g>
    </g>
    <g id="ytick_47">
     <g id="line2d_66">
      <g>
       <use xlink:href="#m510d5af440" x="55.778125" y="78.624514" style="stroke: #000000; stroke-width: 0.6"/>
      </g>
     </g>
    </g>
    <g id="ytick_48">
     <g id="line2d_67">
      <g>
       <use xlink:href="#m510d5af440" x="55.778125" y="76.925896" style="stroke: #000000; stroke-width: 0.6"/>
      </g>
     </g>
    </g>
    <g id="ytick_49">
     <g id="line2d_68">
      <g>
       <use xlink:href="#m510d5af440" x="55.778125" y="65.410149" style="stroke: #000000; stroke-width: 0.6"/>
      </g>
     </g>
    </g>
    <g id="ytick_50">
     <g id="line2d_69">
      <g>
       <use xlink:href="#m510d5af440" x="55.778125" y="59.562698" style="stroke: #000000; stroke-width: 0.6"/>
      </g>
     </g>
    </g>
    <g id="ytick_51">
     <g id="line2d_70">
      <g>
       <use xlink:href="#m510d5af440" x="55.778125" y="55.413867" style="stroke: #000000; stroke-width: 0.6"/>
      </g>
     </g>
    </g>
    <g id="ytick_52">
     <g id="line2d_71">
      <g>
       <use xlink:href="#m510d5af440" x="55.778125" y="52.195783" style="stroke: #000000; stroke-width: 0.6"/>
      </g>
     </g>
    </g>
    <g id="ytick_53">
     <g id="line2d_72">
      <g>
       <use xlink:href="#m510d5af440" x="55.778125" y="49.566417" style="stroke: #000000; stroke-width: 0.6"/>
      </g>
     </g>
    </g>
    <g id="ytick_54">
     <g id="line2d_73">
      <g>
       <use xlink:href="#m510d5af440" x="55.778125" y="47.343319" style="stroke: #000000; stroke-width: 0.6"/>
      </g>
     </g>
    </g>
    <g id="ytick_55">
     <g id="line2d_74">
      <g>
       <use xlink:href="#m510d5af440" x="55.778125" y="45.417585" style="stroke: #000000; stroke-width: 0.6"/>
      </g>
     </g>
    </g>
    <g id="ytick_56">
     <g id="line2d_75">
      <g>
       <use xlink:href="#m510d5af440" x="55.778125" y="43.718967" style="stroke: #000000; stroke-width: 0.6"/>
      </g>
     </g>
    </g>
    <g id="ytick_57">
     <g id="line2d_76">
      <g>
       <use xlink:href="#m510d5af440" x="55.778125" y="32.203219" style="stroke: #000000; stroke-width: 0.6"/>
      </g>
     </g>
    </g>
    <g id="ytick_58">
     <g id="line2d_77">
      <g>
       <use xlink:href="#m510d5af440" x="55.778125" y="26.355769" style="stroke: #000000; stroke-width: 0.6"/>
      </g>
     </g>
    </g>
    <g id="text_15">
     <!-- PSD (unit²/Hz) -->
     <g transform="translate(14.798438 168.487969) rotate(-90) scale(0.1 -0.1)">
      <defs>
       <path id="DejaVuSans-50" d="M 1259 4147 
L 1259 2394 
L 2053 2394 
Q 2494 2394 2734 2622 
Q 2975 2850 2975 3272 
Q 2975 3691 2734 3919 
Q 2494 4147 2053 4147 
L 1259 4147 
z
M 628 4666 
L 2053 4666 
Q 2838 4666 3239 4311 
Q 3641 3956 3641 3272 
Q 3641 2581 3239 2228 
Q 2838 1875 2053 1875 
L 1259 1875 
L 1259 0 
L 628 0 
L 628 4666 
z
" transform="scale(0.015625)"/>
       <path id="DejaVuSans-53" d="M 3425 4513 
L 3425 3897 
Q 3066 4069 2747 4153 
Q 2428 4238 2131 4238 
Q 1616 4238 1336 4038 
Q 1056 3838 1056 3469 
Q 1056 3159 1242 3001 
Q 1428 2844 1947 2747 
L 2328 2669 
Q 3034 2534 3370 2195 
Q 3706 1856 3706 1288 
Q 3706 609 3251 259 
Q 2797 -91 1919 -91 
Q 1588 -91 1214 -16 
Q 841 59 441 206 
L 441 856 
Q 825 641 1194 531 
Q 1563 422 1919 422 
Q 2459 422 2753 634 
Q 3047 847 3047 1241 
Q 3047 1584 2836 1778 
Q 2625 1972 2144 2069 
L 1759 2144 
Q 1053 2284 737 2584 
Q 422 2884 422 3419 
Q 422 4038 858 4394 
Q 1294 4750 2059 4750 
Q 2388 4750 2728 4690 
Q 3069 4631 3425 4513 
z
" transform="scale(0.015625)"/>
       <path id="DejaVuSans-44" d="M 1259 4147 
L 1259 519 
L 2022 519 
Q 2988 519 3436 956 
Q 3884 1394 3884 2338 
Q 3884 3275 3436 3711 
Q 2988 4147 2022 4147 
L 1259 4147 
z
M 628 4666 
L 1925 4666 
Q 3281 4666 3915 4102 
Q 4550 3538 4550 2338 
Q 4550 1131 3912 565 
Q 3275 0 1925 0 
L 628 0 
L 628 4666 
z
" transform="scale(0.015625)"/>
       <path id="DejaVuSans-69" d="M 603 3500 
L 1178 3500 
L 1178 0 
L 603 0 
L 603 3500 
z
M 603 4863 
L 1178 4863 
L 1178 4134 
L 603 4134 
L 603 4863 
z
" transform="scale(0.015625)"/>
       <path id="DejaVuSans-74" d="M 1172 4494 
L 1172 3500 
L 2356 3500 
L 2356 3053 
L 1172 3053 
L 1172 1153 
Q 1172 725 1289 603 
Q 1406 481 1766 481 
L 2356 481 
L 2356 0 
L 1766 0 
Q 1100 0 847 248 
Q 594 497 594 1153 
L 594 3053 
L 172 3053 
L 172 3500 
L 594 3500 
L 594 4494 
L 1172 4494 
z
" transform="scale(0.015625)"/>
       <path id="DejaVuSans-b2" d="M 838 2444 
L 2163 2444 
L 2163 2088 
L 294 2088 
L 294 2431 
Q 400 2528 597 2703 
Q 1672 3656 1672 3950 
Q 1672 4156 1509 4282 
Q 1347 4409 1081 4409 
Q 919 4409 728 4354 
Q 538 4300 313 4191 
L 313 4575 
Q 553 4663 761 4706 
Q 969 4750 1147 4750 
Q 1600 4750 1872 4544 
Q 2144 4338 2144 4000 
Q 2144 3566 1109 2678 
Q 934 2528 838 2444 
z
" transform="scale(0.015625)"/>
       <path id="DejaVuSans-2f" d="M 1625 4666 
L 2156 4666 
L 531 -594 
L 0 -594 
L 1625 4666 
z
" transform="scale(0.015625)"/>
      </defs>
      <use xlink:href="#DejaVuSans-50"/>
      <use xlink:href="#DejaVuSans-53" transform="translate(60.302734 0)"/>
      <use xlink:href="#DejaVuSans-44" transform="translate(123.779297 0)"/>
      <use xlink:href="#DejaVuSans-20" transform="translate(200.78125 0)"/>
      <use xlink:href="#DejaVuSans-28" transform="translate(232.568359 0)"/>
      <use xlink:href="#DejaVuSans-75" transform="translate(271.582031 0)"/>
      <use xlink:href="#DejaVuSans-6e" transform="translate(334.960938 0)"/>
      <use xlink:href="#DejaVuSans-69" transform="translate(398.339844 0)"/>
      <use xlink:href="#DejaVuSans-74" transform="translate(426.123047 0)"/>
      <use xlink:href="#DejaVuSans-b2" transform="translate(465.332031 0)"/>
      <use xlink:href="#DejaVuSans-2f" transform="translate(505.419922 0)"/>
      <use xlink:href="#DejaVuSans-48" transform="translate(539.111328 0)"/>
      <use xlink:href="#DejaVuSans-7a" transform="translate(614.306641 0)"/>
      <use xlink:href="#DejaVuSans-29" transform="translate(666.796875 0)"/>
     </g>
    </g>
   </g>
   <g id="line2d_78">
    <path d="M 78.605398 128.240812 
L 79.497088 111.332533 
L 80.388778 110.599795 
L 81.280469 109.492663 
L 82.172159 106.775837 
L 83.063849 108.597919 
L 83.95554 110.920646 
L 84.84723 113.625133 
L 85.73892 117.123278 
L 86.630611 120.115333 
L 87.522301 121.072501 
L 88.413991 75.990293 
L 89.305682 43.683476 
L 90.197372 51.796594 
L 91.089063 102.653072 
L 91.980753 115.371429 
L 92.872443 122.027081 
L 93.764134 124.386445 
L 94.655824 118.68144 
L 95.547514 122.961832 
L 96.439205 128.186679 
L 98.222585 112.986608 
L 99.114276 111.942268 
L 100.005966 106.498536 
L 100.897656 104.093366 
L 101.789347 106.314041 
L 102.681037 100.676561 
L 103.572727 98.138209 
L 104.464418 112.579417 
L 105.356108 116.520539 
L 106.247798 113.7079 
L 108.031179 133.946797 
L 108.922869 133.308633 
L 109.81456 124.849427 
L 110.70625 110.581729 
L 111.59794 102.839357 
L 112.489631 114.584221 
L 113.381321 120.841386 
L 114.273011 114.924849 
L 116.056392 123.566806 
L 116.948082 120.980159 
L 117.839773 120.154861 
L 118.731463 115.839212 
L 119.623153 113.322891 
L 120.514844 117.586993 
L 121.406534 113.423195 
L 122.298224 104.801542 
L 123.189915 112.148173 
L 124.081605 124.481535 
L 124.973295 113.366087 
L 125.864986 110.392464 
L 126.756676 113.131928 
L 129.431747 97.920893 
L 130.323438 95.296365 
L 131.215128 94.614132 
L 132.998509 101.361497 
L 133.890199 105.281788 
L 134.781889 112.48401 
L 135.67358 114.821287 
L 136.56527 108.2868 
L 137.45696 103.745728 
L 138.348651 100.269682 
L 139.240341 99.704322 
L 140.132031 107.388616 
L 141.023722 90.757029 
L 141.915412 67.300319 
L 142.807102 74.559481 
L 143.698793 83.840261 
L 144.590483 77.190062 
L 145.482173 86.839244 
L 146.373864 78.950223 
L 148.157244 77.855544 
L 149.048935 84.262922 
L 149.940625 95.759262 
L 150.832315 87.913019 
L 151.724006 89.850049 
L 152.615696 79.061385 
L 153.507386 80.846874 
L 154.399077 91.401967 
L 155.290767 91.73192 
L 156.182457 90.704306 
L 157.074148 91.307878 
L 157.965838 93.778319 
L 158.857528 95.249444 
L 159.749219 100.348215 
L 160.640909 97.888844 
L 161.532599 95.892513 
L 162.42429 97.597484 
L 163.31598 96.742297 
L 164.20767 102.685794 
L 165.099361 114.041896 
L 165.991051 118.719429 
L 166.882741 108.027645 
L 167.774432 104.93127 
L 168.666122 108.560686 
L 169.557813 101.272726 
L 170.449503 102.371598 
L 171.341193 102.795723 
L 172.232884 106.714541 
L 173.124574 99.235741 
L 174.016264 90.345243 
L 174.907955 71.933313 
L 176.691335 95.298955 
L 177.583026 91.928759 
L 178.474716 91.943233 
L 179.366406 93.161378 
L 180.258097 95.24032 
L 181.149787 94.057586 
L 182.041477 89.599966 
L 182.933168 91.626628 
L 183.824858 97.67574 
L 184.716548 102.090976 
L 185.608239 89.523914 
L 186.499929 90.617099 
L 187.391619 102.483591 
L 188.28331 109.329276 
L 189.175 108.648899 
L 190.06669 110.015423 
L 190.958381 106.37799 
L 191.850071 105.392819 
L 192.741761 105.336566 
L 193.633452 114.874251 
L 194.525142 106.271353 
L 195.416832 110.290269 
L 196.308523 112.672962 
L 197.200213 112.465292 
L 198.091903 115.847739 
L 198.983594 117.165734 
L 199.875284 117.855019 
L 200.766974 112.307181 
L 201.658665 108.248401 
L 202.550355 109.638794 
L 203.442045 111.891667 
L 204.333736 111.827019 
L 205.225426 110.589022 
L 206.117116 114.420466 
L 207.008807 106.600161 
L 207.900497 109.161829 
L 208.792188 106.994592 
L 209.683878 102.465475 
L 211.467259 124.178508 
L 212.358949 122.585517 
L 213.250639 116.928534 
L 214.14233 118.792285 
L 215.03402 119.049299 
L 216.817401 108.925379 
L 217.709091 110.162131 
L 218.600781 118.967279 
L 219.492472 114.914979 
L 220.384162 118.394154 
L 221.275852 115.897878 
L 222.167543 108.705035 
L 223.059233 109.725179 
L 223.950923 121.129578 
L 224.842614 120.616673 
L 226.625994 93.193935 
L 227.517685 92.943885 
L 228.409375 99.476674 
L 230.192756 108.572095 
L 231.084446 115.028915 
L 231.976136 117.619466 
L 232.867827 109.14246 
L 233.759517 107.454425 
L 234.651207 108.557194 
L 235.542898 109.089255 
L 236.434588 108.558289 
L 237.326278 107.674452 
L 238.217969 98.401188 
L 239.109659 96.074101 
L 240.001349 101.417728 
L 240.89304 100.813446 
L 241.78473 106.707372 
L 242.67642 110.808158 
L 243.568111 112.54848 
L 244.459801 115.04617 
L 245.351491 107.011589 
L 246.243182 106.207664 
L 247.134872 102.530365 
L 248.026563 100.305705 
L 248.918253 99.063659 
L 249.809943 97.424733 
L 250.701634 94.013888 
L 251.593324 93.084424 
L 252.485014 93.317954 
L 253.376705 100.996983 
L 254.268395 98.26117 
L 255.160085 91.9819 
L 256.051776 95.673927 
L 256.943466 100.960024 
L 258.726847 89.172889 
L 259.618537 94.184663 
L 260.510227 100.557646 
L 261.401918 90.187059 
L 262.293608 85.844018 
L 263.185298 89.344863 
L 264.076989 89.432062 
L 264.968679 85.14249 
L 265.860369 80.054562 
L 266.75206 79.369084 
L 267.64375 90.569369 
L 268.53544 72.477679 
L 269.427131 68.454658 
L 270.318821 71.37231 
L 271.210511 78.395787 
L 272.102202 77.847283 
L 272.993892 70.702151 
L 273.885582 76.506851 
L 274.777273 80.327203 
L 275.668963 76.260588 
L 276.560653 82.119388 
L 277.452344 71.941145 
L 278.344034 64.712967 
L 279.235724 61.413519 
L 280.127415 56.910349 
L 281.019105 49.014937 
L 281.910795 45.009166 
L 282.802486 44.976196 
L 283.694176 42.446035 
L 284.585866 40.303927 
L 285.477557 44.01053 
L 286.369247 39.267848 
L 287.260938 39.248831 
L 288.152628 37.300084 
L 289.044318 32.398125 
L 289.936009 35.335216 
L 290.827699 39.487894 
L 291.719389 37.200199 
L 292.61108 42.124941 
L 293.50277 46.034538 
L 294.39446 47.70318 
L 295.286151 46.533222 
L 296.177841 44.002059 
L 297.069531 40.969133 
L 297.961222 40.624004 
L 298.852912 44.819827 
L 299.744602 42.084053 
L 300.636293 45.073021 
L 301.527983 38.351696 
L 302.419673 43.838077 
L 303.311364 50.903273 
L 304.203054 48.192608 
L 305.094744 55.276689 
L 305.986435 56.805654 
L 307.769815 65.176247 
L 308.661506 66.364905 
L 309.553196 67.885543 
L 310.444886 63.970111 
L 311.336577 59.129184 
L 312.228267 68.650703 
L 313.119957 63.413642 
L 314.011648 65.357817 
L 315.795028 74.766813 
L 316.686719 74.493052 
L 317.578409 75.276895 
L 318.470099 75.071454 
L 319.36179 76.054461 
L 320.25348 74.761422 
L 322.036861 69.645322 
L 322.928551 72.661484 
L 323.820241 79.079757 
L 324.711932 80.21532 
L 325.603622 79.210179 
L 326.495313 80.985455 
L 327.387003 86.749872 
L 328.278693 82.199829 
L 329.170384 83.612468 
L 330.062074 80.367161 
L 330.953764 82.368221 
L 331.845455 81.667976 
L 332.737145 91.172566 
L 333.628835 91.835456 
L 334.520526 84.371174 
L 335.412216 84.197468 
L 336.303906 92.190694 
L 337.195597 85.249578 
L 338.087287 83.339135 
L 338.978977 83.355485 
L 339.870668 86.574895 
L 340.762358 90.401 
L 341.654048 92.245005 
L 342.545739 90.527238 
L 343.437429 95.591175 
L 344.329119 90.767578 
L 345.22081 95.344142 
L 346.1125 90.260057 
L 347.00419 88.453696 
L 347.895881 93.744429 
L 348.787571 90.33088 
L 350.570952 93.392669 
L 351.462642 93.538046 
L 352.354332 90.037815 
L 353.246023 92.15518 
L 354.137713 99.288286 
L 355.029403 90.525642 
L 355.921094 90.423905 
L 356.812784 90.573977 
L 357.704474 90.009554 
L 358.596165 87.591876 
L 359.487855 86.077694 
L 360.379545 93.979022 
L 361.271236 90.94344 
L 362.162926 89.905036 
L 363.054616 91.489323 
L 363.946307 97.158535 
L 364.837997 99.794988 
L 365.729688 96.431153 
L 366.621378 94.220202 
L 367.513068 93.404718 
L 368.404759 98.00353 
L 369.296449 96.822562 
L 370.188139 100.361829 
L 371.07983 106.260407 
L 371.97152 104.431631 
L 372.86321 100.580353 
L 373.754901 98.256557 
L 374.646591 104.04122 
L 375.538281 101.763197 
L 376.429972 103.859526 
L 377.321662 103.62345 
L 378.213352 99.683848 
L 379.105043 101.977752 
L 379.996733 107.968643 
L 380.888423 107.228551 
L 381.780114 109.198171 
L 382.671804 102.948346 
L 383.563494 95.514366 
L 384.455185 95.212086 
L 385.346875 92.862918 
L 386.238565 93.85014 
L 387.130256 96.426295 
L 388.021946 99.566373 
L 388.913636 98.972303 
L 389.805327 98.707967 
L 390.697017 101.599736 
L 392.480398 114.959268 
L 393.372088 127.489119 
L 394.263778 131.322176 
L 395.155469 130.866367 
L 396.047159 127.743903 
L 396.938849 129.994126 
L 397.83054 132.688706 
L 398.72223 126.240345 
L 399.61392 121.940014 
L 400.505611 119.992235 
L 401.397301 120.528253 
L 402.288991 115.971705 
L 403.180682 113.775954 
L 404.964063 111.986191 
L 405.855753 108.442516 
L 406.747443 106.026149 
L 407.639134 106.862301 
L 408.530824 111.660558 
L 409.422514 113.141883 
L 410.314205 105.224524 
L 411.205895 108.414567 
L 412.097585 108.495286 
L 412.989276 99.415173 
L 413.880966 107.2137 
L 414.772656 107.70712 
L 415.664347 110.426596 
L 416.556037 102.008246 
L 417.447727 102.884214 
L 418.339418 101.713804 
L 419.231108 103.738311 
L 420.122798 102.661901 
L 421.014489 100.304656 
L 421.906179 100.108086 
L 422.797869 93.97464 
L 423.68956 91.009575 
L 424.58125 95.099546 
L 425.47294 94.410111 
L 426.364631 96.398219 
L 427.256321 96.313399 
L 428.148011 100.167769 
L 429.039702 107.244842 
L 429.931392 97.060172 
L 430.823082 89.038333 
L 431.714773 92.190606 
L 432.606463 100.661153 
L 434.389844 99.379147 
L 435.281534 108.244882 
L 436.173224 96.914285 
L 437.064915 91.250717 
L 437.956605 86.872264 
L 438.848295 88.262852 
L 439.739986 95.548714 
L 440.631676 96.380201 
L 441.523366 94.089107 
L 442.415057 91.185731 
L 443.306747 92.040858 
L 444.198438 96.561655 
L 445.090128 95.958322 
L 445.981818 91.16165 
L 446.873509 90.325484 
L 447.765199 95.866625 
L 448.656889 97.389296 
L 449.54858 90.485218 
L 451.33196 102.714355 
L 452.223651 89.353069 
L 453.115341 88.028385 
L 454.007031 103.147844 
L 454.898722 108.280064 
L 455.790412 92.672829 
L 456.682102 93.016037 
L 457.573793 109.186812 
L 458.465483 104.215889 
L 459.357173 92.366304 
L 460.248864 94.650488 
L 461.140554 108.109713 
L 462.032244 107.126497 
L 462.923935 100.99996 
L 463.815625 107.599908 
L 464.707315 109.53973 
L 465.599006 106.622946 
L 466.490696 106.885801 
L 467.382386 113.488556 
L 468.274077 113.563848 
L 469.165767 111.922304 
L 470.057457 116.361666 
L 470.949148 129.327089 
L 471.840838 136.643477 
L 472.732528 141.381984 
L 473.624219 147.305789 
L 474.515909 152.288664 
L 475.407599 148.463292 
L 476.29929 149.488931 
L 477.19098 145.350824 
L 478.08267 142.988136 
L 478.974361 144.239173 
L 479.866051 147.134837 
L 480.757741 150.973355 
L 481.649432 156.075427 
L 482.541122 160.176708 
L 483.432813 161.085225 
L 484.324503 164.536477 
L 485.216193 171.798063 
L 486.107884 175.659416 
L 487.891264 185.010562 
L 489.674645 191.215968 
L 490.566335 194.836675 
L 491.458026 199.762859 
L 492.349716 202.581386 
L 494.133097 210.727019 
L 495.024787 211.365195 
L 495.916477 212.525637 
L 496.808168 216.054931 
L 497.699858 214.00193 
L 498.591548 209.127978 
L 499.483239 214.328131 
L 500.374929 216.194442 
L 501.266619 216.750834 
L 502.15831 217.509347 
L 503.05 222.858332 
L 503.94169 223.091978 
L 504.833381 223.661725 
L 505.725071 221.705839 
L 507.508452 227.500751 
L 508.400142 224.148151 
L 509.291832 225.538558 
L 510.183523 223.855519 
L 511.075213 225.407959 
L 511.966903 224.785822 
L 512.858594 218.842799 
L 513.750284 223.7346 
L 514.641974 215.952139 
L 516.425355 223.856022 
L 517.317045 221.623234 
L 518.208736 221.320165 
L 519.100426 225.532358 
L 519.992116 225.249559 
L 520.883807 219.306885 
L 522.667188 223.028594 
L 524.450568 217.945806 
L 525.342259 219.592155 
L 526.233949 225.146099 
L 527.125639 219.640678 
L 528.01733 216.641328 
L 528.90902 217.812111 
L 529.80071 225.534361 
L 530.692401 226.945202 
L 531.584091 220.48989 
L 532.475781 216.969824 
L 533.367472 217.648099 
L 534.259162 220.527711 
L 535.150852 233.998125 
L 535.150852 233.998125 
" clip-path="url(#p9c9404410f)" style="fill: none; stroke: #1f77b4; stroke-width: 1.5; stroke-linecap: square"/>
   </g>
   <g id="patch_4">
    <path d="M 55.778125 244.078125 
L 55.778125 22.318125 
" style="fill: none; stroke: #000000; stroke-width: 0.8; stroke-linejoin: miter; stroke-linecap: square"/>
   </g>
   <g id="patch_5">
    <path d="M 557.978125 244.078125 
L 557.978125 22.318125 
" style="fill: none; stroke: #000000; stroke-width: 0.8; stroke-linejoin: miter; stroke-linecap: square"/>
   </g>
   <g id="patch_6">
    <path d="M 55.778125 244.078125 
L 557.978125 244.078125 
" style="fill: none; stroke: #000000; stroke-width: 0.8; stroke-linejoin: miter; stroke-linecap: square"/>
   </g>
   <g id="patch_7">
    <path d="M 55.778125 22.318125 
L 557.978125 22.318125 
" style="fill: none; stroke: #000000; stroke-width: 0.8; stroke-linejoin: miter; stroke-linecap: square"/>
   </g>
   <g id="text_16">
    <!-- Weighted PSD with chatter band -->
    <g transform="translate(209.333125 16.318125) scale(0.12 -0.12)">
     <defs>
      <path id="DejaVuSans-57" d="M 213 4666 
L 850 4666 
L 1831 722 
L 2809 4666 
L 3519 4666 
L 4500 722 
L 5478 4666 
L 6119 4666 
L 4947 0 
L 4153 0 
L 3169 4050 
L 2175 0 
L 1381 0 
L 213 4666 
z
" transform="scale(0.015625)"/>
      <path id="DejaVuSans-67" d="M 2906 1791 
Q 2906 2416 2648 2759 
Q 2391 3103 1925 3103 
Q 1463 3103 1205 2759 
Q 947 2416 947 1791 
Q 947 1169 1205 825 
Q 1463 481 1925 481 
Q 2391 481 2648 825 
Q 2906 1169 2906 1791 
z
M 3481 434 
Q 3481 -459 3084 -895 
Q 2688 -1331 1869 -1331 
Q 1566 -1331 1297 -1286 
Q 1028 -1241 775 -1147 
L 775 -588 
Q 1028 -725 1275 -790 
Q 1522 -856 1778 -856 
Q 2344 -856 2625 -561 
Q 2906 -266 2906 331 
L 2906 616 
Q 2728 306 2450 153 
Q 2172 0 1784 0 
Q 1141 0 747 490 
Q 353 981 353 1791 
Q 353 2603 747 3093 
Q 1141 3584 1784 3584 
Q 2172 3584 2450 3431 
Q 2728 3278 2906 2969 
L 2906 3500 
L 3481 3500 
L 3481 434 
z
" transform="scale(0.015625)"/>
      <path id="DejaVuSans-68" d="M 3513 2113 
L 3513 0 
L 2938 0 
L 2938 2094 
Q 2938 2591 2744 2837 
Q 2550 3084 2163 3084 
Q 1697 3084 1428 2787 
Q 1159 2491 1159 1978 
L 1159 0 
L 581 0 
L 581 4863 
L 1159 4863 
L 1159 2956 
Q 1366 3272 1645 3428 
Q 1925 3584 2291 3584 
Q 2894 3584 3203 3211 
Q 3513 2838 3513 2113 
z
" transform="scale(0.015625)"/>
      <path id="DejaVuSans-64" d="M 2906 2969 
L 2906 4863 
L 3481 4863 
L 3481 0 
L 2906 0 
L 2906 525 
Q 2725 213 2448 61 
Q 2172 -91 1784 -91 
Q 1150 -91 751 415 
Q 353 922 353 1747 
Q 353 2572 751 3078 
Q 1150 3584 1784 3584 
Q 2172 3584 2448 3432 
Q 2725 3281 2906 2969 
z
M 947 1747 
Q 947 1113 1208 752 
Q 1469 391 1925 391 
Q 2381 391 2643 752 
Q 2906 1113 2906 1747 
Q 2906 2381 2643 2742 
Q 2381 3103 1925 3103 
Q 1469 3103 1208 2742 
Q 947 2381 947 1747 
z
" transform="scale(0.015625)"/>
      <path id="DejaVuSans-77" d="M 269 3500 
L 844 3500 
L 1563 769 
L 2278 3500 
L 2956 3500 
L 3675 769 
L 4391 3500 
L 4966 3500 
L 4050 0 
L 3372 0 
L 2619 2869 
L 1863 0 
L 1184 0 
L 269 3500 
z
" transform="scale(0.015625)"/>
      <path id="DejaVuSans-61" d="M 2194 1759 
Q 1497 1759 1228 1600 
Q 959 1441 959 1056 
Q 959 750 1161 570 
Q 1363 391 1709 391 
Q 2188 391 2477 730 
Q 2766 1069 2766 1631 
L 2766 1759 
L 2194 1759 
z
M 3341 1997 
L 3341 0 
L 2766 0 
L 2766 531 
Q 2569 213 2275 61 
Q 1981 -91 1556 -91 
Q 1019 -91 701 211 
Q 384 513 384 1019 
Q 384 1609 779 1909 
Q 1175 2209 1959 2209 
L 2766 2209 
L 2766 2266 
Q 2766 2663 2505 2880 
Q 2244 3097 1772 3097 
Q 1472 3097 1187 3025 
Q 903 2953 641 2809 
L 641 3341 
Q 956 3463 1253 3523 
Q 1550 3584 1831 3584 
Q 2591 3584 2966 3190 
Q 3341 2797 3341 1997 
z
" transform="scale(0.015625)"/>
      <path id="DejaVuSans-62" d="M 3116 1747 
Q 3116 2381 2855 2742 
Q 2594 3103 2138 3103 
Q 1681 3103 1420 2742 
Q 1159 2381 1159 1747 
Q 1159 1113 1420 752 
Q 1681 391 2138 391 
Q 2594 391 2855 752 
Q 3116 1113 3116 1747 
z
M 1159 2969 
Q 1341 3281 1617 3432 
Q 1894 3584 2278 3584 
Q 2916 3584 3314 3078 
Q 3713 2572 3713 1747 
Q 3713 922 3314 415 
Q 2916 -91 2278 -91 
Q 1894 -91 1617 61 
Q 1341 213 1159 525 
L 1159 0 
L 581 0 
L 581 4863 
L 1159 4863 
L 1159 2969 
z
" transform="scale(0.015625)"/>
     </defs>
     <use xlink:href="#DejaVuSans-57"/>
     <use xlink:href="#DejaVuSans-65" transform="translate(93.001953 0)"/>
     <use xlink:href="#DejaVuSans-69" transform="translate(154.525391 0)"/>
     <use xlink:href="#DejaVuSans-67" transform="translate(182.308594 0)"/>
     <use xlink:href="#DejaVuSans-68" transform="translate(245.785156 0)"/>
     <use xlink:href="#DejaVuSans-74" transform="translate(309.164062 0)"/>
     <use xlink:href="#DejaVuSans-65" transform="translate(348.373047 0)"/>
     <use xlink:href="#DejaVuSans-64" transform="translate(409.896484 0)"/>
     <use xlink:href="#DejaVuSans-20" transform="translate(473.373047 0)"/>
     <use xlink:href="#DejaVuSans-50" transform="translate(505.160156 0)"/>
     <use xlink:href="#DejaVuSans-53" transform="translate(565.462891 0)"/>
     <use xlink:href="#DejaVuSans-44" transform="translate(628.939453 0)"/>
     <use xlink:href="#DejaVuSans-20" transform="translate(705.941406 0)"/>
     <use xlink:href="#DejaVuSans-77" transform="translate(737.728516 0)"/>
     <use xlink:href="#DejaVuSans-69" transform="translate(819.515625 0)"/>
     <use xlink:href="#DejaVuSans-74" transform="translate(847.298828 0)"/>
     <use xlink:href="#DejaVuSans-68" transform="translate(886.507812 0)"/>
     <use xlink:href="#DejaVuSans-20" transform="translate(949.886719 0)"/>
     <use xlink:href="#DejaVuSans-63" transform="translate(981.673828 0)"/>
     <use xlink:href="#DejaVuSans-68" transform="translate(1036.654297 0)"/>
     <use xlink:href="#DejaVuSans-61" transform="translate(1100.033203 0)"/>
     <use xlink:href="#DejaVuSans-74" transform="translate(1161.3125 0)"/>
     <use xlink:href="#DejaVuSans-74" transform="translate(1200.521484 0)"/>
     <use xlink:href="#DejaVuSans-65" transform="translate(1239.730469 0)"/>
     <use xlink:href="#DejaVuSans-72" transform="translate(1301.253906 0)"/>
     <use xlink:href="#DejaVuSans-20" transform="translate(1342.367188 0)"/>
     <use xlink:href="#DejaVuSans-62" transform="translate(1374.154297 0)"/>
     <use xlink:href="#DejaVuSans-61" transform="translate(1437.630859 0)"/>
     <use xlink:href="#DejaVuSans-6e" transform="translate(1498.910156 0)"/>
     <use xlink:href="#DejaVuSans-64" transform="translate(1562.289062 0)"/>
    </g>
   </g>
   <g id="legend_1">
    <g id="patch_8">
     <path d="M 453.084375 59.674375 
L 550.978125 59.674375 
Q 552.978125 59.674375 552.978125 57.674375 
L 552.978125 29.318125 
Q 552.978125 27.318125 550.978125 27.318125 
L 453.084375 27.318125 
Q 451.084375 27.318125 451.084375 29.318125 
L 451.084375 57.674375 
Q 451.084375 59.674375 453.084375 59.674375 
z
" style="fill: #ffffff; opacity: 0.8; stroke: #cccccc; stroke-linejoin: miter"/>
    </g>
    <g id="line2d_79">
     <path d="M 455.084375 35.416562 
L 465.084375 35.416562 
L 475.084375 35.416562 
" style="fill: none; stroke: #1f77b4; stroke-width: 1.5; stroke-linecap: square"/>
    </g>
    <g id="text_17">
     <!-- Weighted -->
     <g transform="translate(483.084375 38.916562) scale(0.1 -0.1)">
      <use xlink:href="#DejaVuSans-57"/>
      <use xlink:href="#DejaVuSans-65" transform="translate(93.001953 0)"/>
      <use xlink:href="#DejaVuSans-69" transform="translate(154.525391 0)"/>
      <use xlink:href="#DejaVuSans-67" transform="translate(182.308594 0)"/>
      <use xlink:href="#DejaVuSans-68" transform="translate(245.785156 0)"/>
      <use xlink:href="#DejaVuSans-74" transform="translate(309.164062 0)"/>
      <use xlink:href="#DejaVuSans-65" transform="translate(348.373047 0)"/>
      <use xlink:href="#DejaVuSans-64" transform="translate(409.896484 0)"/>
     </g>
    </g>
    <g id="patch_9">
     <path d="M 455.084375 53.594687 
L 475.084375 53.594687 
L 475.084375 46.594687 
L 455.084375 46.594687 
z
" style="fill: #dc143c; opacity: 0.15; stroke: #dc143c; stroke-linejoin: miter"/>
    </g>
    <g id="text_18">
     <!-- Chatter band -->
     <g transform="translate(483.084375 53.594687) scale(0.1 -0.1)">
      <defs>
       <path id="DejaVuSans-43" d="M 4122 4306 
L 4122 3641 
Q 3803 3938 3442 4084 
Q 3081 4231 2675 4231 
Q 1875 4231 1450 3742 
Q 1025 3253 1025 2328 
Q 1025 1406 1450 917 
Q 1875 428 2675 428 
Q 3081 428 3442 575 
Q 3803 722 4122 1019 
L 4122 359 
Q 3791 134 3420 21 
Q 3050 -91 2638 -91 
Q 1578 -91 968 557 
Q 359 1206 359 2328 
Q 359 3453 968 4101 
Q 1578 4750 2638 4750 
Q 3056 4750 3426 4639 
Q 3797 4528 4122 4306 
z
" transform="scale(0.015625)"/>
      </defs>
      <use xlink:href="#DejaVuSans-43"/>
      <use xlink:href="#DejaVuSans-68" transform="translate(69.824219 0)"/>
      <use xlink:href="#DejaVuSans-61" transform="translate(133.203125 0)"/>
      <use xlink:href="#DejaVuSans-74" transform="translate(194.482422 0)"/>
      <use xlink:href="#DejaVuSans-74" transform="translate(233.691406 0)"/>
      <use xlink:href="#DejaVuSans-65" transform="translate(272.900391 0)"/>
      <use xlink:href="#DejaVuSans-72" transform="translate(334.423828 0)"/>
      <use xlink:href="#DejaVuSans-20" transform="translate(375.537109 0)"/>
      <use xlink:href="#DejaVuSans-62" transform="translate(407.324219 0)"/>
      <use xlink:href="#DejaVuSans-61" transform="translate(470.800781 0)"/>
      <use xlink:href="#DejaVuSans-6e" transform="translate(532.080078 0)"/>
      <use xlink:href="#DejaVuSans-64" transform="translate(595.458984 0)"/>
     </g>
    </g>
   </g>
  </g>
 </g>
 <defs>
  <clipPath id="p9c9404410f">
   <rect x="55.778125" y="22.318125" width="502.2" height="221.76"/>
  </clipPath>
 </defs>
</svg>
