<?xml version="1.0" encoding="utf-8" standalone="no"?>
<!DOCTYPE svg PUBLIC "-//W3C//DTD SVG 1.1//EN"
  "http://www.w3.org/Graphics/SVG/1.1/DTD/svg11.dtd">
<svg xmlns:xlink="http://www.w3.org/1999/xlink" width="565.178125pt" height="281.634375pt" viewBox="0 0 565.178125 281.634375" xmlns="http://www.w3.org/2000/svg" version="1.1">
 <metadata>
  <rdf:RDF xmlns:dc="http://purl.org/dc/elements/1.1/" xmlns:cc="http://creativecommons.org/ns#" xmlns:rdf="http://www.w3.org/1999/02/22-rdf-syntax-ns#">
   <cc:Work>
    <dc:type rdf:resource="http://purl.org/dc/dcmitype/StillImage"/>
    <dc:date>2026-07-14T06:51:26.741171</dc:date>
    <dc:format>image/svg+xml</dc:format>
    <dc:creator>
     <cc:Agent>
      <dc:title>Matplotlib v3.10.8, https://matplotlib.org/</dc:title>
     </cc:Agent>
    </dc:creator>
   </cc:Work>
  </rdf:RDF>
 </metadata>
 <defs>
  <style type="text/css">*{stroke-linejoin: round; stroke-linecap: butt}</style>
 </defs>
 <g id="figure_1">
  <g id="patch_1">
   <path d="M 0 281.634375 
L 565.178125 281.634375 
L 565.178125 0 
L 0 0 
z
" style="fill: #ffffff"/>
  </g>
  <g id="axes_1">
   <g id="patch_2">
    <path d="M 55.778125 244.078125 
L 557.978125 244.078125 
L 557.978125 22.318125 
L 55.778125 22.318125 
z
" style="fill: #ffffff"/>
   </g>
   <g id="matplotlib.axis_1">
    <g id="xtick_1">
     <g id="line2d_1">
      <path d="M 78.605398 244.078125 
L 78.605398 22.318125 
" clip-path="url(#p035023d87a)" style="fill: none; stroke: #b0b0b0; stroke-opacity: 0.25; stroke-width: 0.8; stroke-linecap: square"/>
     </g>
     <g id="line2d_2">
      <defs>
       <path id="m2515979dbe" d="M 0 0 
L 0 3.5 
" style="stroke: #000000; stroke-width: 0.8"/>
      </defs>
      <g>
       <use xlink:href="#m2515979dbe" x="78.605398" y="244.078125" style="stroke: #000000; stroke-width: 0.8"/>
      </g>
     </g>
     <g id="text_1">
      <!-- 0 -->
      <g transform="translate(75.424148 258.676562) scale(0.1 -0.1)">
       <defs>
        <path id="DejaVuSans-30" d="M 2034 4250 
Q 1547 4250 1301 3770 
Q 1056 3291 1056 2328 
Q 1056 1369 1301 889 
Q 1547 409 2034 409 
Q 2525 409 2770 889 
Q 3016 1369 3016 2328 
Q 3016 3291 2770 3770 
Q 2525 4250 2034 4250 
z
M 2034 4750 
Q 2819 4750 3233 4129 
Q 3647 3509 3647 2328 
Q 3647 1150 3233 529 
Q 2819 -91 2034 -91 
Q 1250 -91 836 529 
Q 422 1150 422 2328 
Q 422 3509 836 4129 
Q 1250 4750 2034 4750 
z
" transform="scale(0.015625)"/>
       </defs>
       <use xlink:href="#DejaVuSans-30"/>
      </g>
     </g>
    </g>
    <g id="xtick_2">
     <g id="line2d_3">
      <path d="M 169.914489 244.078125 
L 169.914489 22.318125 
" clip-path="url(#p035023d87a)" style="fill: none; stroke: #b0b0b0; stroke-opacity: 0.25; stroke-width: 0.8; stroke-linecap: square"/>
     </g>
     <g id="line2d_4">
      <g>
       <use xlink:href="#m2515979dbe" x="169.914489" y="244.078125" style="stroke: #000000; stroke-width: 0.8"/>
      </g>
     </g>
     <g id="text_2">
      <!-- 1000 -->
      <g transform="translate(157.189489 258.676562) scale(0.1 -0.1)">
       <defs>
        <path id="DejaVuSans-31" d="M 794 531 
L 1825 531 
L 1825 4091 
L 703 3866 
L 703 4441 
L 1819 4666 
L 2450 4666 
L 2450 531 
L 3481 531 
L 3481 0 
L 794 0 
L 794 531 
z
" transform="scale(0.015625)"/>
       </defs>
       <use xlink:href="#DejaVuSans-31"/>
       <use xlink:href="#DejaVuSans-30" transform="translate(63.623047 0)"/>
       <use xlink:href="#DejaVuSans-30" transform="translate(127.246094 0)"/>
       <use xlink:href="#DejaVuSans-30" transform="translate(190.869141 0)"/>
      </g>
     </g>
    </g>
    <g id="xtick_3">
     <g id="line2d_5">
      <path d="M 261.22358 244.078125 
L 261.22358 22.318125 
" clip-path="url(#p035023d87a)" style="fill: none; stroke: #b0b0b0; stroke-opacity: 0.25; stroke-width: 0.8; stroke-linecap: square"/>
     </g>
     <g id="line2d_6">
      <g>
       <use xlink:href="#m2515979dbe" x="261.22358" y="244.078125" style="stroke: #000000; stroke-width: 0.8"/>
      </g>
     </g>
     <g id="text_3">
      <!-- 2000 -->
      <g transform="translate(248.49858 258.676562) scale(0.1 -0.1)">
       <defs>
        <path id="DejaVuSans-32" d="M 1228 531 
L 3431 531 
L 3431 0 
L 469 0 
L 469 531 
Q 828 903 1448 1529 
Q 2069 2156 2228 2338 
Q 2531 2678 2651 2914 
Q 2772 3150 2772 3378 
Q 2772 3750 2511 3984 
Q 2250 4219 1831 4219 
Q 1534 4219 1204 4116 
Q 875 4013 500 3803 
L 500 4441 
Q 881 4594 1212 4672 
Q 1544 4750 1819 4750 
Q 2544 4750 2975 4387 
Q 3406 4025 3406 3419 
Q 3406 3131 3298 2873 
Q 3191 2616 2906 2266 
Q 2828 2175 2409 1742 
Q 1991 1309 1228 531 
z
" transform="scale(0.015625)"/>
       </defs>
       <use xlink:href="#DejaVuSans-32"/>
       <use xlink:href="#DejaVuSans-30" transform="translate(63.623047 0)"/>
       <use xlink:href="#DejaVuSans-30" transform="translate(127.246094 0)"/>
       <use xlink:href="#DejaVuSans-30" transform="translate(190.869141 0)"/>
      </g>
     </g>
    </g>
    <g id="xtick_4">
     <g id="line2d_7">
      <path d="M 352.53267 244.078125 
L 352.53267 22.318125 
" clip-path="url(#p035023d87a)" style="fill: none; stroke: #b0b0b0; stroke-opacity: 0.25; stroke-width: 0.8; stroke-linecap: square"/>
     </g>
     <g id="line2d_8">
      <g>
       <use xlink:href="#m2515979dbe" x="352.53267" y="244.078125" style="stroke: #000000; stroke-width: 0.8"/>
      </g>
     </g>
     <g id="text_4">
      <!-- 3000 -->
      <g transform="translate(339.80767 258.676562) scale(0.1 -0.1)">
       <defs>
        <path id="DejaVuSans-33" d="M 2597 2516 
Q 3050 2419 3304 2112 
Q 3559 1806 3559 1356 
Q 3559 666 3084 287 
Q 2609 -91 1734 -91 
Q 1441 -91 1130 -33 
Q 819 25 488 141 
L 488 750 
Q 750 597 1062 519 
Q 1375 441 1716 441 
Q 2309 441 2620 675 
Q 2931 909 2931 1356 
Q 2931 1769 2642 2001 
Q 2353 2234 1838 2234 
L 1294 2234 
L 1294 2753 
L 1863 2753 
Q 2328 2753 2575 2939 
Q 2822 3125 2822 3475 
Q 2822 3834 2567 4026 
Q 2313 4219 1838 4219 
Q 1578 4219 1281 4162 
Q 984 4106 628 3988 
L 628 4550 
Q 988 4650 1302 4700 
Q 1616 4750 1894 4750 
Q 2613 4750 3031 4423 
Q 3450 4097 3450 3541 
Q 3450 3153 3228 2886 
Q 3006 2619 2597 2516 
z
" transform="scale(0.015625)"/>
       </defs>
       <use xlink:href="#DejaVuSans-33"/>
       <use xlink:href="#DejaVuSans-30" transform="translate(63.623047 0)"/>
       <use xlink:href="#DejaVuSans-30" transform="translate(127.246094 0)"/>
       <use xlink:href="#DejaVuSans-30" transform="translate(190.869141 0)"/>
      </g>
     </g>
    </g>
    <g id="xtick_5">
     <g id="line2d_9">
      <path d="M 443.841761 244.078125 
L 443.841761 22.318125 
" clip-path="url(#p035023d87a)" style="fill: none; stroke: #b0b0b0; stroke-opacity: 0.25; stroke-width: 0.8; stroke-linecap: square"/>
     </g>
     <g id="line2d_10">
      <g>
       <use xlink:href="#m2515979dbe" x="443.841761" y="244.078125" style="stroke: #000000; stroke-width: 0.8"/>
      </g>
     </g>
     <g id="text_5">
      <!-- 4000 -->
      <g transform="translate(431.116761 258.676562) scale(0.1 -0.1)">
       <defs>
        <path id="DejaVuSans-34" d="M 2419 4116 
L 825 1625 
L 2419 1625 
L 2419 4116 
z
M 2253 4666 
L 3047 4666 
L 3047 1625 
L 3713 1625 
L 3713 1100 
L 3047 1100 
L 3047 0 
L 2419 0 
L 2419 1100 
L 313 1100 
L 313 1709 
L 2253 4666 
z
" transform="scale(0.015625)"/>
       </defs>
       <use xlink:href="#DejaVuSans-34"/>
       <use xlink:href="#DejaVuSans-30" transform="translate(63.623047 0)"/>
       <use xlink:href="#DejaVuSans-30" transform="translate(127.246094 0)"/>
       <use xlink:href="#DejaVuSans-30" transform="translate(190.869141 0)"/>
      </g>
     </g>
    </g>
    <g id="xtick_6">
     <g id="line2d_11">
      <path d="M 535.150852 244.078125 
L 535.150852 22.318125 
" clip-path="url(#p035023d87a)" style="fill: none; stroke: #b0b0b0; stroke-opacity: 0.25; stroke-width: 0.8; stroke-linecap: square"/>
     </g>
     <g id="line2d_12">
      <g>
       <use xlink:href="#m2515979dbe" x="535.150852" y="244.078125" style="stroke: #000000; stroke-width: 0.8"/>
      </g>
     </g>
     <g id="text_6">
      <!-- 5000 -->
      <g transform="translate(522.425852 258.676562) scale(0.1 -0.1)">
       <defs>
        <path id="DejaVuSans-35" d="M 691 4666 
L 3169 4666 
L 3169 4134 
L 1269 4134 
L 1269 2991 
Q 1406 3038 1543 3061 
Q 1681 3084 1819 3084 
Q 2600 3084 3056 2656 
Q 3513 2228 3513 1497 
Q 3513 744 3044 326 
Q 2575 -91 1722 -91 
Q 1428 -91 1123 -41 
Q 819 9 494 109 
L 494 744 
Q 775 591 1075 516 
Q 1375 441 1709 441 
Q 2250 441 2565 725 
Q 2881 1009 2881 1497 
Q 2881 1984 2565 2268 
Q 2250 2553 1709 2553 
Q 1456 2553 1204 2497 
Q 953 2441 691 2322 
L 691 4666 
z
" transform="scale(0.015625)"/>
       </defs>
       <use xlink:href="#DejaVuSans-35"/>
       <use xlink:href="#DejaVuSans-30" transform="translate(63.623047 0)"/>
       <use xlink:href="#DejaVuSans-30" transform="translate(127.246094 0)"/>
       <use xlink:href="#DejaVuSans-30" transform="translate(190.869141 0)"/>
      </g>
     </g>
    </g>
    <g id="text_7">
     <!-- Frequency (Hz) -->
     <g transform="translate(269.173438 272.354687) scale(0.1 -0.1)">
      <defs>
       <path id="DejaVuSans-46" d="M 628 4666 
L 3309 4666 
L 3309 4134 
L 1259 4134 
L 1259 2759 
L 3109 2759 
L 3109 2228 
L 1259 2228 
L 1259 0 
L 628 0 
L 628 4666 
z
" transform="scale(0.015625)"/>
       <path id="DejaVuSans-72" d="M 2631 2963 
Q 2534 3019 2420 3045 
Q 2306 3072 2169 3072 
Q 1681 3072 1420 2755 
Q 1159 2438 1159 1844 
L 1159 0 
L 581 0 
L 581 3500 
L 1159 3500 
L 1159 2956 
Q 1341 3275 1631 3429 
Q 1922 3584 2338 3584 
Q 2397 3584 2469 3576 
Q 2541 3569 2628 3553 
L 2631 2963 
z
" transform="scale(0.015625)"/>
       <path id="DejaVuSans-65" d="M 3597 1894 
L 3597 1613 
L 953 1613 
Q 991 1019 1311 708 
Q 1631 397 2203 397 
Q 2534 397 2845 478 
Q 3156 559 3463 722 
L 3463 178 
Q 3153 47 2828 -22 
Q 2503 -91 2169 -91 
Q 1331 -91 842 396 
Q 353 884 353 1716 
Q 353 2575 817 3079 
Q 1281 3584 2069 3584 
Q 2775 3584 3186 3129 
Q 3597 2675 3597 1894 
z
M 3022 2063 
Q 3016 2534 2758 2815 
Q 2500 3097 2075 3097 
Q 1594 3097 1305 2825 
Q 1016 2553 972 2059 
L 3022 2063 
z
" transform="scale(0.015625)"/>
       <path id="DejaVuSans-71" d="M 947 1747 
Q 947 1113 1208 752 
Q 1469 391 1925 391 
Q 2381 391 2643 752 
Q 2906 1113 2906 1747 
Q 2906 2381 2643 2742 
Q 2381 3103 1925 3103 
Q 1469 3103 1208 2742 
Q 947 2381 947 1747 
z
M 2906 525 
Q 2725 213 2448 61 
Q 2172 -91 1784 -91 
Q 1150 -91 751 415 
Q 353 922 353 1747 
Q 353 2572 751 3078 
Q 1150 3584 1784 3584 
Q 2172 3584 2448 3432 
Q 2725 3281 2906 2969 
L 2906 3500 
L 3481 3500 
L 3481 -1331 
L 2906 -1331 
L 2906 525 
z
" transform="scale(0.015625)"/>
       <path id="DejaVuSans-75" d="M 544 1381 
L 544 3500 
L 1119 3500 
L 1119 1403 
Q 1119 906 1312 657 
Q 1506 409 1894 409 
Q 2359 409 2629 706 
Q 2900 1003 2900 1516 
L 2900 3500 
L 3475 3500 
L 3475 0 
L 2900 0 
L 2900 538 
Q 2691 219 2414 64 
Q 2138 -91 1772 -91 
Q 1169 -91 856 284 
Q 544 659 544 1381 
z
M 1991 3584 
L 1991 3584 
z
" transform="scale(0.015625)"/>
       <path id="DejaVuSans-6e" d="M 3513 2113 
L 3513 0 
L 2938 0 
L 2938 2094 
Q 2938 2591 2744 2837 
Q 2550 3084 2163 3084 
Q 1697 3084 1428 2787 
Q 1159 2491 1159 1978 
L 1159 0 
L 581 0 
L 581 3500 
L 1159 3500 
L 1159 2956 
Q 1366 3272 1645 3428 
Q 1925 3584 2291 3584 
Q 2894 3584 3203 3211 
Q 3513 2838 3513 2113 
z
" transform="scale(0.015625)"/>
       <path id="DejaVuSans-63" d="M 3122 3366 
L 3122 2828 
Q 2878 2963 2633 3030 
Q 2388 3097 2138 3097 
Q 1578 3097 1268 2742 
Q 959 2388 959 1747 
Q 959 1106 1268 751 
Q 1578 397 2138 397 
Q 2388 397 2633 464 
Q 2878 531 3122 666 
L 3122 134 
Q 2881 22 2623 -34 
Q 2366 -91 2075 -91 
Q 1284 -91 818 406 
Q 353 903 353 1747 
Q 353 2603 823 3093 
Q 1294 3584 2113 3584 
Q 2378 3584 2631 3529 
Q 2884 3475 3122 3366 
z
" transform="scale(0.015625)"/>
       <path id="DejaVuSans-79" d="M 2059 -325 
Q 1816 -950 1584 -1140 
Q 1353 -1331 966 -1331 
L 506 -1331 
L 506 -850 
L 844 -850 
Q 1081 -850 1212 -737 
Q 1344 -625 1503 -206 
L 1606 56 
L 191 3500 
L 800 3500 
L 1894 763 
L 2988 3500 
L 3597 3500 
L 2059 -325 
z
" transform="scale(0.015625)"/>
       <path id="DejaVuSans-20" transform="scale(0.015625)"/>
       <path id="DejaVuSans-28" d="M 1984 4856 
Q 1566 4138 1362 3434 
Q 1159 2731 1159 2009 
Q 1159 1288 1364 580 
Q 1569 -128 1984 -844 
L 1484 -844 
Q 1016 -109 783 600 
Q 550 1309 550 2009 
Q 550 2706 781 3412 
Q 1013 4119 1484 4856 
L 1984 4856 
z
" transform="scale(0.015625)"/>
       <path id="DejaVuSans-48" d="M 628 4666 
L 1259 4666 
L 1259 2753 
L 3553 2753 
L 3553 4666 
L 4184 4666 
L 4184 0 
L 3553 0 
L 3553 2222 
L 1259 2222 
L 1259 0 
L 628 0 
L 628 4666 
z
" transform="scale(0.015625)"/>
       <path id="DejaVuSans-7a" d="M 353 3500 
L 3084 3500 
L 3084 2975 
L 922 459 
L 3084 459 
L 3084 0 
L 275 0 
L 275 525 
L 2438 3041 
L 353 3041 
L 353 3500 
z
" transform="scale(0.015625)"/>
       <path id="DejaVuSans-29" d="M 513 4856 
L 1013 4856 
Q 1481 4119 1714 3412 
Q 1947 2706 1947 2009 
Q 1947 1309 1714 600 
Q 1481 -109 1013 -844 
L 513 -844 
Q 928 -128 1133 580 
Q 1338 1288 1338 2009 
Q 1338 2731 1133 3434 
Q 928 4138 513 4856 
z
" transform="scale(0.015625)"/>
      </defs>
      <use xlink:href="#DejaVuSans-46"/>
      <use xlink:href="#DejaVuSans-72" transform="translate(50.269531 0)"/>
      <use xlink:href="#DejaVuSans-65" transform="translate(89.132812 0)"/>
      <use xlink:href="#DejaVuSans-71" transform="translate(150.65625 0)"/>
      <use xlink:href="#DejaVuSans-75" transform="translate(214.132812 0)"/>
      <use xlink:href="#DejaVuSans-65" transform="translate(277.511719 0)"/>
      <use xlink:href="#DejaVuSans-6e" transform="translate(339.035156 0)"/>
      <use xlink:href="#DejaVuSans-63" transform="translate(402.414062 0)"/>
      <use xlink:href="#DejaVuSans-79" transform="translate(457.394531 0)"/>
      <use xlink:href="#DejaVuSans-20" transform="translate(516.574219 0)"/>
      <use xlink:href="#DejaVuSans-28" transform="translate(548.361328 0)"/>
      <use xlink:href="#DejaVuSans-48" transform="translate(587.375 0)"/>
      <use xlink:href="#DejaVuSans-7a" transform="translate(662.570312 0)"/>
      <use xlink:href="#DejaVuSans-29" transform="translate(715.060547 0)"/>
     </g>
    </g>
   </g>
   <g id="matplotlib.axis_2">
    <g id="ytick_1">
     <g id="line2d_13">
      <path d="M 55.778125 214.880777 
L 557.978125 214.880777 
" clip-path="url(#p035023d87a)" style="fill: none; stroke: #b0b0b0; stroke-opacity: 0.25; stroke-width: 0.8; stroke-linecap: square"/>
     </g>
     <g id="line2d_14">
      <defs>
       <path id="m9d94ec87bb" d="M 0 0 
L -3.5 0 
" style="stroke: #000000; stroke-width: 0.8"/>
      </defs>
      <g>
       <use xlink:href="#m9d94ec87bb" x="55.778125" y="214.880777" style="stroke: #000000; stroke-width: 0.8"/>
      </g>
     </g>
     <g id="text_8">
      <!-- $\mathdefault{10^{-19}}$ -->
      <g transform="translate(20.878125 218.679995) scale(0.1 -0.1)">
       <defs>
        <path id="DejaVuSans-2212" d="M 678 2272 
L 4684 2272 
L 4684 1741 
L 678 1741 
L 678 2272 
z
" transform="scale(0.015625)"/>
        <path id="DejaVuSans-39" d="M 703 97 
L 703 672 
Q 941 559 1184 500 
Q 1428 441 1663 441 
Q 2288 441 2617 861 
Q 2947 1281 2994 2138 
Q 2813 1869 2534 1725 
Q 2256 1581 1919 1581 
Q 1219 1581 811 2004 
Q 403 2428 403 3163 
Q 403 3881 828 4315 
Q 1253 4750 1959 4750 
Q 2769 4750 3195 4129 
Q 3622 3509 3622 2328 
Q 3622 1225 3098 567 
Q 2575 -91 1691 -91 
Q 1453 -91 1209 -44 
Q 966 3 703 97 
z
M 1959 2075 
Q 2384 2075 2632 2365 
Q 2881 2656 2881 3163 
Q 2881 3666 2632 3958 
Q 2384 4250 1959 4250 
Q 1534 4250 1286 3958 
Q 1038 3666 1038 3163 
Q 1038 2656 1286 2365 
Q 1534 2075 1959 2075 
z
" transform="scale(0.015625)"/>
       </defs>
       <use xlink:href="#DejaVuSans-31" transform="translate(0 0.765625)"/>
       <use xlink:href="#DejaVuSans-30" transform="translate(63.623047 0.765625)"/>
       <use xlink:href="#DejaVuSans-2212" transform="translate(128.203125 39.046875) scale(0.7)"/>
       <use xlink:href="#DejaVuSans-31" transform="translate(186.855469 39.046875) scale(0.7)"/>
       <use xlink:href="#DejaVuSans-39" transform="translate(231.391602 39.046875) scale(0.7)"/>
      </g>
     </g>
    </g>
    <g id="ytick_2">
     <g id="line2d_15">
      <path d="M 55.778125 175.344913 
L 557.978125 175.344913 
" clip-path="url(#p035023d87a)" style="fill: none; stroke: #b0b0b0; stroke-opacity: 0.25; stroke-width: 0.8; stroke-linecap: square"/>
     </g>
     <g id="line2d_16">
      <g>
       <use xlink:href="#m9d94ec87bb" x="55.778125" y="175.344913" style="stroke: #000000; stroke-width: 0.8"/>
      </g>
     </g>
     <g id="text_9">
      <!-- $\mathdefault{10^{-17}}$ -->
      <g transform="translate(20.878125 179.144132) scale(0.1 -0.1)">
       <defs>
        <path id="DejaVuSans-37" d="M 525 4666 
L 3525 4666 
L 3525 4397 
L 1831 0 
L 1172 0 
L 2766 4134 
L 525 4134 
L 525 4666 
z
" transform="scale(0.015625)"/>
       </defs>
       <use xlink:href="#DejaVuSans-31" transform="translate(0 0.684375)"/>
       <use xlink:href="#DejaVuSans-30" transform="translate(63.623047 0.684375)"/>
       <use xlink:href="#DejaVuSans-2212" transform="translate(128.203125 38.965625) scale(0.7)"/>
       <use xlink:href="#DejaVuSans-31" transform="translate(186.855469 38.965625) scale(0.7)"/>
       <use xlink:href="#DejaVuSans-37" transform="translate(231.391602 38.965625) scale(0.7)"/>
      </g>
     </g>
    </g>
    <g id="ytick_3">
     <g id="line2d_17">
      <path d="M 55.778125 135.80905 
L 557.978125 135.80905 
" clip-path="url(#p035023d87a)" style="fill: none; stroke: #b0b0b0; stroke-opacity: 0.25; stroke-width: 0.8; stroke-linecap: square"/>
     </g>
     <g id="line2d_18">
      <g>
       <use xlink:href="#m9d94ec87bb" x="55.778125" y="135.80905" style="stroke: #000000; stroke-width: 0.8"/>
      </g>
     </g>
     <g id="text_10">
      <!-- $\mathdefault{10^{-15}}$ -->
      <g transform="translate(20.878125 139.608268) scale(0.1 -0.1)">
       <use xlink:href="#DejaVuSans-31" transform="translate(0 0.684375)"/>
       <use xlink:href="#DejaVuSans-30" transform="translate(63.623047 0.684375)"/>
       <use xlink:href="#DejaVuSans-2212" transform="translate(128.203125 38.965625) scale(0.7)"/>
       <use xlink:href="#DejaVuSans-31" transform="translate(186.855469 38.965625) scale(0.7)"/>
       <use xlink:href="#DejaVuSans-35" transform="translate(231.391602 38.965625) scale(0.7)"/>
      </g>
     </g>
    </g>
    <g id="ytick_4">
     <g id="line2d_19">
      <path d="M 55.778125 96.273186 
L 557.978125 96.273186 
" clip-path="url(#p035023d87a)" style="fill: none; stroke: #b0b0b0; stroke-opacity: 0.25; stroke-width: 0.8; stroke-linecap: square"/>
     </g>
     <g id="line2d_20">
      <g>
       <use xlink:href="#m9d94ec87bb" x="55.778125" y="96.273186" style="stroke: #000000; stroke-width: 0.8"/>
      </g>
     </g>
     <g id="text_11">
      <!-- $\mathdefault{10^{-13}}$ -->
      <g transform="translate(20.878125 100.072405) scale(0.1 -0.1)">
       <use xlink:href="#DejaVuSans-31" transform="translate(0 0.765625)"/>
       <use xlink:href="#DejaVuSans-30" transform="translate(63.623047 0.765625)"/>
       <use xlink:href="#DejaVuSans-2212" transform="translate(128.203125 39.046875) scale(0.7)"/>
       <use xlink:href="#DejaVuSans-31" transform="translate(186.855469 39.046875) scale(0.7)"/>
       <use xlink:href="#DejaVuSans-33" transform="translate(231.391602 39.046875) scale(0.7)"/>
      </g>
     </g>
    </g>
    <g id="ytick_5">
     <g id="line2d_21">
      <path d="M 55.778125 56.737323 
L 557.978125 56.737323 
" clip-path="url(#p035023d87a)" style="fill: none; stroke: #b0b0b0; stroke-opacity: 0.25; stroke-width: 0.8; stroke-linecap: square"/>
     </g>
     <g id="line2d_22">
      <g>
       <use xlink:href="#m9d94ec87bb" x="55.778125" y="56.737323" style="stroke: #000000; stroke-width: 0.8"/>
      </g>
     </g>
     <g id="text_12">
      <!-- $\mathdefault{10^{-11}}$ -->
      <g transform="translate(20.878125 60.536541) scale(0.1 -0.1)">
       <use xlink:href="#DejaVuSans-31" transform="translate(0 0.684375)"/>
       <use xlink:href="#DejaVuSans-30" transform="translate(63.623047 0.684375)"/>
       <use xlink:href="#DejaVuSans-2212" transform="translate(128.203125 38.965625) scale(0.7)"/>
       <use xlink:href="#DejaVuSans-31" transform="translate(186.855469 38.965625) scale(0.7)"/>
       <use xlink:href="#DejaVuSans-31" transform="translate(231.391602 38.965625) scale(0.7)"/>
      </g>
     </g>
    </g>
    <g id="text_13">
     <!-- PSD (unit²/Hz) -->
     <g transform="translate(14.798438 168.487969) rotate(-90) scale(0.1 -0.1)">
      <defs>
       <path id="DejaVuSans-50" d="M 1259 4147 
L 1259 2394 
L 2053 2394 
Q 2494 2394 2734 2622 
Q 2975 2850 2975 3272 
Q 2975 3691 2734 3919 
Q 2494 4147 2053 4147 
L 1259 4147 
z
M 628 4666 
L 2053 4666 
Q 2838 4666 3239 4311 
Q 3641 3956 3641 3272 
Q 3641 2581 3239 2228 
Q 2838 1875 2053 1875 
L 1259 1875 
L 1259 0 
L 628 0 
L 628 4666 
z
" transform="scale(0.015625)"/>
       <path id="DejaVuSans-53" d="M 3425 4513 
L 3425 3897 
Q 3066 4069 2747 4153 
Q 2428 4238 2131 4238 
Q 1616 4238 1336 4038 
Q 1056 3838 1056 3469 
Q 1056 3159 1242 3001 
Q 1428 2844 1947 2747 
L 2328 2669 
Q 3034 2534 3370 2195 
Q 3706 1856 3706 1288 
Q 3706 609 3251 259 
Q 2797 -91 1919 -91 
Q 1588 -91 1214 -16 
Q 841 59 441 206 
L 441 856 
Q 825 641 1194 531 
Q 1563 422 1919 422 
Q 2459 422 2753 634 
Q 3047 847 3047 1241 
Q 3047 1584 2836 1778 
Q 2625 1972 2144 2069 
L 1759 2144 
Q 1053 2284 737 2584 
Q 422 2884 422 3419 
Q 422 4038 858 4394 
Q 1294 4750 2059 4750 
Q 2388 4750 2728 4690 
Q 3069 4631 3425 4513 
z
" transform="scale(0.015625)"/>
       <path id="DejaVuSans-44" d="M 1259 4147 
L 1259 519 
L 2022 519 
Q 2988 519 3436 956 
Q 3884 1394 3884 2338 
Q 3884 3275 3436 3711 
Q 2988 4147 2022 4147 
L 1259 4147 
z
M 628 4666 
L 1925 4666 
Q 3281 4666 3915 4102 
Q 4550 3538 4550 2338 
Q 4550 1131 3912 565 
Q 3275 0 1925 0 
L 628 0 
L 628 4666 
z
" transform="scale(0.015625)"/>
       <path id="DejaVuSans-69" d="M 603 3500 
L 1178 3500 
L 1178 0 
L 603 0 
L 603 3500 
z
M 603 4863 
L 1178 4863 
L 1178 4134 
L 603 4134 
L 603 4863 
z
" transform="scale(0.015625)"/>
       <path id="DejaVuSans-74" d="M 1172 4494 
L 1172 3500 
L 2356 3500 
L 2356 3053 
L 1172 3053 
L 1172 1153 
Q 1172 725 1289 603 
Q 1406 481 1766 481 
L 2356 481 
L 2356 0 
L 1766 0 
Q 1100 0 847 248 
Q 594 497 594 1153 
L 594 3053 
L 172 3053 
L 172 3500 
L 594 3500 
L 594 4494 
L 1172 4494 
z
" transform="scale(0.015625)"/>
       <path id="DejaVuSans-b2" d="M 838 2444 
L 2163 2444 
L 2163 2088 
L 294 2088 
L 294 2431 
Q 400 2528 597 2703 
Q 1672 3656 1672 3950 
Q 1672 4156 1509 4282 
Q 1347 4409 1081 4409 
Q 919 4409 728 4354 
Q 538 4300 313 4191 
L 313 4575 
Q 553 4663 761 4706 
Q 969 4750 1147 4750 
Q 1600 4750 1872 4544 
Q 2144 4338 2144 4000 
Q 2144 3566 1109 2678 
Q 934 2528 838 2444 
z
" transform="scale(0.015625)"/>
       <path id="DejaVuSans-2f" d="M 1625 4666 
L 2156 4666 
L 531 -594 
L 0 -594 
L 1625 4666 
z
" transform="scale(0.015625)"/>
      </defs>
      <use xlink:href="#DejaVuSans-50"/>
      <use xlink:href="#DejaVuSans-53" transform="translate(60.302734 0)"/>
      <use xlink:href="#DejaVuSans-44" transform="translate(123.779297 0)"/>
      <use xlink:href="#DejaVuSans-20" transform="translate(200.78125 0)"/>
      <use xlink:href="#DejaVuSans-28" transform="translate(232.568359 0)"/>
      <use xlink:href="#DejaVuSans-75" transform="translate(271.582031 0)"/>
      <use xlink:href="#DejaVuSans-6e" transform="translate(334.960938 0)"/>
      <use xlink:href="#DejaVuSans-69" transform="translate(398.339844 0)"/>
      <use xlink:href="#DejaVuSans-74" transform="translate(426.123047 0)"/>
      <use xlink:href="#DejaVuSans-b2" transform="translate(465.332031 0)"/>
      <use xlink:href="#DejaVuSans-2f" transform="translate(505.419922 0)"/>
      <use xlink:href="#DejaVuSans-48" transform="translate(539.111328 0)"/>
      <use xlink:href="#DejaVuSans-7a" transform="translate(614.306641 0)"/>
      <use xlink:href="#DejaVuSans-29" transform="translate(666.796875 0)"/>
     </g>
    </g>
   </g>
   <g id="line2d_23">
    <path d="M 78.605398 115.484359 
L 79.497088 121.4602 
L 80.388778 233.998125 
L 81.280469 233.353534 
L 82.172159 232.152012 
L 83.063849 231.737979 
L 83.95554 221.621261 
L 84.84723 205.425513 
L 85.73892 199.030259 
L 86.630611 181.150939 
L 87.522301 168.843619 
L 89.305682 151.48551 
L 90.197372 145.498175 
L 91.089063 132.715363 
L 91.980753 126.368173 
L 92.872443 123.513532 
L 93.764134 117.904921 
L 94.655824 109.649037 
L 95.547514 105.311137 
L 96.439205 104.002986 
L 98.222585 95.142114 
L 99.114276 88.165823 
L 100.005966 82.798162 
L 100.897656 81.59537 
L 102.681037 67.704994 
L 103.572727 68.608398 
L 104.464418 73.081514 
L 105.356108 74.99185 
L 106.247798 70.477226 
L 108.031179 68.029117 
L 108.922869 69.819248 
L 109.81456 64.638397 
L 110.70625 57.198274 
L 111.59794 54.485779 
L 112.489631 59.34595 
L 113.381321 61.855775 
L 114.273011 59.624854 
L 115.164702 61.903178 
L 116.056392 64.697935 
L 116.948082 64.585898 
L 117.839773 64.049629 
L 118.731463 61.337399 
L 119.623153 59.759192 
L 120.514844 62.28648 
L 121.406534 59.583304 
L 122.298224 54.55551 
L 123.189915 58.806785 
L 124.081605 66.148942 
L 124.973295 59.671538 
L 125.864986 57.625688 
L 126.756676 59.170365 
L 129.431747 50.499558 
L 130.323438 48.853721 
L 131.215128 48.393942 
L 132.998509 52.944223 
L 133.890199 55.163638 
L 134.781889 59.557681 
L 135.67358 60.650842 
L 136.56527 56.785137 
L 137.45696 53.938826 
L 138.348651 51.890364 
L 139.240341 51.612746 
L 140.132031 56.429763 
L 141.023722 46.413035 
L 141.915412 32.398125 
L 142.807102 36.72264 
L 143.698793 42.495877 
L 144.590483 38.544456 
L 145.482173 44.292857 
L 146.373864 39.389761 
L 147.265554 39.110526 
L 148.157244 38.947915 
L 149.048935 42.987211 
L 149.940625 49.505891 
L 150.832315 45.189199 
L 151.724006 46.416786 
L 152.615696 39.861671 
L 153.507386 40.752907 
L 154.399077 46.735977 
L 155.290767 47.243503 
L 156.182457 47.174546 
L 157.965838 48.849966 
L 158.857528 49.09269 
L 159.749219 52.603554 
L 161.532599 50.777845 
L 163.31598 50.686103 
L 164.20767 55.542187 
L 165.099361 61.210391 
L 165.991051 63.147557 
L 166.882741 57.920491 
L 167.774432 55.641976 
L 168.666122 57.835062 
L 169.557813 54.317571 
L 170.449503 54.501594 
L 171.341193 55.617926 
L 172.232884 58.509353 
L 173.124574 53.703419 
L 174.016264 48.049231 
L 174.907955 37.175105 
L 175.799645 43.787852 
L 176.691335 52.243823 
L 177.583026 50.44501 
L 178.474716 49.465661 
L 179.366406 50.887373 
L 180.258097 51.116038 
L 181.149787 50.990649 
L 182.041477 50.098873 
L 182.933168 52.067472 
L 183.824858 58.047228 
L 184.716548 58.699414 
L 185.608239 50.319571 
L 186.499929 51.034923 
L 187.391619 58.179667 
L 188.28331 60.121298 
L 189.175 59.695168 
L 190.06669 61.761781 
L 190.958381 60.003405 
L 191.850071 63.988436 
L 192.741761 66.474679 
L 193.633452 65.344653 
L 194.525142 60.453571 
L 195.416832 61.769732 
L 196.308523 65.11513 
L 197.200213 62.426712 
L 198.091903 64.11221 
L 198.983594 58.526693 
L 199.875284 58.786413 
L 200.766974 66.853589 
L 201.658665 63.561837 
L 202.550355 63.60948 
L 203.442045 61.69035 
L 204.333736 63.998069 
L 205.225426 64.380735 
L 206.117116 63.233883 
L 207.008807 59.781499 
L 207.900497 63.351511 
L 208.792188 65.429768 
L 209.683878 58.843199 
L 210.575568 54.228532 
L 211.467259 64.130967 
L 212.358949 70.121726 
L 213.250639 70.293262 
L 214.14233 72.907477 
L 215.03402 71.313336 
L 215.92571 67.235257 
L 216.817401 67.553996 
L 217.709091 69.343315 
L 218.600781 71.600257 
L 219.492472 68.540824 
L 220.384162 72.78415 
L 221.275852 75.160062 
L 222.167543 67.948877 
L 223.059233 70.626007 
L 224.842614 70.970027 
L 225.734304 70.2941 
L 226.625994 66.425526 
L 227.517685 67.788798 
L 228.409375 67.188265 
L 229.301065 67.824601 
L 230.192756 71.49082 
L 231.084446 73.618169 
L 231.976136 70.640585 
L 232.867827 69.263815 
L 233.759517 70.391998 
L 234.651207 70.546961 
L 235.542898 74.022967 
L 236.434588 76.712686 
L 238.217969 65.249274 
L 239.109659 68.059652 
L 240.001349 72.75755 
L 240.89304 74.118623 
L 241.78473 73.60074 
L 242.67642 71.82922 
L 243.568111 72.341473 
L 244.459801 72.684421 
L 246.243182 67.591944 
L 247.134872 69.580749 
L 248.026563 68.891484 
L 248.918253 64.051213 
L 249.809943 64.551631 
L 250.701634 63.611433 
L 251.593324 64.48252 
L 252.485014 64.885232 
L 253.376705 66.213327 
L 254.268395 67.144174 
L 255.160085 67.686178 
L 256.051776 66.153002 
L 256.943466 67.667527 
L 257.835156 66.667607 
L 258.726847 64.026126 
L 259.618537 63.729349 
L 260.510227 65.020481 
L 261.401918 64.038829 
L 262.293608 64.901468 
L 263.185298 66.54648 
L 264.076989 63.305067 
L 264.968679 60.673006 
L 265.860369 59.739164 
L 266.75206 57.319457 
L 267.64375 61.844364 
L 268.53544 56.677311 
L 269.427131 53.610635 
L 270.318821 52.800916 
L 271.210511 53.956884 
L 272.102202 55.322359 
L 272.993892 53.545066 
L 273.885582 54.112641 
L 274.777273 55.715558 
L 275.668963 52.261943 
L 276.560653 52.045565 
L 277.452344 51.968701 
L 278.344034 53.371682 
L 280.127415 47.199783 
L 281.910795 40.939561 
L 283.694176 37.798099 
L 284.585866 35.675657 
L 285.477557 38.336715 
L 286.369247 36.180722 
L 287.260938 36.956902 
L 288.152628 35.447734 
L 289.044318 33.638847 
L 289.936009 35.066501 
L 290.827699 34.876217 
L 291.719389 33.217753 
L 292.61108 35.731997 
L 293.50277 36.307767 
L 294.39446 36.292869 
L 295.286151 37.177301 
L 296.177841 37.070839 
L 297.069531 35.129071 
L 297.961222 33.540785 
L 298.852912 33.109093 
L 299.744602 34.073174 
L 300.636293 37.601931 
L 301.527983 33.492434 
L 302.419673 37.41228 
L 303.311364 40.166193 
L 304.203054 36.679013 
L 305.094744 39.50838 
L 305.986435 38.602559 
L 306.878125 36.920212 
L 308.661506 39.250466 
L 309.553196 39.836947 
L 310.444886 40.277342 
L 311.336577 38.271817 
L 312.228267 37.742625 
L 313.119957 39.859224 
L 314.011648 38.815665 
L 314.903338 36.241031 
L 315.795028 36.79949 
L 316.686719 37.963688 
L 317.578409 39.759345 
L 318.470099 40.604678 
L 320.25348 40.238982 
L 321.14517 40.506719 
L 322.036861 38.115365 
L 322.928551 37.161421 
L 323.820241 35.965865 
L 324.711932 35.230488 
L 325.603622 38.414871 
L 326.495313 39.557972 
L 327.387003 39.427077 
L 328.278693 40.762541 
L 329.170384 36.27644 
L 330.062074 39.314916 
L 330.953764 43.05529 
L 332.737145 47.14595 
L 333.628835 45.809427 
L 334.520526 47.055817 
L 335.412216 50.319742 
L 336.303906 48.542601 
L 337.195597 45.219101 
L 338.087287 45.461313 
L 339.870668 49.375625 
L 340.762358 51.948024 
L 341.654048 51.502591 
L 342.545739 48.681056 
L 343.437429 49.63101 
L 344.329119 47.290234 
L 345.22081 51.264031 
L 346.1125 51.471843 
L 347.00419 48.798317 
L 347.895881 51.52002 
L 348.787571 50.20574 
L 349.679261 52.395839 
L 350.570952 53.552612 
L 351.462642 52.748822 
L 352.354332 50.98411 
L 353.246023 50.254374 
L 354.137713 54.445432 
L 355.029403 51.242491 
L 355.921094 51.271941 
L 356.812784 52.322606 
L 357.704474 52.838213 
L 358.596165 52.452992 
L 359.487855 51.787591 
L 360.379545 56.388284 
L 361.271236 53.351727 
L 363.054616 52.150765 
L 363.946307 54.694033 
L 364.837997 53.892678 
L 365.729688 53.519197 
L 366.621378 54.373413 
L 367.513068 52.342973 
L 368.404759 52.56993 
L 369.296449 52.367148 
L 370.188139 57.259047 
L 371.07983 59.162865 
L 371.97152 59.770293 
L 372.86321 58.79263 
L 373.754901 58.079075 
L 374.646591 58.675556 
L 375.538281 56.228308 
L 376.429972 57.647632 
L 377.321662 56.37809 
L 378.213352 57.208669 
L 379.105043 61.391764 
L 379.996733 62.28018 
L 380.888423 61.012378 
L 381.780114 61.686198 
L 382.671804 57.475954 
L 383.563494 56.541174 
L 384.455185 56.075288 
L 385.346875 55.483857 
L 386.238565 58.498468 
L 387.130256 57.507216 
L 388.021946 58.019287 
L 388.913636 60.047877 
L 389.805327 58.112055 
L 390.697017 57.081862 
L 391.588707 61.286561 
L 392.480398 64.351646 
L 393.372088 66.5504 
L 394.263778 73.44332 
L 395.155469 71.926096 
L 396.047159 69.416585 
L 397.83054 66.164531 
L 398.72223 69.166455 
L 400.505611 67.462252 
L 401.397301 68.015482 
L 402.288991 64.142676 
L 403.180682 63.795252 
L 404.072372 65.358731 
L 404.964063 64.833797 
L 405.855753 65.166736 
L 406.747443 61.743075 
L 407.639134 59.402513 
L 408.530824 62.936207 
L 409.422514 65.584408 
L 410.314205 60.077565 
L 411.205895 60.416533 
L 412.097585 63.048882 
L 412.989276 60.628747 
L 413.880966 63.769171 
L 414.772656 60.564727 
L 415.664347 65.484384 
L 416.556037 63.31618 
L 417.447727 63.009041 
L 418.339418 60.254104 
L 419.231108 61.133931 
L 420.122798 61.629322 
L 421.014489 59.979818 
L 421.906179 58.819211 
L 422.797869 54.612744 
L 423.68956 55.084857 
L 424.58125 57.816186 
L 425.47294 55.498455 
L 427.256321 63.226729 
L 428.148011 63.861616 
L 429.039702 62.226637 
L 430.823082 55.741638 
L 431.714773 56.311639 
L 432.606463 60.144375 
L 433.498153 62.36383 
L 434.389844 60.996823 
L 435.281534 64.680641 
L 436.173224 57.930698 
L 437.956605 52.007904 
L 438.848295 53.544806 
L 439.739986 58.010781 
L 440.631676 58.705301 
L 441.523366 60.022807 
L 442.415057 56.685094 
L 443.306747 56.83208 
L 444.198438 60.002329 
L 445.090128 60.275688 
L 445.981818 58.705677 
L 446.873509 58.487349 
L 447.765199 62.964824 
L 448.656889 65.022492 
L 449.54858 61.033046 
L 450.44027 64.430997 
L 451.33196 64.558035 
L 452.223651 61.11888 
L 453.115341 60.012943 
L 454.007031 65.318004 
L 454.898722 67.149485 
L 455.790412 62.106469 
L 456.682102 61.053917 
L 457.573793 63.889516 
L 458.465483 62.717151 
L 459.357173 59.437078 
L 460.248864 60.216201 
L 461.140554 64.853834 
L 462.032244 65.890297 
L 462.923935 62.076892 
L 463.815625 63.440013 
L 464.707315 66.514692 
L 465.599006 68.136292 
L 466.490696 66.994358 
L 467.382386 69.899542 
L 468.274077 70.708877 
L 469.165767 68.079924 
L 470.057457 69.063401 
L 471.840838 82.469859 
L 472.732528 78.497799 
L 473.624219 77.895175 
L 474.515909 80.643162 
L 475.407599 76.654257 
L 476.29929 75.666699 
L 477.19098 78.423328 
L 478.08267 79.272227 
L 478.974361 77.495889 
L 479.866051 81.41603 
L 480.757741 83.581179 
L 481.649432 79.601073 
L 482.541122 80.867267 
L 483.432813 84.256715 
L 484.324503 82.72314 
L 485.216193 76.444185 
L 486.107884 75.693667 
L 486.999574 77.801865 
L 487.891264 77.898661 
L 488.782955 75.350707 
L 489.674645 77.878993 
L 490.566335 77.407153 
L 491.458026 79.836735 
L 492.349716 87.615117 
L 493.241406 87.914784 
L 494.133097 83.650078 
L 495.024787 84.538664 
L 495.916477 87.904542 
L 496.808168 85.509777 
L 497.699858 82.277948 
L 498.591548 85.116399 
L 499.483239 86.308374 
L 500.374929 84.232998 
L 501.266619 84.025 
L 502.15831 85.598866 
L 503.05 82.545153 
L 503.94169 83.67985 
L 504.833381 87.512966 
L 505.725071 89.019178 
L 506.616761 88.727578 
L 507.508452 86.486128 
L 508.400142 83.766302 
L 509.291832 86.155132 
L 510.183523 90.751594 
L 511.075213 91.085679 
L 511.966903 85.812938 
L 512.858594 83.480961 
L 513.750284 86.604033 
L 514.641974 84.192209 
L 515.533665 80.434879 
L 516.425355 81.99853 
L 517.317045 86.686459 
L 518.208736 86.919536 
L 519.100426 87.436524 
L 519.992116 85.002722 
L 520.883807 83.999411 
L 521.775497 85.962933 
L 522.667188 86.340425 
L 523.558878 82.63253 
L 524.450568 82.105362 
L 525.342259 84.291618 
L 526.233949 81.161823 
L 527.125639 77.472264 
L 528.01733 80.871813 
L 528.90902 85.459565 
L 529.80071 82.547576 
L 530.692401 83.058095 
L 531.584091 86.770392 
L 532.475781 87.45032 
L 533.367472 84.42182 
L 534.259162 84.38987 
L 535.150852 92.427208 
L 535.150852 92.427208 
" clip-path="url(#p035023d87a)" style="fill: none; stroke: #1f77b4; stroke-width: 1.5; stroke-linecap: square"/>
   </g>
   <g id="patch_3">
    <path d="M 55.778125 244.078125 
L 55.778125 22.318125 
" style="fill: none; stroke: #000000; stroke-width: 0.8; stroke-linejoin: miter; stroke-linecap: square"/>
   </g>
   <g id="patch_4">
    <path d="M 557.978125 244.078125 
L 557.978125 22.318125 
" style="fill: none; stroke: #000000; stroke-width: 0.8; stroke-linejoin: miter; stroke-linecap: square"/>
   </g>
   <g id="patch_5">
    <path d="M 55.778125 244.078125 
L 557.978125 244.078125 
" style="fill: none; stroke: #000000; stroke-width: 0.8; stroke-linejoin: miter; stroke-linecap: square"/>
   </g>
   <g id="patch_6">
    <path d="M 55.778125 22.318125 
L 557.978125 22.318125 
" style="fill: none; stroke: #000000; stroke-width: 0.8; stroke-linejoin: miter; stroke-linecap: square"/>
   </g>
   <g id="text_14">
    <!-- Residual-noise PSD -->
    <g transform="translate(249.462813 16.318125) scale(0.12 -0.12)">
     <defs>
      <path id="DejaVuSans-52" d="M 2841 2188 
Q 3044 2119 3236 1894 
Q 3428 1669 3622 1275 
L 4263 0 
L 3584 0 
L 2988 1197 
Q 2756 1666 2539 1819 
Q 2322 1972 1947 1972 
L 1259 1972 
L 1259 0 
L 628 0 
L 628 4666 
L 2053 4666 
Q 2853 4666 3247 4331 
Q 3641 3997 3641 3322 
Q 3641 2881 3436 2590 
Q 3231 2300 2841 2188 
z
M 1259 4147 
L 1259 2491 
L 2053 2491 
Q 2509 2491 2742 2702 
Q 2975 2913 2975 3322 
Q 2975 3731 2742 3939 
Q 2509 4147 2053 4147 
L 1259 4147 
z
" transform="scale(0.015625)"/>
      <path id="DejaVuSans-73" d="M 2834 3397 
L 2834 2853 
Q 2591 2978 2328 3040 
Q 2066 3103 1784 3103 
Q 1356 3103 1142 2972 
Q 928 2841 928 2578 
Q 928 2378 1081 2264 
Q 1234 2150 1697 2047 
L 1894 2003 
Q 2506 1872 2764 1633 
Q 3022 1394 3022 966 
Q 3022 478 2636 193 
Q 2250 -91 1575 -91 
Q 1294 -91 989 -36 
Q 684 19 347 128 
L 347 722 
Q 666 556 975 473 
Q 1284 391 1588 391 
Q 1994 391 2212 530 
Q 2431 669 2431 922 
Q 2431 1156 2273 1281 
Q 2116 1406 1581 1522 
L 1381 1569 
Q 847 1681 609 1914 
Q 372 2147 372 2553 
Q 372 3047 722 3315 
Q 1072 3584 1716 3584 
Q 2034 3584 2315 3537 
Q 2597 3491 2834 3397 
z
" transform="scale(0.015625)"/>
      <path id="DejaVuSans-64" d="M 2906 2969 
L 2906 4863 
L 3481 4863 
L 3481 0 
L 2906 0 
L 2906 525 
Q 2725 213 2448 61 
Q 2172 -91 1784 -91 
Q 1150 -91 751 415 
Q 353 922 353 1747 
Q 353 2572 751 3078 
Q 1150 3584 1784 3584 
Q 2172 3584 2448 3432 
Q 2725 3281 2906 2969 
z
M 947 1747 
Q 947 1113 1208 752 
Q 1469 391 1925 391 
Q 2381 391 2643 752 
Q 2906 1113 2906 1747 
Q 2906 2381 2643 2742 
Q 2381 3103 1925 3103 
Q 1469 3103 1208 2742 
Q 947 2381 947 1747 
z
" transform="scale(0.015625)"/>
      <path id="DejaVuSans-61" d="M 2194 1759 
Q 1497 1759 1228 1600 
Q 959 1441 959 1056 
Q 959 750 1161 570 
Q 1363 391 1709 391 
Q 2188 391 2477 730 
Q 2766 1069 2766 1631 
L 2766 1759 
L 2194 1759 
z
M 3341 1997 
L 3341 0 
L 2766 0 
L 2766 531 
Q 2569 213 2275 61 
Q 1981 -91 1556 -91 
Q 1019 -91 701 211 
Q 384 513 384 1019 
Q 384 1609 779 1909 
Q 1175 2209 1959 2209 
L 2766 2209 
L 2766 2266 
Q 2766 2663 2505 2880 
Q 2244 3097 1772 3097 
Q 1472 3097 1187 3025 
Q 903 2953 641 2809 
L 641 3341 
Q 956 3463 1253 3523 
Q 1550 3584 1831 3584 
Q 2591 3584 2966 3190 
Q 3341 2797 3341 1997 
z
" transform="scale(0.015625)"/>
      <path id="DejaVuSans-6c" d="M 603 4863 
L 1178 4863 
L 1178 0 
L 603 0 
L 603 4863 
z
" transform="scale(0.015625)"/>
      <path id="DejaVuSans-2d" d="M 313 2009 
L 1997 2009 
L 1997 1497 
L 313 1497 
L 313 2009 
z
" transform="scale(0.015625)"/>
      <path id="DejaVuSans-6f" d="M 1959 3097 
Q 1497 3097 1228 2736 
Q 959 2375 959 1747 
Q 959 1119 1226 758 
Q 1494 397 1959 397 
Q 2419 397 2687 759 
Q 2956 1122 2956 1747 
Q 2956 2369 2687 2733 
Q 2419 3097 1959 3097 
z
M 1959 3584 
Q 2709 3584 3137 3096 
Q 3566 2609 3566 1747 
Q 3566 888 3137 398 
Q 2709 -91 1959 -91 
Q 1206 -91 779 398 
Q 353 888 353 1747 
Q 353 2609 779 3096 
Q 1206 3584 1959 3584 
z
" transform="scale(0.015625)"/>
     </defs>
     <use xlink:href="#DejaVuSans-52"/>
     <use xlink:href="#DejaVuSans-65" transform="translate(64.982422 0)"/>
     <use xlink:href="#DejaVuSans-73" transform="translate(126.505859 0)"/>
     <use xlink:href="#DejaVuSans-69" transform="translate(178.605469 0)"/>
     <use xlink:href="#DejaVuSans-64" transform="translate(206.388672 0)"/>
     <use xlink:href="#DejaVuSans-75" transform="translate(269.865234 0)"/>
     <use xlink:href="#DejaVuSans-61" transform="translate(333.244141 0)"/>
     <use xlink:href="#DejaVuSans-6c" transform="translate(394.523438 0)"/>
     <use xlink:href="#DejaVuSans-2d" transform="translate(422.306641 0)"/>
     <use xlink:href="#DejaVuSans-6e" transform="translate(458.390625 0)"/>
     <use xlink:href="#DejaVuSans-6f" transform="translate(521.769531 0)"/>
     <use xlink:href="#DejaVuSans-69" transform="translate(582.951172 0)"/>
     <use xlink:href="#DejaVuSans-73" transform="translate(610.734375 0)"/>
     <use xlink:href="#DejaVuSans-65" transform="translate(662.833984 0)"/>
     <use xlink:href="#DejaVuSans-20" transform="translate(724.357422 0)"/>
     <use xlink:href="#DejaVuSans-50" transform="translate(756.144531 0)"/>
     <use xlink:href="#DejaVuSans-53" transform="translate(816.447266 0)"/>
     <use xlink:href="#DejaVuSans-44" transform="translate(879.923828 0)"/>
    </g>
   </g>
   <g id="legend_1">
    <g id="patch_7">
     <path d="M 412.295313 44.99625 
L 550.978125 44.99625 
Q 552.978125 44.99625 552.978125 42.99625 
L 552.978125 29.318125 
Q 552.978125 27.318125 550.978125 27.318125 
L 412.295313 27.318125 
Q 410.295313 27.318125 410.295313 29.318125 
L 410.295313 42.99625 
Q 410.295313 44.99625 412.295313 44.99625 
z
" style="fill: #ffffff; opacity: 0.8; stroke: #cccccc; stroke-linejoin: miter"/>
    </g>
    <g id="line2d_24">
     <path d="M 414.295313 35.416562 
L 424.295313 35.416562 
L 434.295313 35.416562 
" style="fill: none; stroke: #1f77b4; stroke-width: 1.5; stroke-linecap: square"/>
    </g>
    <g id="text_15">
     <!-- Removed component -->
     <g transform="translate(442.295313 38.916562) scale(0.1 -0.1)">
      <defs>
       <path id="DejaVuSans-6d" d="M 3328 2828 
Q 3544 3216 3844 3400 
Q 4144 3584 4550 3584 
Q 5097 3584 5394 3201 
Q 5691 2819 5691 2113 
L 5691 0 
L 5113 0 
L 5113 2094 
Q 5113 2597 4934 2840 
Q 4756 3084 4391 3084 
Q 3944 3084 3684 2787 
Q 3425 2491 3425 1978 
L 3425 0 
L 2847 0 
L 2847 2094 
Q 2847 2600 2669 2842 
Q 2491 3084 2119 3084 
Q 1678 3084 1418 2786 
Q 1159 2488 1159 1978 
L 1159 0 
L 581 0 
L 581 3500 
L 1159 3500 
L 1159 2956 
Q 1356 3278 1631 3431 
Q 1906 3584 2284 3584 
Q 2666 3584 2933 3390 
Q 3200 3197 3328 2828 
z
" transform="scale(0.015625)"/>
       <path id="DejaVuSans-76" d="M 191 3500 
L 800 3500 
L 1894 563 
L 2988 3500 
L 3597 3500 
L 2284 0 
L 1503 0 
L 191 3500 
z
" transform="scale(0.015625)"/>
       <path id="DejaVuSans-70" d="M 1159 525 
L 1159 -1331 
L 581 -1331 
L 581 3500 
L 1159 3500 
L 1159 2969 
Q 1341 3281 1617 3432 
Q 1894 3584 2278 3584 
Q 2916 3584 3314 3078 
Q 3713 2572 3713 1747 
Q 3713 922 3314 415 
Q 2916 -91 2278 -91 
Q 1894 -91 1617 61 
Q 1341 213 1159 525 
z
M 3116 1747 
Q 3116 2381 2855 2742 
Q 2594 3103 2138 3103 
Q 1681 3103 1420 2742 
Q 1159 2381 1159 1747 
Q 1159 1113 1420 752 
Q 1681 391 2138 391 
Q 2594 391 2855 752 
Q 3116 1113 3116 1747 
z
" transform="scale(0.015625)"/>
      </defs>
      <use xlink:href="#DejaVuSans-52"/>
      <use xlink:href="#DejaVuSans-65" transform="translate(64.982422 0)"/>
      <use xlink:href="#DejaVuSans-6d" transform="translate(126.505859 0)"/>
      <use xlink:href="#DejaVuSans-6f" transform="translate(223.917969 0)"/>
      <use xlink:href="#DejaVuSans-76" transform="translate(285.099609 0)"/>
      <use xlink:href="#DejaVuSans-65" transform="translate(344.279297 0)"/>
      <use xlink:href="#DejaVuSans-64" transform="translate(405.802734 0)"/>
      <use xlink:href="#DejaVuSans-20" transform="translate(469.279297 0)"/>
      <use xlink:href="#DejaVuSans-63" transform="translate(501.066406 0)"/>
      <use xlink:href="#DejaVuSans-6f" transform="translate(556.046875 0)"/>
      <use xlink:href="#DejaVuSans-6d" transform="translate(617.228516 0)"/>
      <use xlink:href="#DejaVuSans-70" transform="translate(714.640625 0)"/>
      <use xlink:href="#DejaVuSans-6f" transform="translate(778.117188 0)"/>
      <use xlink:href="#DejaVuSans-6e" transform="translate(839.298828 0)"/>
      <use xlink:href="#DejaVuSans-65" transform="translate(902.677734 0)"/>
      <use xlink:href="#DejaVuSans-6e" transform="translate(964.201172 0)"/>
      <use xlink:href="#DejaVuSans-74" transform="translate(1027.580078 0)"/>
     </g>
    </g>
   </g>
  </g>
 </g>
 <defs>
  <clipPath id="p035023d87a">
   <rect x="55.778125" y="22.318125" width="502.2" height="221.76"/>
  </clipPath>
 </defs>
</svg>
