<?xml version="1.0" encoding="utf-8" standalone="no"?>
<!DOCTYPE svg PUBLIC "-//W3C//DTD SVG 1.1//EN"
  "http://www.w3.org/Graphics/SVG/1.1/DTD/svg11.dtd">
<svg xmlns:xlink="http://www.w3.org/1999/xlink" width="565.178125pt" height="281.634375pt" viewBox="0 0 565.178125 281.634375" xmlns="http://www.w3.org/2000/svg" version="1.1">
 <metadata>
  <rdf:RDF xmlns:dc="http://purl.org/dc/elements/1.1/" xmlns:cc="http://creativecommons.org/ns#" xmlns:rdf="http://www.w3.org/1999/02/22-rdf-syntax-ns#">
   <cc:Work>
    <dc:type rdf:resource="http://purl.org/dc/dcmitype/StillImage"/>
    <dc:date>2026-07-14T06:51:19.624892</dc:date>
    <dc:format>image/svg+xml</dc:format>
    <dc:creator>
     <cc:Agent>
      <dc:title>Matplotlib v3.10.8, https://matplotlib.org/</dc:title>
     </cc:Agent>
    </dc:creator>
   </cc:Work>
  </rdf:RDF>
 </metadata>
 <defs>
  <style type="text/css">*{stroke-linejoin: round; stroke-linecap: butt}</style>
 </defs>
 <g id="figure_1">
  <g id="patch_1">
   <path d="M 0 281.634375 
L 565.178125 281.634375 
L 565.178125 0 
L 0 0 
z
" style="fill: #ffffff"/>
  </g>
  <g id="axes_1">
   <g id="patch_2">
    <path d="M 55.778125 244.078125 
L 557.978125 244.078125 
L 557.978125 22.318125 
L 55.778125 22.318125 
z
" style="fill: #ffffff"/>
   </g>
   <g id="matplotlib.axis_1">
    <g id="xtick_1">
     <g id="line2d_1">
      <path d="M 78.605398 244.078125 
L 78.605398 22.318125 
" clip-path="url(#p17a66962e1)" style="fill: none; stroke: #b0b0b0; stroke-opacity: 0.25; stroke-width: 0.8; stroke-linecap: square"/>
     </g>
     <g id="line2d_2">
      <defs>
       <path id="m6f92ed9da6" d="M 0 0 
L 0 3.5 
" style="stroke: #000000; stroke-width: 0.8"/>
      </defs>
      <g>
       <use xlink:href="#m6f92ed9da6" x="78.605398" y="244.078125" style="stroke: #000000; stroke-width: 0.8"/>
      </g>
     </g>
     <g id="text_1">
      <!-- 0 -->
      <g transform="translate(75.424148 258.676562) scale(0.1 -0.1)">
       <defs>
        <path id="DejaVuSans-30" d="M 2034 4250 
Q 1547 4250 1301 3770 
Q 1056 3291 1056 2328 
Q 1056 1369 1301 889 
Q 1547 409 2034 409 
Q 2525 409 2770 889 
Q 3016 1369 3016 2328 
Q 3016 3291 2770 3770 
Q 2525 4250 2034 4250 
z
M 2034 4750 
Q 2819 4750 3233 4129 
Q 3647 3509 3647 2328 
Q 3647 1150 3233 529 
Q 2819 -91 2034 -91 
Q 1250 -91 836 529 
Q 422 1150 422 2328 
Q 422 3509 836 4129 
Q 1250 4750 2034 4750 
z
" transform="scale(0.015625)"/>
       </defs>
       <use xlink:href="#DejaVuSans-30"/>
      </g>
     </g>
    </g>
    <g id="xtick_2">
     <g id="line2d_3">
      <path d="M 169.914489 244.078125 
L 169.914489 22.318125 
" clip-path="url(#p17a66962e1)" style="fill: none; stroke: #b0b0b0; stroke-opacity: 0.25; stroke-width: 0.8; stroke-linecap: square"/>
     </g>
     <g id="line2d_4">
      <g>
       <use xlink:href="#m6f92ed9da6" x="169.914489" y="244.078125" style="stroke: #000000; stroke-width: 0.8"/>
      </g>
     </g>
     <g id="text_2">
      <!-- 1000 -->
      <g transform="translate(157.189489 258.676562) scale(0.1 -0.1)">
       <defs>
        <path id="DejaVuSans-31" d="M 794 531 
L 1825 531 
L 1825 4091 
L 703 3866 
L 703 4441 
L 1819 4666 
L 2450 4666 
L 2450 531 
L 3481 531 
L 3481 0 
L 794 0 
L 794 531 
z
" transform="scale(0.015625)"/>
       </defs>
       <use xlink:href="#DejaVuSans-31"/>
       <use xlink:href="#DejaVuSans-30" transform="translate(63.623047 0)"/>
       <use xlink:href="#DejaVuSans-30" transform="translate(127.246094 0)"/>
       <use xlink:href="#DejaVuSans-30" transform="translate(190.869141 0)"/>
      </g>
     </g>
    </g>
    <g id="xtick_3">
     <g id="line2d_5">
      <path d="M 261.22358 244.078125 
L 261.22358 22.318125 
" clip-path="url(#p17a66962e1)" style="fill: none; stroke: #b0b0b0; stroke-opacity: 0.25; stroke-width: 0.8; stroke-linecap: square"/>
     </g>
     <g id="line2d_6">
      <g>
       <use xlink:href="#m6f92ed9da6" x="261.22358" y="244.078125" style="stroke: #000000; stroke-width: 0.8"/>
      </g>
     </g>
     <g id="text_3">
      <!-- 2000 -->
      <g transform="translate(248.49858 258.676562) scale(0.1 -0.1)">
       <defs>
        <path id="DejaVuSans-32" d="M 1228 531 
L 3431 531 
L 3431 0 
L 469 0 
L 469 531 
Q 828 903 1448 1529 
Q 2069 2156 2228 2338 
Q 2531 2678 2651 2914 
Q 2772 3150 2772 3378 
Q 2772 3750 2511 3984 
Q 2250 4219 1831 4219 
Q 1534 4219 1204 4116 
Q 875 4013 500 3803 
L 500 4441 
Q 881 4594 1212 4672 
Q 1544 4750 1819 4750 
Q 2544 4750 2975 4387 
Q 3406 4025 3406 3419 
Q 3406 3131 3298 2873 
Q 3191 2616 2906 2266 
Q 2828 2175 2409 1742 
Q 1991 1309 1228 531 
z
" transform="scale(0.015625)"/>
       </defs>
       <use xlink:href="#DejaVuSans-32"/>
       <use xlink:href="#DejaVuSans-30" transform="translate(63.623047 0)"/>
       <use xlink:href="#DejaVuSans-30" transform="translate(127.246094 0)"/>
       <use xlink:href="#DejaVuSans-30" transform="translate(190.869141 0)"/>
      </g>
     </g>
    </g>
    <g id="xtick_4">
     <g id="line2d_7">
      <path d="M 352.53267 244.078125 
L 352.53267 22.318125 
" clip-path="url(#p17a66962e1)" style="fill: none; stroke: #b0b0b0; stroke-opacity: 0.25; stroke-width: 0.8; stroke-linecap: square"/>
     </g>
     <g id="line2d_8">
      <g>
       <use xlink:href="#m6f92ed9da6" x="352.53267" y="244.078125" style="stroke: #000000; stroke-width: 0.8"/>
      </g>
     </g>
     <g id="text_4">
      <!-- 3000 -->
      <g transform="translate(339.80767 258.676562) scale(0.1 -0.1)">
       <defs>
        <path id="DejaVuSans-33" d="M 2597 2516 
Q 3050 2419 3304 2112 
Q 3559 1806 3559 1356 
Q 3559 666 3084 287 
Q 2609 -91 1734 -91 
Q 1441 -91 1130 -33 
Q 819 25 488 141 
L 488 750 
Q 750 597 1062 519 
Q 1375 441 1716 441 
Q 2309 441 2620 675 
Q 2931 909 2931 1356 
Q 2931 1769 2642 2001 
Q 2353 2234 1838 2234 
L 1294 2234 
L 1294 2753 
L 1863 2753 
Q 2328 2753 2575 2939 
Q 2822 3125 2822 3475 
Q 2822 3834 2567 4026 
Q 2313 4219 1838 4219 
Q 1578 4219 1281 4162 
Q 984 4106 628 3988 
L 628 4550 
Q 988 4650 1302 4700 
Q 1616 4750 1894 4750 
Q 2613 4750 3031 4423 
Q 3450 4097 3450 3541 
Q 3450 3153 3228 2886 
Q 3006 2619 2597 2516 
z
" transform="scale(0.015625)"/>
       </defs>
       <use xlink:href="#DejaVuSans-33"/>
       <use xlink:href="#DejaVuSans-30" transform="translate(63.623047 0)"/>
       <use xlink:href="#DejaVuSans-30" transform="translate(127.246094 0)"/>
       <use xlink:href="#DejaVuSans-30" transform="translate(190.869141 0)"/>
      </g>
     </g>
    </g>
    <g id="xtick_5">
     <g id="line2d_9">
      <path d="M 443.841761 244.078125 
L 443.841761 22.318125 
" clip-path="url(#p17a66962e1)" style="fill: none; stroke: #b0b0b0; stroke-opacity: 0.25; stroke-width: 0.8; stroke-linecap: square"/>
     </g>
     <g id="line2d_10">
      <g>
       <use xlink:href="#m6f92ed9da6" x="443.841761" y="244.078125" style="stroke: #000000; stroke-width: 0.8"/>
      </g>
     </g>
     <g id="text_5">
      <!-- 4000 -->
      <g transform="translate(431.116761 258.676562) scale(0.1 -0.1)">
       <defs>
        <path id="DejaVuSans-34" d="M 2419 4116 
L 825 1625 
L 2419 1625 
L 2419 4116 
z
M 2253 4666 
L 3047 4666 
L 3047 1625 
L 3713 1625 
L 3713 1100 
L 3047 1100 
L 3047 0 
L 2419 0 
L 2419 1100 
L 313 1100 
L 313 1709 
L 2253 4666 
z
" transform="scale(0.015625)"/>
       </defs>
       <use xlink:href="#DejaVuSans-34"/>
       <use xlink:href="#DejaVuSans-30" transform="translate(63.623047 0)"/>
       <use xlink:href="#DejaVuSans-30" transform="translate(127.246094 0)"/>
       <use xlink:href="#DejaVuSans-30" transform="translate(190.869141 0)"/>
      </g>
     </g>
    </g>
    <g id="xtick_6">
     <g id="line2d_11">
      <path d="M 535.150852 244.078125 
L 535.150852 22.318125 
" clip-path="url(#p17a66962e1)" style="fill: none; stroke: #b0b0b0; stroke-opacity: 0.25; stroke-width: 0.8; stroke-linecap: square"/>
     </g>
     <g id="line2d_12">
      <g>
       <use xlink:href="#m6f92ed9da6" x="535.150852" y="244.078125" style="stroke: #000000; stroke-width: 0.8"/>
      </g>
     </g>
     <g id="text_6">
      <!-- 5000 -->
      <g transform="translate(522.425852 258.676562) scale(0.1 -0.1)">
       <defs>
        <path id="DejaVuSans-35" d="M 691 4666 
L 3169 4666 
L 3169 4134 
L 1269 4134 
L 1269 2991 
Q 1406 3038 1543 3061 
Q 1681 3084 1819 3084 
Q 2600 3084 3056 2656 
Q 3513 2228 3513 1497 
Q 3513 744 3044 326 
Q 2575 -91 1722 -91 
Q 1428 -91 1123 -41 
Q 819 9 494 109 
L 494 744 
Q 775 591 1075 516 
Q 1375 441 1709 441 
Q 2250 441 2565 725 
Q 2881 1009 2881 1497 
Q 2881 1984 2565 2268 
Q 2250 2553 1709 2553 
Q 1456 2553 1204 2497 
Q 953 2441 691 2322 
L 691 4666 
z
" transform="scale(0.015625)"/>
       </defs>
       <use xlink:href="#DejaVuSans-35"/>
       <use xlink:href="#DejaVuSans-30" transform="translate(63.623047 0)"/>
       <use xlink:href="#DejaVuSans-30" transform="translate(127.246094 0)"/>
       <use xlink:href="#DejaVuSans-30" transform="translate(190.869141 0)"/>
      </g>
     </g>
    </g>
    <g id="text_7">
     <!-- Frequency (Hz) -->
     <g transform="translate(269.173438 272.354687) scale(0.1 -0.1)">
      <defs>
       <path id="DejaVuSans-46" d="M 628 4666 
L 3309 4666 
L 3309 4134 
L 1259 4134 
L 1259 2759 
L 3109 2759 
L 3109 2228 
L 1259 2228 
L 1259 0 
L 628 0 
L 628 4666 
z
" transform="scale(0.015625)"/>
       <path id="DejaVuSans-72" d="M 2631 2963 
Q 2534 3019 2420 3045 
Q 2306 3072 2169 3072 
Q 1681 3072 1420 2755 
Q 1159 2438 1159 1844 
L 1159 0 
L 581 0 
L 581 3500 
L 1159 3500 
L 1159 2956 
Q 1341 3275 1631 3429 
Q 1922 3584 2338 3584 
Q 2397 3584 2469 3576 
Q 2541 3569 2628 3553 
L 2631 2963 
z
" transform="scale(0.015625)"/>
       <path id="DejaVuSans-65" d="M 3597 1894 
L 3597 1613 
L 953 1613 
Q 991 1019 1311 708 
Q 1631 397 2203 397 
Q 2534 397 2845 478 
Q 3156 559 3463 722 
L 3463 178 
Q 3153 47 2828 -22 
Q 2503 -91 2169 -91 
Q 1331 -91 842 396 
Q 353 884 353 1716 
Q 353 2575 817 3079 
Q 1281 3584 2069 3584 
Q 2775 3584 3186 3129 
Q 3597 2675 3597 1894 
z
M 3022 2063 
Q 3016 2534 2758 2815 
Q 2500 3097 2075 3097 
Q 1594 3097 1305 2825 
Q 1016 2553 972 2059 
L 3022 2063 
z
" transform="scale(0.015625)"/>
       <path id="DejaVuSans-71" d="M 947 1747 
Q 947 1113 1208 752 
Q 1469 391 1925 391 
Q 2381 391 2643 752 
Q 2906 1113 2906 1747 
Q 2906 2381 2643 2742 
Q 2381 3103 1925 3103 
Q 1469 3103 1208 2742 
Q 947 2381 947 1747 
z
M 2906 525 
Q 2725 213 2448 61 
Q 2172 -91 1784 -91 
Q 1150 -91 751 415 
Q 353 922 353 1747 
Q 353 2572 751 3078 
Q 1150 3584 1784 3584 
Q 2172 3584 2448 3432 
Q 2725 3281 2906 2969 
L 2906 3500 
L 3481 3500 
L 3481 -1331 
L 2906 -1331 
L 2906 525 
z
" transform="scale(0.015625)"/>
       <path id="DejaVuSans-75" d="M 544 1381 
L 544 3500 
L 1119 3500 
L 1119 1403 
Q 1119 906 1312 657 
Q 1506 409 1894 409 
Q 2359 409 2629 706 
Q 2900 1003 2900 1516 
L 2900 3500 
L 3475 3500 
L 3475 0 
L 2900 0 
L 2900 538 
Q 2691 219 2414 64 
Q 2138 -91 1772 -91 
Q 1169 -91 856 284 
Q 544 659 544 1381 
z
M 1991 3584 
L 1991 3584 
z
" transform="scale(0.015625)"/>
       <path id="DejaVuSans-6e" d="M 3513 2113 
L 3513 0 
L 2938 0 
L 2938 2094 
Q 2938 2591 2744 2837 
Q 2550 3084 2163 3084 
Q 1697 3084 1428 2787 
Q 1159 2491 1159 1978 
L 1159 0 
L 581 0 
L 581 3500 
L 1159 3500 
L 1159 2956 
Q 1366 3272 1645 3428 
Q 1925 3584 2291 3584 
Q 2894 3584 3203 3211 
Q 3513 2838 3513 2113 
z
" transform="scale(0.015625)"/>
       <path id="DejaVuSans-63" d="M 3122 3366 
L 3122 2828 
Q 2878 2963 2633 3030 
Q 2388 3097 2138 3097 
Q 1578 3097 1268 2742 
Q 959 2388 959 1747 
Q 959 1106 1268 751 
Q 1578 397 2138 397 
Q 2388 397 2633 464 
Q 2878 531 3122 666 
L 3122 134 
Q 2881 22 2623 -34 
Q 2366 -91 2075 -91 
Q 1284 -91 818 406 
Q 353 903 353 1747 
Q 353 2603 823 3093 
Q 1294 3584 2113 3584 
Q 2378 3584 2631 3529 
Q 2884 3475 3122 3366 
z
" transform="scale(0.015625)"/>
       <path id="DejaVuSans-79" d="M 2059 -325 
Q 1816 -950 1584 -1140 
Q 1353 -1331 966 -1331 
L 506 -1331 
L 506 -850 
L 844 -850 
Q 1081 -850 1212 -737 
Q 1344 -625 1503 -206 
L 1606 56 
L 191 3500 
L 800 3500 
L 1894 763 
L 2988 3500 
L 3597 3500 
L 2059 -325 
z
" transform="scale(0.015625)"/>
       <path id="DejaVuSans-20" transform="scale(0.015625)"/>
       <path id="DejaVuSans-28" d="M 1984 4856 
Q 1566 4138 1362 3434 
Q 1159 2731 1159 2009 
Q 1159 1288 1364 580 
Q 1569 -128 1984 -844 
L 1484 -844 
Q 1016 -109 783 600 
Q 550 1309 550 2009 
Q 550 2706 781 3412 
Q 1013 4119 1484 4856 
L 1984 4856 
z
" transform="scale(0.015625)"/>
       <path id="DejaVuSans-48" d="M 628 4666 
L 1259 4666 
L 1259 2753 
L 3553 2753 
L 3553 4666 
L 4184 4666 
L 4184 0 
L 3553 0 
L 3553 2222 
L 1259 2222 
L 1259 0 
L 628 0 
L 628 4666 
z
" transform="scale(0.015625)"/>
       <path id="DejaVuSans-7a" d="M 353 3500 
L 3084 3500 
L 3084 2975 
L 922 459 
L 3084 459 
L 3084 0 
L 275 0 
L 275 525 
L 2438 3041 
L 353 3041 
L 353 3500 
z
" transform="scale(0.015625)"/>
       <path id="DejaVuSans-29" d="M 513 4856 
L 1013 4856 
Q 1481 4119 1714 3412 
Q 1947 2706 1947 2009 
Q 1947 1309 1714 600 
Q 1481 -109 1013 -844 
L 513 -844 
Q 928 -128 1133 580 
Q 1338 1288 1338 2009 
Q 1338 2731 1133 3434 
Q 928 4138 513 4856 
z
" transform="scale(0.015625)"/>
      </defs>
      <use xlink:href="#DejaVuSans-46"/>
      <use xlink:href="#DejaVuSans-72" transform="translate(50.269531 0)"/>
      <use xlink:href="#DejaVuSans-65" transform="translate(89.132812 0)"/>
      <use xlink:href="#DejaVuSans-71" transform="translate(150.65625 0)"/>
      <use xlink:href="#DejaVuSans-75" transform="translate(214.132812 0)"/>
      <use xlink:href="#DejaVuSans-65" transform="translate(277.511719 0)"/>
      <use xlink:href="#DejaVuSans-6e" transform="translate(339.035156 0)"/>
      <use xlink:href="#DejaVuSans-63" transform="translate(402.414062 0)"/>
      <use xlink:href="#DejaVuSans-79" transform="translate(457.394531 0)"/>
      <use xlink:href="#DejaVuSans-20" transform="translate(516.574219 0)"/>
      <use xlink:href="#DejaVuSans-28" transform="translate(548.361328 0)"/>
      <use xlink:href="#DejaVuSans-48" transform="translate(587.375 0)"/>
      <use xlink:href="#DejaVuSans-7a" transform="translate(662.570312 0)"/>
      <use xlink:href="#DejaVuSans-29" transform="translate(715.060547 0)"/>
     </g>
    </g>
   </g>
   <g id="matplotlib.axis_2">
    <g id="ytick_1">
     <g id="line2d_13">
      <path d="M 55.778125 223.057528 
L 557.978125 223.057528 
" clip-path="url(#p17a66962e1)" style="fill: none; stroke: #b0b0b0; stroke-opacity: 0.25; stroke-width: 0.8; stroke-linecap: square"/>
     </g>
     <g id="line2d_14">
      <defs>
       <path id="m8874b331bf" d="M 0 0 
L -3.5 0 
" style="stroke: #000000; stroke-width: 0.8"/>
      </defs>
      <g>
       <use xlink:href="#m8874b331bf" x="55.778125" y="223.057528" style="stroke: #000000; stroke-width: 0.8"/>
      </g>
     </g>
     <g id="text_8">
      <!-- $\mathdefault{10^{-21}}$ -->
      <g transform="translate(20.878125 226.856747) scale(0.1 -0.1)">
       <defs>
        <path id="DejaVuSans-2212" d="M 678 2272 
L 4684 2272 
L 4684 1741 
L 678 1741 
L 678 2272 
z
" transform="scale(0.015625)"/>
       </defs>
       <use xlink:href="#DejaVuSans-31" transform="translate(0 0.765625)"/>
       <use xlink:href="#DejaVuSans-30" transform="translate(63.623047 0.765625)"/>
       <use xlink:href="#DejaVuSans-2212" transform="translate(128.203125 39.046875) scale(0.7)"/>
       <use xlink:href="#DejaVuSans-32" transform="translate(186.855469 39.046875) scale(0.7)"/>
       <use xlink:href="#DejaVuSans-31" transform="translate(231.391602 39.046875) scale(0.7)"/>
      </g>
     </g>
    </g>
    <g id="ytick_2">
     <g id="line2d_15">
      <path d="M 55.778125 195.827743 
L 557.978125 195.827743 
" clip-path="url(#p17a66962e1)" style="fill: none; stroke: #b0b0b0; stroke-opacity: 0.25; stroke-width: 0.8; stroke-linecap: square"/>
     </g>
     <g id="line2d_16">
      <g>
       <use xlink:href="#m8874b331bf" x="55.778125" y="195.827743" style="stroke: #000000; stroke-width: 0.8"/>
      </g>
     </g>
     <g id="text_9">
      <!-- $\mathdefault{10^{-19}}$ -->
      <g transform="translate(20.878125 199.626962) scale(0.1 -0.1)">
       <defs>
        <path id="DejaVuSans-39" d="M 703 97 
L 703 672 
Q 941 559 1184 500 
Q 1428 441 1663 441 
Q 2288 441 2617 861 
Q 2947 1281 2994 2138 
Q 2813 1869 2534 1725 
Q 2256 1581 1919 1581 
Q 1219 1581 811 2004 
Q 403 2428 403 3163 
Q 403 3881 828 4315 
Q 1253 4750 1959 4750 
Q 2769 4750 3195 4129 
Q 3622 3509 3622 2328 
Q 3622 1225 3098 567 
Q 2575 -91 1691 -91 
Q 1453 -91 1209 -44 
Q 966 3 703 97 
z
M 1959 2075 
Q 2384 2075 2632 2365 
Q 2881 2656 2881 3163 
Q 2881 3666 2632 3958 
Q 2384 4250 1959 4250 
Q 1534 4250 1286 3958 
Q 1038 3666 1038 3163 
Q 1038 2656 1286 2365 
Q 1534 2075 1959 2075 
z
" transform="scale(0.015625)"/>
       </defs>
       <use xlink:href="#DejaVuSans-31" transform="translate(0 0.765625)"/>
       <use xlink:href="#DejaVuSans-30" transform="translate(63.623047 0.765625)"/>
       <use xlink:href="#DejaVuSans-2212" transform="translate(128.203125 39.046875) scale(0.7)"/>
       <use xlink:href="#DejaVuSans-31" transform="translate(186.855469 39.046875) scale(0.7)"/>
       <use xlink:href="#DejaVuSans-39" transform="translate(231.391602 39.046875) scale(0.7)"/>
      </g>
     </g>
    </g>
    <g id="ytick_3">
     <g id="line2d_17">
      <path d="M 55.778125 168.597958 
L 557.978125 168.597958 
" clip-path="url(#p17a66962e1)" style="fill: none; stroke: #b0b0b0; stroke-opacity: 0.25; stroke-width: 0.8; stroke-linecap: square"/>
     </g>
     <g id="line2d_18">
      <g>
       <use xlink:href="#m8874b331bf" x="55.778125" y="168.597958" style="stroke: #000000; stroke-width: 0.8"/>
      </g>
     </g>
     <g id="text_10">
      <!-- $\mathdefault{10^{-17}}$ -->
      <g transform="translate(20.878125 172.397177) scale(0.1 -0.1)">
       <defs>
        <path id="DejaVuSans-37" d="M 525 4666 
L 3525 4666 
L 3525 4397 
L 1831 0 
L 1172 0 
L 2766 4134 
L 525 4134 
L 525 4666 
z
" transform="scale(0.015625)"/>
       </defs>
       <use xlink:href="#DejaVuSans-31" transform="translate(0 0.684375)"/>
       <use xlink:href="#DejaVuSans-30" transform="translate(63.623047 0.684375)"/>
       <use xlink:href="#DejaVuSans-2212" transform="translate(128.203125 38.965625) scale(0.7)"/>
       <use xlink:href="#DejaVuSans-31" transform="translate(186.855469 38.965625) scale(0.7)"/>
       <use xlink:href="#DejaVuSans-37" transform="translate(231.391602 38.965625) scale(0.7)"/>
      </g>
     </g>
    </g>
    <g id="ytick_4">
     <g id="line2d_19">
      <path d="M 55.778125 141.368173 
L 557.978125 141.368173 
" clip-path="url(#p17a66962e1)" style="fill: none; stroke: #b0b0b0; stroke-opacity: 0.25; stroke-width: 0.8; stroke-linecap: square"/>
     </g>
     <g id="line2d_20">
      <g>
       <use xlink:href="#m8874b331bf" x="55.778125" y="141.368173" style="stroke: #000000; stroke-width: 0.8"/>
      </g>
     </g>
     <g id="text_11">
      <!-- $\mathdefault{10^{-15}}$ -->
      <g transform="translate(20.878125 145.167391) scale(0.1 -0.1)">
       <use xlink:href="#DejaVuSans-31" transform="translate(0 0.684375)"/>
       <use xlink:href="#DejaVuSans-30" transform="translate(63.623047 0.684375)"/>
       <use xlink:href="#DejaVuSans-2212" transform="translate(128.203125 38.965625) scale(0.7)"/>
       <use xlink:href="#DejaVuSans-31" transform="translate(186.855469 38.965625) scale(0.7)"/>
       <use xlink:href="#DejaVuSans-35" transform="translate(231.391602 38.965625) scale(0.7)"/>
      </g>
     </g>
    </g>
    <g id="ytick_5">
     <g id="line2d_21">
      <path d="M 55.778125 114.138387 
L 557.978125 114.138387 
" clip-path="url(#p17a66962e1)" style="fill: none; stroke: #b0b0b0; stroke-opacity: 0.25; stroke-width: 0.8; stroke-linecap: square"/>
     </g>
     <g id="line2d_22">
      <g>
       <use xlink:href="#m8874b331bf" x="55.778125" y="114.138387" style="stroke: #000000; stroke-width: 0.8"/>
      </g>
     </g>
     <g id="text_12">
      <!-- $\mathdefault{10^{-13}}$ -->
      <g transform="translate(20.878125 117.937606) scale(0.1 -0.1)">
       <use xlink:href="#DejaVuSans-31" transform="translate(0 0.765625)"/>
       <use xlink:href="#DejaVuSans-30" transform="translate(63.623047 0.765625)"/>
       <use xlink:href="#DejaVuSans-2212" transform="translate(128.203125 39.046875) scale(0.7)"/>
       <use xlink:href="#DejaVuSans-31" transform="translate(186.855469 39.046875) scale(0.7)"/>
       <use xlink:href="#DejaVuSans-33" transform="translate(231.391602 39.046875) scale(0.7)"/>
      </g>
     </g>
    </g>
    <g id="ytick_6">
     <g id="line2d_23">
      <path d="M 55.778125 86.908602 
L 557.978125 86.908602 
" clip-path="url(#p17a66962e1)" style="fill: none; stroke: #b0b0b0; stroke-opacity: 0.25; stroke-width: 0.8; stroke-linecap: square"/>
     </g>
     <g id="line2d_24">
      <g>
       <use xlink:href="#m8874b331bf" x="55.778125" y="86.908602" style="stroke: #000000; stroke-width: 0.8"/>
      </g>
     </g>
     <g id="text_13">
      <!-- $\mathdefault{10^{-11}}$ -->
      <g transform="translate(20.878125 90.707821) scale(0.1 -0.1)">
       <use xlink:href="#DejaVuSans-31" transform="translate(0 0.684375)"/>
       <use xlink:href="#DejaVuSans-30" transform="translate(63.623047 0.684375)"/>
       <use xlink:href="#DejaVuSans-2212" transform="translate(128.203125 38.965625) scale(0.7)"/>
       <use xlink:href="#DejaVuSans-31" transform="translate(186.855469 38.965625) scale(0.7)"/>
       <use xlink:href="#DejaVuSans-31" transform="translate(231.391602 38.965625) scale(0.7)"/>
      </g>
     </g>
    </g>
    <g id="ytick_7">
     <g id="line2d_25">
      <path d="M 55.778125 59.678817 
L 557.978125 59.678817 
" clip-path="url(#p17a66962e1)" style="fill: none; stroke: #b0b0b0; stroke-opacity: 0.25; stroke-width: 0.8; stroke-linecap: square"/>
     </g>
     <g id="line2d_26">
      <g>
       <use xlink:href="#m8874b331bf" x="55.778125" y="59.678817" style="stroke: #000000; stroke-width: 0.8"/>
      </g>
     </g>
     <g id="text_14">
      <!-- $\mathdefault{10^{-9}}$ -->
      <g transform="translate(25.278125 63.478036) scale(0.1 -0.1)">
       <use xlink:href="#DejaVuSans-31" transform="translate(0 0.765625)"/>
       <use xlink:href="#DejaVuSans-30" transform="translate(63.623047 0.765625)"/>
       <use xlink:href="#DejaVuSans-2212" transform="translate(128.203125 39.046875) scale(0.7)"/>
       <use xlink:href="#DejaVuSans-39" transform="translate(186.855469 39.046875) scale(0.7)"/>
      </g>
     </g>
    </g>
    <g id="ytick_8">
     <g id="line2d_27">
      <path d="M 55.778125 32.449032 
L 557.978125 32.449032 
" clip-path="url(#p17a66962e1)" style="fill: none; stroke: #b0b0b0; stroke-opacity: 0.25; stroke-width: 0.8; stroke-linecap: square"/>
     </g>
     <g id="line2d_28">
      <g>
       <use xlink:href="#m8874b331bf" x="55.778125" y="32.449032" style="stroke: #000000; stroke-width: 0.8"/>
      </g>
     </g>
     <g id="text_15">
      <!-- $\mathdefault{10^{-7}}$ -->
      <g transform="translate(25.278125 36.24825) scale(0.1 -0.1)">
       <use xlink:href="#DejaVuSans-31" transform="translate(0 0.684375)"/>
       <use xlink:href="#DejaVuSans-30" transform="translate(63.623047 0.684375)"/>
       <use xlink:href="#DejaVuSans-2212" transform="translate(128.203125 38.965625) scale(0.7)"/>
       <use xlink:href="#DejaVuSans-37" transform="translate(186.855469 38.965625) scale(0.7)"/>
      </g>
     </g>
    </g>
    <g id="text_16">
     <!-- PSD (unit²/Hz) -->
     <g transform="translate(14.798438 168.487969) rotate(-90) scale(0.1 -0.1)">
      <defs>
       <path id="DejaVuSans-50" d="M 1259 4147 
L 1259 2394 
L 2053 2394 
Q 2494 2394 2734 2622 
Q 2975 2850 2975 3272 
Q 2975 3691 2734 3919 
Q 2494 4147 2053 4147 
L 1259 4147 
z
M 628 4666 
L 2053 4666 
Q 2838 4666 3239 4311 
Q 3641 3956 3641 3272 
Q 3641 2581 3239 2228 
Q 2838 1875 2053 1875 
L 1259 1875 
L 1259 0 
L 628 0 
L 628 4666 
z
" transform="scale(0.015625)"/>
       <path id="DejaVuSans-53" d="M 3425 4513 
L 3425 3897 
Q 3066 4069 2747 4153 
Q 2428 4238 2131 4238 
Q 1616 4238 1336 4038 
Q 1056 3838 1056 3469 
Q 1056 3159 1242 3001 
Q 1428 2844 1947 2747 
L 2328 2669 
Q 3034 2534 3370 2195 
Q 3706 1856 3706 1288 
Q 3706 609 3251 259 
Q 2797 -91 1919 -91 
Q 1588 -91 1214 -16 
Q 841 59 441 206 
L 441 856 
Q 825 641 1194 531 
Q 1563 422 1919 422 
Q 2459 422 2753 634 
Q 3047 847 3047 1241 
Q 3047 1584 2836 1778 
Q 2625 1972 2144 2069 
L 1759 2144 
Q 1053 2284 737 2584 
Q 422 2884 422 3419 
Q 422 4038 858 4394 
Q 1294 4750 2059 4750 
Q 2388 4750 2728 4690 
Q 3069 4631 3425 4513 
z
" transform="scale(0.015625)"/>
       <path id="DejaVuSans-44" d="M 1259 4147 
L 1259 519 
L 2022 519 
Q 2988 519 3436 956 
Q 3884 1394 3884 2338 
Q 3884 3275 3436 3711 
Q 2988 4147 2022 4147 
L 1259 4147 
z
M 628 4666 
L 1925 4666 
Q 3281 4666 3915 4102 
Q 4550 3538 4550 2338 
Q 4550 1131 3912 565 
Q 3275 0 1925 0 
L 628 0 
L 628 4666 
z
" transform="scale(0.015625)"/>
       <path id="DejaVuSans-69" d="M 603 3500 
L 1178 3500 
L 1178 0 
L 603 0 
L 603 3500 
z
M 603 4863 
L 1178 4863 
L 1178 4134 
L 603 4134 
L 603 4863 
z
" transform="scale(0.015625)"/>
       <path id="DejaVuSans-74" d="M 1172 4494 
L 1172 3500 
L 2356 3500 
L 2356 3053 
L 1172 3053 
L 1172 1153 
Q 1172 725 1289 603 
Q 1406 481 1766 481 
L 2356 481 
L 2356 0 
L 1766 0 
Q 1100 0 847 248 
Q 594 497 594 1153 
L 594 3053 
L 172 3053 
L 172 3500 
L 594 3500 
L 594 4494 
L 1172 4494 
z
" transform="scale(0.015625)"/>
       <path id="DejaVuSans-b2" d="M 838 2444 
L 2163 2444 
L 2163 2088 
L 294 2088 
L 294 2431 
Q 400 2528 597 2703 
Q 1672 3656 1672 3950 
Q 1672 4156 1509 4282 
Q 1347 4409 1081 4409 
Q 919 4409 728 4354 
Q 538 4300 313 4191 
L 313 4575 
Q 553 4663 761 4706 
Q 969 4750 1147 4750 
Q 1600 4750 1872 4544 
Q 2144 4338 2144 4000 
Q 2144 3566 1109 2678 
Q 934 2528 838 2444 
z
" transform="scale(0.015625)"/>
       <path id="DejaVuSans-2f" d="M 1625 4666 
L 2156 4666 
L 531 -594 
L 0 -594 
L 1625 4666 
z
" transform="scale(0.015625)"/>
      </defs>
      <use xlink:href="#DejaVuSans-50"/>
      <use xlink:href="#DejaVuSans-53" transform="translate(60.302734 0)"/>
      <use xlink:href="#DejaVuSans-44" transform="translate(123.779297 0)"/>
      <use xlink:href="#DejaVuSans-20" transform="translate(200.78125 0)"/>
      <use xlink:href="#DejaVuSans-28" transform="translate(232.568359 0)"/>
      <use xlink:href="#DejaVuSans-75" transform="translate(271.582031 0)"/>
      <use xlink:href="#DejaVuSans-6e" transform="translate(334.960938 0)"/>
      <use xlink:href="#DejaVuSans-69" transform="translate(398.339844 0)"/>
      <use xlink:href="#DejaVuSans-74" transform="translate(426.123047 0)"/>
      <use xlink:href="#DejaVuSans-b2" transform="translate(465.332031 0)"/>
      <use xlink:href="#DejaVuSans-2f" transform="translate(505.419922 0)"/>
      <use xlink:href="#DejaVuSans-48" transform="translate(539.111328 0)"/>
      <use xlink:href="#DejaVuSans-7a" transform="translate(614.306641 0)"/>
      <use xlink:href="#DejaVuSans-29" transform="translate(666.796875 0)"/>
     </g>
    </g>
   </g>
   <g id="line2d_29">
    <path d="M 78.605398 77.480215 
L 79.497088 80.71847 
L 80.388778 85.971545 
L 81.280469 84.299794 
L 82.172159 88.061397 
L 83.063849 88.72949 
L 83.95554 89.891856 
L 84.84723 87.222535 
L 85.73892 82.333052 
L 86.630611 76.55431 
L 87.522301 69.845416 
L 88.413991 45.810971 
L 89.305682 32.398125 
L 90.197372 35.838211 
L 91.089063 60.533899 
L 91.980753 66.16611 
L 92.872443 69.379898 
L 93.764134 71.882476 
L 94.655824 73.548229 
L 95.547514 76.094105 
L 96.439205 76.757668 
L 97.330895 72.45627 
L 98.222585 70.738681 
L 99.114276 69.334481 
L 100.005966 63.147074 
L 100.897656 62.457314 
L 101.789347 64.793438 
L 102.681037 61.82712 
L 103.572727 61.022968 
L 104.464418 68.540898 
L 105.356108 71.618102 
L 106.247798 72.417296 
L 107.139489 76.365688 
L 108.922869 77.146269 
L 109.81456 78.518237 
L 110.70625 65.342003 
L 111.59794 60.729022 
L 112.489631 69.463038 
L 113.381321 72.838852 
L 114.273011 72.096644 
L 115.164702 72.674539 
L 116.056392 76.010621 
L 116.948082 76.184682 
L 117.839773 72.799468 
L 118.731463 71.233999 
L 120.514844 71.944303 
L 121.406534 70.775834 
L 122.298224 68.951291 
L 123.189915 71.085676 
L 124.081605 72.884465 
L 125.864986 69.336998 
L 126.756676 68.911122 
L 127.648366 68.106847 
L 128.540057 66.866012 
L 129.431747 65.108592 
L 130.323438 65.700471 
L 132.106818 64.781224 
L 132.998509 65.913041 
L 133.890199 66.386661 
L 134.781889 67.281669 
L 135.67358 67.097776 
L 136.56527 66.766668 
L 137.45696 66.755586 
L 139.240341 67.681707 
L 140.132031 68.830028 
L 141.023722 62.076169 
L 141.915412 52.367691 
L 142.807102 54.310305 
L 143.698793 57.476919 
L 144.590483 57.573055 
L 145.482173 60.321805 
L 146.373864 59.141585 
L 147.265554 59.034245 
L 148.157244 58.230992 
L 149.048935 58.816841 
L 149.940625 61.449959 
L 150.832315 61.428014 
L 151.724006 61.744972 
L 152.615696 56.639433 
L 153.507386 57.159748 
L 154.399077 62.970086 
L 155.290767 63.125643 
L 156.182457 63.549122 
L 157.074148 63.418181 
L 157.965838 65.263373 
L 158.857528 64.917844 
L 159.749219 67.298776 
L 160.640909 67.953858 
L 161.532599 67.646095 
L 162.42429 68.254271 
L 164.20767 65.590065 
L 165.099361 70.58902 
L 165.991051 72.769414 
L 166.882741 70.285268 
L 167.774432 69.328372 
L 169.557813 70.3196 
L 170.449503 70.416972 
L 171.341193 69.282164 
L 173.124574 66.134545 
L 174.016264 61.774213 
L 174.907955 55.149421 
L 176.691335 64.050573 
L 178.474716 62.399392 
L 179.366406 62.971853 
L 180.258097 62.969715 
L 181.149787 62.082054 
L 182.041477 63.646128 
L 182.933168 64.954097 
L 183.824858 65.073865 
L 184.716548 64.474506 
L 185.608239 64.018347 
L 186.499929 64.853358 
L 187.391619 69.723001 
L 188.28331 68.683354 
L 189.175 67.363545 
L 190.06669 68.281096 
L 191.850071 69.273845 
L 193.633452 68.330606 
L 194.525142 70.251515 
L 195.416832 73.450627 
L 196.308523 71.461391 
L 197.200213 69.018999 
L 198.091903 68.815966 
L 198.983594 68.050941 
L 199.875284 69.60846 
L 200.766974 73.317883 
L 201.658665 73.134545 
L 202.550355 69.741144 
L 203.442045 71.026073 
L 204.333736 72.740709 
L 205.225426 71.549703 
L 206.117116 73.826518 
L 207.008807 72.560743 
L 207.900497 73.149189 
L 208.792188 75.111923 
L 209.683878 72.374409 
L 210.575568 74.963354 
L 211.467259 74.964739 
L 212.358949 77.13837 
L 213.250639 77.17977 
L 214.14233 77.499428 
L 215.03402 78.149089 
L 215.92571 77.104206 
L 216.817401 76.391725 
L 217.709091 76.357268 
L 218.600781 77.804847 
L 219.492472 77.384738 
L 220.384162 78.624067 
L 221.275852 77.687965 
L 222.167543 76.455583 
L 223.059233 76.195368 
L 223.950923 76.495993 
L 224.842614 77.218777 
L 225.734304 71.500798 
L 226.625994 67.713196 
L 227.517685 68.585777 
L 228.409375 72.189781 
L 229.301065 73.272864 
L 230.192756 75.535311 
L 231.084446 76.315021 
L 231.976136 76.515929 
L 232.867827 74.237116 
L 233.759517 73.711198 
L 234.651207 75.497784 
L 235.542898 74.710864 
L 236.434588 74.265266 
L 237.326278 73.614719 
L 238.217969 71.430986 
L 239.109659 71.006723 
L 240.001349 73.174714 
L 240.89304 72.984556 
L 242.67642 75.504097 
L 243.568111 75.221674 
L 244.459801 76.49979 
L 245.351491 73.723279 
L 246.243182 72.059497 
L 247.134872 71.106249 
L 248.026563 71.35463 
L 248.918253 69.975078 
L 249.809943 68.828448 
L 250.701634 69.664374 
L 251.593324 68.900728 
L 252.485014 68.51778 
L 253.376705 70.369857 
L 254.268395 71.029316 
L 255.160085 70.217025 
L 256.051776 70.669262 
L 256.943466 71.673591 
L 258.726847 69.565116 
L 259.618537 68.874459 
L 260.510227 69.823214 
L 261.401918 69.973833 
L 262.293608 68.215534 
L 263.185298 68.330964 
L 264.076989 68.920435 
L 264.968679 67.134813 
L 265.860369 66.856567 
L 266.75206 66.388671 
L 267.64375 66.60504 
L 268.53544 64.114771 
L 269.427131 63.432064 
L 270.318821 64.175144 
L 272.102202 64.761993 
L 272.993892 63.957571 
L 273.885582 64.584103 
L 274.777273 65.799374 
L 275.668963 65.904187 
L 276.560653 67.129479 
L 280.127415 58.277854 
L 281.019105 55.415127 
L 281.910795 55.512882 
L 282.802486 54.729062 
L 283.694176 52.709596 
L 284.585866 52.226397 
L 285.477557 53.69447 
L 286.369247 51.417665 
L 287.260938 52.087338 
L 288.152628 51.667555 
L 289.044318 49.521269 
L 289.936009 50.312961 
L 290.827699 51.605237 
L 291.719389 51.125191 
L 292.61108 50.945008 
L 293.50277 51.527639 
L 294.39446 52.440391 
L 295.286151 51.583162 
L 297.069531 50.873294 
L 297.961222 49.3509 
L 299.744602 51.008717 
L 300.636293 50.625755 
L 301.527983 49.005442 
L 302.419673 50.506515 
L 303.311364 53.001221 
L 304.203054 53.377032 
L 305.094744 54.496168 
L 306.878125 54.979643 
L 308.661506 57.128947 
L 309.553196 56.811912 
L 310.444886 57.260961 
L 311.336577 56.477331 
L 312.228267 58.136695 
L 313.119957 58.575552 
L 314.011648 60.093812 
L 314.903338 60.879328 
L 315.795028 61.17393 
L 316.686719 62.565642 
L 317.578409 62.663112 
L 318.470099 63.127468 
L 319.36179 62.685759 
L 320.25348 62.470605 
L 321.14517 62.795514 
L 322.928551 62.121583 
L 323.820241 63.248839 
L 324.711932 64.162577 
L 325.603622 64.31498 
L 326.495313 66.399498 
L 327.387003 66.054548 
L 328.278693 65.521531 
L 329.170384 65.668572 
L 330.062074 65.313899 
L 330.953764 66.912001 
L 332.737145 67.939095 
L 333.628835 67.42412 
L 334.520526 66.267713 
L 335.412216 67.098279 
L 336.303906 68.14647 
L 337.195597 67.752917 
L 338.087287 67.562981 
L 338.978977 67.174677 
L 339.870668 67.691736 
L 340.762358 68.383176 
L 341.654048 68.765214 
L 342.545739 69.315399 
L 343.437429 70.368125 
L 344.329119 69.906224 
L 345.22081 70.027184 
L 346.1125 68.472162 
L 347.00419 67.824791 
L 347.895881 68.35088 
L 349.679261 68.17668 
L 351.462642 69.744701 
L 352.354332 69.77495 
L 353.246023 71.364048 
L 354.137713 70.891892 
L 355.029403 69.482451 
L 355.921094 69.865165 
L 356.812784 70.948144 
L 357.704474 71.297684 
L 358.596165 69.31784 
L 359.487855 68.926786 
L 360.379545 70.166737 
L 361.271236 70.032563 
L 362.162926 69.683973 
L 363.054616 69.067943 
L 363.946307 70.619676 
L 364.837997 71.277781 
L 365.729688 70.787883 
L 366.621378 69.845616 
L 367.513068 69.772608 
L 368.404759 71.176777 
L 370.188139 71.517719 
L 371.07983 73.977704 
L 371.97152 74.617075 
L 372.86321 73.561683 
L 373.754901 72.700923 
L 374.646591 73.04119 
L 375.538281 73.101148 
L 376.429972 75.432639 
L 377.321662 75.902412 
L 378.213352 74.592692 
L 379.105043 74.614063 
L 379.996733 76.706482 
L 380.888423 75.64076 
L 381.780114 76.110839 
L 382.671804 74.483569 
L 383.563494 71.535279 
L 385.346875 70.833261 
L 386.238565 69.515021 
L 388.021946 71.52703 
L 388.913636 71.265032 
L 389.805327 71.370449 
L 391.588707 76.349922 
L 392.480398 77.658509 
L 393.372088 78.502994 
L 395.155469 81.508702 
L 396.047159 81.637596 
L 396.938849 82.882106 
L 398.72223 81.621863 
L 399.61392 79.955187 
L 400.505611 80.062244 
L 401.397301 78.886047 
L 402.288991 77.461829 
L 403.180682 77.391019 
L 404.072372 76.509863 
L 404.964063 76.593038 
L 405.855753 76.809566 
L 406.747443 76.441406 
L 407.639134 75.157958 
L 409.422514 77.181317 
L 410.314205 75.320292 
L 411.205895 74.863497 
L 412.097585 73.025827 
L 412.989276 72.069216 
L 413.880966 74.450058 
L 414.772656 73.260044 
L 415.664347 73.356241 
L 416.556037 72.364482 
L 417.447727 71.851794 
L 418.339418 71.622157 
L 419.231108 72.827279 
L 420.122798 72.829104 
L 421.014489 71.403834 
L 421.906179 68.447762 
L 422.797869 67.368545 
L 423.68956 66.583536 
L 424.58125 66.175972 
L 425.47294 66.679658 
L 426.364631 67.725726 
L 427.256321 69.386733 
L 428.148011 70.621382 
L 429.039702 69.781019 
L 429.931392 65.344184 
L 430.823082 65.114906 
L 431.714773 65.666245 
L 432.606463 66.006666 
L 433.498153 67.266454 
L 434.389844 67.429593 
L 435.281534 66.441421 
L 436.173224 64.9772 
L 437.064915 62.921144 
L 437.956605 62.785404 
L 438.848295 63.912316 
L 439.739986 64.706917 
L 440.631676 63.084531 
L 441.523366 62.407588 
L 442.415057 63.400199 
L 443.306747 64.593971 
L 444.198438 64.922708 
L 445.090128 63.861038 
L 446.873509 62.283668 
L 447.765199 61.626899 
L 448.656889 61.210957 
L 449.54858 59.824851 
L 450.44027 61.473892 
L 451.33196 61.667215 
L 452.223651 59.548993 
L 453.115341 59.173993 
L 454.007031 61.357878 
L 454.898722 62.335099 
L 455.790412 60.097312 
L 456.682102 58.970877 
L 457.573793 59.73842 
L 458.465483 57.581279 
L 459.357173 55.934848 
L 460.248864 55.293151 
L 461.140554 57.314341 
L 462.032244 57.935883 
L 462.923935 57.20831 
L 463.815625 58.741672 
L 464.707315 58.115599 
L 465.599006 57.155304 
L 467.382386 57.907231 
L 468.274077 57.647224 
L 469.165767 56.787591 
L 470.057457 57.443086 
L 470.949148 60.499494 
L 471.840838 62.252817 
L 472.732528 62.429236 
L 473.624219 62.840729 
L 474.515909 64.543155 
L 475.407599 64.235439 
L 476.29929 63.506008 
L 477.19098 60.727343 
L 478.08267 58.973994 
L 478.974361 59.320011 
L 479.866051 58.981152 
L 480.757741 59.357844 
L 481.649432 60.17613 
L 482.541122 61.492343 
L 483.432813 60.652847 
L 484.324503 61.036301 
L 485.216193 62.069118 
L 486.107884 61.648363 
L 486.999574 61.872017 
L 487.891264 62.345549 
L 488.782955 61.873218 
L 489.674645 62.649801 
L 490.566335 62.230299 
L 491.458026 63.722258 
L 492.349716 64.025843 
L 493.241406 61.662296 
L 494.133097 61.530833 
L 495.024787 62.094566 
L 495.916477 62.224845 
L 496.808168 62.862679 
L 497.699858 64.42101 
L 498.591548 61.539369 
L 499.483239 60.381709 
L 500.374929 60.939254 
L 501.266619 60.258247 
L 502.15831 60.494711 
L 503.05 60.563975 
L 503.94169 59.241844 
L 504.833381 60.736749 
L 505.725071 62.012752 
L 506.616761 60.378741 
L 507.508452 60.536499 
L 508.400142 61.531321 
L 509.291832 62.121998 
L 510.183523 64.676795 
L 511.075213 62.89917 
L 511.966903 63.275937 
L 512.858594 63.815368 
L 513.750284 64.833726 
L 514.641974 66.123769 
L 515.533665 67.095111 
L 517.317045 68.331021 
L 518.208736 68.575847 
L 519.992116 64.683013 
L 520.883807 65.301651 
L 521.775497 66.243509 
L 522.667188 64.987955 
L 523.558878 64.5821 
L 525.342259 65.044496 
L 526.233949 67.051184 
L 528.01733 65.679059 
L 528.90902 67.338473 
L 530.692401 69.668841 
L 531.584091 68.361111 
L 532.475781 70.527684 
L 533.367472 69.313529 
L 534.259162 70.693718 
L 535.150852 75.82498 
L 535.150852 75.82498 
" clip-path="url(#p17a66962e1)" style="fill: none; stroke: #1f77b4; stroke-width: 1.5; stroke-linecap: square"/>
   </g>
   <g id="line2d_30">
    <path d="M 78.605398 79.491228 
L 79.497088 83.811891 
L 80.388778 132.51506 
L 81.280469 129.355768 
L 82.172159 125.61658 
L 83.063849 121.077202 
L 83.95554 114.926522 
L 84.84723 106.934683 
L 86.630611 86.03288 
L 87.522301 75.883984 
L 88.413991 49.245181 
L 89.305682 35.742806 
L 90.197372 39.172901 
L 91.089063 63.356339 
L 91.980753 67.326443 
L 92.872443 70.230764 
L 93.764134 72.413999 
L 94.655824 73.93141 
L 95.547514 76.356721 
L 96.439205 76.924605 
L 97.330895 72.577902 
L 98.222585 70.83592 
L 99.114276 69.402706 
L 100.005966 63.196314 
L 100.897656 62.50014 
L 101.789347 64.824349 
L 102.681037 61.849531 
L 103.572727 61.042535 
L 104.464418 68.557357 
L 105.356108 71.629394 
L 106.247798 72.426831 
L 107.139489 76.372374 
L 108.922869 77.151118 
L 109.81456 78.521642 
L 110.70625 65.344528 
L 111.59794 60.731392 
L 112.489631 69.465269 
L 113.381321 72.840477 
L 114.273011 72.097739 
L 115.164702 72.675582 
L 116.056392 76.011582 
L 116.948082 76.185292 
L 117.839773 72.800069 
L 118.731463 71.234365 
L 120.514844 71.944563 
L 121.406534 70.776167 
L 122.298224 68.951402 
L 123.189915 71.085903 
L 124.081605 72.884572 
L 125.864986 69.337102 
L 126.756676 68.911166 
L 127.648366 68.106931 
L 128.540057 66.86603 
L 129.431747 65.108661 
L 130.323438 65.70048 
L 132.106818 64.781257 
L 132.998509 65.913047 
L 133.890199 66.386663 
L 134.781889 67.281696 
L 135.67358 67.097796 
L 136.56527 66.766649 
L 137.45696 66.755607 
L 139.240341 67.681733 
L 140.132031 68.830027 
L 141.023722 62.076164 
L 141.915412 52.367694 
L 142.807102 54.310303 
L 143.698793 57.476922 
L 144.590483 57.573057 
L 145.482173 60.321798 
L 146.373864 59.1416 
L 147.265554 59.034234 
L 148.157244 58.230995 
L 149.048935 58.81684 
L 149.940625 61.449965 
L 150.832315 61.428008 
L 151.724006 61.744975 
L 152.615696 56.639431 
L 153.507386 57.15975 
L 154.399077 62.97008 
L 155.290767 63.125649 
L 156.182457 63.549117 
L 157.074148 63.418185 
L 157.965838 65.263373 
L 158.857528 64.91784 
L 159.749219 67.29878 
L 160.640909 67.953856 
L 161.532599 67.646093 
L 162.42429 68.254279 
L 164.20767 65.590073 
L 165.099361 70.589013 
L 165.991051 72.769416 
L 166.882741 70.28527 
L 167.774432 69.328367 
L 169.557813 70.319605 
L 170.449503 70.416967 
L 171.341193 69.282165 
L 173.124574 66.134547 
L 174.016264 61.774211 
L 174.907955 55.149422 
L 176.691335 64.050576 
L 178.474716 62.399395 
L 179.366406 62.971852 
L 180.258097 62.969716 
L 181.149787 62.082055 
L 182.041477 63.646126 
L 182.933168 64.954101 
L 183.824858 65.073863 
L 184.716548 64.474506 
L 185.608239 64.018345 
L 186.499929 64.853359 
L 187.391619 69.723004 
L 188.28331 68.683355 
L 189.175 67.363544 
L 190.06669 68.281096 
L 191.850071 69.273847 
L 193.633452 68.330607 
L 194.525142 70.251515 
L 195.416832 73.450627 
L 196.308523 71.461395 
L 197.200213 69.018999 
L 198.091903 68.815967 
L 198.983594 68.050944 
L 199.875284 69.608461 
L 200.766974 73.317885 
L 201.658665 73.13455 
L 202.550355 69.741146 
L 203.442045 71.026077 
L 204.333736 72.740712 
L 205.225426 71.549708 
L 206.117116 73.826519 
L 207.008807 72.560751 
L 207.900497 73.149195 
L 208.792188 75.111928 
L 209.683878 72.374418 
L 210.575568 74.96336 
L 211.467259 74.964751 
L 212.358949 77.138376 
L 213.250639 77.179785 
L 214.14233 77.499437 
L 215.03402 78.149109 
L 215.92571 77.104221 
L 216.817401 76.391742 
L 217.709091 76.357288 
L 218.600781 77.804868 
L 219.492472 77.384766 
L 220.384162 78.624089 
L 221.275852 77.687996 
L 222.167543 76.455613 
L 223.059233 76.195404 
L 223.950923 76.496031 
L 224.842614 77.218817 
L 225.734304 71.500844 
L 226.625994 67.713244 
L 227.517685 68.585829 
L 228.409375 72.189836 
L 229.301065 73.272927 
L 230.192756 75.535375 
L 231.084446 76.315093 
L 231.976136 76.516009 
L 232.867827 74.237199 
L 233.759517 73.711289 
L 234.651207 75.49788 
L 235.542898 74.71097 
L 236.434588 74.265378 
L 237.326278 73.614841 
L 238.217969 71.431117 
L 239.109659 71.00686 
L 240.001349 73.174863 
L 240.89304 72.984716 
L 242.67642 75.504283 
L 243.568111 75.221867 
L 244.459801 76.499998 
L 245.351491 73.723505 
L 246.243182 72.059734 
L 247.134872 71.106502 
L 248.026563 71.354898 
L 248.918253 69.975368 
L 249.809943 68.828752 
L 250.701634 69.664697 
L 251.593324 68.901075 
L 252.485014 68.518143 
L 253.376705 70.370243 
L 254.268395 71.029729 
L 255.160085 70.217465 
L 256.051776 70.669722 
L 256.943466 71.674083 
L 258.726847 69.56567 
L 259.618537 68.875042 
L 260.510227 69.82383 
L 261.401918 69.974489 
L 262.293608 68.216229 
L 263.185298 68.331691 
L 264.076989 68.921208 
L 264.968679 67.135634 
L 265.860369 66.857427 
L 266.75206 66.38958 
L 267.64375 66.606001 
L 268.53544 64.115791 
L 269.427131 63.433126 
L 270.318821 64.176267 
L 272.102202 64.763242 
L 272.993892 63.95889 
L 273.885582 64.58548 
L 274.777273 65.800833 
L 275.668963 65.905713 
L 276.560653 67.131096 
L 280.127415 58.279838 
L 281.019105 55.417213 
L 281.910795 55.515057 
L 282.802486 54.731351 
L 283.694176 52.712011 
L 284.585866 52.228905 
L 285.477557 53.69713 
L 286.369247 51.420442 
L 287.260938 52.090255 
L 288.152628 51.670609 
L 289.044318 49.524487 
L 289.936009 50.316305 
L 290.827699 51.608752 
L 291.719389 51.128897 
L 292.61108 50.948862 
L 293.50277 51.531698 
L 294.39446 52.444618 
L 295.286151 51.587632 
L 297.069531 50.878197 
L 297.961222 49.356014 
L 299.744602 51.014308 
L 300.636293 50.631638 
L 301.527983 49.011582 
L 302.419673 50.512888 
L 303.311364 53.007923 
L 304.203054 53.384046 
L 305.094744 54.503492 
L 306.878125 54.987651 
L 308.661506 57.137737 
L 309.553196 56.821071 
L 310.444886 57.270593 
L 311.336577 56.487363 
L 312.228267 58.147144 
L 313.119957 58.586514 
L 314.011648 60.105192 
L 314.903338 60.891308 
L 315.795028 61.186393 
L 316.686719 62.578703 
L 317.578409 62.67672 
L 318.470099 63.141724 
L 319.36179 62.700651 
L 320.25348 62.486163 
L 321.14517 62.811741 
L 322.928551 62.139306 
L 323.820241 63.26721 
L 324.711932 64.181889 
L 325.603622 64.335089 
L 326.495313 66.42044 
L 327.387003 66.076572 
L 328.278693 65.544514 
L 329.170384 65.69246 
L 330.062074 65.338908 
L 330.953764 66.937933 
L 332.737145 67.96737 
L 333.628835 67.453955 
L 334.520526 66.298655 
L 335.412216 67.130468 
L 336.303906 68.180169 
L 337.195597 67.78819 
L 338.087287 67.599655 
L 338.978977 67.212951 
L 339.870668 67.731706 
L 340.762358 68.424806 
L 341.654048 68.808715 
L 342.545739 69.360723 
L 343.437429 70.415559 
L 344.329119 69.95574 
L 345.22081 70.078889 
L 346.1125 68.526196 
L 347.00419 67.881084 
L 347.895881 68.409342 
L 349.679261 68.240458 
L 351.462642 69.814199 
L 352.354332 69.847541 
L 353.246023 71.439501 
L 354.137713 70.971377 
L 355.029403 69.565188 
L 355.921094 69.951172 
L 356.812784 71.03778 
L 357.704474 71.392039 
L 358.596165 69.416199 
L 359.487855 69.028869 
L 360.379545 70.273384 
L 361.271236 70.144223 
L 362.162926 69.800751 
L 363.054616 69.189303 
L 363.946307 70.74629 
L 364.837997 71.410205 
L 365.729688 70.926634 
L 366.621378 69.990386 
L 367.513068 69.923239 
L 368.404759 71.334001 
L 370.188139 71.68881 
L 371.07983 74.156972 
L 371.97152 74.804801 
L 372.86321 73.758481 
L 373.754901 72.905652 
L 374.646591 73.255578 
L 375.538281 73.324132 
L 376.429972 75.665117 
L 377.321662 76.147741 
L 378.213352 74.848305 
L 379.105043 74.88054 
L 379.996733 76.984895 
L 380.888423 75.933527 
L 381.780114 76.415269 
L 382.671804 74.805551 
L 383.563494 71.870249 
L 385.346875 71.199626 
L 386.238565 69.897324 
L 388.021946 71.945681 
L 388.913636 71.702058 
L 389.805327 71.826181 
L 391.588707 76.848203 
L 392.480398 78.182637 
L 393.372088 79.050469 
L 395.155469 82.110236 
L 396.047159 82.266958 
L 396.938849 83.543191 
L 398.72223 82.351687 
L 399.61392 80.715039 
L 400.505611 80.860797 
L 401.397301 79.720649 
L 402.288991 78.338297 
L 403.180682 78.306998 
L 404.072372 77.4713 
L 404.964063 77.597337 
L 405.855753 77.86476 
L 406.747443 77.551804 
L 407.639134 76.319764 
L 409.422514 78.458497 
L 410.314205 76.668081 
L 411.205895 76.269146 
L 412.097585 74.510321 
L 412.989276 73.608099 
L 413.880966 76.069877 
L 414.772656 74.966285 
L 415.664347 75.14743 
L 416.556037 74.24217 
L 417.447727 73.823041 
L 418.339418 73.684716 
L 419.231108 74.99748 
L 420.122798 75.103161 
L 421.014489 73.817259 
L 421.906179 70.972098 
L 422.797869 70.007211 
L 423.68956 69.360894 
L 424.58125 69.083366 
L 425.47294 69.721348 
L 426.364631 70.926627 
L 427.256321 72.733233 
L 428.148011 74.162396 
L 429.039702 73.520172 
L 429.931392 69.270099 
L 430.823082 69.186705 
L 431.714773 69.956522 
L 432.606463 70.506451 
L 433.498153 71.989407 
L 434.389844 72.392723 
L 435.281534 71.683408 
L 436.173224 70.463637 
L 437.064915 68.672823 
L 437.956605 68.779796 
L 438.848295 70.208243 
L 439.739986 71.325946 
L 440.631676 70.050119 
L 441.523366 69.661696 
L 442.415057 70.980781 
L 443.306747 72.540943 
L 444.198438 73.277649 
L 445.090128 72.623816 
L 446.873509 71.863073 
L 447.765199 71.631737 
L 448.656889 71.725311 
L 449.54858 70.771039 
L 450.44027 72.817994 
L 451.33196 73.659484 
L 452.223651 72.078442 
L 453.115341 72.128351 
L 454.007031 74.824332 
L 454.898722 76.513708 
L 455.790412 74.93785 
L 456.682102 74.300177 
L 457.573793 75.728712 
L 458.465483 74.326463 
L 459.357173 73.276993 
L 460.248864 73.250275 
L 461.140554 75.939594 
L 462.032244 77.405284 
L 462.923935 77.379487 
L 463.815625 79.649321 
L 464.707315 79.866367 
L 465.599006 79.73908 
L 466.490696 80.766557 
L 467.382386 82.117246 
L 468.274077 82.745089 
L 469.165767 82.765333 
L 470.057457 84.166946 
L 470.949148 88.088856 
L 471.840838 90.946207 
L 472.732528 92.06207 
L 473.624219 93.400319 
L 474.515909 96.126535 
L 475.407599 96.968053 
L 476.29929 97.223437 
L 477.19098 95.681413 
L 478.08267 94.829481 
L 478.974361 96.266438 
L 479.866051 96.988221 
L 480.757741 98.524239 
L 481.649432 100.440606 
L 482.541122 103.025101 
L 483.432813 103.466991 
L 484.324503 104.940142 
L 485.216193 107.311652 
L 486.107884 108.21055 
L 486.999574 109.673366 
L 487.891264 111.512943 
L 488.782955 112.411807 
L 489.674645 114.531711 
L 490.566335 115.568748 
L 491.458026 118.388642 
L 492.349716 120.352335 
L 493.241406 119.554236 
L 494.133097 120.784258 
L 495.916477 124.774988 
L 496.808168 126.75705 
L 497.699858 130.287505 
L 498.591548 129.360705 
L 499.483239 129.677738 
L 500.374929 132.041259 
L 501.266619 133.328342 
L 502.15831 135.250562 
L 503.05 137.584892 
L 503.94169 138.073864 
L 504.833381 141.360465 
L 505.725071 145.14739 
L 506.616761 145.718535 
L 507.508452 147.980452 
L 509.291832 154.205843 
L 510.183523 159.122697 
L 511.075213 160.506397 
L 511.966903 163.14039 
L 512.858594 166.451686 
L 514.641974 174.497718 
L 517.317045 186.801606 
L 518.208736 190.661437 
L 519.100426 193.391505 
L 519.992116 194.736883 
L 520.883807 199.207842 
L 521.775497 204.934111 
L 523.558878 212.7836 
L 524.450568 217.63445 
L 526.233949 226.049922 
L 527.125639 228.428976 
L 528.90902 229.012948 
L 529.80071 229.365295 
L 534.259162 229.883418 
L 535.150852 233.998125 
L 535.150852 233.998125 
" clip-path="url(#p17a66962e1)" style="fill: none; stroke: #ff7f0e; stroke-width: 1.5; stroke-linecap: square"/>
   </g>
   <g id="patch_3">
    <path d="M 55.778125 244.078125 
L 55.778125 22.318125 
" style="fill: none; stroke: #000000; stroke-width: 0.8; stroke-linejoin: miter; stroke-linecap: square"/>
   </g>
   <g id="patch_4">
    <path d="M 557.978125 244.078125 
L 557.978125 22.318125 
" style="fill: none; stroke: #000000; stroke-width: 0.8; stroke-linejoin: miter; stroke-linecap: square"/>
   </g>
   <g id="patch_5">
    <path d="M 55.778125 244.078125 
L 557.978125 244.078125 
" style="fill: none; stroke: #000000; stroke-width: 0.8; stroke-linejoin: miter; stroke-linecap: square"/>
   </g>
   <g id="patch_6">
    <path d="M 55.778125 22.318125 
L 557.978125 22.318125 
" style="fill: none; stroke: #000000; stroke-width: 0.8; stroke-linejoin: miter; stroke-linecap: square"/>
   </g>
   <g id="text_17">
    <!-- Raw versus preprocessed PSD -->
    <g transform="translate(216.341875 16.318125) scale(0.12 -0.12)">
     <defs>
      <path id="DejaVuSans-52" d="M 2841 2188 
Q 3044 2119 3236 1894 
Q 3428 1669 3622 1275 
L 4263 0 
L 3584 0 
L 2988 1197 
Q 2756 1666 2539 1819 
Q 2322 1972 1947 1972 
L 1259 1972 
L 1259 0 
L 628 0 
L 628 4666 
L 2053 4666 
Q 2853 4666 3247 4331 
Q 3641 3997 3641 3322 
Q 3641 2881 3436 2590 
Q 3231 2300 2841 2188 
z
M 1259 4147 
L 1259 2491 
L 2053 2491 
Q 2509 2491 2742 2702 
Q 2975 2913 2975 3322 
Q 2975 3731 2742 3939 
Q 2509 4147 2053 4147 
L 1259 4147 
z
" transform="scale(0.015625)"/>
      <path id="DejaVuSans-61" d="M 2194 1759 
Q 1497 1759 1228 1600 
Q 959 1441 959 1056 
Q 959 750 1161 570 
Q 1363 391 1709 391 
Q 2188 391 2477 730 
Q 2766 1069 2766 1631 
L 2766 1759 
L 2194 1759 
z
M 3341 1997 
L 3341 0 
L 2766 0 
L 2766 531 
Q 2569 213 2275 61 
Q 1981 -91 1556 -91 
Q 1019 -91 701 211 
Q 384 513 384 1019 
Q 384 1609 779 1909 
Q 1175 2209 1959 2209 
L 2766 2209 
L 2766 2266 
Q 2766 2663 2505 2880 
Q 2244 3097 1772 3097 
Q 1472 3097 1187 3025 
Q 903 2953 641 2809 
L 641 3341 
Q 956 3463 1253 3523 
Q 1550 3584 1831 3584 
Q 2591 3584 2966 3190 
Q 3341 2797 3341 1997 
z
" transform="scale(0.015625)"/>
      <path id="DejaVuSans-77" d="M 269 3500 
L 844 3500 
L 1563 769 
L 2278 3500 
L 2956 3500 
L 3675 769 
L 4391 3500 
L 4966 3500 
L 4050 0 
L 3372 0 
L 2619 2869 
L 1863 0 
L 1184 0 
L 269 3500 
z
" transform="scale(0.015625)"/>
      <path id="DejaVuSans-76" d="M 191 3500 
L 800 3500 
L 1894 563 
L 2988 3500 
L 3597 3500 
L 2284 0 
L 1503 0 
L 191 3500 
z
" transform="scale(0.015625)"/>
      <path id="DejaVuSans-73" d="M 2834 3397 
L 2834 2853 
Q 2591 2978 2328 3040 
Q 2066 3103 1784 3103 
Q 1356 3103 1142 2972 
Q 928 2841 928 2578 
Q 928 2378 1081 2264 
Q 1234 2150 1697 2047 
L 1894 2003 
Q 2506 1872 2764 1633 
Q 3022 1394 3022 966 
Q 3022 478 2636 193 
Q 2250 -91 1575 -91 
Q 1294 -91 989 -36 
Q 684 19 347 128 
L 347 722 
Q 666 556 975 473 
Q 1284 391 1588 391 
Q 1994 391 2212 530 
Q 2431 669 2431 922 
Q 2431 1156 2273 1281 
Q 2116 1406 1581 1522 
L 1381 1569 
Q 847 1681 609 1914 
Q 372 2147 372 2553 
Q 372 3047 722 3315 
Q 1072 3584 1716 3584 
Q 2034 3584 2315 3537 
Q 2597 3491 2834 3397 
z
" transform="scale(0.015625)"/>
      <path id="DejaVuSans-70" d="M 1159 525 
L 1159 -1331 
L 581 -1331 
L 581 3500 
L 1159 3500 
L 1159 2969 
Q 1341 3281 1617 3432 
Q 1894 3584 2278 3584 
Q 2916 3584 3314 3078 
Q 3713 2572 3713 1747 
Q 3713 922 3314 415 
Q 2916 -91 2278 -91 
Q 1894 -91 1617 61 
Q 1341 213 1159 525 
z
M 3116 1747 
Q 3116 2381 2855 2742 
Q 2594 3103 2138 3103 
Q 1681 3103 1420 2742 
Q 1159 2381 1159 1747 
Q 1159 1113 1420 752 
Q 1681 391 2138 391 
Q 2594 391 2855 752 
Q 3116 1113 3116 1747 
z
" transform="scale(0.015625)"/>
      <path id="DejaVuSans-6f" d="M 1959 3097 
Q 1497 3097 1228 2736 
Q 959 2375 959 1747 
Q 959 1119 1226 758 
Q 1494 397 1959 397 
Q 2419 397 2687 759 
Q 2956 1122 2956 1747 
Q 2956 2369 2687 2733 
Q 2419 3097 1959 3097 
z
M 1959 3584 
Q 2709 3584 3137 3096 
Q 3566 2609 3566 1747 
Q 3566 888 3137 398 
Q 2709 -91 1959 -91 
Q 1206 -91 779 398 
Q 353 888 353 1747 
Q 353 2609 779 3096 
Q 1206 3584 1959 3584 
z
" transform="scale(0.015625)"/>
      <path id="DejaVuSans-64" d="M 2906 2969 
L 2906 4863 
L 3481 4863 
L 3481 0 
L 2906 0 
L 2906 525 
Q 2725 213 2448 61 
Q 2172 -91 1784 -91 
Q 1150 -91 751 415 
Q 353 922 353 1747 
Q 353 2572 751 3078 
Q 1150 3584 1784 3584 
Q 2172 3584 2448 3432 
Q 2725 3281 2906 2969 
z
M 947 1747 
Q 947 1113 1208 752 
Q 1469 391 1925 391 
Q 2381 391 2643 752 
Q 2906 1113 2906 1747 
Q 2906 2381 2643 2742 
Q 2381 3103 1925 3103 
Q 1469 3103 1208 2742 
Q 947 2381 947 1747 
z
" transform="scale(0.015625)"/>
     </defs>
     <use xlink:href="#DejaVuSans-52"/>
     <use xlink:href="#DejaVuSans-61" transform="translate(67.232422 0)"/>
     <use xlink:href="#DejaVuSans-77" transform="translate(128.511719 0)"/>
     <use xlink:href="#DejaVuSans-20" transform="translate(210.298828 0)"/>
     <use xlink:href="#DejaVuSans-76" transform="translate(242.085938 0)"/>
     <use xlink:href="#DejaVuSans-65" transform="translate(301.265625 0)"/>
     <use xlink:href="#DejaVuSans-72" transform="translate(362.789062 0)"/>
     <use xlink:href="#DejaVuSans-73" transform="translate(403.902344 0)"/>
     <use xlink:href="#DejaVuSans-75" transform="translate(456.001953 0)"/>
     <use xlink:href="#DejaVuSans-73" transform="translate(519.380859 0)"/>
     <use xlink:href="#DejaVuSans-20" transform="translate(571.480469 0)"/>
     <use xlink:href="#DejaVuSans-70" transform="translate(603.267578 0)"/>
     <use xlink:href="#DejaVuSans-72" transform="translate(666.744141 0)"/>
     <use xlink:href="#DejaVuSans-65" transform="translate(705.607422 0)"/>
     <use xlink:href="#DejaVuSans-70" transform="translate(767.130859 0)"/>
     <use xlink:href="#DejaVuSans-72" transform="translate(830.607422 0)"/>
     <use xlink:href="#DejaVuSans-6f" transform="translate(869.470703 0)"/>
     <use xlink:href="#DejaVuSans-63" transform="translate(930.652344 0)"/>
     <use xlink:href="#DejaVuSans-65" transform="translate(985.632812 0)"/>
     <use xlink:href="#DejaVuSans-73" transform="translate(1047.15625 0)"/>
     <use xlink:href="#DejaVuSans-73" transform="translate(1099.255859 0)"/>
     <use xlink:href="#DejaVuSans-65" transform="translate(1151.355469 0)"/>
     <use xlink:href="#DejaVuSans-64" transform="translate(1212.878906 0)"/>
     <use xlink:href="#DejaVuSans-20" transform="translate(1276.355469 0)"/>
     <use xlink:href="#DejaVuSans-50" transform="translate(1308.142578 0)"/>
     <use xlink:href="#DejaVuSans-53" transform="translate(1368.445312 0)"/>
     <use xlink:href="#DejaVuSans-44" transform="translate(1431.921875 0)"/>
    </g>
   </g>
   <g id="legend_1">
    <g id="patch_7">
     <path d="M 62.778125 239.078125 
L 161.596875 239.078125 
Q 163.596875 239.078125 163.596875 237.078125 
L 163.596875 208.721875 
Q 163.596875 206.721875 161.596875 206.721875 
L 62.778125 206.721875 
Q 60.778125 206.721875 60.778125 208.721875 
L 60.778125 237.078125 
Q 60.778125 239.078125 62.778125 239.078125 
z
" style="fill: #ffffff; opacity: 0.8; stroke: #cccccc; stroke-linejoin: miter"/>
    </g>
    <g id="line2d_31">
     <path d="M 64.778125 214.820312 
L 74.778125 214.820312 
L 84.778125 214.820312 
" style="fill: none; stroke: #1f77b4; stroke-width: 1.5; stroke-linecap: square"/>
    </g>
    <g id="text_18">
     <!-- Raw -->
     <g transform="translate(92.778125 218.320312) scale(0.1 -0.1)">
      <use xlink:href="#DejaVuSans-52"/>
      <use xlink:href="#DejaVuSans-61" transform="translate(67.232422 0)"/>
      <use xlink:href="#DejaVuSans-77" transform="translate(128.511719 0)"/>
     </g>
    </g>
    <g id="line2d_32">
     <path d="M 64.778125 229.498437 
L 74.778125 229.498437 
L 84.778125 229.498437 
" style="fill: none; stroke: #ff7f0e; stroke-width: 1.5; stroke-linecap: square"/>
    </g>
    <g id="text_19">
     <!-- Preprocessed -->
     <g transform="translate(92.778125 232.998437) scale(0.1 -0.1)">
      <use xlink:href="#DejaVuSans-50"/>
      <use xlink:href="#DejaVuSans-72" transform="translate(58.552734 0)"/>
      <use xlink:href="#DejaVuSans-65" transform="translate(97.416016 0)"/>
      <use xlink:href="#DejaVuSans-70" transform="translate(158.939453 0)"/>
      <use xlink:href="#DejaVuSans-72" transform="translate(222.416016 0)"/>
      <use xlink:href="#DejaVuSans-6f" transform="translate(261.279297 0)"/>
      <use xlink:href="#DejaVuSans-63" transform="translate(322.460938 0)"/>
      <use xlink:href="#DejaVuSans-65" transform="translate(377.441406 0)"/>
      <use xlink:href="#DejaVuSans-73" transform="translate(438.964844 0)"/>
      <use xlink:href="#DejaVuSans-73" transform="translate(491.064453 0)"/>
      <use xlink:href="#DejaVuSans-65" transform="translate(543.164062 0)"/>
      <use xlink:href="#DejaVuSans-64" transform="translate(604.6875 0)"/>
     </g>
    </g>
   </g>
  </g>
 </g>
 <defs>
  <clipPath id="p17a66962e1">
   <rect x="55.778125" y="22.318125" width="502.2" height="221.76"/>
  </clipPath>
 </defs>
</svg>
