<?xml version="1.0" encoding="utf-8" standalone="no"?>
<!DOCTYPE svg PUBLIC "-//W3C//DTD SVG 1.1//EN"
  "http://www.w3.org/Graphics/SVG/1.1/DTD/svg11.dtd">
<svg xmlns:xlink="http://www.w3.org/1999/xlink" width="617.683594pt" height="260.102906pt" viewBox="0 0 617.683594 260.102906" xmlns="http://www.w3.org/2000/svg" version="1.1">
 <metadata>
  <rdf:RDF xmlns:dc="http://purl.org/dc/elements/1.1/" xmlns:cc="http://creativecommons.org/ns#" xmlns:rdf="http://www.w3.org/1999/02/22-rdf-syntax-ns#">
   <cc:Work>
    <dc:type rdf:resource="http://purl.org/dc/dcmitype/StillImage"/>
    <dc:date>2026-07-14T07:01:51.627704</dc:date>
    <dc:format>image/svg+xml</dc:format>
    <dc:creator>
     <cc:Agent>
      <dc:title>Matplotlib v3.11.0, https://matplotlib.org/</dc:title>
     </cc:Agent>
    </dc:creator>
   </cc:Work>
  </rdf:RDF>
 </metadata>
 <defs>
  <style type="text/css">*{stroke-linejoin: round; stroke-linecap: butt}</style>
 </defs>
 <g id="figure_1">
  <g id="patch_1">
   <path d="M 0 260.102906 
L 617.683594 260.102906 
L 617.683594 0 
L 0 0 
z
" style="fill: #ffffff"/>
  </g>
  <g id="axes_1">
   <g id="patch_2">
    <path d="M 52.483594 221.902125 
L 610.483594 221.902125 
L 610.483594 22.318125 
L 52.483594 22.318125 
z
" style="fill: #ffffff"/>
   </g>
   <g id="matplotlib.axis_1">
    <g id="xtick_1">
     <g id="line2d_1">
      <path d="M 77.84723 221.902125 
L 77.84723 22.318125 
" clip-path="url(#p9628929ce4)" style="fill: none; stroke: #b0b0b0; stroke-opacity: 0.25; stroke-width: 0.8; stroke-linecap: square"/>
     </g>
     <g id="line2d_2">
      <defs>
       <path id="m9cafb73084" d="M 0 0 
L 0 3.5 
" style="stroke: #000000; stroke-width: 0.8"/>
      </defs>
      <g>
       <use xlink:href="#m9cafb73084" x="77.84723" y="221.902125" style="stroke: #000000; stroke-width: 0.8"/>
      </g>
     </g>
     <g id="text_1">
      <!-- 0.0 -->
      <g transform="translate(69.895668 236.499781) scale(0.1 -0.1)">
       <defs>
        <path id="DejaVuSans-13" d="M 2034 4250 
Q 1547 4250 1301 3770 
Q 1056 3291 1056 2328 
Q 1056 1369 1301 889 
Q 1547 409 2034 409 
Q 2525 409 2770 889 
Q 3016 1369 3016 2328 
Q 3016 3291 2770 3770 
Q 2525 4250 2034 4250 
z
M 2034 4750 
Q 2819 4750 3233 4129 
Q 3647 3509 3647 2328 
Q 3647 1150 3233 529 
Q 2819 -91 2034 -91 
Q 1250 -91 836 529 
Q 422 1150 422 2328 
Q 422 3509 836 4129 
Q 1250 4750 2034 4750 
z
" transform="scale(0.015625)"/>
        <path id="DejaVuSans-11" d="M 684 794 
L 1344 794 
L 1344 0 
L 684 0 
L 684 794 
z
" transform="scale(0.015625)"/>
       </defs>
       <use xlink:href="#DejaVuSans-13"/>
       <use xlink:href="#DejaVuSans-11" transform="translate(63.625 0)"/>
       <use xlink:href="#DejaVuSans-13" transform="translate(95.40625 0)"/>
      </g>
     </g>
    </g>
    <g id="xtick_2">
     <g id="line2d_3">
      <path d="M 177.117823 221.902125 
L 177.117823 22.318125 
" clip-path="url(#p9628929ce4)" style="fill: none; stroke: #b0b0b0; stroke-opacity: 0.25; stroke-width: 0.8; stroke-linecap: square"/>
     </g>
     <g id="line2d_4">
      <g>
       <use xlink:href="#m9cafb73084" x="177.117823" y="221.902125" style="stroke: #000000; stroke-width: 0.8"/>
      </g>
     </g>
     <g id="text_2">
      <!-- 0.1 -->
      <g transform="translate(169.16626 236.499781) scale(0.1 -0.1)">
       <defs>
        <path id="DejaVuSans-14" d="M 794 531 
L 1825 531 
L 1825 4091 
L 703 3866 
L 703 4441 
L 1819 4666 
L 2450 4666 
L 2450 531 
L 3481 531 
L 3481 0 
L 794 0 
L 794 531 
z
" transform="scale(0.015625)"/>
       </defs>
       <use xlink:href="#DejaVuSans-13"/>
       <use xlink:href="#DejaVuSans-11" transform="translate(63.625 0)"/>
       <use xlink:href="#DejaVuSans-14" transform="translate(95.40625 0)"/>
      </g>
     </g>
    </g>
    <g id="xtick_3">
     <g id="line2d_5">
      <path d="M 276.388415 221.902125 
L 276.388415 22.318125 
" clip-path="url(#p9628929ce4)" style="fill: none; stroke: #b0b0b0; stroke-opacity: 0.25; stroke-width: 0.8; stroke-linecap: square"/>
     </g>
     <g id="line2d_6">
      <g>
       <use xlink:href="#m9cafb73084" x="276.388415" y="221.902125" style="stroke: #000000; stroke-width: 0.8"/>
      </g>
     </g>
     <g id="text_3">
      <!-- 0.2 -->
      <g transform="translate(268.436852 236.499781) scale(0.1 -0.1)">
       <defs>
        <path id="DejaVuSans-15" d="M 1228 531 
L 3431 531 
L 3431 0 
L 469 0 
L 469 531 
Q 828 903 1448 1529 
Q 2069 2156 2228 2338 
Q 2531 2678 2651 2914 
Q 2772 3150 2772 3378 
Q 2772 3750 2511 3984 
Q 2250 4219 1831 4219 
Q 1534 4219 1204 4116 
Q 875 4013 500 3803 
L 500 4441 
Q 881 4594 1212 4672 
Q 1544 4750 1819 4750 
Q 2544 4750 2975 4387 
Q 3406 4025 3406 3419 
Q 3406 3131 3298 2873 
Q 3191 2616 2906 2266 
Q 2828 2175 2409 1742 
Q 1991 1309 1228 531 
z
" transform="scale(0.015625)"/>
       </defs>
       <use xlink:href="#DejaVuSans-13"/>
       <use xlink:href="#DejaVuSans-11" transform="translate(63.625 0)"/>
       <use xlink:href="#DejaVuSans-15" transform="translate(95.40625 0)"/>
      </g>
     </g>
    </g>
    <g id="xtick_4">
     <g id="line2d_7">
      <path d="M 375.659007 221.902125 
L 375.659007 22.318125 
" clip-path="url(#p9628929ce4)" style="fill: none; stroke: #b0b0b0; stroke-opacity: 0.25; stroke-width: 0.8; stroke-linecap: square"/>
     </g>
     <g id="line2d_8">
      <g>
       <use xlink:href="#m9cafb73084" x="375.659007" y="221.902125" style="stroke: #000000; stroke-width: 0.8"/>
      </g>
     </g>
     <g id="text_4">
      <!-- 0.3 -->
      <g transform="translate(367.707445 236.499781) scale(0.1 -0.1)">
       <defs>
        <path id="DejaVuSans-16" d="M 2597 2516 
Q 3050 2419 3304 2112 
Q 3559 1806 3559 1356 
Q 3559 666 3084 287 
Q 2609 -91 1734 -91 
Q 1441 -91 1130 -33 
Q 819 25 488 141 
L 488 750 
Q 750 597 1062 519 
Q 1375 441 1716 441 
Q 2309 441 2620 675 
Q 2931 909 2931 1356 
Q 2931 1769 2642 2001 
Q 2353 2234 1838 2234 
L 1294 2234 
L 1294 2753 
L 1863 2753 
Q 2328 2753 2575 2939 
Q 2822 3125 2822 3475 
Q 2822 3834 2567 4026 
Q 2313 4219 1838 4219 
Q 1578 4219 1281 4162 
Q 984 4106 628 3988 
L 628 4550 
Q 988 4650 1302 4700 
Q 1616 4750 1894 4750 
Q 2613 4750 3031 4423 
Q 3450 4097 3450 3541 
Q 3450 3153 3228 2886 
Q 3006 2619 2597 2516 
z
" transform="scale(0.015625)"/>
       </defs>
       <use xlink:href="#DejaVuSans-13"/>
       <use xlink:href="#DejaVuSans-11" transform="translate(63.625 0)"/>
       <use xlink:href="#DejaVuSans-16" transform="translate(95.40625 0)"/>
      </g>
     </g>
    </g>
    <g id="xtick_5">
     <g id="line2d_9">
      <path d="M 474.9296 221.902125 
L 474.9296 22.318125 
" clip-path="url(#p9628929ce4)" style="fill: none; stroke: #b0b0b0; stroke-opacity: 0.25; stroke-width: 0.8; stroke-linecap: square"/>
     </g>
     <g id="line2d_10">
      <g>
       <use xlink:href="#m9cafb73084" x="474.9296" y="221.902125" style="stroke: #000000; stroke-width: 0.8"/>
      </g>
     </g>
     <g id="text_5">
      <!-- 0.4 -->
      <g transform="translate(466.978037 236.499781) scale(0.1 -0.1)">
       <defs>
        <path id="DejaVuSans-17" d="M 2419 4116 
L 825 1625 
L 2419 1625 
L 2419 4116 
z
M 2253 4666 
L 3047 4666 
L 3047 1625 
L 3713 1625 
L 3713 1100 
L 3047 1100 
L 3047 0 
L 2419 0 
L 2419 1100 
L 313 1100 
L 313 1709 
L 2253 4666 
z
" transform="scale(0.015625)"/>
       </defs>
       <use xlink:href="#DejaVuSans-13"/>
       <use xlink:href="#DejaVuSans-11" transform="translate(63.625 0)"/>
       <use xlink:href="#DejaVuSans-17" transform="translate(95.40625 0)"/>
      </g>
     </g>
    </g>
    <g id="xtick_6">
     <g id="line2d_11">
      <path d="M 574.200192 221.902125 
L 574.200192 22.318125 
" clip-path="url(#p9628929ce4)" style="fill: none; stroke: #b0b0b0; stroke-opacity: 0.25; stroke-width: 0.8; stroke-linecap: square"/>
     </g>
     <g id="line2d_12">
      <g>
       <use xlink:href="#m9cafb73084" x="574.200192" y="221.902125" style="stroke: #000000; stroke-width: 0.8"/>
      </g>
     </g>
     <g id="text_6">
      <!-- 0.5 -->
      <g transform="translate(566.24863 236.499781) scale(0.1 -0.1)">
       <defs>
        <path id="DejaVuSans-18" d="M 691 4666 
L 3169 4666 
L 3169 4134 
L 1269 4134 
L 1269 2991 
Q 1406 3038 1543 3061 
Q 1681 3084 1819 3084 
Q 2600 3084 3056 2656 
Q 3513 2228 3513 1497 
Q 3513 744 3044 326 
Q 2575 -91 1722 -91 
Q 1428 -91 1123 -41 
Q 819 9 494 109 
L 494 744 
Q 775 591 1075 516 
Q 1375 441 1709 441 
Q 2250 441 2565 725 
Q 2881 1009 2881 1497 
Q 2881 1984 2565 2268 
Q 2250 2553 1709 2553 
Q 1456 2553 1204 2497 
Q 953 2441 691 2322 
L 691 4666 
z
" transform="scale(0.015625)"/>
       </defs>
       <use xlink:href="#DejaVuSans-13"/>
       <use xlink:href="#DejaVuSans-11" transform="translate(63.625 0)"/>
       <use xlink:href="#DejaVuSans-18" transform="translate(95.40625 0)"/>
      </g>
     </g>
    </g>
    <g id="text_7">
     <!-- Time (s) -->
     <g transform="translate(311.152344 250.500563) scale(0.1 -0.1)">
      <defs>
       <path id="DejaVuSans-37" d="M -19 4666 
L 3928 4666 
L 3928 4134 
L 2272 4134 
L 2272 0 
L 1638 0 
L 1638 4134 
L -19 4134 
L -19 4666 
z
" transform="scale(0.015625)"/>
       <path id="DejaVuSans-4c" d="M 603 3500 
L 1178 3500 
L 1178 0 
L 603 0 
L 603 3500 
z
M 603 4863 
L 1178 4863 
L 1178 4134 
L 603 4134 
L 603 4863 
z
" transform="scale(0.015625)"/>
       <path id="DejaVuSans-50" d="M 3328 2828 
Q 3544 3216 3844 3400 
Q 4144 3584 4550 3584 
Q 5097 3584 5394 3201 
Q 5691 2819 5691 2113 
L 5691 0 
L 5113 0 
L 5113 2094 
Q 5113 2597 4934 2840 
Q 4756 3084 4391 3084 
Q 3944 3084 3684 2787 
Q 3425 2491 3425 1978 
L 3425 0 
L 2847 0 
L 2847 2094 
Q 2847 2600 2669 2842 
Q 2491 3084 2119 3084 
Q 1678 3084 1418 2786 
Q 1159 2488 1159 1978 
L 1159 0 
L 581 0 
L 581 3500 
L 1159 3500 
L 1159 2956 
Q 1356 3278 1631 3431 
Q 1906 3584 2284 3584 
Q 2666 3584 2933 3390 
Q 3200 3197 3328 2828 
z
" transform="scale(0.015625)"/>
       <path id="DejaVuSans-48" d="M 3597 1894 
L 3597 1613 
L 953 1613 
Q 991 1019 1311 708 
Q 1631 397 2203 397 
Q 2534 397 2845 478 
Q 3156 559 3463 722 
L 3463 178 
Q 3153 47 2828 -22 
Q 2503 -91 2169 -91 
Q 1331 -91 842 396 
Q 353 884 353 1716 
Q 353 2575 817 3079 
Q 1281 3584 2069 3584 
Q 2775 3584 3186 3129 
Q 3597 2675 3597 1894 
z
M 3022 2063 
Q 3016 2534 2758 2815 
Q 2500 3097 2075 3097 
Q 1594 3097 1305 2825 
Q 1016 2553 972 2059 
L 3022 2063 
z
" transform="scale(0.015625)"/>
       <path id="DejaVuSans-3" transform="scale(0.015625)"/>
       <path id="DejaVuSans-b" d="M 1984 4856 
Q 1566 4138 1362 3434 
Q 1159 2731 1159 2009 
Q 1159 1288 1364 580 
Q 1569 -128 1984 -844 
L 1484 -844 
Q 1016 -109 783 600 
Q 550 1309 550 2009 
Q 550 2706 781 3412 
Q 1013 4119 1484 4856 
L 1984 4856 
z
" transform="scale(0.015625)"/>
       <path id="DejaVuSans-56" d="M 2834 3397 
L 2834 2853 
Q 2591 2978 2328 3040 
Q 2066 3103 1784 3103 
Q 1356 3103 1142 2972 
Q 928 2841 928 2578 
Q 928 2378 1081 2264 
Q 1234 2150 1697 2047 
L 1894 2003 
Q 2506 1872 2764 1633 
Q 3022 1394 3022 966 
Q 3022 478 2636 193 
Q 2250 -91 1575 -91 
Q 1294 -91 989 -36 
Q 684 19 347 128 
L 347 722 
Q 666 556 975 473 
Q 1284 391 1588 391 
Q 1994 391 2212 530 
Q 2431 669 2431 922 
Q 2431 1156 2273 1281 
Q 2116 1406 1581 1522 
L 1381 1569 
Q 847 1681 609 1914 
Q 372 2147 372 2553 
Q 372 3047 722 3315 
Q 1072 3584 1716 3584 
Q 2034 3584 2315 3537 
Q 2597 3491 2834 3397 
z
" transform="scale(0.015625)"/>
       <path id="DejaVuSans-c" d="M 513 4856 
L 1013 4856 
Q 1481 4119 1714 3412 
Q 1947 2706 1947 2009 
Q 1947 1309 1714 600 
Q 1481 -109 1013 -844 
L 513 -844 
Q 928 -128 1133 580 
Q 1338 1288 1338 2009 
Q 1338 2731 1133 3434 
Q 928 4138 513 4856 
z
" transform="scale(0.015625)"/>
      </defs>
      <use xlink:href="#DejaVuSans-37"/>
      <use xlink:href="#DejaVuSans-4c" transform="translate(58 0)"/>
      <use xlink:href="#DejaVuSans-50" transform="translate(85.78125 0)"/>
      <use xlink:href="#DejaVuSans-48" transform="translate(183.1875 0)"/>
      <use xlink:href="#DejaVuSans-3" transform="translate(244.71875 0)"/>
      <use xlink:href="#DejaVuSans-b" transform="translate(276.5 0)"/>
      <use xlink:href="#DejaVuSans-56" transform="translate(315.515625 0)"/>
      <use xlink:href="#DejaVuSans-c" transform="translate(367.609375 0)"/>
     </g>
    </g>
   </g>
   <g id="matplotlib.axis_2">
    <g id="ytick_1">
     <g id="line2d_13">
      <path d="M 52.483594 198.381646 
L 610.483594 198.381646 
" clip-path="url(#p9628929ce4)" style="fill: none; stroke: #b0b0b0; stroke-opacity: 0.25; stroke-width: 0.8; stroke-linecap: square"/>
     </g>
     <g id="line2d_14">
      <defs>
       <path id="m0378bf06b4" d="M 0 0 
L -3.5 0 
" style="stroke: #000000; stroke-width: 0.8"/>
      </defs>
      <g>
       <use xlink:href="#m0378bf06b4" x="52.483594" y="198.381646" style="stroke: #000000; stroke-width: 0.8"/>
      </g>
     </g>
     <g id="text_8">
      <!-- −1.5 -->
      <g transform="translate(21.200781 202.180474) scale(0.1 -0.1)">
       <defs>
        <path id="DejaVuSans-c9c" d="M 678 2272 
L 4684 2272 
L 4684 1741 
L 678 1741 
L 678 2272 
z
" transform="scale(0.015625)"/>
       </defs>
       <use xlink:href="#DejaVuSans-c9c"/>
       <use xlink:href="#DejaVuSans-14" transform="translate(83.796875 0)"/>
       <use xlink:href="#DejaVuSans-11" transform="translate(147.421875 0)"/>
       <use xlink:href="#DejaVuSans-18" transform="translate(179.203125 0)"/>
      </g>
     </g>
    </g>
    <g id="ytick_2">
     <g id="line2d_15">
      <path d="M 52.483594 174.168247 
L 610.483594 174.168247 
" clip-path="url(#p9628929ce4)" style="fill: none; stroke: #b0b0b0; stroke-opacity: 0.25; stroke-width: 0.8; stroke-linecap: square"/>
     </g>
     <g id="line2d_16">
      <g>
       <use xlink:href="#m0378bf06b4" x="52.483594" y="174.168247" style="stroke: #000000; stroke-width: 0.8"/>
      </g>
     </g>
     <g id="text_9">
      <!-- −1.0 -->
      <g transform="translate(21.200781 177.967075) scale(0.1 -0.1)">
       <use xlink:href="#DejaVuSans-c9c"/>
       <use xlink:href="#DejaVuSans-14" transform="translate(83.796875 0)"/>
       <use xlink:href="#DejaVuSans-11" transform="translate(147.421875 0)"/>
       <use xlink:href="#DejaVuSans-13" transform="translate(179.203125 0)"/>
      </g>
     </g>
    </g>
    <g id="ytick_3">
     <g id="line2d_17">
      <path d="M 52.483594 149.954848 
L 610.483594 149.954848 
" clip-path="url(#p9628929ce4)" style="fill: none; stroke: #b0b0b0; stroke-opacity: 0.25; stroke-width: 0.8; stroke-linecap: square"/>
     </g>
     <g id="line2d_18">
      <g>
       <use xlink:href="#m0378bf06b4" x="52.483594" y="149.954848" style="stroke: #000000; stroke-width: 0.8"/>
      </g>
     </g>
     <g id="text_10">
      <!-- −0.5 -->
      <g transform="translate(21.200781 153.753677) scale(0.1 -0.1)">
       <use xlink:href="#DejaVuSans-c9c"/>
       <use xlink:href="#DejaVuSans-13" transform="translate(83.796875 0)"/>
       <use xlink:href="#DejaVuSans-11" transform="translate(147.421875 0)"/>
       <use xlink:href="#DejaVuSans-18" transform="translate(179.203125 0)"/>
      </g>
     </g>
    </g>
    <g id="ytick_4">
     <g id="line2d_19">
      <path d="M 52.483594 125.74145 
L 610.483594 125.74145 
" clip-path="url(#p9628929ce4)" style="fill: none; stroke: #b0b0b0; stroke-opacity: 0.25; stroke-width: 0.8; stroke-linecap: square"/>
     </g>
     <g id="line2d_20">
      <g>
       <use xlink:href="#m0378bf06b4" x="52.483594" y="125.74145" style="stroke: #000000; stroke-width: 0.8"/>
      </g>
     </g>
     <g id="text_11">
      <!-- 0.0 -->
      <g transform="translate(29.580469 129.540278) scale(0.1 -0.1)">
       <use xlink:href="#DejaVuSans-13"/>
       <use xlink:href="#DejaVuSans-11" transform="translate(63.625 0)"/>
       <use xlink:href="#DejaVuSans-13" transform="translate(95.40625 0)"/>
      </g>
     </g>
    </g>
    <g id="ytick_5">
     <g id="line2d_21">
      <path d="M 52.483594 101.528051 
L 610.483594 101.528051 
" clip-path="url(#p9628929ce4)" style="fill: none; stroke: #b0b0b0; stroke-opacity: 0.25; stroke-width: 0.8; stroke-linecap: square"/>
     </g>
     <g id="line2d_22">
      <g>
       <use xlink:href="#m0378bf06b4" x="52.483594" y="101.528051" style="stroke: #000000; stroke-width: 0.8"/>
      </g>
     </g>
     <g id="text_12">
      <!-- 0.5 -->
      <g transform="translate(29.580469 105.326879) scale(0.1 -0.1)">
       <use xlink:href="#DejaVuSans-13"/>
       <use xlink:href="#DejaVuSans-11" transform="translate(63.625 0)"/>
       <use xlink:href="#DejaVuSans-18" transform="translate(95.40625 0)"/>
      </g>
     </g>
    </g>
    <g id="ytick_6">
     <g id="line2d_23">
      <path d="M 52.483594 77.314653 
L 610.483594 77.314653 
" clip-path="url(#p9628929ce4)" style="fill: none; stroke: #b0b0b0; stroke-opacity: 0.25; stroke-width: 0.8; stroke-linecap: square"/>
     </g>
     <g id="line2d_24">
      <g>
       <use xlink:href="#m0378bf06b4" x="52.483594" y="77.314653" style="stroke: #000000; stroke-width: 0.8"/>
      </g>
     </g>
     <g id="text_13">
      <!-- 1.0 -->
      <g transform="translate(29.580469 81.113481) scale(0.1 -0.1)">
       <use xlink:href="#DejaVuSans-14"/>
       <use xlink:href="#DejaVuSans-11" transform="translate(63.625 0)"/>
       <use xlink:href="#DejaVuSans-13" transform="translate(95.40625 0)"/>
      </g>
     </g>
    </g>
    <g id="ytick_7">
     <g id="line2d_25">
      <path d="M 52.483594 53.101254 
L 610.483594 53.101254 
" clip-path="url(#p9628929ce4)" style="fill: none; stroke: #b0b0b0; stroke-opacity: 0.25; stroke-width: 0.8; stroke-linecap: square"/>
     </g>
     <g id="line2d_26">
      <g>
       <use xlink:href="#m0378bf06b4" x="52.483594" y="53.101254" style="stroke: #000000; stroke-width: 0.8"/>
      </g>
     </g>
     <g id="text_14">
      <!-- 1.5 -->
      <g transform="translate(29.580469 56.900082) scale(0.1 -0.1)">
       <use xlink:href="#DejaVuSans-14"/>
       <use xlink:href="#DejaVuSans-11" transform="translate(63.625 0)"/>
       <use xlink:href="#DejaVuSans-18" transform="translate(95.40625 0)"/>
      </g>
     </g>
    </g>
    <g id="ytick_8">
     <g id="line2d_27">
      <path d="M 52.483594 28.887855 
L 610.483594 28.887855 
" clip-path="url(#p9628929ce4)" style="fill: none; stroke: #b0b0b0; stroke-opacity: 0.25; stroke-width: 0.8; stroke-linecap: square"/>
     </g>
     <g id="line2d_28">
      <g>
       <use xlink:href="#m0378bf06b4" x="52.483594" y="28.887855" style="stroke: #000000; stroke-width: 0.8"/>
      </g>
     </g>
     <g id="text_15">
      <!-- 2.0 -->
      <g transform="translate(29.580469 32.686683) scale(0.1 -0.1)">
       <use xlink:href="#DejaVuSans-15"/>
       <use xlink:href="#DejaVuSans-11" transform="translate(63.625 0)"/>
       <use xlink:href="#DejaVuSans-13" transform="translate(95.40625 0)"/>
      </g>
     </g>
    </g>
    <g id="text_16">
     <!-- Amplitude -->
     <g transform="translate(14.798438 147.732781) rotate(-90) scale(0.1 -0.1)">
      <defs>
       <path id="DejaVuSans-24" d="M 2188 4044 
L 1331 1722 
L 3047 1722 
L 2188 4044 
z
M 1831 4666 
L 2547 4666 
L 4325 0 
L 3669 0 
L 3244 1197 
L 1141 1197 
L 716 0 
L 50 0 
L 1831 4666 
z
" transform="scale(0.015625)"/>
       <path id="DejaVuSans-53" d="M 1159 525 
L 1159 -1331 
L 581 -1331 
L 581 3500 
L 1159 3500 
L 1159 2969 
Q 1341 3281 1617 3432 
Q 1894 3584 2278 3584 
Q 2916 3584 3314 3078 
Q 3713 2572 3713 1747 
Q 3713 922 3314 415 
Q 2916 -91 2278 -91 
Q 1894 -91 1617 61 
Q 1341 213 1159 525 
z
M 3116 1747 
Q 3116 2381 2855 2742 
Q 2594 3103 2138 3103 
Q 1681 3103 1420 2742 
Q 1159 2381 1159 1747 
Q 1159 1113 1420 752 
Q 1681 391 2138 391 
Q 2594 391 2855 752 
Q 3116 1113 3116 1747 
z
" transform="scale(0.015625)"/>
       <path id="DejaVuSans-4f" d="M 603 4863 
L 1178 4863 
L 1178 0 
L 603 0 
L 603 4863 
z
" transform="scale(0.015625)"/>
       <path id="DejaVuSans-57" d="M 1172 4494 
L 1172 3500 
L 2356 3500 
L 2356 3053 
L 1172 3053 
L 1172 1153 
Q 1172 725 1289 603 
Q 1406 481 1766 481 
L 2356 481 
L 2356 0 
L 1766 0 
Q 1100 0 847 248 
Q 594 497 594 1153 
L 594 3053 
L 172 3053 
L 172 3500 
L 594 3500 
L 594 4494 
L 1172 4494 
z
" transform="scale(0.015625)"/>
       <path id="DejaVuSans-58" d="M 544 1381 
L 544 3500 
L 1119 3500 
L 1119 1403 
Q 1119 906 1312 657 
Q 1506 409 1894 409 
Q 2359 409 2629 706 
Q 2900 1003 2900 1516 
L 2900 3500 
L 3475 3500 
L 3475 0 
L 2900 0 
L 2900 538 
Q 2691 219 2414 64 
Q 2138 -91 1772 -91 
Q 1169 -91 856 284 
Q 544 659 544 1381 
z
M 1991 3584 
L 1991 3584 
z
" transform="scale(0.015625)"/>
       <path id="DejaVuSans-47" d="M 2906 2969 
L 2906 4863 
L 3481 4863 
L 3481 0 
L 2906 0 
L 2906 525 
Q 2725 213 2448 61 
Q 2172 -91 1784 -91 
Q 1150 -91 751 415 
Q 353 922 353 1747 
Q 353 2572 751 3078 
Q 1150 3584 1784 3584 
Q 2172 3584 2448 3432 
Q 2725 3281 2906 2969 
z
M 947 1747 
Q 947 1113 1208 752 
Q 1469 391 1925 391 
Q 2381 391 2643 752 
Q 2906 1113 2906 1747 
Q 2906 2381 2643 2742 
Q 2381 3103 1925 3103 
Q 1469 3103 1208 2742 
Q 947 2381 947 1747 
z
" transform="scale(0.015625)"/>
      </defs>
      <use xlink:href="#DejaVuSans-24"/>
      <use xlink:href="#DejaVuSans-50" transform="translate(68.40625 0)"/>
      <use xlink:href="#DejaVuSans-53" transform="translate(165.8125 0)"/>
      <use xlink:href="#DejaVuSans-4f" transform="translate(229.296875 0)"/>
      <use xlink:href="#DejaVuSans-4c" transform="translate(257.078125 0)"/>
      <use xlink:href="#DejaVuSans-57" transform="translate(284.859375 0)"/>
      <use xlink:href="#DejaVuSans-58" transform="translate(324.0625 0)"/>
      <use xlink:href="#DejaVuSans-47" transform="translate(387.4375 0)"/>
      <use xlink:href="#DejaVuSans-48" transform="translate(450.921875 0)"/>
     </g>
    </g>
   </g>
   <g id="line2d_29">
    <path d="M 77.84723 125.74145 
L 78.839936 116.518623 
L 79.832642 113.21662 
L 81.818054 97.246407 
L 82.81076 96.198943 
L 83.803466 92.476515 
L 84.796172 86.716172 
L 85.788878 88.946653 
L 86.781583 89.92399 
L 87.774289 87.213269 
L 89.759701 97.067062 
L 90.752407 96.380031 
L 91.745113 102.215274 
L 92.737819 109.166985 
L 93.730525 108.79477 
L 94.723231 113.341287 
L 95.715937 120.381549 
L 96.708643 118.987981 
L 97.701349 120.794703 
L 98.694055 126.838844 
L 99.68676 124.249503 
L 100.679466 123.21062 
L 101.672172 128.427281 
L 103.657584 122.94753 
L 104.65029 128.374286 
L 105.642996 127.266834 
L 106.635702 124.275166 
L 107.628408 130.909478 
L 108.621114 132.71157 
L 109.61382 130.467525 
L 110.606526 138.361765 
L 111.599232 143.184519 
L 112.591937 141.46138 
L 113.584643 149.350345 
L 114.577349 155.939516 
L 115.570055 153.430106 
L 117.555467 165.461305 
L 118.548173 160.569017 
L 119.540879 161.950336 
L 120.533585 166.276924 
L 121.526291 158.165039 
L 122.518997 154.214144 
L 123.511703 155.976745 
L 124.504409 145.29695 
L 125.497114 136.66775 
L 126.48982 136.79854 
L 128.475232 114.456318 
L 129.467938 114.876007 
L 130.460644 106.152626 
L 131.45335 94.919861 
L 132.446056 97.493939 
L 133.438762 93.536861 
L 134.431468 84.256197 
L 135.424174 89.756837 
L 136.41688 91.518063 
L 137.409586 84.769661 
L 138.402291 92.391086 
L 139.394997 99.125353 
L 140.387703 94.112863 
L 141.380409 101.793868 
L 142.373115 111.582619 
L 143.365821 106.864285 
L 144.358527 112.24246 
L 145.351233 123.014635 
L 146.343939 117.543669 
L 147.336645 119.033198 
L 148.329351 129.523446 
L 149.322057 123.419061 
L 150.314763 120.846624 
L 151.307469 130.980728 
L 153.29288 120.086061 
L 154.285586 130.608363 
L 155.278292 127.90947 
L 156.270998 121.062316 
L 157.263704 132.642856 
L 158.25641 134.124229 
L 159.249116 127.08359 
L 160.241822 139.432904 
L 161.234528 145.321485 
L 162.227234 138.111095 
L 163.21994 149.630003 
L 164.212646 158.702295 
L 165.205351 150.330469 
L 166.198057 158.530631 
L 167.190763 168.701477 
L 168.183469 157.935356 
L 169.176175 160.442384 
L 170.168881 169.802667 
L 171.161587 156.196172 
L 172.154293 151.821197 
L 173.146999 159.562827 
L 174.139705 144.160417 
L 175.132411 133.476237 
L 176.125117 140.199359 
L 178.110528 110.612072 
L 179.103234 117.84095 
L 180.09594 106.992101 
L 181.088646 90.622264 
L 182.081352 99.784186 
L 183.074058 95.398701 
L 184.066764 79.748203 
L 185.05947 91.162495 
L 186.052176 94.334222 
L 187.044882 80.324105 
L 188.037588 92.747488 
L 189.030294 102.758484 
L 190.023 90.015779 
L 191.015705 100.995823 
L 192.008411 115.830925 
L 193.001117 103.396194 
L 193.993823 110.255314 
L 194.986529 127.621519 
L 195.979235 114.960024 
L 196.971941 115.899708 
L 197.964647 134.191598 
L 198.957353 121.931179 
L 199.950059 116.688882 
L 200.942765 135.389943 
L 202.928177 115.102014 
L 203.920882 134.436064 
L 204.913588 128.98774 
L 205.906294 115.516793 
L 206.899 135.586039 
L 207.891706 136.51264 
L 208.884412 121.294111 
L 209.877118 141.230038 
L 210.869824 148.920607 
L 211.86253 132.429182 
L 212.855236 150.081319 
L 213.847942 163.325262 
L 214.840648 145.119487 
L 215.833354 157.51527 
L 216.82606 174.081922 
L 217.818765 153.546281 
L 218.811471 157.930994 
L 219.804177 175.608648 
L 220.796883 152.942885 
L 221.789589 147.88283 
L 222.782295 165.416093 
L 223.775001 142.29626 
L 224.767707 128.278733 
L 225.760413 145.698873 
L 227.745825 104.415556 
L 228.738531 122.589219 
L 229.731237 108.326481 
L 230.723942 83.765859 
L 231.716648 103.414655 
L 232.709354 98.339055 
L 233.70206 72.63056 
L 234.694766 93.36611 
L 235.687472 98.740011 
L 236.680178 73.378845 
L 237.672884 93.296478 
L 238.66559 108.384399 
L 239.658296 83.683356 
L 240.651002 99.762868 
L 241.643708 122.339133 
L 242.636414 98.09403 
L 243.629119 107.226519 
L 244.621825 134.600925 
L 245.614531 111.052982 
L 246.607237 111.180169 
L 247.599943 141.183039 
L 248.592649 119.70451 
L 249.585355 110.500148 
L 250.578061 141.915761 
L 252.563473 107.771275 
L 253.556179 140.032103 
L 254.548885 130.552722 
L 255.541591 107.458269 
L 256.534296 139.833869 
L 257.527002 139.943624 
L 258.519708 112.98368 
L 259.512414 143.787093 
L 260.50512 154.028612 
L 261.497826 124.373828 
L 262.490532 150.706708 
L 263.483238 169.803495 
L 264.475944 137.823596 
L 265.46865 156.089266 
L 266.461356 181.523301 
L 267.454062 147.477116 
L 268.446768 154.466603 
L 269.439473 183.530853 
L 270.432179 148.497682 
L 271.424885 142.52837 
L 272.417591 173.29258 
L 273.410297 139.773372 
L 274.403003 121.311002 
L 275.395709 152.993744 
L 277.381121 96.223833 
L 278.373827 128.793567 
L 279.366533 110.042597 
L 280.359239 74.827676 
L 281.351945 108.081788 
L 282.344651 102.094179 
L 283.337356 63.480814 
L 284.330062 96.143091 
L 285.322768 104.296171 
L 286.315474 64.57434 
L 287.30818 93.949659 
L 288.300886 115.380569 
L 289.293592 75.765241 
L 290.286298 98.195476 
L 291.279004 130.314128 
L 292.27171 91.550806 
L 293.264416 103.486902 
L 294.257122 143.023577 
L 295.249828 106.286739 
L 296.242533 105.460007 
L 297.235239 149.487594 
L 298.227945 117.002851 
L 299.220651 103.122635 
L 300.213357 149.54 
L 302.198769 99.170045 
L 303.191475 146.455476 
L 304.184181 132.292812 
L 305.176887 98.148503 
L 306.169593 144.612911 
L 307.162299 143.768274 
L 308.155005 103.527434 
L 309.14771 146.58557 
L 310.140416 159.660543 
L 311.133122 115.34205 
L 312.125828 151.318338 
L 313.118534 176.846794 
L 314.11124 129.75754 
L 315.103946 154.451378 
L 316.096652 189.490473 
L 317.089358 140.851908 
L 318.082064 150.663791 
L 319.07477 191.876131 
L 320.067476 143.690643 
L 321.060182 136.785912 
L 322.052887 181.449072 
L 323.045593 137.039312 
L 324.038299 113.978588 
L 325.031005 160.411769 
L 327.016417 87.750828 
L 328.009123 134.977424 
L 329.001829 111.658521 
L 329.994535 65.731775 
L 330.987241 112.622371 
L 331.979947 105.701275 
L 332.972653 54.312377 
L 333.965359 98.744098 
L 334.958064 109.597322 
L 335.95077 55.879014 
L 336.943476 94.445624 
L 337.936182 121.973121 
L 338.928888 68.047518 
L 339.921594 96.560492 
L 340.9143 137.718766 
L 341.907006 85.241094 
L 342.899712 99.833594 
L 343.892418 150.717902 
L 344.885124 101.714179 
L 345.87783 100.029033 
L 346.870536 156.94192 
L 347.863241 114.375685 
L 348.855947 96.263652 
L 349.848653 156.252809 
L 351.834065 91.315704 
L 352.826771 151.986059 
L 353.819477 133.652328 
L 354.812183 89.783464 
L 355.804889 148.608975 
L 356.797595 146.909764 
L 357.790301 95.15471 
L 358.783007 148.804035 
L 359.775713 164.2911 
L 360.768419 107.449107 
L 361.761124 151.63807 
L 362.75383 182.586334 
L 363.746536 122.784534 
L 364.739242 152.877245 
L 365.731948 195.899747 
L 366.724654 135.164177 
L 367.71736 147.322039 
L 368.710066 198.487786 
L 369.702772 139.557222 
L 370.695478 131.911503 
L 371.688184 187.799487 
L 372.68089 134.618744 
L 373.673596 107.895662 
L 374.666301 166.071448 
L 376.651713 80.84792 
L 377.644419 139.577896 
L 378.637125 112.674402 
L 379.629831 58.433683 
L 380.622537 115.877897 
L 381.615243 108.220691 
L 382.607949 47.050784 
L 383.600655 100.46691 
L 384.593361 113.352979 
L 385.586067 49.063898 
L 386.578773 94.553935 
L 387.571478 126.630076 
L 388.564184 62.041306 
L 389.55689 95.079064 
L 390.549596 142.899412 
L 391.542302 80.337168 
L 392.535008 96.887162 
L 393.527714 156.028616 
L 394.52042 98.121008 
L 395.513126 95.829388 
L 396.505832 161.999496 
L 397.498538 112.207377 
L 398.491244 91.091571 
L 399.48395 160.708889 
L 401.469361 85.499206 
L 402.462067 155.548009 
L 403.454773 134.291677 
L 404.447479 83.674063 
L 405.440185 151.055981 
L 406.432891 148.755342 
L 407.425597 89.103371 
L 408.418303 149.997596 
L 409.411009 167.114834 
L 410.403715 101.783543 
L 411.396421 151.526486 
L 412.389127 186.110117 
L 413.381832 117.789279 
L 414.374538 151.494135 
L 415.367244 199.816219 
L 416.35995 131.064636 
L 417.352656 144.779338 
L 418.345362 202.481843 
L 419.338068 136.508515 
L 420.330774 128.387716 
L 421.32348 191.569055 
L 422.316186 132.699815 
L 423.308892 103.620452 
L 424.301598 169.346163 
L 426.28701 76.084266 
L 427.279715 142.134594 
L 428.272421 112.94944 
L 429.265127 53.458956 
L 430.257833 117.552069 
L 431.250539 109.424379 
L 432.243245 42.138045 
L 433.235951 101.159623 
L 434.228657 115.301192 
L 435.221363 44.464661 
L 436.214069 94.234048 
L 437.206775 129.102898 
L 438.199481 57.970791 
L 439.192187 93.780894 
L 440.184892 145.657505 
L 441.177598 76.962865 
L 442.170304 94.704062 
L 443.16301 158.829789 
L 444.155716 95.555085 
L 445.148422 92.903912 
L 446.141128 164.614363 
L 447.133834 110.503167 
L 448.12654 87.603112 
L 449.119246 162.934656 
L 451.104658 81.65009 
L 452.097364 157.219609 
L 453.090069 134.241923 
L 454.082775 79.675101 
L 455.075481 152.054025 
L 456.068187 149.397673 
L 457.060893 85.159863 
L 458.053599 150.252828 
L 459.046305 168.306951 
L 460.039011 98.082601 
L 461.031717 151.020705 
L 462.024423 187.684647 
L 463.017129 114.489211 
L 464.009835 150.257775 
L 465.002541 201.593105 
L 465.995246 128.286929 
L 466.987952 142.886094 
L 467.980658 204.280667 
L 468.973364 134.332749 
L 469.96607 125.946789 
L 470.958776 193.220499 
L 471.951482 131.161625 
L 472.944188 100.767075 
L 473.936894 170.701935 
L 475.922306 72.969257 
L 476.915012 143.075282 
L 477.907718 112.624815 
L 478.900423 50.23804 
L 479.893129 117.99258 
L 480.885835 109.602754 
L 481.878541 38.96165 
L 482.871247 101.052026 
L 483.863953 115.876177 
L 484.856659 41.468809 
L 485.849365 93.567845 
L 486.842071 129.950749 
L 487.834777 55.269588 
L 488.827483 92.580884 
L 489.820189 146.646224 
L 490.812895 74.642947 
L 491.805601 93.026123 
L 492.798306 159.828072 
L 493.791012 93.672234 
L 494.783718 90.829127 
L 495.776424 165.499817 
L 496.76913 109.081135 
L 497.761836 85.230749 
L 498.754542 163.600829 
L 500.739954 79.08996 
L 501.73266 157.581466 
L 502.725366 133.691328 
L 503.718072 77.039841 
L 504.710778 152.051648 
L 505.703483 149.205648 
L 506.696189 82.557637 
L 507.688895 149.853235 
L 508.681601 168.395883 
L 509.674307 95.610649 
L 510.667013 150.217834 
L 511.659719 187.964977 
L 512.652425 112.228597 
L 513.645131 149.070754 
L 514.637837 201.969887 
L 515.630543 126.298717 
L 516.623249 141.356073 
L 517.615955 204.659948 
L 518.60866 132.655747 
L 519.601366 124.132619 
L 520.594072 193.515131 
L 521.586778 129.811707 
L 522.579484 98.74022 
L 523.57219 170.836502 
L 525.557602 70.808316 
L 526.550308 142.989893 
L 527.543014 111.890397 
L 528.53572 48.023253 
L 529.528426 117.645381 
L 530.521132 109.120064 
L 531.513837 36.769744 
L 532.506543 100.420379 
L 533.499249 115.589591 
L 534.491955 39.368477 
L 535.484661 92.648202 
L 536.477367 129.796443 
L 537.470073 53.317836 
L 538.462779 91.387472 
L 539.455485 146.556829 
L 540.448191 72.882472 
L 541.440897 91.588619 
L 542.433603 159.73717 
L 543.426309 92.129912 
L 544.419014 89.189553 
L 545.41172 165.34602 
L 546.404426 107.767626 
L 547.397132 83.439842 
L 548.389838 163.3312 
L 550.37525 77.203293 
L 551.367956 157.154145 
L 552.360662 132.806737 
L 553.353368 75.11396 
L 554.346074 151.437554 
L 555.33878 148.495508 
L 556.331486 80.646448 
L 557.324192 149.036842 
L 558.316897 167.820829 
L 559.309603 93.762271 
L 560.302309 149.197022 
L 561.295015 187.480023 
L 562.287721 110.482836 
L 563.280427 147.855846 
L 564.273133 201.527691 
L 565.265839 124.685265 
L 566.258545 139.968159 
L 567.251251 204.213959 
L 568.243957 131.193166 
L 569.236663 122.601358 
L 570.229369 193.02243 
L 571.222074 128.50719 
L 572.21478 97.10128 
L 573.207486 170.260174 
L 575.192898 69.100652 
L 576.185604 142.300831 
L 577.17831 110.881215 
L 578.171016 46.286409 
L 579.163722 116.823452 
L 580.156428 108.23031 
L 581.149134 35.041339 
L 582.14184 99.454933 
L 583.134546 114.791657 
L 584.127251 37.682022 
L 585.119957 91.537944 
L 585.119957 91.537944 
" clip-path="url(#p9628929ce4)" style="fill: none; stroke: #1f77b4; stroke-width: 0.9; stroke-linecap: square"/>
   </g>
   <g id="line2d_30">
    <path d="M 77.84723 123.506593 
L 78.839936 105.697551 
L 79.832642 115.51859 
L 80.825348 100.0106 
L 81.818054 93.466657 
L 82.81076 77.59616 
L 83.803466 94.180516 
L 84.796172 87.432452 
L 85.788878 85.297309 
L 86.781583 89.241926 
L 87.774289 84.846108 
L 88.766995 102.932781 
L 89.759701 110.341953 
L 90.752407 97.759212 
L 92.737819 111.194695 
L 93.730525 127.516262 
L 94.723231 102.306578 
L 95.715937 119.130092 
L 96.708643 119.027889 
L 97.701349 135.651578 
L 98.694055 128.270912 
L 99.68676 118.61011 
L 100.679466 123.387636 
L 101.672172 133.523927 
L 102.664878 121.932458 
L 103.657584 131.263744 
L 104.65029 135.443294 
L 105.642996 137.334287 
L 106.635702 110.156337 
L 107.628408 132.737053 
L 108.621114 130.784196 
L 109.61382 117.502771 
L 110.606526 149.723191 
L 111.599232 154.075856 
L 112.591937 142.806986 
L 113.584643 151.220748 
L 114.577349 148.003639 
L 115.570055 154.905521 
L 116.562761 166.930392 
L 117.555467 151.099474 
L 118.548173 163.017998 
L 119.540879 164.227939 
L 120.533585 163.760452 
L 121.526291 158.035657 
L 122.518997 151.02589 
L 123.511703 164.317001 
L 124.504409 131.283529 
L 125.497114 159.366141 
L 126.48982 134.957117 
L 127.482526 122.369662 
L 128.475232 114.492912 
L 129.467938 109.584832 
L 130.460644 107.030156 
L 131.45335 85.69727 
L 132.446056 97.099125 
L 133.438762 88.671085 
L 134.431468 87.214125 
L 135.424174 93.371176 
L 136.41688 93.661022 
L 137.409586 91.626449 
L 138.402291 85.598138 
L 139.394997 100.212921 
L 140.387703 100.729752 
L 141.380409 116.071981 
L 142.373115 108.421371 
L 143.365821 107.8359 
L 145.351233 118.103995 
L 146.343939 125.311645 
L 147.336645 106.586447 
L 148.329351 132.330402 
L 149.322057 128.025529 
L 150.314763 121.622015 
L 151.307469 120.302775 
L 152.300174 125.685577 
L 153.29288 131.977009 
L 154.285586 124.978555 
L 155.278292 133.725684 
L 156.270998 115.272773 
L 157.263704 118.514325 
L 158.25641 137.219225 
L 159.249116 126.914666 
L 160.241822 148.76231 
L 161.234528 128.544878 
L 162.227234 143.596551 
L 163.21994 154.044505 
L 164.212646 156.568229 
L 165.205351 150.002951 
L 166.198057 168.04155 
L 167.190763 158.013798 
L 168.183469 164.442605 
L 169.176175 152.527564 
L 170.168881 175.823374 
L 171.161587 163.286727 
L 172.154293 156.687589 
L 173.146999 161.871233 
L 175.132411 144.640536 
L 176.125117 146.988887 
L 177.117823 136.284385 
L 178.110528 108.760052 
L 179.103234 121.349966 
L 180.09594 109.743424 
L 181.088646 91.409418 
L 182.081352 82.501257 
L 183.074058 96.359215 
L 184.066764 83.644376 
L 185.05947 90.510598 
L 186.052176 96.599857 
L 187.044882 71.356841 
L 189.030294 104.654853 
L 190.023 78.102103 
L 191.015705 80.947805 
L 192.008411 126.061175 
L 193.001117 107.467242 
L 193.993823 112.331713 
L 194.986529 123.386362 
L 195.979235 92.545428 
L 196.971941 111.205398 
L 197.964647 134.863055 
L 198.957353 128.554999 
L 199.950059 118.637619 
L 200.942765 137.358664 
L 201.935471 121.460323 
L 202.928177 120.814467 
L 203.920882 140.419708 
L 204.913588 124.306609 
L 205.906294 125.048994 
L 206.899 120.268976 
L 207.891706 134.41595 
L 208.884412 136.349522 
L 209.877118 134.562258 
L 210.869824 151.042651 
L 211.86253 134.685003 
L 212.855236 162.72845 
L 213.847942 169.35537 
L 214.840648 142.598721 
L 216.82606 176.463168 
L 217.818765 145.266456 
L 218.811471 152.874561 
L 219.804177 166.45845 
L 220.796883 148.060882 
L 221.789589 152.379337 
L 222.782295 166.06951 
L 223.775001 139.227521 
L 224.767707 125.359946 
L 225.760413 142.874331 
L 226.753119 133.104366 
L 227.745825 106.675401 
L 228.738531 118.327439 
L 229.731237 106.937209 
L 230.723942 85.069394 
L 231.716648 105.232193 
L 232.709354 94.941408 
L 233.70206 68.735543 
L 234.694766 88.97456 
L 235.687472 96.775175 
L 236.680178 80.646818 
L 237.672884 93.988926 
L 238.66559 102.484079 
L 239.658296 69.918 
L 240.651002 87.981818 
L 241.643708 123.055503 
L 242.636414 95.60034 
L 243.629119 106.373765 
L 244.621825 132.895982 
L 245.614531 118.503423 
L 246.607237 107.529824 
L 247.599943 149.196407 
L 248.592649 118.182362 
L 249.585355 104.731988 
L 250.578061 130.993411 
L 251.570767 118.735249 
L 252.563473 110.657323 
L 253.556179 143.688203 
L 254.548885 144.244134 
L 255.541591 108.899191 
L 256.534296 139.542738 
L 257.527002 147.441748 
L 258.519708 111.909507 
L 259.512414 143.287787 
L 260.50512 152.982658 
L 261.497826 119.802278 
L 262.490532 146.95828 
L 263.483238 151.758216 
L 264.475944 135.154192 
L 265.46865 155.861482 
L 266.461356 179.835105 
L 267.454062 145.172502 
L 268.446768 142.008703 
L 269.439473 177.753558 
L 270.432179 140.599841 
L 271.424885 148.135651 
L 272.417591 163.213884 
L 273.410297 136.743768 
L 274.403003 123.975879 
L 275.395709 157.435367 
L 276.388415 116.684223 
L 277.381121 91.864968 
L 278.373827 137.583225 
L 279.366533 102.195513 
L 280.359239 80.233095 
L 281.351945 105.006141 
L 282.344651 108.729508 
L 283.337356 60.36018 
L 284.330062 109.843988 
L 285.322768 119.891474 
L 286.315474 55.447092 
L 287.30818 95.983352 
L 288.300886 105.407172 
L 289.293592 95.282385 
L 290.286298 105.623191 
L 291.279004 137.785228 
L 292.27171 90.068341 
L 293.264416 98.920355 
L 294.257122 145.538067 
L 295.249828 100.519196 
L 296.242533 114.463405 
L 297.235239 136.588969 
L 298.227945 121.665361 
L 299.220651 90.09425 
L 300.213357 144.951201 
L 301.206063 109.506202 
L 302.198769 100.637418 
L 303.191475 142.656566 
L 304.184181 140.244109 
L 305.176887 100.359696 
L 306.169593 140.026138 
L 307.162299 152.05862 
L 308.155005 109.79381 
L 309.14771 147.286471 
L 310.140416 157.432638 
L 311.133122 114.548258 
L 313.118534 185.8672 
L 314.11124 115.976766 
L 315.103946 143.391001 
L 316.096652 185.057743 
L 317.089358 138.370072 
L 318.082064 153.952141 
L 319.07477 195.288908 
L 320.067476 143.662464 
L 321.060182 119.349334 
L 322.052887 181.725532 
L 323.045593 138.378596 
L 324.038299 119.20368 
L 325.031005 165.961507 
L 326.023711 116.605217 
L 327.016417 98.413011 
L 328.009123 127.688299 
L 329.001829 109.236107 
L 329.994535 55.951313 
L 330.987241 109.048284 
L 331.979947 115.819463 
L 332.972653 58.801166 
L 333.965359 102.603176 
L 334.958064 108.853973 
L 335.95077 60.021632 
L 336.943476 101.037201 
L 337.936182 120.541921 
L 338.928888 71.648489 
L 340.9143 123.503641 
L 341.907006 87.998345 
L 342.899712 104.88843 
L 343.892418 138.916433 
L 344.885124 118.684208 
L 345.87783 90.997535 
L 346.870536 154.540952 
L 347.863241 109.885788 
L 348.855947 108.360729 
L 349.848653 158.978757 
L 350.841359 122.992033 
L 351.834065 101.398604 
L 352.826771 150.575757 
L 353.819477 128.855498 
L 354.812183 80.965607 
L 355.804889 134.314798 
L 356.797595 145.778415 
L 357.790301 94.197137 
L 358.783007 155.677868 
L 359.775713 176.540213 
L 360.768419 91.780283 
L 361.761124 150.991709 
L 362.75383 191.829866 
L 363.746536 123.861363 
L 364.739242 144.980031 
L 365.731948 194.120034 
L 366.724654 128.835907 
L 367.71736 151.825349 
L 368.710066 183.309004 
L 369.702772 138.999475 
L 370.695478 137.626453 
L 371.688184 193.901724 
L 372.68089 124.051948 
L 373.673596 98.81035 
L 374.666301 157.863571 
L 376.651713 85.088678 
L 377.644419 126.861079 
L 378.637125 112.182481 
L 379.629831 48.294945 
L 380.622537 121.304618 
L 381.615243 96.507357 
L 382.607949 51.797519 
L 383.600655 104.455493 
L 384.593361 106.878133 
L 385.586067 45.074582 
L 386.578773 90.587178 
L 387.571478 118.996817 
L 388.564184 62.861071 
L 389.55689 91.87333 
L 390.549596 144.940713 
L 391.542302 84.973858 
L 392.535008 101.281612 
L 393.527714 153.714423 
L 394.52042 99.113014 
L 395.513126 104.802061 
L 396.505832 160.107909 
L 397.498538 115.153779 
L 398.491244 98.456984 
L 399.48395 145.867725 
L 400.476655 112.603856 
L 401.469361 99.439746 
L 402.462067 144.069706 
L 403.454773 145.622896 
L 404.447479 92.34737 
L 405.440185 155.407612 
L 406.432891 157.659529 
L 407.425597 81.810896 
L 408.418303 146.970514 
L 409.411009 171.480725 
L 410.403715 106.689245 
L 411.396421 157.20868 
L 412.389127 186.499094 
L 413.381832 121.090539 
L 414.374538 156.085737 
L 415.367244 197.846921 
L 416.35995 125.430671 
L 417.352656 147.63222 
L 418.345362 198.208493 
L 419.338068 137.558417 
L 420.330774 124.386609 
L 421.32348 199.445554 
L 422.316186 132.91521 
L 423.308892 113.13939 
L 424.301598 189.231593 
L 425.294304 108.620266 
L 426.28701 62.552093 
L 427.279715 131.646055 
L 428.272421 111.28881 
L 429.265127 41.276616 
L 430.257833 111.534497 
L 431.250539 113.13644 
L 432.243245 34.121419 
L 433.235951 101.277725 
L 434.228657 118.14679 
L 435.221363 39.288557 
L 436.214069 88.081384 
L 437.206775 125.177083 
L 438.199481 52.178854 
L 439.192187 87.138785 
L 440.184892 144.134735 
L 441.177598 82.61903 
L 442.170304 96.625633 
L 443.16301 150.152017 
L 444.155716 97.493088 
L 445.148422 99.638785 
L 446.141128 164.04571 
L 447.133834 108.390216 
L 448.12654 95.435013 
L 449.119246 162.745727 
L 450.111952 123.910028 
L 451.104658 75.480312 
L 452.097364 154.635956 
L 454.082775 94.306046 
L 455.075481 166.005709 
L 456.068187 151.486403 
L 457.060893 83.623743 
L 458.053599 153.834782 
L 459.046305 176.236188 
L 460.039011 99.96274 
L 461.031717 159.722533 
L 462.024423 204.408581 
L 463.017129 112.39105 
L 464.009835 140.055689 
L 465.002541 212.830125 
L 465.995246 121.697948 
L 466.987952 132.006331 
L 467.980658 205.125697 
L 468.973364 133.234772 
L 469.96607 119.582969 
L 470.958776 195.500374 
L 471.951482 127.256182 
L 472.944188 97.505886 
L 473.936894 166.99141 
L 474.9296 133.241202 
L 475.922306 77.804691 
L 476.915012 137.880897 
L 478.900423 46.035848 
L 479.893129 114.214367 
L 480.885835 113.432014 
L 481.878541 47.116193 
L 482.871247 95.791852 
L 483.863953 128.032575 
L 484.856659 46.15394 
L 485.849365 92.409042 
L 486.842071 126.682866 
L 487.834777 56.675352 
L 489.820189 141.062718 
L 490.812895 68.339992 
L 491.805601 77.119645 
L 492.798306 162.890047 
L 493.791012 104.680837 
L 494.783718 86.746882 
L 495.776424 169.926339 
L 496.76913 96.091339 
L 497.761836 85.583235 
L 498.754542 161.223705 
L 499.747248 124.690046 
L 500.739954 78.007852 
L 501.73266 158.597445 
L 502.725366 130.683003 
L 503.718072 76.878891 
L 504.710778 158.752735 
L 505.703483 151.555361 
L 506.696189 103.392182 
L 507.688895 139.30809 
L 508.681601 157.015634 
L 509.674307 96.023546 
L 510.667013 152.497156 
L 511.659719 185.381298 
L 512.652425 111.856696 
L 513.645131 163.385456 
L 514.637837 193.13893 
L 515.630543 133.659441 
L 516.623249 142.095413 
L 517.615955 208.328658 
L 518.60866 135.688627 
L 519.601366 116.01792 
L 520.594072 197.742139 
L 521.586778 134.649174 
L 522.579484 106.369107 
L 523.57219 171.853067 
L 524.564896 127.478153 
L 525.557602 61.984569 
L 526.550308 143.327866 
L 527.543014 116.494157 
L 528.53572 48.102618 
L 529.528426 116.991275 
L 530.521132 115.58104 
L 531.513837 36.52577 
L 532.506543 89.908235 
L 533.499249 123.051837 
L 534.491955 48.517718 
L 535.484661 101.846361 
L 536.477367 124.83015 
L 537.470073 52.995384 
L 538.462779 100.584755 
L 539.455485 157.805108 
L 540.448191 76.464784 
L 541.440897 109.499404 
L 542.433603 164.149367 
L 543.426309 95.008724 
L 544.419014 90.292751 
L 545.41172 177.2045 
L 546.404426 109.838803 
L 547.397132 84.170354 
L 548.389838 158.470053 
L 549.382544 122.398169 
L 550.37525 71.213162 
L 551.367956 151.350754 
L 552.360662 133.904265 
L 553.353368 70.18261 
L 554.346074 140.985831 
L 555.33878 149.3608 
L 556.331486 74.484909 
L 557.324192 146.457033 
L 558.316897 156.484368 
L 559.309603 101.158503 
L 561.295015 193.503775 
L 562.287721 108.793338 
L 563.280427 147.453292 
L 564.273133 204.595368 
L 565.265839 131.871743 
L 566.258545 150.974402 
L 567.251251 209.709954 
L 568.243957 127.136652 
L 569.236663 124.735933 
L 570.229369 194.953779 
L 571.222074 120.980374 
L 572.21478 103.36849 
L 573.207486 185.586648 
L 574.200192 116.737819 
L 575.192898 60.71526 
L 576.185604 137.01076 
L 577.17831 99.866625 
L 578.171016 50.205694 
L 579.163722 103.014809 
L 580.156428 113.285059 
L 581.149134 38.54308 
L 582.14184 74.123758 
L 583.134546 128.922897 
L 584.127251 31.390125 
L 585.119957 92.378542 
L 585.119957 92.378542 
" clip-path="url(#p9628929ce4)" style="fill: none; stroke: #ff7f0e; stroke-width: 0.9; stroke-linecap: square"/>
   </g>
   <g id="line2d_31">
    <path d="M 77.84723 117.085052 
L 78.839936 116.921609 
L 79.832642 105.686593 
L 80.825348 97.418196 
L 81.818054 92.116419 
L 82.81076 86.019738 
L 83.803466 88.904889 
L 84.796172 89.383365 
L 85.788878 87.455166 
L 86.781583 86.171834 
L 87.774289 93.751036 
L 88.766995 98.955528 
L 89.759701 101.785312 
L 90.752407 105.251397 
L 91.745113 107.143528 
L 92.737819 109.457399 
L 94.723231 114.815615 
L 96.708643 122.969091 
L 98.694055 129.89339 
L 99.68676 127.462765 
L 100.679466 126.627255 
L 101.672172 127.38686 
L 102.664878 127.719056 
L 103.657584 126.66877 
L 104.65029 125.988919 
L 106.635702 125.270829 
L 107.628408 130.519147 
L 108.621114 134.251678 
L 109.61382 136.468423 
L 110.606526 139.091322 
L 112.591937 146.277238 
L 114.577349 152.643163 
L 116.562761 157.950422 
L 118.548173 163.739115 
L 119.540879 160.642403 
L 120.533585 159.144663 
L 121.526291 159.245898 
L 122.518997 158.918689 
L 123.511703 151.929408 
L 124.504409 146.725225 
L 125.497114 143.306138 
L 126.48982 139.408735 
L 127.482526 126.597671 
L 128.475232 116.175016 
L 130.460644 99.466549 
L 131.45335 98.39032 
L 132.446056 95.278216 
L 134.431468 85.527768 
L 135.424174 89.51791 
L 136.41688 91.205669 
L 137.409586 90.591045 
L 138.402291 90.593342 
L 139.394997 98.231205 
L 140.387703 103.823124 
L 141.380409 107.3691 
L 142.373115 111.463284 
L 143.365821 112.473798 
L 144.358527 114.310579 
L 146.343939 119.415278 
L 147.336645 120.277503 
L 148.329351 121.562934 
L 150.314763 124.866809 
L 151.307469 125.133456 
L 152.300174 125.756097 
L 154.285586 127.617982 
L 155.278292 126.576247 
L 156.270998 126.050309 
L 157.263704 126.040169 
L 158.25641 125.891822 
L 159.249116 132.127852 
L 160.241822 136.653194 
L 161.234528 139.467847 
L 162.227234 142.740877 
L 164.212646 153.441529 
L 166.198057 162.386244 
L 167.190763 161.848957 
L 168.183469 162.677072 
L 169.176175 164.870591 
L 170.168881 166.69825 
L 171.161587 162.536415 
L 172.154293 159.97946 
L 173.146999 159.027385 
L 174.139705 157.645284 
L 175.132411 145.935218 
L 176.125117 136.992522 
L 177.117823 130.817196 
L 178.110528 123.900355 
L 180.09594 103.825386 
L 182.081352 86.388296 
L 183.074058 91.214188 
L 184.066764 92.376198 
L 185.05947 89.874326 
L 186.052176 88.354189 
L 187.044882 87.519972 
L 188.037588 86.501964 
L 190.023 84.14761 
L 191.015705 96.30206 
L 192.008411 104.890909 
L 193.001117 109.914157 
L 193.993823 115.892805 
L 194.986529 114.992137 
L 195.979235 115.934775 
L 196.971941 118.720721 
L 197.964647 121.012755 
L 199.950059 124.500579 
L 201.935471 128.45173 
L 202.928177 126.671129 
L 203.920882 125.890904 
L 204.913588 126.111055 
L 205.906294 126.063157 
L 206.899 129.456979 
L 207.891706 131.928596 
L 208.884412 133.478006 
L 209.877118 135.27452 
L 210.869824 144.315863 
L 211.86253 151.41596 
L 213.847942 162.253818 
L 214.840648 157.812318 
L 215.833354 156.0826 
L 216.82606 157.064663 
L 217.818765 157.320107 
L 218.811471 156.797317 
L 219.804177 156.483055 
L 221.789589 156.215709 
L 222.782295 148.996355 
L 223.775001 143.668117 
L 224.767707 140.230997 
L 225.760413 136.287153 
L 226.753119 126.549533 
L 227.745825 118.36435 
L 232.709354 85.908697 
L 233.70206 79.438778 
L 234.694766 86.176053 
L 235.687472 89.374471 
L 236.680178 89.034032 
L 237.672884 89.641828 
L 238.66559 92.819397 
L 239.658296 95.308398 
L 241.643708 99.093762 
L 242.636414 106.945423 
L 243.629119 113.225098 
L 245.614531 123.061691 
L 246.607237 119.201101 
L 247.599943 117.749238 
L 248.592649 118.706103 
L 249.585355 119.017551 
L 250.578061 122.927923 
L 251.570767 125.873966 
L 252.563473 127.855681 
L 253.556179 130.095787 
L 254.548885 131.006643 
L 255.541591 132.27367 
L 257.527002 135.424631 
L 258.519708 134.303193 
L 259.512414 133.891606 
L 260.50512 134.18987 
L 261.497826 134.29793 
L 262.490532 141.841968 
L 263.483238 147.393542 
L 264.475944 150.952651 
L 265.46865 155.04564 
L 266.461356 155.491504 
L 267.454062 156.914612 
L 269.439473 161.453464 
L 270.432179 154.471094 
L 271.424885 149.932653 
L 272.417591 147.838143 
L 273.410297 145.088783 
L 274.403003 134.844069 
L 275.395709 126.607729 
L 277.381121 113.613655 
L 278.373827 109.780591 
L 279.366533 105.16162 
L 281.351945 94.562448 
L 282.344651 96.906454 
L 283.337356 97.230578 
L 284.330062 95.534821 
L 285.322768 94.38029 
L 286.315474 95.395947 
L 287.30818 95.830103 
L 288.300886 95.68276 
L 289.293592 95.691229 
L 290.286298 101.970765 
L 291.279004 106.569974 
L 292.27171 109.488855 
L 296.242533 123.349586 
L 297.235239 126.81247 
L 298.227945 120.746988 
L 299.220651 117.234623 
L 300.213357 116.275377 
L 301.206063 114.632025 
L 302.198769 119.153798 
L 303.191475 122.02363 
L 304.184181 123.241522 
L 305.176887 124.902051 
L 306.169593 129.375483 
L 307.162299 133.0952 
L 309.14771 139.22916 
L 311.133122 147.795665 
L 313.118534 155.419413 
L 314.11124 153.361841 
L 315.103946 152.889369 
L 316.096652 154.001999 
L 317.089358 154.689902 
L 318.082064 153.003536 
L 319.07477 151.953354 
L 320.067476 151.539355 
L 321.060182 150.954891 
L 322.052887 148.627903 
L 323.045593 146.767824 
L 325.031005 143.856372 
L 326.023711 127.788657 
L 327.016417 115.619451 
L 328.009123 107.348755 
L 329.001829 98.033456 
L 329.994535 96.643331 
L 330.987241 93.129663 
L 332.972653 82.42424 
L 333.965359 89.013508 
L 334.958064 92.479165 
L 335.95077 92.821209 
L 336.943476 94.000223 
L 337.936182 97.024122 
L 338.928888 99.553686 
L 340.9143 103.756599 
L 341.907006 108.25416 
L 342.899712 112.127433 
L 344.885124 118.792679 
L 345.87783 118.491947 
L 346.870536 119.18718 
L 347.863241 120.878379 
L 348.855947 122.30271 
L 350.841359 126.986551 
L 352.826771 130.894754 
L 353.819477 127.145273 
L 354.812183 124.934254 
L 355.804889 124.261696 
L 356.797595 123.17691 
L 357.790301 128.785953 
L 358.783007 132.601391 
L 359.775713 134.623221 
L 360.768419 137.125647 
L 361.761124 143.979652 
L 362.75383 149.667655 
L 364.739242 159.024086 
L 365.731948 158.773991 
L 366.724654 159.88629 
L 367.71736 162.360984 
L 368.710066 164.470625 
L 369.702772 155.376461 
L 370.695478 149.284347 
L 371.688184 146.194284 
L 372.68089 142.299825 
L 373.673596 131.22673 
L 374.666301 122.077145 
L 376.651713 107.109591 
L 377.644419 105.09974 
L 378.637125 101.554105 
L 380.622537 91.802776 
L 381.615243 91.503436 
L 382.607949 90.033007 
L 384.593361 85.063759 
L 385.586067 85.634286 
L 386.578773 85.428229 
L 387.571478 84.445586 
L 388.564184 83.671029 
L 389.55689 95.392969 
L 390.549596 103.766482 
L 391.542302 108.79157 
L 392.535008 114.713865 
L 393.527714 118.760008 
L 395.513126 128.360434 
L 396.505832 133.277302 
L 397.498538 124.787766 
L 398.491244 119.890465 
L 399.48395 118.5854 
L 400.476655 116.317798 
L 401.469361 120.922723 
L 402.462067 123.686161 
L 403.454773 124.60811 
L 404.447479 126.023485 
L 405.440185 128.837485 
L 406.432891 131.276725 
L 408.418303 135.506099 
L 409.411009 143.847968 
L 410.403715 150.534722 
L 412.389127 161.041486 
L 413.381832 156.201372 
L 414.374538 154.125218 
L 415.367244 154.813025 
L 416.35995 154.76023 
L 417.352656 153.561474 
L 418.345362 152.669777 
L 424.301598 149.173404 
L 425.294304 127.135642 
L 426.28701 110.846404 
L 427.279715 100.305692 
L 428.272421 88.224668 
L 429.265127 88.282664 
L 430.257833 85.08802 
L 431.250539 78.640734 
L 432.243245 73.064991 
L 433.235951 79.937714 
L 434.228657 83.47488 
L 435.221363 83.67649 
L 436.214069 84.77186 
L 437.206775 92.303366 
L 438.199481 98.110315 
L 440.184892 106.737191 
L 441.177598 107.292742 
L 442.170304 108.917124 
L 444.155716 114.017159 
L 446.141128 117.870902 
L 448.12654 122.130346 
L 449.119246 121.986461 
L 450.111952 122.446457 
L 452.097364 124.412399 
L 453.090069 128.692671 
L 454.082775 132.067755 
L 456.068187 137.250094 
L 457.060893 136.252361 
L 458.053599 136.248767 
L 459.046305 137.239311 
L 460.039011 137.963476 
L 461.031717 145.099075 
L 462.024423 150.516735 
L 463.017129 154.216457 
L 464.009835 158.376499 
L 465.002541 159.093305 
L 465.995246 160.732723 
L 467.980658 165.609571 
L 468.973364 154.695848 
L 469.96607 147.326702 
L 470.958776 143.502133 
L 471.951482 138.727797 
L 473.936894 124.197662 
L 475.922306 111.772941 
L 479.893129 85.090911 
L 480.885835 91.42233 
L 481.878541 94.290376 
L 482.871247 93.695049 
L 483.863953 94.027729 
L 484.856659 90.812113 
L 485.849365 88.547259 
L 486.842071 87.233169 
L 487.834777 85.664323 
L 488.827483 91.658917 
L 489.820189 95.626894 
L 490.812895 97.568253 
L 491.805601 100.052642 
L 492.798306 110.698446 
L 493.791012 119.157406 
L 495.776424 132.2876 
L 496.76913 124.235625 
L 497.761836 120.178787 
L 498.754542 120.117086 
L 499.747248 118.984891 
L 500.739954 118.420276 
L 501.73266 117.703578 
L 503.718072 116.006768 
L 504.710778 124.278958 
L 505.703483 130.112751 
L 506.696189 133.508147 
L 507.688895 137.55691 
L 509.674307 144.742802 
L 511.659719 152.313996 
L 512.652425 153.092497 
L 513.645131 154.671684 
L 515.630543 159.216887 
L 516.623249 154.699946 
L 517.615955 151.973513 
L 518.60866 151.03759 
L 519.601366 149.621902 
L 522.579484 144.826907 
L 523.57219 143.277514 
L 524.564896 128.057703 
L 525.557602 116.500869 
L 526.550308 108.607013 
L 527.543014 99.731665 
L 528.53572 93.667389 
L 530.521132 79.279163 
L 531.513837 71.910263 
L 532.506543 82.555467 
L 533.499249 88.373807 
L 534.491955 89.365281 
L 535.484661 91.650111 
L 536.477367 99.216322 
L 537.470073 105.367391 
L 539.455485 115.218431 
L 540.448191 113.77513 
L 541.440897 114.08915 
L 542.433603 116.160493 
L 543.426309 117.760962 
L 544.419014 117.019084 
L 545.41172 116.904837 
L 546.404426 117.418219 
L 547.397132 117.763429 
L 548.389838 119.284027 
L 549.382544 120.489682 
L 551.367956 122.35549 
L 552.360662 121.786528 
L 553.353368 121.631296 
L 555.33878 122.037433 
L 556.331486 124.574691 
L 557.324192 126.471653 
L 559.309603 129.15655 
L 560.302309 138.673293 
L 561.295015 146.022726 
L 564.273133 161.143278 
L 566.258545 170.770359 
L 567.251251 175.682594 
L 568.243957 159.683447 
L 569.236663 149.287488 
L 570.229369 144.494716 
L 571.222074 138.200575 
L 573.207486 121.066996 
L 575.192898 105.854486 
L 576.185604 101.709862 
L 577.17831 96.612454 
L 579.163722 84.767369 
L 580.156428 86.539364 
L 581.149134 86.283817 
L 582.14184 84.000729 
L 583.134546 82.260918 
L 584.127251 82.703403 
L 585.119957 82.561144 
L 585.119957 82.561144 
" clip-path="url(#p9628929ce4)" style="fill: none; stroke: #2ca02c; stroke-width: 0.9; stroke-linecap: square"/>
   </g>
   <g id="patch_3">
    <path d="M 52.483594 221.902125 
L 52.483594 22.318125 
" style="fill: none; stroke: #000000; stroke-width: 0.8; stroke-linejoin: miter; stroke-linecap: square"/>
   </g>
   <g id="patch_4">
    <path d="M 610.483594 221.902125 
L 610.483594 22.318125 
" style="fill: none; stroke: #000000; stroke-width: 0.8; stroke-linejoin: miter; stroke-linecap: square"/>
   </g>
   <g id="patch_5">
    <path d="M 52.483594 221.902125 
L 610.483594 221.902125 
" style="fill: none; stroke: #000000; stroke-width: 0.8; stroke-linejoin: miter; stroke-linecap: square"/>
   </g>
   <g id="patch_6">
    <path d="M 52.483594 22.318125 
L 610.483594 22.318125 
" style="fill: none; stroke: #000000; stroke-width: 0.8; stroke-linejoin: miter; stroke-linecap: square"/>
   </g>
   <g id="text_17">
    <!-- Synthetic ground-truth recovery -->
    <g transform="translate(234.915469 16.318125) scale(0.12 -0.12)">
     <defs>
      <path id="DejaVuSans-36" d="M 3425 4513 
L 3425 3897 
Q 3066 4069 2747 4153 
Q 2428 4238 2131 4238 
Q 1616 4238 1336 4038 
Q 1056 3838 1056 3469 
Q 1056 3159 1242 3001 
Q 1428 2844 1947 2747 
L 2328 2669 
Q 3034 2534 3370 2195 
Q 3706 1856 3706 1288 
Q 3706 609 3251 259 
Q 2797 -91 1919 -91 
Q 1588 -91 1214 -16 
Q 841 59 441 206 
L 441 856 
Q 825 641 1194 531 
Q 1563 422 1919 422 
Q 2459 422 2753 634 
Q 3047 847 3047 1241 
Q 3047 1584 2836 1778 
Q 2625 1972 2144 2069 
L 1759 2144 
Q 1053 2284 737 2584 
Q 422 2884 422 3419 
Q 422 4038 858 4394 
Q 1294 4750 2059 4750 
Q 2388 4750 2728 4690 
Q 3069 4631 3425 4513 
z
" transform="scale(0.015625)"/>
      <path id="DejaVuSans-5c" d="M 2059 -325 
Q 1816 -950 1584 -1140 
Q 1353 -1331 966 -1331 
L 506 -1331 
L 506 -850 
L 844 -850 
Q 1081 -850 1212 -737 
Q 1344 -625 1503 -206 
L 1606 56 
L 191 3500 
L 800 3500 
L 1894 763 
L 2988 3500 
L 3597 3500 
L 2059 -325 
z
" transform="scale(0.015625)"/>
      <path id="DejaVuSans-51" d="M 3513 2113 
L 3513 0 
L 2938 0 
L 2938 2094 
Q 2938 2591 2744 2837 
Q 2550 3084 2163 3084 
Q 1697 3084 1428 2787 
Q 1159 2491 1159 1978 
L 1159 0 
L 581 0 
L 581 3500 
L 1159 3500 
L 1159 2956 
Q 1366 3272 1645 3428 
Q 1925 3584 2291 3584 
Q 2894 3584 3203 3211 
Q 3513 2838 3513 2113 
z
" transform="scale(0.015625)"/>
      <path id="DejaVuSans-4b" d="M 3513 2113 
L 3513 0 
L 2938 0 
L 2938 2094 
Q 2938 2591 2744 2837 
Q 2550 3084 2163 3084 
Q 1697 3084 1428 2787 
Q 1159 2491 1159 1978 
L 1159 0 
L 581 0 
L 581 4863 
L 1159 4863 
L 1159 2956 
Q 1366 3272 1645 3428 
Q 1925 3584 2291 3584 
Q 2894 3584 3203 3211 
Q 3513 2838 3513 2113 
z
" transform="scale(0.015625)"/>
      <path id="DejaVuSans-46" d="M 3122 3366 
L 3122 2828 
Q 2878 2963 2633 3030 
Q 2388 3097 2138 3097 
Q 1578 3097 1268 2742 
Q 959 2388 959 1747 
Q 959 1106 1268 751 
Q 1578 397 2138 397 
Q 2388 397 2633 464 
Q 2878 531 3122 666 
L 3122 134 
Q 2881 22 2623 -34 
Q 2366 -91 2075 -91 
Q 1284 -91 818 406 
Q 353 903 353 1747 
Q 353 2603 823 3093 
Q 1294 3584 2113 3584 
Q 2378 3584 2631 3529 
Q 2884 3475 3122 3366 
z
" transform="scale(0.015625)"/>
      <path id="DejaVuSans-4a" d="M 2906 1791 
Q 2906 2416 2648 2759 
Q 2391 3103 1925 3103 
Q 1463 3103 1205 2759 
Q 947 2416 947 1791 
Q 947 1169 1205 825 
Q 1463 481 1925 481 
Q 2391 481 2648 825 
Q 2906 1169 2906 1791 
z
M 3481 434 
Q 3481 -459 3084 -895 
Q 2688 -1331 1869 -1331 
Q 1566 -1331 1297 -1286 
Q 1028 -1241 775 -1147 
L 775 -588 
Q 1028 -725 1275 -790 
Q 1522 -856 1778 -856 
Q 2344 -856 2625 -561 
Q 2906 -266 2906 331 
L 2906 616 
Q 2728 306 2450 153 
Q 2172 0 1784 0 
Q 1141 0 747 490 
Q 353 981 353 1791 
Q 353 2603 747 3093 
Q 1141 3584 1784 3584 
Q 2172 3584 2450 3431 
Q 2728 3278 2906 2969 
L 2906 3500 
L 3481 3500 
L 3481 434 
z
" transform="scale(0.015625)"/>
      <path id="DejaVuSans-55" d="M 2631 2963 
Q 2534 3019 2420 3045 
Q 2306 3072 2169 3072 
Q 1681 3072 1420 2755 
Q 1159 2438 1159 1844 
L 1159 0 
L 581 0 
L 581 3500 
L 1159 3500 
L 1159 2956 
Q 1341 3275 1631 3429 
Q 1922 3584 2338 3584 
Q 2397 3584 2469 3576 
Q 2541 3569 2628 3553 
L 2631 2963 
z
" transform="scale(0.015625)"/>
      <path id="DejaVuSans-52" d="M 1959 3097 
Q 1497 3097 1228 2736 
Q 959 2375 959 1747 
Q 959 1119 1226 758 
Q 1494 397 1959 397 
Q 2419 397 2687 759 
Q 2956 1122 2956 1747 
Q 2956 2369 2687 2733 
Q 2419 3097 1959 3097 
z
M 1959 3584 
Q 2709 3584 3137 3096 
Q 3566 2609 3566 1747 
Q 3566 888 3137 398 
Q 2709 -91 1959 -91 
Q 1206 -91 779 398 
Q 353 888 353 1747 
Q 353 2609 779 3096 
Q 1206 3584 1959 3584 
z
" transform="scale(0.015625)"/>
      <path id="DejaVuSans-10" d="M 313 2009 
L 1997 2009 
L 1997 1497 
L 313 1497 
L 313 2009 
z
" transform="scale(0.015625)"/>
      <path id="DejaVuSans-59" d="M 191 3500 
L 800 3500 
L 1894 563 
L 2988 3500 
L 3597 3500 
L 2284 0 
L 1503 0 
L 191 3500 
z
" transform="scale(0.015625)"/>
     </defs>
     <use xlink:href="#DejaVuSans-36"/>
     <use xlink:href="#DejaVuSans-5c" transform="translate(63.484375 0)"/>
     <use xlink:href="#DejaVuSans-51" transform="translate(122.671875 0)"/>
     <use xlink:href="#DejaVuSans-57" transform="translate(186.046875 0)"/>
     <use xlink:href="#DejaVuSans-4b" transform="translate(225.25 0)"/>
     <use xlink:href="#DejaVuSans-48" transform="translate(288.625 0)"/>
     <use xlink:href="#DejaVuSans-57" transform="translate(350.15625 0)"/>
     <use xlink:href="#DejaVuSans-4c" transform="translate(389.359375 0)"/>
     <use xlink:href="#DejaVuSans-46" transform="translate(417.140625 0)"/>
     <use xlink:href="#DejaVuSans-3" transform="translate(472.125 0)"/>
     <use xlink:href="#DejaVuSans-4a" transform="translate(503.90625 0)"/>
     <use xlink:href="#DejaVuSans-55" transform="translate(567.390625 0)"/>
     <use xlink:href="#DejaVuSans-52" transform="translate(606.296875 0)"/>
     <use xlink:href="#DejaVuSans-58" transform="translate(667.484375 0)"/>
     <use xlink:href="#DejaVuSans-51" transform="translate(730.859375 0)"/>
     <use xlink:href="#DejaVuSans-47" transform="translate(794.234375 0)"/>
     <use xlink:href="#DejaVuSans-10" transform="translate(857.71875 0)"/>
     <use xlink:href="#DejaVuSans-57" transform="translate(893.796875 0)"/>
     <use xlink:href="#DejaVuSans-55" transform="translate(933 0)"/>
     <use xlink:href="#DejaVuSans-58" transform="translate(974.109375 0)"/>
     <use xlink:href="#DejaVuSans-57" transform="translate(1037.484375 0)"/>
     <use xlink:href="#DejaVuSans-4b" transform="translate(1076.6875 0)"/>
     <use xlink:href="#DejaVuSans-3" transform="translate(1140.0625 0)"/>
     <use xlink:href="#DejaVuSans-55" transform="translate(1171.84375 0)"/>
     <use xlink:href="#DejaVuSans-48" transform="translate(1210.75 0)"/>
     <use xlink:href="#DejaVuSans-46" transform="translate(1272.28125 0)"/>
     <use xlink:href="#DejaVuSans-52" transform="translate(1327.265625 0)"/>
     <use xlink:href="#DejaVuSans-59" transform="translate(1388.453125 0)"/>
     <use xlink:href="#DejaVuSans-48" transform="translate(1447.640625 0)"/>
     <use xlink:href="#DejaVuSans-55" transform="translate(1509.171875 0)"/>
     <use xlink:href="#DejaVuSans-5c" transform="translate(1550.28125 0)"/>
    </g>
   </g>
   <g id="legend_1">
    <g id="patch_7">
     <path d="M 59.483594 75.320469 
L 144.217969 75.320469 
Q 146.217969 75.320469 146.217969 73.320469 
L 146.217969 29.318125 
Q 146.217969 27.318125 144.217969 27.318125 
L 59.483594 27.318125 
Q 57.483594 27.318125 57.483594 29.318125 
L 57.483594 73.320469 
Q 57.483594 75.320469 59.483594 75.320469 
z
" style="fill: #ffffff; opacity: 0.8; stroke: #cccccc; stroke-linejoin: miter"/>
    </g>
    <g id="line2d_32">
     <path d="M 61.483594 35.416562 
L 71.483594 35.416562 
L 81.483594 35.416562 
" style="fill: none; stroke: #1f77b4; stroke-width: 0.9; stroke-linecap: square"/>
    </g>
    <g id="text_18">
     <!-- Clean -->
     <g transform="translate(89.483594 38.916562) scale(0.1 -0.1)">
      <defs>
       <path id="DejaVuSans-26" d="M 4122 4306 
L 4122 3641 
Q 3803 3938 3442 4084 
Q 3081 4231 2675 4231 
Q 1875 4231 1450 3742 
Q 1025 3253 1025 2328 
Q 1025 1406 1450 917 
Q 1875 428 2675 428 
Q 3081 428 3442 575 
Q 3803 722 4122 1019 
L 4122 359 
Q 3791 134 3420 21 
Q 3050 -91 2638 -91 
Q 1578 -91 968 557 
Q 359 1206 359 2328 
Q 359 3453 968 4101 
Q 1578 4750 2638 4750 
Q 3056 4750 3426 4639 
Q 3797 4528 4122 4306 
z
" transform="scale(0.015625)"/>
       <path id="DejaVuSans-44" d="M 2194 1759 
Q 1497 1759 1228 1600 
Q 959 1441 959 1056 
Q 959 750 1161 570 
Q 1363 391 1709 391 
Q 2188 391 2477 730 
Q 2766 1069 2766 1631 
L 2766 1759 
L 2194 1759 
z
M 3341 1997 
L 3341 0 
L 2766 0 
L 2766 531 
Q 2569 213 2275 61 
Q 1981 -91 1556 -91 
Q 1019 -91 701 211 
Q 384 513 384 1019 
Q 384 1609 779 1909 
Q 1175 2209 1959 2209 
L 2766 2209 
L 2766 2266 
Q 2766 2663 2505 2880 
Q 2244 3097 1772 3097 
Q 1472 3097 1187 3025 
Q 903 2953 641 2809 
L 641 3341 
Q 956 3463 1253 3523 
Q 1550 3584 1831 3584 
Q 2591 3584 2966 3190 
Q 3341 2797 3341 1997 
z
" transform="scale(0.015625)"/>
      </defs>
      <use xlink:href="#DejaVuSans-26"/>
      <use xlink:href="#DejaVuSans-4f" transform="translate(69.828125 0)"/>
      <use xlink:href="#DejaVuSans-48" transform="translate(97.609375 0)"/>
      <use xlink:href="#DejaVuSans-44" transform="translate(159.140625 0)"/>
      <use xlink:href="#DejaVuSans-51" transform="translate(220.421875 0)"/>
     </g>
    </g>
    <g id="line2d_33">
     <path d="M 61.483594 50.417344 
L 71.483594 50.417344 
L 81.483594 50.417344 
" style="fill: none; stroke: #ff7f0e; stroke-width: 0.9; stroke-linecap: square"/>
    </g>
    <g id="text_19">
     <!-- Noisy -->
     <g transform="translate(89.483594 53.917344) scale(0.1 -0.1)">
      <defs>
       <path id="DejaVuSans-31" d="M 628 4666 
L 1478 4666 
L 3547 763 
L 3547 4666 
L 4159 4666 
L 4159 0 
L 3309 0 
L 1241 3903 
L 1241 0 
L 628 0 
L 628 4666 
z
" transform="scale(0.015625)"/>
      </defs>
      <use xlink:href="#DejaVuSans-31"/>
      <use xlink:href="#DejaVuSans-52" transform="translate(74.8125 0)"/>
      <use xlink:href="#DejaVuSans-4c" transform="translate(136 0)"/>
      <use xlink:href="#DejaVuSans-56" transform="translate(163.78125 0)"/>
      <use xlink:href="#DejaVuSans-5c" transform="translate(215.875 0)"/>
     </g>
    </g>
    <g id="line2d_34">
     <path d="M 61.483594 65.418125 
L 71.483594 65.418125 
L 81.483594 65.418125 
" style="fill: none; stroke: #2ca02c; stroke-width: 0.9; stroke-linecap: square"/>
    </g>
    <g id="text_20">
     <!-- Recovered -->
     <g transform="translate(89.483594 68.918125) scale(0.1 -0.1)">
      <defs>
       <path id="DejaVuSans-35" d="M 2841 2188 
Q 3044 2119 3236 1894 
Q 3428 1669 3622 1275 
L 4263 0 
L 3584 0 
L 2988 1197 
Q 2756 1666 2539 1819 
Q 2322 1972 1947 1972 
L 1259 1972 
L 1259 0 
L 628 0 
L 628 4666 
L 2053 4666 
Q 2853 4666 3247 4331 
Q 3641 3997 3641 3322 
Q 3641 2881 3436 2590 
Q 3231 2300 2841 2188 
z
M 1259 4147 
L 1259 2491 
L 2053 2491 
Q 2509 2491 2742 2702 
Q 2975 2913 2975 3322 
Q 2975 3731 2742 3939 
Q 2509 4147 2053 4147 
L 1259 4147 
z
" transform="scale(0.015625)"/>
      </defs>
      <use xlink:href="#DejaVuSans-35"/>
      <use xlink:href="#DejaVuSans-48" transform="translate(65 0)"/>
      <use xlink:href="#DejaVuSans-46" transform="translate(126.53125 0)"/>
      <use xlink:href="#DejaVuSans-52" transform="translate(181.515625 0)"/>
      <use xlink:href="#DejaVuSans-59" transform="translate(242.703125 0)"/>
      <use xlink:href="#DejaVuSans-48" transform="translate(301.890625 0)"/>
      <use xlink:href="#DejaVuSans-55" transform="translate(363.421875 0)"/>
      <use xlink:href="#DejaVuSans-48" transform="translate(402.328125 0)"/>
      <use xlink:href="#DejaVuSans-47" transform="translate(463.859375 0)"/>
     </g>
    </g>
   </g>
  </g>
 </g>
 <defs>
  <clipPath id="p9628929ce4">
   <rect x="52.483594" y="22.318125" width="558" height="199.584"/>
  </clipPath>
 </defs>
</svg>
