<?xml version="1.0" encoding="utf-8" standalone="no"?>
<!DOCTYPE svg PUBLIC "-//W3C//DTD SVG 1.1//EN"
  "http://www.w3.org/Graphics/SVG/1.1/DTD/svg11.dtd">
<svg xmlns:xlink="http://www.w3.org/1999/xlink" width="617.683594pt" height="260.102906pt" viewBox="0 0 617.683594 260.102906" xmlns="http://www.w3.org/2000/svg" version="1.1">
 <metadata>
  <rdf:RDF xmlns:dc="http://purl.org/dc/elements/1.1/" xmlns:cc="http://creativecommons.org/ns#" xmlns:rdf="http://www.w3.org/1999/02/22-rdf-syntax-ns#">
   <cc:Work>
    <dc:type rdf:resource="http://purl.org/dc/dcmitype/StillImage"/>
    <dc:date>2026-07-14T07:01:51.757923</dc:date>
    <dc:format>image/svg+xml</dc:format>
    <dc:creator>
     <cc:Agent>
      <dc:title>Matplotlib v3.11.0, https://matplotlib.org/</dc:title>
     </cc:Agent>
    </dc:creator>
   </cc:Work>
  </rdf:RDF>
 </metadata>
 <defs>
  <style type="text/css">*{stroke-linejoin: round; stroke-linecap: butt}</style>
 </defs>
 <g id="figure_1">
  <g id="patch_1">
   <path d="M 0 260.102906 
L 617.683594 260.102906 
L 617.683594 0 
L 0 0 
z
" style="fill: #ffffff"/>
  </g>
  <g id="axes_1">
   <g id="patch_2">
    <path d="M 52.483594 221.902125 
L 610.483594 221.902125 
L 610.483594 22.318125 
L 52.483594 22.318125 
z
" style="fill: #ffffff"/>
   </g>
   <g id="matplotlib.axis_1">
    <g id="xtick_1">
     <g id="line2d_1">
      <path d="M 84.796172 221.902125 
L 84.796172 22.318125 
" clip-path="url(#p39bd858f8a)" style="fill: none; stroke: #b0b0b0; stroke-opacity: 0.25; stroke-width: 0.8; stroke-linecap: square"/>
     </g>
     <g id="line2d_2">
      <defs>
       <path id="ma2a59d56d1" d="M 0 0 
L 0 3.5 
" style="stroke: #000000; stroke-width: 0.8"/>
      </defs>
      <g>
       <use xlink:href="#ma2a59d56d1" x="84.796172" y="221.902125" style="stroke: #000000; stroke-width: 0.8"/>
      </g>
     </g>
     <g id="text_1">
      <!-- 0.1 -->
      <g transform="translate(76.844609 236.499781) scale(0.1 -0.1)">
       <defs>
        <path id="DejaVuSans-13" d="M 2034 4250 
Q 1547 4250 1301 3770 
Q 1056 3291 1056 2328 
Q 1056 1369 1301 889 
Q 1547 409 2034 409 
Q 2525 409 2770 889 
Q 3016 1369 3016 2328 
Q 3016 3291 2770 3770 
Q 2525 4250 2034 4250 
z
M 2034 4750 
Q 2819 4750 3233 4129 
Q 3647 3509 3647 2328 
Q 3647 1150 3233 529 
Q 2819 -91 2034 -91 
Q 1250 -91 836 529 
Q 422 1150 422 2328 
Q 422 3509 836 4129 
Q 1250 4750 2034 4750 
z
" transform="scale(0.015625)"/>
        <path id="DejaVuSans-11" d="M 684 794 
L 1344 794 
L 1344 0 
L 684 0 
L 684 794 
z
" transform="scale(0.015625)"/>
        <path id="DejaVuSans-14" d="M 794 531 
L 1825 531 
L 1825 4091 
L 703 3866 
L 703 4441 
L 1819 4666 
L 2450 4666 
L 2450 531 
L 3481 531 
L 3481 0 
L 794 0 
L 794 531 
z
" transform="scale(0.015625)"/>
       </defs>
       <use xlink:href="#DejaVuSans-13"/>
       <use xlink:href="#DejaVuSans-11" transform="translate(63.625 0)"/>
       <use xlink:href="#DejaVuSans-14" transform="translate(95.40625 0)"/>
      </g>
     </g>
    </g>
    <g id="xtick_2">
     <g id="line2d_3">
      <path d="M 184.066764 221.902125 
L 184.066764 22.318125 
" clip-path="url(#p39bd858f8a)" style="fill: none; stroke: #b0b0b0; stroke-opacity: 0.25; stroke-width: 0.8; stroke-linecap: square"/>
     </g>
     <g id="line2d_4">
      <g>
       <use xlink:href="#ma2a59d56d1" x="184.066764" y="221.902125" style="stroke: #000000; stroke-width: 0.8"/>
      </g>
     </g>
     <g id="text_2">
      <!-- 0.2 -->
      <g transform="translate(176.115202 236.499781) scale(0.1 -0.1)">
       <defs>
        <path id="DejaVuSans-15" d="M 1228 531 
L 3431 531 
L 3431 0 
L 469 0 
L 469 531 
Q 828 903 1448 1529 
Q 2069 2156 2228 2338 
Q 2531 2678 2651 2914 
Q 2772 3150 2772 3378 
Q 2772 3750 2511 3984 
Q 2250 4219 1831 4219 
Q 1534 4219 1204 4116 
Q 875 4013 500 3803 
L 500 4441 
Q 881 4594 1212 4672 
Q 1544 4750 1819 4750 
Q 2544 4750 2975 4387 
Q 3406 4025 3406 3419 
Q 3406 3131 3298 2873 
Q 3191 2616 2906 2266 
Q 2828 2175 2409 1742 
Q 1991 1309 1228 531 
z
" transform="scale(0.015625)"/>
       </defs>
       <use xlink:href="#DejaVuSans-13"/>
       <use xlink:href="#DejaVuSans-11" transform="translate(63.625 0)"/>
       <use xlink:href="#DejaVuSans-15" transform="translate(95.40625 0)"/>
      </g>
     </g>
    </g>
    <g id="xtick_3">
     <g id="line2d_5">
      <path d="M 283.337356 221.902125 
L 283.337356 22.318125 
" clip-path="url(#p39bd858f8a)" style="fill: none; stroke: #b0b0b0; stroke-opacity: 0.25; stroke-width: 0.8; stroke-linecap: square"/>
     </g>
     <g id="line2d_6">
      <g>
       <use xlink:href="#ma2a59d56d1" x="283.337356" y="221.902125" style="stroke: #000000; stroke-width: 0.8"/>
      </g>
     </g>
     <g id="text_3">
      <!-- 0.3 -->
      <g transform="translate(275.385794 236.499781) scale(0.1 -0.1)">
       <defs>
        <path id="DejaVuSans-16" d="M 2597 2516 
Q 3050 2419 3304 2112 
Q 3559 1806 3559 1356 
Q 3559 666 3084 287 
Q 2609 -91 1734 -91 
Q 1441 -91 1130 -33 
Q 819 25 488 141 
L 488 750 
Q 750 597 1062 519 
Q 1375 441 1716 441 
Q 2309 441 2620 675 
Q 2931 909 2931 1356 
Q 2931 1769 2642 2001 
Q 2353 2234 1838 2234 
L 1294 2234 
L 1294 2753 
L 1863 2753 
Q 2328 2753 2575 2939 
Q 2822 3125 2822 3475 
Q 2822 3834 2567 4026 
Q 2313 4219 1838 4219 
Q 1578 4219 1281 4162 
Q 984 4106 628 3988 
L 628 4550 
Q 988 4650 1302 4700 
Q 1616 4750 1894 4750 
Q 2613 4750 3031 4423 
Q 3450 4097 3450 3541 
Q 3450 3153 3228 2886 
Q 3006 2619 2597 2516 
z
" transform="scale(0.015625)"/>
       </defs>
       <use xlink:href="#DejaVuSans-13"/>
       <use xlink:href="#DejaVuSans-11" transform="translate(63.625 0)"/>
       <use xlink:href="#DejaVuSans-16" transform="translate(95.40625 0)"/>
      </g>
     </g>
    </g>
    <g id="xtick_4">
     <g id="line2d_7">
      <path d="M 382.607949 221.902125 
L 382.607949 22.318125 
" clip-path="url(#p39bd858f8a)" style="fill: none; stroke: #b0b0b0; stroke-opacity: 0.25; stroke-width: 0.8; stroke-linecap: square"/>
     </g>
     <g id="line2d_8">
      <g>
       <use xlink:href="#ma2a59d56d1" x="382.607949" y="221.902125" style="stroke: #000000; stroke-width: 0.8"/>
      </g>
     </g>
     <g id="text_4">
      <!-- 0.4 -->
      <g transform="translate(374.656386 236.499781) scale(0.1 -0.1)">
       <defs>
        <path id="DejaVuSans-17" d="M 2419 4116 
L 825 1625 
L 2419 1625 
L 2419 4116 
z
M 2253 4666 
L 3047 4666 
L 3047 1625 
L 3713 1625 
L 3713 1100 
L 3047 1100 
L 3047 0 
L 2419 0 
L 2419 1100 
L 313 1100 
L 313 1709 
L 2253 4666 
z
" transform="scale(0.015625)"/>
       </defs>
       <use xlink:href="#DejaVuSans-13"/>
       <use xlink:href="#DejaVuSans-11" transform="translate(63.625 0)"/>
       <use xlink:href="#DejaVuSans-17" transform="translate(95.40625 0)"/>
      </g>
     </g>
    </g>
    <g id="xtick_5">
     <g id="line2d_9">
      <path d="M 481.878541 221.902125 
L 481.878541 22.318125 
" clip-path="url(#p39bd858f8a)" style="fill: none; stroke: #b0b0b0; stroke-opacity: 0.25; stroke-width: 0.8; stroke-linecap: square"/>
     </g>
     <g id="line2d_10">
      <g>
       <use xlink:href="#ma2a59d56d1" x="481.878541" y="221.902125" style="stroke: #000000; stroke-width: 0.8"/>
      </g>
     </g>
     <g id="text_5">
      <!-- 0.5 -->
      <g transform="translate(473.926979 236.499781) scale(0.1 -0.1)">
       <defs>
        <path id="DejaVuSans-18" d="M 691 4666 
L 3169 4666 
L 3169 4134 
L 1269 4134 
L 1269 2991 
Q 1406 3038 1543 3061 
Q 1681 3084 1819 3084 
Q 2600 3084 3056 2656 
Q 3513 2228 3513 1497 
Q 3513 744 3044 326 
Q 2575 -91 1722 -91 
Q 1428 -91 1123 -41 
Q 819 9 494 109 
L 494 744 
Q 775 591 1075 516 
Q 1375 441 1709 441 
Q 2250 441 2565 725 
Q 2881 1009 2881 1497 
Q 2881 1984 2565 2268 
Q 2250 2553 1709 2553 
Q 1456 2553 1204 2497 
Q 953 2441 691 2322 
L 691 4666 
z
" transform="scale(0.015625)"/>
       </defs>
       <use xlink:href="#DejaVuSans-13"/>
       <use xlink:href="#DejaVuSans-11" transform="translate(63.625 0)"/>
       <use xlink:href="#DejaVuSans-18" transform="translate(95.40625 0)"/>
      </g>
     </g>
    </g>
    <g id="xtick_6">
     <g id="line2d_11">
      <path d="M 581.149134 221.902125 
L 581.149134 22.318125 
" clip-path="url(#p39bd858f8a)" style="fill: none; stroke: #b0b0b0; stroke-opacity: 0.25; stroke-width: 0.8; stroke-linecap: square"/>
     </g>
     <g id="line2d_12">
      <g>
       <use xlink:href="#ma2a59d56d1" x="581.149134" y="221.902125" style="stroke: #000000; stroke-width: 0.8"/>
      </g>
     </g>
     <g id="text_6">
      <!-- 0.6 -->
      <g transform="translate(573.197571 236.499781) scale(0.1 -0.1)">
       <defs>
        <path id="DejaVuSans-19" d="M 2113 2584 
Q 1688 2584 1439 2293 
Q 1191 2003 1191 1497 
Q 1191 994 1439 701 
Q 1688 409 2113 409 
Q 2538 409 2786 701 
Q 3034 994 3034 1497 
Q 3034 2003 2786 2293 
Q 2538 2584 2113 2584 
z
M 3366 4563 
L 3366 3988 
Q 3128 4100 2886 4159 
Q 2644 4219 2406 4219 
Q 1781 4219 1451 3797 
Q 1122 3375 1075 2522 
Q 1259 2794 1537 2939 
Q 1816 3084 2150 3084 
Q 2853 3084 3261 2657 
Q 3669 2231 3669 1497 
Q 3669 778 3244 343 
Q 2819 -91 2113 -91 
Q 1303 -91 875 529 
Q 447 1150 447 2328 
Q 447 3434 972 4092 
Q 1497 4750 2381 4750 
Q 2619 4750 2861 4703 
Q 3103 4656 3366 4563 
z
" transform="scale(0.015625)"/>
       </defs>
       <use xlink:href="#DejaVuSans-13"/>
       <use xlink:href="#DejaVuSans-11" transform="translate(63.625 0)"/>
       <use xlink:href="#DejaVuSans-19" transform="translate(95.40625 0)"/>
      </g>
     </g>
    </g>
    <g id="text_7">
     <!-- Time (s) -->
     <g transform="translate(311.152344 250.500563) scale(0.1 -0.1)">
      <defs>
       <path id="DejaVuSans-37" d="M -19 4666 
L 3928 4666 
L 3928 4134 
L 2272 4134 
L 2272 0 
L 1638 0 
L 1638 4134 
L -19 4134 
L -19 4666 
z
" transform="scale(0.015625)"/>
       <path id="DejaVuSans-4c" d="M 603 3500 
L 1178 3500 
L 1178 0 
L 603 0 
L 603 3500 
z
M 603 4863 
L 1178 4863 
L 1178 4134 
L 603 4134 
L 603 4863 
z
" transform="scale(0.015625)"/>
       <path id="DejaVuSans-50" d="M 3328 2828 
Q 3544 3216 3844 3400 
Q 4144 3584 4550 3584 
Q 5097 3584 5394 3201 
Q 5691 2819 5691 2113 
L 5691 0 
L 5113 0 
L 5113 2094 
Q 5113 2597 4934 2840 
Q 4756 3084 4391 3084 
Q 3944 3084 3684 2787 
Q 3425 2491 3425 1978 
L 3425 0 
L 2847 0 
L 2847 2094 
Q 2847 2600 2669 2842 
Q 2491 3084 2119 3084 
Q 1678 3084 1418 2786 
Q 1159 2488 1159 1978 
L 1159 0 
L 581 0 
L 581 3500 
L 1159 3500 
L 1159 2956 
Q 1356 3278 1631 3431 
Q 1906 3584 2284 3584 
Q 2666 3584 2933 3390 
Q 3200 3197 3328 2828 
z
" transform="scale(0.015625)"/>
       <path id="DejaVuSans-48" d="M 3597 1894 
L 3597 1613 
L 953 1613 
Q 991 1019 1311 708 
Q 1631 397 2203 397 
Q 2534 397 2845 478 
Q 3156 559 3463 722 
L 3463 178 
Q 3153 47 2828 -22 
Q 2503 -91 2169 -91 
Q 1331 -91 842 396 
Q 353 884 353 1716 
Q 353 2575 817 3079 
Q 1281 3584 2069 3584 
Q 2775 3584 3186 3129 
Q 3597 2675 3597 1894 
z
M 3022 2063 
Q 3016 2534 2758 2815 
Q 2500 3097 2075 3097 
Q 1594 3097 1305 2825 
Q 1016 2553 972 2059 
L 3022 2063 
z
" transform="scale(0.015625)"/>
       <path id="DejaVuSans-3" transform="scale(0.015625)"/>
       <path id="DejaVuSans-b" d="M 1984 4856 
Q 1566 4138 1362 3434 
Q 1159 2731 1159 2009 
Q 1159 1288 1364 580 
Q 1569 -128 1984 -844 
L 1484 -844 
Q 1016 -109 783 600 
Q 550 1309 550 2009 
Q 550 2706 781 3412 
Q 1013 4119 1484 4856 
L 1984 4856 
z
" transform="scale(0.015625)"/>
       <path id="DejaVuSans-56" d="M 2834 3397 
L 2834 2853 
Q 2591 2978 2328 3040 
Q 2066 3103 1784 3103 
Q 1356 3103 1142 2972 
Q 928 2841 928 2578 
Q 928 2378 1081 2264 
Q 1234 2150 1697 2047 
L 1894 2003 
Q 2506 1872 2764 1633 
Q 3022 1394 3022 966 
Q 3022 478 2636 193 
Q 2250 -91 1575 -91 
Q 1294 -91 989 -36 
Q 684 19 347 128 
L 347 722 
Q 666 556 975 473 
Q 1284 391 1588 391 
Q 1994 391 2212 530 
Q 2431 669 2431 922 
Q 2431 1156 2273 1281 
Q 2116 1406 1581 1522 
L 1381 1569 
Q 847 1681 609 1914 
Q 372 2147 372 2553 
Q 372 3047 722 3315 
Q 1072 3584 1716 3584 
Q 2034 3584 2315 3537 
Q 2597 3491 2834 3397 
z
" transform="scale(0.015625)"/>
       <path id="DejaVuSans-c" d="M 513 4856 
L 1013 4856 
Q 1481 4119 1714 3412 
Q 1947 2706 1947 2009 
Q 1947 1309 1714 600 
Q 1481 -109 1013 -844 
L 513 -844 
Q 928 -128 1133 580 
Q 1338 1288 1338 2009 
Q 1338 2731 1133 3434 
Q 928 4138 513 4856 
z
" transform="scale(0.015625)"/>
      </defs>
      <use xlink:href="#DejaVuSans-37"/>
      <use xlink:href="#DejaVuSans-4c" transform="translate(58 0)"/>
      <use xlink:href="#DejaVuSans-50" transform="translate(85.78125 0)"/>
      <use xlink:href="#DejaVuSans-48" transform="translate(183.1875 0)"/>
      <use xlink:href="#DejaVuSans-3" transform="translate(244.71875 0)"/>
      <use xlink:href="#DejaVuSans-b" transform="translate(276.5 0)"/>
      <use xlink:href="#DejaVuSans-56" transform="translate(315.515625 0)"/>
      <use xlink:href="#DejaVuSans-c" transform="translate(367.609375 0)"/>
     </g>
    </g>
   </g>
   <g id="matplotlib.axis_2">
    <g id="ytick_1">
     <g id="line2d_13">
      <path d="M 52.483594 209.871231 
L 610.483594 209.871231 
" clip-path="url(#p39bd858f8a)" style="fill: none; stroke: #b0b0b0; stroke-opacity: 0.25; stroke-width: 0.8; stroke-linecap: square"/>
     </g>
     <g id="line2d_14">
      <defs>
       <path id="md4df580a26" d="M 0 0 
L -3.5 0 
" style="stroke: #000000; stroke-width: 0.8"/>
      </defs>
      <g>
       <use xlink:href="#md4df580a26" x="52.483594" y="209.871231" style="stroke: #000000; stroke-width: 0.8"/>
      </g>
     </g>
     <g id="text_8">
      <!-- −0.6 -->
      <g transform="translate(21.200781 213.670059) scale(0.1 -0.1)">
       <defs>
        <path id="DejaVuSans-c9c" d="M 678 2272 
L 4684 2272 
L 4684 1741 
L 678 1741 
L 678 2272 
z
" transform="scale(0.015625)"/>
       </defs>
       <use xlink:href="#DejaVuSans-c9c"/>
       <use xlink:href="#DejaVuSans-13" transform="translate(83.796875 0)"/>
       <use xlink:href="#DejaVuSans-11" transform="translate(147.421875 0)"/>
       <use xlink:href="#DejaVuSans-19" transform="translate(179.203125 0)"/>
      </g>
     </g>
    </g>
    <g id="ytick_2">
     <g id="line2d_15">
      <path d="M 52.483594 180.527316 
L 610.483594 180.527316 
" clip-path="url(#p39bd858f8a)" style="fill: none; stroke: #b0b0b0; stroke-opacity: 0.25; stroke-width: 0.8; stroke-linecap: square"/>
     </g>
     <g id="line2d_16">
      <g>
       <use xlink:href="#md4df580a26" x="52.483594" y="180.527316" style="stroke: #000000; stroke-width: 0.8"/>
      </g>
     </g>
     <g id="text_9">
      <!-- −0.4 -->
      <g transform="translate(21.200781 184.326144) scale(0.1 -0.1)">
       <use xlink:href="#DejaVuSans-c9c"/>
       <use xlink:href="#DejaVuSans-13" transform="translate(83.796875 0)"/>
       <use xlink:href="#DejaVuSans-11" transform="translate(147.421875 0)"/>
       <use xlink:href="#DejaVuSans-17" transform="translate(179.203125 0)"/>
      </g>
     </g>
    </g>
    <g id="ytick_3">
     <g id="line2d_17">
      <path d="M 52.483594 151.1834 
L 610.483594 151.1834 
" clip-path="url(#p39bd858f8a)" style="fill: none; stroke: #b0b0b0; stroke-opacity: 0.25; stroke-width: 0.8; stroke-linecap: square"/>
     </g>
     <g id="line2d_18">
      <g>
       <use xlink:href="#md4df580a26" x="52.483594" y="151.1834" style="stroke: #000000; stroke-width: 0.8"/>
      </g>
     </g>
     <g id="text_10">
      <!-- −0.2 -->
      <g transform="translate(21.200781 154.982228) scale(0.1 -0.1)">
       <use xlink:href="#DejaVuSans-c9c"/>
       <use xlink:href="#DejaVuSans-13" transform="translate(83.796875 0)"/>
       <use xlink:href="#DejaVuSans-11" transform="translate(147.421875 0)"/>
       <use xlink:href="#DejaVuSans-15" transform="translate(179.203125 0)"/>
      </g>
     </g>
    </g>
    <g id="ytick_4">
     <g id="line2d_19">
      <path d="M 52.483594 121.839485 
L 610.483594 121.839485 
" clip-path="url(#p39bd858f8a)" style="fill: none; stroke: #b0b0b0; stroke-opacity: 0.25; stroke-width: 0.8; stroke-linecap: square"/>
     </g>
     <g id="line2d_20">
      <g>
       <use xlink:href="#md4df580a26" x="52.483594" y="121.839485" style="stroke: #000000; stroke-width: 0.8"/>
      </g>
     </g>
     <g id="text_11">
      <!-- 0.0 -->
      <g transform="translate(29.580469 125.638313) scale(0.1 -0.1)">
       <use xlink:href="#DejaVuSans-13"/>
       <use xlink:href="#DejaVuSans-11" transform="translate(63.625 0)"/>
       <use xlink:href="#DejaVuSans-13" transform="translate(95.40625 0)"/>
      </g>
     </g>
    </g>
    <g id="ytick_5">
     <g id="line2d_21">
      <path d="M 52.483594 92.495569 
L 610.483594 92.495569 
" clip-path="url(#p39bd858f8a)" style="fill: none; stroke: #b0b0b0; stroke-opacity: 0.25; stroke-width: 0.8; stroke-linecap: square"/>
     </g>
     <g id="line2d_22">
      <g>
       <use xlink:href="#md4df580a26" x="52.483594" y="92.495569" style="stroke: #000000; stroke-width: 0.8"/>
      </g>
     </g>
     <g id="text_12">
      <!-- 0.2 -->
      <g transform="translate(29.580469 96.294397) scale(0.1 -0.1)">
       <use xlink:href="#DejaVuSans-13"/>
       <use xlink:href="#DejaVuSans-11" transform="translate(63.625 0)"/>
       <use xlink:href="#DejaVuSans-15" transform="translate(95.40625 0)"/>
      </g>
     </g>
    </g>
    <g id="ytick_6">
     <g id="line2d_23">
      <path d="M 52.483594 63.151654 
L 610.483594 63.151654 
" clip-path="url(#p39bd858f8a)" style="fill: none; stroke: #b0b0b0; stroke-opacity: 0.25; stroke-width: 0.8; stroke-linecap: square"/>
     </g>
     <g id="line2d_24">
      <g>
       <use xlink:href="#md4df580a26" x="52.483594" y="63.151654" style="stroke: #000000; stroke-width: 0.8"/>
      </g>
     </g>
     <g id="text_13">
      <!-- 0.4 -->
      <g transform="translate(29.580469 66.950482) scale(0.1 -0.1)">
       <use xlink:href="#DejaVuSans-13"/>
       <use xlink:href="#DejaVuSans-11" transform="translate(63.625 0)"/>
       <use xlink:href="#DejaVuSans-17" transform="translate(95.40625 0)"/>
      </g>
     </g>
    </g>
    <g id="ytick_7">
     <g id="line2d_25">
      <path d="M 52.483594 33.807738 
L 610.483594 33.807738 
" clip-path="url(#p39bd858f8a)" style="fill: none; stroke: #b0b0b0; stroke-opacity: 0.25; stroke-width: 0.8; stroke-linecap: square"/>
     </g>
     <g id="line2d_26">
      <g>
       <use xlink:href="#md4df580a26" x="52.483594" y="33.807738" style="stroke: #000000; stroke-width: 0.8"/>
      </g>
     </g>
     <g id="text_14">
      <!-- 0.6 -->
      <g transform="translate(29.580469 37.606566) scale(0.1 -0.1)">
       <use xlink:href="#DejaVuSans-13"/>
       <use xlink:href="#DejaVuSans-11" transform="translate(63.625 0)"/>
       <use xlink:href="#DejaVuSans-19" transform="translate(95.40625 0)"/>
      </g>
     </g>
    </g>
    <g id="text_15">
     <!-- Amplitude (physical unit) -->
     <g transform="translate(14.798438 184.997625) rotate(-90) scale(0.1 -0.1)">
      <defs>
       <path id="DejaVuSans-24" d="M 2188 4044 
L 1331 1722 
L 3047 1722 
L 2188 4044 
z
M 1831 4666 
L 2547 4666 
L 4325 0 
L 3669 0 
L 3244 1197 
L 1141 1197 
L 716 0 
L 50 0 
L 1831 4666 
z
" transform="scale(0.015625)"/>
       <path id="DejaVuSans-53" d="M 1159 525 
L 1159 -1331 
L 581 -1331 
L 581 3500 
L 1159 3500 
L 1159 2969 
Q 1341 3281 1617 3432 
Q 1894 3584 2278 3584 
Q 2916 3584 3314 3078 
Q 3713 2572 3713 1747 
Q 3713 922 3314 415 
Q 2916 -91 2278 -91 
Q 1894 -91 1617 61 
Q 1341 213 1159 525 
z
M 3116 1747 
Q 3116 2381 2855 2742 
Q 2594 3103 2138 3103 
Q 1681 3103 1420 2742 
Q 1159 2381 1159 1747 
Q 1159 1113 1420 752 
Q 1681 391 2138 391 
Q 2594 391 2855 752 
Q 3116 1113 3116 1747 
z
" transform="scale(0.015625)"/>
       <path id="DejaVuSans-4f" d="M 603 4863 
L 1178 4863 
L 1178 0 
L 603 0 
L 603 4863 
z
" transform="scale(0.015625)"/>
       <path id="DejaVuSans-57" d="M 1172 4494 
L 1172 3500 
L 2356 3500 
L 2356 3053 
L 1172 3053 
L 1172 1153 
Q 1172 725 1289 603 
Q 1406 481 1766 481 
L 2356 481 
L 2356 0 
L 1766 0 
Q 1100 0 847 248 
Q 594 497 594 1153 
L 594 3053 
L 172 3053 
L 172 3500 
L 594 3500 
L 594 4494 
L 1172 4494 
z
" transform="scale(0.015625)"/>
       <path id="DejaVuSans-58" d="M 544 1381 
L 544 3500 
L 1119 3500 
L 1119 1403 
Q 1119 906 1312 657 
Q 1506 409 1894 409 
Q 2359 409 2629 706 
Q 2900 1003 2900 1516 
L 2900 3500 
L 3475 3500 
L 3475 0 
L 2900 0 
L 2900 538 
Q 2691 219 2414 64 
Q 2138 -91 1772 -91 
Q 1169 -91 856 284 
Q 544 659 544 1381 
z
M 1991 3584 
L 1991 3584 
z
" transform="scale(0.015625)"/>
       <path id="DejaVuSans-47" d="M 2906 2969 
L 2906 4863 
L 3481 4863 
L 3481 0 
L 2906 0 
L 2906 525 
Q 2725 213 2448 61 
Q 2172 -91 1784 -91 
Q 1150 -91 751 415 
Q 353 922 353 1747 
Q 353 2572 751 3078 
Q 1150 3584 1784 3584 
Q 2172 3584 2448 3432 
Q 2725 3281 2906 2969 
z
M 947 1747 
Q 947 1113 1208 752 
Q 1469 391 1925 391 
Q 2381 391 2643 752 
Q 2906 1113 2906 1747 
Q 2906 2381 2643 2742 
Q 2381 3103 1925 3103 
Q 1469 3103 1208 2742 
Q 947 2381 947 1747 
z
" transform="scale(0.015625)"/>
       <path id="DejaVuSans-4b" d="M 3513 2113 
L 3513 0 
L 2938 0 
L 2938 2094 
Q 2938 2591 2744 2837 
Q 2550 3084 2163 3084 
Q 1697 3084 1428 2787 
Q 1159 2491 1159 1978 
L 1159 0 
L 581 0 
L 581 4863 
L 1159 4863 
L 1159 2956 
Q 1366 3272 1645 3428 
Q 1925 3584 2291 3584 
Q 2894 3584 3203 3211 
Q 3513 2838 3513 2113 
z
" transform="scale(0.015625)"/>
       <path id="DejaVuSans-5c" d="M 2059 -325 
Q 1816 -950 1584 -1140 
Q 1353 -1331 966 -1331 
L 506 -1331 
L 506 -850 
L 844 -850 
Q 1081 -850 1212 -737 
Q 1344 -625 1503 -206 
L 1606 56 
L 191 3500 
L 800 3500 
L 1894 763 
L 2988 3500 
L 3597 3500 
L 2059 -325 
z
" transform="scale(0.015625)"/>
       <path id="DejaVuSans-46" d="M 3122 3366 
L 3122 2828 
Q 2878 2963 2633 3030 
Q 2388 3097 2138 3097 
Q 1578 3097 1268 2742 
Q 959 2388 959 1747 
Q 959 1106 1268 751 
Q 1578 397 2138 397 
Q 2388 397 2633 464 
Q 2878 531 3122 666 
L 3122 134 
Q 2881 22 2623 -34 
Q 2366 -91 2075 -91 
Q 1284 -91 818 406 
Q 353 903 353 1747 
Q 353 2603 823 3093 
Q 1294 3584 2113 3584 
Q 2378 3584 2631 3529 
Q 2884 3475 3122 3366 
z
" transform="scale(0.015625)"/>
       <path id="DejaVuSans-44" d="M 2194 1759 
Q 1497 1759 1228 1600 
Q 959 1441 959 1056 
Q 959 750 1161 570 
Q 1363 391 1709 391 
Q 2188 391 2477 730 
Q 2766 1069 2766 1631 
L 2766 1759 
L 2194 1759 
z
M 3341 1997 
L 3341 0 
L 2766 0 
L 2766 531 
Q 2569 213 2275 61 
Q 1981 -91 1556 -91 
Q 1019 -91 701 211 
Q 384 513 384 1019 
Q 384 1609 779 1909 
Q 1175 2209 1959 2209 
L 2766 2209 
L 2766 2266 
Q 2766 2663 2505 2880 
Q 2244 3097 1772 3097 
Q 1472 3097 1187 3025 
Q 903 2953 641 2809 
L 641 3341 
Q 956 3463 1253 3523 
Q 1550 3584 1831 3584 
Q 2591 3584 2966 3190 
Q 3341 2797 3341 1997 
z
" transform="scale(0.015625)"/>
       <path id="DejaVuSans-51" d="M 3513 2113 
L 3513 0 
L 2938 0 
L 2938 2094 
Q 2938 2591 2744 2837 
Q 2550 3084 2163 3084 
Q 1697 3084 1428 2787 
Q 1159 2491 1159 1978 
L 1159 0 
L 581 0 
L 581 3500 
L 1159 3500 
L 1159 2956 
Q 1366 3272 1645 3428 
Q 1925 3584 2291 3584 
Q 2894 3584 3203 3211 
Q 3513 2838 3513 2113 
z
" transform="scale(0.015625)"/>
      </defs>
      <use xlink:href="#DejaVuSans-24"/>
      <use xlink:href="#DejaVuSans-50" transform="translate(68.40625 0)"/>
      <use xlink:href="#DejaVuSans-53" transform="translate(165.8125 0)"/>
      <use xlink:href="#DejaVuSans-4f" transform="translate(229.296875 0)"/>
      <use xlink:href="#DejaVuSans-4c" transform="translate(257.078125 0)"/>
      <use xlink:href="#DejaVuSans-57" transform="translate(284.859375 0)"/>
      <use xlink:href="#DejaVuSans-58" transform="translate(324.0625 0)"/>
      <use xlink:href="#DejaVuSans-47" transform="translate(387.4375 0)"/>
      <use xlink:href="#DejaVuSans-48" transform="translate(450.921875 0)"/>
      <use xlink:href="#DejaVuSans-3" transform="translate(512.453125 0)"/>
      <use xlink:href="#DejaVuSans-b" transform="translate(544.234375 0)"/>
      <use xlink:href="#DejaVuSans-53" transform="translate(583.25 0)"/>
      <use xlink:href="#DejaVuSans-4b" transform="translate(646.734375 0)"/>
      <use xlink:href="#DejaVuSans-5c" transform="translate(710.109375 0)"/>
      <use xlink:href="#DejaVuSans-56" transform="translate(769.296875 0)"/>
      <use xlink:href="#DejaVuSans-4c" transform="translate(821.390625 0)"/>
      <use xlink:href="#DejaVuSans-46" transform="translate(849.171875 0)"/>
      <use xlink:href="#DejaVuSans-44" transform="translate(904.15625 0)"/>
      <use xlink:href="#DejaVuSans-4f" transform="translate(965.4375 0)"/>
      <use xlink:href="#DejaVuSans-3" transform="translate(993.21875 0)"/>
      <use xlink:href="#DejaVuSans-58" transform="translate(1025 0)"/>
      <use xlink:href="#DejaVuSans-51" transform="translate(1088.375 0)"/>
      <use xlink:href="#DejaVuSans-4c" transform="translate(1151.75 0)"/>
      <use xlink:href="#DejaVuSans-57" transform="translate(1179.53125 0)"/>
      <use xlink:href="#DejaVuSans-c" transform="translate(1218.734375 0)"/>
     </g>
    </g>
   </g>
   <g id="line2d_27">
    <path d="M 77.84723 154.262596 
L 78.839936 99.640448 
L 79.832642 82.788688 
L 80.825348 171.801292 
L 81.818054 102.819125 
L 82.81076 110.9303 
L 83.803466 172.340486 
L 84.796172 100.384115 
L 85.788878 72.334122 
L 86.781583 170.007217 
L 87.774289 130.107417 
L 88.766995 39.913873 
L 89.759701 161.541695 
L 90.752407 166.909974 
L 91.745113 43.667372 
L 92.737819 122.168402 
L 93.730525 190.248917 
L 94.723231 85.65684 
L 95.715937 123.925242 
L 96.708643 189.724115 
L 97.701349 70.173731 
L 98.694055 100.825965 
L 99.68676 202.652312 
L 100.679466 58.85628 
L 101.672172 86.98136 
L 102.664878 179.825298 
L 103.657584 79.846222 
L 104.65029 82.98241 
L 105.642996 187.274011 
L 106.635702 115.587496 
L 107.628408 66.09077 
L 108.621114 201.023784 
L 109.61382 123.593981 
L 110.606526 71.188511 
L 111.599232 168.725541 
L 112.591937 157.677704 
L 113.584643 43.442411 
L 114.577349 144.758708 
L 115.570055 149.983763 
L 116.562761 43.378717 
L 117.555467 162.365887 
L 118.548173 144.707122 
L 119.540879 64.326872 
L 121.526291 182.037145 
L 122.518997 71.9786 
L 123.511703 140.691557 
L 124.504409 196.477566 
L 125.497114 86.581564 
L 126.48982 80.861553 
L 127.482526 202.343989 
L 128.475232 69.96776 
L 129.467938 62.015382 
L 130.460644 200.830218 
L 131.45335 83.152686 
L 132.446056 56.816888 
L 133.438762 174.982935 
L 134.431468 148.433024 
L 135.424174 45.585187 
L 136.41688 191.756798 
L 137.409586 165.048248 
L 138.402291 55.506551 
L 139.394997 161.05378 
L 140.387703 163.472271 
L 141.380409 31.390125 
L 142.373115 149.682909 
L 143.365821 165.938659 
L 144.358527 48.497727 
L 145.351233 117.696373 
L 146.343939 166.607169 
L 147.336645 71.743322 
L 148.329351 123.858497 
L 149.322057 196.849438 
L 150.314763 73.886669 
L 151.307469 102.87772 
L 152.300174 204.342968 
L 153.29288 70.07188 
L 154.285586 99.120581 
L 155.278292 179.485942 
L 156.270998 121.371607 
L 157.263704 56.275902 
L 158.25641 156.481587 
L 159.249116 125.341957 
L 160.241822 69.768473 
L 161.234528 171.433903 
L 162.227234 124.971455 
L 163.21994 58.046801 
L 164.212646 153.515093 
L 165.205351 187.285977 
L 166.198057 41.662555 
L 167.190763 177.737973 
L 168.183469 157.330948 
L 169.176175 83.732398 
L 170.168881 104.779566 
L 171.161587 169.888176 
L 172.154293 55.605269 
L 173.146999 107.397336 
L 174.139705 177.921647 
L 175.132411 59.588705 
L 176.125117 108.011477 
L 177.117823 207.607917 
L 178.110528 83.543717 
L 179.103234 86.106114 
L 180.09594 209.974912 
L 181.088646 92.112909 
L 182.081352 82.864851 
L 183.074058 178.944018 
L 184.066764 127.904348 
L 185.05947 58.725108 
L 186.052176 147.960769 
L 187.044882 146.626368 
L 188.037588 59.348831 
L 189.030294 131.528324 
L 190.023 154.6639 
L 191.015705 67.285586 
L 192.008411 156.357522 
L 193.001117 173.958537 
L 193.993823 75.522891 
L 194.986529 116.909352 
L 195.979235 188.821132 
L 196.971941 58.403437 
L 197.964647 121.167739 
L 198.957353 193.110595 
L 199.950059 58.783273 
L 200.942765 82.681104 
L 201.935471 195.766435 
L 202.928177 70.814983 
L 203.920882 69.183658 
L 204.913588 186.157482 
L 205.906294 126.111534 
L 206.899 75.86972 
L 207.891706 187.788434 
L 208.884412 117.849917 
L 209.877118 71.820233 
L 210.869824 176.635771 
L 211.86253 154.644208 
L 212.855236 70.038344 
L 213.847942 120.704984 
L 214.840648 146.517605 
L 215.833354 69.109239 
L 216.82606 135.522303 
L 217.818765 145.9688 
L 218.811471 75.388731 
L 219.804177 135.949814 
L 220.796883 162.084051 
L 221.789589 80.130822 
L 222.782295 138.939785 
L 223.775001 184.272744 
L 224.767707 71.895306 
L 225.760413 106.599363 
L 226.753119 163.438407 
L 227.745825 97.660964 
L 228.738531 88.51185 
L 229.731237 146.446495 
L 230.723942 136.169171 
L 231.716648 67.013341 
L 232.709354 173.873041 
L 234.694766 67.021114 
L 235.687472 156.431424 
L 236.680178 155.829634 
L 237.672884 74.629544 
L 238.66559 155.782239 
L 239.658296 163.239348 
L 240.651002 66.106179 
L 241.643708 121.876091 
L 242.636414 170.604177 
L 243.629119 56.224916 
L 244.621825 117.909044 
L 245.614531 171.3763 
L 246.607237 64.610136 
L 247.599943 107.040246 
L 248.592649 184.00079 
L 249.585355 97.436094 
L 250.578061 111.562296 
L 251.570767 169.173991 
L 252.563473 114.782219 
L 253.556179 96.399074 
L 254.548885 158.375958 
L 255.541591 110.26838 
L 256.534296 81.455999 
L 257.527002 171.279387 
L 258.519708 98.989698 
L 259.512414 52.600292 
L 260.50512 165.539308 
L 261.497826 152.377498 
L 262.490532 61.527967 
L 263.483238 155.049736 
L 264.475944 169.743184 
L 265.46865 66.877808 
L 266.461356 154.432558 
L 267.454062 160.697764 
L 268.446768 74.637832 
L 269.439473 123.475438 
L 270.432179 158.156465 
L 271.424885 69.102914 
L 272.417591 99.360753 
L 273.410297 187.263745 
L 274.403003 52.539393 
L 276.388415 183.553942 
L 277.381121 104.987445 
L 278.373827 91.403996 
L 279.366533 173.43896 
L 280.359239 103.988473 
L 281.351945 104.438005 
L 282.344651 168.680792 
L 283.337356 105.059116 
L 284.330062 74.168036 
L 285.322768 156.318669 
L 286.315474 144.017271 
L 287.30818 47.440743 
L 288.300886 156.583081 
L 289.293592 155.825957 
L 290.286298 44.191365 
L 291.279004 150.309891 
L 292.27171 177.188407 
L 293.264416 70.003117 
L 294.257122 151.789824 
L 295.249828 155.836308 
L 296.242533 81.501941 
L 297.235239 113.198064 
L 298.227945 168.380551 
L 299.220651 86.427057 
L 300.213357 79.953333 
L 301.206063 166.422727 
L 302.198769 100.75524 
L 303.191475 91.100673 
L 304.184181 191.465499 
L 305.176887 98.951705 
L 306.169593 63.332195 
L 307.162299 192.485578 
L 308.155005 150.586774 
L 309.14771 55.620327 
L 310.140416 170.656174 
L 311.133122 160.053222 
L 312.125828 32.452808 
L 313.118534 145.228704 
L 314.11124 170.187094 
L 315.103946 39.98465 
L 316.096652 123.680969 
L 317.089358 164.786925 
L 318.082064 62.290905 
L 319.07477 147.930659 
L 320.067476 185.253404 
L 321.060182 63.813873 
L 322.052887 111.022971 
L 323.045593 212.830125 
L 324.038299 90.965333 
L 325.031005 79.994553 
L 326.023711 179.116059 
L 327.016417 84.187561 
L 328.009123 94.477933 
L 329.001829 158.713878 
L 329.994535 114.377175 
L 330.987241 50.027884 
L 331.979947 185.064225 
L 332.972653 139.450909 
L 333.965359 40.033698 
L 334.958064 186.731039 
L 335.95077 151.675648 
L 336.943476 68.625157 
L 337.936182 161.656072 
L 338.928888 146.37167 
L 339.921594 76.096064 
L 340.9143 131.086901 
L 341.907006 144.280951 
L 342.899712 69.997183 
L 343.892418 115.573944 
L 344.885124 171.056978 
L 345.87783 50.300407 
L 346.870536 146.672066 
L 347.863241 174.972345 
L 348.855947 75.229375 
L 349.848653 126.593015 
L 350.841359 189.728944 
L 351.834065 68.851957 
L 352.826771 93.1295 
L 353.819477 197.256199 
L 354.812183 118.881661 
L 355.804889 49.874943 
L 356.797595 159.447569 
L 357.790301 120.148352 
L 358.783007 65.886015 
L 359.775713 173.182954 
L 360.768419 130.561787 
L 361.761124 44.889173 
L 362.75383 183.410163 
L 363.746536 169.913697 
L 364.739242 46.415639 
L 365.731948 169.863267 
L 366.724654 160.605428 
L 367.71736 67.698111 
L 368.710066 117.513665 
L 369.702772 159.254017 
L 370.695478 65.980416 
L 371.688184 130.13993 
L 372.68089 149.038538 
L 373.673596 82.876703 
L 374.666301 103.556935 
L 375.659007 191.744297 
L 376.651713 93.128283 
L 377.644419 94.238312 
L 378.637125 202.047378 
L 379.629831 71.125149 
L 380.622537 106.668506 
L 381.615243 179.66526 
L 382.607949 106.414041 
L 383.600655 74.277801 
L 384.593361 161.749146 
L 385.586067 123.663115 
L 386.578773 47.10112 
L 387.571478 154.249532 
L 388.564184 158.075031 
L 389.55689 56.779136 
L 390.549596 154.223013 
L 391.542302 168.559847 
L 392.535008 78.120932 
L 393.527714 120.857267 
L 394.52042 199.144199 
L 395.513126 65.52619 
L 396.505832 99.054871 
L 397.498538 203.015717 
L 398.491244 45.447874 
L 400.476655 165.207463 
L 401.469361 94.621555 
L 402.462067 85.538051 
L 403.454773 177.660968 
L 404.447479 121.852091 
L 405.440185 51.808675 
L 406.432891 207.612437 
L 407.425597 127.912605 
L 408.418303 70.483173 
L 409.411009 160.122098 
L 410.403715 149.421314 
L 411.396421 76.597216 
L 412.389127 125.273955 
L 413.381832 154.777992 
L 414.374538 41.978993 
L 415.367244 154.169295 
L 416.35995 152.920113 
L 417.352656 58.102126 
L 418.345362 140.652195 
L 419.338068 175.892453 
L 420.330774 88.179226 
L 421.32348 110.818225 
L 422.316186 199.222503 
L 423.308892 46.173072 
L 424.301598 116.70459 
L 425.294304 203.432889 
L 426.28701 55.507691 
L 427.279715 82.459192 
L 428.272421 164.465503 
L 429.265127 113.215798 
L 430.257833 96.974545 
L 431.250539 185.818874 
L 432.243245 96.795583 
L 433.235951 68.916986 
L 434.228657 188.021824 
L 435.221363 139.924555 
L 436.214069 73.602217 
L 437.206775 157.620551 
L 438.199481 139.05669 
L 439.192187 55.895683 
L 440.184892 140.39605 
L 441.177598 184.378289 
L 442.170304 43.468773 
L 444.155716 173.404216 
L 445.148422 75.731058 
L 446.141128 116.706723 
L 447.133834 197.322422 
L 448.12654 86.729628 
L 449.119246 85.397995 
L 450.111952 206.091613 
L 451.104658 69.515084 
L 452.097364 100.082358 
L 453.090069 204.445953 
L 454.082775 86.315271 
L 455.075481 61.289791 
L 456.068187 168.92283 
L 458.053599 71.861136 
L 459.046305 170.295062 
L 460.039011 129.165915 
L 461.031717 60.387074 
L 462.024423 157.975197 
L 463.017129 176.681144 
L 464.009835 72.002819 
L 465.002541 132.765551 
L 465.995246 165.849489 
L 466.987952 61.399558 
L 467.980658 135.349917 
L 468.973364 167.457981 
L 469.96607 69.18863 
L 470.958776 89.441205 
L 471.951482 184.449752 
L 472.944188 72.558789 
L 473.936894 90.205357 
L 474.9296 197.98178 
L 475.922306 98.348624 
L 476.915012 89.735461 
L 477.907718 192.759706 
L 478.900423 109.172515 
L 479.893129 82.165315 
L 480.885835 173.301269 
L 481.878541 122.249138 
L 482.871247 64.905079 
L 483.863953 148.048441 
L 484.856659 141.436491 
L 485.849365 51.562995 
L 486.842071 166.700547 
L 487.834777 130.41317 
L 488.827483 79.056226 
L 489.820189 154.877294 
L 490.812895 153.236227 
L 491.805601 85.797448 
L 492.798306 122.061774 
L 493.791012 172.971697 
L 494.783718 84.149772 
L 495.776424 111.436946 
L 496.76913 179.692428 
L 497.761836 73.298135 
L 498.754542 84.040497 
L 499.747248 183.291327 
L 500.739954 94.119344 
L 501.73266 69.912733 
L 502.725366 160.19737 
L 503.718072 139.174038 
L 504.710778 89.019478 
L 505.703483 153.468999 
L 506.696189 145.620687 
L 507.688895 80.509957 
L 508.681601 169.259495 
L 510.667013 67.751067 
L 511.659719 149.209038 
L 512.652425 144.881239 
L 513.645131 64.485271 
L 514.637837 143.491632 
L 515.630543 149.856151 
L 516.623249 51.544988 
L 517.615955 144.699594 
L 518.60866 188.640899 
L 519.601366 69.803415 
L 520.594072 113.237542 
L 521.586778 196.881983 
L 522.579484 92.744155 
L 523.57219 87.35286 
L 524.564896 184.548371 
L 525.557602 87.649157 
L 526.550308 76.157958 
L 527.543014 180.295063 
L 528.53572 84.186006 
L 529.528426 68.370134 
L 530.521132 182.545465 
L 531.513837 125.978786 
L 532.506543 77.348524 
L 533.499249 165.475391 
L 534.491955 153.543215 
L 535.484661 72.954669 
L 536.477367 148.3028 
L 537.470073 169.396628 
L 538.462779 41.490366 
L 539.455485 140.046619 
L 540.448191 168.699989 
L 541.440897 58.436526 
L 542.433603 108.915292 
L 543.426309 166.517313 
L 544.419014 74.095246 
L 545.41172 117.382399 
L 546.404426 198.299597 
L 547.397132 78.744067 
L 548.389838 89.08805 
L 549.382544 204.23329 
L 550.37525 99.186108 
L 551.367956 79.754572 
L 552.360662 182.442402 
L 553.353368 127.405849 
L 554.346074 56.462694 
L 555.33878 164.268676 
L 556.331486 103.765886 
L 557.324192 56.670472 
L 558.316897 180.233315 
L 559.309603 132.399762 
L 560.302309 59.269931 
L 561.295015 177.195308 
L 562.287721 162.96771 
L 563.280427 61.04795 
L 564.273133 146.942011 
L 565.265839 176.087681 
L 566.258545 56.896455 
L 567.251251 121.686659 
L 568.243957 175.035057 
L 569.236663 56.442897 
L 570.229369 123.690913 
L 571.222074 167.09116 
L 572.21478 66.671814 
L 573.207486 102.53054 
L 574.200192 172.843208 
L 575.192898 113.485326 
L 576.185604 95.886404 
L 577.17831 169.556196 
L 578.171016 128.666763 
L 579.163722 78.159583 
L 580.156428 186.541352 
L 581.149134 105.411564 
L 582.14184 42.555417 
L 583.134546 164.27274 
L 584.127251 163.63314 
L 585.119957 82.705015 
L 585.119957 82.705015 
" clip-path="url(#p39bd858f8a)" style="fill: none; stroke: #1f77b4; stroke-width: 0.9; stroke-linecap: square"/>
   </g>
   <g id="patch_3">
    <path d="M 52.483594 221.902125 
L 52.483594 22.318125 
" style="fill: none; stroke: #000000; stroke-width: 0.8; stroke-linejoin: miter; stroke-linecap: square"/>
   </g>
   <g id="patch_4">
    <path d="M 610.483594 221.902125 
L 610.483594 22.318125 
" style="fill: none; stroke: #000000; stroke-width: 0.8; stroke-linejoin: miter; stroke-linecap: square"/>
   </g>
   <g id="patch_5">
    <path d="M 52.483594 221.902125 
L 610.483594 221.902125 
" style="fill: none; stroke: #000000; stroke-width: 0.8; stroke-linejoin: miter; stroke-linecap: square"/>
   </g>
   <g id="patch_6">
    <path d="M 52.483594 22.318125 
L 610.483594 22.318125 
" style="fill: none; stroke: #000000; stroke-width: 0.8; stroke-linejoin: miter; stroke-linecap: square"/>
   </g>
   <g id="text_16">
    <!-- Residual-noise waveform -->
    <g transform="translate(256.297969 16.318125) scale(0.12 -0.12)">
     <defs>
      <path id="DejaVuSans-35" d="M 2841 2188 
Q 3044 2119 3236 1894 
Q 3428 1669 3622 1275 
L 4263 0 
L 3584 0 
L 2988 1197 
Q 2756 1666 2539 1819 
Q 2322 1972 1947 1972 
L 1259 1972 
L 1259 0 
L 628 0 
L 628 4666 
L 2053 4666 
Q 2853 4666 3247 4331 
Q 3641 3997 3641 3322 
Q 3641 2881 3436 2590 
Q 3231 2300 2841 2188 
z
M 1259 4147 
L 1259 2491 
L 2053 2491 
Q 2509 2491 2742 2702 
Q 2975 2913 2975 3322 
Q 2975 3731 2742 3939 
Q 2509 4147 2053 4147 
L 1259 4147 
z
" transform="scale(0.015625)"/>
      <path id="DejaVuSans-10" d="M 313 2009 
L 1997 2009 
L 1997 1497 
L 313 1497 
L 313 2009 
z
" transform="scale(0.015625)"/>
      <path id="DejaVuSans-52" d="M 1959 3097 
Q 1497 3097 1228 2736 
Q 959 2375 959 1747 
Q 959 1119 1226 758 
Q 1494 397 1959 397 
Q 2419 397 2687 759 
Q 2956 1122 2956 1747 
Q 2956 2369 2687 2733 
Q 2419 3097 1959 3097 
z
M 1959 3584 
Q 2709 3584 3137 3096 
Q 3566 2609 3566 1747 
Q 3566 888 3137 398 
Q 2709 -91 1959 -91 
Q 1206 -91 779 398 
Q 353 888 353 1747 
Q 353 2609 779 3096 
Q 1206 3584 1959 3584 
z
" transform="scale(0.015625)"/>
      <path id="DejaVuSans-5a" d="M 269 3500 
L 844 3500 
L 1563 769 
L 2278 3500 
L 2956 3500 
L 3675 769 
L 4391 3500 
L 4966 3500 
L 4050 0 
L 3372 0 
L 2619 2869 
L 1863 0 
L 1184 0 
L 269 3500 
z
" transform="scale(0.015625)"/>
      <path id="DejaVuSans-59" d="M 191 3500 
L 800 3500 
L 1894 563 
L 2988 3500 
L 3597 3500 
L 2284 0 
L 1503 0 
L 191 3500 
z
" transform="scale(0.015625)"/>
      <path id="DejaVuSans-49" d="M 2375 4863 
L 2375 4384 
L 1825 4384 
Q 1516 4384 1395 4259 
Q 1275 4134 1275 3809 
L 1275 3500 
L 2222 3500 
L 2222 3053 
L 1275 3053 
L 1275 0 
L 697 0 
L 697 3053 
L 147 3053 
L 147 3500 
L 697 3500 
L 697 3744 
Q 697 4328 969 4595 
Q 1241 4863 1831 4863 
L 2375 4863 
z
" transform="scale(0.015625)"/>
      <path id="DejaVuSans-55" d="M 2631 2963 
Q 2534 3019 2420 3045 
Q 2306 3072 2169 3072 
Q 1681 3072 1420 2755 
Q 1159 2438 1159 1844 
L 1159 0 
L 581 0 
L 581 3500 
L 1159 3500 
L 1159 2956 
Q 1341 3275 1631 3429 
Q 1922 3584 2338 3584 
Q 2397 3584 2469 3576 
Q 2541 3569 2628 3553 
L 2631 2963 
z
" transform="scale(0.015625)"/>
     </defs>
     <use xlink:href="#DejaVuSans-35"/>
     <use xlink:href="#DejaVuSans-48" transform="translate(65 0)"/>
     <use xlink:href="#DejaVuSans-56" transform="translate(126.53125 0)"/>
     <use xlink:href="#DejaVuSans-4c" transform="translate(178.625 0)"/>
     <use xlink:href="#DejaVuSans-47" transform="translate(206.40625 0)"/>
     <use xlink:href="#DejaVuSans-58" transform="translate(269.890625 0)"/>
     <use xlink:href="#DejaVuSans-44" transform="translate(333.265625 0)"/>
     <use xlink:href="#DejaVuSans-4f" transform="translate(394.546875 0)"/>
     <use xlink:href="#DejaVuSans-10" transform="translate(422.328125 0)"/>
     <use xlink:href="#DejaVuSans-51" transform="translate(458.40625 0)"/>
     <use xlink:href="#DejaVuSans-52" transform="translate(521.78125 0)"/>
     <use xlink:href="#DejaVuSans-4c" transform="translate(582.96875 0)"/>
     <use xlink:href="#DejaVuSans-56" transform="translate(610.75 0)"/>
     <use xlink:href="#DejaVuSans-48" transform="translate(662.84375 0)"/>
     <use xlink:href="#DejaVuSans-3" transform="translate(724.375 0)"/>
     <use xlink:href="#DejaVuSans-5a" transform="translate(756.15625 0)"/>
     <use xlink:href="#DejaVuSans-44" transform="translate(837.9375 0)"/>
     <use xlink:href="#DejaVuSans-59" transform="translate(899.21875 0)"/>
     <use xlink:href="#DejaVuSans-48" transform="translate(958.40625 0)"/>
     <use xlink:href="#DejaVuSans-49" transform="translate(1019.9375 0)"/>
     <use xlink:href="#DejaVuSans-52" transform="translate(1055.140625 0)"/>
     <use xlink:href="#DejaVuSans-55" transform="translate(1116.328125 0)"/>
     <use xlink:href="#DejaVuSans-50" transform="translate(1155.6875 0)"/>
    </g>
   </g>
  </g>
 </g>
 <defs>
  <clipPath id="p39bd858f8a">
   <rect x="52.483594" y="22.318125" width="558" height="199.584"/>
  </clipPath>
 </defs>
</svg>
