<?xml version="1.0" encoding="utf-8" standalone="no"?>
<!DOCTYPE svg PUBLIC "-//W3C//DTD SVG 1.1//EN"
  "http://www.w3.org/Graphics/SVG/1.1/DTD/svg11.dtd">
<svg xmlns:xlink="http://www.w3.org/1999/xlink" width="617.683594pt" height="260.102906pt" viewBox="0 0 617.683594 260.102906" xmlns="http://www.w3.org/2000/svg" version="1.1">
 <metadata>
  <rdf:RDF xmlns:dc="http://purl.org/dc/elements/1.1/" xmlns:cc="http://creativecommons.org/ns#" xmlns:rdf="http://www.w3.org/1999/02/22-rdf-syntax-ns#">
   <cc:Work>
    <dc:type rdf:resource="http://purl.org/dc/dcmitype/StillImage"/>
    <dc:date>2026-07-14T07:01:46.533610</dc:date>
    <dc:format>image/svg+xml</dc:format>
    <dc:creator>
     <cc:Agent>
      <dc:title>Matplotlib v3.11.0, https://matplotlib.org/</dc:title>
     </cc:Agent>
    </dc:creator>
   </cc:Work>
  </rdf:RDF>
 </metadata>
 <defs>
  <style type="text/css">*{stroke-linejoin: round; stroke-linecap: butt}</style>
 </defs>
 <g id="figure_1">
  <g id="patch_1">
   <path d="M 0 260.102906 
L 617.683594 260.102906 
L 617.683594 0 
L 0 0 
z
" style="fill: #ffffff"/>
  </g>
  <g id="axes_1">
   <g id="patch_2">
    <path d="M 52.483594 221.902125 
L 610.483594 221.902125 
L 610.483594 22.318125 
L 52.483594 22.318125 
z
" style="fill: #ffffff"/>
   </g>
   <g id="matplotlib.axis_1">
    <g id="xtick_1">
     <g id="line2d_1">
      <path d="M 77.84723 221.902125 
L 77.84723 22.318125 
" clip-path="url(#pc0d7c69779)" style="fill: none; stroke: #b0b0b0; stroke-opacity: 0.25; stroke-width: 0.8; stroke-linecap: square"/>
     </g>
     <g id="line2d_2">
      <defs>
       <path id="me403bf64c1" d="M 0 0 
L 0 3.5 
" style="stroke: #000000; stroke-width: 0.8"/>
      </defs>
      <g>
       <use xlink:href="#me403bf64c1" x="77.84723" y="221.902125" style="stroke: #000000; stroke-width: 0.8"/>
      </g>
     </g>
     <g id="text_1">
      <!-- 0.0 -->
      <g transform="translate(69.895668 236.499781) scale(0.1 -0.1)">
       <defs>
        <path id="DejaVuSans-13" d="M 2034 4250 
Q 1547 4250 1301 3770 
Q 1056 3291 1056 2328 
Q 1056 1369 1301 889 
Q 1547 409 2034 409 
Q 2525 409 2770 889 
Q 3016 1369 3016 2328 
Q 3016 3291 2770 3770 
Q 2525 4250 2034 4250 
z
M 2034 4750 
Q 2819 4750 3233 4129 
Q 3647 3509 3647 2328 
Q 3647 1150 3233 529 
Q 2819 -91 2034 -91 
Q 1250 -91 836 529 
Q 422 1150 422 2328 
Q 422 3509 836 4129 
Q 1250 4750 2034 4750 
z
" transform="scale(0.015625)"/>
        <path id="DejaVuSans-11" d="M 684 794 
L 1344 794 
L 1344 0 
L 684 0 
L 684 794 
z
" transform="scale(0.015625)"/>
       </defs>
       <use xlink:href="#DejaVuSans-13"/>
       <use xlink:href="#DejaVuSans-11" transform="translate(63.625 0)"/>
       <use xlink:href="#DejaVuSans-13" transform="translate(95.40625 0)"/>
      </g>
     </g>
    </g>
    <g id="xtick_2">
     <g id="line2d_3">
      <path d="M 179.403332 221.902125 
L 179.403332 22.318125 
" clip-path="url(#pc0d7c69779)" style="fill: none; stroke: #b0b0b0; stroke-opacity: 0.25; stroke-width: 0.8; stroke-linecap: square"/>
     </g>
     <g id="line2d_4">
      <g>
       <use xlink:href="#me403bf64c1" x="179.403332" y="221.902125" style="stroke: #000000; stroke-width: 0.8"/>
      </g>
     </g>
     <g id="text_2">
      <!-- 0.2 -->
      <g transform="translate(171.451769 236.499781) scale(0.1 -0.1)">
       <defs>
        <path id="DejaVuSans-15" d="M 1228 531 
L 3431 531 
L 3431 0 
L 469 0 
L 469 531 
Q 828 903 1448 1529 
Q 2069 2156 2228 2338 
Q 2531 2678 2651 2914 
Q 2772 3150 2772 3378 
Q 2772 3750 2511 3984 
Q 2250 4219 1831 4219 
Q 1534 4219 1204 4116 
Q 875 4013 500 3803 
L 500 4441 
Q 881 4594 1212 4672 
Q 1544 4750 1819 4750 
Q 2544 4750 2975 4387 
Q 3406 4025 3406 3419 
Q 3406 3131 3298 2873 
Q 3191 2616 2906 2266 
Q 2828 2175 2409 1742 
Q 1991 1309 1228 531 
z
" transform="scale(0.015625)"/>
       </defs>
       <use xlink:href="#DejaVuSans-13"/>
       <use xlink:href="#DejaVuSans-11" transform="translate(63.625 0)"/>
       <use xlink:href="#DejaVuSans-15" transform="translate(95.40625 0)"/>
      </g>
     </g>
    </g>
    <g id="xtick_3">
     <g id="line2d_5">
      <path d="M 280.959433 221.902125 
L 280.959433 22.318125 
" clip-path="url(#pc0d7c69779)" style="fill: none; stroke: #b0b0b0; stroke-opacity: 0.25; stroke-width: 0.8; stroke-linecap: square"/>
     </g>
     <g id="line2d_6">
      <g>
       <use xlink:href="#me403bf64c1" x="280.959433" y="221.902125" style="stroke: #000000; stroke-width: 0.8"/>
      </g>
     </g>
     <g id="text_3">
      <!-- 0.4 -->
      <g transform="translate(273.007871 236.499781) scale(0.1 -0.1)">
       <defs>
        <path id="DejaVuSans-17" d="M 2419 4116 
L 825 1625 
L 2419 1625 
L 2419 4116 
z
M 2253 4666 
L 3047 4666 
L 3047 1625 
L 3713 1625 
L 3713 1100 
L 3047 1100 
L 3047 0 
L 2419 0 
L 2419 1100 
L 313 1100 
L 313 1709 
L 2253 4666 
z
" transform="scale(0.015625)"/>
       </defs>
       <use xlink:href="#DejaVuSans-13"/>
       <use xlink:href="#DejaVuSans-11" transform="translate(63.625 0)"/>
       <use xlink:href="#DejaVuSans-17" transform="translate(95.40625 0)"/>
      </g>
     </g>
    </g>
    <g id="xtick_4">
     <g id="line2d_7">
      <path d="M 382.515535 221.902125 
L 382.515535 22.318125 
" clip-path="url(#pc0d7c69779)" style="fill: none; stroke: #b0b0b0; stroke-opacity: 0.25; stroke-width: 0.8; stroke-linecap: square"/>
     </g>
     <g id="line2d_8">
      <g>
       <use xlink:href="#me403bf64c1" x="382.515535" y="221.902125" style="stroke: #000000; stroke-width: 0.8"/>
      </g>
     </g>
     <g id="text_4">
      <!-- 0.6 -->
      <g transform="translate(374.563972 236.499781) scale(0.1 -0.1)">
       <defs>
        <path id="DejaVuSans-19" d="M 2113 2584 
Q 1688 2584 1439 2293 
Q 1191 2003 1191 1497 
Q 1191 994 1439 701 
Q 1688 409 2113 409 
Q 2538 409 2786 701 
Q 3034 994 3034 1497 
Q 3034 2003 2786 2293 
Q 2538 2584 2113 2584 
z
M 3366 4563 
L 3366 3988 
Q 3128 4100 2886 4159 
Q 2644 4219 2406 4219 
Q 1781 4219 1451 3797 
Q 1122 3375 1075 2522 
Q 1259 2794 1537 2939 
Q 1816 3084 2150 3084 
Q 2853 3084 3261 2657 
Q 3669 2231 3669 1497 
Q 3669 778 3244 343 
Q 2819 -91 2113 -91 
Q 1303 -91 875 529 
Q 447 1150 447 2328 
Q 447 3434 972 4092 
Q 1497 4750 2381 4750 
Q 2619 4750 2861 4703 
Q 3103 4656 3366 4563 
z
" transform="scale(0.015625)"/>
       </defs>
       <use xlink:href="#DejaVuSans-13"/>
       <use xlink:href="#DejaVuSans-11" transform="translate(63.625 0)"/>
       <use xlink:href="#DejaVuSans-19" transform="translate(95.40625 0)"/>
      </g>
     </g>
    </g>
    <g id="xtick_5">
     <g id="line2d_9">
      <path d="M 484.071636 221.902125 
L 484.071636 22.318125 
" clip-path="url(#pc0d7c69779)" style="fill: none; stroke: #b0b0b0; stroke-opacity: 0.25; stroke-width: 0.8; stroke-linecap: square"/>
     </g>
     <g id="line2d_10">
      <g>
       <use xlink:href="#me403bf64c1" x="484.071636" y="221.902125" style="stroke: #000000; stroke-width: 0.8"/>
      </g>
     </g>
     <g id="text_5">
      <!-- 0.8 -->
      <g transform="translate(476.120074 236.499781) scale(0.1 -0.1)">
       <defs>
        <path id="DejaVuSans-1b" d="M 2034 2216 
Q 1584 2216 1326 1975 
Q 1069 1734 1069 1313 
Q 1069 891 1326 650 
Q 1584 409 2034 409 
Q 2484 409 2743 651 
Q 3003 894 3003 1313 
Q 3003 1734 2745 1975 
Q 2488 2216 2034 2216 
z
M 1403 2484 
Q 997 2584 770 2862 
Q 544 3141 544 3541 
Q 544 4100 942 4425 
Q 1341 4750 2034 4750 
Q 2731 4750 3128 4425 
Q 3525 4100 3525 3541 
Q 3525 3141 3298 2862 
Q 3072 2584 2669 2484 
Q 3125 2378 3379 2068 
Q 3634 1759 3634 1313 
Q 3634 634 3220 271 
Q 2806 -91 2034 -91 
Q 1263 -91 848 271 
Q 434 634 434 1313 
Q 434 1759 690 2068 
Q 947 2378 1403 2484 
z
M 1172 3481 
Q 1172 3119 1398 2916 
Q 1625 2713 2034 2713 
Q 2441 2713 2670 2916 
Q 2900 3119 2900 3481 
Q 2900 3844 2670 4047 
Q 2441 4250 2034 4250 
Q 1625 4250 1398 4047 
Q 1172 3844 1172 3481 
z
" transform="scale(0.015625)"/>
       </defs>
       <use xlink:href="#DejaVuSans-13"/>
       <use xlink:href="#DejaVuSans-11" transform="translate(63.625 0)"/>
       <use xlink:href="#DejaVuSans-1b" transform="translate(95.40625 0)"/>
      </g>
     </g>
    </g>
    <g id="xtick_6">
     <g id="line2d_11">
      <path d="M 585.627738 221.902125 
L 585.627738 22.318125 
" clip-path="url(#pc0d7c69779)" style="fill: none; stroke: #b0b0b0; stroke-opacity: 0.25; stroke-width: 0.8; stroke-linecap: square"/>
     </g>
     <g id="line2d_12">
      <g>
       <use xlink:href="#me403bf64c1" x="585.627738" y="221.902125" style="stroke: #000000; stroke-width: 0.8"/>
      </g>
     </g>
     <g id="text_6">
      <!-- 1.0 -->
      <g transform="translate(577.676175 236.499781) scale(0.1 -0.1)">
       <defs>
        <path id="DejaVuSans-14" d="M 794 531 
L 1825 531 
L 1825 4091 
L 703 3866 
L 703 4441 
L 1819 4666 
L 2450 4666 
L 2450 531 
L 3481 531 
L 3481 0 
L 794 0 
L 794 531 
z
" transform="scale(0.015625)"/>
       </defs>
       <use xlink:href="#DejaVuSans-14"/>
       <use xlink:href="#DejaVuSans-11" transform="translate(63.625 0)"/>
       <use xlink:href="#DejaVuSans-13" transform="translate(95.40625 0)"/>
      </g>
     </g>
    </g>
    <g id="text_7">
     <!-- Time (s) -->
     <g transform="translate(311.152344 250.500563) scale(0.1 -0.1)">
      <defs>
       <path id="DejaVuSans-37" d="M -19 4666 
L 3928 4666 
L 3928 4134 
L 2272 4134 
L 2272 0 
L 1638 0 
L 1638 4134 
L -19 4134 
L -19 4666 
z
" transform="scale(0.015625)"/>
       <path id="DejaVuSans-4c" d="M 603 3500 
L 1178 3500 
L 1178 0 
L 603 0 
L 603 3500 
z
M 603 4863 
L 1178 4863 
L 1178 4134 
L 603 4134 
L 603 4863 
z
" transform="scale(0.015625)"/>
       <path id="DejaVuSans-50" d="M 3328 2828 
Q 3544 3216 3844 3400 
Q 4144 3584 4550 3584 
Q 5097 3584 5394 3201 
Q 5691 2819 5691 2113 
L 5691 0 
L 5113 0 
L 5113 2094 
Q 5113 2597 4934 2840 
Q 4756 3084 4391 3084 
Q 3944 3084 3684 2787 
Q 3425 2491 3425 1978 
L 3425 0 
L 2847 0 
L 2847 2094 
Q 2847 2600 2669 2842 
Q 2491 3084 2119 3084 
Q 1678 3084 1418 2786 
Q 1159 2488 1159 1978 
L 1159 0 
L 581 0 
L 581 3500 
L 1159 3500 
L 1159 2956 
Q 1356 3278 1631 3431 
Q 1906 3584 2284 3584 
Q 2666 3584 2933 3390 
Q 3200 3197 3328 2828 
z
" transform="scale(0.015625)"/>
       <path id="DejaVuSans-48" d="M 3597 1894 
L 3597 1613 
L 953 1613 
Q 991 1019 1311 708 
Q 1631 397 2203 397 
Q 2534 397 2845 478 
Q 3156 559 3463 722 
L 3463 178 
Q 3153 47 2828 -22 
Q 2503 -91 2169 -91 
Q 1331 -91 842 396 
Q 353 884 353 1716 
Q 353 2575 817 3079 
Q 1281 3584 2069 3584 
Q 2775 3584 3186 3129 
Q 3597 2675 3597 1894 
z
M 3022 2063 
Q 3016 2534 2758 2815 
Q 2500 3097 2075 3097 
Q 1594 3097 1305 2825 
Q 1016 2553 972 2059 
L 3022 2063 
z
" transform="scale(0.015625)"/>
       <path id="DejaVuSans-3" transform="scale(0.015625)"/>
       <path id="DejaVuSans-b" d="M 1984 4856 
Q 1566 4138 1362 3434 
Q 1159 2731 1159 2009 
Q 1159 1288 1364 580 
Q 1569 -128 1984 -844 
L 1484 -844 
Q 1016 -109 783 600 
Q 550 1309 550 2009 
Q 550 2706 781 3412 
Q 1013 4119 1484 4856 
L 1984 4856 
z
" transform="scale(0.015625)"/>
       <path id="DejaVuSans-56" d="M 2834 3397 
L 2834 2853 
Q 2591 2978 2328 3040 
Q 2066 3103 1784 3103 
Q 1356 3103 1142 2972 
Q 928 2841 928 2578 
Q 928 2378 1081 2264 
Q 1234 2150 1697 2047 
L 1894 2003 
Q 2506 1872 2764 1633 
Q 3022 1394 3022 966 
Q 3022 478 2636 193 
Q 2250 -91 1575 -91 
Q 1294 -91 989 -36 
Q 684 19 347 128 
L 347 722 
Q 666 556 975 473 
Q 1284 391 1588 391 
Q 1994 391 2212 530 
Q 2431 669 2431 922 
Q 2431 1156 2273 1281 
Q 2116 1406 1581 1522 
L 1381 1569 
Q 847 1681 609 1914 
Q 372 2147 372 2553 
Q 372 3047 722 3315 
Q 1072 3584 1716 3584 
Q 2034 3584 2315 3537 
Q 2597 3491 2834 3397 
z
" transform="scale(0.015625)"/>
       <path id="DejaVuSans-c" d="M 513 4856 
L 1013 4856 
Q 1481 4119 1714 3412 
Q 1947 2706 1947 2009 
Q 1947 1309 1714 600 
Q 1481 -109 1013 -844 
L 513 -844 
Q 928 -128 1133 580 
Q 1338 1288 1338 2009 
Q 1338 2731 1133 3434 
Q 928 4138 513 4856 
z
" transform="scale(0.015625)"/>
      </defs>
      <use xlink:href="#DejaVuSans-37"/>
      <use xlink:href="#DejaVuSans-4c" transform="translate(58 0)"/>
      <use xlink:href="#DejaVuSans-50" transform="translate(85.78125 0)"/>
      <use xlink:href="#DejaVuSans-48" transform="translate(183.1875 0)"/>
      <use xlink:href="#DejaVuSans-3" transform="translate(244.71875 0)"/>
      <use xlink:href="#DejaVuSans-b" transform="translate(276.5 0)"/>
      <use xlink:href="#DejaVuSans-56" transform="translate(315.515625 0)"/>
      <use xlink:href="#DejaVuSans-c" transform="translate(367.609375 0)"/>
     </g>
    </g>
   </g>
   <g id="matplotlib.axis_2">
    <g id="ytick_1">
     <g id="line2d_13">
      <path d="M 52.483594 191.679124 
L 610.483594 191.679124 
" clip-path="url(#pc0d7c69779)" style="fill: none; stroke: #b0b0b0; stroke-opacity: 0.25; stroke-width: 0.8; stroke-linecap: square"/>
     </g>
     <g id="line2d_14">
      <defs>
       <path id="m00c564124a" d="M 0 0 
L -3.5 0 
" style="stroke: #000000; stroke-width: 0.8"/>
      </defs>
      <g>
       <use xlink:href="#m00c564124a" x="52.483594" y="191.679124" style="stroke: #000000; stroke-width: 0.8"/>
      </g>
     </g>
     <g id="text_8">
      <!-- −1.0 -->
      <g transform="translate(21.200781 195.477952) scale(0.1 -0.1)">
       <defs>
        <path id="DejaVuSans-c9c" d="M 678 2272 
L 4684 2272 
L 4684 1741 
L 678 1741 
L 678 2272 
z
" transform="scale(0.015625)"/>
       </defs>
       <use xlink:href="#DejaVuSans-c9c"/>
       <use xlink:href="#DejaVuSans-14" transform="translate(83.796875 0)"/>
       <use xlink:href="#DejaVuSans-11" transform="translate(147.421875 0)"/>
       <use xlink:href="#DejaVuSans-13" transform="translate(179.203125 0)"/>
      </g>
     </g>
    </g>
    <g id="ytick_2">
     <g id="line2d_15">
      <path d="M 52.483594 155.395016 
L 610.483594 155.395016 
" clip-path="url(#pc0d7c69779)" style="fill: none; stroke: #b0b0b0; stroke-opacity: 0.25; stroke-width: 0.8; stroke-linecap: square"/>
     </g>
     <g id="line2d_16">
      <g>
       <use xlink:href="#m00c564124a" x="52.483594" y="155.395016" style="stroke: #000000; stroke-width: 0.8"/>
      </g>
     </g>
     <g id="text_9">
      <!-- −0.5 -->
      <g transform="translate(21.200781 159.193844) scale(0.1 -0.1)">
       <defs>
        <path id="DejaVuSans-18" d="M 691 4666 
L 3169 4666 
L 3169 4134 
L 1269 4134 
L 1269 2991 
Q 1406 3038 1543 3061 
Q 1681 3084 1819 3084 
Q 2600 3084 3056 2656 
Q 3513 2228 3513 1497 
Q 3513 744 3044 326 
Q 2575 -91 1722 -91 
Q 1428 -91 1123 -41 
Q 819 9 494 109 
L 494 744 
Q 775 591 1075 516 
Q 1375 441 1709 441 
Q 2250 441 2565 725 
Q 2881 1009 2881 1497 
Q 2881 1984 2565 2268 
Q 2250 2553 1709 2553 
Q 1456 2553 1204 2497 
Q 953 2441 691 2322 
L 691 4666 
z
" transform="scale(0.015625)"/>
       </defs>
       <use xlink:href="#DejaVuSans-c9c"/>
       <use xlink:href="#DejaVuSans-13" transform="translate(83.796875 0)"/>
       <use xlink:href="#DejaVuSans-11" transform="translate(147.421875 0)"/>
       <use xlink:href="#DejaVuSans-18" transform="translate(179.203125 0)"/>
      </g>
     </g>
    </g>
    <g id="ytick_3">
     <g id="line2d_17">
      <path d="M 52.483594 119.110908 
L 610.483594 119.110908 
" clip-path="url(#pc0d7c69779)" style="fill: none; stroke: #b0b0b0; stroke-opacity: 0.25; stroke-width: 0.8; stroke-linecap: square"/>
     </g>
     <g id="line2d_18">
      <g>
       <use xlink:href="#m00c564124a" x="52.483594" y="119.110908" style="stroke: #000000; stroke-width: 0.8"/>
      </g>
     </g>
     <g id="text_10">
      <!-- 0.0 -->
      <g transform="translate(29.580469 122.909736) scale(0.1 -0.1)">
       <use xlink:href="#DejaVuSans-13"/>
       <use xlink:href="#DejaVuSans-11" transform="translate(63.625 0)"/>
       <use xlink:href="#DejaVuSans-13" transform="translate(95.40625 0)"/>
      </g>
     </g>
    </g>
    <g id="ytick_4">
     <g id="line2d_19">
      <path d="M 52.483594 82.8268 
L 610.483594 82.8268 
" clip-path="url(#pc0d7c69779)" style="fill: none; stroke: #b0b0b0; stroke-opacity: 0.25; stroke-width: 0.8; stroke-linecap: square"/>
     </g>
     <g id="line2d_20">
      <g>
       <use xlink:href="#m00c564124a" x="52.483594" y="82.8268" style="stroke: #000000; stroke-width: 0.8"/>
      </g>
     </g>
     <g id="text_11">
      <!-- 0.5 -->
      <g transform="translate(29.580469 86.625628) scale(0.1 -0.1)">
       <use xlink:href="#DejaVuSans-13"/>
       <use xlink:href="#DejaVuSans-11" transform="translate(63.625 0)"/>
       <use xlink:href="#DejaVuSans-18" transform="translate(95.40625 0)"/>
      </g>
     </g>
    </g>
    <g id="ytick_5">
     <g id="line2d_21">
      <path d="M 52.483594 46.542692 
L 610.483594 46.542692 
" clip-path="url(#pc0d7c69779)" style="fill: none; stroke: #b0b0b0; stroke-opacity: 0.25; stroke-width: 0.8; stroke-linecap: square"/>
     </g>
     <g id="line2d_22">
      <g>
       <use xlink:href="#m00c564124a" x="52.483594" y="46.542692" style="stroke: #000000; stroke-width: 0.8"/>
      </g>
     </g>
     <g id="text_12">
      <!-- 1.0 -->
      <g transform="translate(29.580469 50.34152) scale(0.1 -0.1)">
       <use xlink:href="#DejaVuSans-14"/>
       <use xlink:href="#DejaVuSans-11" transform="translate(63.625 0)"/>
       <use xlink:href="#DejaVuSans-13" transform="translate(95.40625 0)"/>
      </g>
     </g>
    </g>
    <g id="text_13">
     <!-- Amplitude (physical unit) -->
     <g transform="translate(14.798438 184.997625) rotate(-90) scale(0.1 -0.1)">
      <defs>
       <path id="DejaVuSans-24" d="M 2188 4044 
L 1331 1722 
L 3047 1722 
L 2188 4044 
z
M 1831 4666 
L 2547 4666 
L 4325 0 
L 3669 0 
L 3244 1197 
L 1141 1197 
L 716 0 
L 50 0 
L 1831 4666 
z
" transform="scale(0.015625)"/>
       <path id="DejaVuSans-53" d="M 1159 525 
L 1159 -1331 
L 581 -1331 
L 581 3500 
L 1159 3500 
L 1159 2969 
Q 1341 3281 1617 3432 
Q 1894 3584 2278 3584 
Q 2916 3584 3314 3078 
Q 3713 2572 3713 1747 
Q 3713 922 3314 415 
Q 2916 -91 2278 -91 
Q 1894 -91 1617 61 
Q 1341 213 1159 525 
z
M 3116 1747 
Q 3116 2381 2855 2742 
Q 2594 3103 2138 3103 
Q 1681 3103 1420 2742 
Q 1159 2381 1159 1747 
Q 1159 1113 1420 752 
Q 1681 391 2138 391 
Q 2594 391 2855 752 
Q 3116 1113 3116 1747 
z
" transform="scale(0.015625)"/>
       <path id="DejaVuSans-4f" d="M 603 4863 
L 1178 4863 
L 1178 0 
L 603 0 
L 603 4863 
z
" transform="scale(0.015625)"/>
       <path id="DejaVuSans-57" d="M 1172 4494 
L 1172 3500 
L 2356 3500 
L 2356 3053 
L 1172 3053 
L 1172 1153 
Q 1172 725 1289 603 
Q 1406 481 1766 481 
L 2356 481 
L 2356 0 
L 1766 0 
Q 1100 0 847 248 
Q 594 497 594 1153 
L 594 3053 
L 172 3053 
L 172 3500 
L 594 3500 
L 594 4494 
L 1172 4494 
z
" transform="scale(0.015625)"/>
       <path id="DejaVuSans-58" d="M 544 1381 
L 544 3500 
L 1119 3500 
L 1119 1403 
Q 1119 906 1312 657 
Q 1506 409 1894 409 
Q 2359 409 2629 706 
Q 2900 1003 2900 1516 
L 2900 3500 
L 3475 3500 
L 3475 0 
L 2900 0 
L 2900 538 
Q 2691 219 2414 64 
Q 2138 -91 1772 -91 
Q 1169 -91 856 284 
Q 544 659 544 1381 
z
M 1991 3584 
L 1991 3584 
z
" transform="scale(0.015625)"/>
       <path id="DejaVuSans-47" d="M 2906 2969 
L 2906 4863 
L 3481 4863 
L 3481 0 
L 2906 0 
L 2906 525 
Q 2725 213 2448 61 
Q 2172 -91 1784 -91 
Q 1150 -91 751 415 
Q 353 922 353 1747 
Q 353 2572 751 3078 
Q 1150 3584 1784 3584 
Q 2172 3584 2448 3432 
Q 2725 3281 2906 2969 
z
M 947 1747 
Q 947 1113 1208 752 
Q 1469 391 1925 391 
Q 2381 391 2643 752 
Q 2906 1113 2906 1747 
Q 2906 2381 2643 2742 
Q 2381 3103 1925 3103 
Q 1469 3103 1208 2742 
Q 947 2381 947 1747 
z
" transform="scale(0.015625)"/>
       <path id="DejaVuSans-4b" d="M 3513 2113 
L 3513 0 
L 2938 0 
L 2938 2094 
Q 2938 2591 2744 2837 
Q 2550 3084 2163 3084 
Q 1697 3084 1428 2787 
Q 1159 2491 1159 1978 
L 1159 0 
L 581 0 
L 581 4863 
L 1159 4863 
L 1159 2956 
Q 1366 3272 1645 3428 
Q 1925 3584 2291 3584 
Q 2894 3584 3203 3211 
Q 3513 2838 3513 2113 
z
" transform="scale(0.015625)"/>
       <path id="DejaVuSans-5c" d="M 2059 -325 
Q 1816 -950 1584 -1140 
Q 1353 -1331 966 -1331 
L 506 -1331 
L 506 -850 
L 844 -850 
Q 1081 -850 1212 -737 
Q 1344 -625 1503 -206 
L 1606 56 
L 191 3500 
L 800 3500 
L 1894 763 
L 2988 3500 
L 3597 3500 
L 2059 -325 
z
" transform="scale(0.015625)"/>
       <path id="DejaVuSans-46" d="M 3122 3366 
L 3122 2828 
Q 2878 2963 2633 3030 
Q 2388 3097 2138 3097 
Q 1578 3097 1268 2742 
Q 959 2388 959 1747 
Q 959 1106 1268 751 
Q 1578 397 2138 397 
Q 2388 397 2633 464 
Q 2878 531 3122 666 
L 3122 134 
Q 2881 22 2623 -34 
Q 2366 -91 2075 -91 
Q 1284 -91 818 406 
Q 353 903 353 1747 
Q 353 2603 823 3093 
Q 1294 3584 2113 3584 
Q 2378 3584 2631 3529 
Q 2884 3475 3122 3366 
z
" transform="scale(0.015625)"/>
       <path id="DejaVuSans-44" d="M 2194 1759 
Q 1497 1759 1228 1600 
Q 959 1441 959 1056 
Q 959 750 1161 570 
Q 1363 391 1709 391 
Q 2188 391 2477 730 
Q 2766 1069 2766 1631 
L 2766 1759 
L 2194 1759 
z
M 3341 1997 
L 3341 0 
L 2766 0 
L 2766 531 
Q 2569 213 2275 61 
Q 1981 -91 1556 -91 
Q 1019 -91 701 211 
Q 384 513 384 1019 
Q 384 1609 779 1909 
Q 1175 2209 1959 2209 
L 2766 2209 
L 2766 2266 
Q 2766 2663 2505 2880 
Q 2244 3097 1772 3097 
Q 1472 3097 1187 3025 
Q 903 2953 641 2809 
L 641 3341 
Q 956 3463 1253 3523 
Q 1550 3584 1831 3584 
Q 2591 3584 2966 3190 
Q 3341 2797 3341 1997 
z
" transform="scale(0.015625)"/>
       <path id="DejaVuSans-51" d="M 3513 2113 
L 3513 0 
L 2938 0 
L 2938 2094 
Q 2938 2591 2744 2837 
Q 2550 3084 2163 3084 
Q 1697 3084 1428 2787 
Q 1159 2491 1159 1978 
L 1159 0 
L 581 0 
L 581 3500 
L 1159 3500 
L 1159 2956 
Q 1366 3272 1645 3428 
Q 1925 3584 2291 3584 
Q 2894 3584 3203 3211 
Q 3513 2838 3513 2113 
z
" transform="scale(0.015625)"/>
      </defs>
      <use xlink:href="#DejaVuSans-24"/>
      <use xlink:href="#DejaVuSans-50" transform="translate(68.40625 0)"/>
      <use xlink:href="#DejaVuSans-53" transform="translate(165.8125 0)"/>
      <use xlink:href="#DejaVuSans-4f" transform="translate(229.296875 0)"/>
      <use xlink:href="#DejaVuSans-4c" transform="translate(257.078125 0)"/>
      <use xlink:href="#DejaVuSans-57" transform="translate(284.859375 0)"/>
      <use xlink:href="#DejaVuSans-58" transform="translate(324.0625 0)"/>
      <use xlink:href="#DejaVuSans-47" transform="translate(387.4375 0)"/>
      <use xlink:href="#DejaVuSans-48" transform="translate(450.921875 0)"/>
      <use xlink:href="#DejaVuSans-3" transform="translate(512.453125 0)"/>
      <use xlink:href="#DejaVuSans-b" transform="translate(544.234375 0)"/>
      <use xlink:href="#DejaVuSans-53" transform="translate(583.25 0)"/>
      <use xlink:href="#DejaVuSans-4b" transform="translate(646.734375 0)"/>
      <use xlink:href="#DejaVuSans-5c" transform="translate(710.109375 0)"/>
      <use xlink:href="#DejaVuSans-56" transform="translate(769.296875 0)"/>
      <use xlink:href="#DejaVuSans-4c" transform="translate(821.390625 0)"/>
      <use xlink:href="#DejaVuSans-46" transform="translate(849.171875 0)"/>
      <use xlink:href="#DejaVuSans-44" transform="translate(904.15625 0)"/>
      <use xlink:href="#DejaVuSans-4f" transform="translate(965.4375 0)"/>
      <use xlink:href="#DejaVuSans-3" transform="translate(993.21875 0)"/>
      <use xlink:href="#DejaVuSans-58" transform="translate(1025 0)"/>
      <use xlink:href="#DejaVuSans-51" transform="translate(1088.375 0)"/>
      <use xlink:href="#DejaVuSans-4c" transform="translate(1151.75 0)"/>
      <use xlink:href="#DejaVuSans-57" transform="translate(1179.53125 0)"/>
      <use xlink:href="#DejaVuSans-c" transform="translate(1218.734375 0)"/>
     </g>
    </g>
   </g>
   <g id="line2d_23">
    <path d="M 77.84723 131.604061 
L 78.355011 90.45419 
L 78.862791 116.216416 
L 79.370572 98.108655 
L 79.878352 37.973948 
L 80.386133 93.041008 
L 80.893913 112.799358 
L 81.401694 54.005615 
L 81.909474 122.073308 
L 82.925035 76.056108 
L 83.432816 113.058436 
L 83.940596 132.949982 
L 84.448377 101.575591 
L 84.956157 135.520083 
L 85.463938 193.373287 
L 85.971718 149.960476 
L 86.479499 134.427794 
L 86.987279 195.604215 
L 87.49506 139.084095 
L 88.00284 150.491629 
L 88.510621 169.385992 
L 89.018401 130.029273 
L 89.526182 124.397372 
L 90.033962 154.500109 
L 90.541743 131.082397 
L 91.049523 72.252174 
L 91.557304 125.553266 
L 92.065084 120.726069 
L 92.572865 62.618516 
L 93.080645 111.451566 
L 93.588426 96.084761 
L 94.096206 60.467329 
L 94.603987 94.47923 
L 95.111767 104.614234 
L 95.619548 74.740045 
L 96.127328 110.220349 
L 96.635109 126.192382 
L 97.142889 86.841965 
L 97.65067 133.555035 
L 98.15845 164.417661 
L 98.666231 117.226946 
L 99.174011 135.565052 
L 99.681792 177.455961 
L 100.189572 129.255855 
L 100.697353 144.03344 
L 101.205133 176.716051 
L 101.712914 154.784091 
L 102.220694 115.156781 
L 102.728475 157.539011 
L 103.236256 129.809056 
L 103.744036 87.384314 
L 104.251817 136.906071 
L 105.267378 46.288991 
L 105.775158 105.781573 
L 106.282939 88.325336 
L 106.790719 35.141585 
L 107.2985 99.52212 
L 107.80628 102.124826 
L 108.314061 70.423597 
L 108.821841 116.650655 
L 109.329622 136.398025 
L 109.837402 94.358953 
L 110.345183 128.084015 
L 110.852963 177.62521 
L 111.360744 141.920146 
L 111.868524 142.760418 
L 112.376305 185.649574 
L 112.884085 136.155695 
L 113.391866 126.707057 
L 113.899646 184.963049 
L 114.407427 128.388635 
L 114.915207 95.067679 
L 115.422988 174.67193 
L 115.930768 123.314678 
L 116.438549 93.108836 
L 116.946329 133.726085 
L 117.96189 50.477434 
L 118.469671 100.750778 
L 118.977451 95.176444 
L 119.485232 60.007491 
L 119.993012 82.011363 
L 120.500793 122.789601 
L 121.008573 79.772244 
L 122.024134 131.145361 
L 122.531915 91.851342 
L 123.039695 119.632468 
L 123.547476 154.614816 
L 124.055256 126.270728 
L 124.563037 135.952246 
L 125.070817 187.679096 
L 125.578598 158.222446 
L 126.086378 140.148263 
L 126.594159 179.620981 
L 127.101939 134.600534 
L 127.60972 128.267447 
L 128.1175 155.269869 
L 128.625281 110.670304 
L 129.133061 81.154158 
L 129.640842 123.940051 
L 130.148622 96.971755 
L 130.656403 51.273509 
L 131.164183 111.03943 
L 131.671964 114.239559 
L 132.179744 41.509533 
L 133.195305 113.839613 
L 133.703086 64.612368 
L 134.210866 93.946438 
L 134.718647 137.274895 
L 135.226427 90.163622 
L 135.734208 118.413736 
L 136.241989 184.182039 
L 136.749769 122.057495 
L 137.25755 142.632243 
L 137.76533 195.574332 
L 138.273111 145.792806 
L 138.780891 146.409222 
L 139.288672 194.622147 
L 140.304233 114.412806 
L 140.812013 170.237727 
L 141.319794 112.098448 
L 141.827574 70.196222 
L 142.335355 116.430306 
L 142.843135 107.47213 
L 143.350916 49.399898 
L 143.858696 99.307534 
L 144.366477 94.892371 
L 144.874257 41.946781 
L 145.382038 112.805891 
L 145.889818 116.604211 
L 146.397599 84.160541 
L 147.41316 144.318833 
L 147.92094 88.060802 
L 148.936501 166.799284 
L 149.444282 124.810038 
L 149.952062 136.072134 
L 150.459843 212.830125 
L 150.967623 154.117009 
L 151.475404 150.559976 
L 151.983184 212.618331 
L 152.490965 138.513237 
L 152.998745 107.262777 
L 153.506526 147.060683 
L 154.014306 123.861269 
L 154.522087 60.951364 
L 155.029867 130.30055 
L 155.537648 109.883252 
L 156.045428 48.242599 
L 156.553209 100.088793 
L 157.060989 100.032796 
L 157.56877 36.391754 
L 158.07655 103.809113 
L 158.584331 109.20022 
L 159.092111 55.532446 
L 160.107672 128.306991 
L 160.615453 89.565264 
L 161.631014 174.816382 
L 162.138794 124.954466 
L 162.646575 147.88666 
L 163.154355 206.778424 
L 163.662136 135.527597 
L 164.169916 144.647523 
L 164.677697 183.030967 
L 165.185477 151.603875 
L 165.693258 112.831416 
L 166.201038 157.261751 
L 166.708819 121.313849 
L 167.216599 77.264977 
L 167.72438 116.186656 
L 168.23216 87.903214 
L 168.739941 51.389388 
L 169.247722 97.141779 
L 169.755502 105.28175 
L 170.263283 31.390125 
L 170.771063 100.582542 
L 171.278844 105.265234 
L 171.786624 80.047113 
L 172.294405 106.15469 
L 172.802185 147.445854 
L 173.309966 101.433106 
L 173.817746 133.134229 
L 174.325527 181.947141 
L 174.833307 116.431382 
L 175.341088 143.992873 
L 175.848868 193.167157 
L 176.356649 136.717752 
L 176.864429 141.922856 
L 177.37221 205.097142 
L 177.87999 130.102059 
L 178.387771 114.337544 
L 178.895551 150.996469 
L 179.403332 122.743917 
L 179.911112 78.332974 
L 180.418893 125.845782 
L 180.926673 110.29736 
L 181.434454 63.616359 
L 181.942234 89.793877 
L 182.450015 102.555709 
L 182.957795 47.628747 
L 183.465576 99.113231 
L 183.973356 108.244747 
L 184.481137 70.602075 
L 184.988917 96.464168 
L 185.496698 147.701427 
L 186.004478 83.027906 
L 187.020039 169.085826 
L 187.52782 116.660792 
L 188.0356 135.702125 
L 188.543381 203.493349 
L 189.051161 131.34621 
L 189.558942 129.15935 
L 190.066722 175.509427 
L 191.082283 103.716214 
L 191.590064 156.395063 
L 192.097844 106.953877 
L 192.605625 79.963756 
L 193.113405 122.348541 
L 193.621186 112.343342 
L 194.128966 56.947505 
L 194.636747 81.677355 
L 195.144527 87.215226 
L 195.652308 55.335716 
L 196.160088 96.227156 
L 196.667869 117.371664 
L 197.175649 80.893694 
L 197.68343 114.203571 
L 198.19121 124.906451 
L 198.698991 93.002275 
L 199.714552 167.956129 
L 200.222332 117.644874 
L 200.730113 144.592572 
L 201.237894 178.007919 
L 201.745674 150.437397 
L 202.253455 140.212244 
L 202.761235 167.2679 
L 203.269016 150.856635 
L 203.776796 112.45914 
L 204.284577 158.033139 
L 204.792357 126.894025 
L 205.300138 85.418636 
L 205.807918 118.36217 
L 206.315699 102.058232 
L 206.823479 52.40127 
L 207.33126 81.967467 
L 207.83904 83.903764 
L 208.346821 36.554281 
L 209.362382 110.880642 
L 209.870162 67.126886 
L 210.885723 139.503177 
L 211.393504 88.682025 
L 211.901284 122.555636 
L 212.409065 171.352541 
L 212.916845 138.608631 
L 213.424626 150.1516 
L 213.932406 179.543648 
L 214.440187 142.594606 
L 214.947967 129.085459 
L 215.455748 156.718513 
L 216.471309 125.784988 
L 216.979089 167.657093 
L 217.48687 116.531076 
L 217.99465 80.144831 
L 218.502431 123.747583 
L 219.010211 112.882441 
L 219.517992 56.867702 
L 220.025772 97.222152 
L 220.533553 96.629266 
L 221.041333 45.15611 
L 221.549114 92.794818 
L 222.056894 107.133399 
L 222.564675 70.698526 
L 223.072455 107.320769 
L 223.580236 131.941119 
L 224.088016 101.963646 
L 224.595797 123.652672 
L 225.103577 179.808887 
L 225.611358 111.993946 
L 226.626919 180.475792 
L 227.134699 144.371749 
L 227.64248 134.424018 
L 228.15026 175.777422 
L 228.658041 134.138576 
L 229.165821 130.108722 
L 229.673602 158.543088 
L 230.689163 86.024526 
L 231.196943 115.545598 
L 231.704724 95.931994 
L 232.212504 45.376882 
L 232.720285 100.3272 
L 233.228065 105.964859 
L 233.735846 45.612673 
L 234.243627 99.75859 
L 234.751407 112.866444 
L 235.259188 63.769703 
L 235.766968 117.391122 
L 236.274749 136.054721 
L 236.782529 115.395567 
L 237.29031 140.094422 
L 237.79809 172.188082 
L 238.305871 126.649693 
L 238.813651 121.364488 
L 239.321432 172.591427 
L 239.829212 148.892243 
L 240.336993 150.001252 
L 240.844773 197.186229 
L 241.352554 139.800057 
L 241.860334 111.279199 
L 242.368115 164.369192 
L 242.875895 129.346074 
L 243.383676 68.114055 
L 243.891456 119.075782 
L 244.399237 107.506351 
L 244.907017 41.22598 
L 245.414798 100.583186 
L 245.922578 109.998457 
L 246.430359 42.993253 
L 246.938139 85.875438 
L 247.44592 109.434026 
L 247.9537 59.837813 
L 248.461481 110.660048 
L 248.969261 139.417271 
L 249.477042 92.013839 
L 249.984822 130.114103 
L 250.492603 189.86017 
L 251.000383 130.950297 
L 251.508164 123.173977 
L 252.015944 182.567112 
L 252.523725 141.726995 
L 253.031505 151.971507 
L 253.539286 181.375415 
L 254.047066 151.908078 
L 254.554847 110.036748 
L 255.062627 167.14047 
L 255.570408 130.330641 
L 256.078188 66.502326 
L 256.585969 129.307465 
L 257.093749 107.17272 
L 257.60153 59.811246 
L 258.10931 102.720772 
L 258.617091 89.099612 
L 259.124871 53.309279 
L 259.632652 83.873028 
L 260.140432 102.403359 
L 260.648213 75.205249 
L 261.663774 143.057897 
L 262.171554 85.53567 
L 262.679335 134.986207 
L 263.187115 159.750528 
L 263.694896 117.820899 
L 264.710457 189.088592 
L 265.218237 130.8806 
L 265.726018 136.909177 
L 266.233799 191.605647 
L 267.24936 98.813291 
L 267.75714 145.039538 
L 268.264921 118.637461 
L 268.772701 82.836238 
L 269.280482 133.246946 
L 269.788262 98.892395 
L 270.296043 51.141255 
L 270.803823 112.765238 
L 271.311604 103.084184 
L 271.819384 35.588081 
L 272.327165 100.357108 
L 272.834945 98.588308 
L 273.342726 64.763788 
L 274.358287 141.244459 
L 274.866067 105.843811 
L 275.373848 154.700898 
L 275.881628 171.463652 
L 276.389409 139.364294 
L 276.897189 143.640263 
L 277.40497 186.782902 
L 277.91275 129.212363 
L 278.420531 136.044556 
L 278.928311 185.655551 
L 279.436092 116.569527 
L 279.943872 126.00172 
L 280.451653 160.681236 
L 280.959433 114.987199 
L 281.467214 92.376362 
L 281.974994 124.746648 
L 282.482775 99.048491 
L 282.990555 51.546521 
L 283.498336 105.129232 
L 284.006116 104.993229 
L 284.513897 47.024667 
L 285.021677 87.384944 
L 285.529458 100.203683 
L 286.037238 64.069261 
L 286.545019 105.540634 
L 287.052799 159.772499 
L 287.56058 103.451729 
L 288.06836 121.092993 
L 288.576141 184.934254 
L 289.083921 110.15466 
L 290.099482 186.929795 
L 290.607263 151.244744 
L 291.115043 138.313 
L 291.622824 178.596125 
L 292.638385 106.406446 
L 293.146165 179.052848 
L 294.161726 77.469841 
L 294.669507 109.395098 
L 295.177287 94.464871 
L 295.685068 52.128527 
L 296.192848 74.722934 
L 296.700629 90.799512 
L 297.208409 36.528793 
L 297.71619 100.688954 
L 298.22397 110.881266 
L 298.731751 63.118477 
L 299.239532 106.928857 
L 299.747312 132.755246 
L 300.255093 98.496488 
L 300.762873 124.131455 
L 301.270654 180.738359 
L 301.778434 110.232065 
L 302.793995 200.326904 
L 303.301776 127.46896 
L 303.809556 137.415411 
L 304.317337 177.350868 
L 304.825117 144.272526 
L 305.332898 128.873995 
L 305.840678 162.290591 
L 306.348459 105.080535 
L 306.856239 82.381894 
L 307.36402 134.851071 
L 308.379581 57.285166 
L 308.887361 91.184318 
L 309.395142 86.103369 
L 309.902922 49.473251 
L 310.410703 103.908898 
L 310.918483 130.495285 
L 311.426264 67.392283 
L 312.441825 148.317993 
L 312.949605 101.574953 
L 313.457386 128.246336 
L 313.965166 170.252024 
L 314.472947 121.160893 
L 314.980727 131.207245 
L 315.488508 203.927794 
L 315.996288 139.897991 
L 316.504069 155.874913 
L 317.011849 201.333669 
L 317.51963 129.480122 
L 318.02741 100.078698 
L 318.535191 147.777871 
L 319.042971 114.168326 
L 319.550752 89.756833 
L 320.058532 130.973206 
L 320.566313 103.722641 
L 321.074093 56.563682 
L 321.581874 101.185454 
L 322.089654 105.740868 
L 322.597435 52.578162 
L 323.105215 83.068473 
L 323.612996 106.624223 
L 324.120776 58.778158 
L 324.628557 114.091679 
L 325.136337 140.846926 
L 325.644118 106.353949 
L 326.151898 123.532145 
L 326.659679 180.5923 
L 327.167459 121.895401 
L 327.67524 135.899212 
L 328.18302 190.789594 
L 328.690801 144.089417 
L 329.198581 139.69605 
L 329.706362 186.266268 
L 330.214142 129.861267 
L 330.721923 105.210645 
L 331.229703 146.292842 
L 331.737484 120.067975 
L 332.245265 85.401106 
L 332.753045 117.871252 
L 333.260826 97.956075 
L 333.768606 43.062463 
L 334.276387 103.46801 
L 334.784167 91.399407 
L 335.291948 66.811752 
L 335.799728 102.296506 
L 336.307509 99.62821 
L 336.815289 64.662744 
L 337.32307 91.945143 
L 337.83085 131.291969 
L 338.338631 100.222336 
L 338.846411 126.151421 
L 339.354192 174.024526 
L 339.861972 130.625387 
L 340.369753 143.81716 
L 340.877533 199.733834 
L 341.385314 156.463164 
L 341.893094 141.495597 
L 342.400875 179.661703 
L 342.908655 157.129905 
L 343.416436 117.411947 
L 343.924216 137.078817 
L 344.431997 129.911452 
L 344.939777 91.433584 
L 345.447558 133.651585 
L 346.463119 63.718327 
L 346.970899 95.989776 
L 347.47868 93.806591 
L 347.98646 55.907536 
L 348.494241 97.927313 
L 349.002021 104.406588 
L 349.509802 51.111013 
L 350.017582 104.483098 
L 350.525363 139.376655 
L 351.033143 94.094841 
L 351.540924 131.882418 
L 352.048704 182.50458 
L 352.556485 134.4816 
L 353.064265 132.205363 
L 353.572046 189.103029 
L 354.079826 148.063019 
L 354.587607 145.980221 
L 355.095387 197.474128 
L 355.603168 136.808837 
L 356.110948 113.554982 
L 356.618729 154.652923 
L 357.63429 71.990439 
L 358.14207 104.617664 
L 358.649851 94.679362 
L 359.157631 48.117422 
L 359.665412 86.53147 
L 360.173192 97.426118 
L 360.680973 38.208233 
L 361.188753 95.361604 
L 361.696534 117.691451 
L 362.204314 70.20434 
L 363.219875 137.983104 
L 363.727656 95.622059 
L 364.235437 121.74226 
L 364.743217 171.104385 
L 365.250998 118.134012 
L 365.758778 137.174009 
L 366.266559 199.637503 
L 366.774339 147.11949 
L 367.28212 130.788841 
L 367.7899 182.762525 
L 368.805461 108.122713 
L 369.313242 156.077013 
L 370.328803 80.426526 
L 370.836583 135.157487 
L 371.852144 51.952692 
L 372.359925 101.288762 
L 372.867705 92.310282 
L 373.375486 38.591812 
L 373.883266 89.499475 
L 374.391047 113.67517 
L 374.898827 69.339906 
L 375.914388 154.00482 
L 376.422169 97.184148 
L 376.929949 135.440567 
L 377.43773 159.129014 
L 377.94551 116.877185 
L 378.453291 142.36894 
L 378.961071 191.810177 
L 379.468852 161.207087 
L 379.976632 150.566843 
L 380.484413 175.670121 
L 380.992193 145.559271 
L 381.499974 108.214437 
L 382.007754 163.402384 
L 383.023315 76.213487 
L 383.531096 125.979797 
L 384.038876 107.151233 
L 384.546657 52.343021 
L 385.054437 107.738967 
L 385.562218 85.08593 
L 386.069998 44.64494 
L 386.577779 91.060106 
L 387.085559 112.839426 
L 387.59334 71.105902 
L 388.10112 112.010825 
L 388.608901 122.940184 
L 389.116681 94.294145 
L 390.132242 153.576964 
L 390.640023 128.249675 
L 391.147803 140.434299 
L 391.655584 199.384248 
L 392.163364 155.212369 
L 392.671145 128.643948 
L 393.178925 174.812522 
L 394.194486 105.805284 
L 394.702267 168.230821 
L 395.210047 110.964348 
L 395.717828 86.941413 
L 396.225608 124.522908 
L 396.733389 103.509809 
L 397.24117 64.898479 
L 397.74895 100.337868 
L 398.256731 109.783496 
L 398.764511 52.411757 
L 399.780072 124.677019 
L 400.287853 64.38464 
L 400.795633 118.994118 
L 401.303414 149.632047 
L 401.811194 96.431559 
L 402.318975 133.919296 
L 402.826755 159.1059 
L 403.334536 130.718582 
L 403.842316 145.767397 
L 404.350097 194.810372 
L 404.857877 150.699013 
L 405.365658 125.5792 
L 405.873438 176.521875 
L 406.888999 119.808302 
L 407.39678 163.830967 
L 407.90456 108.761845 
L 408.412341 69.323629 
L 408.920121 120.557127 
L 409.427902 116.389718 
L 409.935682 56.622554 
L 410.443463 103.387949 
L 410.951243 106.62332 
L 411.459024 49.368042 
L 411.966804 94.961832 
L 412.474585 105.108219 
L 412.982365 51.624163 
L 413.997926 158.921418 
L 414.505707 96.363876 
L 415.013487 123.769079 
L 415.521268 177.817915 
L 416.029048 153.860836 
L 416.536829 150.66575 
L 417.044609 192.320962 
L 417.55239 126.28115 
L 418.06017 148.58092 
L 418.567951 191.182056 
L 419.583512 111.502462 
L 420.091292 148.845731 
L 421.106853 76.156938 
L 421.614634 116.556881 
L 422.630195 54.009248 
L 423.137975 106.08144 
L 423.645756 79.259982 
L 424.153536 36.550566 
L 424.661317 85.026348 
L 425.169097 119.394759 
L 425.676878 53.113966 
L 426.184658 113.423831 
L 426.692439 145.192543 
L 427.200219 86.309331 
L 427.708 121.276476 
L 428.21578 173.609727 
L 428.723561 125.135589 
L 429.231341 136.495254 
L 429.739122 191.624858 
L 430.246903 157.750912 
L 430.754683 139.881041 
L 431.262464 180.129869 
L 431.770244 118.303934 
L 432.278025 107.700646 
L 432.785805 167.338715 
L 433.801366 78.301836 
L 434.309147 121.09547 
L 434.816927 107.390957 
L 435.324708 52.156908 
L 435.832488 87.30031 
L 436.340269 94.288809 
L 436.848049 38.132943 
L 437.35583 103.132882 
L 437.86361 114.144396 
L 438.371391 55.205469 
L 438.879171 104.788965 
L 439.386952 138.647475 
L 439.894732 97.393806 
L 440.402513 122.862515 
L 440.910293 174.785496 
L 441.418074 125.047047 
L 441.925854 154.838498 
L 442.433635 195.234336 
L 442.941415 144.1417 
L 443.449196 135.150262 
L 443.956976 198.441019 
L 444.464757 139.773791 
L 444.972537 102.962877 
L 445.480318 167.921092 
L 446.495879 78.160789 
L 447.003659 111.139888 
L 447.51144 104.818498 
L 448.01922 58.220544 
L 448.527001 84.671747 
L 449.034781 78.195768 
L 449.542562 60.583624 
L 450.050342 109.764748 
L 450.558123 104.036129 
L 451.065903 64.129693 
L 452.081464 147.814673 
L 452.589245 93.322966 
L 453.097025 120.333921 
L 453.604806 168.555624 
L 454.112586 123.498025 
L 454.620367 131.474012 
L 455.128147 183.976034 
L 455.635928 139.623317 
L 456.143708 150.507807 
L 456.651489 202.361159 
L 457.159269 134.650625 
L 457.66705 101.474179 
L 458.17483 141.603573 
L 458.682611 116.105462 
L 459.190391 71.986454 
L 459.698172 136.354831 
L 460.205952 84.564615 
L 460.713733 70.671772 
L 461.221513 104.222213 
L 461.729294 90.500319 
L 462.237075 55.488925 
L 462.744855 103.195581 
L 463.252636 116.134128 
L 463.760416 49.538681 
L 464.268197 119.512851 
L 464.775977 131.608338 
L 465.283758 83.799394 
L 465.791538 115.169282 
L 466.299319 169.588472 
L 466.807099 141.377788 
L 467.31488 136.359459 
L 467.82266 198.48166 
L 468.330441 138.07542 
L 468.838221 152.340556 
L 469.346002 187.018155 
L 469.853782 143.062798 
L 470.361563 112.595939 
L 470.869343 176.082217 
L 471.377124 115.270622 
L 471.884904 89.73862 
L 472.392685 128.120786 
L 472.900465 90.500351 
L 473.408246 43.885572 
L 473.916026 103.709662 
L 474.423807 95.834726 
L 474.931587 74.947574 
L 475.439368 108.94547 
L 475.947148 102.263339 
L 476.454929 76.513721 
L 476.962709 95.410897 
L 477.47049 143.663699 
L 477.97827 82.206867 
L 478.486051 144.726638 
L 478.993831 169.767187 
L 479.501612 137.449879 
L 480.009392 136.339646 
L 480.517173 200.405757 
L 481.024953 139.86432 
L 481.532734 126.941412 
L 482.040514 180.97692 
L 482.548295 136.191158 
L 483.056075 117.754527 
L 483.563856 151.393748 
L 484.579417 80.245715 
L 485.087197 121.321003 
L 485.594978 94.246 
L 486.102758 44.101094 
L 486.610539 105.391963 
L 487.118319 101.544832 
L 487.6261 53.490814 
L 488.13388 100.953079 
L 488.641661 114.018427 
L 489.149441 66.031254 
L 489.657222 105.213077 
L 490.165002 133.517009 
L 490.672783 93.695445 
L 491.180563 143.669733 
L 491.688344 160.30931 
L 492.196124 120.743694 
L 492.703905 152.779781 
L 493.211685 201.576707 
L 493.719466 142.572936 
L 494.227246 139.066323 
L 494.735027 182.089229 
L 495.242808 124.896986 
L 495.750588 115.256035 
L 496.258369 163.475423 
L 496.766149 116.926827 
L 497.27393 88.083498 
L 497.78171 113.857497 
L 498.289491 89.776283 
L 498.797271 48.66766 
L 499.305052 111.592328 
L 499.812832 92.861724 
L 500.320613 53.134141 
L 500.828393 107.163184 
L 501.336174 101.236626 
L 501.843954 60.867764 
L 502.351735 93.043958 
L 502.859515 145.301368 
L 503.367296 78.451764 
L 504.382857 177.615096 
L 504.890637 114.561938 
L 505.398418 152.042718 
L 505.906198 179.139829 
L 506.413979 133.667438 
L 506.921759 149.223554 
L 507.42954 187.349877 
L 507.93732 127.684983 
L 508.445101 107.664912 
L 508.952881 156.141667 
L 509.968442 78.083044 
L 510.476223 133.658068 
L 511.491784 58.41172 
L 511.999564 92.398644 
L 512.507345 112.558618 
L 513.015125 44.459403 
L 513.522906 103.92675 
L 514.030686 107.909508 
L 514.538467 59.466653 
L 515.046247 94.434604 
L 515.554028 139.240217 
L 516.061808 96.188101 
L 516.569589 137.157925 
L 517.077369 165.221871 
L 517.58515 138.262383 
L 518.09293 142.232425 
L 518.600711 189.695112 
L 519.108491 138.101983 
L 519.616272 127.635771 
L 520.124052 183.792855 
L 520.631833 138.483441 
L 521.139613 118.121245 
L 521.647394 155.080497 
L 522.155174 122.582777 
L 522.662955 73.485295 
L 523.170735 129.272525 
L 524.186296 60.749823 
L 524.694077 94.908053 
L 525.201857 105.184363 
L 525.709638 50.003422 
L 526.217418 86.874046 
L 526.725199 113.813139 
L 527.232979 74.192232 
L 527.74076 95.965521 
L 528.248541 139.482843 
L 528.756321 86.594232 
L 529.264102 117.141718 
L 529.771882 172.320497 
L 530.279663 145.0533 
L 530.787443 141.403337 
L 531.295224 196.384149 
L 531.803004 147.706067 
L 532.310785 134.450666 
L 532.818565 196.098472 
L 533.326346 146.654964 
L 533.834126 111.232081 
L 534.341907 158.505594 
L 535.357468 75.799068 
L 535.865248 133.286579 
L 536.880809 54.093455 
L 537.38859 103.967208 
L 537.89637 84.813918 
L 538.404151 44.784272 
L 538.911931 95.483126 
L 539.419712 110.816618 
L 539.927492 78.787861 
L 540.435273 105.977852 
L 540.943053 147.250905 
L 541.450834 98.432712 
L 541.958614 112.282166 
L 542.466395 172.781867 
L 542.974175 124.804734 
L 543.481956 152.405635 
L 543.989736 202.745707 
L 544.497517 145.94854 
L 545.005297 132.679613 
L 545.513078 184.16685 
L 546.020858 141.329761 
L 546.528639 116.580916 
L 547.036419 165.457407 
L 548.05198 83.692131 
L 548.559761 117.396698 
L 549.067541 93.524077 
L 549.575322 49.589553 
L 550.083102 86.966871 
L 550.590883 103.696157 
L 551.098663 35.275367 
L 551.606444 95.366019 
L 552.114224 115.258198 
L 552.622005 54.753918 
L 553.129785 117.333997 
L 553.637566 129.524524 
L 554.145346 84.586537 
L 555.160907 177.074235 
L 555.668688 130.878503 
L 556.176468 140.65423 
L 556.684249 168.836606 
L 557.192029 141.346117 
L 557.69981 139.195187 
L 558.20759 194.542079 
L 558.715371 148.117492 
L 559.223151 121.08139 
L 559.730932 174.922883 
L 560.746493 82.397126 
L 561.254274 110.930994 
L 561.762054 109.391387 
L 562.269835 48.665309 
L 562.777615 96.290169 
L 563.285396 101.921217 
L 563.793176 46.144372 
L 564.300957 87.217905 
L 564.808737 97.520795 
L 565.316518 79.276413 
L 565.824298 99.064707 
L 566.332079 132.352096 
L 566.839859 88.261277 
L 567.85542 179.34626 
L 568.363201 125.494194 
L 568.870981 141.827448 
L 569.378762 188.259126 
L 569.886542 147.999142 
L 570.394323 137.925925 
L 570.902103 183.874425 
L 571.917664 114.91139 
L 572.425445 156.446518 
L 572.933225 112.759705 
L 573.441006 88.600503 
L 573.948786 125.614156 
L 574.964347 60.250333 
L 575.472128 95.719209 
L 575.979908 109.73353 
L 576.487689 57.121149 
L 577.50325 122.858145 
L 578.01103 58.900388 
L 579.026591 154.855037 
L 579.534372 90.407052 
L 580.042152 145.387462 
L 580.549933 173.560511 
L 581.057713 111.562599 
L 581.565494 130.244839 
L 582.073274 201.674208 
L 582.581055 136.369732 
L 583.088835 138.911373 
L 583.596616 177.444461 
L 584.104396 159.853391 
L 584.612177 112.880364 
L 585.119957 171.131011 
L 585.119957 171.131011 
" clip-path="url(#pc0d7c69779)" style="fill: none; stroke: #1f77b4; stroke-width: 0.9; stroke-linecap: square"/>
   </g>
   <g id="patch_3">
    <path d="M 52.483594 221.902125 
L 52.483594 22.318125 
" style="fill: none; stroke: #000000; stroke-width: 0.8; stroke-linejoin: miter; stroke-linecap: square"/>
   </g>
   <g id="patch_4">
    <path d="M 610.483594 221.902125 
L 610.483594 22.318125 
" style="fill: none; stroke: #000000; stroke-width: 0.8; stroke-linejoin: miter; stroke-linecap: square"/>
   </g>
   <g id="patch_5">
    <path d="M 52.483594 221.902125 
L 610.483594 221.902125 
" style="fill: none; stroke: #000000; stroke-width: 0.8; stroke-linejoin: miter; stroke-linecap: square"/>
   </g>
   <g id="patch_6">
    <path d="M 52.483594 22.318125 
L 610.483594 22.318125 
" style="fill: none; stroke: #000000; stroke-width: 0.8; stroke-linejoin: miter; stroke-linecap: square"/>
   </g>
   <g id="text_14">
    <!-- Raw full-signal waveform -->
    <g transform="translate(256.072031 16.318125) scale(0.12 -0.12)">
     <defs>
      <path id="DejaVuSans-35" d="M 2841 2188 
Q 3044 2119 3236 1894 
Q 3428 1669 3622 1275 
L 4263 0 
L 3584 0 
L 2988 1197 
Q 2756 1666 2539 1819 
Q 2322 1972 1947 1972 
L 1259 1972 
L 1259 0 
L 628 0 
L 628 4666 
L 2053 4666 
Q 2853 4666 3247 4331 
Q 3641 3997 3641 3322 
Q 3641 2881 3436 2590 
Q 3231 2300 2841 2188 
z
M 1259 4147 
L 1259 2491 
L 2053 2491 
Q 2509 2491 2742 2702 
Q 2975 2913 2975 3322 
Q 2975 3731 2742 3939 
Q 2509 4147 2053 4147 
L 1259 4147 
z
" transform="scale(0.015625)"/>
      <path id="DejaVuSans-5a" d="M 269 3500 
L 844 3500 
L 1563 769 
L 2278 3500 
L 2956 3500 
L 3675 769 
L 4391 3500 
L 4966 3500 
L 4050 0 
L 3372 0 
L 2619 2869 
L 1863 0 
L 1184 0 
L 269 3500 
z
" transform="scale(0.015625)"/>
      <path id="DejaVuSans-49" d="M 2375 4863 
L 2375 4384 
L 1825 4384 
Q 1516 4384 1395 4259 
Q 1275 4134 1275 3809 
L 1275 3500 
L 2222 3500 
L 2222 3053 
L 1275 3053 
L 1275 0 
L 697 0 
L 697 3053 
L 147 3053 
L 147 3500 
L 697 3500 
L 697 3744 
Q 697 4328 969 4595 
Q 1241 4863 1831 4863 
L 2375 4863 
z
" transform="scale(0.015625)"/>
      <path id="DejaVuSans-10" d="M 313 2009 
L 1997 2009 
L 1997 1497 
L 313 1497 
L 313 2009 
z
" transform="scale(0.015625)"/>
      <path id="DejaVuSans-4a" d="M 2906 1791 
Q 2906 2416 2648 2759 
Q 2391 3103 1925 3103 
Q 1463 3103 1205 2759 
Q 947 2416 947 1791 
Q 947 1169 1205 825 
Q 1463 481 1925 481 
Q 2391 481 2648 825 
Q 2906 1169 2906 1791 
z
M 3481 434 
Q 3481 -459 3084 -895 
Q 2688 -1331 1869 -1331 
Q 1566 -1331 1297 -1286 
Q 1028 -1241 775 -1147 
L 775 -588 
Q 1028 -725 1275 -790 
Q 1522 -856 1778 -856 
Q 2344 -856 2625 -561 
Q 2906 -266 2906 331 
L 2906 616 
Q 2728 306 2450 153 
Q 2172 0 1784 0 
Q 1141 0 747 490 
Q 353 981 353 1791 
Q 353 2603 747 3093 
Q 1141 3584 1784 3584 
Q 2172 3584 2450 3431 
Q 2728 3278 2906 2969 
L 2906 3500 
L 3481 3500 
L 3481 434 
z
" transform="scale(0.015625)"/>
      <path id="DejaVuSans-59" d="M 191 3500 
L 800 3500 
L 1894 563 
L 2988 3500 
L 3597 3500 
L 2284 0 
L 1503 0 
L 191 3500 
z
" transform="scale(0.015625)"/>
      <path id="DejaVuSans-52" d="M 1959 3097 
Q 1497 3097 1228 2736 
Q 959 2375 959 1747 
Q 959 1119 1226 758 
Q 1494 397 1959 397 
Q 2419 397 2687 759 
Q 2956 1122 2956 1747 
Q 2956 2369 2687 2733 
Q 2419 3097 1959 3097 
z
M 1959 3584 
Q 2709 3584 3137 3096 
Q 3566 2609 3566 1747 
Q 3566 888 3137 398 
Q 2709 -91 1959 -91 
Q 1206 -91 779 398 
Q 353 888 353 1747 
Q 353 2609 779 3096 
Q 1206 3584 1959 3584 
z
" transform="scale(0.015625)"/>
      <path id="DejaVuSans-55" d="M 2631 2963 
Q 2534 3019 2420 3045 
Q 2306 3072 2169 3072 
Q 1681 3072 1420 2755 
Q 1159 2438 1159 1844 
L 1159 0 
L 581 0 
L 581 3500 
L 1159 3500 
L 1159 2956 
Q 1341 3275 1631 3429 
Q 1922 3584 2338 3584 
Q 2397 3584 2469 3576 
Q 2541 3569 2628 3553 
L 2631 2963 
z
" transform="scale(0.015625)"/>
     </defs>
     <use xlink:href="#DejaVuSans-35"/>
     <use xlink:href="#DejaVuSans-44" transform="translate(67.28125 0)"/>
     <use xlink:href="#DejaVuSans-5a" transform="translate(128.5625 0)"/>
     <use xlink:href="#DejaVuSans-3" transform="translate(210.34375 0)"/>
     <use xlink:href="#DejaVuSans-49" transform="translate(242.125 0)"/>
     <use xlink:href="#DejaVuSans-58" transform="translate(277.328125 0)"/>
     <use xlink:href="#DejaVuSans-4f" transform="translate(340.703125 0)"/>
     <use xlink:href="#DejaVuSans-4f" transform="translate(368.484375 0)"/>
     <use xlink:href="#DejaVuSans-10" transform="translate(396.265625 0)"/>
     <use xlink:href="#DejaVuSans-56" transform="translate(432.34375 0)"/>
     <use xlink:href="#DejaVuSans-4c" transform="translate(484.4375 0)"/>
     <use xlink:href="#DejaVuSans-4a" transform="translate(512.21875 0)"/>
     <use xlink:href="#DejaVuSans-51" transform="translate(575.703125 0)"/>
     <use xlink:href="#DejaVuSans-44" transform="translate(639.078125 0)"/>
     <use xlink:href="#DejaVuSans-4f" transform="translate(700.359375 0)"/>
     <use xlink:href="#DejaVuSans-3" transform="translate(728.140625 0)"/>
     <use xlink:href="#DejaVuSans-5a" transform="translate(759.921875 0)"/>
     <use xlink:href="#DejaVuSans-44" transform="translate(841.703125 0)"/>
     <use xlink:href="#DejaVuSans-59" transform="translate(902.984375 0)"/>
     <use xlink:href="#DejaVuSans-48" transform="translate(962.171875 0)"/>
     <use xlink:href="#DejaVuSans-49" transform="translate(1023.703125 0)"/>
     <use xlink:href="#DejaVuSans-52" transform="translate(1058.90625 0)"/>
     <use xlink:href="#DejaVuSans-55" transform="translate(1120.09375 0)"/>
     <use xlink:href="#DejaVuSans-50" transform="translate(1159.453125 0)"/>
    </g>
   </g>
  </g>
 </g>
 <defs>
  <clipPath id="pc0d7c69779">
   <rect x="52.483594" y="22.318125" width="558" height="199.584"/>
  </clipPath>
 </defs>
</svg>
