<?xml version="1.0" encoding="utf-8" standalone="no"?>
<!DOCTYPE svg PUBLIC "-//W3C//DTD SVG 1.1//EN"
  "http://www.w3.org/Graphics/SVG/1.1/DTD/svg11.dtd">
<svg xmlns:xlink="http://www.w3.org/1999/xlink" width="665.103906pt" height="323.718125pt" viewBox="0 0 665.103906 323.718125" xmlns="http://www.w3.org/2000/svg" version="1.1">
 <metadata>
  <rdf:RDF xmlns:dc="http://purl.org/dc/elements/1.1/" xmlns:cc="http://creativecommons.org/ns#" xmlns:rdf="http://www.w3.org/1999/02/22-rdf-syntax-ns#">
   <cc:Work>
    <dc:type rdf:resource="http://purl.org/dc/dcmitype/StillImage"/>
    <dc:date>2026-07-14T07:01:48.698009</dc:date>
    <dc:format>image/svg+xml</dc:format>
    <dc:creator>
     <cc:Agent>
      <dc:title>Matplotlib v3.11.0, https://matplotlib.org/</dc:title>
     </cc:Agent>
    </dc:creator>
   </cc:Work>
  </rdf:RDF>
 </metadata>
 <defs>
  <style type="text/css">*{stroke-linejoin: round; stroke-linecap: butt}</style>
 </defs>
 <g id="figure_1">
  <g id="patch_1">
   <path d="M 0 323.718125 
L 665.103906 323.718125 
L 665.103906 0 
L 0 0 
z
" style="fill: #ffffff"/>
  </g>
  <g id="axes_1">
   <g id="patch_2">
    <path d="M 44.103906 299.518125 
L 657.903906 299.518125 
L 657.903906 22.318125 
L 44.103906 22.318125 
z
" style="fill: #ffffff"/>
   </g>
   <g id="patch_3">
    <path d="M 72.003906 299.518125 
L 94.779416 299.518125 
L 94.779416 164.540653 
L 72.003906 164.540653 
z
" clip-path="url(#p02c7ac8d05)" style="fill: #1f77b4"/>
   </g>
   <g id="patch_4">
    <path d="M 271.289621 299.518125 
L 294.065131 299.518125 
L 294.065131 113.86527 
L 271.289621 113.86527 
z
" clip-path="url(#p02c7ac8d05)" style="fill: #1f77b4"/>
   </g>
   <g id="patch_5">
    <path d="M 470.575335 299.518125 
L 493.350845 299.518125 
L 493.350845 259.110147 
L 470.575335 259.110147 
z
" clip-path="url(#p02c7ac8d05)" style="fill: #1f77b4"/>
   </g>
   <g id="patch_6">
    <path d="M 94.779416 299.518125 
L 117.554927 299.518125 
L 117.554927 213.663811 
L 94.779416 213.663811 
z
" clip-path="url(#p02c7ac8d05)" style="fill: #ff7f0e"/>
   </g>
   <g id="patch_7">
    <path d="M 294.065131 299.518125 
L 316.840641 299.518125 
L 316.840641 147.39302 
L 294.065131 147.39302 
z
" clip-path="url(#p02c7ac8d05)" style="fill: #ff7f0e"/>
   </g>
   <g id="patch_8">
    <path d="M 493.350845 299.518125 
L 516.126355 299.518125 
L 516.126355 273.429839 
L 493.350845 273.429839 
z
" clip-path="url(#p02c7ac8d05)" style="fill: #ff7f0e"/>
   </g>
   <g id="patch_9">
    <path d="M 117.554927 299.518125 
L 140.330437 299.518125 
L 140.330437 299.518125 
L 117.554927 299.518125 
z
" clip-path="url(#p02c7ac8d05)" style="fill: #2ca02c"/>
   </g>
   <g id="patch_10">
    <path d="M 316.840641 299.518125 
L 339.616151 299.518125 
L 339.616151 299.518125 
L 316.840641 299.518125 
z
" clip-path="url(#p02c7ac8d05)" style="fill: #2ca02c"/>
   </g>
   <g id="patch_11">
    <path d="M 516.126355 299.518125 
L 538.901865 299.518125 
L 538.901865 272.906889 
L 516.126355 272.906889 
z
" clip-path="url(#p02c7ac8d05)" style="fill: #2ca02c"/>
   </g>
   <g id="patch_12">
    <path d="M 140.330437 299.518125 
L 163.105947 299.518125 
L 163.105947 58.706225 
L 140.330437 58.706225 
z
" clip-path="url(#p02c7ac8d05)" style="fill: #d62728"/>
   </g>
   <g id="patch_13">
    <path d="M 339.616151 299.518125 
L 362.391661 299.518125 
L 362.391661 299.490699 
L 339.616151 299.490699 
z
" clip-path="url(#p02c7ac8d05)" style="fill: #d62728"/>
   </g>
   <g id="patch_14">
    <path d="M 538.901865 299.518125 
L 561.677376 299.518125 
L 561.677376 299.518111 
L 538.901865 299.518111 
z
" clip-path="url(#p02c7ac8d05)" style="fill: #d62728"/>
   </g>
   <g id="patch_15">
    <path d="M 163.105947 299.518125 
L 185.881457 299.518125 
L 185.881457 291.417235 
L 163.105947 291.417235 
z
" clip-path="url(#p02c7ac8d05)" style="fill: #9467bd"/>
   </g>
   <g id="patch_16">
    <path d="M 362.391661 299.518125 
L 385.167172 299.518125 
L 385.167172 43.602665 
L 362.391661 43.602665 
z
" clip-path="url(#p02c7ac8d05)" style="fill: #9467bd"/>
   </g>
   <g id="patch_17">
    <path d="M 561.677376 299.518125 
L 584.452886 299.518125 
L 584.452886 35.518125 
L 561.677376 35.518125 
z
" clip-path="url(#p02c7ac8d05)" style="fill: #9467bd"/>
   </g>
   <g id="patch_18">
    <path d="M 185.881457 299.518125 
L 208.656967 299.518125 
L 208.656967 290.472483 
L 185.881457 290.472483 
z
" clip-path="url(#p02c7ac8d05)" style="fill: #8c564b"/>
   </g>
   <g id="patch_19">
    <path d="M 385.167172 299.518125 
L 407.942682 299.518125 
L 407.942682 41.610017 
L 385.167172 41.610017 
z
" clip-path="url(#p02c7ac8d05)" style="fill: #8c564b"/>
   </g>
   <g id="patch_20">
    <path d="M 584.452886 299.518125 
L 607.228396 299.518125 
L 607.228396 48.438458 
L 584.452886 48.438458 
z
" clip-path="url(#p02c7ac8d05)" style="fill: #8c564b"/>
   </g>
   <g id="patch_21">
    <path d="M 208.656967 299.518125 
L 231.432478 299.518125 
L 231.432478 38.518005 
L 208.656967 38.518005 
z
" clip-path="url(#p02c7ac8d05)" style="fill: #e377c2"/>
   </g>
   <g id="patch_22">
    <path d="M 407.942682 299.518125 
L 430.718192 299.518125 
L 430.718192 299.51376 
L 407.942682 299.51376 
z
" clip-path="url(#p02c7ac8d05)" style="fill: #e377c2"/>
   </g>
   <g id="patch_23">
    <path d="M 607.228396 299.518125 
L 630.003906 299.518125 
L 630.003906 299.5169 
L 607.228396 299.5169 
z
" clip-path="url(#p02c7ac8d05)" style="fill: #e377c2"/>
   </g>
   <g id="matplotlib.axis_1">
    <g id="xtick_1">
     <g id="line2d_1">
      <defs>
       <path id="m10cc28d76b" d="M 0 0 
L 0 3.5 
" style="stroke: #000000; stroke-width: 0.8"/>
      </defs>
      <g>
       <use xlink:href="#m10cc28d76b" x="151.718192" y="299.518125" style="stroke: #000000; stroke-width: 0.8"/>
      </g>
     </g>
     <g id="text_1">
      <!-- IMF 1 -->
      <g transform="translate(138.283036 314.115781) scale(0.1 -0.1)">
       <defs>
        <path id="DejaVuSans-2c" d="M 628 4666 
L 1259 4666 
L 1259 0 
L 628 0 
L 628 4666 
z
" transform="scale(0.015625)"/>
        <path id="DejaVuSans-30" d="M 628 4666 
L 1569 4666 
L 2759 1491 
L 3956 4666 
L 4897 4666 
L 4897 0 
L 4281 0 
L 4281 4097 
L 3078 897 
L 2444 897 
L 1241 4097 
L 1241 0 
L 628 0 
L 628 4666 
z
" transform="scale(0.015625)"/>
        <path id="DejaVuSans-29" d="M 628 4666 
L 3309 4666 
L 3309 4134 
L 1259 4134 
L 1259 2759 
L 3109 2759 
L 3109 2228 
L 1259 2228 
L 1259 0 
L 628 0 
L 628 4666 
z
" transform="scale(0.015625)"/>
        <path id="DejaVuSans-3" transform="scale(0.015625)"/>
        <path id="DejaVuSans-14" d="M 794 531 
L 1825 531 
L 1825 4091 
L 703 3866 
L 703 4441 
L 1819 4666 
L 2450 4666 
L 2450 531 
L 3481 531 
L 3481 0 
L 794 0 
L 794 531 
z
" transform="scale(0.015625)"/>
       </defs>
       <use xlink:href="#DejaVuSans-2c"/>
       <use xlink:href="#DejaVuSans-30" transform="translate(29.5 0)"/>
       <use xlink:href="#DejaVuSans-29" transform="translate(115.78125 0)"/>
       <use xlink:href="#DejaVuSans-3" transform="translate(173.296875 0)"/>
       <use xlink:href="#DejaVuSans-14" transform="translate(205.078125 0)"/>
      </g>
     </g>
    </g>
    <g id="xtick_2">
     <g id="line2d_2">
      <g>
       <use xlink:href="#m10cc28d76b" x="351.003906" y="299.518125" style="stroke: #000000; stroke-width: 0.8"/>
      </g>
     </g>
     <g id="text_2">
      <!-- IMF 2 -->
      <g transform="translate(337.56875 314.115781) scale(0.1 -0.1)">
       <defs>
        <path id="DejaVuSans-15" d="M 1228 531 
L 3431 531 
L 3431 0 
L 469 0 
L 469 531 
Q 828 903 1448 1529 
Q 2069 2156 2228 2338 
Q 2531 2678 2651 2914 
Q 2772 3150 2772 3378 
Q 2772 3750 2511 3984 
Q 2250 4219 1831 4219 
Q 1534 4219 1204 4116 
Q 875 4013 500 3803 
L 500 4441 
Q 881 4594 1212 4672 
Q 1544 4750 1819 4750 
Q 2544 4750 2975 4387 
Q 3406 4025 3406 3419 
Q 3406 3131 3298 2873 
Q 3191 2616 2906 2266 
Q 2828 2175 2409 1742 
Q 1991 1309 1228 531 
z
" transform="scale(0.015625)"/>
       </defs>
       <use xlink:href="#DejaVuSans-2c"/>
       <use xlink:href="#DejaVuSans-30" transform="translate(29.5 0)"/>
       <use xlink:href="#DejaVuSans-29" transform="translate(115.78125 0)"/>
       <use xlink:href="#DejaVuSans-3" transform="translate(173.296875 0)"/>
       <use xlink:href="#DejaVuSans-15" transform="translate(205.078125 0)"/>
      </g>
     </g>
    </g>
    <g id="xtick_3">
     <g id="line2d_3">
      <g>
       <use xlink:href="#m10cc28d76b" x="550.289621" y="299.518125" style="stroke: #000000; stroke-width: 0.8"/>
      </g>
     </g>
     <g id="text_3">
      <!-- IMF 3 -->
      <g transform="translate(536.854464 314.115781) scale(0.1 -0.1)">
       <defs>
        <path id="DejaVuSans-16" d="M 2597 2516 
Q 3050 2419 3304 2112 
Q 3559 1806 3559 1356 
Q 3559 666 3084 287 
Q 2609 -91 1734 -91 
Q 1441 -91 1130 -33 
Q 819 25 488 141 
L 488 750 
Q 750 597 1062 519 
Q 1375 441 1716 441 
Q 2309 441 2620 675 
Q 2931 909 2931 1356 
Q 2931 1769 2642 2001 
Q 2353 2234 1838 2234 
L 1294 2234 
L 1294 2753 
L 1863 2753 
Q 2328 2753 2575 2939 
Q 2822 3125 2822 3475 
Q 2822 3834 2567 4026 
Q 2313 4219 1838 4219 
Q 1578 4219 1281 4162 
Q 984 4106 628 3988 
L 628 4550 
Q 988 4650 1302 4700 
Q 1616 4750 1894 4750 
Q 2613 4750 3031 4423 
Q 3450 4097 3450 3541 
Q 3450 3153 3228 2886 
Q 3006 2619 2597 2516 
z
" transform="scale(0.015625)"/>
       </defs>
       <use xlink:href="#DejaVuSans-2c"/>
       <use xlink:href="#DejaVuSans-30" transform="translate(29.5 0)"/>
       <use xlink:href="#DejaVuSans-29" transform="translate(115.78125 0)"/>
       <use xlink:href="#DejaVuSans-3" transform="translate(173.296875 0)"/>
       <use xlink:href="#DejaVuSans-16" transform="translate(205.078125 0)"/>
      </g>
     </g>
    </g>
   </g>
   <g id="matplotlib.axis_2">
    <g id="ytick_1">
     <g id="line2d_4">
      <path d="M 44.103906 299.518125 
L 657.903906 299.518125 
" clip-path="url(#p02c7ac8d05)" style="fill: none; stroke: #b0b0b0; stroke-opacity: 0.2; stroke-width: 0.8; stroke-linecap: square"/>
     </g>
     <g id="line2d_5">
      <defs>
       <path id="m06a40217e7" d="M 0 0 
L -3.5 0 
" style="stroke: #000000; stroke-width: 0.8"/>
      </defs>
      <g>
       <use xlink:href="#m06a40217e7" x="44.103906" y="299.518125" style="stroke: #000000; stroke-width: 0.8"/>
      </g>
     </g>
     <g id="text_4">
      <!-- 0.0 -->
      <g transform="translate(21.200781 303.316953) scale(0.1 -0.1)">
       <defs>
        <path id="DejaVuSans-13" d="M 2034 4250 
Q 1547 4250 1301 3770 
Q 1056 3291 1056 2328 
Q 1056 1369 1301 889 
Q 1547 409 2034 409 
Q 2525 409 2770 889 
Q 3016 1369 3016 2328 
Q 3016 3291 2770 3770 
Q 2525 4250 2034 4250 
z
M 2034 4750 
Q 2819 4750 3233 4129 
Q 3647 3509 3647 2328 
Q 3647 1150 3233 529 
Q 2819 -91 2034 -91 
Q 1250 -91 836 529 
Q 422 1150 422 2328 
Q 422 3509 836 4129 
Q 1250 4750 2034 4750 
z
" transform="scale(0.015625)"/>
        <path id="DejaVuSans-11" d="M 684 794 
L 1344 794 
L 1344 0 
L 684 0 
L 684 794 
z
" transform="scale(0.015625)"/>
       </defs>
       <use xlink:href="#DejaVuSans-13"/>
       <use xlink:href="#DejaVuSans-11" transform="translate(63.625 0)"/>
       <use xlink:href="#DejaVuSans-13" transform="translate(95.40625 0)"/>
      </g>
     </g>
    </g>
    <g id="ytick_2">
     <g id="line2d_6">
      <path d="M 44.103906 246.704584 
L 657.903906 246.704584 
" clip-path="url(#p02c7ac8d05)" style="fill: none; stroke: #b0b0b0; stroke-opacity: 0.2; stroke-width: 0.8; stroke-linecap: square"/>
     </g>
     <g id="line2d_7">
      <g>
       <use xlink:href="#m06a40217e7" x="44.103906" y="246.704584" style="stroke: #000000; stroke-width: 0.8"/>
      </g>
     </g>
     <g id="text_5">
      <!-- 0.2 -->
      <g transform="translate(21.200781 250.503412) scale(0.1 -0.1)">
       <use xlink:href="#DejaVuSans-13"/>
       <use xlink:href="#DejaVuSans-11" transform="translate(63.625 0)"/>
       <use xlink:href="#DejaVuSans-15" transform="translate(95.40625 0)"/>
      </g>
     </g>
    </g>
    <g id="ytick_3">
     <g id="line2d_8">
      <path d="M 44.103906 193.891043 
L 657.903906 193.891043 
" clip-path="url(#p02c7ac8d05)" style="fill: none; stroke: #b0b0b0; stroke-opacity: 0.2; stroke-width: 0.8; stroke-linecap: square"/>
     </g>
     <g id="line2d_9">
      <g>
       <use xlink:href="#m06a40217e7" x="44.103906" y="193.891043" style="stroke: #000000; stroke-width: 0.8"/>
      </g>
     </g>
     <g id="text_6">
      <!-- 0.4 -->
      <g transform="translate(21.200781 197.689871) scale(0.1 -0.1)">
       <defs>
        <path id="DejaVuSans-17" d="M 2419 4116 
L 825 1625 
L 2419 1625 
L 2419 4116 
z
M 2253 4666 
L 3047 4666 
L 3047 1625 
L 3713 1625 
L 3713 1100 
L 3047 1100 
L 3047 0 
L 2419 0 
L 2419 1100 
L 313 1100 
L 313 1709 
L 2253 4666 
z
" transform="scale(0.015625)"/>
       </defs>
       <use xlink:href="#DejaVuSans-13"/>
       <use xlink:href="#DejaVuSans-11" transform="translate(63.625 0)"/>
       <use xlink:href="#DejaVuSans-17" transform="translate(95.40625 0)"/>
      </g>
     </g>
    </g>
    <g id="ytick_4">
     <g id="line2d_10">
      <path d="M 44.103906 141.077503 
L 657.903906 141.077503 
" clip-path="url(#p02c7ac8d05)" style="fill: none; stroke: #b0b0b0; stroke-opacity: 0.2; stroke-width: 0.8; stroke-linecap: square"/>
     </g>
     <g id="line2d_11">
      <g>
       <use xlink:href="#m06a40217e7" x="44.103906" y="141.077503" style="stroke: #000000; stroke-width: 0.8"/>
      </g>
     </g>
     <g id="text_7">
      <!-- 0.6 -->
      <g transform="translate(21.200781 144.876331) scale(0.1 -0.1)">
       <defs>
        <path id="DejaVuSans-19" d="M 2113 2584 
Q 1688 2584 1439 2293 
Q 1191 2003 1191 1497 
Q 1191 994 1439 701 
Q 1688 409 2113 409 
Q 2538 409 2786 701 
Q 3034 994 3034 1497 
Q 3034 2003 2786 2293 
Q 2538 2584 2113 2584 
z
M 3366 4563 
L 3366 3988 
Q 3128 4100 2886 4159 
Q 2644 4219 2406 4219 
Q 1781 4219 1451 3797 
Q 1122 3375 1075 2522 
Q 1259 2794 1537 2939 
Q 1816 3084 2150 3084 
Q 2853 3084 3261 2657 
Q 3669 2231 3669 1497 
Q 3669 778 3244 343 
Q 2819 -91 2113 -91 
Q 1303 -91 875 529 
Q 447 1150 447 2328 
Q 447 3434 972 4092 
Q 1497 4750 2381 4750 
Q 2619 4750 2861 4703 
Q 3103 4656 3366 4563 
z
" transform="scale(0.015625)"/>
       </defs>
       <use xlink:href="#DejaVuSans-13"/>
       <use xlink:href="#DejaVuSans-11" transform="translate(63.625 0)"/>
       <use xlink:href="#DejaVuSans-19" transform="translate(95.40625 0)"/>
      </g>
     </g>
    </g>
    <g id="ytick_5">
     <g id="line2d_12">
      <path d="M 44.103906 88.263962 
L 657.903906 88.263962 
" clip-path="url(#p02c7ac8d05)" style="fill: none; stroke: #b0b0b0; stroke-opacity: 0.2; stroke-width: 0.8; stroke-linecap: square"/>
     </g>
     <g id="line2d_13">
      <g>
       <use xlink:href="#m06a40217e7" x="44.103906" y="88.263962" style="stroke: #000000; stroke-width: 0.8"/>
      </g>
     </g>
     <g id="text_8">
      <!-- 0.8 -->
      <g transform="translate(21.200781 92.06279) scale(0.1 -0.1)">
       <defs>
        <path id="DejaVuSans-1b" d="M 2034 2216 
Q 1584 2216 1326 1975 
Q 1069 1734 1069 1313 
Q 1069 891 1326 650 
Q 1584 409 2034 409 
Q 2484 409 2743 651 
Q 3003 894 3003 1313 
Q 3003 1734 2745 1975 
Q 2488 2216 2034 2216 
z
M 1403 2484 
Q 997 2584 770 2862 
Q 544 3141 544 3541 
Q 544 4100 942 4425 
Q 1341 4750 2034 4750 
Q 2731 4750 3128 4425 
Q 3525 4100 3525 3541 
Q 3525 3141 3298 2862 
Q 3072 2584 2669 2484 
Q 3125 2378 3379 2068 
Q 3634 1759 3634 1313 
Q 3634 634 3220 271 
Q 2806 -91 2034 -91 
Q 1263 -91 848 271 
Q 434 634 434 1313 
Q 434 1759 690 2068 
Q 947 2378 1403 2484 
z
M 1172 3481 
Q 1172 3119 1398 2916 
Q 1625 2713 2034 2713 
Q 2441 2713 2670 2916 
Q 2900 3119 2900 3481 
Q 2900 3844 2670 4047 
Q 2441 4250 2034 4250 
Q 1625 4250 1398 4047 
Q 1172 3844 1172 3481 
z
" transform="scale(0.015625)"/>
       </defs>
       <use xlink:href="#DejaVuSans-13"/>
       <use xlink:href="#DejaVuSans-11" transform="translate(63.625 0)"/>
       <use xlink:href="#DejaVuSans-1b" transform="translate(95.40625 0)"/>
      </g>
     </g>
    </g>
    <g id="ytick_6">
     <g id="line2d_14">
      <path d="M 44.103906 35.450421 
L 657.903906 35.450421 
" clip-path="url(#p02c7ac8d05)" style="fill: none; stroke: #b0b0b0; stroke-opacity: 0.2; stroke-width: 0.8; stroke-linecap: square"/>
     </g>
     <g id="line2d_15">
      <g>
       <use xlink:href="#m06a40217e7" x="44.103906" y="35.450421" style="stroke: #000000; stroke-width: 0.8"/>
      </g>
     </g>
     <g id="text_9">
      <!-- 1.0 -->
      <g transform="translate(21.200781 39.249249) scale(0.1 -0.1)">
       <use xlink:href="#DejaVuSans-14"/>
       <use xlink:href="#DejaVuSans-11" transform="translate(63.625 0)"/>
       <use xlink:href="#DejaVuSans-13" transform="translate(95.40625 0)"/>
      </g>
     </g>
    </g>
    <g id="text_10">
     <!-- Indicator value -->
     <g transform="translate(14.798438 198.260313) rotate(-90) scale(0.1 -0.1)">
      <defs>
       <path id="DejaVuSans-51" d="M 3513 2113 
L 3513 0 
L 2938 0 
L 2938 2094 
Q 2938 2591 2744 2837 
Q 2550 3084 2163 3084 
Q 1697 3084 1428 2787 
Q 1159 2491 1159 1978 
L 1159 0 
L 581 0 
L 581 3500 
L 1159 3500 
L 1159 2956 
Q 1366 3272 1645 3428 
Q 1925 3584 2291 3584 
Q 2894 3584 3203 3211 
Q 3513 2838 3513 2113 
z
" transform="scale(0.015625)"/>
       <path id="DejaVuSans-47" d="M 2906 2969 
L 2906 4863 
L 3481 4863 
L 3481 0 
L 2906 0 
L 2906 525 
Q 2725 213 2448 61 
Q 2172 -91 1784 -91 
Q 1150 -91 751 415 
Q 353 922 353 1747 
Q 353 2572 751 3078 
Q 1150 3584 1784 3584 
Q 2172 3584 2448 3432 
Q 2725 3281 2906 2969 
z
M 947 1747 
Q 947 1113 1208 752 
Q 1469 391 1925 391 
Q 2381 391 2643 752 
Q 2906 1113 2906 1747 
Q 2906 2381 2643 2742 
Q 2381 3103 1925 3103 
Q 1469 3103 1208 2742 
Q 947 2381 947 1747 
z
" transform="scale(0.015625)"/>
       <path id="DejaVuSans-4c" d="M 603 3500 
L 1178 3500 
L 1178 0 
L 603 0 
L 603 3500 
z
M 603 4863 
L 1178 4863 
L 1178 4134 
L 603 4134 
L 603 4863 
z
" transform="scale(0.015625)"/>
       <path id="DejaVuSans-46" d="M 3122 3366 
L 3122 2828 
Q 2878 2963 2633 3030 
Q 2388 3097 2138 3097 
Q 1578 3097 1268 2742 
Q 959 2388 959 1747 
Q 959 1106 1268 751 
Q 1578 397 2138 397 
Q 2388 397 2633 464 
Q 2878 531 3122 666 
L 3122 134 
Q 2881 22 2623 -34 
Q 2366 -91 2075 -91 
Q 1284 -91 818 406 
Q 353 903 353 1747 
Q 353 2603 823 3093 
Q 1294 3584 2113 3584 
Q 2378 3584 2631 3529 
Q 2884 3475 3122 3366 
z
" transform="scale(0.015625)"/>
       <path id="DejaVuSans-44" d="M 2194 1759 
Q 1497 1759 1228 1600 
Q 959 1441 959 1056 
Q 959 750 1161 570 
Q 1363 391 1709 391 
Q 2188 391 2477 730 
Q 2766 1069 2766 1631 
L 2766 1759 
L 2194 1759 
z
M 3341 1997 
L 3341 0 
L 2766 0 
L 2766 531 
Q 2569 213 2275 61 
Q 1981 -91 1556 -91 
Q 1019 -91 701 211 
Q 384 513 384 1019 
Q 384 1609 779 1909 
Q 1175 2209 1959 2209 
L 2766 2209 
L 2766 2266 
Q 2766 2663 2505 2880 
Q 2244 3097 1772 3097 
Q 1472 3097 1187 3025 
Q 903 2953 641 2809 
L 641 3341 
Q 956 3463 1253 3523 
Q 1550 3584 1831 3584 
Q 2591 3584 2966 3190 
Q 3341 2797 3341 1997 
z
" transform="scale(0.015625)"/>
       <path id="DejaVuSans-57" d="M 1172 4494 
L 1172 3500 
L 2356 3500 
L 2356 3053 
L 1172 3053 
L 1172 1153 
Q 1172 725 1289 603 
Q 1406 481 1766 481 
L 2356 481 
L 2356 0 
L 1766 0 
Q 1100 0 847 248 
Q 594 497 594 1153 
L 594 3053 
L 172 3053 
L 172 3500 
L 594 3500 
L 594 4494 
L 1172 4494 
z
" transform="scale(0.015625)"/>
       <path id="DejaVuSans-52" d="M 1959 3097 
Q 1497 3097 1228 2736 
Q 959 2375 959 1747 
Q 959 1119 1226 758 
Q 1494 397 1959 397 
Q 2419 397 2687 759 
Q 2956 1122 2956 1747 
Q 2956 2369 2687 2733 
Q 2419 3097 1959 3097 
z
M 1959 3584 
Q 2709 3584 3137 3096 
Q 3566 2609 3566 1747 
Q 3566 888 3137 398 
Q 2709 -91 1959 -91 
Q 1206 -91 779 398 
Q 353 888 353 1747 
Q 353 2609 779 3096 
Q 1206 3584 1959 3584 
z
" transform="scale(0.015625)"/>
       <path id="DejaVuSans-55" d="M 2631 2963 
Q 2534 3019 2420 3045 
Q 2306 3072 2169 3072 
Q 1681 3072 1420 2755 
Q 1159 2438 1159 1844 
L 1159 0 
L 581 0 
L 581 3500 
L 1159 3500 
L 1159 2956 
Q 1341 3275 1631 3429 
Q 1922 3584 2338 3584 
Q 2397 3584 2469 3576 
Q 2541 3569 2628 3553 
L 2631 2963 
z
" transform="scale(0.015625)"/>
       <path id="DejaVuSans-59" d="M 191 3500 
L 800 3500 
L 1894 563 
L 2988 3500 
L 3597 3500 
L 2284 0 
L 1503 0 
L 191 3500 
z
" transform="scale(0.015625)"/>
       <path id="DejaVuSans-4f" d="M 603 4863 
L 1178 4863 
L 1178 0 
L 603 0 
L 603 4863 
z
" transform="scale(0.015625)"/>
       <path id="DejaVuSans-58" d="M 544 1381 
L 544 3500 
L 1119 3500 
L 1119 1403 
Q 1119 906 1312 657 
Q 1506 409 1894 409 
Q 2359 409 2629 706 
Q 2900 1003 2900 1516 
L 2900 3500 
L 3475 3500 
L 3475 0 
L 2900 0 
L 2900 538 
Q 2691 219 2414 64 
Q 2138 -91 1772 -91 
Q 1169 -91 856 284 
Q 544 659 544 1381 
z
M 1991 3584 
L 1991 3584 
z
" transform="scale(0.015625)"/>
       <path id="DejaVuSans-48" d="M 3597 1894 
L 3597 1613 
L 953 1613 
Q 991 1019 1311 708 
Q 1631 397 2203 397 
Q 2534 397 2845 478 
Q 3156 559 3463 722 
L 3463 178 
Q 3153 47 2828 -22 
Q 2503 -91 2169 -91 
Q 1331 -91 842 396 
Q 353 884 353 1716 
Q 353 2575 817 3079 
Q 1281 3584 2069 3584 
Q 2775 3584 3186 3129 
Q 3597 2675 3597 1894 
z
M 3022 2063 
Q 3016 2534 2758 2815 
Q 2500 3097 2075 3097 
Q 1594 3097 1305 2825 
Q 1016 2553 972 2059 
L 3022 2063 
z
" transform="scale(0.015625)"/>
      </defs>
      <use xlink:href="#DejaVuSans-2c"/>
      <use xlink:href="#DejaVuSans-51" transform="translate(29.5 0)"/>
      <use xlink:href="#DejaVuSans-47" transform="translate(92.875 0)"/>
      <use xlink:href="#DejaVuSans-4c" transform="translate(156.359375 0)"/>
      <use xlink:href="#DejaVuSans-46" transform="translate(184.140625 0)"/>
      <use xlink:href="#DejaVuSans-44" transform="translate(239.125 0)"/>
      <use xlink:href="#DejaVuSans-57" transform="translate(300.40625 0)"/>
      <use xlink:href="#DejaVuSans-52" transform="translate(339.609375 0)"/>
      <use xlink:href="#DejaVuSans-55" transform="translate(400.796875 0)"/>
      <use xlink:href="#DejaVuSans-3" transform="translate(441.90625 0)"/>
      <use xlink:href="#DejaVuSans-59" transform="translate(473.6875 0)"/>
      <use xlink:href="#DejaVuSans-44" transform="translate(532.875 0)"/>
      <use xlink:href="#DejaVuSans-4f" transform="translate(594.15625 0)"/>
      <use xlink:href="#DejaVuSans-58" transform="translate(621.9375 0)"/>
      <use xlink:href="#DejaVuSans-48" transform="translate(685.3125 0)"/>
     </g>
    </g>
   </g>
   <g id="patch_24">
    <path d="M 44.103906 299.518125 
L 44.103906 22.318125 
" style="fill: none; stroke: #000000; stroke-width: 0.8; stroke-linejoin: miter; stroke-linecap: square"/>
   </g>
   <g id="patch_25">
    <path d="M 657.903906 299.518125 
L 657.903906 22.318125 
" style="fill: none; stroke: #000000; stroke-width: 0.8; stroke-linejoin: miter; stroke-linecap: square"/>
   </g>
   <g id="patch_26">
    <path d="M 44.103906 299.518125 
L 657.903906 299.518125 
" style="fill: none; stroke: #000000; stroke-width: 0.8; stroke-linejoin: miter; stroke-linecap: square"/>
   </g>
   <g id="patch_27">
    <path d="M 44.103906 22.318125 
L 657.903906 22.318125 
" style="fill: none; stroke: #000000; stroke-width: 0.8; stroke-linejoin: miter; stroke-linecap: square"/>
   </g>
   <g id="text_11">
    <!-- IMF indicator comparison -->
    <g transform="translate(275.347656 16.318125) scale(0.12 -0.12)">
     <defs>
      <path id="DejaVuSans-50" d="M 3328 2828 
Q 3544 3216 3844 3400 
Q 4144 3584 4550 3584 
Q 5097 3584 5394 3201 
Q 5691 2819 5691 2113 
L 5691 0 
L 5113 0 
L 5113 2094 
Q 5113 2597 4934 2840 
Q 4756 3084 4391 3084 
Q 3944 3084 3684 2787 
Q 3425 2491 3425 1978 
L 3425 0 
L 2847 0 
L 2847 2094 
Q 2847 2600 2669 2842 
Q 2491 3084 2119 3084 
Q 1678 3084 1418 2786 
Q 1159 2488 1159 1978 
L 1159 0 
L 581 0 
L 581 3500 
L 1159 3500 
L 1159 2956 
Q 1356 3278 1631 3431 
Q 1906 3584 2284 3584 
Q 2666 3584 2933 3390 
Q 3200 3197 3328 2828 
z
" transform="scale(0.015625)"/>
      <path id="DejaVuSans-53" d="M 1159 525 
L 1159 -1331 
L 581 -1331 
L 581 3500 
L 1159 3500 
L 1159 2969 
Q 1341 3281 1617 3432 
Q 1894 3584 2278 3584 
Q 2916 3584 3314 3078 
Q 3713 2572 3713 1747 
Q 3713 922 3314 415 
Q 2916 -91 2278 -91 
Q 1894 -91 1617 61 
Q 1341 213 1159 525 
z
M 3116 1747 
Q 3116 2381 2855 2742 
Q 2594 3103 2138 3103 
Q 1681 3103 1420 2742 
Q 1159 2381 1159 1747 
Q 1159 1113 1420 752 
Q 1681 391 2138 391 
Q 2594 391 2855 752 
Q 3116 1113 3116 1747 
z
" transform="scale(0.015625)"/>
      <path id="DejaVuSans-56" d="M 2834 3397 
L 2834 2853 
Q 2591 2978 2328 3040 
Q 2066 3103 1784 3103 
Q 1356 3103 1142 2972 
Q 928 2841 928 2578 
Q 928 2378 1081 2264 
Q 1234 2150 1697 2047 
L 1894 2003 
Q 2506 1872 2764 1633 
Q 3022 1394 3022 966 
Q 3022 478 2636 193 
Q 2250 -91 1575 -91 
Q 1294 -91 989 -36 
Q 684 19 347 128 
L 347 722 
Q 666 556 975 473 
Q 1284 391 1588 391 
Q 1994 391 2212 530 
Q 2431 669 2431 922 
Q 2431 1156 2273 1281 
Q 2116 1406 1581 1522 
L 1381 1569 
Q 847 1681 609 1914 
Q 372 2147 372 2553 
Q 372 3047 722 3315 
Q 1072 3584 1716 3584 
Q 2034 3584 2315 3537 
Q 2597 3491 2834 3397 
z
" transform="scale(0.015625)"/>
     </defs>
     <use xlink:href="#DejaVuSans-2c"/>
     <use xlink:href="#DejaVuSans-30" transform="translate(29.5 0)"/>
     <use xlink:href="#DejaVuSans-29" transform="translate(115.78125 0)"/>
     <use xlink:href="#DejaVuSans-3" transform="translate(173.296875 0)"/>
     <use xlink:href="#DejaVuSans-4c" transform="translate(205.078125 0)"/>
     <use xlink:href="#DejaVuSans-51" transform="translate(232.859375 0)"/>
     <use xlink:href="#DejaVuSans-47" transform="translate(296.234375 0)"/>
     <use xlink:href="#DejaVuSans-4c" transform="translate(359.71875 0)"/>
     <use xlink:href="#DejaVuSans-46" transform="translate(387.5 0)"/>
     <use xlink:href="#DejaVuSans-44" transform="translate(442.484375 0)"/>
     <use xlink:href="#DejaVuSans-57" transform="translate(503.765625 0)"/>
     <use xlink:href="#DejaVuSans-52" transform="translate(542.96875 0)"/>
     <use xlink:href="#DejaVuSans-55" transform="translate(604.15625 0)"/>
     <use xlink:href="#DejaVuSans-3" transform="translate(645.265625 0)"/>
     <use xlink:href="#DejaVuSans-46" transform="translate(677.046875 0)"/>
     <use xlink:href="#DejaVuSans-52" transform="translate(732.03125 0)"/>
     <use xlink:href="#DejaVuSans-50" transform="translate(793.21875 0)"/>
     <use xlink:href="#DejaVuSans-53" transform="translate(890.625 0)"/>
     <use xlink:href="#DejaVuSans-44" transform="translate(954.109375 0)"/>
     <use xlink:href="#DejaVuSans-55" transform="translate(1015.390625 0)"/>
     <use xlink:href="#DejaVuSans-4c" transform="translate(1056.5 0)"/>
     <use xlink:href="#DejaVuSans-56" transform="translate(1084.28125 0)"/>
     <use xlink:href="#DejaVuSans-52" transform="translate(1136.375 0)"/>
     <use xlink:href="#DejaVuSans-51" transform="translate(1197.5625 0)"/>
    </g>
   </g>
   <g id="legend_1">
    <g id="patch_28">
     <path d="M 49.003906 69.920313 
L 300.257969 69.920313 
Q 301.657969 69.920313 301.657969 68.520313 
L 301.657969 27.218125 
Q 301.657969 25.818125 300.257969 25.818125 
L 49.003906 25.818125 
Q 47.603906 25.818125 47.603906 27.218125 
L 47.603906 68.520313 
Q 47.603906 69.920313 49.003906 69.920313 
z
" style="fill: #ffffff; opacity: 0.8; stroke: #cccccc; stroke-linejoin: miter"/>
    </g>
    <g id="patch_29">
     <path d="M 50.403906 33.937031 
L 64.403906 33.937031 
L 64.403906 29.037031 
L 50.403906 29.037031 
z
" style="fill: #1f77b4"/>
    </g>
    <g id="text_12">
     <!-- correlation -->
     <g transform="translate(70.003906 33.937031) scale(0.07 -0.07)">
      <use xlink:href="#DejaVuSans-46"/>
      <use xlink:href="#DejaVuSans-52" transform="translate(54.984375 0)"/>
      <use xlink:href="#DejaVuSans-55" transform="translate(116.171875 0)"/>
      <use xlink:href="#DejaVuSans-55" transform="translate(155.53125 0)"/>
      <use xlink:href="#DejaVuSans-48" transform="translate(194.4375 0)"/>
      <use xlink:href="#DejaVuSans-4f" transform="translate(255.96875 0)"/>
      <use xlink:href="#DejaVuSans-44" transform="translate(283.75 0)"/>
      <use xlink:href="#DejaVuSans-57" transform="translate(345.03125 0)"/>
      <use xlink:href="#DejaVuSans-4c" transform="translate(384.234375 0)"/>
      <use xlink:href="#DejaVuSans-52" transform="translate(412.015625 0)"/>
      <use xlink:href="#DejaVuSans-51" transform="translate(473.203125 0)"/>
     </g>
    </g>
    <g id="patch_30">
     <path d="M 50.403906 44.437578 
L 64.403906 44.437578 
L 64.403906 39.537578 
L 50.403906 39.537578 
z
" style="fill: #ff7f0e"/>
    </g>
    <g id="text_13">
     <!-- relative energy -->
     <g transform="translate(70.003906 44.437578) scale(0.07 -0.07)">
      <defs>
       <path id="DejaVuSans-4a" d="M 2906 1791 
Q 2906 2416 2648 2759 
Q 2391 3103 1925 3103 
Q 1463 3103 1205 2759 
Q 947 2416 947 1791 
Q 947 1169 1205 825 
Q 1463 481 1925 481 
Q 2391 481 2648 825 
Q 2906 1169 2906 1791 
z
M 3481 434 
Q 3481 -459 3084 -895 
Q 2688 -1331 1869 -1331 
Q 1566 -1331 1297 -1286 
Q 1028 -1241 775 -1147 
L 775 -588 
Q 1028 -725 1275 -790 
Q 1522 -856 1778 -856 
Q 2344 -856 2625 -561 
Q 2906 -266 2906 331 
L 2906 616 
Q 2728 306 2450 153 
Q 2172 0 1784 0 
Q 1141 0 747 490 
Q 353 981 353 1791 
Q 353 2603 747 3093 
Q 1141 3584 1784 3584 
Q 2172 3584 2450 3431 
Q 2728 3278 2906 2969 
L 2906 3500 
L 3481 3500 
L 3481 434 
z
" transform="scale(0.015625)"/>
       <path id="DejaVuSans-5c" d="M 2059 -325 
Q 1816 -950 1584 -1140 
Q 1353 -1331 966 -1331 
L 506 -1331 
L 506 -850 
L 844 -850 
Q 1081 -850 1212 -737 
Q 1344 -625 1503 -206 
L 1606 56 
L 191 3500 
L 800 3500 
L 1894 763 
L 2988 3500 
L 3597 3500 
L 2059 -325 
z
" transform="scale(0.015625)"/>
      </defs>
      <use xlink:href="#DejaVuSans-55"/>
      <use xlink:href="#DejaVuSans-48" transform="translate(38.90625 0)"/>
      <use xlink:href="#DejaVuSans-4f" transform="translate(100.4375 0)"/>
      <use xlink:href="#DejaVuSans-44" transform="translate(128.21875 0)"/>
      <use xlink:href="#DejaVuSans-57" transform="translate(189.5 0)"/>
      <use xlink:href="#DejaVuSans-4c" transform="translate(228.703125 0)"/>
      <use xlink:href="#DejaVuSans-59" transform="translate(256.484375 0)"/>
      <use xlink:href="#DejaVuSans-48" transform="translate(315.671875 0)"/>
      <use xlink:href="#DejaVuSans-3" transform="translate(377.203125 0)"/>
      <use xlink:href="#DejaVuSans-48" transform="translate(408.984375 0)"/>
      <use xlink:href="#DejaVuSans-51" transform="translate(470.515625 0)"/>
      <use xlink:href="#DejaVuSans-48" transform="translate(533.890625 0)"/>
      <use xlink:href="#DejaVuSans-55" transform="translate(595.421875 0)"/>
      <use xlink:href="#DejaVuSans-4a" transform="translate(634.78125 0)"/>
      <use xlink:href="#DejaVuSans-5c" transform="translate(698.265625 0)"/>
     </g>
    </g>
    <g id="patch_31">
     <path d="M 50.403906 54.938125 
L 64.403906 54.938125 
L 64.403906 50.038125 
L 50.403906 50.038125 
z
" style="fill: #2ca02c"/>
    </g>
    <g id="text_14">
     <!-- kurtosis normalized -->
     <g transform="translate(70.003906 54.938125) scale(0.07 -0.07)">
      <defs>
       <path id="DejaVuSans-4e" d="M 581 4863 
L 1159 4863 
L 1159 1991 
L 2875 3500 
L 3609 3500 
L 1753 1863 
L 3688 0 
L 2938 0 
L 1159 1709 
L 1159 0 
L 581 0 
L 581 4863 
z
" transform="scale(0.015625)"/>
       <path id="DejaVuSans-5d" d="M 353 3500 
L 3084 3500 
L 3084 2975 
L 922 459 
L 3084 459 
L 3084 0 
L 275 0 
L 275 525 
L 2438 3041 
L 353 3041 
L 353 3500 
z
" transform="scale(0.015625)"/>
      </defs>
      <use xlink:href="#DejaVuSans-4e"/>
      <use xlink:href="#DejaVuSans-58" transform="translate(54.828125 0)"/>
      <use xlink:href="#DejaVuSans-55" transform="translate(118.203125 0)"/>
      <use xlink:href="#DejaVuSans-57" transform="translate(159.3125 0)"/>
      <use xlink:href="#DejaVuSans-52" transform="translate(198.515625 0)"/>
      <use xlink:href="#DejaVuSans-56" transform="translate(259.703125 0)"/>
      <use xlink:href="#DejaVuSans-4c" transform="translate(311.796875 0)"/>
      <use xlink:href="#DejaVuSans-56" transform="translate(339.578125 0)"/>
      <use xlink:href="#DejaVuSans-3" transform="translate(391.671875 0)"/>
      <use xlink:href="#DejaVuSans-51" transform="translate(423.453125 0)"/>
      <use xlink:href="#DejaVuSans-52" transform="translate(486.828125 0)"/>
      <use xlink:href="#DejaVuSans-55" transform="translate(548.015625 0)"/>
      <use xlink:href="#DejaVuSans-50" transform="translate(587.375 0)"/>
      <use xlink:href="#DejaVuSans-44" transform="translate(684.78125 0)"/>
      <use xlink:href="#DejaVuSans-4f" transform="translate(746.0625 0)"/>
      <use xlink:href="#DejaVuSans-4c" transform="translate(773.84375 0)"/>
      <use xlink:href="#DejaVuSans-5d" transform="translate(801.625 0)"/>
      <use xlink:href="#DejaVuSans-48" transform="translate(854.109375 0)"/>
      <use xlink:href="#DejaVuSans-47" transform="translate(915.640625 0)"/>
     </g>
    </g>
    <g id="patch_32">
     <path d="M 50.403906 65.438672 
L 64.403906 65.438672 
L 64.403906 60.538672 
L 50.403906 60.538672 
z
" style="fill: #d62728"/>
    </g>
    <g id="text_15">
     <!-- chatter band energy ratio -->
     <g transform="translate(70.003906 65.438672) scale(0.07 -0.07)">
      <defs>
       <path id="DejaVuSans-4b" d="M 3513 2113 
L 3513 0 
L 2938 0 
L 2938 2094 
Q 2938 2591 2744 2837 
Q 2550 3084 2163 3084 
Q 1697 3084 1428 2787 
Q 1159 2491 1159 1978 
L 1159 0 
L 581 0 
L 581 4863 
L 1159 4863 
L 1159 2956 
Q 1366 3272 1645 3428 
Q 1925 3584 2291 3584 
Q 2894 3584 3203 3211 
Q 3513 2838 3513 2113 
z
" transform="scale(0.015625)"/>
       <path id="DejaVuSans-45" d="M 3116 1747 
Q 3116 2381 2855 2742 
Q 2594 3103 2138 3103 
Q 1681 3103 1420 2742 
Q 1159 2381 1159 1747 
Q 1159 1113 1420 752 
Q 1681 391 2138 391 
Q 2594 391 2855 752 
Q 3116 1113 3116 1747 
z
M 1159 2969 
Q 1341 3281 1617 3432 
Q 1894 3584 2278 3584 
Q 2916 3584 3314 3078 
Q 3713 2572 3713 1747 
Q 3713 922 3314 415 
Q 2916 -91 2278 -91 
Q 1894 -91 1617 61 
Q 1341 213 1159 525 
L 1159 0 
L 581 0 
L 581 4863 
L 1159 4863 
L 1159 2969 
z
" transform="scale(0.015625)"/>
      </defs>
      <use xlink:href="#DejaVuSans-46"/>
      <use xlink:href="#DejaVuSans-4b" transform="translate(54.984375 0)"/>
      <use xlink:href="#DejaVuSans-44" transform="translate(118.359375 0)"/>
      <use xlink:href="#DejaVuSans-57" transform="translate(179.640625 0)"/>
      <use xlink:href="#DejaVuSans-57" transform="translate(218.84375 0)"/>
      <use xlink:href="#DejaVuSans-48" transform="translate(258.046875 0)"/>
      <use xlink:href="#DejaVuSans-55" transform="translate(319.578125 0)"/>
      <use xlink:href="#DejaVuSans-3" transform="translate(360.6875 0)"/>
      <use xlink:href="#DejaVuSans-45" transform="translate(392.46875 0)"/>
      <use xlink:href="#DejaVuSans-44" transform="translate(455.953125 0)"/>
      <use xlink:href="#DejaVuSans-51" transform="translate(517.234375 0)"/>
      <use xlink:href="#DejaVuSans-47" transform="translate(580.609375 0)"/>
      <use xlink:href="#DejaVuSans-3" transform="translate(644.09375 0)"/>
      <use xlink:href="#DejaVuSans-48" transform="translate(675.875 0)"/>
      <use xlink:href="#DejaVuSans-51" transform="translate(737.40625 0)"/>
      <use xlink:href="#DejaVuSans-48" transform="translate(800.78125 0)"/>
      <use xlink:href="#DejaVuSans-55" transform="translate(862.3125 0)"/>
      <use xlink:href="#DejaVuSans-4a" transform="translate(901.671875 0)"/>
      <use xlink:href="#DejaVuSans-5c" transform="translate(965.15625 0)"/>
      <use xlink:href="#DejaVuSans-3" transform="translate(1024.34375 0)"/>
      <use xlink:href="#DejaVuSans-55" transform="translate(1056.125 0)"/>
      <use xlink:href="#DejaVuSans-44" transform="translate(1097.234375 0)"/>
      <use xlink:href="#DejaVuSans-57" transform="translate(1158.515625 0)"/>
      <use xlink:href="#DejaVuSans-4c" transform="translate(1197.71875 0)"/>
      <use xlink:href="#DejaVuSans-52" transform="translate(1225.5 0)"/>
     </g>
    </g>
    <g id="patch_33">
     <path d="M 174.072031 33.937031 
L 188.072031 33.937031 
L 188.072031 29.037031 
L 174.072031 29.037031 
z
" style="fill: #9467bd"/>
    </g>
    <g id="text_16">
     <!-- spindle harmonic energy ratio -->
     <g transform="translate(193.672031 33.937031) scale(0.07 -0.07)">
      <use xlink:href="#DejaVuSans-56"/>
      <use xlink:href="#DejaVuSans-53" transform="translate(52.09375 0)"/>
      <use xlink:href="#DejaVuSans-4c" transform="translate(115.578125 0)"/>
      <use xlink:href="#DejaVuSans-51" transform="translate(143.359375 0)"/>
      <use xlink:href="#DejaVuSans-47" transform="translate(206.734375 0)"/>
      <use xlink:href="#DejaVuSans-4f" transform="translate(270.21875 0)"/>
      <use xlink:href="#DejaVuSans-48" transform="translate(298 0)"/>
      <use xlink:href="#DejaVuSans-3" transform="translate(359.53125 0)"/>
      <use xlink:href="#DejaVuSans-4b" transform="translate(391.3125 0)"/>
      <use xlink:href="#DejaVuSans-44" transform="translate(454.6875 0)"/>
      <use xlink:href="#DejaVuSans-55" transform="translate(515.96875 0)"/>
      <use xlink:href="#DejaVuSans-50" transform="translate(555.328125 0)"/>
      <use xlink:href="#DejaVuSans-52" transform="translate(652.734375 0)"/>
      <use xlink:href="#DejaVuSans-51" transform="translate(713.921875 0)"/>
      <use xlink:href="#DejaVuSans-4c" transform="translate(777.296875 0)"/>
      <use xlink:href="#DejaVuSans-46" transform="translate(805.078125 0)"/>
      <use xlink:href="#DejaVuSans-3" transform="translate(860.0625 0)"/>
      <use xlink:href="#DejaVuSans-48" transform="translate(891.84375 0)"/>
      <use xlink:href="#DejaVuSans-51" transform="translate(953.375 0)"/>
      <use xlink:href="#DejaVuSans-48" transform="translate(1016.75 0)"/>
      <use xlink:href="#DejaVuSans-55" transform="translate(1078.28125 0)"/>
      <use xlink:href="#DejaVuSans-4a" transform="translate(1117.640625 0)"/>
      <use xlink:href="#DejaVuSans-5c" transform="translate(1181.125 0)"/>
      <use xlink:href="#DejaVuSans-3" transform="translate(1240.3125 0)"/>
      <use xlink:href="#DejaVuSans-55" transform="translate(1272.09375 0)"/>
      <use xlink:href="#DejaVuSans-44" transform="translate(1313.203125 0)"/>
      <use xlink:href="#DejaVuSans-57" transform="translate(1374.484375 0)"/>
      <use xlink:href="#DejaVuSans-4c" transform="translate(1413.6875 0)"/>
      <use xlink:href="#DejaVuSans-52" transform="translate(1441.46875 0)"/>
     </g>
    </g>
    <g id="patch_34">
     <path d="M 174.072031 44.437578 
L 188.072031 44.437578 
L 188.072031 39.537578 
L 174.072031 39.537578 
z
" style="fill: #8c564b"/>
    </g>
    <g id="text_17">
     <!-- tooth harmonic energy ratio -->
     <g transform="translate(193.672031 44.437578) scale(0.07 -0.07)">
      <use xlink:href="#DejaVuSans-57"/>
      <use xlink:href="#DejaVuSans-52" transform="translate(39.203125 0)"/>
      <use xlink:href="#DejaVuSans-52" transform="translate(100.390625 0)"/>
      <use xlink:href="#DejaVuSans-57" transform="translate(161.578125 0)"/>
      <use xlink:href="#DejaVuSans-4b" transform="translate(200.78125 0)"/>
      <use xlink:href="#DejaVuSans-3" transform="translate(264.15625 0)"/>
      <use xlink:href="#DejaVuSans-4b" transform="translate(295.9375 0)"/>
      <use xlink:href="#DejaVuSans-44" transform="translate(359.3125 0)"/>
      <use xlink:href="#DejaVuSans-55" transform="translate(420.59375 0)"/>
      <use xlink:href="#DejaVuSans-50" transform="translate(459.953125 0)"/>
      <use xlink:href="#DejaVuSans-52" transform="translate(557.359375 0)"/>
      <use xlink:href="#DejaVuSans-51" transform="translate(618.546875 0)"/>
      <use xlink:href="#DejaVuSans-4c" transform="translate(681.921875 0)"/>
      <use xlink:href="#DejaVuSans-46" transform="translate(709.703125 0)"/>
      <use xlink:href="#DejaVuSans-3" transform="translate(764.6875 0)"/>
      <use xlink:href="#DejaVuSans-48" transform="translate(796.46875 0)"/>
      <use xlink:href="#DejaVuSans-51" transform="translate(858 0)"/>
      <use xlink:href="#DejaVuSans-48" transform="translate(921.375 0)"/>
      <use xlink:href="#DejaVuSans-55" transform="translate(982.90625 0)"/>
      <use xlink:href="#DejaVuSans-4a" transform="translate(1022.265625 0)"/>
      <use xlink:href="#DejaVuSans-5c" transform="translate(1085.75 0)"/>
      <use xlink:href="#DejaVuSans-3" transform="translate(1144.9375 0)"/>
      <use xlink:href="#DejaVuSans-55" transform="translate(1176.71875 0)"/>
      <use xlink:href="#DejaVuSans-44" transform="translate(1217.828125 0)"/>
      <use xlink:href="#DejaVuSans-57" transform="translate(1279.109375 0)"/>
      <use xlink:href="#DejaVuSans-4c" transform="translate(1318.3125 0)"/>
      <use xlink:href="#DejaVuSans-52" transform="translate(1346.09375 0)"/>
     </g>
    </g>
    <g id="patch_35">
     <path d="M 174.072031 54.938125 
L 188.072031 54.938125 
L 188.072031 50.038125 
L 174.072031 50.038125 
z
" style="fill: #e377c2"/>
    </g>
    <g id="text_18">
     <!-- frequency proximity -->
     <g transform="translate(193.672031 54.938125) scale(0.07 -0.07)">
      <defs>
       <path id="DejaVuSans-49" d="M 2375 4863 
L 2375 4384 
L 1825 4384 
Q 1516 4384 1395 4259 
Q 1275 4134 1275 3809 
L 1275 3500 
L 2222 3500 
L 2222 3053 
L 1275 3053 
L 1275 0 
L 697 0 
L 697 3053 
L 147 3053 
L 147 3500 
L 697 3500 
L 697 3744 
Q 697 4328 969 4595 
Q 1241 4863 1831 4863 
L 2375 4863 
z
" transform="scale(0.015625)"/>
       <path id="DejaVuSans-54" d="M 947 1747 
Q 947 1113 1208 752 
Q 1469 391 1925 391 
Q 2381 391 2643 752 
Q 2906 1113 2906 1747 
Q 2906 2381 2643 2742 
Q 2381 3103 1925 3103 
Q 1469 3103 1208 2742 
Q 947 2381 947 1747 
z
M 2906 525 
Q 2725 213 2448 61 
Q 2172 -91 1784 -91 
Q 1150 -91 751 415 
Q 353 922 353 1747 
Q 353 2572 751 3078 
Q 1150 3584 1784 3584 
Q 2172 3584 2448 3432 
Q 2725 3281 2906 2969 
L 2906 3500 
L 3481 3500 
L 3481 -1331 
L 2906 -1331 
L 2906 525 
z
" transform="scale(0.015625)"/>
       <path id="DejaVuSans-5b" d="M 3513 3500 
L 2247 1797 
L 3578 0 
L 2900 0 
L 1881 1375 
L 863 0 
L 184 0 
L 1544 1831 
L 300 3500 
L 978 3500 
L 1906 2253 
L 2834 3500 
L 3513 3500 
z
" transform="scale(0.015625)"/>
      </defs>
      <use xlink:href="#DejaVuSans-49"/>
      <use xlink:href="#DejaVuSans-55" transform="translate(35.203125 0)"/>
      <use xlink:href="#DejaVuSans-48" transform="translate(74.109375 0)"/>
      <use xlink:href="#DejaVuSans-54" transform="translate(135.640625 0)"/>
      <use xlink:href="#DejaVuSans-58" transform="translate(199.125 0)"/>
      <use xlink:href="#DejaVuSans-48" transform="translate(262.5 0)"/>
      <use xlink:href="#DejaVuSans-51" transform="translate(324.03125 0)"/>
      <use xlink:href="#DejaVuSans-46" transform="translate(387.40625 0)"/>
      <use xlink:href="#DejaVuSans-5c" transform="translate(442.390625 0)"/>
      <use xlink:href="#DejaVuSans-3" transform="translate(501.578125 0)"/>
      <use xlink:href="#DejaVuSans-53" transform="translate(533.359375 0)"/>
      <use xlink:href="#DejaVuSans-55" transform="translate(596.84375 0)"/>
      <use xlink:href="#DejaVuSans-52" transform="translate(635.75 0)"/>
      <use xlink:href="#DejaVuSans-5b" transform="translate(693.859375 0)"/>
      <use xlink:href="#DejaVuSans-4c" transform="translate(753.046875 0)"/>
      <use xlink:href="#DejaVuSans-50" transform="translate(780.828125 0)"/>
      <use xlink:href="#DejaVuSans-4c" transform="translate(878.234375 0)"/>
      <use xlink:href="#DejaVuSans-57" transform="translate(906.015625 0)"/>
      <use xlink:href="#DejaVuSans-5c" transform="translate(945.21875 0)"/>
     </g>
    </g>
   </g>
  </g>
 </g>
 <defs>
  <clipPath id="p02c7ac8d05">
   <rect x="44.103906" y="22.318125" width="613.8" height="277.2"/>
  </clipPath>
 </defs>
</svg>
