<?xml version="1.0" encoding="utf-8" standalone="no"?>
<!DOCTYPE svg PUBLIC "-//W3C//DTD SVG 1.1//EN"
  "http://www.w3.org/Graphics/SVG/1.1/DTD/svg11.dtd">
<svg xmlns:xlink="http://www.w3.org/1999/xlink" width="617.683594pt" height="260.102906pt" viewBox="0 0 617.683594 260.102906" xmlns="http://www.w3.org/2000/svg" version="1.1">
 <metadata>
  <rdf:RDF xmlns:dc="http://purl.org/dc/elements/1.1/" xmlns:cc="http://creativecommons.org/ns#" xmlns:rdf="http://www.w3.org/1999/02/22-rdf-syntax-ns#">
   <cc:Work>
    <dc:type rdf:resource="http://purl.org/dc/dcmitype/StillImage"/>
    <dc:date>2026-07-14T07:01:50.597240</dc:date>
    <dc:format>image/svg+xml</dc:format>
    <dc:creator>
     <cc:Agent>
      <dc:title>Matplotlib v3.11.0, https://matplotlib.org/</dc:title>
     </cc:Agent>
    </dc:creator>
   </cc:Work>
  </rdf:RDF>
 </metadata>
 <defs>
  <style type="text/css">*{stroke-linejoin: round; stroke-linecap: butt}</style>
 </defs>
 <g id="figure_1">
  <g id="patch_1">
   <path d="M 0 260.102906 
L 617.683594 260.102906 
L 617.683594 0 
L 0 0 
z
" style="fill: #ffffff"/>
  </g>
  <g id="axes_1">
   <g id="patch_2">
    <path d="M 52.483594 221.902125 
L 610.483594 221.902125 
L 610.483594 22.318125 
L 52.483594 22.318125 
z
" style="fill: #ffffff"/>
   </g>
   <g id="matplotlib.axis_1">
    <g id="xtick_1">
     <g id="line2d_1">
      <path d="M 84.796172 221.902125 
L 84.796172 22.318125 
" clip-path="url(#p239ee3c6dd)" style="fill: none; stroke: #b0b0b0; stroke-opacity: 0.25; stroke-width: 0.8; stroke-linecap: square"/>
     </g>
     <g id="line2d_2">
      <defs>
       <path id="m75f053ec53" d="M 0 0 
L 0 3.5 
" style="stroke: #000000; stroke-width: 0.8"/>
      </defs>
      <g>
       <use xlink:href="#m75f053ec53" x="84.796172" y="221.902125" style="stroke: #000000; stroke-width: 0.8"/>
      </g>
     </g>
     <g id="text_1">
      <!-- 0.1 -->
      <g transform="translate(76.844609 236.499781) scale(0.1 -0.1)">
       <defs>
        <path id="DejaVuSans-13" d="M 2034 4250 
Q 1547 4250 1301 3770 
Q 1056 3291 1056 2328 
Q 1056 1369 1301 889 
Q 1547 409 2034 409 
Q 2525 409 2770 889 
Q 3016 1369 3016 2328 
Q 3016 3291 2770 3770 
Q 2525 4250 2034 4250 
z
M 2034 4750 
Q 2819 4750 3233 4129 
Q 3647 3509 3647 2328 
Q 3647 1150 3233 529 
Q 2819 -91 2034 -91 
Q 1250 -91 836 529 
Q 422 1150 422 2328 
Q 422 3509 836 4129 
Q 1250 4750 2034 4750 
z
" transform="scale(0.015625)"/>
        <path id="DejaVuSans-11" d="M 684 794 
L 1344 794 
L 1344 0 
L 684 0 
L 684 794 
z
" transform="scale(0.015625)"/>
        <path id="DejaVuSans-14" d="M 794 531 
L 1825 531 
L 1825 4091 
L 703 3866 
L 703 4441 
L 1819 4666 
L 2450 4666 
L 2450 531 
L 3481 531 
L 3481 0 
L 794 0 
L 794 531 
z
" transform="scale(0.015625)"/>
       </defs>
       <use xlink:href="#DejaVuSans-13"/>
       <use xlink:href="#DejaVuSans-11" transform="translate(63.625 0)"/>
       <use xlink:href="#DejaVuSans-14" transform="translate(95.40625 0)"/>
      </g>
     </g>
    </g>
    <g id="xtick_2">
     <g id="line2d_3">
      <path d="M 184.066764 221.902125 
L 184.066764 22.318125 
" clip-path="url(#p239ee3c6dd)" style="fill: none; stroke: #b0b0b0; stroke-opacity: 0.25; stroke-width: 0.8; stroke-linecap: square"/>
     </g>
     <g id="line2d_4">
      <g>
       <use xlink:href="#m75f053ec53" x="184.066764" y="221.902125" style="stroke: #000000; stroke-width: 0.8"/>
      </g>
     </g>
     <g id="text_2">
      <!-- 0.2 -->
      <g transform="translate(176.115202 236.499781) scale(0.1 -0.1)">
       <defs>
        <path id="DejaVuSans-15" d="M 1228 531 
L 3431 531 
L 3431 0 
L 469 0 
L 469 531 
Q 828 903 1448 1529 
Q 2069 2156 2228 2338 
Q 2531 2678 2651 2914 
Q 2772 3150 2772 3378 
Q 2772 3750 2511 3984 
Q 2250 4219 1831 4219 
Q 1534 4219 1204 4116 
Q 875 4013 500 3803 
L 500 4441 
Q 881 4594 1212 4672 
Q 1544 4750 1819 4750 
Q 2544 4750 2975 4387 
Q 3406 4025 3406 3419 
Q 3406 3131 3298 2873 
Q 3191 2616 2906 2266 
Q 2828 2175 2409 1742 
Q 1991 1309 1228 531 
z
" transform="scale(0.015625)"/>
       </defs>
       <use xlink:href="#DejaVuSans-13"/>
       <use xlink:href="#DejaVuSans-11" transform="translate(63.625 0)"/>
       <use xlink:href="#DejaVuSans-15" transform="translate(95.40625 0)"/>
      </g>
     </g>
    </g>
    <g id="xtick_3">
     <g id="line2d_5">
      <path d="M 283.337356 221.902125 
L 283.337356 22.318125 
" clip-path="url(#p239ee3c6dd)" style="fill: none; stroke: #b0b0b0; stroke-opacity: 0.25; stroke-width: 0.8; stroke-linecap: square"/>
     </g>
     <g id="line2d_6">
      <g>
       <use xlink:href="#m75f053ec53" x="283.337356" y="221.902125" style="stroke: #000000; stroke-width: 0.8"/>
      </g>
     </g>
     <g id="text_3">
      <!-- 0.3 -->
      <g transform="translate(275.385794 236.499781) scale(0.1 -0.1)">
       <defs>
        <path id="DejaVuSans-16" d="M 2597 2516 
Q 3050 2419 3304 2112 
Q 3559 1806 3559 1356 
Q 3559 666 3084 287 
Q 2609 -91 1734 -91 
Q 1441 -91 1130 -33 
Q 819 25 488 141 
L 488 750 
Q 750 597 1062 519 
Q 1375 441 1716 441 
Q 2309 441 2620 675 
Q 2931 909 2931 1356 
Q 2931 1769 2642 2001 
Q 2353 2234 1838 2234 
L 1294 2234 
L 1294 2753 
L 1863 2753 
Q 2328 2753 2575 2939 
Q 2822 3125 2822 3475 
Q 2822 3834 2567 4026 
Q 2313 4219 1838 4219 
Q 1578 4219 1281 4162 
Q 984 4106 628 3988 
L 628 4550 
Q 988 4650 1302 4700 
Q 1616 4750 1894 4750 
Q 2613 4750 3031 4423 
Q 3450 4097 3450 3541 
Q 3450 3153 3228 2886 
Q 3006 2619 2597 2516 
z
" transform="scale(0.015625)"/>
       </defs>
       <use xlink:href="#DejaVuSans-13"/>
       <use xlink:href="#DejaVuSans-11" transform="translate(63.625 0)"/>
       <use xlink:href="#DejaVuSans-16" transform="translate(95.40625 0)"/>
      </g>
     </g>
    </g>
    <g id="xtick_4">
     <g id="line2d_7">
      <path d="M 382.607949 221.902125 
L 382.607949 22.318125 
" clip-path="url(#p239ee3c6dd)" style="fill: none; stroke: #b0b0b0; stroke-opacity: 0.25; stroke-width: 0.8; stroke-linecap: square"/>
     </g>
     <g id="line2d_8">
      <g>
       <use xlink:href="#m75f053ec53" x="382.607949" y="221.902125" style="stroke: #000000; stroke-width: 0.8"/>
      </g>
     </g>
     <g id="text_4">
      <!-- 0.4 -->
      <g transform="translate(374.656386 236.499781) scale(0.1 -0.1)">
       <defs>
        <path id="DejaVuSans-17" d="M 2419 4116 
L 825 1625 
L 2419 1625 
L 2419 4116 
z
M 2253 4666 
L 3047 4666 
L 3047 1625 
L 3713 1625 
L 3713 1100 
L 3047 1100 
L 3047 0 
L 2419 0 
L 2419 1100 
L 313 1100 
L 313 1709 
L 2253 4666 
z
" transform="scale(0.015625)"/>
       </defs>
       <use xlink:href="#DejaVuSans-13"/>
       <use xlink:href="#DejaVuSans-11" transform="translate(63.625 0)"/>
       <use xlink:href="#DejaVuSans-17" transform="translate(95.40625 0)"/>
      </g>
     </g>
    </g>
    <g id="xtick_5">
     <g id="line2d_9">
      <path d="M 481.878541 221.902125 
L 481.878541 22.318125 
" clip-path="url(#p239ee3c6dd)" style="fill: none; stroke: #b0b0b0; stroke-opacity: 0.25; stroke-width: 0.8; stroke-linecap: square"/>
     </g>
     <g id="line2d_10">
      <g>
       <use xlink:href="#m75f053ec53" x="481.878541" y="221.902125" style="stroke: #000000; stroke-width: 0.8"/>
      </g>
     </g>
     <g id="text_5">
      <!-- 0.5 -->
      <g transform="translate(473.926979 236.499781) scale(0.1 -0.1)">
       <defs>
        <path id="DejaVuSans-18" d="M 691 4666 
L 3169 4666 
L 3169 4134 
L 1269 4134 
L 1269 2991 
Q 1406 3038 1543 3061 
Q 1681 3084 1819 3084 
Q 2600 3084 3056 2656 
Q 3513 2228 3513 1497 
Q 3513 744 3044 326 
Q 2575 -91 1722 -91 
Q 1428 -91 1123 -41 
Q 819 9 494 109 
L 494 744 
Q 775 591 1075 516 
Q 1375 441 1709 441 
Q 2250 441 2565 725 
Q 2881 1009 2881 1497 
Q 2881 1984 2565 2268 
Q 2250 2553 1709 2553 
Q 1456 2553 1204 2497 
Q 953 2441 691 2322 
L 691 4666 
z
" transform="scale(0.015625)"/>
       </defs>
       <use xlink:href="#DejaVuSans-13"/>
       <use xlink:href="#DejaVuSans-11" transform="translate(63.625 0)"/>
       <use xlink:href="#DejaVuSans-18" transform="translate(95.40625 0)"/>
      </g>
     </g>
    </g>
    <g id="xtick_6">
     <g id="line2d_11">
      <path d="M 581.149134 221.902125 
L 581.149134 22.318125 
" clip-path="url(#p239ee3c6dd)" style="fill: none; stroke: #b0b0b0; stroke-opacity: 0.25; stroke-width: 0.8; stroke-linecap: square"/>
     </g>
     <g id="line2d_12">
      <g>
       <use xlink:href="#m75f053ec53" x="581.149134" y="221.902125" style="stroke: #000000; stroke-width: 0.8"/>
      </g>
     </g>
     <g id="text_6">
      <!-- 0.6 -->
      <g transform="translate(573.197571 236.499781) scale(0.1 -0.1)">
       <defs>
        <path id="DejaVuSans-19" d="M 2113 2584 
Q 1688 2584 1439 2293 
Q 1191 2003 1191 1497 
Q 1191 994 1439 701 
Q 1688 409 2113 409 
Q 2538 409 2786 701 
Q 3034 994 3034 1497 
Q 3034 2003 2786 2293 
Q 2538 2584 2113 2584 
z
M 3366 4563 
L 3366 3988 
Q 3128 4100 2886 4159 
Q 2644 4219 2406 4219 
Q 1781 4219 1451 3797 
Q 1122 3375 1075 2522 
Q 1259 2794 1537 2939 
Q 1816 3084 2150 3084 
Q 2853 3084 3261 2657 
Q 3669 2231 3669 1497 
Q 3669 778 3244 343 
Q 2819 -91 2113 -91 
Q 1303 -91 875 529 
Q 447 1150 447 2328 
Q 447 3434 972 4092 
Q 1497 4750 2381 4750 
Q 2619 4750 2861 4703 
Q 3103 4656 3366 4563 
z
" transform="scale(0.015625)"/>
       </defs>
       <use xlink:href="#DejaVuSans-13"/>
       <use xlink:href="#DejaVuSans-11" transform="translate(63.625 0)"/>
       <use xlink:href="#DejaVuSans-19" transform="translate(95.40625 0)"/>
      </g>
     </g>
    </g>
    <g id="text_7">
     <!-- Time (s) -->
     <g transform="translate(311.152344 250.500563) scale(0.1 -0.1)">
      <defs>
       <path id="DejaVuSans-37" d="M -19 4666 
L 3928 4666 
L 3928 4134 
L 2272 4134 
L 2272 0 
L 1638 0 
L 1638 4134 
L -19 4134 
L -19 4666 
z
" transform="scale(0.015625)"/>
       <path id="DejaVuSans-4c" d="M 603 3500 
L 1178 3500 
L 1178 0 
L 603 0 
L 603 3500 
z
M 603 4863 
L 1178 4863 
L 1178 4134 
L 603 4134 
L 603 4863 
z
" transform="scale(0.015625)"/>
       <path id="DejaVuSans-50" d="M 3328 2828 
Q 3544 3216 3844 3400 
Q 4144 3584 4550 3584 
Q 5097 3584 5394 3201 
Q 5691 2819 5691 2113 
L 5691 0 
L 5113 0 
L 5113 2094 
Q 5113 2597 4934 2840 
Q 4756 3084 4391 3084 
Q 3944 3084 3684 2787 
Q 3425 2491 3425 1978 
L 3425 0 
L 2847 0 
L 2847 2094 
Q 2847 2600 2669 2842 
Q 2491 3084 2119 3084 
Q 1678 3084 1418 2786 
Q 1159 2488 1159 1978 
L 1159 0 
L 581 0 
L 581 3500 
L 1159 3500 
L 1159 2956 
Q 1356 3278 1631 3431 
Q 1906 3584 2284 3584 
Q 2666 3584 2933 3390 
Q 3200 3197 3328 2828 
z
" transform="scale(0.015625)"/>
       <path id="DejaVuSans-48" d="M 3597 1894 
L 3597 1613 
L 953 1613 
Q 991 1019 1311 708 
Q 1631 397 2203 397 
Q 2534 397 2845 478 
Q 3156 559 3463 722 
L 3463 178 
Q 3153 47 2828 -22 
Q 2503 -91 2169 -91 
Q 1331 -91 842 396 
Q 353 884 353 1716 
Q 353 2575 817 3079 
Q 1281 3584 2069 3584 
Q 2775 3584 3186 3129 
Q 3597 2675 3597 1894 
z
M 3022 2063 
Q 3016 2534 2758 2815 
Q 2500 3097 2075 3097 
Q 1594 3097 1305 2825 
Q 1016 2553 972 2059 
L 3022 2063 
z
" transform="scale(0.015625)"/>
       <path id="DejaVuSans-3" transform="scale(0.015625)"/>
       <path id="DejaVuSans-b" d="M 1984 4856 
Q 1566 4138 1362 3434 
Q 1159 2731 1159 2009 
Q 1159 1288 1364 580 
Q 1569 -128 1984 -844 
L 1484 -844 
Q 1016 -109 783 600 
Q 550 1309 550 2009 
Q 550 2706 781 3412 
Q 1013 4119 1484 4856 
L 1984 4856 
z
" transform="scale(0.015625)"/>
       <path id="DejaVuSans-56" d="M 2834 3397 
L 2834 2853 
Q 2591 2978 2328 3040 
Q 2066 3103 1784 3103 
Q 1356 3103 1142 2972 
Q 928 2841 928 2578 
Q 928 2378 1081 2264 
Q 1234 2150 1697 2047 
L 1894 2003 
Q 2506 1872 2764 1633 
Q 3022 1394 3022 966 
Q 3022 478 2636 193 
Q 2250 -91 1575 -91 
Q 1294 -91 989 -36 
Q 684 19 347 128 
L 347 722 
Q 666 556 975 473 
Q 1284 391 1588 391 
Q 1994 391 2212 530 
Q 2431 669 2431 922 
Q 2431 1156 2273 1281 
Q 2116 1406 1581 1522 
L 1381 1569 
Q 847 1681 609 1914 
Q 372 2147 372 2553 
Q 372 3047 722 3315 
Q 1072 3584 1716 3584 
Q 2034 3584 2315 3537 
Q 2597 3491 2834 3397 
z
" transform="scale(0.015625)"/>
       <path id="DejaVuSans-c" d="M 513 4856 
L 1013 4856 
Q 1481 4119 1714 3412 
Q 1947 2706 1947 2009 
Q 1947 1309 1714 600 
Q 1481 -109 1013 -844 
L 513 -844 
Q 928 -128 1133 580 
Q 1338 1288 1338 2009 
Q 1338 2731 1133 3434 
Q 928 4138 513 4856 
z
" transform="scale(0.015625)"/>
      </defs>
      <use xlink:href="#DejaVuSans-37"/>
      <use xlink:href="#DejaVuSans-4c" transform="translate(58 0)"/>
      <use xlink:href="#DejaVuSans-50" transform="translate(85.78125 0)"/>
      <use xlink:href="#DejaVuSans-48" transform="translate(183.1875 0)"/>
      <use xlink:href="#DejaVuSans-3" transform="translate(244.71875 0)"/>
      <use xlink:href="#DejaVuSans-b" transform="translate(276.5 0)"/>
      <use xlink:href="#DejaVuSans-56" transform="translate(315.515625 0)"/>
      <use xlink:href="#DejaVuSans-c" transform="translate(367.609375 0)"/>
     </g>
    </g>
   </g>
   <g id="matplotlib.axis_2">
    <g id="ytick_1">
     <g id="line2d_13">
      <path d="M 52.483594 191.727112 
L 610.483594 191.727112 
" clip-path="url(#p239ee3c6dd)" style="fill: none; stroke: #b0b0b0; stroke-opacity: 0.25; stroke-width: 0.8; stroke-linecap: square"/>
     </g>
     <g id="line2d_14">
      <defs>
       <path id="m9f56a8fe4e" d="M 0 0 
L -3.5 0 
" style="stroke: #000000; stroke-width: 0.8"/>
      </defs>
      <g>
       <use xlink:href="#m9f56a8fe4e" x="52.483594" y="191.727112" style="stroke: #000000; stroke-width: 0.8"/>
      </g>
     </g>
     <g id="text_8">
      <!-- −1.0 -->
      <g transform="translate(21.200781 195.52594) scale(0.1 -0.1)">
       <defs>
        <path id="DejaVuSans-c9c" d="M 678 2272 
L 4684 2272 
L 4684 1741 
L 678 1741 
L 678 2272 
z
" transform="scale(0.015625)"/>
       </defs>
       <use xlink:href="#DejaVuSans-c9c"/>
       <use xlink:href="#DejaVuSans-14" transform="translate(83.796875 0)"/>
       <use xlink:href="#DejaVuSans-11" transform="translate(147.421875 0)"/>
       <use xlink:href="#DejaVuSans-13" transform="translate(179.203125 0)"/>
      </g>
     </g>
    </g>
    <g id="ytick_2">
     <g id="line2d_15">
      <path d="M 52.483594 155.525325 
L 610.483594 155.525325 
" clip-path="url(#p239ee3c6dd)" style="fill: none; stroke: #b0b0b0; stroke-opacity: 0.25; stroke-width: 0.8; stroke-linecap: square"/>
     </g>
     <g id="line2d_16">
      <g>
       <use xlink:href="#m9f56a8fe4e" x="52.483594" y="155.525325" style="stroke: #000000; stroke-width: 0.8"/>
      </g>
     </g>
     <g id="text_9">
      <!-- −0.5 -->
      <g transform="translate(21.200781 159.324153) scale(0.1 -0.1)">
       <use xlink:href="#DejaVuSans-c9c"/>
       <use xlink:href="#DejaVuSans-13" transform="translate(83.796875 0)"/>
       <use xlink:href="#DejaVuSans-11" transform="translate(147.421875 0)"/>
       <use xlink:href="#DejaVuSans-18" transform="translate(179.203125 0)"/>
      </g>
     </g>
    </g>
    <g id="ytick_3">
     <g id="line2d_17">
      <path d="M 52.483594 119.323539 
L 610.483594 119.323539 
" clip-path="url(#p239ee3c6dd)" style="fill: none; stroke: #b0b0b0; stroke-opacity: 0.25; stroke-width: 0.8; stroke-linecap: square"/>
     </g>
     <g id="line2d_18">
      <g>
       <use xlink:href="#m9f56a8fe4e" x="52.483594" y="119.323539" style="stroke: #000000; stroke-width: 0.8"/>
      </g>
     </g>
     <g id="text_10">
      <!-- 0.0 -->
      <g transform="translate(29.580469 123.122367) scale(0.1 -0.1)">
       <use xlink:href="#DejaVuSans-13"/>
       <use xlink:href="#DejaVuSans-11" transform="translate(63.625 0)"/>
       <use xlink:href="#DejaVuSans-13" transform="translate(95.40625 0)"/>
      </g>
     </g>
    </g>
    <g id="ytick_4">
     <g id="line2d_19">
      <path d="M 52.483594 83.121753 
L 610.483594 83.121753 
" clip-path="url(#p239ee3c6dd)" style="fill: none; stroke: #b0b0b0; stroke-opacity: 0.25; stroke-width: 0.8; stroke-linecap: square"/>
     </g>
     <g id="line2d_20">
      <g>
       <use xlink:href="#m9f56a8fe4e" x="52.483594" y="83.121753" style="stroke: #000000; stroke-width: 0.8"/>
      </g>
     </g>
     <g id="text_11">
      <!-- 0.5 -->
      <g transform="translate(29.580469 86.920581) scale(0.1 -0.1)">
       <use xlink:href="#DejaVuSans-13"/>
       <use xlink:href="#DejaVuSans-11" transform="translate(63.625 0)"/>
       <use xlink:href="#DejaVuSans-18" transform="translate(95.40625 0)"/>
      </g>
     </g>
    </g>
    <g id="ytick_5">
     <g id="line2d_21">
      <path d="M 52.483594 46.919966 
L 610.483594 46.919966 
" clip-path="url(#p239ee3c6dd)" style="fill: none; stroke: #b0b0b0; stroke-opacity: 0.25; stroke-width: 0.8; stroke-linecap: square"/>
     </g>
     <g id="line2d_22">
      <g>
       <use xlink:href="#m9f56a8fe4e" x="52.483594" y="46.919966" style="stroke: #000000; stroke-width: 0.8"/>
      </g>
     </g>
     <g id="text_12">
      <!-- 1.0 -->
      <g transform="translate(29.580469 50.718795) scale(0.1 -0.1)">
       <use xlink:href="#DejaVuSans-14"/>
       <use xlink:href="#DejaVuSans-11" transform="translate(63.625 0)"/>
       <use xlink:href="#DejaVuSans-13" transform="translate(95.40625 0)"/>
      </g>
     </g>
    </g>
    <g id="text_13">
     <!-- Amplitude (physical unit) -->
     <g transform="translate(14.798438 184.997625) rotate(-90) scale(0.1 -0.1)">
      <defs>
       <path id="DejaVuSans-24" d="M 2188 4044 
L 1331 1722 
L 3047 1722 
L 2188 4044 
z
M 1831 4666 
L 2547 4666 
L 4325 0 
L 3669 0 
L 3244 1197 
L 1141 1197 
L 716 0 
L 50 0 
L 1831 4666 
z
" transform="scale(0.015625)"/>
       <path id="DejaVuSans-53" d="M 1159 525 
L 1159 -1331 
L 581 -1331 
L 581 3500 
L 1159 3500 
L 1159 2969 
Q 1341 3281 1617 3432 
Q 1894 3584 2278 3584 
Q 2916 3584 3314 3078 
Q 3713 2572 3713 1747 
Q 3713 922 3314 415 
Q 2916 -91 2278 -91 
Q 1894 -91 1617 61 
Q 1341 213 1159 525 
z
M 3116 1747 
Q 3116 2381 2855 2742 
Q 2594 3103 2138 3103 
Q 1681 3103 1420 2742 
Q 1159 2381 1159 1747 
Q 1159 1113 1420 752 
Q 1681 391 2138 391 
Q 2594 391 2855 752 
Q 3116 1113 3116 1747 
z
" transform="scale(0.015625)"/>
       <path id="DejaVuSans-4f" d="M 603 4863 
L 1178 4863 
L 1178 0 
L 603 0 
L 603 4863 
z
" transform="scale(0.015625)"/>
       <path id="DejaVuSans-57" d="M 1172 4494 
L 1172 3500 
L 2356 3500 
L 2356 3053 
L 1172 3053 
L 1172 1153 
Q 1172 725 1289 603 
Q 1406 481 1766 481 
L 2356 481 
L 2356 0 
L 1766 0 
Q 1100 0 847 248 
Q 594 497 594 1153 
L 594 3053 
L 172 3053 
L 172 3500 
L 594 3500 
L 594 4494 
L 1172 4494 
z
" transform="scale(0.015625)"/>
       <path id="DejaVuSans-58" d="M 544 1381 
L 544 3500 
L 1119 3500 
L 1119 1403 
Q 1119 906 1312 657 
Q 1506 409 1894 409 
Q 2359 409 2629 706 
Q 2900 1003 2900 1516 
L 2900 3500 
L 3475 3500 
L 3475 0 
L 2900 0 
L 2900 538 
Q 2691 219 2414 64 
Q 2138 -91 1772 -91 
Q 1169 -91 856 284 
Q 544 659 544 1381 
z
M 1991 3584 
L 1991 3584 
z
" transform="scale(0.015625)"/>
       <path id="DejaVuSans-47" d="M 2906 2969 
L 2906 4863 
L 3481 4863 
L 3481 0 
L 2906 0 
L 2906 525 
Q 2725 213 2448 61 
Q 2172 -91 1784 -91 
Q 1150 -91 751 415 
Q 353 922 353 1747 
Q 353 2572 751 3078 
Q 1150 3584 1784 3584 
Q 2172 3584 2448 3432 
Q 2725 3281 2906 2969 
z
M 947 1747 
Q 947 1113 1208 752 
Q 1469 391 1925 391 
Q 2381 391 2643 752 
Q 2906 1113 2906 1747 
Q 2906 2381 2643 2742 
Q 2381 3103 1925 3103 
Q 1469 3103 1208 2742 
Q 947 2381 947 1747 
z
" transform="scale(0.015625)"/>
       <path id="DejaVuSans-4b" d="M 3513 2113 
L 3513 0 
L 2938 0 
L 2938 2094 
Q 2938 2591 2744 2837 
Q 2550 3084 2163 3084 
Q 1697 3084 1428 2787 
Q 1159 2491 1159 1978 
L 1159 0 
L 581 0 
L 581 4863 
L 1159 4863 
L 1159 2956 
Q 1366 3272 1645 3428 
Q 1925 3584 2291 3584 
Q 2894 3584 3203 3211 
Q 3513 2838 3513 2113 
z
" transform="scale(0.015625)"/>
       <path id="DejaVuSans-5c" d="M 2059 -325 
Q 1816 -950 1584 -1140 
Q 1353 -1331 966 -1331 
L 506 -1331 
L 506 -850 
L 844 -850 
Q 1081 -850 1212 -737 
Q 1344 -625 1503 -206 
L 1606 56 
L 191 3500 
L 800 3500 
L 1894 763 
L 2988 3500 
L 3597 3500 
L 2059 -325 
z
" transform="scale(0.015625)"/>
       <path id="DejaVuSans-46" d="M 3122 3366 
L 3122 2828 
Q 2878 2963 2633 3030 
Q 2388 3097 2138 3097 
Q 1578 3097 1268 2742 
Q 959 2388 959 1747 
Q 959 1106 1268 751 
Q 1578 397 2138 397 
Q 2388 397 2633 464 
Q 2878 531 3122 666 
L 3122 134 
Q 2881 22 2623 -34 
Q 2366 -91 2075 -91 
Q 1284 -91 818 406 
Q 353 903 353 1747 
Q 353 2603 823 3093 
Q 1294 3584 2113 3584 
Q 2378 3584 2631 3529 
Q 2884 3475 3122 3366 
z
" transform="scale(0.015625)"/>
       <path id="DejaVuSans-44" d="M 2194 1759 
Q 1497 1759 1228 1600 
Q 959 1441 959 1056 
Q 959 750 1161 570 
Q 1363 391 1709 391 
Q 2188 391 2477 730 
Q 2766 1069 2766 1631 
L 2766 1759 
L 2194 1759 
z
M 3341 1997 
L 3341 0 
L 2766 0 
L 2766 531 
Q 2569 213 2275 61 
Q 1981 -91 1556 -91 
Q 1019 -91 701 211 
Q 384 513 384 1019 
Q 384 1609 779 1909 
Q 1175 2209 1959 2209 
L 2766 2209 
L 2766 2266 
Q 2766 2663 2505 2880 
Q 2244 3097 1772 3097 
Q 1472 3097 1187 3025 
Q 903 2953 641 2809 
L 641 3341 
Q 956 3463 1253 3523 
Q 1550 3584 1831 3584 
Q 2591 3584 2966 3190 
Q 3341 2797 3341 1997 
z
" transform="scale(0.015625)"/>
       <path id="DejaVuSans-51" d="M 3513 2113 
L 3513 0 
L 2938 0 
L 2938 2094 
Q 2938 2591 2744 2837 
Q 2550 3084 2163 3084 
Q 1697 3084 1428 2787 
Q 1159 2491 1159 1978 
L 1159 0 
L 581 0 
L 581 3500 
L 1159 3500 
L 1159 2956 
Q 1366 3272 1645 3428 
Q 1925 3584 2291 3584 
Q 2894 3584 3203 3211 
Q 3513 2838 3513 2113 
z
" transform="scale(0.015625)"/>
      </defs>
      <use xlink:href="#DejaVuSans-24"/>
      <use xlink:href="#DejaVuSans-50" transform="translate(68.40625 0)"/>
      <use xlink:href="#DejaVuSans-53" transform="translate(165.8125 0)"/>
      <use xlink:href="#DejaVuSans-4f" transform="translate(229.296875 0)"/>
      <use xlink:href="#DejaVuSans-4c" transform="translate(257.078125 0)"/>
      <use xlink:href="#DejaVuSans-57" transform="translate(284.859375 0)"/>
      <use xlink:href="#DejaVuSans-58" transform="translate(324.0625 0)"/>
      <use xlink:href="#DejaVuSans-47" transform="translate(387.4375 0)"/>
      <use xlink:href="#DejaVuSans-48" transform="translate(450.921875 0)"/>
      <use xlink:href="#DejaVuSans-3" transform="translate(512.453125 0)"/>
      <use xlink:href="#DejaVuSans-b" transform="translate(544.234375 0)"/>
      <use xlink:href="#DejaVuSans-53" transform="translate(583.25 0)"/>
      <use xlink:href="#DejaVuSans-4b" transform="translate(646.734375 0)"/>
      <use xlink:href="#DejaVuSans-5c" transform="translate(710.109375 0)"/>
      <use xlink:href="#DejaVuSans-56" transform="translate(769.296875 0)"/>
      <use xlink:href="#DejaVuSans-4c" transform="translate(821.390625 0)"/>
      <use xlink:href="#DejaVuSans-46" transform="translate(849.171875 0)"/>
      <use xlink:href="#DejaVuSans-44" transform="translate(904.15625 0)"/>
      <use xlink:href="#DejaVuSans-4f" transform="translate(965.4375 0)"/>
      <use xlink:href="#DejaVuSans-3" transform="translate(993.21875 0)"/>
      <use xlink:href="#DejaVuSans-58" transform="translate(1025 0)"/>
      <use xlink:href="#DejaVuSans-51" transform="translate(1088.375 0)"/>
      <use xlink:href="#DejaVuSans-4c" transform="translate(1151.75 0)"/>
      <use xlink:href="#DejaVuSans-57" transform="translate(1179.53125 0)"/>
      <use xlink:href="#DejaVuSans-c" transform="translate(1218.734375 0)"/>
     </g>
    </g>
   </g>
   <g id="line2d_23">
    <path d="M 77.84723 187.736159 
L 78.839936 158.34634 
L 79.832642 140.313164 
L 80.825348 179.696326 
L 81.818054 134.778022 
L 82.81076 128.459303 
L 83.803466 155.400462 
L 84.796172 110.902085 
L 85.788878 81.452906 
L 86.781583 124.141726 
L 87.774289 97.234616 
L 88.766995 51.64005 
L 89.759701 111.270374 
L 90.752407 114.463243 
L 91.745113 41.898226 
L 93.730525 114.064203 
L 94.723231 64.948645 
L 95.715937 94.216162 
L 96.708643 137.446316 
L 97.701349 90.441929 
L 98.694055 118.627949 
L 99.68676 184.247036 
L 100.679466 122.263441 
L 101.672172 142.791509 
L 102.664878 195.613482 
L 103.657584 145.944901 
L 104.65029 146.559919 
L 105.642996 194.663458 
L 106.635702 149.901781 
L 107.628408 114.636096 
L 108.621114 170.334361 
L 109.61382 112.326989 
L 110.606526 70.519831 
L 111.599232 116.649019 
L 112.591937 107.711167 
L 113.584643 49.77069 
L 114.577349 99.565095 
L 115.570055 95.159949 
L 116.562761 42.334483 
L 117.555467 113.032827 
L 118.548173 116.822529 
L 119.540879 84.452468 
L 121.526291 144.474272 
L 122.518997 88.34388 
L 124.504409 166.903719 
L 125.497114 125.009738 
L 126.48982 136.246283 
L 127.482526 212.830125 
L 128.475232 154.250217 
L 129.467938 150.701255 
L 130.460644 212.618812 
L 131.45335 138.681847 
L 132.446056 107.502289 
L 133.438762 147.209901 
L 134.431468 124.063122 
L 135.424174 61.295948 
L 136.41688 130.487794 
L 137.409586 110.116819 
L 138.402291 48.616017 
L 139.394997 100.344581 
L 140.387703 100.288711 
L 141.380409 36.792059 
L 142.373115 104.056461 
L 143.365821 109.435336 
L 144.358527 55.889324 
L 145.351233 95.498216 
L 146.343939 128.498758 
L 147.336645 89.844929 
L 148.329351 129.514667 
L 149.322057 174.902627 
L 150.314763 125.153839 
L 151.307469 148.034004 
L 152.300174 206.792154 
L 153.29288 135.702981 
L 154.285586 144.802216 
L 155.278292 183.098576 
L 156.270998 151.742786 
L 157.263704 113.058294 
L 158.25641 157.387825 
L 159.249116 121.521482 
L 160.241822 77.572548 
L 161.234528 116.405922 
L 162.227234 88.186649 
L 163.21994 51.755667 
L 164.212646 97.404254 
L 165.205351 105.525757 
L 166.198057 31.801778 
L 167.190763 100.837211 
L 168.183469 105.509278 
L 169.176175 80.348372 
L 170.168881 106.396716 
L 171.161587 147.594199 
L 172.154293 101.685845 
L 173.146999 133.315044 
L 174.139705 182.017208 
L 175.132411 116.650092 
L 176.125117 144.149052 
L 177.117823 193.211768 
L 178.110528 136.890436 
L 179.103234 142.083731 
L 180.09594 205.114686 
L 181.088646 130.289753 
L 182.081352 114.561004 
L 183.074058 151.136758 
L 184.066764 122.948305 
L 185.05947 78.638122 
L 186.052176 126.043133 
L 187.044882 110.529987 
L 188.037588 63.954897 
L 189.030294 90.073023 
L 190.023 102.8059 
L 191.015705 48.003558 
L 192.008411 99.371233 
L 193.001117 108.482032 
L 193.993823 70.924763 
L 194.986529 96.72818 
L 195.979235 147.849192 
L 196.971941 83.322403 
L 198.957353 169.185073 
L 199.950059 116.878982 
L 200.942765 135.877113 
L 201.935471 203.514532 
L 202.928177 131.531082 
L 203.920882 129.349183 
L 204.913588 175.5941 
L 205.906294 143.033813 
L 206.899 103.963772 
L 207.891706 156.523103 
L 208.884412 107.19409 
L 209.877118 80.265204 
L 210.869824 122.553826 
L 211.86253 112.571327 
L 212.855236 57.301173 
L 213.847942 81.974916 
L 214.840648 87.500223 
L 215.833354 55.693041 
L 216.82606 96.491706 
L 217.818765 117.588241 
L 218.811471 81.193033 
L 219.804177 114.427336 
L 220.796883 125.105933 
L 221.789589 93.274141 
L 223.775001 168.057939 
L 224.767707 117.860831 
L 225.760413 144.74739 
L 226.753119 178.086924 
L 227.745825 150.578954 
L 228.738531 140.377 
L 229.731237 167.371272 
L 230.723942 150.997241 
L 231.716648 112.686863 
L 232.709354 158.157463 
L 233.70206 127.088997 
L 234.694766 85.707708 
L 235.687472 118.5765 
L 236.680178 102.309553 
L 237.672884 52.765252 
L 238.66559 82.264369 
L 239.658296 84.196273 
L 240.651002 36.954217 
L 242.636414 111.111945 
L 243.629119 67.457459 
L 245.614531 139.669542 
L 246.607237 88.963694 
L 247.599943 122.760452 
L 248.592649 171.446645 
L 249.585355 138.777025 
L 250.578061 150.293805 
L 251.570767 179.619169 
L 252.563473 142.753957 
L 253.556179 129.27546 
L 254.548885 156.84582 
L 256.534296 125.982477 
L 257.527002 167.759582 
L 258.519708 116.74956 
L 259.512414 80.445868 
L 260.50512 123.949694 
L 261.497826 113.109203 
L 262.490532 57.221551 
L 263.483238 97.484444 
L 264.475944 96.892903 
L 265.46865 45.53653 
L 266.461356 93.067155 
L 267.454062 107.373205 
L 268.446768 71.020996 
L 269.439473 107.560149 
L 270.432179 132.124641 
L 271.424885 102.21518 
L 272.417591 123.854999 
L 273.410297 179.883806 
L 274.403003 112.222724 
L 275.395709 148.801674 
L 276.388415 180.549198 
L 277.381121 144.527068 
L 278.373827 134.601907 
L 279.366533 175.861487 
L 280.359239 134.317112 
L 281.351945 130.296401 
L 282.344651 158.666255 
L 283.337356 118.359748 
L 284.330062 86.312224 
L 285.322768 115.766318 
L 286.315474 96.197213 
L 287.30818 45.756802 
L 288.300886 100.582447 
L 289.293592 106.207316 
L 290.286298 45.992058 
L 291.279004 100.015127 
L 292.27171 113.093243 
L 293.264416 64.107892 
L 294.257122 117.607655 
L 295.249828 136.228909 
L 296.242533 115.616627 
L 297.235239 140.259445 
L 298.227945 172.280291 
L 299.220651 126.84522 
L 300.213357 121.572007 
L 301.206063 172.682721 
L 302.198769 149.037306 
L 303.191475 150.143799 
L 304.184181 197.221722 
L 305.176887 139.965748 
L 306.169593 111.509599 
L 307.162299 164.47914 
L 308.155005 129.535483 
L 309.14771 68.442388 
L 310.140416 119.288492 
L 311.133122 107.745311 
L 312.125828 41.615317 
L 313.118534 100.837853 
L 314.11124 110.231762 
L 315.103946 43.378581 
L 316.096652 86.163474 
L 317.089358 109.668612 
L 318.082064 60.184923 
L 319.07477 110.891853 
L 320.067476 139.58383 
L 321.060182 92.287948 
L 322.052887 130.30177 
L 323.045593 189.912285 
L 324.038299 131.136067 
L 325.031005 123.377389 
L 326.023711 182.635773 
L 327.016417 141.888315 
L 328.009123 152.109584 
L 329.001829 181.446779 
L 329.994535 152.046299 
L 330.987241 110.269967 
L 331.979947 167.244131 
L 332.972653 130.517816 
L 333.965359 66.834315 
L 334.958064 129.496962 
L 335.95077 107.412436 
L 336.943476 60.158417 
L 337.936182 102.970589 
L 338.928888 89.380333 
L 339.921594 53.671201 
L 340.9143 84.165607 
L 341.907006 102.653896 
L 342.899712 75.517494 
L 344.885124 143.216197 
L 345.87783 85.824476 
L 346.870536 135.16282 
L 347.863241 159.870955 
L 348.855947 118.036457 
L 350.841359 189.142457 
L 351.834065 131.066528 
L 352.826771 137.081427 
L 353.819477 191.653801 
L 354.812183 142.334144 
L 355.804889 99.071973 
L 356.797595 145.193342 
L 357.790301 118.851166 
L 358.783007 83.131169 
L 359.775713 133.427505 
L 360.768419 99.150898 
L 361.761124 51.508096 
L 362.75383 112.992266 
L 363.746536 103.333177 
L 364.739242 35.990209 
L 365.731948 100.612288 
L 366.724654 98.847501 
L 367.71736 65.099722 
L 369.702772 141.406873 
L 370.695478 106.086542 
L 371.688184 154.832782 
L 372.68089 171.557505 
L 373.673596 139.530974 
L 374.666301 143.797242 
L 375.659007 186.841998 
L 376.651713 129.402076 
L 377.644419 136.218768 
L 378.637125 185.717205 
L 379.629831 116.787924 
L 380.622537 126.198717 
L 381.615243 160.799552 
L 382.607949 115.209186 
L 383.600655 92.649648 
L 384.593361 124.946492 
L 385.586067 99.30664 
L 386.578773 51.912443 
L 387.571478 105.373585 
L 388.564184 105.237891 
L 389.55689 47.400848 
L 390.549596 87.669555 
L 391.542302 100.459211 
L 392.535008 64.406771 
L 393.527714 105.784053 
L 394.52042 159.892877 
L 395.513126 103.699888 
L 396.505832 121.301127 
L 397.498538 184.997544 
L 398.491244 110.387611 
L 399.48395 151.506947 
L 400.476655 186.988557 
L 401.469361 151.384469 
L 402.462067 138.482065 
L 403.454773 178.673796 
L 405.440185 106.647901 
L 406.432891 179.129483 
L 408.418303 77.776948 
L 409.411009 109.629773 
L 410.403715 94.733419 
L 411.396421 52.493128 
L 412.389127 75.036272 
L 413.381832 91.076376 
L 414.374538 36.928787 
L 415.367244 100.943381 
L 416.35995 111.112568 
L 417.352656 63.458144 
L 418.345362 107.169126 
L 419.338068 132.93692 
L 420.330774 98.755889 
L 421.32348 124.332695 
L 422.316186 180.811169 
L 423.308892 110.46484 
L 424.301598 151.703463 
L 425.294304 200.355272 
L 426.28701 127.662628 
L 427.279715 137.586513 
L 428.272421 177.431364 
L 429.265127 144.42807 
L 430.257833 129.064476 
L 431.250539 162.405255 
L 432.243245 105.324998 
L 433.235951 82.677856 
L 434.228657 135.027991 
L 435.221363 98.701254 
L 436.214069 57.638068 
L 437.206775 91.460309 
L 438.199481 86.390888 
L 439.192187 49.843876 
L 440.184892 104.156019 
L 441.177598 130.682087 
L 442.170304 67.722253 
L 443.16301 105.640374 
L 444.155716 148.464358 
L 445.148422 101.82737 
L 446.141128 128.43824 
L 447.133834 170.348625 
L 448.12654 121.368872 
L 449.119246 131.392432 
L 450.111952 203.947992 
L 451.104658 140.06346 
L 452.097364 156.004134 
L 453.090069 201.359752 
L 454.082775 129.669227 
L 455.075481 100.334509 
L 456.068187 147.925462 
L 457.060893 114.392171 
L 458.053599 90.036062 
L 459.046305 131.158924 
L 460.039011 103.970185 
L 461.031717 56.91822 
L 462.024423 101.438755 
L 463.017129 105.983833 
L 464.009835 52.941743 
L 465.002541 83.362878 
L 465.995246 106.865184 
L 466.987952 59.127672 
L 467.980658 114.315698 
L 468.973364 141.010242 
L 469.96607 106.595523 
L 470.958776 123.734745 
L 471.951482 180.665441 
L 472.944188 122.101714 
L 473.936894 136.073753 
L 474.9296 190.8396 
L 475.922306 144.245377 
L 476.915012 139.861977 
L 477.907718 186.326536 
L 478.900423 130.049508 
L 479.893129 105.454813 
L 480.885835 146.443802 
L 481.878541 120.278435 
L 482.871247 85.690218 
L 483.863953 118.086695 
L 484.856659 98.216702 
L 485.849365 43.447633 
L 486.842071 103.716132 
L 487.834777 91.67491 
L 488.827483 67.14304 
L 489.820189 102.547286 
L 490.812895 99.885044 
L 491.805601 64.998908 
L 492.798306 92.219408 
L 493.791012 131.476963 
L 494.783718 100.477821 
L 495.776424 126.348079 
L 496.76913 174.112569 
L 497.761836 130.811894 
L 498.754542 143.973737 
L 499.747248 199.763547 
L 500.739954 156.59105 
L 501.73266 141.657441 
L 502.725366 179.736956 
L 503.718072 157.256279 
L 504.710778 117.628433 
L 505.703483 137.250682 
L 506.696189 130.099579 
L 507.688895 91.70901 
L 508.681601 133.831226 
L 510.667013 64.056633 
L 511.659719 96.254864 
L 512.652425 94.076632 
L 513.645131 56.263563 
L 514.637837 98.188006 
L 515.630543 104.65258 
L 516.623249 51.477923 
L 517.615955 104.728917 
L 518.60866 139.543307 
L 519.601366 94.364229 
L 520.594072 132.066073 
L 521.586778 182.573383 
L 522.579484 134.659358 
L 523.57219 132.388285 
L 524.564896 189.156861 
L 525.557602 148.209964 
L 526.550308 146.131891 
L 527.543014 197.508968 
L 528.53572 136.981315 
L 529.528426 113.780218 
L 530.521132 154.784916 
L 531.513837 108.586771 
L 532.506543 72.309977 
L 533.499249 104.863177 
L 534.491955 94.947423 
L 535.484661 48.491124 
L 536.477367 86.818018 
L 537.470073 97.687947 
L 538.462779 38.604417 
L 539.455485 95.628117 
L 540.448191 117.907302 
L 541.440897 70.52793 
L 543.426309 138.152917 
L 544.419014 95.887981 
L 545.41172 121.948921 
L 546.404426 171.199052 
L 547.397132 118.348859 
L 548.389838 137.345659 
L 549.382544 199.667434 
L 550.37525 147.268574 
L 551.367956 130.974977 
L 552.360662 182.830743 
L 553.353368 147.819384 
L 554.346074 108.360274 
L 555.33878 156.205775 
L 556.331486 115.076862 
L 557.324192 80.726925 
L 558.316897 135.333712 
L 559.309603 97.636321 
L 560.302309 52.317692 
L 561.295015 101.541828 
L 562.287721 92.583718 
L 563.280427 38.987126 
L 564.273133 89.779289 
L 565.265839 113.900134 
L 566.258545 69.665458 
L 568.243957 154.138283 
L 569.236663 97.446526 
L 570.229369 135.616149 
L 571.222074 159.250852 
L 572.21478 117.094884 
L 573.207486 142.528803 
L 574.200192 191.857867 
L 575.192898 161.324209 
L 576.185604 150.708107 
L 577.17831 175.75443 
L 578.171016 145.711895 
L 579.163722 108.45179 
L 580.156428 163.514526 
L 581.149134 114.755471 
L 582.14184 76.523444 
L 583.134546 126.176843 
L 584.127251 107.390998 
L 585.119957 52.707135 
L 585.119957 52.707135 
" clip-path="url(#p239ee3c6dd)" style="fill: none; stroke: #1f77b4; stroke-width: 0.9; stroke-linecap: square"/>
   </g>
   <g id="line2d_24">
    <path d="M 77.84723 189.959859 
L 78.839936 159.036925 
L 79.832642 142.559918 
L 80.825348 180.551899 
L 81.818054 137.149791 
L 82.81076 129.573374 
L 83.803466 157.961429 
L 84.796172 112.31503 
L 85.788878 84.204696 
L 86.781583 125.822895 
L 87.774289 100.10665 
L 88.766995 53.486851 
L 89.759701 114.127821 
L 90.752407 116.317352 
L 91.745113 44.565487 
L 93.730525 116.358461 
L 94.723231 66.272858 
L 95.715937 95.983558 
L 96.708643 138.286888 
L 97.701349 91.588078 
L 98.694055 118.922609 
L 99.68676 184.754412 
L 100.679466 122.027762 
L 101.672172 142.719192 
L 102.664878 194.931615 
L 103.657584 145.410608 
L 104.65029 145.559348 
L 105.642996 193.812458 
L 106.635702 148.718681 
L 107.628408 113.605108 
L 108.621114 169.078685 
L 109.61382 111.212741 
L 110.606526 69.24969 
L 111.599232 115.490119 
L 112.591937 106.423564 
L 113.584643 48.547671 
L 114.577349 98.205282 
L 115.570055 93.812938 
L 116.562761 40.820809 
L 117.555467 111.491454 
L 118.548173 115.079649 
L 119.540879 82.669689 
L 121.526291 142.455173 
L 122.518997 86.096106 
L 124.504409 164.514989 
L 125.497114 122.809258 
L 126.48982 133.87911 
L 127.482526 210.806742 
L 128.475232 152.106795 
L 129.467938 149.072094 
L 130.460644 210.904036 
L 131.45335 137.644628 
L 132.446056 106.382555 
L 133.438762 146.903639 
L 134.431468 123.631482 
L 135.424174 61.773092 
L 136.41688 130.744526 
L 137.409586 111.333707 
L 138.402291 49.468841 
L 139.394997 102.171742 
L 140.387703 101.571806 
L 141.380409 39.041387 
L 142.373115 105.563578 
L 143.365821 111.897951 
L 144.358527 57.413618 
L 145.351233 97.984711 
L 146.343939 129.8706 
L 147.336645 92.219232 
L 148.329351 130.629042 
L 149.322057 177.101854 
L 150.314763 125.980938 
L 151.307469 150.069564 
L 152.300174 207.368593 
L 153.29288 137.64292 
L 154.285586 145.205517 
L 155.278292 185.036289 
L 156.270998 152.056385 
L 157.263704 115.0764 
L 158.25641 157.666307 
L 159.249116 123.660736 
L 160.241822 77.816556 
L 161.234528 118.647576 
L 162.227234 88.334366 
L 163.21994 54.022114 
L 164.212646 97.341875 
L 165.205351 107.699227 
L 166.198057 31.390125 
L 167.190763 102.791376 
L 168.183469 104.619504 
L 169.176175 81.984496 
L 170.168881 104.945941 
L 171.161587 148.872561 
L 172.154293 99.663774 
L 173.146999 134.273686 
L 174.139705 179.497171 
L 175.132411 117.406228 
L 176.125117 141.280845 
L 177.117823 193.945476 
L 178.110528 133.87665 
L 179.103234 143.00749 
L 180.09594 202.175725 
L 181.088646 131.610435 
L 182.081352 111.89648 
L 183.074058 153.01849 
L 184.066764 120.703566 
L 185.05947 81.174536 
L 186.052176 124.28854 
L 187.044882 113.731924 
L 188.037588 62.682014 
L 189.030294 93.873762 
L 190.023 101.940575 
L 191.015705 52.27957 
L 192.008411 98.799842 
L 193.001117 113.083974 
L 193.993823 70.527 
L 194.986529 101.514511 
L 195.979235 147.529302 
L 196.971941 88.187563 
L 197.964647 127.141741 
L 198.957353 174.075735 
L 199.950059 116.622687 
L 200.942765 140.793023 
L 201.935471 203.345981 
L 202.928177 136.510872 
L 203.920882 129.347621 
L 204.913588 180.690383 
L 206.899 109.214795 
L 207.891706 157.057502 
L 208.884412 112.600076 
L 209.877118 81.090203 
L 210.869824 128.064686 
L 211.86253 113.631533 
L 212.855236 62.819183 
L 213.847942 83.170686 
L 214.840648 92.897417 
L 215.833354 56.903729 
L 216.82606 101.637991 
L 217.818765 118.703001 
L 218.811471 85.987856 
L 219.804177 115.375363 
L 220.796883 129.505153 
L 221.789589 94.046467 
L 222.782295 134.424699 
L 223.775001 168.715397 
L 224.767707 121.622943 
L 225.760413 145.412348 
L 226.753119 181.733971 
L 227.745825 151.411744 
L 228.738531 144.087864 
L 229.731237 168.535829 
L 230.723942 154.938215 
L 231.716648 114.313041 
L 232.709354 162.445672 
L 233.70206 129.240233 
L 234.694766 90.383932 
L 235.687472 121.230597 
L 236.680178 107.327143 
L 237.672884 55.813446 
L 238.66559 87.497547 
L 239.658296 87.461647 
L 240.651002 42.224494 
L 242.636414 116.2266 
L 243.629119 70.531578 
L 245.614531 142.388921 
L 246.607237 93.329096 
L 247.599943 125.040746 
L 248.592649 175.35634 
L 249.585355 140.615925 
L 250.578061 153.796736 
L 251.570767 181.086473 
L 252.563473 145.957404 
L 253.556179 130.487569 
L 254.548885 159.884451 
L 255.541591 142.389763 
L 256.534296 128.983317 
L 257.527002 168.827373 
L 258.519708 119.800964 
L 259.512414 81.555721 
L 260.50512 127.081071 
L 261.497826 114.260714 
L 262.490532 60.398444 
L 263.483238 98.619806 
L 264.475944 100.028493 
L 265.46865 46.559119 
L 266.461356 96.04705 
L 267.454062 108.176483 
L 268.446768 73.73478 
L 269.439473 108.059174 
L 270.432179 134.49579 
L 271.424885 102.372273 
L 272.417591 125.861305 
L 273.410297 179.721613 
L 274.403003 113.902015 
L 276.388415 181.989059 
L 277.381121 144.006056 
L 278.373827 135.916205 
L 279.366533 175.351392 
L 280.359239 135.615421 
L 281.351945 129.907048 
L 282.344651 160.023988 
L 283.337356 118.153288 
L 284.330062 87.749205 
L 285.322768 115.742137 
L 286.315474 97.670715 
L 287.30818 45.852796 
L 288.300886 101.99719 
L 289.293592 106.317679 
L 290.286298 47.224852 
L 291.279004 100.020011 
L 292.27171 114.025769 
L 293.264416 63.907129 
L 294.257122 118.158908 
L 295.249828 135.771227 
L 296.242533 115.766837 
L 297.235239 139.559777 
L 298.227945 172.080192 
L 299.220651 125.985702 
L 300.213357 121.135179 
L 301.206063 171.797309 
L 302.198769 148.517574 
L 303.191475 149.390151 
L 304.184181 196.780562 
L 305.176887 139.490272 
L 306.169593 111.280277 
L 307.162299 164.382783 
L 308.155005 129.592259 
L 309.14771 68.755757 
L 310.140416 119.629002 
L 311.133122 108.419999 
L 312.125828 42.161111 
L 313.118534 101.756576 
L 314.11124 110.847101 
L 315.103946 44.38176 
L 316.096652 86.687772 
L 317.089358 110.591007 
L 318.082064 60.47116 
L 319.07477 111.600716 
L 320.067476 139.533973 
L 321.060182 92.713785 
L 322.052887 129.890798 
L 323.045593 190.064881 
L 324.038299 130.418855 
L 325.031005 123.343405 
L 326.023711 181.735457 
L 327.016417 141.811495 
L 328.009123 151.190641 
L 329.001829 181.495788 
L 329.994535 151.278716 
L 330.987241 110.601215 
L 331.979947 166.766761 
L 332.972653 131.241788 
L 333.965359 66.726004 
L 334.958064 130.656072 
L 335.95077 107.677835 
L 336.943476 61.721588 
L 337.936182 103.543721 
L 338.928888 91.255058 
L 339.921594 54.435284 
L 340.9143 86.223927 
L 341.907006 103.472061 
L 342.899712 77.629063 
L 344.885124 145.279784 
L 345.87783 86.422233 
L 346.870536 137.128115 
L 347.863241 160.292093 
L 348.855947 119.910996 
L 349.848653 153.461833 
L 350.841359 190.982402 
L 351.834065 131.264394 
L 352.826771 138.968851 
L 353.819477 191.856847 
L 355.804889 99.344083 
L 356.797595 147.375773 
L 357.790301 119.212543 
L 358.783007 85.473668 
L 359.775713 133.841101 
L 360.768419 101.58383 
L 361.761124 51.881607 
L 362.75383 115.395841 
L 363.746536 103.536284 
L 364.739242 38.218216 
L 365.731948 100.505407 
L 366.724654 100.759644 
L 367.71736 64.567679 
L 369.702772 140.389178 
L 370.695478 107.128591 
L 371.688184 153.342224 
L 372.68089 172.185789 
L 373.673596 137.655008 
L 374.666301 144.119303 
L 375.659007 184.726462 
L 376.651713 129.570286 
L 377.644419 134.038618 
L 378.637125 185.895988 
L 379.629831 114.712547 
L 380.622537 126.530335 
L 381.615243 158.960674 
L 382.607949 115.785734 
L 383.600655 91.118834 
L 384.593361 125.794266 
L 385.586067 98.087431 
L 386.578773 52.992386 
L 387.571478 104.410319 
L 388.564184 106.462285 
L 389.55689 46.602264 
L 390.549596 88.931059 
L 391.542302 99.731172 
L 392.535008 65.612706 
L 393.527714 105.063232 
L 394.52042 160.996008 
L 395.513126 102.979533 
L 396.505832 122.318552 
L 397.498538 184.338096 
L 398.491244 111.402405 
L 400.476655 188.133555 
L 401.469361 151.242478 
L 402.462067 139.909427 
L 403.454773 179.024076 
L 405.440185 107.608085 
L 406.432891 181.467622 
L 407.425597 128.028389 
L 408.418303 80.60735 
L 409.411009 111.862008 
L 410.403715 97.963117 
L 411.396421 55.210237 
L 412.389127 78.492743 
L 413.381832 94.08047 
L 414.374538 40.389014 
L 415.367244 104.004509 
L 416.35995 114.343081 
L 417.352656 66.356079 
L 418.345362 109.967137 
L 419.338068 135.499126 
L 420.330774 100.982091 
L 421.32348 126.460148 
L 422.316186 182.407349 
L 423.308892 112.140597 
L 424.301598 152.69171 
L 425.294304 201.634605 
L 426.28701 128.127159 
L 427.279715 138.57175 
L 428.272421 177.488083 
L 429.265127 145.23485 
L 430.257833 128.826162 
L 431.250539 163.128721 
L 432.243245 104.870745 
L 433.235951 83.367092 
L 434.228657 134.384457 
L 435.221363 99.34838 
L 436.214069 56.777293 
L 437.206775 92.006924 
L 438.199481 85.245025 
L 439.192187 50.202874 
L 440.184892 102.644804 
L 441.177598 130.768698 
L 442.170304 65.78548 
L 444.155716 146.090458 
L 445.148422 101.274249 
L 446.141128 125.681699 
L 447.133834 169.553523 
L 448.12654 118.35224 
L 449.119246 130.491455 
L 450.111952 200.847677 
L 451.104658 139.23296 
L 452.097364 153.022666 
L 453.090069 200.784076 
L 454.082775 126.999978 
L 455.075481 100.170309 
L 456.068187 145.718429 
L 457.060893 114.738392 
L 458.053599 88.37351 
L 459.046305 132.040007 
L 460.039011 102.857755 
L 461.031717 58.283896 
L 462.024423 100.813283 
L 463.017129 107.724904 
L 464.009835 52.693513 
L 465.002541 85.339145 
L 465.995246 106.869319 
L 466.987952 61.201453 
L 467.980658 114.465111 
L 468.973364 143.077218 
L 469.96607 106.826965 
L 470.958776 125.744083 
L 471.951482 180.971671 
L 472.944188 124.060156 
L 473.936894 136.498707 
L 474.9296 192.79874 
L 475.922306 144.863889 
L 476.915012 141.892319 
L 477.907718 187.213983 
L 478.900423 132.208104 
L 479.893129 106.654599 
L 480.885835 148.744071 
L 481.878541 121.776063 
L 482.871247 88.082157 
L 483.863953 119.797492 
L 484.856659 100.582942 
L 485.849365 45.221667 
L 486.842071 105.885341 
L 487.834777 93.318536 
L 488.827483 68.918082 
L 489.820189 103.856779 
L 490.812895 101.079709 
L 491.805601 65.798786 
L 492.798306 92.695756 
L 493.791012 131.654879 
L 494.783718 100.176156 
L 495.776424 125.878637 
L 496.76913 173.067049 
L 497.761836 129.763441 
L 498.754542 142.309219 
L 499.747248 198.285603 
L 500.739954 154.50125 
L 501.73266 139.951396 
L 502.725366 177.448947 
L 503.718072 155.536401 
L 504.710778 115.362041 
L 505.703483 135.704944 
L 506.696189 128.031413 
L 507.688895 90.468964 
L 508.681601 132.071437 
L 510.667013 62.64291 
L 511.659719 95.740109 
L 512.652425 92.985821 
L 513.645131 56.052648 
L 514.637837 97.361769 
L 515.630543 104.672712 
L 516.623249 50.855515 
L 517.615955 104.923016 
L 518.60866 139.092712 
L 519.601366 94.718104 
L 520.594072 131.804987 
L 521.586778 183.129138 
L 522.579484 134.659749 
L 523.57219 133.239709 
L 524.564896 189.53132 
L 525.557602 149.480739 
L 526.550308 147.005111 
L 527.543014 199.319212 
L 528.53572 138.453943 
L 529.528426 116.209879 
L 530.521132 156.899168 
L 531.513837 111.645651 
L 532.506543 75.026538 
L 533.499249 108.476133 
L 534.491955 98.140447 
L 535.484661 52.502893 
L 536.477367 90.289941 
L 537.470073 101.886538 
L 538.462779 42.116964 
L 539.455485 99.780936 
L 540.448191 121.221145 
L 541.440897 74.422006 
L 543.426309 141.630135 
L 544.419014 98.268992 
L 545.41172 124.928841 
L 546.404426 172.997527 
L 547.397132 120.834678 
L 548.389838 138.592601 
L 549.382544 201.734176 
L 550.37525 148.056095 
L 551.367956 132.742782 
L 552.360662 183.280463 
L 553.353368 149.418397 
L 554.346074 108.587543 
L 555.33878 157.741403 
L 556.331486 115.159849 
L 557.324192 82.254169 
L 558.316897 135.295055 
L 559.309603 99.14938 
L 560.302309 52.123054 
L 561.295015 102.981267 
L 562.287721 92.157356 
L 563.280427 40.26261 
L 564.273133 89.032639 
L 565.265839 114.922851 
L 566.258545 68.531216 
L 567.251251 113.939523 
L 568.243957 152.600679 
L 569.236663 97.862157 
L 570.229369 133.72915 
L 571.222074 159.442731 
L 572.21478 114.983623 
L 573.207486 142.636888 
L 574.200192 189.70274 
L 575.192898 161.528381 
L 576.185604 148.714518 
L 577.17831 176.239517 
L 579.163722 109.368696 
L 580.156428 162.368943 
L 581.149134 116.187911 
L 582.14184 75.934577 
L 583.134546 128.121799 
L 584.127251 107.331196 
L 585.119957 55.07343 
L 585.119957 55.07343 
" clip-path="url(#p239ee3c6dd)" style="fill: none; stroke: #ff7f0e; stroke-width: 0.9; stroke-linecap: square"/>
   </g>
   <g id="line2d_25">
    <path d="M 77.84723 141.609612 
L 78.839936 113.447395 
L 79.832642 99.32304 
L 80.825348 138.673796 
L 81.818054 101.289748 
L 82.81076 101.61958 
L 83.803466 139.085468 
L 84.796172 107.834329 
L 85.788878 95.347289 
L 86.781583 145.680258 
L 87.774289 128.790663 
L 88.766995 86.903179 
L 89.759701 149.367076 
L 90.752407 154.506809 
L 91.745113 84.493194 
L 93.730525 147.83145 
L 94.723231 92.445086 
L 95.715937 114.125585 
L 96.708643 147.632087 
L 97.701349 87.912133 
L 98.694055 102.78611 
L 99.68676 154.994174 
L 100.679466 85.399438 
L 101.672172 100.052388 
L 102.664878 146.801709 
L 103.657584 95.466902 
L 104.65029 95.802599 
L 105.642996 146.841648 
L 106.635702 110.828226 
L 107.628408 86.614857 
L 108.621114 153.186676 
L 109.61382 114.733423 
L 110.606526 88.690256 
L 111.599232 144.926709 
L 112.591937 145.358291 
L 113.584643 92.648533 
L 114.577349 146.904632 
L 115.570055 144.268339 
L 116.562761 88.984117 
L 117.555467 147.56404 
L 118.548173 138.031425 
L 119.540879 94.276509 
L 121.526291 146.816035 
L 122.518997 89.933161 
L 123.511703 123.08947 
L 124.504409 149.379277 
L 125.497114 93.420603 
L 126.48982 89.001543 
L 127.482526 151.789986 
L 128.475232 88.115137 
L 129.467938 84.652872 
L 130.460644 153.936126 
L 131.45335 99.381299 
L 132.446056 89.168805 
L 133.438762 149.532236 
L 134.431468 138.677316 
L 135.424174 84.460146 
L 136.41688 154.659899 
L 137.409586 141.076421 
L 138.402291 86.206219 
L 139.394997 144.534635 
L 140.387703 150.080165 
L 141.380409 87.361322 
L 142.373115 148.704768 
L 143.365821 150.751465 
L 144.358527 89.217497 
L 145.351233 122.183265 
L 146.343939 144.495234 
L 147.336645 94.006051 
L 148.329351 116.544406 
L 149.322057 149.880526 
L 150.314763 86.383995 
L 151.307469 102.989622 
L 152.300174 153.989296 
L 153.29288 87.286453 
L 154.285586 101.546382 
L 155.278292 147.026458 
L 156.270998 122.589302 
L 157.263704 93.12706 
L 158.25641 145.661528 
L 159.249116 124.971353 
L 160.241822 94.476412 
L 161.234528 143.829071 
L 162.227234 119.479518 
L 163.21994 89.273459 
L 164.212646 138.069072 
L 165.205351 155.281646 
L 166.198057 84.270741 
L 167.190763 148.403944 
L 168.183469 136.352572 
L 169.176175 99.088903 
L 170.168881 108.253448 
L 171.161587 144.088067 
L 172.154293 90.07602 
L 173.146999 116.699044 
L 174.139705 152.919814 
L 175.132411 86.681371 
L 176.125117 105.215579 
L 177.117823 151.484698 
L 178.110528 86.716222 
L 179.103234 91.138383 
L 180.09594 153.627197 
L 181.088646 95.030086 
L 182.081352 90.513303 
L 183.074058 145.467407 
L 184.066764 125.812974 
L 185.05947 95.199039 
L 186.052176 143.298141 
L 187.044882 139.345176 
L 188.037588 94.952145 
L 189.030294 131.219785 
L 190.023 142.756869 
L 191.015705 95.578909 
L 192.008411 136.59568 
L 193.001117 143.462375 
L 193.993823 92.766993 
L 194.986529 114.871574 
L 195.979235 151.02162 
L 196.971941 86.307317 
L 197.964647 117.197827 
L 198.957353 152.506652 
L 199.950059 86.054495 
L 200.942765 97.713493 
L 201.935471 153.376999 
L 202.928177 91.07802 
L 203.920882 89.768145 
L 204.913588 147.120615 
L 205.906294 117.081319 
L 206.899 92.417488 
L 207.891706 147.633105 
L 208.884412 112.961356 
L 209.877118 90.12678 
L 210.869824 146.130686 
L 211.86253 138.37878 
L 212.855236 98.549097 
L 213.847942 125.789887 
L 214.840648 137.749246 
L 215.833354 99.579077 
L 216.82606 133.190537 
L 217.818765 138.966897 
L 218.811471 100.287629 
L 219.804177 127.522095 
L 220.796883 138.965355 
L 221.789589 96.748358 
L 222.782295 125.972549 
L 223.775001 148.016701 
L 224.767707 91.703636 
L 225.760413 108.11472 
L 226.753119 139.349465 
L 227.745825 109.029978 
L 228.738531 105.610476 
L 229.731237 135.575686 
L 230.723942 129.095692 
L 231.716648 94.306085 
L 232.709354 147.123008 
L 234.694766 94.870101 
L 235.687472 139.39549 
L 236.680178 139.311387 
L 237.672884 99.504349 
L 238.66559 138.815656 
L 239.658296 142.027401 
L 240.651002 93.893588 
L 242.636414 146.485583 
L 243.629119 90.917314 
L 244.621825 121.81309 
L 245.614531 148.766572 
L 246.607237 90.512994 
L 247.599943 107.528967 
L 248.592649 143.228884 
L 249.585355 97.791477 
L 250.578061 108.220458 
L 251.570767 138.453609 
L 252.563473 111.759819 
L 253.556179 103.279164 
L 254.548885 135.003158 
L 255.541591 112.25544 
L 256.534296 98.882636 
L 257.527002 144.0939 
L 258.519708 110.86542 
L 259.512414 90.000212 
L 260.50512 147.342755 
L 261.497826 142.568744 
L 262.490532 94.253857 
L 263.483238 138.317244 
L 264.475944 144.874447 
L 265.46865 93.044822 
L 266.461356 137.704977 
L 267.454062 141.574718 
L 268.446768 99.208169 
L 269.439473 123.592203 
L 270.432179 139.789959 
L 271.424885 95.248449 
L 272.417591 109.906651 
L 273.410297 152.925564 
L 274.403003 85.173003 
L 276.388415 148.020048 
L 277.381121 108.402161 
L 278.373827 99.433135 
L 279.366533 138.030401 
L 280.359239 102.252478 
L 281.351945 100.867114 
L 282.344651 138.936582 
L 283.337356 111.770533 
L 284.330062 98.619849 
L 285.322768 141.825799 
L 286.315474 137.391025 
L 287.30818 91.643996 
L 288.300886 147.691731 
L 289.293592 149.432011 
L 290.286298 88.28341 
L 291.279004 136.782091 
L 292.27171 148.367086 
L 293.264416 93.207135 
L 294.257122 135.279157 
L 295.249828 137.921939 
L 296.242533 100.819343 
L 297.235239 116.326535 
L 298.227945 142.452616 
L 299.220651 101.164703 
L 300.213357 97.384989 
L 301.206063 139.401364 
L 302.198769 104.437572 
L 303.191475 97.625161 
L 304.184181 145.615391 
L 305.176887 98.286713 
L 306.169593 85.89561 
L 307.162299 152.978617 
L 308.155005 133.811868 
L 309.14771 88.949771 
L 310.140416 149.017396 
L 311.133122 146.736857 
L 312.125828 86.372506 
L 313.118534 144.72284 
L 314.11124 153.066345 
L 315.103946 86.627994 
L 316.096652 127.532313 
L 317.089358 146.94011 
L 318.082064 92.804333 
L 319.07477 132.228002 
L 320.067476 148.525762 
L 321.060182 86.284778 
L 322.052887 108.725841 
L 323.045593 157.719733 
L 324.038299 95.945025 
L 325.031005 88.999191 
L 326.023711 143.447314 
L 327.016417 100.241972 
L 328.009123 107.067174 
L 329.001829 141.02085 
L 329.994535 118.94144 
L 330.987241 87.64381 
L 331.979947 155.397182 
L 332.972653 133.82686 
L 333.965359 82.33553 
L 334.958064 153.200385 
L 335.95077 135.276325 
L 336.943476 93.425579 
L 337.936182 141.650405 
L 338.928888 135.570762 
L 339.921594 101.501179 
L 340.9143 129.476906 
L 341.907006 135.836177 
L 342.899712 99.292053 
L 343.892418 122.162421 
L 344.885124 149.85025 
L 345.87783 87.407587 
L 346.870536 132.960479 
L 347.863241 145.767855 
L 348.855947 95.161275 
L 349.848653 118.783514 
L 350.841359 148.306191 
L 351.834065 87.112694 
L 352.826771 97.526058 
L 353.819477 155.398993 
L 355.804889 89.170005 
L 356.797595 145.991889 
L 357.790301 122.929362 
L 358.783007 94.202689 
L 359.775713 146.922616 
L 360.768419 125.199709 
L 361.761124 84.767435 
L 362.75383 154.291364 
L 363.746536 148.117851 
L 364.739242 87.842516 
L 365.731948 147.119264 
L 366.724654 141.527482 
L 367.71736 95.275452 
L 369.702772 141.976565 
L 370.695478 97.324725 
L 371.688184 129.650792 
L 372.68089 139.832329 
L 373.673596 99.245324 
L 374.666301 103.869369 
L 375.659007 144.163007 
L 376.651713 91.641125 
L 377.644419 96.722727 
L 378.637125 152.210254 
L 379.629831 87.639816 
L 380.622537 105.819667 
L 381.615243 145.064439 
L 382.607949 111.446438 
L 383.600655 97.426037 
L 384.593361 142.615312 
L 385.586067 125.686768 
L 386.578773 89.813184 
L 387.571478 144.639689 
L 388.564184 148.466822 
L 389.55689 92.384886 
L 390.549596 136.530153 
L 391.542302 141.816097 
L 392.535008 94.820244 
L 393.527714 114.631932 
L 394.52042 151.695734 
L 395.513126 83.649212 
L 396.505832 98.231088 
L 397.498538 158.248902 
L 398.491244 82.386864 
L 400.476655 147.313787 
L 401.469361 106.866416 
L 402.462067 99.012327 
L 403.454773 143.344763 
L 404.447479 114.074433 
L 405.440185 81.468532 
L 406.432891 159.32586 
L 407.425597 119.977795 
L 408.418303 91.884639 
L 409.411009 139.334063 
L 410.403715 136.472601 
L 411.396421 102.159382 
L 412.389127 128.017738 
L 413.381832 144.14341 
L 414.374538 90.117688 
L 415.367244 147.192983 
L 416.35995 148.268378 
L 417.352656 92.748158 
L 418.345362 127.54831 
L 419.338068 141.794195 
L 420.330774 94.616468 
L 421.32348 109.777565 
L 422.316186 155.280738 
L 423.308892 79.518732 
L 424.301598 114.655951 
L 425.294304 158.345642 
L 426.28701 86.087937 
L 427.279715 99.978901 
L 428.272421 141.078642 
L 429.265127 111.372165 
L 430.257833 100.294007 
L 431.250539 142.426019 
L 432.243245 96.421103 
L 433.235951 87.952259 
L 434.228657 150.044495 
L 435.221363 127.652683 
L 436.214069 96.795698 
L 437.206775 139.413648 
L 438.199481 131.6008 
L 439.192187 92.10212 
L 440.184892 135.290049 
L 441.177598 154.691791 
L 442.170304 83.868498 
L 444.155716 147.175119 
L 445.148422 93.83488 
L 446.141128 110.147196 
L 447.133834 147.252943 
L 448.12654 89.670559 
L 449.119246 91.822684 
L 450.111952 152.633761 
L 451.104658 84.928076 
L 452.097364 100.122537 
L 453.090069 155.556323 
L 454.082775 100.168899 
L 455.075481 89.703149 
L 456.068187 144.976498 
L 458.053599 95.646815 
L 459.046305 144.84038 
L 460.039011 124.923718 
L 461.031717 89.679194 
L 462.024423 136.984905 
L 463.017129 145.814643 
L 464.009835 93.635528 
L 465.002541 126.173604 
L 465.995246 144.228759 
L 466.987952 93.589416 
L 467.980658 131.208294 
L 468.973364 144.053726 
L 469.96607 93.66545 
L 470.958776 102.870984 
L 471.951482 148.671134 
L 472.944188 89.79996 
L 473.936894 95.541944 
L 474.9296 146.45008 
L 475.922306 94.820661 
L 476.915012 93.884315 
L 477.907718 146.491348 
L 478.900423 105.461117 
L 479.893129 92.76685 
L 480.885835 143.840965 
L 481.878541 123.282902 
L 482.871247 98.155062 
L 483.863953 142.74783 
L 484.856659 135.885171 
L 485.849365 89.853628 
L 486.842071 146.910738 
L 487.834777 128.728006 
L 488.827483 100.73204 
L 489.820189 136.133048 
L 490.812895 133.944656 
L 491.805601 99.115596 
L 492.798306 116.900661 
L 493.791012 141.527647 
L 494.783718 96.813955 
L 495.776424 109.50137 
L 496.76913 144.535582 
L 497.761836 92.812516 
L 498.754542 98.323724 
L 499.747248 147.665232 
L 500.739954 105.484636 
L 501.73266 94.971775 
L 502.725366 140.56681 
L 503.718072 131.338206 
L 504.710778 104.183793 
L 505.703483 134.535743 
L 506.696189 130.161199 
L 507.688895 97.273759 
L 508.681601 143.621471 
L 510.667013 95.972576 
L 511.659719 137.186883 
L 512.652425 137.459173 
L 513.645131 99.820213 
L 514.637837 140.470619 
L 515.630543 145.373458 
L 516.623249 89.62601 
L 517.615955 130.773715 
L 518.60866 150.045617 
L 519.601366 88.343216 
L 520.594072 109.693321 
L 521.586778 150.089566 
L 522.579484 97.021557 
L 523.57219 92.896796 
L 524.564896 144.50515 
L 525.557602 98.962351 
L 526.550308 94.198164 
L 527.543014 146.861304 
L 528.53572 98.601043 
L 529.528426 90.528215 
L 530.521132 147.167933 
L 531.513837 119.398264 
L 532.506543 96.258886 
L 533.499249 140.415522 
L 534.491955 135.003487 
L 535.484661 95.76197 
L 536.477367 136.001532 
L 537.470073 148.789884 
L 538.462779 87.37162 
L 539.455485 137.890263 
L 540.448191 148.570321 
L 541.440897 92.128903 
L 542.433603 116.442572 
L 543.426309 143.887855 
L 544.419014 93.951339 
L 545.41172 111.881936 
L 546.404426 149.279271 
L 547.397132 87.506444 
L 548.389838 94.807194 
L 549.382544 152.493731 
L 550.37525 100.1873 
L 551.367956 90.487569 
L 552.360662 147.030287 
L 553.353368 124.136775 
L 554.346074 91.791655 
L 555.33878 148.085389 
L 556.331486 114.222011 
L 557.324192 88.877285 
L 558.316897 149.6518 
L 559.309603 125.335429 
L 560.302309 89.65976 
L 561.295015 147.965361 
L 562.287721 140.754586 
L 563.280427 90.349945 
L 564.273133 133.387452 
L 565.265839 148.217163 
L 566.258545 89.641734 
L 567.251251 121.912472 
L 568.243957 148.812595 
L 569.236663 90.789149 
L 570.229369 124.400736 
L 571.222074 146.263657 
L 572.21478 93.309334 
L 573.207486 108.636081 
L 574.200192 141.995455 
L 575.192898 111.088614 
L 576.185604 102.281646 
L 577.17831 138.114282 
L 578.171016 117.013996 
L 579.163722 91.274677 
L 580.156428 151.200895 
L 581.149134 115.662043 
L 582.14184 87.196518 
L 583.134546 150.335806 
L 584.127251 136.926969 
L 585.119957 88.229095 
L 585.119957 88.229095 
" clip-path="url(#p239ee3c6dd)" style="fill: none; stroke: #2ca02c; stroke-width: 0.9; stroke-linecap: square"/>
   </g>
   <g id="line2d_26">
    <path d="M 77.84723 125.609367 
L 78.839936 124.402235 
L 79.832642 118.593932 
L 80.825348 114.018509 
L 82.81076 107.003074 
L 83.803466 114.164098 
L 84.796172 118.422183 
L 85.788878 119.777329 
L 86.781583 121.910315 
L 88.766995 127.33205 
L 90.752407 132.265302 
L 91.745113 123.069779 
L 92.737819 117.005538 
L 93.730525 114.072579 
L 94.723231 110.300595 
L 95.715937 113.096299 
L 96.708643 114.132197 
L 97.701349 113.408288 
L 98.694055 113.155918 
L 99.68676 115.114442 
L 100.679466 116.480559 
L 101.672172 117.254269 
L 102.664878 118.186714 
L 103.657584 116.189851 
L 104.65029 114.977893 
L 105.642996 114.550841 
L 106.635702 113.913475 
L 107.628408 114.125883 
L 108.621114 114.110594 
L 110.606526 113.685636 
L 111.599232 121.789251 
L 112.591937 127.67275 
L 113.584643 131.336132 
L 114.577349 135.594392 
L 115.570055 130.379625 
L 116.562761 127.703148 
L 117.555467 127.564961 
L 118.548173 126.746642 
L 119.540879 122.657988 
L 120.533585 119.445618 
L 122.518997 114.538645 
L 123.511703 113.786298 
L 124.504409 112.546676 
L 126.48982 109.223443 
L 127.482526 112.062407 
L 128.475232 113.712936 
L 129.467938 114.175031 
L 130.460644 114.955566 
L 131.45335 118.472565 
L 132.446056 121.256331 
L 134.431468 125.553865 
L 135.424174 122.090322 
L 136.41688 120.156915 
L 137.409586 119.753644 
L 138.402291 118.940374 
L 139.394997 125.183058 
L 140.387703 129.535106 
L 141.380409 131.996516 
L 142.373115 134.96452 
L 143.365821 128.989286 
L 144.358527 125.410386 
L 145.351233 124.227819 
L 146.343939 122.403156 
L 147.336645 118.72764 
L 148.329351 115.548059 
L 150.314763 110.04788 
L 151.307469 112.346925 
L 152.300174 113.275255 
L 153.29288 112.83287 
L 154.285586 112.757768 
L 155.278292 118.578929 
L 156.270998 122.820191 
L 157.263704 125.481554 
L 158.25641 128.56625 
L 159.249116 123.242944 
L 160.241822 120.172555 
L 161.234528 119.355084 
L 162.227234 117.933945 
L 163.21994 120.754044 
L 164.212646 122.437707 
L 165.205351 122.984934 
L 166.198057 123.836668 
L 167.190763 120.819008 
L 168.183469 118.838149 
L 169.176175 117.894091 
L 170.168881 116.672223 
L 171.161587 120.376869 
L 172.154293 122.76146 
L 173.146999 123.825995 
L 174.139705 125.244238 
L 175.132411 117.401054 
L 176.125117 112.039461 
L 177.117823 109.159461 
L 178.110528 105.61452 
L 179.103234 108.772183 
L 180.09594 110.133889 
L 181.088646 109.699637 
L 182.081352 109.746611 
L 183.074058 117.287308 
L 184.066764 122.820068 
L 185.05947 126.344891 
L 186.052176 130.40774 
L 187.044882 127.113278 
L 188.037588 125.790201 
L 189.030294 126.43851 
L 190.023 126.558588 
L 191.015705 122.500314 
L 192.008411 119.561626 
L 193.001117 117.742524 
L 193.993823 115.62343 
L 194.986529 117.30451 
L 195.979235 117.967336 
L 196.971941 117.611909 
L 198.957353 117.335593 
L 201.935471 116.895329 
L 202.928177 116.257728 
L 203.920882 115.752884 
L 205.906294 114.973136 
L 206.899 115.102772 
L 207.891706 115.088439 
L 209.877118 114.810415 
L 210.869824 119.089667 
L 211.86253 122.190216 
L 212.855236 124.112064 
L 213.847942 126.349744 
L 214.840648 125.571021 
L 215.833354 125.600541 
L 216.82606 126.438303 
L 217.818765 127.059498 
L 218.811471 123.210272 
L 219.804177 120.558892 
L 220.796883 119.105358 
L 221.789589 117.330861 
L 222.782295 117.533847 
L 223.775001 117.206967 
L 225.760413 115.635457 
L 226.753119 118.821116 
L 227.745825 120.96166 
L 228.738531 122.057087 
L 229.731237 123.432553 
L 230.723942 122.02424 
L 231.716648 121.361839 
L 232.709354 121.445348 
L 233.70206 121.328991 
L 234.694766 121.922019 
L 235.687472 122.324967 
L 237.672884 122.801638 
L 238.66559 122.065494 
L 239.658296 121.597285 
L 241.643708 121.124942 
L 242.636414 122.421051 
L 243.629119 123.296969 
L 245.614531 124.321011 
L 246.607237 118.754687 
L 247.599943 114.832136 
L 248.592649 112.553356 
L 249.585355 109.834128 
L 250.578061 113.292073 
L 251.570767 115.094849 
L 252.563473 115.242457 
L 253.556179 115.833567 
L 255.541591 117.965581 
L 257.527002 119.696164 
L 258.519708 122.141394 
L 259.512414 124.168556 
L 261.497826 127.498763 
L 262.490532 124.016547 
L 263.483238 121.92856 
L 264.475944 121.234801 
L 265.46865 120.167459 
L 266.461356 121.62086 
L 267.454062 122.398829 
L 268.446768 122.501368 
L 269.439473 122.784888 
L 270.432179 121.868158 
L 271.424885 121.273034 
L 273.410297 120.639824 
L 274.403003 119.371399 
L 275.395709 118.346468 
L 277.381121 116.718351 
L 278.373827 114.452522 
L 279.366533 112.566953 
L 281.351945 109.454444 
L 282.344651 115.821208 
L 283.337356 120.051354 
L 284.330062 122.144884 
L 285.322768 124.810919 
L 286.315474 126.446672 
L 287.30818 128.358488 
L 289.293592 132.660275 
L 290.286298 126.601414 
L 291.279004 122.732439 
L 292.27171 121.053351 
L 293.264416 118.787485 
L 294.257122 120.499183 
L 295.249828 121.145096 
L 296.242533 120.725223 
L 297.235239 120.590927 
L 298.227945 119.485406 
L 299.220651 118.640123 
L 301.206063 117.400305 
L 302.198769 114.842282 
L 303.191475 112.794233 
L 305.176887 109.581436 
L 306.169593 114.767945 
L 307.162299 118.115992 
L 308.155005 119.625579 
L 309.14771 121.627779 
L 311.133122 127.879039 
L 313.118534 133.180665 
L 314.11124 129.207636 
L 315.103946 127.021939 
L 316.096652 126.623572 
L 317.089358 125.746291 
L 318.082064 122.190526 
L 319.07477 119.352459 
L 321.060182 114.919414 
L 322.052887 114.063603 
L 323.045593 112.817427 
L 325.031005 109.64894 
L 326.023711 115.182316 
L 327.016417 118.822544 
L 328.009123 120.569626 
L 329.001829 122.823975 
L 329.994535 122.623961 
L 330.987241 123.081592 
L 331.979947 124.196867 
L 332.972653 125.135927 
L 333.965359 122.70527 
L 334.958064 121.177526 
L 335.95077 120.552695 
L 336.943476 119.685929 
L 337.936182 122.001608 
L 338.928888 123.464553 
L 339.921594 124.074765 
L 340.9143 124.913466 
L 341.907006 124.761702 
L 342.899712 124.875332 
L 344.885124 125.562269 
L 345.87783 122.710884 
L 346.870536 120.70603 
L 347.863241 119.547708 
L 348.855947 118.162558 
L 350.841359 114.803917 
L 352.826771 111.693939 
L 353.819477 118.182149 
L 354.812183 122.511923 
L 355.804889 124.683261 
L 356.797595 127.43295 
L 357.790301 123.763907 
L 358.783007 121.814758 
L 359.775713 121.585503 
L 360.768419 120.895404 
L 361.761124 122.741082 
L 362.75383 123.9073 
L 363.746536 124.394059 
L 364.739242 125.062879 
L 365.731948 123.420359 
L 366.724654 122.39716 
L 367.71736 121.993283 
L 368.710066 121.423459 
L 369.702772 123.513141 
L 370.695478 124.890209 
L 371.688184 125.554666 
L 372.68089 126.410067 
L 373.673596 118.472782 
L 374.666301 112.89149 
L 375.659007 109.666192 
L 376.651713 105.809606 
L 377.644419 110.343428 
L 378.637125 112.629046 
L 379.629831 112.666462 
L 380.622537 113.306282 
L 381.615243 116.52842 
L 382.607949 119.058627 
L 385.586067 124.786838 
L 388.564184 130.585207 
L 389.55689 124.491043 
L 390.549596 120.549442 
L 391.542302 118.760407 
L 392.535008 116.394593 
L 393.527714 115.11664 
L 394.52042 113.547195 
L 396.505832 109.4749 
L 397.498538 118.189835 
L 398.491244 120.084802 
L 400.476655 125.91244 
L 401.469361 120.297994 
L 402.462067 116.926456 
L 403.454773 115.797827 
L 404.447479 114.068212 
L 405.440185 116.027525 
L 406.432891 116.998393 
L 407.425597 116.980815 
L 408.418303 117.228091 
L 409.411009 120.442256 
L 410.403715 122.861445 
L 414.374538 129.527458 
L 416.35995 132.930626 
L 417.352656 124.201441 
L 418.345362 118.264563 
L 419.338068 115.119991 
L 420.330774 111.227223 
L 421.32348 115.216366 
L 422.316186 117.093558 
L 423.308892 116.858797 
L 424.301598 117.189933 
L 425.294304 118.080708 
L 426.28701 118.821529 
L 428.272421 120.04344 
L 429.265127 115.627805 
L 430.257833 112.564424 
L 431.250539 110.853297 
L 432.243245 108.779835 
L 433.235951 114.068596 
L 434.228657 117.384656 
L 435.221363 118.728013 
L 436.214069 120.599955 
L 437.206775 121.756311 
L 438.199481 123.104407 
L 440.184892 126.132705 
L 441.177598 123.829973 
L 442.170304 122.543088 
L 443.16301 122.27205 
L 444.155716 121.728817 
L 445.148422 116.588591 
L 446.141128 112.680125 
L 447.133834 110.00342 
L 448.12654 106.996666 
L 449.119246 109.805928 
L 450.111952 111.056794 
L 451.104658 110.749262 
L 452.097364 110.859302 
L 453.090069 114.79146 
L 454.082775 117.699484 
L 455.075481 119.583375 
L 456.068187 121.741682 
L 457.060893 120.581361 
L 458.053599 120.310265 
L 459.046305 120.928391 
L 460.039011 121.308251 
L 461.031717 120.004896 
L 462.024423 119.152556 
L 463.017129 118.751233 
L 464.009835 118.22906 
L 465.002541 120.781779 
L 465.995246 122.510584 
L 466.987952 123.415473 
L 467.980658 124.54113 
L 468.973364 121.541788 
L 469.96607 119.647736 
L 470.958776 118.858974 
L 471.951482 117.774051 
L 472.944188 114.11913 
L 473.936894 111.152838 
L 475.922306 106.412994 
L 476.915012 109.727095 
L 477.907718 111.493446 
L 478.900423 111.712047 
L 479.893129 112.345366 
L 480.885835 118.445465 
L 481.878541 123.080745 
L 482.871247 126.251206 
L 483.863953 129.814164 
L 484.856659 126.214387 
L 485.849365 124.533859 
L 486.842071 124.77258 
L 487.834777 124.49704 
L 488.827483 121.844838 
L 489.820189 119.82946 
L 491.805601 116.901718 
L 492.798306 116.790965 
L 493.791012 116.294785 
L 495.776424 114.634843 
L 496.76913 115.986156 
L 497.761836 116.766832 
L 498.754542 116.976871 
L 499.747248 117.339811 
L 500.739954 119.164046 
L 501.73266 120.596728 
L 503.718072 122.783904 
L 504.710778 120.379898 
L 505.703483 118.927126 
L 506.696189 118.425587 
L 507.688895 117.669166 
L 508.681601 120.220517 
L 509.674307 121.885553 
L 510.667013 122.664274 
L 511.659719 123.680482 
L 512.652425 126.088466 
L 513.645131 128.123525 
L 515.630543 131.547718 
L 516.623249 124.315128 
L 517.615955 119.492647 
L 518.60866 117.080275 
L 519.601366 114.022116 
L 520.594072 113.938231 
L 521.586778 113.057392 
L 523.57219 109.915349 
L 524.564896 113.5594 
L 525.557602 115.834686 
L 526.550308 116.741207 
L 527.543014 118.014488 
L 528.53572 117.182383 
L 529.528426 116.914414 
L 530.521132 117.210582 
L 531.513837 117.35559 
L 532.506543 118.214406 
L 533.499249 118.881957 
L 535.484661 119.88578 
L 536.477367 122.942344 
L 537.470073 125.321257 
L 539.455485 128.905357 
L 540.448191 125.445473 
L 541.440897 123.417166 
L 542.433603 122.820438 
L 543.426309 121.84012 
L 544.419014 117.512294 
L 545.41172 114.081431 
L 547.397132 108.773287 
L 548.389838 110.96946 
L 549.382544 111.833814 
L 550.37525 111.36635 
L 551.367956 111.255745 
L 552.360662 117.123796 
L 553.353368 121.389871 
L 554.346074 124.05397 
L 555.33878 127.147317 
L 556.331486 123.141019 
L 557.324192 121.037065 
L 558.316897 120.835455 
L 559.309603 120.124114 
L 560.302309 120.536752 
L 561.295015 120.64822 
L 563.280427 120.349516 
L 564.273133 120.99979 
L 565.265839 121.446617 
L 567.251251 121.987888 
L 569.236663 123.061234 
L 571.222074 123.932739 
L 572.21478 120.533624 
L 573.207486 118.164711 
L 574.200192 116.826 
L 575.192898 115.211247 
L 576.185604 115.089042 
L 577.17831 114.566911 
L 579.163722 112.829953 
L 580.156428 119.271644 
L 581.149134 123.768937 
L 582.14184 126.321833 
L 583.134546 129.395729 
L 584.127251 116.302523 
L 585.119957 107.541279 
L 585.119957 107.541279 
" clip-path="url(#p239ee3c6dd)" style="fill: none; stroke: #d62728; stroke-width: 0.9; stroke-linecap: square"/>
   </g>
   <g id="patch_3">
    <path d="M 52.483594 221.902125 
L 52.483594 22.318125 
" style="fill: none; stroke: #000000; stroke-width: 0.8; stroke-linejoin: miter; stroke-linecap: square"/>
   </g>
   <g id="patch_4">
    <path d="M 610.483594 221.902125 
L 610.483594 22.318125 
" style="fill: none; stroke: #000000; stroke-width: 0.8; stroke-linejoin: miter; stroke-linecap: square"/>
   </g>
   <g id="patch_5">
    <path d="M 52.483594 221.902125 
L 610.483594 221.902125 
" style="fill: none; stroke: #000000; stroke-width: 0.8; stroke-linejoin: miter; stroke-linecap: square"/>
   </g>
   <g id="patch_6">
    <path d="M 52.483594 22.318125 
L 610.483594 22.318125 
" style="fill: none; stroke: #000000; stroke-width: 0.8; stroke-linejoin: miter; stroke-linecap: square"/>
   </g>
   <g id="text_14">
    <!-- Signal progression through Stage 3 -->
    <g transform="translate(225.652031 16.318125) scale(0.12 -0.12)">
     <defs>
      <path id="DejaVuSans-36" d="M 3425 4513 
L 3425 3897 
Q 3066 4069 2747 4153 
Q 2428 4238 2131 4238 
Q 1616 4238 1336 4038 
Q 1056 3838 1056 3469 
Q 1056 3159 1242 3001 
Q 1428 2844 1947 2747 
L 2328 2669 
Q 3034 2534 3370 2195 
Q 3706 1856 3706 1288 
Q 3706 609 3251 259 
Q 2797 -91 1919 -91 
Q 1588 -91 1214 -16 
Q 841 59 441 206 
L 441 856 
Q 825 641 1194 531 
Q 1563 422 1919 422 
Q 2459 422 2753 634 
Q 3047 847 3047 1241 
Q 3047 1584 2836 1778 
Q 2625 1972 2144 2069 
L 1759 2144 
Q 1053 2284 737 2584 
Q 422 2884 422 3419 
Q 422 4038 858 4394 
Q 1294 4750 2059 4750 
Q 2388 4750 2728 4690 
Q 3069 4631 3425 4513 
z
" transform="scale(0.015625)"/>
      <path id="DejaVuSans-4a" d="M 2906 1791 
Q 2906 2416 2648 2759 
Q 2391 3103 1925 3103 
Q 1463 3103 1205 2759 
Q 947 2416 947 1791 
Q 947 1169 1205 825 
Q 1463 481 1925 481 
Q 2391 481 2648 825 
Q 2906 1169 2906 1791 
z
M 3481 434 
Q 3481 -459 3084 -895 
Q 2688 -1331 1869 -1331 
Q 1566 -1331 1297 -1286 
Q 1028 -1241 775 -1147 
L 775 -588 
Q 1028 -725 1275 -790 
Q 1522 -856 1778 -856 
Q 2344 -856 2625 -561 
Q 2906 -266 2906 331 
L 2906 616 
Q 2728 306 2450 153 
Q 2172 0 1784 0 
Q 1141 0 747 490 
Q 353 981 353 1791 
Q 353 2603 747 3093 
Q 1141 3584 1784 3584 
Q 2172 3584 2450 3431 
Q 2728 3278 2906 2969 
L 2906 3500 
L 3481 3500 
L 3481 434 
z
" transform="scale(0.015625)"/>
      <path id="DejaVuSans-55" d="M 2631 2963 
Q 2534 3019 2420 3045 
Q 2306 3072 2169 3072 
Q 1681 3072 1420 2755 
Q 1159 2438 1159 1844 
L 1159 0 
L 581 0 
L 581 3500 
L 1159 3500 
L 1159 2956 
Q 1341 3275 1631 3429 
Q 1922 3584 2338 3584 
Q 2397 3584 2469 3576 
Q 2541 3569 2628 3553 
L 2631 2963 
z
" transform="scale(0.015625)"/>
      <path id="DejaVuSans-52" d="M 1959 3097 
Q 1497 3097 1228 2736 
Q 959 2375 959 1747 
Q 959 1119 1226 758 
Q 1494 397 1959 397 
Q 2419 397 2687 759 
Q 2956 1122 2956 1747 
Q 2956 2369 2687 2733 
Q 2419 3097 1959 3097 
z
M 1959 3584 
Q 2709 3584 3137 3096 
Q 3566 2609 3566 1747 
Q 3566 888 3137 398 
Q 2709 -91 1959 -91 
Q 1206 -91 779 398 
Q 353 888 353 1747 
Q 353 2609 779 3096 
Q 1206 3584 1959 3584 
z
" transform="scale(0.015625)"/>
     </defs>
     <use xlink:href="#DejaVuSans-36"/>
     <use xlink:href="#DejaVuSans-4c" transform="translate(63.484375 0)"/>
     <use xlink:href="#DejaVuSans-4a" transform="translate(91.265625 0)"/>
     <use xlink:href="#DejaVuSans-51" transform="translate(154.75 0)"/>
     <use xlink:href="#DejaVuSans-44" transform="translate(218.125 0)"/>
     <use xlink:href="#DejaVuSans-4f" transform="translate(279.40625 0)"/>
     <use xlink:href="#DejaVuSans-3" transform="translate(307.1875 0)"/>
     <use xlink:href="#DejaVuSans-53" transform="translate(338.96875 0)"/>
     <use xlink:href="#DejaVuSans-55" transform="translate(402.453125 0)"/>
     <use xlink:href="#DejaVuSans-52" transform="translate(441.359375 0)"/>
     <use xlink:href="#DejaVuSans-4a" transform="translate(502.546875 0)"/>
     <use xlink:href="#DejaVuSans-55" transform="translate(566.03125 0)"/>
     <use xlink:href="#DejaVuSans-48" transform="translate(604.9375 0)"/>
     <use xlink:href="#DejaVuSans-56" transform="translate(666.46875 0)"/>
     <use xlink:href="#DejaVuSans-56" transform="translate(718.5625 0)"/>
     <use xlink:href="#DejaVuSans-4c" transform="translate(770.65625 0)"/>
     <use xlink:href="#DejaVuSans-52" transform="translate(798.4375 0)"/>
     <use xlink:href="#DejaVuSans-51" transform="translate(859.625 0)"/>
     <use xlink:href="#DejaVuSans-3" transform="translate(923 0)"/>
     <use xlink:href="#DejaVuSans-57" transform="translate(954.78125 0)"/>
     <use xlink:href="#DejaVuSans-4b" transform="translate(993.984375 0)"/>
     <use xlink:href="#DejaVuSans-55" transform="translate(1057.359375 0)"/>
     <use xlink:href="#DejaVuSans-52" transform="translate(1096.265625 0)"/>
     <use xlink:href="#DejaVuSans-58" transform="translate(1157.453125 0)"/>
     <use xlink:href="#DejaVuSans-4a" transform="translate(1220.828125 0)"/>
     <use xlink:href="#DejaVuSans-4b" transform="translate(1284.3125 0)"/>
     <use xlink:href="#DejaVuSans-3" transform="translate(1347.6875 0)"/>
     <use xlink:href="#DejaVuSans-36" transform="translate(1379.46875 0)"/>
     <use xlink:href="#DejaVuSans-57" transform="translate(1442.953125 0)"/>
     <use xlink:href="#DejaVuSans-44" transform="translate(1482.15625 0)"/>
     <use xlink:href="#DejaVuSans-4a" transform="translate(1543.4375 0)"/>
     <use xlink:href="#DejaVuSans-48" transform="translate(1606.921875 0)"/>
     <use xlink:href="#DejaVuSans-3" transform="translate(1668.453125 0)"/>
     <use xlink:href="#DejaVuSans-16" transform="translate(1700.234375 0)"/>
    </g>
   </g>
   <g id="legend_1">
    <g id="patch_7">
     <path d="M 504.655469 216.902125 
L 603.483594 216.902125 
Q 605.483594 216.902125 605.483594 214.902125 
L 605.483594 155.899 
Q 605.483594 153.899 603.483594 153.899 
L 504.655469 153.899 
Q 502.655469 153.899 502.655469 155.899 
L 502.655469 214.902125 
Q 502.655469 216.902125 504.655469 216.902125 
z
" style="fill: #ffffff; opacity: 0.8; stroke: #cccccc; stroke-linejoin: miter"/>
    </g>
    <g id="line2d_27">
     <path d="M 506.655469 161.997437 
L 516.655469 161.997437 
L 526.655469 161.997437 
" style="fill: none; stroke: #1f77b4; stroke-width: 0.9; stroke-linecap: square"/>
    </g>
    <g id="text_15">
     <!-- Raw -->
     <g transform="translate(534.655469 165.497437) scale(0.1 -0.1)">
      <defs>
       <path id="DejaVuSans-35" d="M 2841 2188 
Q 3044 2119 3236 1894 
Q 3428 1669 3622 1275 
L 4263 0 
L 3584 0 
L 2988 1197 
Q 2756 1666 2539 1819 
Q 2322 1972 1947 1972 
L 1259 1972 
L 1259 0 
L 628 0 
L 628 4666 
L 2053 4666 
Q 2853 4666 3247 4331 
Q 3641 3997 3641 3322 
Q 3641 2881 3436 2590 
Q 3231 2300 2841 2188 
z
M 1259 4147 
L 1259 2491 
L 2053 2491 
Q 2509 2491 2742 2702 
Q 2975 2913 2975 3322 
Q 2975 3731 2742 3939 
Q 2509 4147 2053 4147 
L 1259 4147 
z
" transform="scale(0.015625)"/>
       <path id="DejaVuSans-5a" d="M 269 3500 
L 844 3500 
L 1563 769 
L 2278 3500 
L 2956 3500 
L 3675 769 
L 4391 3500 
L 4966 3500 
L 4050 0 
L 3372 0 
L 2619 2869 
L 1863 0 
L 1184 0 
L 269 3500 
z
" transform="scale(0.015625)"/>
      </defs>
      <use xlink:href="#DejaVuSans-35"/>
      <use xlink:href="#DejaVuSans-44" transform="translate(67.28125 0)"/>
      <use xlink:href="#DejaVuSans-5a" transform="translate(128.5625 0)"/>
     </g>
    </g>
    <g id="line2d_28">
     <path d="M 506.655469 176.998219 
L 516.655469 176.998219 
L 526.655469 176.998219 
" style="fill: none; stroke: #ff7f0e; stroke-width: 0.9; stroke-linecap: square"/>
    </g>
    <g id="text_16">
     <!-- Preprocessed -->
     <g transform="translate(534.655469 180.498219) scale(0.1 -0.1)">
      <defs>
       <path id="DejaVuSans-33" d="M 1259 4147 
L 1259 2394 
L 2053 2394 
Q 2494 2394 2734 2622 
Q 2975 2850 2975 3272 
Q 2975 3691 2734 3919 
Q 2494 4147 2053 4147 
L 1259 4147 
z
M 628 4666 
L 2053 4666 
Q 2838 4666 3239 4311 
Q 3641 3956 3641 3272 
Q 3641 2581 3239 2228 
Q 2838 1875 2053 1875 
L 1259 1875 
L 1259 0 
L 628 0 
L 628 4666 
z
" transform="scale(0.015625)"/>
      </defs>
      <use xlink:href="#DejaVuSans-33"/>
      <use xlink:href="#DejaVuSans-55" transform="translate(58.546875 0)"/>
      <use xlink:href="#DejaVuSans-48" transform="translate(97.453125 0)"/>
      <use xlink:href="#DejaVuSans-53" transform="translate(158.984375 0)"/>
      <use xlink:href="#DejaVuSans-55" transform="translate(222.46875 0)"/>
      <use xlink:href="#DejaVuSans-52" transform="translate(261.375 0)"/>
      <use xlink:href="#DejaVuSans-46" transform="translate(322.5625 0)"/>
      <use xlink:href="#DejaVuSans-48" transform="translate(377.546875 0)"/>
      <use xlink:href="#DejaVuSans-56" transform="translate(439.078125 0)"/>
      <use xlink:href="#DejaVuSans-56" transform="translate(491.171875 0)"/>
      <use xlink:href="#DejaVuSans-48" transform="translate(543.265625 0)"/>
      <use xlink:href="#DejaVuSans-47" transform="translate(604.796875 0)"/>
     </g>
    </g>
    <g id="line2d_29">
     <path d="M 506.655469 191.999 
L 516.655469 191.999 
L 526.655469 191.999 
" style="fill: none; stroke: #2ca02c; stroke-width: 0.9; stroke-linecap: square"/>
    </g>
    <g id="text_17">
     <!-- Weighted -->
     <g transform="translate(534.655469 195.499) scale(0.1 -0.1)">
      <defs>
       <path id="DejaVuSans-3a" d="M 213 4666 
L 850 4666 
L 1831 722 
L 2809 4666 
L 3519 4666 
L 4500 722 
L 5478 4666 
L 6119 4666 
L 4947 0 
L 4153 0 
L 3169 4050 
L 2175 0 
L 1381 0 
L 213 4666 
z
" transform="scale(0.015625)"/>
      </defs>
      <use xlink:href="#DejaVuSans-3a"/>
      <use xlink:href="#DejaVuSans-48" transform="translate(93.015625 0)"/>
      <use xlink:href="#DejaVuSans-4c" transform="translate(154.546875 0)"/>
      <use xlink:href="#DejaVuSans-4a" transform="translate(182.328125 0)"/>
      <use xlink:href="#DejaVuSans-4b" transform="translate(245.8125 0)"/>
      <use xlink:href="#DejaVuSans-57" transform="translate(309.1875 0)"/>
      <use xlink:href="#DejaVuSans-48" transform="translate(348.390625 0)"/>
      <use xlink:href="#DejaVuSans-47" transform="translate(409.921875 0)"/>
     </g>
    </g>
    <g id="line2d_30">
     <path d="M 506.655469 206.999781 
L 516.655469 206.999781 
L 526.655469 206.999781 
" style="fill: none; stroke: #d62728; stroke-width: 0.9; stroke-linecap: square"/>
    </g>
    <g id="text_18">
     <!-- Denoised -->
     <g transform="translate(534.655469 210.499781) scale(0.1 -0.1)">
      <defs>
       <path id="DejaVuSans-27" d="M 1259 4147 
L 1259 519 
L 2022 519 
Q 2988 519 3436 956 
Q 3884 1394 3884 2338 
Q 3884 3275 3436 3711 
Q 2988 4147 2022 4147 
L 1259 4147 
z
M 628 4666 
L 1925 4666 
Q 3281 4666 3915 4102 
Q 4550 3538 4550 2338 
Q 4550 1131 3912 565 
Q 3275 0 1925 0 
L 628 0 
L 628 4666 
z
" transform="scale(0.015625)"/>
      </defs>
      <use xlink:href="#DejaVuSans-27"/>
      <use xlink:href="#DejaVuSans-48" transform="translate(77 0)"/>
      <use xlink:href="#DejaVuSans-51" transform="translate(138.53125 0)"/>
      <use xlink:href="#DejaVuSans-52" transform="translate(201.90625 0)"/>
      <use xlink:href="#DejaVuSans-4c" transform="translate(263.09375 0)"/>
      <use xlink:href="#DejaVuSans-56" transform="translate(290.875 0)"/>
      <use xlink:href="#DejaVuSans-48" transform="translate(342.96875 0)"/>
      <use xlink:href="#DejaVuSans-47" transform="translate(404.5 0)"/>
     </g>
    </g>
   </g>
  </g>
 </g>
 <defs>
  <clipPath id="p239ee3c6dd">
   <rect x="52.483594" y="22.318125" width="558" height="199.584"/>
  </clipPath>
 </defs>
</svg>
