<?xml version="1.0" encoding="utf-8" standalone="no"?>
<!DOCTYPE svg PUBLIC "-//W3C//DTD SVG 1.1//EN"
  "http://www.w3.org/Graphics/SVG/1.1/DTD/svg11.dtd">
<svg xmlns:xlink="http://www.w3.org/1999/xlink" width="617.683594pt" height="260.102906pt" viewBox="0 0 617.683594 260.102906" xmlns="http://www.w3.org/2000/svg" version="1.1">
 <metadata>
  <rdf:RDF xmlns:dc="http://purl.org/dc/elements/1.1/" xmlns:cc="http://creativecommons.org/ns#" xmlns:rdf="http://www.w3.org/1999/02/22-rdf-syntax-ns#">
   <cc:Work>
    <dc:type rdf:resource="http://purl.org/dc/dcmitype/StillImage"/>
    <dc:date>2026-07-14T07:01:50.447190</dc:date>
    <dc:format>image/svg+xml</dc:format>
    <dc:creator>
     <cc:Agent>
      <dc:title>Matplotlib v3.11.0, https://matplotlib.org/</dc:title>
     </cc:Agent>
    </dc:creator>
   </cc:Work>
  </rdf:RDF>
 </metadata>
 <defs>
  <style type="text/css">*{stroke-linejoin: round; stroke-linecap: butt}</style>
 </defs>
 <g id="figure_1">
  <g id="patch_1">
   <path d="M 0 260.102906 
L 617.683594 260.102906 
L 617.683594 0 
L 0 0 
z
" style="fill: #ffffff"/>
  </g>
  <g id="axes_1">
   <g id="patch_2">
    <path d="M 52.483594 221.902125 
L 610.483594 221.902125 
L 610.483594 22.318125 
L 52.483594 22.318125 
z
" style="fill: #ffffff"/>
   </g>
   <g id="matplotlib.axis_1">
    <g id="xtick_1">
     <g id="line2d_1">
      <path d="M 84.796172 221.902125 
L 84.796172 22.318125 
" clip-path="url(#p20d45f1891)" style="fill: none; stroke: #b0b0b0; stroke-opacity: 0.25; stroke-width: 0.8; stroke-linecap: square"/>
     </g>
     <g id="line2d_2">
      <defs>
       <path id="m5e745715ae" d="M 0 0 
L 0 3.5 
" style="stroke: #000000; stroke-width: 0.8"/>
      </defs>
      <g>
       <use xlink:href="#m5e745715ae" x="84.796172" y="221.902125" style="stroke: #000000; stroke-width: 0.8"/>
      </g>
     </g>
     <g id="text_1">
      <!-- 0.1 -->
      <g transform="translate(76.844609 236.499781) scale(0.1 -0.1)">
       <defs>
        <path id="DejaVuSans-13" d="M 2034 4250 
Q 1547 4250 1301 3770 
Q 1056 3291 1056 2328 
Q 1056 1369 1301 889 
Q 1547 409 2034 409 
Q 2525 409 2770 889 
Q 3016 1369 3016 2328 
Q 3016 3291 2770 3770 
Q 2525 4250 2034 4250 
z
M 2034 4750 
Q 2819 4750 3233 4129 
Q 3647 3509 3647 2328 
Q 3647 1150 3233 529 
Q 2819 -91 2034 -91 
Q 1250 -91 836 529 
Q 422 1150 422 2328 
Q 422 3509 836 4129 
Q 1250 4750 2034 4750 
z
" transform="scale(0.015625)"/>
        <path id="DejaVuSans-11" d="M 684 794 
L 1344 794 
L 1344 0 
L 684 0 
L 684 794 
z
" transform="scale(0.015625)"/>
        <path id="DejaVuSans-14" d="M 794 531 
L 1825 531 
L 1825 4091 
L 703 3866 
L 703 4441 
L 1819 4666 
L 2450 4666 
L 2450 531 
L 3481 531 
L 3481 0 
L 794 0 
L 794 531 
z
" transform="scale(0.015625)"/>
       </defs>
       <use xlink:href="#DejaVuSans-13"/>
       <use xlink:href="#DejaVuSans-11" transform="translate(63.625 0)"/>
       <use xlink:href="#DejaVuSans-14" transform="translate(95.40625 0)"/>
      </g>
     </g>
    </g>
    <g id="xtick_2">
     <g id="line2d_3">
      <path d="M 184.066764 221.902125 
L 184.066764 22.318125 
" clip-path="url(#p20d45f1891)" style="fill: none; stroke: #b0b0b0; stroke-opacity: 0.25; stroke-width: 0.8; stroke-linecap: square"/>
     </g>
     <g id="line2d_4">
      <g>
       <use xlink:href="#m5e745715ae" x="184.066764" y="221.902125" style="stroke: #000000; stroke-width: 0.8"/>
      </g>
     </g>
     <g id="text_2">
      <!-- 0.2 -->
      <g transform="translate(176.115202 236.499781) scale(0.1 -0.1)">
       <defs>
        <path id="DejaVuSans-15" d="M 1228 531 
L 3431 531 
L 3431 0 
L 469 0 
L 469 531 
Q 828 903 1448 1529 
Q 2069 2156 2228 2338 
Q 2531 2678 2651 2914 
Q 2772 3150 2772 3378 
Q 2772 3750 2511 3984 
Q 2250 4219 1831 4219 
Q 1534 4219 1204 4116 
Q 875 4013 500 3803 
L 500 4441 
Q 881 4594 1212 4672 
Q 1544 4750 1819 4750 
Q 2544 4750 2975 4387 
Q 3406 4025 3406 3419 
Q 3406 3131 3298 2873 
Q 3191 2616 2906 2266 
Q 2828 2175 2409 1742 
Q 1991 1309 1228 531 
z
" transform="scale(0.015625)"/>
       </defs>
       <use xlink:href="#DejaVuSans-13"/>
       <use xlink:href="#DejaVuSans-11" transform="translate(63.625 0)"/>
       <use xlink:href="#DejaVuSans-15" transform="translate(95.40625 0)"/>
      </g>
     </g>
    </g>
    <g id="xtick_3">
     <g id="line2d_5">
      <path d="M 283.337356 221.902125 
L 283.337356 22.318125 
" clip-path="url(#p20d45f1891)" style="fill: none; stroke: #b0b0b0; stroke-opacity: 0.25; stroke-width: 0.8; stroke-linecap: square"/>
     </g>
     <g id="line2d_6">
      <g>
       <use xlink:href="#m5e745715ae" x="283.337356" y="221.902125" style="stroke: #000000; stroke-width: 0.8"/>
      </g>
     </g>
     <g id="text_3">
      <!-- 0.3 -->
      <g transform="translate(275.385794 236.499781) scale(0.1 -0.1)">
       <defs>
        <path id="DejaVuSans-16" d="M 2597 2516 
Q 3050 2419 3304 2112 
Q 3559 1806 3559 1356 
Q 3559 666 3084 287 
Q 2609 -91 1734 -91 
Q 1441 -91 1130 -33 
Q 819 25 488 141 
L 488 750 
Q 750 597 1062 519 
Q 1375 441 1716 441 
Q 2309 441 2620 675 
Q 2931 909 2931 1356 
Q 2931 1769 2642 2001 
Q 2353 2234 1838 2234 
L 1294 2234 
L 1294 2753 
L 1863 2753 
Q 2328 2753 2575 2939 
Q 2822 3125 2822 3475 
Q 2822 3834 2567 4026 
Q 2313 4219 1838 4219 
Q 1578 4219 1281 4162 
Q 984 4106 628 3988 
L 628 4550 
Q 988 4650 1302 4700 
Q 1616 4750 1894 4750 
Q 2613 4750 3031 4423 
Q 3450 4097 3450 3541 
Q 3450 3153 3228 2886 
Q 3006 2619 2597 2516 
z
" transform="scale(0.015625)"/>
       </defs>
       <use xlink:href="#DejaVuSans-13"/>
       <use xlink:href="#DejaVuSans-11" transform="translate(63.625 0)"/>
       <use xlink:href="#DejaVuSans-16" transform="translate(95.40625 0)"/>
      </g>
     </g>
    </g>
    <g id="xtick_4">
     <g id="line2d_7">
      <path d="M 382.607949 221.902125 
L 382.607949 22.318125 
" clip-path="url(#p20d45f1891)" style="fill: none; stroke: #b0b0b0; stroke-opacity: 0.25; stroke-width: 0.8; stroke-linecap: square"/>
     </g>
     <g id="line2d_8">
      <g>
       <use xlink:href="#m5e745715ae" x="382.607949" y="221.902125" style="stroke: #000000; stroke-width: 0.8"/>
      </g>
     </g>
     <g id="text_4">
      <!-- 0.4 -->
      <g transform="translate(374.656386 236.499781) scale(0.1 -0.1)">
       <defs>
        <path id="DejaVuSans-17" d="M 2419 4116 
L 825 1625 
L 2419 1625 
L 2419 4116 
z
M 2253 4666 
L 3047 4666 
L 3047 1625 
L 3713 1625 
L 3713 1100 
L 3047 1100 
L 3047 0 
L 2419 0 
L 2419 1100 
L 313 1100 
L 313 1709 
L 2253 4666 
z
" transform="scale(0.015625)"/>
       </defs>
       <use xlink:href="#DejaVuSans-13"/>
       <use xlink:href="#DejaVuSans-11" transform="translate(63.625 0)"/>
       <use xlink:href="#DejaVuSans-17" transform="translate(95.40625 0)"/>
      </g>
     </g>
    </g>
    <g id="xtick_5">
     <g id="line2d_9">
      <path d="M 481.878541 221.902125 
L 481.878541 22.318125 
" clip-path="url(#p20d45f1891)" style="fill: none; stroke: #b0b0b0; stroke-opacity: 0.25; stroke-width: 0.8; stroke-linecap: square"/>
     </g>
     <g id="line2d_10">
      <g>
       <use xlink:href="#m5e745715ae" x="481.878541" y="221.902125" style="stroke: #000000; stroke-width: 0.8"/>
      </g>
     </g>
     <g id="text_5">
      <!-- 0.5 -->
      <g transform="translate(473.926979 236.499781) scale(0.1 -0.1)">
       <defs>
        <path id="DejaVuSans-18" d="M 691 4666 
L 3169 4666 
L 3169 4134 
L 1269 4134 
L 1269 2991 
Q 1406 3038 1543 3061 
Q 1681 3084 1819 3084 
Q 2600 3084 3056 2656 
Q 3513 2228 3513 1497 
Q 3513 744 3044 326 
Q 2575 -91 1722 -91 
Q 1428 -91 1123 -41 
Q 819 9 494 109 
L 494 744 
Q 775 591 1075 516 
Q 1375 441 1709 441 
Q 2250 441 2565 725 
Q 2881 1009 2881 1497 
Q 2881 1984 2565 2268 
Q 2250 2553 1709 2553 
Q 1456 2553 1204 2497 
Q 953 2441 691 2322 
L 691 4666 
z
" transform="scale(0.015625)"/>
       </defs>
       <use xlink:href="#DejaVuSans-13"/>
       <use xlink:href="#DejaVuSans-11" transform="translate(63.625 0)"/>
       <use xlink:href="#DejaVuSans-18" transform="translate(95.40625 0)"/>
      </g>
     </g>
    </g>
    <g id="xtick_6">
     <g id="line2d_11">
      <path d="M 581.149134 221.902125 
L 581.149134 22.318125 
" clip-path="url(#p20d45f1891)" style="fill: none; stroke: #b0b0b0; stroke-opacity: 0.25; stroke-width: 0.8; stroke-linecap: square"/>
     </g>
     <g id="line2d_12">
      <g>
       <use xlink:href="#m5e745715ae" x="581.149134" y="221.902125" style="stroke: #000000; stroke-width: 0.8"/>
      </g>
     </g>
     <g id="text_6">
      <!-- 0.6 -->
      <g transform="translate(573.197571 236.499781) scale(0.1 -0.1)">
       <defs>
        <path id="DejaVuSans-19" d="M 2113 2584 
Q 1688 2584 1439 2293 
Q 1191 2003 1191 1497 
Q 1191 994 1439 701 
Q 1688 409 2113 409 
Q 2538 409 2786 701 
Q 3034 994 3034 1497 
Q 3034 2003 2786 2293 
Q 2538 2584 2113 2584 
z
M 3366 4563 
L 3366 3988 
Q 3128 4100 2886 4159 
Q 2644 4219 2406 4219 
Q 1781 4219 1451 3797 
Q 1122 3375 1075 2522 
Q 1259 2794 1537 2939 
Q 1816 3084 2150 3084 
Q 2853 3084 3261 2657 
Q 3669 2231 3669 1497 
Q 3669 778 3244 343 
Q 2819 -91 2113 -91 
Q 1303 -91 875 529 
Q 447 1150 447 2328 
Q 447 3434 972 4092 
Q 1497 4750 2381 4750 
Q 2619 4750 2861 4703 
Q 3103 4656 3366 4563 
z
" transform="scale(0.015625)"/>
       </defs>
       <use xlink:href="#DejaVuSans-13"/>
       <use xlink:href="#DejaVuSans-11" transform="translate(63.625 0)"/>
       <use xlink:href="#DejaVuSans-19" transform="translate(95.40625 0)"/>
      </g>
     </g>
    </g>
    <g id="text_7">
     <!-- Time (s) -->
     <g transform="translate(311.152344 250.500563) scale(0.1 -0.1)">
      <defs>
       <path id="DejaVuSans-37" d="M -19 4666 
L 3928 4666 
L 3928 4134 
L 2272 4134 
L 2272 0 
L 1638 0 
L 1638 4134 
L -19 4134 
L -19 4666 
z
" transform="scale(0.015625)"/>
       <path id="DejaVuSans-4c" d="M 603 3500 
L 1178 3500 
L 1178 0 
L 603 0 
L 603 3500 
z
M 603 4863 
L 1178 4863 
L 1178 4134 
L 603 4134 
L 603 4863 
z
" transform="scale(0.015625)"/>
       <path id="DejaVuSans-50" d="M 3328 2828 
Q 3544 3216 3844 3400 
Q 4144 3584 4550 3584 
Q 5097 3584 5394 3201 
Q 5691 2819 5691 2113 
L 5691 0 
L 5113 0 
L 5113 2094 
Q 5113 2597 4934 2840 
Q 4756 3084 4391 3084 
Q 3944 3084 3684 2787 
Q 3425 2491 3425 1978 
L 3425 0 
L 2847 0 
L 2847 2094 
Q 2847 2600 2669 2842 
Q 2491 3084 2119 3084 
Q 1678 3084 1418 2786 
Q 1159 2488 1159 1978 
L 1159 0 
L 581 0 
L 581 3500 
L 1159 3500 
L 1159 2956 
Q 1356 3278 1631 3431 
Q 1906 3584 2284 3584 
Q 2666 3584 2933 3390 
Q 3200 3197 3328 2828 
z
" transform="scale(0.015625)"/>
       <path id="DejaVuSans-48" d="M 3597 1894 
L 3597 1613 
L 953 1613 
Q 991 1019 1311 708 
Q 1631 397 2203 397 
Q 2534 397 2845 478 
Q 3156 559 3463 722 
L 3463 178 
Q 3153 47 2828 -22 
Q 2503 -91 2169 -91 
Q 1331 -91 842 396 
Q 353 884 353 1716 
Q 353 2575 817 3079 
Q 1281 3584 2069 3584 
Q 2775 3584 3186 3129 
Q 3597 2675 3597 1894 
z
M 3022 2063 
Q 3016 2534 2758 2815 
Q 2500 3097 2075 3097 
Q 1594 3097 1305 2825 
Q 1016 2553 972 2059 
L 3022 2063 
z
" transform="scale(0.015625)"/>
       <path id="DejaVuSans-3" transform="scale(0.015625)"/>
       <path id="DejaVuSans-b" d="M 1984 4856 
Q 1566 4138 1362 3434 
Q 1159 2731 1159 2009 
Q 1159 1288 1364 580 
Q 1569 -128 1984 -844 
L 1484 -844 
Q 1016 -109 783 600 
Q 550 1309 550 2009 
Q 550 2706 781 3412 
Q 1013 4119 1484 4856 
L 1984 4856 
z
" transform="scale(0.015625)"/>
       <path id="DejaVuSans-56" d="M 2834 3397 
L 2834 2853 
Q 2591 2978 2328 3040 
Q 2066 3103 1784 3103 
Q 1356 3103 1142 2972 
Q 928 2841 928 2578 
Q 928 2378 1081 2264 
Q 1234 2150 1697 2047 
L 1894 2003 
Q 2506 1872 2764 1633 
Q 3022 1394 3022 966 
Q 3022 478 2636 193 
Q 2250 -91 1575 -91 
Q 1294 -91 989 -36 
Q 684 19 347 128 
L 347 722 
Q 666 556 975 473 
Q 1284 391 1588 391 
Q 1994 391 2212 530 
Q 2431 669 2431 922 
Q 2431 1156 2273 1281 
Q 2116 1406 1581 1522 
L 1381 1569 
Q 847 1681 609 1914 
Q 372 2147 372 2553 
Q 372 3047 722 3315 
Q 1072 3584 1716 3584 
Q 2034 3584 2315 3537 
Q 2597 3491 2834 3397 
z
" transform="scale(0.015625)"/>
       <path id="DejaVuSans-c" d="M 513 4856 
L 1013 4856 
Q 1481 4119 1714 3412 
Q 1947 2706 1947 2009 
Q 1947 1309 1714 600 
Q 1481 -109 1013 -844 
L 513 -844 
Q 928 -128 1133 580 
Q 1338 1288 1338 2009 
Q 1338 2731 1133 3434 
Q 928 4138 513 4856 
z
" transform="scale(0.015625)"/>
      </defs>
      <use xlink:href="#DejaVuSans-37"/>
      <use xlink:href="#DejaVuSans-4c" transform="translate(58 0)"/>
      <use xlink:href="#DejaVuSans-50" transform="translate(85.78125 0)"/>
      <use xlink:href="#DejaVuSans-48" transform="translate(183.1875 0)"/>
      <use xlink:href="#DejaVuSans-3" transform="translate(244.71875 0)"/>
      <use xlink:href="#DejaVuSans-b" transform="translate(276.5 0)"/>
      <use xlink:href="#DejaVuSans-56" transform="translate(315.515625 0)"/>
      <use xlink:href="#DejaVuSans-c" transform="translate(367.609375 0)"/>
     </g>
    </g>
   </g>
   <g id="matplotlib.axis_2">
    <g id="ytick_1">
     <g id="line2d_13">
      <path d="M 52.483594 220.650497 
L 610.483594 220.650497 
" clip-path="url(#p20d45f1891)" style="fill: none; stroke: #b0b0b0; stroke-opacity: 0.25; stroke-width: 0.8; stroke-linecap: square"/>
     </g>
     <g id="line2d_14">
      <defs>
       <path id="mb0146a0c33" d="M 0 0 
L -3.5 0 
" style="stroke: #000000; stroke-width: 0.8"/>
      </defs>
      <g>
       <use xlink:href="#mb0146a0c33" x="52.483594" y="220.650497" style="stroke: #000000; stroke-width: 0.8"/>
      </g>
     </g>
     <g id="text_8">
      <!-- −0.6 -->
      <g transform="translate(21.200781 224.449325) scale(0.1 -0.1)">
       <defs>
        <path id="DejaVuSans-c9c" d="M 678 2272 
L 4684 2272 
L 4684 1741 
L 678 1741 
L 678 2272 
z
" transform="scale(0.015625)"/>
       </defs>
       <use xlink:href="#DejaVuSans-c9c"/>
       <use xlink:href="#DejaVuSans-13" transform="translate(83.796875 0)"/>
       <use xlink:href="#DejaVuSans-11" transform="translate(147.421875 0)"/>
       <use xlink:href="#DejaVuSans-19" transform="translate(179.203125 0)"/>
      </g>
     </g>
    </g>
    <g id="ytick_2">
     <g id="line2d_15">
      <path d="M 52.483594 187.728865 
L 610.483594 187.728865 
" clip-path="url(#p20d45f1891)" style="fill: none; stroke: #b0b0b0; stroke-opacity: 0.25; stroke-width: 0.8; stroke-linecap: square"/>
     </g>
     <g id="line2d_16">
      <g>
       <use xlink:href="#mb0146a0c33" x="52.483594" y="187.728865" style="stroke: #000000; stroke-width: 0.8"/>
      </g>
     </g>
     <g id="text_9">
      <!-- −0.4 -->
      <g transform="translate(21.200781 191.527693) scale(0.1 -0.1)">
       <use xlink:href="#DejaVuSans-c9c"/>
       <use xlink:href="#DejaVuSans-13" transform="translate(83.796875 0)"/>
       <use xlink:href="#DejaVuSans-11" transform="translate(147.421875 0)"/>
       <use xlink:href="#DejaVuSans-17" transform="translate(179.203125 0)"/>
      </g>
     </g>
    </g>
    <g id="ytick_3">
     <g id="line2d_17">
      <path d="M 52.483594 154.807234 
L 610.483594 154.807234 
" clip-path="url(#p20d45f1891)" style="fill: none; stroke: #b0b0b0; stroke-opacity: 0.25; stroke-width: 0.8; stroke-linecap: square"/>
     </g>
     <g id="line2d_18">
      <g>
       <use xlink:href="#mb0146a0c33" x="52.483594" y="154.807234" style="stroke: #000000; stroke-width: 0.8"/>
      </g>
     </g>
     <g id="text_10">
      <!-- −0.2 -->
      <g transform="translate(21.200781 158.606062) scale(0.1 -0.1)">
       <use xlink:href="#DejaVuSans-c9c"/>
       <use xlink:href="#DejaVuSans-13" transform="translate(83.796875 0)"/>
       <use xlink:href="#DejaVuSans-11" transform="translate(147.421875 0)"/>
       <use xlink:href="#DejaVuSans-15" transform="translate(179.203125 0)"/>
      </g>
     </g>
    </g>
    <g id="ytick_4">
     <g id="line2d_19">
      <path d="M 52.483594 121.885602 
L 610.483594 121.885602 
" clip-path="url(#p20d45f1891)" style="fill: none; stroke: #b0b0b0; stroke-opacity: 0.25; stroke-width: 0.8; stroke-linecap: square"/>
     </g>
     <g id="line2d_20">
      <g>
       <use xlink:href="#mb0146a0c33" x="52.483594" y="121.885602" style="stroke: #000000; stroke-width: 0.8"/>
      </g>
     </g>
     <g id="text_11">
      <!-- 0.0 -->
      <g transform="translate(29.580469 125.684431) scale(0.1 -0.1)">
       <use xlink:href="#DejaVuSans-13"/>
       <use xlink:href="#DejaVuSans-11" transform="translate(63.625 0)"/>
       <use xlink:href="#DejaVuSans-13" transform="translate(95.40625 0)"/>
      </g>
     </g>
    </g>
    <g id="ytick_5">
     <g id="line2d_21">
      <path d="M 52.483594 88.963971 
L 610.483594 88.963971 
" clip-path="url(#p20d45f1891)" style="fill: none; stroke: #b0b0b0; stroke-opacity: 0.25; stroke-width: 0.8; stroke-linecap: square"/>
     </g>
     <g id="line2d_22">
      <g>
       <use xlink:href="#mb0146a0c33" x="52.483594" y="88.963971" style="stroke: #000000; stroke-width: 0.8"/>
      </g>
     </g>
     <g id="text_12">
      <!-- 0.2 -->
      <g transform="translate(29.580469 92.762799) scale(0.1 -0.1)">
       <use xlink:href="#DejaVuSans-13"/>
       <use xlink:href="#DejaVuSans-11" transform="translate(63.625 0)"/>
       <use xlink:href="#DejaVuSans-15" transform="translate(95.40625 0)"/>
      </g>
     </g>
    </g>
    <g id="ytick_6">
     <g id="line2d_23">
      <path d="M 52.483594 56.04234 
L 610.483594 56.04234 
" clip-path="url(#p20d45f1891)" style="fill: none; stroke: #b0b0b0; stroke-opacity: 0.25; stroke-width: 0.8; stroke-linecap: square"/>
     </g>
     <g id="line2d_24">
      <g>
       <use xlink:href="#mb0146a0c33" x="52.483594" y="56.04234" style="stroke: #000000; stroke-width: 0.8"/>
      </g>
     </g>
     <g id="text_13">
      <!-- 0.4 -->
      <g transform="translate(29.580469 59.841168) scale(0.1 -0.1)">
       <use xlink:href="#DejaVuSans-13"/>
       <use xlink:href="#DejaVuSans-11" transform="translate(63.625 0)"/>
       <use xlink:href="#DejaVuSans-17" transform="translate(95.40625 0)"/>
      </g>
     </g>
    </g>
    <g id="ytick_7">
     <g id="line2d_25">
      <path d="M 52.483594 23.120708 
L 610.483594 23.120708 
" clip-path="url(#p20d45f1891)" style="fill: none; stroke: #b0b0b0; stroke-opacity: 0.25; stroke-width: 0.8; stroke-linecap: square"/>
     </g>
     <g id="line2d_26">
      <g>
       <use xlink:href="#mb0146a0c33" x="52.483594" y="23.120708" style="stroke: #000000; stroke-width: 0.8"/>
      </g>
     </g>
     <g id="text_14">
      <!-- 0.6 -->
      <g transform="translate(29.580469 26.919536) scale(0.1 -0.1)">
       <use xlink:href="#DejaVuSans-13"/>
       <use xlink:href="#DejaVuSans-11" transform="translate(63.625 0)"/>
       <use xlink:href="#DejaVuSans-19" transform="translate(95.40625 0)"/>
      </g>
     </g>
    </g>
    <g id="text_15">
     <!-- Amplitude (physical unit) -->
     <g transform="translate(14.798438 184.997625) rotate(-90) scale(0.1 -0.1)">
      <defs>
       <path id="DejaVuSans-24" d="M 2188 4044 
L 1331 1722 
L 3047 1722 
L 2188 4044 
z
M 1831 4666 
L 2547 4666 
L 4325 0 
L 3669 0 
L 3244 1197 
L 1141 1197 
L 716 0 
L 50 0 
L 1831 4666 
z
" transform="scale(0.015625)"/>
       <path id="DejaVuSans-53" d="M 1159 525 
L 1159 -1331 
L 581 -1331 
L 581 3500 
L 1159 3500 
L 1159 2969 
Q 1341 3281 1617 3432 
Q 1894 3584 2278 3584 
Q 2916 3584 3314 3078 
Q 3713 2572 3713 1747 
Q 3713 922 3314 415 
Q 2916 -91 2278 -91 
Q 1894 -91 1617 61 
Q 1341 213 1159 525 
z
M 3116 1747 
Q 3116 2381 2855 2742 
Q 2594 3103 2138 3103 
Q 1681 3103 1420 2742 
Q 1159 2381 1159 1747 
Q 1159 1113 1420 752 
Q 1681 391 2138 391 
Q 2594 391 2855 752 
Q 3116 1113 3116 1747 
z
" transform="scale(0.015625)"/>
       <path id="DejaVuSans-4f" d="M 603 4863 
L 1178 4863 
L 1178 0 
L 603 0 
L 603 4863 
z
" transform="scale(0.015625)"/>
       <path id="DejaVuSans-57" d="M 1172 4494 
L 1172 3500 
L 2356 3500 
L 2356 3053 
L 1172 3053 
L 1172 1153 
Q 1172 725 1289 603 
Q 1406 481 1766 481 
L 2356 481 
L 2356 0 
L 1766 0 
Q 1100 0 847 248 
Q 594 497 594 1153 
L 594 3053 
L 172 3053 
L 172 3500 
L 594 3500 
L 594 4494 
L 1172 4494 
z
" transform="scale(0.015625)"/>
       <path id="DejaVuSans-58" d="M 544 1381 
L 544 3500 
L 1119 3500 
L 1119 1403 
Q 1119 906 1312 657 
Q 1506 409 1894 409 
Q 2359 409 2629 706 
Q 2900 1003 2900 1516 
L 2900 3500 
L 3475 3500 
L 3475 0 
L 2900 0 
L 2900 538 
Q 2691 219 2414 64 
Q 2138 -91 1772 -91 
Q 1169 -91 856 284 
Q 544 659 544 1381 
z
M 1991 3584 
L 1991 3584 
z
" transform="scale(0.015625)"/>
       <path id="DejaVuSans-47" d="M 2906 2969 
L 2906 4863 
L 3481 4863 
L 3481 0 
L 2906 0 
L 2906 525 
Q 2725 213 2448 61 
Q 2172 -91 1784 -91 
Q 1150 -91 751 415 
Q 353 922 353 1747 
Q 353 2572 751 3078 
Q 1150 3584 1784 3584 
Q 2172 3584 2448 3432 
Q 2725 3281 2906 2969 
z
M 947 1747 
Q 947 1113 1208 752 
Q 1469 391 1925 391 
Q 2381 391 2643 752 
Q 2906 1113 2906 1747 
Q 2906 2381 2643 2742 
Q 2381 3103 1925 3103 
Q 1469 3103 1208 2742 
Q 947 2381 947 1747 
z
" transform="scale(0.015625)"/>
       <path id="DejaVuSans-4b" d="M 3513 2113 
L 3513 0 
L 2938 0 
L 2938 2094 
Q 2938 2591 2744 2837 
Q 2550 3084 2163 3084 
Q 1697 3084 1428 2787 
Q 1159 2491 1159 1978 
L 1159 0 
L 581 0 
L 581 4863 
L 1159 4863 
L 1159 2956 
Q 1366 3272 1645 3428 
Q 1925 3584 2291 3584 
Q 2894 3584 3203 3211 
Q 3513 2838 3513 2113 
z
" transform="scale(0.015625)"/>
       <path id="DejaVuSans-5c" d="M 2059 -325 
Q 1816 -950 1584 -1140 
Q 1353 -1331 966 -1331 
L 506 -1331 
L 506 -850 
L 844 -850 
Q 1081 -850 1212 -737 
Q 1344 -625 1503 -206 
L 1606 56 
L 191 3500 
L 800 3500 
L 1894 763 
L 2988 3500 
L 3597 3500 
L 2059 -325 
z
" transform="scale(0.015625)"/>
       <path id="DejaVuSans-46" d="M 3122 3366 
L 3122 2828 
Q 2878 2963 2633 3030 
Q 2388 3097 2138 3097 
Q 1578 3097 1268 2742 
Q 959 2388 959 1747 
Q 959 1106 1268 751 
Q 1578 397 2138 397 
Q 2388 397 2633 464 
Q 2878 531 3122 666 
L 3122 134 
Q 2881 22 2623 -34 
Q 2366 -91 2075 -91 
Q 1284 -91 818 406 
Q 353 903 353 1747 
Q 353 2603 823 3093 
Q 1294 3584 2113 3584 
Q 2378 3584 2631 3529 
Q 2884 3475 3122 3366 
z
" transform="scale(0.015625)"/>
       <path id="DejaVuSans-44" d="M 2194 1759 
Q 1497 1759 1228 1600 
Q 959 1441 959 1056 
Q 959 750 1161 570 
Q 1363 391 1709 391 
Q 2188 391 2477 730 
Q 2766 1069 2766 1631 
L 2766 1759 
L 2194 1759 
z
M 3341 1997 
L 3341 0 
L 2766 0 
L 2766 531 
Q 2569 213 2275 61 
Q 1981 -91 1556 -91 
Q 1019 -91 701 211 
Q 384 513 384 1019 
Q 384 1609 779 1909 
Q 1175 2209 1959 2209 
L 2766 2209 
L 2766 2266 
Q 2766 2663 2505 2880 
Q 2244 3097 1772 3097 
Q 1472 3097 1187 3025 
Q 903 2953 641 2809 
L 641 3341 
Q 956 3463 1253 3523 
Q 1550 3584 1831 3584 
Q 2591 3584 2966 3190 
Q 3341 2797 3341 1997 
z
" transform="scale(0.015625)"/>
       <path id="DejaVuSans-51" d="M 3513 2113 
L 3513 0 
L 2938 0 
L 2938 2094 
Q 2938 2591 2744 2837 
Q 2550 3084 2163 3084 
Q 1697 3084 1428 2787 
Q 1159 2491 1159 1978 
L 1159 0 
L 581 0 
L 581 3500 
L 1159 3500 
L 1159 2956 
Q 1366 3272 1645 3428 
Q 1925 3584 2291 3584 
Q 2894 3584 3203 3211 
Q 3513 2838 3513 2113 
z
" transform="scale(0.015625)"/>
      </defs>
      <use xlink:href="#DejaVuSans-24"/>
      <use xlink:href="#DejaVuSans-50" transform="translate(68.40625 0)"/>
      <use xlink:href="#DejaVuSans-53" transform="translate(165.8125 0)"/>
      <use xlink:href="#DejaVuSans-4f" transform="translate(229.296875 0)"/>
      <use xlink:href="#DejaVuSans-4c" transform="translate(257.078125 0)"/>
      <use xlink:href="#DejaVuSans-57" transform="translate(284.859375 0)"/>
      <use xlink:href="#DejaVuSans-58" transform="translate(324.0625 0)"/>
      <use xlink:href="#DejaVuSans-47" transform="translate(387.4375 0)"/>
      <use xlink:href="#DejaVuSans-48" transform="translate(450.921875 0)"/>
      <use xlink:href="#DejaVuSans-3" transform="translate(512.453125 0)"/>
      <use xlink:href="#DejaVuSans-b" transform="translate(544.234375 0)"/>
      <use xlink:href="#DejaVuSans-53" transform="translate(583.25 0)"/>
      <use xlink:href="#DejaVuSans-4b" transform="translate(646.734375 0)"/>
      <use xlink:href="#DejaVuSans-5c" transform="translate(710.109375 0)"/>
      <use xlink:href="#DejaVuSans-56" transform="translate(769.296875 0)"/>
      <use xlink:href="#DejaVuSans-4c" transform="translate(821.390625 0)"/>
      <use xlink:href="#DejaVuSans-46" transform="translate(849.171875 0)"/>
      <use xlink:href="#DejaVuSans-44" transform="translate(904.15625 0)"/>
      <use xlink:href="#DejaVuSans-4f" transform="translate(965.4375 0)"/>
      <use xlink:href="#DejaVuSans-3" transform="translate(993.21875 0)"/>
      <use xlink:href="#DejaVuSans-58" transform="translate(1025 0)"/>
      <use xlink:href="#DejaVuSans-51" transform="translate(1088.375 0)"/>
      <use xlink:href="#DejaVuSans-4c" transform="translate(1151.75 0)"/>
      <use xlink:href="#DejaVuSans-57" transform="translate(1179.53125 0)"/>
      <use xlink:href="#DejaVuSans-c" transform="translate(1218.734375 0)"/>
     </g>
    </g>
   </g>
   <g id="line2d_27">
    <path d="M 77.84723 172.552568 
L 78.839936 108.5263 
L 79.832642 76.414845 
L 80.825348 165.878047 
L 81.818054 80.886119 
L 82.81076 81.635985 
L 83.803466 166.813976 
L 84.796172 95.765101 
L 85.788878 67.376051 
L 86.781583 181.807106 
L 87.774289 143.40893 
L 88.766995 48.178524 
L 89.759701 190.189017 
L 90.752407 201.874103 
L 91.745113 42.69947 
L 93.730525 186.697801 
L 94.723231 60.777947 
L 95.715937 110.068151 
L 96.708643 186.244553 
L 97.701349 50.472362 
L 98.694055 84.288068 
L 99.68676 202.982118 
L 100.679466 44.759798 
L 101.672172 78.073004 
L 102.664878 184.356704 
L 103.657584 67.647989 
L 104.65029 68.41119 
L 105.642996 184.447503 
L 106.635702 102.571669 
L 107.628408 47.52303 
L 108.621114 198.872805 
L 109.61382 111.450061 
L 110.606526 52.241412 
L 111.599232 180.093927 
L 112.591937 181.07512 
L 113.584643 61.240479 
L 114.577349 184.590697 
L 115.570055 178.597136 
L 116.562761 52.9095 
L 117.555467 186.089848 
L 118.548173 164.417629 
L 119.540879 64.941652 
L 121.526291 184.389273 
L 122.518997 55.067133 
L 123.511703 130.447375 
L 124.504409 190.216756 
L 125.497114 62.995765 
L 126.48982 52.949116 
L 127.482526 195.697458 
L 128.475232 50.93389 
L 129.467938 43.062495 
L 130.460644 200.576667 
L 131.45335 76.547297 
L 132.446056 53.329383 
L 133.438762 190.564506 
L 134.431468 165.88605 
L 135.424174 42.624335 
L 136.41688 202.222151 
L 137.409586 171.340369 
L 138.402291 46.594 
L 139.394997 179.202553 
L 140.387703 191.810213 
L 141.380409 49.220104 
L 142.373115 188.683273 
L 143.365821 193.3364 
L 144.358527 53.440084 
L 145.351233 128.387135 
L 146.343939 179.112975 
L 147.336645 64.32677 
L 148.329351 115.567297 
L 149.322057 191.356336 
L 150.314763 46.998171 
L 151.307469 84.75075 
L 152.300174 200.697548 
L 153.29288 49.049892 
L 154.285586 81.469571 
L 155.278292 184.867666 
L 156.270998 129.310252 
L 157.263704 62.328403 
L 158.25641 181.764523 
L 159.249116 134.725802 
L 160.241822 65.396128 
L 161.234528 177.598468 
L 162.227234 122.240219 
L 163.21994 53.567312 
L 164.212646 164.503218 
L 165.205351 203.635679 
L 166.198057 42.193727 
L 167.190763 187.999356 
L 168.183469 160.600787 
L 169.176175 75.882539 
L 170.168881 96.71796 
L 171.161587 178.187289 
L 172.154293 55.39192 
L 173.146999 115.918863 
L 174.139705 198.2661 
L 175.132411 47.674249 
L 176.125117 89.811421 
L 177.117823 195.003391 
L 178.110528 47.753482 
L 179.103234 57.807182 
L 180.09594 199.874321 
L 181.088646 66.654895 
L 182.081352 56.386075 
L 183.074058 181.323194 
L 184.066764 136.63921 
L 185.05947 67.039006 
L 186.052176 176.391409 
L 187.044882 167.404417 
L 188.037588 66.477699 
L 189.030294 148.931493 
L 190.023 175.160836 
L 191.015705 67.902634 
L 192.008411 161.153489 
L 193.001117 176.76479 
L 193.993823 61.509795 
L 194.986529 111.764145 
L 195.979235 193.950591 
L 196.971941 46.823844 
L 197.964647 117.052836 
L 198.957353 197.326785 
L 199.950059 46.249059 
L 200.942765 72.75557 
L 201.935471 199.305503 
L 202.928177 57.669947 
L 203.920882 54.691972 
L 204.913588 185.08173 
L 205.906294 116.787956 
L 206.899 60.715204 
L 207.891706 186.246866 
L 208.884412 107.4213 
L 209.877118 55.507322 
L 210.869824 182.831146 
L 211.86253 165.207332 
L 212.855236 74.655301 
L 213.847942 136.586723 
L 214.840648 163.7761 
L 215.833354 76.99694 
L 216.82606 153.411961 
L 217.818765 166.544407 
L 218.811471 78.607821 
L 219.804177 140.524866 
L 220.796883 166.5409 
L 221.789589 70.561355 
L 222.782295 137.002001 
L 223.775001 187.118964 
L 224.767707 59.092274 
L 225.760413 96.402565 
L 226.753119 167.414166 
L 227.745825 98.483386 
L 228.738531 90.709213 
L 229.731237 158.834553 
L 230.723942 144.102409 
L 231.716648 65.008894 
L 232.709354 185.087171 
L 234.694766 66.291173 
L 235.687472 167.518806 
L 236.680178 167.327598 
L 237.672884 76.827047 
L 238.66559 166.200562 
L 239.658296 173.502404 
L 240.651002 64.071088 
L 242.636414 183.637997 
L 243.629119 57.304587 
L 244.621825 127.54555 
L 245.614531 188.823782 
L 246.607237 56.385371 
L 247.599943 95.070866 
L 248.592649 176.233953 
L 249.585355 72.932866 
L 250.578061 96.642957 
L 251.570767 165.377456 
L 252.563473 104.689628 
L 253.556179 85.409018 
L 254.548885 157.53292 
L 255.541591 105.816413 
L 256.534296 75.413594 
L 257.527002 178.200551 
L 258.519708 102.656228 
L 259.512414 55.219572 
L 260.50512 185.586762 
L 261.497826 174.733138 
L 262.490532 64.890153 
L 263.483238 165.067433 
L 264.475944 179.97511 
L 265.46865 62.141436 
L 266.461356 163.675456 
L 267.454062 172.473238 
L 268.446768 76.153689 
L 269.439473 131.59033 
L 270.432179 168.415623 
L 271.424885 67.151339 
L 272.417591 100.476485 
L 273.410297 198.279173 
L 274.403003 44.245002 
L 276.388415 187.126575 
L 277.381121 97.056056 
L 278.373827 76.665145 
L 279.366533 164.4153 
L 280.359239 83.074868 
L 281.351945 79.925269 
L 282.344651 166.475486 
L 283.337356 104.713985 
L 284.330062 74.816154 
L 285.322768 173.044067 
L 286.315474 162.961691 
L 287.30818 58.956684 
L 288.300886 186.380152 
L 289.293592 190.336646 
L 290.286298 51.316455 
L 291.279004 161.577292 
L 292.27171 187.91556 
L 293.264416 62.51045 
L 294.257122 158.160399 
L 295.249828 164.168715 
L 296.242533 79.816662 
L 297.235239 115.071971 
L 298.227945 174.469123 
L 299.220651 80.601831 
L 300.213357 72.008722 
L 301.206063 167.532159 
L 302.198769 88.042638 
L 303.191475 72.55475 
L 304.184181 181.659633 
L 305.176887 74.058775 
L 306.169593 45.887836 
L 307.162299 198.399787 
L 308.155005 154.824546 
L 309.14771 52.831414 
L 310.140416 189.394025 
L 311.133122 184.209264 
L 312.125828 46.97205 
L 313.118534 179.630434 
L 314.11124 198.599236 
L 315.103946 47.552898 
L 316.096652 140.548094 
L 317.089358 184.671355 
L 318.082064 61.594688 
L 319.07477 151.223656 
L 320.067476 188.276305 
L 321.060182 46.772603 
L 322.052887 97.791935 
L 323.045593 209.178626 
L 324.038299 68.734992 
L 325.031005 52.943768 
L 326.023711 176.73055 
L 327.016417 78.504019 
L 328.009123 94.020987 
L 329.001829 171.21403 
L 329.994535 121.016908 
L 330.987241 49.862335 
L 331.979947 203.898349 
L 332.972653 154.858629 
L 333.965359 37.794061 
L 334.958064 198.903972 
L 335.95077 158.153961 
L 336.943476 63.007079 
L 337.936182 172.64531 
L 338.928888 158.823358 
L 339.921594 81.366803 
L 340.9143 144.969092 
L 341.907006 159.426774 
L 342.899712 76.344398 
L 343.892418 128.339746 
L 344.885124 191.287504 
L 345.87783 49.325288 
L 346.870536 152.888929 
L 347.863241 182.006255 
L 348.855947 66.953152 
L 349.848653 120.657866 
L 350.841359 187.777114 
L 351.834065 48.654854 
L 352.826771 72.329442 
L 353.819477 203.902466 
L 355.804889 53.332112 
L 356.797595 182.515594 
L 357.790301 130.083374 
L 358.783007 64.773823 
L 359.775713 184.631584 
L 360.768419 135.244963 
L 361.761124 43.322951 
L 362.75383 201.384294 
L 363.746536 187.348928 
L 364.739242 50.31409 
L 365.731948 185.078659 
L 366.724654 172.365848 
L 367.71736 67.21273 
L 369.702772 173.386829 
L 370.695478 71.871715 
L 371.688184 145.364418 
L 372.68089 168.511949 
L 373.673596 76.238159 
L 374.666301 86.750837 
L 375.659007 178.357664 
L 376.651713 58.950157 
L 377.644419 70.503082 
L 378.637125 196.652928 
L 379.629831 49.853255 
L 380.622537 91.184804 
L 381.615243 180.407054 
L 382.607949 103.977161 
L 383.600655 72.102045 
L 384.593361 174.839009 
L 385.586067 136.352284 
L 386.578773 54.794368 
L 387.571478 179.441393 
L 388.564184 188.142307 
L 389.55689 60.641083 
L 390.549596 161.004515 
L 391.542302 173.022008 
L 392.535008 66.177823 
L 393.527714 111.219323 
L 394.52042 195.483177 
L 395.513126 40.780693 
L 396.505832 73.932313 
L 397.498538 210.38168 
L 398.491244 37.910768 
L 400.476655 185.520903 
L 401.469361 93.564569 
L 402.462067 75.708445 
L 403.454773 176.497402 
L 404.447479 109.951859 
L 405.440185 35.822958 
L 406.432891 212.830125 
L 407.425597 123.373041 
L 408.418303 59.503782 
L 409.411009 167.379151 
L 410.403715 160.873671 
L 411.396421 82.863216 
L 412.389127 141.651699 
L 413.381832 178.313111 
L 414.374538 55.48665 
L 415.367244 185.246257 
L 416.35995 187.691149 
L 417.352656 61.466974 
L 418.345362 140.584464 
L 419.338068 172.972216 
L 420.330774 65.714542 
L 421.32348 100.183012 
L 422.316186 203.633616 
L 423.308892 31.390125 
L 424.301598 111.27393 
L 425.294304 210.601617 
L 426.28701 46.325087 
L 427.279715 77.905933 
L 428.272421 171.345419 
L 429.265127 103.808303 
L 430.257833 78.62232 
L 431.250539 174.408655 
L 432.243245 69.817346 
L 433.235951 50.563589 
L 434.228657 191.729117 
L 435.221363 140.821753 
L 436.214069 70.668981 
L 437.206775 167.560086 
L 438.199481 149.797724 
L 439.192187 59.998219 
L 440.184892 158.185162 
L 441.177598 202.294656 
L 442.170304 41.279236 
L 444.155716 185.205644 
L 445.148422 63.937616 
L 446.141128 101.023359 
L 447.133834 185.382576 
L 448.12654 54.470111 
L 449.119246 59.362927 
L 450.111952 197.615764 
L 451.104658 43.688166 
L 452.097364 78.232486 
L 453.090069 204.260152 
L 454.082775 78.337891 
L 455.075481 54.544205 
L 456.068187 180.20712 
L 458.053599 68.057016 
L 459.046305 179.89766 
L 460.039011 134.617503 
L 461.031717 54.489744 
L 462.024423 162.038385 
L 463.017129 182.112627 
L 464.009835 63.484394 
L 465.002541 137.459096 
L 465.995246 178.507151 
L 466.987952 63.379558 
L 467.980658 148.90537 
L 468.973364 178.109217 
L 469.96607 63.552421 
L 470.958776 84.481028 
L 471.951482 188.606807 
L 472.944188 54.764302 
L 473.936894 67.818594 
L 474.9296 183.557282 
L 475.922306 66.178772 
L 476.915012 64.050006 
L 477.907718 183.651104 
L 478.900423 90.369647 
L 479.893129 61.509471 
L 480.885835 177.625509 
L 481.878541 130.88714 
L 482.871247 73.759469 
L 483.863953 175.140286 
L 484.856659 159.53816 
L 485.849365 54.886315 
L 486.842071 184.60458 
L 487.834777 143.26648 
L 488.827483 79.61818 
L 489.820189 160.101703 
L 490.812895 155.126437 
L 491.805601 75.943226 
L 492.798306 116.377235 
L 493.791012 172.366222 
L 494.783718 70.710488 
L 495.776424 99.555086 
L 496.76913 179.204707 
L 497.761836 61.613291 
L 498.754542 74.14292 
L 499.747248 186.319907 
L 500.739954 90.423118 
L 501.73266 66.522326 
L 502.725366 170.181779 
L 503.718072 149.20072 
L 504.710778 87.465675 
L 505.703483 156.470262 
L 506.696189 146.524817 
L 507.688895 71.755843 
L 508.681601 177.126493 
L 510.667013 68.797627 
L 511.659719 162.497579 
L 512.652425 163.116625 
L 513.645131 77.545159 
L 514.637837 169.96309 
L 515.630543 181.109602 
L 516.623249 54.368831 
L 517.615955 147.917363 
L 518.60866 191.731666 
L 519.601366 51.452422 
L 520.594072 99.991484 
L 521.586778 191.831585 
L 522.579484 71.182467 
L 523.57219 61.8049 
L 524.564896 179.135521 
L 525.557602 75.594825 
L 526.550308 64.763536 
L 527.543014 184.492191 
L 528.53572 74.773398 
L 529.528426 56.419977 
L 530.521132 185.189308 
L 531.513837 122.055487 
L 532.506543 69.448549 
L 533.499249 169.837827 
L 534.491955 157.533667 
L 535.484661 68.318819 
L 536.477367 159.802706 
L 537.470073 188.876783 
L 538.462779 49.243516 
L 539.455485 164.096699 
L 540.448191 188.377609 
L 541.440897 60.059111 
L 542.433603 115.335779 
L 543.426309 177.732111 
L 544.419014 64.202384 
L 545.41172 104.967258 
L 546.404426 189.989394 
L 547.397132 49.550036 
L 548.389838 66.148153 
L 549.382544 197.297408 
L 550.37525 78.379725 
L 551.367956 56.327569 
L 552.360662 184.876371 
L 553.353368 132.828404 
L 554.346074 59.292383 
L 555.33878 187.275125 
L 556.331486 110.287374 
L 557.324192 52.666618 
L 558.316897 190.836332 
L 559.309603 135.55352 
L 560.302309 54.445559 
L 561.295015 187.002244 
L 562.287721 170.608684 
L 563.280427 56.014684 
L 564.273133 153.859644 
L 565.265839 187.574711 
L 566.258545 54.40458 
L 567.251251 127.771492 
L 568.243957 188.928414 
L 569.236663 57.013206 
L 570.229369 133.428514 
L 571.222074 183.133454 
L 572.21478 62.742797 
L 573.207486 97.587868 
L 574.200192 173.429776 
L 575.192898 103.163657 
L 576.185604 83.141181 
L 577.17831 164.606002 
L 578.171016 116.634899 
L 579.163722 58.117044 
L 580.156428 194.358171 
L 581.149134 113.56126 
L 582.14184 48.845426 
L 583.134546 192.391407 
L 584.127251 161.906667 
L 585.119957 51.192971 
L 585.119957 51.192971 
" clip-path="url(#p20d45f1891)" style="fill: none; stroke: #1f77b4; stroke-width: 0.9; stroke-linecap: square"/>
   </g>
   <g id="line2d_28">
    <path d="M 77.84723 136.176315 
L 78.839936 133.431923 
L 79.832642 120.226855 
L 80.825348 109.824717 
L 82.81076 93.875257 
L 83.803466 110.155711 
L 84.796172 119.836387 
L 85.788878 122.917286 
L 86.781583 127.76659 
L 88.766995 140.092802 
L 90.752407 151.308457 
L 91.745113 130.402609 
L 92.737819 116.615671 
L 93.730525 109.947644 
L 94.723231 101.37211 
L 95.715937 107.728091 
L 96.708643 110.083184 
L 97.701349 108.437391 
L 98.694055 107.863631 
L 99.68676 112.3163 
L 100.679466 115.422142 
L 101.672172 117.181156 
L 102.664878 119.301052 
L 103.657584 114.761221 
L 104.65029 112.005859 
L 105.642996 111.034965 
L 106.635702 109.585924 
L 107.628408 110.068829 
L 108.621114 110.034071 
L 109.61382 109.48165 
L 110.606526 109.067936 
L 111.599232 127.491353 
L 112.591937 140.867376 
L 113.584643 149.196006 
L 114.577349 158.87708 
L 115.570055 147.021406 
L 116.562761 140.936486 
L 117.555467 140.622321 
L 118.548173 138.761887 
L 119.540879 129.46641 
L 120.533585 122.163147 
L 122.518997 111.007236 
L 123.511703 109.29679 
L 124.504409 106.478531 
L 126.48982 98.923224 
L 127.482526 105.377555 
L 128.475232 109.130002 
L 129.467938 110.180567 
L 130.460644 111.955099 
L 131.45335 119.95093 
L 132.446056 126.279768 
L 134.431468 136.050131 
L 135.424174 128.175832 
L 136.41688 123.780267 
L 137.409586 122.863438 
L 138.402291 121.014484 
L 139.394997 135.207109 
L 140.387703 145.101407 
L 141.380409 150.697376 
L 142.373115 157.445078 
L 143.365821 143.860496 
L 144.358527 135.723933 
L 145.351233 133.03539 
L 146.343939 128.887054 
L 147.336645 120.530837 
L 148.329351 113.302119 
L 150.314763 100.797567 
L 151.307469 106.024402 
L 152.300174 108.134943 
L 153.29288 107.12919 
L 154.285586 106.958445 
L 155.278292 120.192746 
L 156.270998 129.835175 
L 157.263704 135.885734 
L 158.25641 142.898731 
L 159.249116 130.796296 
L 160.241822 123.815825 
L 161.234528 121.957319 
L 162.227234 118.726387 
L 163.21994 125.13783 
L 164.212646 128.965606 
L 165.205351 130.209715 
L 166.198057 132.146116 
L 167.190763 125.285523 
L 168.183469 120.782077 
L 169.176175 118.635779 
L 170.168881 115.857885 
L 171.161587 124.280328 
L 172.154293 129.70165 
L 173.146999 132.121851 
L 174.139705 135.346199 
L 175.132411 117.514868 
L 176.125117 105.325389 
L 177.117823 98.777763 
L 178.110528 90.718407 
L 179.103234 97.897294 
L 180.09594 100.993106 
L 181.088646 100.005843 
L 182.081352 100.112636 
L 183.074058 117.25627 
L 184.066764 129.834896 
L 185.05947 137.848515 
L 186.052176 147.085324 
L 187.044882 139.595427 
L 188.037588 136.587438 
L 189.030294 138.061355 
L 190.023 138.33435 
L 191.015705 129.107941 
L 192.008411 122.426889 
L 193.001117 118.291195 
L 193.993823 113.473474 
L 194.986529 117.295377 
L 195.979235 118.8023 
L 196.971941 117.994243 
L 197.964647 117.806483 
L 199.950059 116.993311 
L 201.935471 116.365112 
L 202.928177 114.91554 
L 203.920882 113.767786 
L 205.906294 111.995044 
L 206.899 112.289768 
L 207.891706 112.257184 
L 209.877118 111.6251 
L 210.869824 121.353898 
L 211.86253 128.402939 
L 212.855236 132.772224 
L 213.847942 137.859546 
L 214.840648 136.089135 
L 215.833354 136.156247 
L 216.82606 138.060885 
L 217.818765 139.473158 
L 218.811471 130.722017 
L 219.804177 124.694155 
L 220.796883 121.389571 
L 221.789589 117.355287 
L 222.782295 117.816771 
L 223.775001 117.073617 
L 224.767707 115.125826 
L 225.760413 113.500817 
L 226.753119 120.743354 
L 227.745825 125.609839 
L 228.738531 128.100273 
L 229.731237 131.227367 
L 230.723942 128.025595 
L 231.716648 126.519638 
L 232.709354 126.709495 
L 233.70206 126.444961 
L 234.694766 127.793197 
L 235.687472 128.709293 
L 237.672884 129.792994 
L 238.66559 128.119385 
L 239.658296 127.05492 
L 240.651002 126.599599 
L 241.643708 125.981058 
L 242.636414 128.927738 
L 243.629119 130.91912 
L 244.621825 131.955204 
L 245.614531 133.24726 
L 246.607237 120.592329 
L 247.599943 111.674482 
L 248.592649 106.493718 
L 249.585355 100.311606 
L 250.578061 108.173178 
L 251.570767 112.271756 
L 252.563473 112.60734 
L 253.556179 113.951216 
L 254.548885 116.541788 
L 255.541591 118.798309 
L 257.527002 122.732757 
L 258.519708 128.291942 
L 259.512414 132.900656 
L 261.497826 140.47182 
L 262.490532 132.555069 
L 263.483238 127.808069 
L 264.475944 126.23082 
L 265.46865 123.804238 
L 266.461356 127.108517 
L 267.454062 128.877217 
L 268.446768 129.110337 
L 269.439473 129.754915 
L 270.432179 127.670746 
L 271.424885 126.317743 
L 272.417591 125.695904 
L 273.410297 124.878151 
L 274.403003 121.994411 
L 275.395709 119.66425 
L 277.381121 115.962757 
L 278.373827 110.811438 
L 279.366533 106.524632 
L 281.351945 99.4484 
L 282.344651 113.923118 
L 283.337356 123.540277 
L 284.330062 128.299877 
L 285.322768 134.361056 
L 286.315474 138.07991 
L 287.30818 142.426388 
L 289.293592 152.206421 
L 290.286298 138.431713 
L 291.279004 129.635672 
L 292.27171 125.818298 
L 293.264416 120.666894 
L 294.257122 124.558407 
L 295.249828 126.026877 
L 296.242533 125.072305 
L 297.235239 124.766985 
L 298.227945 122.253603 
L 299.220651 120.331869 
L 301.206063 117.513167 
L 302.198769 111.69755 
L 303.191475 107.041349 
L 305.176887 99.737115 
L 306.169593 111.528545 
L 307.162299 119.140268 
L 308.155005 122.572284 
L 309.14771 127.124249 
L 311.133122 141.336371 
L 313.118534 153.389517 
L 314.11124 144.356911 
L 315.103946 139.387769 
L 316.096652 138.48209 
L 317.089358 136.487609 
L 318.082064 128.403644 
L 319.07477 121.951352 
L 321.060182 111.872906 
L 322.052887 109.927238 
L 323.045593 107.094079 
L 325.031005 99.890585 
L 326.023711 112.470609 
L 327.016417 120.7466 
L 328.009123 124.718558 
L 329.001829 129.843778 
L 329.994535 129.38905 
L 330.987241 130.429464 
L 331.979947 132.965021 
L 332.972653 135.099956 
L 333.965359 129.573904 
L 334.958064 126.100606 
L 335.95077 124.680065 
L 336.943476 122.709489 
L 337.936182 127.974141 
L 338.928888 131.30012 
L 339.921594 132.687426 
L 340.9143 134.594197 
L 341.907006 134.249163 
L 342.899712 134.507499 
L 343.892418 135.369204 
L 344.885124 136.069237 
L 345.87783 129.586667 
L 346.870536 125.02867 
L 347.863241 122.395246 
L 348.855947 119.246133 
L 350.841359 111.610328 
L 352.826771 104.539851 
L 353.819477 119.290674 
L 354.812183 129.134334 
L 355.804889 134.07083 
L 356.797595 140.322196 
L 357.790301 131.980695 
L 358.783007 127.549341 
L 359.775713 127.028134 
L 360.768419 125.459207 
L 361.761124 129.655321 
L 362.75383 132.306697 
L 363.746536 133.413334 
L 364.739242 134.933883 
L 365.731948 131.199644 
L 366.724654 128.873422 
L 367.71736 127.955215 
L 368.710066 126.659732 
L 369.702772 131.410582 
L 370.695478 134.541323 
L 371.688184 136.051953 
L 372.68089 137.99669 
L 373.673596 119.951423 
L 374.666301 107.262461 
L 375.659007 99.929805 
L 376.651713 91.161932 
L 377.644419 101.469489 
L 378.637125 106.6658 
L 379.629831 106.750864 
L 380.622537 108.205483 
L 381.615243 115.530952 
L 382.607949 121.283331 
L 384.593361 130.063418 
L 388.564184 147.488793 
L 389.55689 133.633824 
L 390.549596 124.672671 
L 391.542302 120.605332 
L 392.535008 115.226699 
L 393.527714 112.321296 
L 394.52042 108.753194 
L 396.505832 99.494908 
L 397.498538 119.308149 
L 398.491244 123.616319 
L 400.476655 136.865344 
L 401.469361 124.101007 
L 402.462067 116.43588 
L 403.454773 113.869962 
L 404.447479 109.937716 
L 405.440185 114.392177 
L 406.432891 116.599426 
L 407.425597 116.559464 
L 408.418303 117.12164 
L 409.411009 124.428984 
L 410.403715 129.928965 
L 411.396421 133.621585 
L 412.389127 137.798485 
L 414.374538 145.084021 
L 416.35995 152.821058 
L 417.352656 132.975421 
L 418.345362 119.47804 
L 419.338068 112.328916 
L 420.330774 103.478781 
L 421.32348 112.548023 
L 422.316186 116.815782 
L 423.308892 116.282059 
L 424.301598 117.034889 
L 425.294304 119.060051 
L 426.28701 120.744292 
L 428.272421 123.522284 
L 429.265127 113.483421 
L 430.257833 106.518882 
L 431.250539 102.628668 
L 432.243245 97.91469 
L 433.235951 109.938589 
L 434.228657 117.477588 
L 435.221363 120.531686 
L 436.214069 124.78751 
L 437.206775 127.416463 
L 438.199481 130.481336 
L 440.184892 137.366113 
L 441.177598 132.130895 
L 442.170304 129.205187 
L 443.16301 128.588987 
L 444.155716 127.353956 
L 445.148422 115.667749 
L 446.141128 106.781926 
L 447.133834 100.696488 
L 448.12654 93.860688 
L 449.119246 100.247494 
L 450.111952 103.091313 
L 451.104658 102.392146 
L 452.097364 102.64232 
L 453.090069 111.582006 
L 454.082775 118.193344 
L 455.075481 122.476335 
L 456.068187 127.383204 
L 457.060893 124.745238 
L 458.053599 124.128905 
L 459.046305 125.534204 
L 460.039011 126.397808 
L 461.031717 123.434654 
L 462.024423 121.496876 
L 463.017129 120.584476 
L 464.009835 119.397326 
L 465.002541 125.200885 
L 465.995246 129.131288 
L 466.987952 131.188538 
L 467.980658 133.747697 
L 468.973364 126.92875 
L 469.96607 122.622658 
L 470.958776 120.829423 
L 471.951482 118.36287 
L 472.944188 110.053477 
L 473.936894 103.309668 
L 475.922306 92.533723 
L 476.915012 100.068268 
L 477.907718 104.084034 
L 478.900423 104.581019 
L 479.893129 106.020858 
L 480.885835 119.889319 
L 481.878541 130.42754 
L 482.871247 137.635523 
L 483.863953 145.73584 
L 484.856659 137.551815 
L 485.849365 133.731167 
L 486.842071 134.273895 
L 487.834777 133.64746 
L 488.827483 127.617728 
L 489.820189 123.035805 
L 490.812895 119.901691 
L 491.805601 116.379638 
L 492.798306 116.127844 
L 493.791012 114.999787 
L 495.776424 111.22594 
L 496.76913 114.298124 
L 497.761836 116.072977 
L 498.754542 116.550496 
L 499.747248 117.375635 
L 500.739954 121.522998 
L 501.73266 124.780174 
L 503.718072 129.752676 
L 504.710778 124.287214 
L 505.703483 120.984364 
L 506.696189 119.844125 
L 507.688895 118.124416 
L 508.681601 123.924864 
L 509.674307 127.710292 
L 510.667013 129.4807 
L 511.659719 131.791031 
L 512.652425 137.265537 
L 513.645131 141.892205 
L 515.630543 149.677042 
L 516.623249 133.233886 
L 517.615955 122.270066 
L 518.60866 116.785583 
L 519.601366 109.832917 
L 520.594072 109.642207 
L 521.586778 107.639636 
L 522.579484 103.825204 
L 523.57219 100.496259 
L 524.564896 108.780941 
L 525.557602 113.953761 
L 526.550308 116.01472 
L 527.543014 118.909499 
L 528.53572 117.017724 
L 529.528426 116.408503 
L 530.521132 117.081835 
L 531.513837 117.411508 
L 532.506543 119.364009 
L 533.499249 120.881674 
L 535.484661 123.163848 
L 536.477367 130.112888 
L 537.470073 135.521301 
L 539.455485 143.669685 
L 540.448191 135.803703 
L 541.440897 131.192387 
L 542.433603 129.835737 
L 543.426309 127.607001 
L 544.419014 117.767772 
L 545.41172 109.967768 
L 547.397132 97.899803 
L 548.389838 102.892761 
L 549.382544 104.857854 
L 550.37525 103.795083 
L 551.367956 103.543625 
L 552.360662 116.884528 
L 553.353368 126.583369 
L 554.346074 132.640147 
L 555.33878 139.672814 
L 556.331486 130.564571 
L 557.324192 125.781272 
L 558.316897 125.322916 
L 559.309603 123.705695 
L 560.302309 124.643818 
L 561.295015 124.897239 
L 562.287721 124.465957 
L 563.280427 124.218141 
L 564.273133 125.696528 
L 565.265839 126.71238 
L 567.251251 127.94295 
L 569.236663 130.383181 
L 571.222074 132.364531 
L 572.21478 124.636708 
L 573.207486 119.25103 
L 574.200192 116.207495 
L 575.192898 112.536384 
L 576.185604 112.258554 
L 577.17831 111.071498 
L 579.163722 107.122557 
L 580.156428 121.767619 
L 581.149134 131.992131 
L 582.14184 137.796092 
L 583.134546 144.784536 
L 584.127251 115.017379 
L 585.119957 95.098856 
L 585.119957 95.098856 
" clip-path="url(#p20d45f1891)" style="fill: none; stroke: #ff7f0e; stroke-width: 0.9; stroke-linecap: square"/>
   </g>
   <g id="patch_3">
    <path d="M 52.483594 221.902125 
L 52.483594 22.318125 
" style="fill: none; stroke: #000000; stroke-width: 0.8; stroke-linejoin: miter; stroke-linecap: square"/>
   </g>
   <g id="patch_4">
    <path d="M 610.483594 221.902125 
L 610.483594 22.318125 
" style="fill: none; stroke: #000000; stroke-width: 0.8; stroke-linejoin: miter; stroke-linecap: square"/>
   </g>
   <g id="patch_5">
    <path d="M 52.483594 221.902125 
L 610.483594 221.902125 
" style="fill: none; stroke: #000000; stroke-width: 0.8; stroke-linejoin: miter; stroke-linecap: square"/>
   </g>
   <g id="patch_6">
    <path d="M 52.483594 22.318125 
L 610.483594 22.318125 
" style="fill: none; stroke: #000000; stroke-width: 0.8; stroke-linejoin: miter; stroke-linecap: square"/>
   </g>
   <g id="text_16">
    <!-- Weighted versus denoised waveform -->
    <g transform="translate(220.510781 16.318125) scale(0.12 -0.12)">
     <defs>
      <path id="DejaVuSans-3a" d="M 213 4666 
L 850 4666 
L 1831 722 
L 2809 4666 
L 3519 4666 
L 4500 722 
L 5478 4666 
L 6119 4666 
L 4947 0 
L 4153 0 
L 3169 4050 
L 2175 0 
L 1381 0 
L 213 4666 
z
" transform="scale(0.015625)"/>
      <path id="DejaVuSans-4a" d="M 2906 1791 
Q 2906 2416 2648 2759 
Q 2391 3103 1925 3103 
Q 1463 3103 1205 2759 
Q 947 2416 947 1791 
Q 947 1169 1205 825 
Q 1463 481 1925 481 
Q 2391 481 2648 825 
Q 2906 1169 2906 1791 
z
M 3481 434 
Q 3481 -459 3084 -895 
Q 2688 -1331 1869 -1331 
Q 1566 -1331 1297 -1286 
Q 1028 -1241 775 -1147 
L 775 -588 
Q 1028 -725 1275 -790 
Q 1522 -856 1778 -856 
Q 2344 -856 2625 -561 
Q 2906 -266 2906 331 
L 2906 616 
Q 2728 306 2450 153 
Q 2172 0 1784 0 
Q 1141 0 747 490 
Q 353 981 353 1791 
Q 353 2603 747 3093 
Q 1141 3584 1784 3584 
Q 2172 3584 2450 3431 
Q 2728 3278 2906 2969 
L 2906 3500 
L 3481 3500 
L 3481 434 
z
" transform="scale(0.015625)"/>
      <path id="DejaVuSans-59" d="M 191 3500 
L 800 3500 
L 1894 563 
L 2988 3500 
L 3597 3500 
L 2284 0 
L 1503 0 
L 191 3500 
z
" transform="scale(0.015625)"/>
      <path id="DejaVuSans-55" d="M 2631 2963 
Q 2534 3019 2420 3045 
Q 2306 3072 2169 3072 
Q 1681 3072 1420 2755 
Q 1159 2438 1159 1844 
L 1159 0 
L 581 0 
L 581 3500 
L 1159 3500 
L 1159 2956 
Q 1341 3275 1631 3429 
Q 1922 3584 2338 3584 
Q 2397 3584 2469 3576 
Q 2541 3569 2628 3553 
L 2631 2963 
z
" transform="scale(0.015625)"/>
      <path id="DejaVuSans-52" d="M 1959 3097 
Q 1497 3097 1228 2736 
Q 959 2375 959 1747 
Q 959 1119 1226 758 
Q 1494 397 1959 397 
Q 2419 397 2687 759 
Q 2956 1122 2956 1747 
Q 2956 2369 2687 2733 
Q 2419 3097 1959 3097 
z
M 1959 3584 
Q 2709 3584 3137 3096 
Q 3566 2609 3566 1747 
Q 3566 888 3137 398 
Q 2709 -91 1959 -91 
Q 1206 -91 779 398 
Q 353 888 353 1747 
Q 353 2609 779 3096 
Q 1206 3584 1959 3584 
z
" transform="scale(0.015625)"/>
      <path id="DejaVuSans-5a" d="M 269 3500 
L 844 3500 
L 1563 769 
L 2278 3500 
L 2956 3500 
L 3675 769 
L 4391 3500 
L 4966 3500 
L 4050 0 
L 3372 0 
L 2619 2869 
L 1863 0 
L 1184 0 
L 269 3500 
z
" transform="scale(0.015625)"/>
      <path id="DejaVuSans-49" d="M 2375 4863 
L 2375 4384 
L 1825 4384 
Q 1516 4384 1395 4259 
Q 1275 4134 1275 3809 
L 1275 3500 
L 2222 3500 
L 2222 3053 
L 1275 3053 
L 1275 0 
L 697 0 
L 697 3053 
L 147 3053 
L 147 3500 
L 697 3500 
L 697 3744 
Q 697 4328 969 4595 
Q 1241 4863 1831 4863 
L 2375 4863 
z
" transform="scale(0.015625)"/>
     </defs>
     <use xlink:href="#DejaVuSans-3a"/>
     <use xlink:href="#DejaVuSans-48" transform="translate(93.015625 0)"/>
     <use xlink:href="#DejaVuSans-4c" transform="translate(154.546875 0)"/>
     <use xlink:href="#DejaVuSans-4a" transform="translate(182.328125 0)"/>
     <use xlink:href="#DejaVuSans-4b" transform="translate(245.8125 0)"/>
     <use xlink:href="#DejaVuSans-57" transform="translate(309.1875 0)"/>
     <use xlink:href="#DejaVuSans-48" transform="translate(348.390625 0)"/>
     <use xlink:href="#DejaVuSans-47" transform="translate(409.921875 0)"/>
     <use xlink:href="#DejaVuSans-3" transform="translate(473.40625 0)"/>
     <use xlink:href="#DejaVuSans-59" transform="translate(505.1875 0)"/>
     <use xlink:href="#DejaVuSans-48" transform="translate(564.375 0)"/>
     <use xlink:href="#DejaVuSans-55" transform="translate(625.90625 0)"/>
     <use xlink:href="#DejaVuSans-56" transform="translate(667.015625 0)"/>
     <use xlink:href="#DejaVuSans-58" transform="translate(719.109375 0)"/>
     <use xlink:href="#DejaVuSans-56" transform="translate(782.484375 0)"/>
     <use xlink:href="#DejaVuSans-3" transform="translate(834.578125 0)"/>
     <use xlink:href="#DejaVuSans-47" transform="translate(866.359375 0)"/>
     <use xlink:href="#DejaVuSans-48" transform="translate(929.84375 0)"/>
     <use xlink:href="#DejaVuSans-51" transform="translate(991.375 0)"/>
     <use xlink:href="#DejaVuSans-52" transform="translate(1054.75 0)"/>
     <use xlink:href="#DejaVuSans-4c" transform="translate(1115.9375 0)"/>
     <use xlink:href="#DejaVuSans-56" transform="translate(1143.71875 0)"/>
     <use xlink:href="#DejaVuSans-48" transform="translate(1195.8125 0)"/>
     <use xlink:href="#DejaVuSans-47" transform="translate(1257.34375 0)"/>
     <use xlink:href="#DejaVuSans-3" transform="translate(1320.828125 0)"/>
     <use xlink:href="#DejaVuSans-5a" transform="translate(1352.609375 0)"/>
     <use xlink:href="#DejaVuSans-44" transform="translate(1434.390625 0)"/>
     <use xlink:href="#DejaVuSans-59" transform="translate(1495.671875 0)"/>
     <use xlink:href="#DejaVuSans-48" transform="translate(1554.859375 0)"/>
     <use xlink:href="#DejaVuSans-49" transform="translate(1616.390625 0)"/>
     <use xlink:href="#DejaVuSans-52" transform="translate(1651.59375 0)"/>
     <use xlink:href="#DejaVuSans-55" transform="translate(1712.78125 0)"/>
     <use xlink:href="#DejaVuSans-50" transform="translate(1752.140625 0)"/>
    </g>
   </g>
   <g id="legend_1">
    <g id="patch_7">
     <path d="M 524.142969 60.319687 
L 603.483594 60.319687 
Q 605.483594 60.319687 605.483594 58.319687 
L 605.483594 29.318125 
Q 605.483594 27.318125 603.483594 27.318125 
L 524.142969 27.318125 
Q 522.142969 27.318125 522.142969 29.318125 
L 522.142969 58.319687 
Q 522.142969 60.319687 524.142969 60.319687 
z
" style="fill: #ffffff; opacity: 0.8; stroke: #cccccc; stroke-linejoin: miter"/>
    </g>
    <g id="line2d_29">
     <path d="M 526.142969 35.416562 
L 536.142969 35.416562 
L 546.142969 35.416562 
" style="fill: none; stroke: #1f77b4; stroke-width: 0.9; stroke-linecap: square"/>
    </g>
    <g id="text_17">
     <!-- Weighted -->
     <g transform="translate(554.142969 38.916562) scale(0.1 -0.1)">
      <use xlink:href="#DejaVuSans-3a"/>
      <use xlink:href="#DejaVuSans-48" transform="translate(93.015625 0)"/>
      <use xlink:href="#DejaVuSans-4c" transform="translate(154.546875 0)"/>
      <use xlink:href="#DejaVuSans-4a" transform="translate(182.328125 0)"/>
      <use xlink:href="#DejaVuSans-4b" transform="translate(245.8125 0)"/>
      <use xlink:href="#DejaVuSans-57" transform="translate(309.1875 0)"/>
      <use xlink:href="#DejaVuSans-48" transform="translate(348.390625 0)"/>
      <use xlink:href="#DejaVuSans-47" transform="translate(409.921875 0)"/>
     </g>
    </g>
    <g id="line2d_30">
     <path d="M 526.142969 50.417344 
L 536.142969 50.417344 
L 546.142969 50.417344 
" style="fill: none; stroke: #ff7f0e; stroke-width: 0.9; stroke-linecap: square"/>
    </g>
    <g id="text_18">
     <!-- Denoised -->
     <g transform="translate(554.142969 53.917344) scale(0.1 -0.1)">
      <defs>
       <path id="DejaVuSans-27" d="M 1259 4147 
L 1259 519 
L 2022 519 
Q 2988 519 3436 956 
Q 3884 1394 3884 2338 
Q 3884 3275 3436 3711 
Q 2988 4147 2022 4147 
L 1259 4147 
z
M 628 4666 
L 1925 4666 
Q 3281 4666 3915 4102 
Q 4550 3538 4550 2338 
Q 4550 1131 3912 565 
Q 3275 0 1925 0 
L 628 0 
L 628 4666 
z
" transform="scale(0.015625)"/>
      </defs>
      <use xlink:href="#DejaVuSans-27"/>
      <use xlink:href="#DejaVuSans-48" transform="translate(77 0)"/>
      <use xlink:href="#DejaVuSans-51" transform="translate(138.53125 0)"/>
      <use xlink:href="#DejaVuSans-52" transform="translate(201.90625 0)"/>
      <use xlink:href="#DejaVuSans-4c" transform="translate(263.09375 0)"/>
      <use xlink:href="#DejaVuSans-56" transform="translate(290.875 0)"/>
      <use xlink:href="#DejaVuSans-48" transform="translate(342.96875 0)"/>
      <use xlink:href="#DejaVuSans-47" transform="translate(404.5 0)"/>
     </g>
    </g>
   </g>
  </g>
 </g>
 <defs>
  <clipPath id="p20d45f1891">
   <rect x="52.483594" y="22.318125" width="558" height="199.584"/>
  </clipPath>
 </defs>
</svg>
