<?xml version="1.0" encoding="utf-8" standalone="no"?>
<!DOCTYPE svg PUBLIC "-//W3C//DTD SVG 1.1//EN"
  "http://www.w3.org/Graphics/SVG/1.1/DTD/svg11.dtd">
<svg xmlns:xlink="http://www.w3.org/1999/xlink" width="609.303125pt" height="260.102906pt" viewBox="0 0 609.303125 260.102906" xmlns="http://www.w3.org/2000/svg" version="1.1">
 <metadata>
  <rdf:RDF xmlns:dc="http://purl.org/dc/elements/1.1/" xmlns:cc="http://creativecommons.org/ns#" xmlns:rdf="http://www.w3.org/1999/02/22-rdf-syntax-ns#">
   <cc:Work>
    <dc:type rdf:resource="http://purl.org/dc/dcmitype/StillImage"/>
    <dc:date>2026-07-14T07:01:52.229022</dc:date>
    <dc:format>image/svg+xml</dc:format>
    <dc:creator>
     <cc:Agent>
      <dc:title>Matplotlib v3.11.0, https://matplotlib.org/</dc:title>
     </cc:Agent>
    </dc:creator>
   </cc:Work>
  </rdf:RDF>
 </metadata>
 <defs>
  <style type="text/css">*{stroke-linejoin: round; stroke-linecap: butt}</style>
 </defs>
 <g id="figure_1">
  <g id="patch_1">
   <path d="M -0 260.102906 
L 609.303125 260.102906 
L 609.303125 0 
L -0 0 
z
" style="fill: #ffffff"/>
  </g>
  <g id="axes_1">
   <g id="patch_2">
    <path d="M 44.103125 221.902125 
L 602.103125 221.902125 
L 602.103125 22.318125 
L 44.103125 22.318125 
z
" style="fill: #ffffff"/>
   </g>
   <g id="matplotlib.axis_1">
    <g id="xtick_1">
     <g id="line2d_1">
      <path d="M 76.415703 221.902125 
L 76.415703 22.318125 
" clip-path="url(#p97c5dd91e0)" style="fill: none; stroke: #b0b0b0; stroke-opacity: 0.25; stroke-width: 0.8; stroke-linecap: square"/>
     </g>
     <g id="line2d_2">
      <defs>
       <path id="mbf235e126f" d="M 0 0 
L 0 3.5 
" style="stroke: #000000; stroke-width: 0.8"/>
      </defs>
      <g>
       <use xlink:href="#mbf235e126f" x="76.415703" y="221.902125" style="stroke: #000000; stroke-width: 0.8"/>
      </g>
     </g>
     <g id="text_1">
      <!-- 0.1 -->
      <g transform="translate(68.46414 236.499781) scale(0.1 -0.1)">
       <defs>
        <path id="DejaVuSans-13" d="M 2034 4250 
Q 1547 4250 1301 3770 
Q 1056 3291 1056 2328 
Q 1056 1369 1301 889 
Q 1547 409 2034 409 
Q 2525 409 2770 889 
Q 3016 1369 3016 2328 
Q 3016 3291 2770 3770 
Q 2525 4250 2034 4250 
z
M 2034 4750 
Q 2819 4750 3233 4129 
Q 3647 3509 3647 2328 
Q 3647 1150 3233 529 
Q 2819 -91 2034 -91 
Q 1250 -91 836 529 
Q 422 1150 422 2328 
Q 422 3509 836 4129 
Q 1250 4750 2034 4750 
z
" transform="scale(0.015625)"/>
        <path id="DejaVuSans-11" d="M 684 794 
L 1344 794 
L 1344 0 
L 684 0 
L 684 794 
z
" transform="scale(0.015625)"/>
        <path id="DejaVuSans-14" d="M 794 531 
L 1825 531 
L 1825 4091 
L 703 3866 
L 703 4441 
L 1819 4666 
L 2450 4666 
L 2450 531 
L 3481 531 
L 3481 0 
L 794 0 
L 794 531 
z
" transform="scale(0.015625)"/>
       </defs>
       <use xlink:href="#DejaVuSans-13"/>
       <use xlink:href="#DejaVuSans-11" transform="translate(63.625 0)"/>
       <use xlink:href="#DejaVuSans-14" transform="translate(95.40625 0)"/>
      </g>
     </g>
    </g>
    <g id="xtick_2">
     <g id="line2d_3">
      <path d="M 175.686295 221.902125 
L 175.686295 22.318125 
" clip-path="url(#p97c5dd91e0)" style="fill: none; stroke: #b0b0b0; stroke-opacity: 0.25; stroke-width: 0.8; stroke-linecap: square"/>
     </g>
     <g id="line2d_4">
      <g>
       <use xlink:href="#mbf235e126f" x="175.686295" y="221.902125" style="stroke: #000000; stroke-width: 0.8"/>
      </g>
     </g>
     <g id="text_2">
      <!-- 0.2 -->
      <g transform="translate(167.734733 236.499781) scale(0.1 -0.1)">
       <defs>
        <path id="DejaVuSans-15" d="M 1228 531 
L 3431 531 
L 3431 0 
L 469 0 
L 469 531 
Q 828 903 1448 1529 
Q 2069 2156 2228 2338 
Q 2531 2678 2651 2914 
Q 2772 3150 2772 3378 
Q 2772 3750 2511 3984 
Q 2250 4219 1831 4219 
Q 1534 4219 1204 4116 
Q 875 4013 500 3803 
L 500 4441 
Q 881 4594 1212 4672 
Q 1544 4750 1819 4750 
Q 2544 4750 2975 4387 
Q 3406 4025 3406 3419 
Q 3406 3131 3298 2873 
Q 3191 2616 2906 2266 
Q 2828 2175 2409 1742 
Q 1991 1309 1228 531 
z
" transform="scale(0.015625)"/>
       </defs>
       <use xlink:href="#DejaVuSans-13"/>
       <use xlink:href="#DejaVuSans-11" transform="translate(63.625 0)"/>
       <use xlink:href="#DejaVuSans-15" transform="translate(95.40625 0)"/>
      </g>
     </g>
    </g>
    <g id="xtick_3">
     <g id="line2d_5">
      <path d="M 274.956888 221.902125 
L 274.956888 22.318125 
" clip-path="url(#p97c5dd91e0)" style="fill: none; stroke: #b0b0b0; stroke-opacity: 0.25; stroke-width: 0.8; stroke-linecap: square"/>
     </g>
     <g id="line2d_6">
      <g>
       <use xlink:href="#mbf235e126f" x="274.956888" y="221.902125" style="stroke: #000000; stroke-width: 0.8"/>
      </g>
     </g>
     <g id="text_3">
      <!-- 0.3 -->
      <g transform="translate(267.005325 236.499781) scale(0.1 -0.1)">
       <defs>
        <path id="DejaVuSans-16" d="M 2597 2516 
Q 3050 2419 3304 2112 
Q 3559 1806 3559 1356 
Q 3559 666 3084 287 
Q 2609 -91 1734 -91 
Q 1441 -91 1130 -33 
Q 819 25 488 141 
L 488 750 
Q 750 597 1062 519 
Q 1375 441 1716 441 
Q 2309 441 2620 675 
Q 2931 909 2931 1356 
Q 2931 1769 2642 2001 
Q 2353 2234 1838 2234 
L 1294 2234 
L 1294 2753 
L 1863 2753 
Q 2328 2753 2575 2939 
Q 2822 3125 2822 3475 
Q 2822 3834 2567 4026 
Q 2313 4219 1838 4219 
Q 1578 4219 1281 4162 
Q 984 4106 628 3988 
L 628 4550 
Q 988 4650 1302 4700 
Q 1616 4750 1894 4750 
Q 2613 4750 3031 4423 
Q 3450 4097 3450 3541 
Q 3450 3153 3228 2886 
Q 3006 2619 2597 2516 
z
" transform="scale(0.015625)"/>
       </defs>
       <use xlink:href="#DejaVuSans-13"/>
       <use xlink:href="#DejaVuSans-11" transform="translate(63.625 0)"/>
       <use xlink:href="#DejaVuSans-16" transform="translate(95.40625 0)"/>
      </g>
     </g>
    </g>
    <g id="xtick_4">
     <g id="line2d_7">
      <path d="M 374.22748 221.902125 
L 374.22748 22.318125 
" clip-path="url(#p97c5dd91e0)" style="fill: none; stroke: #b0b0b0; stroke-opacity: 0.25; stroke-width: 0.8; stroke-linecap: square"/>
     </g>
     <g id="line2d_8">
      <g>
       <use xlink:href="#mbf235e126f" x="374.22748" y="221.902125" style="stroke: #000000; stroke-width: 0.8"/>
      </g>
     </g>
     <g id="text_4">
      <!-- 0.4 -->
      <g transform="translate(366.275918 236.499781) scale(0.1 -0.1)">
       <defs>
        <path id="DejaVuSans-17" d="M 2419 4116 
L 825 1625 
L 2419 1625 
L 2419 4116 
z
M 2253 4666 
L 3047 4666 
L 3047 1625 
L 3713 1625 
L 3713 1100 
L 3047 1100 
L 3047 0 
L 2419 0 
L 2419 1100 
L 313 1100 
L 313 1709 
L 2253 4666 
z
" transform="scale(0.015625)"/>
       </defs>
       <use xlink:href="#DejaVuSans-13"/>
       <use xlink:href="#DejaVuSans-11" transform="translate(63.625 0)"/>
       <use xlink:href="#DejaVuSans-17" transform="translate(95.40625 0)"/>
      </g>
     </g>
    </g>
    <g id="xtick_5">
     <g id="line2d_9">
      <path d="M 473.498073 221.902125 
L 473.498073 22.318125 
" clip-path="url(#p97c5dd91e0)" style="fill: none; stroke: #b0b0b0; stroke-opacity: 0.25; stroke-width: 0.8; stroke-linecap: square"/>
     </g>
     <g id="line2d_10">
      <g>
       <use xlink:href="#mbf235e126f" x="473.498073" y="221.902125" style="stroke: #000000; stroke-width: 0.8"/>
      </g>
     </g>
     <g id="text_5">
      <!-- 0.5 -->
      <g transform="translate(465.54651 236.499781) scale(0.1 -0.1)">
       <defs>
        <path id="DejaVuSans-18" d="M 691 4666 
L 3169 4666 
L 3169 4134 
L 1269 4134 
L 1269 2991 
Q 1406 3038 1543 3061 
Q 1681 3084 1819 3084 
Q 2600 3084 3056 2656 
Q 3513 2228 3513 1497 
Q 3513 744 3044 326 
Q 2575 -91 1722 -91 
Q 1428 -91 1123 -41 
Q 819 9 494 109 
L 494 744 
Q 775 591 1075 516 
Q 1375 441 1709 441 
Q 2250 441 2565 725 
Q 2881 1009 2881 1497 
Q 2881 1984 2565 2268 
Q 2250 2553 1709 2553 
Q 1456 2553 1204 2497 
Q 953 2441 691 2322 
L 691 4666 
z
" transform="scale(0.015625)"/>
       </defs>
       <use xlink:href="#DejaVuSans-13"/>
       <use xlink:href="#DejaVuSans-11" transform="translate(63.625 0)"/>
       <use xlink:href="#DejaVuSans-18" transform="translate(95.40625 0)"/>
      </g>
     </g>
    </g>
    <g id="xtick_6">
     <g id="line2d_11">
      <path d="M 572.768665 221.902125 
L 572.768665 22.318125 
" clip-path="url(#p97c5dd91e0)" style="fill: none; stroke: #b0b0b0; stroke-opacity: 0.25; stroke-width: 0.8; stroke-linecap: square"/>
     </g>
     <g id="line2d_12">
      <g>
       <use xlink:href="#mbf235e126f" x="572.768665" y="221.902125" style="stroke: #000000; stroke-width: 0.8"/>
      </g>
     </g>
     <g id="text_6">
      <!-- 0.6 -->
      <g transform="translate(564.817102 236.499781) scale(0.1 -0.1)">
       <defs>
        <path id="DejaVuSans-19" d="M 2113 2584 
Q 1688 2584 1439 2293 
Q 1191 2003 1191 1497 
Q 1191 994 1439 701 
Q 1688 409 2113 409 
Q 2538 409 2786 701 
Q 3034 994 3034 1497 
Q 3034 2003 2786 2293 
Q 2538 2584 2113 2584 
z
M 3366 4563 
L 3366 3988 
Q 3128 4100 2886 4159 
Q 2644 4219 2406 4219 
Q 1781 4219 1451 3797 
Q 1122 3375 1075 2522 
Q 1259 2794 1537 2939 
Q 1816 3084 2150 3084 
Q 2853 3084 3261 2657 
Q 3669 2231 3669 1497 
Q 3669 778 3244 343 
Q 2819 -91 2113 -91 
Q 1303 -91 875 529 
Q 447 1150 447 2328 
Q 447 3434 972 4092 
Q 1497 4750 2381 4750 
Q 2619 4750 2861 4703 
Q 3103 4656 3366 4563 
z
" transform="scale(0.015625)"/>
       </defs>
       <use xlink:href="#DejaVuSans-13"/>
       <use xlink:href="#DejaVuSans-11" transform="translate(63.625 0)"/>
       <use xlink:href="#DejaVuSans-19" transform="translate(95.40625 0)"/>
      </g>
     </g>
    </g>
    <g id="text_7">
     <!-- Time (s) -->
     <g transform="translate(302.771875 250.500563) scale(0.1 -0.1)">
      <defs>
       <path id="DejaVuSans-37" d="M -19 4666 
L 3928 4666 
L 3928 4134 
L 2272 4134 
L 2272 0 
L 1638 0 
L 1638 4134 
L -19 4134 
L -19 4666 
z
" transform="scale(0.015625)"/>
       <path id="DejaVuSans-4c" d="M 603 3500 
L 1178 3500 
L 1178 0 
L 603 0 
L 603 3500 
z
M 603 4863 
L 1178 4863 
L 1178 4134 
L 603 4134 
L 603 4863 
z
" transform="scale(0.015625)"/>
       <path id="DejaVuSans-50" d="M 3328 2828 
Q 3544 3216 3844 3400 
Q 4144 3584 4550 3584 
Q 5097 3584 5394 3201 
Q 5691 2819 5691 2113 
L 5691 0 
L 5113 0 
L 5113 2094 
Q 5113 2597 4934 2840 
Q 4756 3084 4391 3084 
Q 3944 3084 3684 2787 
Q 3425 2491 3425 1978 
L 3425 0 
L 2847 0 
L 2847 2094 
Q 2847 2600 2669 2842 
Q 2491 3084 2119 3084 
Q 1678 3084 1418 2786 
Q 1159 2488 1159 1978 
L 1159 0 
L 581 0 
L 581 3500 
L 1159 3500 
L 1159 2956 
Q 1356 3278 1631 3431 
Q 1906 3584 2284 3584 
Q 2666 3584 2933 3390 
Q 3200 3197 3328 2828 
z
" transform="scale(0.015625)"/>
       <path id="DejaVuSans-48" d="M 3597 1894 
L 3597 1613 
L 953 1613 
Q 991 1019 1311 708 
Q 1631 397 2203 397 
Q 2534 397 2845 478 
Q 3156 559 3463 722 
L 3463 178 
Q 3153 47 2828 -22 
Q 2503 -91 2169 -91 
Q 1331 -91 842 396 
Q 353 884 353 1716 
Q 353 2575 817 3079 
Q 1281 3584 2069 3584 
Q 2775 3584 3186 3129 
Q 3597 2675 3597 1894 
z
M 3022 2063 
Q 3016 2534 2758 2815 
Q 2500 3097 2075 3097 
Q 1594 3097 1305 2825 
Q 1016 2553 972 2059 
L 3022 2063 
z
" transform="scale(0.015625)"/>
       <path id="DejaVuSans-3" transform="scale(0.015625)"/>
       <path id="DejaVuSans-b" d="M 1984 4856 
Q 1566 4138 1362 3434 
Q 1159 2731 1159 2009 
Q 1159 1288 1364 580 
Q 1569 -128 1984 -844 
L 1484 -844 
Q 1016 -109 783 600 
Q 550 1309 550 2009 
Q 550 2706 781 3412 
Q 1013 4119 1484 4856 
L 1984 4856 
z
" transform="scale(0.015625)"/>
       <path id="DejaVuSans-56" d="M 2834 3397 
L 2834 2853 
Q 2591 2978 2328 3040 
Q 2066 3103 1784 3103 
Q 1356 3103 1142 2972 
Q 928 2841 928 2578 
Q 928 2378 1081 2264 
Q 1234 2150 1697 2047 
L 1894 2003 
Q 2506 1872 2764 1633 
Q 3022 1394 3022 966 
Q 3022 478 2636 193 
Q 2250 -91 1575 -91 
Q 1294 -91 989 -36 
Q 684 19 347 128 
L 347 722 
Q 666 556 975 473 
Q 1284 391 1588 391 
Q 1994 391 2212 530 
Q 2431 669 2431 922 
Q 2431 1156 2273 1281 
Q 2116 1406 1581 1522 
L 1381 1569 
Q 847 1681 609 1914 
Q 372 2147 372 2553 
Q 372 3047 722 3315 
Q 1072 3584 1716 3584 
Q 2034 3584 2315 3537 
Q 2597 3491 2834 3397 
z
" transform="scale(0.015625)"/>
       <path id="DejaVuSans-c" d="M 513 4856 
L 1013 4856 
Q 1481 4119 1714 3412 
Q 1947 2706 1947 2009 
Q 1947 1309 1714 600 
Q 1481 -109 1013 -844 
L 513 -844 
Q 928 -128 1133 580 
Q 1338 1288 1338 2009 
Q 1338 2731 1133 3434 
Q 928 4138 513 4856 
z
" transform="scale(0.015625)"/>
      </defs>
      <use xlink:href="#DejaVuSans-37"/>
      <use xlink:href="#DejaVuSans-4c" transform="translate(58 0)"/>
      <use xlink:href="#DejaVuSans-50" transform="translate(85.78125 0)"/>
      <use xlink:href="#DejaVuSans-48" transform="translate(183.1875 0)"/>
      <use xlink:href="#DejaVuSans-3" transform="translate(244.71875 0)"/>
      <use xlink:href="#DejaVuSans-b" transform="translate(276.5 0)"/>
      <use xlink:href="#DejaVuSans-56" transform="translate(315.515625 0)"/>
      <use xlink:href="#DejaVuSans-c" transform="translate(367.609375 0)"/>
     </g>
    </g>
   </g>
   <g id="matplotlib.axis_2">
    <g id="ytick_1">
     <g id="line2d_13">
      <path d="M 44.103125 212.832076 
L 602.103125 212.832076 
" clip-path="url(#p97c5dd91e0)" style="fill: none; stroke: #b0b0b0; stroke-opacity: 0.25; stroke-width: 0.8; stroke-linecap: square"/>
     </g>
     <g id="line2d_14">
      <defs>
       <path id="mf62049def9" d="M 0 0 
L -3.5 0 
" style="stroke: #000000; stroke-width: 0.8"/>
      </defs>
      <g>
       <use xlink:href="#mf62049def9" x="44.103125" y="212.832076" style="stroke: #000000; stroke-width: 0.8"/>
      </g>
     </g>
     <g id="text_8">
      <!-- 0.0 -->
      <g transform="translate(21.2 216.630904) scale(0.1 -0.1)">
       <use xlink:href="#DejaVuSans-13"/>
       <use xlink:href="#DejaVuSans-11" transform="translate(63.625 0)"/>
       <use xlink:href="#DejaVuSans-13" transform="translate(95.40625 0)"/>
      </g>
     </g>
    </g>
    <g id="ytick_2">
     <g id="line2d_15">
      <path d="M 44.103125 184.110469 
L 602.103125 184.110469 
" clip-path="url(#p97c5dd91e0)" style="fill: none; stroke: #b0b0b0; stroke-opacity: 0.25; stroke-width: 0.8; stroke-linecap: square"/>
     </g>
     <g id="line2d_16">
      <g>
       <use xlink:href="#mf62049def9" x="44.103125" y="184.110469" style="stroke: #000000; stroke-width: 0.8"/>
      </g>
     </g>
     <g id="text_9">
      <!-- 0.1 -->
      <g transform="translate(21.2 187.909298) scale(0.1 -0.1)">
       <use xlink:href="#DejaVuSans-13"/>
       <use xlink:href="#DejaVuSans-11" transform="translate(63.625 0)"/>
       <use xlink:href="#DejaVuSans-14" transform="translate(95.40625 0)"/>
      </g>
     </g>
    </g>
    <g id="ytick_3">
     <g id="line2d_17">
      <path d="M 44.103125 155.388863 
L 602.103125 155.388863 
" clip-path="url(#p97c5dd91e0)" style="fill: none; stroke: #b0b0b0; stroke-opacity: 0.25; stroke-width: 0.8; stroke-linecap: square"/>
     </g>
     <g id="line2d_18">
      <g>
       <use xlink:href="#mf62049def9" x="44.103125" y="155.388863" style="stroke: #000000; stroke-width: 0.8"/>
      </g>
     </g>
     <g id="text_10">
      <!-- 0.2 -->
      <g transform="translate(21.2 159.187691) scale(0.1 -0.1)">
       <use xlink:href="#DejaVuSans-13"/>
       <use xlink:href="#DejaVuSans-11" transform="translate(63.625 0)"/>
       <use xlink:href="#DejaVuSans-15" transform="translate(95.40625 0)"/>
      </g>
     </g>
    </g>
    <g id="ytick_4">
     <g id="line2d_19">
      <path d="M 44.103125 126.667256 
L 602.103125 126.667256 
" clip-path="url(#p97c5dd91e0)" style="fill: none; stroke: #b0b0b0; stroke-opacity: 0.25; stroke-width: 0.8; stroke-linecap: square"/>
     </g>
     <g id="line2d_20">
      <g>
       <use xlink:href="#mf62049def9" x="44.103125" y="126.667256" style="stroke: #000000; stroke-width: 0.8"/>
      </g>
     </g>
     <g id="text_11">
      <!-- 0.3 -->
      <g transform="translate(21.2 130.466084) scale(0.1 -0.1)">
       <use xlink:href="#DejaVuSans-13"/>
       <use xlink:href="#DejaVuSans-11" transform="translate(63.625 0)"/>
       <use xlink:href="#DejaVuSans-16" transform="translate(95.40625 0)"/>
      </g>
     </g>
    </g>
    <g id="ytick_5">
     <g id="line2d_21">
      <path d="M 44.103125 97.945649 
L 602.103125 97.945649 
" clip-path="url(#p97c5dd91e0)" style="fill: none; stroke: #b0b0b0; stroke-opacity: 0.25; stroke-width: 0.8; stroke-linecap: square"/>
     </g>
     <g id="line2d_22">
      <g>
       <use xlink:href="#mf62049def9" x="44.103125" y="97.945649" style="stroke: #000000; stroke-width: 0.8"/>
      </g>
     </g>
     <g id="text_12">
      <!-- 0.4 -->
      <g transform="translate(21.2 101.744478) scale(0.1 -0.1)">
       <use xlink:href="#DejaVuSans-13"/>
       <use xlink:href="#DejaVuSans-11" transform="translate(63.625 0)"/>
       <use xlink:href="#DejaVuSans-17" transform="translate(95.40625 0)"/>
      </g>
     </g>
    </g>
    <g id="ytick_6">
     <g id="line2d_23">
      <path d="M 44.103125 69.224043 
L 602.103125 69.224043 
" clip-path="url(#p97c5dd91e0)" style="fill: none; stroke: #b0b0b0; stroke-opacity: 0.25; stroke-width: 0.8; stroke-linecap: square"/>
     </g>
     <g id="line2d_24">
      <g>
       <use xlink:href="#mf62049def9" x="44.103125" y="69.224043" style="stroke: #000000; stroke-width: 0.8"/>
      </g>
     </g>
     <g id="text_13">
      <!-- 0.5 -->
      <g transform="translate(21.2 73.022871) scale(0.1 -0.1)">
       <use xlink:href="#DejaVuSans-13"/>
       <use xlink:href="#DejaVuSans-11" transform="translate(63.625 0)"/>
       <use xlink:href="#DejaVuSans-18" transform="translate(95.40625 0)"/>
      </g>
     </g>
    </g>
    <g id="ytick_7">
     <g id="line2d_25">
      <path d="M 44.103125 40.502436 
L 602.103125 40.502436 
" clip-path="url(#p97c5dd91e0)" style="fill: none; stroke: #b0b0b0; stroke-opacity: 0.25; stroke-width: 0.8; stroke-linecap: square"/>
     </g>
     <g id="line2d_26">
      <g>
       <use xlink:href="#mf62049def9" x="44.103125" y="40.502436" style="stroke: #000000; stroke-width: 0.8"/>
      </g>
     </g>
     <g id="text_14">
      <!-- 0.6 -->
      <g transform="translate(21.2 44.301264) scale(0.1 -0.1)">
       <use xlink:href="#DejaVuSans-13"/>
       <use xlink:href="#DejaVuSans-11" transform="translate(63.625 0)"/>
       <use xlink:href="#DejaVuSans-19" transform="translate(95.40625 0)"/>
      </g>
     </g>
    </g>
    <g id="text_15">
     <!-- Instantaneous energy -->
     <g transform="translate(14.797656 176.666375) rotate(-90) scale(0.1 -0.1)">
      <defs>
       <path id="DejaVuSans-2c" d="M 628 4666 
L 1259 4666 
L 1259 0 
L 628 0 
L 628 4666 
z
" transform="scale(0.015625)"/>
       <path id="DejaVuSans-51" d="M 3513 2113 
L 3513 0 
L 2938 0 
L 2938 2094 
Q 2938 2591 2744 2837 
Q 2550 3084 2163 3084 
Q 1697 3084 1428 2787 
Q 1159 2491 1159 1978 
L 1159 0 
L 581 0 
L 581 3500 
L 1159 3500 
L 1159 2956 
Q 1366 3272 1645 3428 
Q 1925 3584 2291 3584 
Q 2894 3584 3203 3211 
Q 3513 2838 3513 2113 
z
" transform="scale(0.015625)"/>
       <path id="DejaVuSans-57" d="M 1172 4494 
L 1172 3500 
L 2356 3500 
L 2356 3053 
L 1172 3053 
L 1172 1153 
Q 1172 725 1289 603 
Q 1406 481 1766 481 
L 2356 481 
L 2356 0 
L 1766 0 
Q 1100 0 847 248 
Q 594 497 594 1153 
L 594 3053 
L 172 3053 
L 172 3500 
L 594 3500 
L 594 4494 
L 1172 4494 
z
" transform="scale(0.015625)"/>
       <path id="DejaVuSans-44" d="M 2194 1759 
Q 1497 1759 1228 1600 
Q 959 1441 959 1056 
Q 959 750 1161 570 
Q 1363 391 1709 391 
Q 2188 391 2477 730 
Q 2766 1069 2766 1631 
L 2766 1759 
L 2194 1759 
z
M 3341 1997 
L 3341 0 
L 2766 0 
L 2766 531 
Q 2569 213 2275 61 
Q 1981 -91 1556 -91 
Q 1019 -91 701 211 
Q 384 513 384 1019 
Q 384 1609 779 1909 
Q 1175 2209 1959 2209 
L 2766 2209 
L 2766 2266 
Q 2766 2663 2505 2880 
Q 2244 3097 1772 3097 
Q 1472 3097 1187 3025 
Q 903 2953 641 2809 
L 641 3341 
Q 956 3463 1253 3523 
Q 1550 3584 1831 3584 
Q 2591 3584 2966 3190 
Q 3341 2797 3341 1997 
z
" transform="scale(0.015625)"/>
       <path id="DejaVuSans-52" d="M 1959 3097 
Q 1497 3097 1228 2736 
Q 959 2375 959 1747 
Q 959 1119 1226 758 
Q 1494 397 1959 397 
Q 2419 397 2687 759 
Q 2956 1122 2956 1747 
Q 2956 2369 2687 2733 
Q 2419 3097 1959 3097 
z
M 1959 3584 
Q 2709 3584 3137 3096 
Q 3566 2609 3566 1747 
Q 3566 888 3137 398 
Q 2709 -91 1959 -91 
Q 1206 -91 779 398 
Q 353 888 353 1747 
Q 353 2609 779 3096 
Q 1206 3584 1959 3584 
z
" transform="scale(0.015625)"/>
       <path id="DejaVuSans-58" d="M 544 1381 
L 544 3500 
L 1119 3500 
L 1119 1403 
Q 1119 906 1312 657 
Q 1506 409 1894 409 
Q 2359 409 2629 706 
Q 2900 1003 2900 1516 
L 2900 3500 
L 3475 3500 
L 3475 0 
L 2900 0 
L 2900 538 
Q 2691 219 2414 64 
Q 2138 -91 1772 -91 
Q 1169 -91 856 284 
Q 544 659 544 1381 
z
M 1991 3584 
L 1991 3584 
z
" transform="scale(0.015625)"/>
       <path id="DejaVuSans-55" d="M 2631 2963 
Q 2534 3019 2420 3045 
Q 2306 3072 2169 3072 
Q 1681 3072 1420 2755 
Q 1159 2438 1159 1844 
L 1159 0 
L 581 0 
L 581 3500 
L 1159 3500 
L 1159 2956 
Q 1341 3275 1631 3429 
Q 1922 3584 2338 3584 
Q 2397 3584 2469 3576 
Q 2541 3569 2628 3553 
L 2631 2963 
z
" transform="scale(0.015625)"/>
       <path id="DejaVuSans-4a" d="M 2906 1791 
Q 2906 2416 2648 2759 
Q 2391 3103 1925 3103 
Q 1463 3103 1205 2759 
Q 947 2416 947 1791 
Q 947 1169 1205 825 
Q 1463 481 1925 481 
Q 2391 481 2648 825 
Q 2906 1169 2906 1791 
z
M 3481 434 
Q 3481 -459 3084 -895 
Q 2688 -1331 1869 -1331 
Q 1566 -1331 1297 -1286 
Q 1028 -1241 775 -1147 
L 775 -588 
Q 1028 -725 1275 -790 
Q 1522 -856 1778 -856 
Q 2344 -856 2625 -561 
Q 2906 -266 2906 331 
L 2906 616 
Q 2728 306 2450 153 
Q 2172 0 1784 0 
Q 1141 0 747 490 
Q 353 981 353 1791 
Q 353 2603 747 3093 
Q 1141 3584 1784 3584 
Q 2172 3584 2450 3431 
Q 2728 3278 2906 2969 
L 2906 3500 
L 3481 3500 
L 3481 434 
z
" transform="scale(0.015625)"/>
       <path id="DejaVuSans-5c" d="M 2059 -325 
Q 1816 -950 1584 -1140 
Q 1353 -1331 966 -1331 
L 506 -1331 
L 506 -850 
L 844 -850 
Q 1081 -850 1212 -737 
Q 1344 -625 1503 -206 
L 1606 56 
L 191 3500 
L 800 3500 
L 1894 763 
L 2988 3500 
L 3597 3500 
L 2059 -325 
z
" transform="scale(0.015625)"/>
      </defs>
      <use xlink:href="#DejaVuSans-2c"/>
      <use xlink:href="#DejaVuSans-51" transform="translate(29.5 0)"/>
      <use xlink:href="#DejaVuSans-56" transform="translate(92.875 0)"/>
      <use xlink:href="#DejaVuSans-57" transform="translate(144.96875 0)"/>
      <use xlink:href="#DejaVuSans-44" transform="translate(184.171875 0)"/>
      <use xlink:href="#DejaVuSans-51" transform="translate(245.453125 0)"/>
      <use xlink:href="#DejaVuSans-57" transform="translate(308.828125 0)"/>
      <use xlink:href="#DejaVuSans-44" transform="translate(348.03125 0)"/>
      <use xlink:href="#DejaVuSans-51" transform="translate(409.3125 0)"/>
      <use xlink:href="#DejaVuSans-48" transform="translate(472.6875 0)"/>
      <use xlink:href="#DejaVuSans-52" transform="translate(534.21875 0)"/>
      <use xlink:href="#DejaVuSans-58" transform="translate(595.40625 0)"/>
      <use xlink:href="#DejaVuSans-56" transform="translate(658.78125 0)"/>
      <use xlink:href="#DejaVuSans-3" transform="translate(710.875 0)"/>
      <use xlink:href="#DejaVuSans-48" transform="translate(742.65625 0)"/>
      <use xlink:href="#DejaVuSans-51" transform="translate(804.1875 0)"/>
      <use xlink:href="#DejaVuSans-48" transform="translate(867.5625 0)"/>
      <use xlink:href="#DejaVuSans-55" transform="translate(929.09375 0)"/>
      <use xlink:href="#DejaVuSans-4a" transform="translate(968.453125 0)"/>
      <use xlink:href="#DejaVuSans-5c" transform="translate(1031.9375 0)"/>
     </g>
    </g>
   </g>
   <g id="line2d_27">
    <path d="M 69.466761 176.240966 
L 70.459467 158.222746 
L 71.452173 176.753397 
L 72.444879 192.155458 
L 73.437585 171.371919 
L 74.430291 169.250507 
L 75.422997 189.814744 
L 76.415703 182.877716 
L 77.408409 152.373504 
L 78.401115 147.081117 
L 79.393821 165.310974 
L 80.386527 147.754685 
L 81.379232 88.068681 
L 82.371938 69.189627 
L 83.364644 118.127535 
L 84.35735 160.322985 
L 85.350056 151.943476 
L 86.342762 147.16954 
L 87.335468 168.885283 
L 88.328174 154.352401 
L 89.32088 115.052761 
L 91.306292 137.772633 
L 92.298998 93.511447 
L 93.291704 114.077231 
L 94.284409 170.763155 
L 95.277115 155.046508 
L 96.269821 133.56964 
L 97.262527 158.677867 
L 98.255233 161.086035 
L 99.247939 105.133351 
L 100.240645 124.754615 
L 101.233351 166.01595 
L 102.226057 128.081024 
L 103.218763 108.057653 
L 104.211469 152.311343 
L 105.204175 173.80116 
L 106.196881 102.989208 
L 107.189586 104.686919 
L 108.182292 161.385483 
L 109.174998 142.381627 
L 110.167704 139.529538 
L 111.16041 168.092948 
L 112.153116 178.489975 
L 113.145822 152.675729 
L 114.138528 147.958193 
L 115.131234 163.05447 
L 117.116646 110.301029 
L 118.109352 126.151672 
L 119.102058 154.241074 
L 120.094763 67.629642 
L 121.087469 31.390125 
L 122.080175 142.838564 
L 123.072881 161.171245 
L 124.065587 104.085178 
L 125.058293 87.304588 
L 126.050999 147.866388 
L 127.043705 134.38524 
L 128.036411 69.2259 
L 129.029117 119.591858 
L 130.021823 151.36413 
L 131.014529 100.727691 
L 132.007235 106.822193 
L 132.999941 156.648951 
L 133.992646 103.280704 
L 134.985352 75.666408 
L 135.978058 145.69812 
L 136.970764 181.541721 
L 137.96347 158.401133 
L 138.956176 154.150659 
L 139.948882 171.278734 
L 140.941588 141.732802 
L 141.934294 103.97971 
L 143.919706 141.949508 
L 144.912412 115.918197 
L 145.905118 122.361153 
L 146.897823 164.883749 
L 147.890529 184.175195 
L 148.883235 170.049686 
L 149.875941 143.391757 
L 150.868647 149.039046 
L 151.861353 164.395564 
L 152.854059 174.793185 
L 153.846765 183.101945 
L 154.839471 161.123501 
L 155.832177 95.788072 
L 156.824883 83.371688 
L 157.817589 144.89985 
L 158.810295 131.779343 
L 159.803 133.264511 
L 160.795706 175.78284 
L 161.788412 192.73504 
L 162.781118 175.94814 
L 163.773824 132.976595 
L 164.76653 134.420983 
L 165.759236 121.332586 
L 166.751942 117.296557 
L 167.744648 152.02169 
L 168.737354 152.479034 
L 169.73006 79.154671 
L 170.722766 73.958783 
L 171.715472 148.215178 
L 172.708177 139.368801 
L 173.700883 110.202647 
L 174.693589 140.372799 
L 175.686295 185.493446 
L 176.679001 167.791211 
L 177.671707 142.423466 
L 178.664413 163.778528 
L 179.657119 179.171814 
L 180.649825 157.212627 
L 181.642531 157.181069 
L 182.635237 181.478753 
L 183.627943 166.04214 
L 184.620649 145.514891 
L 185.613354 152.206241 
L 186.60606 163.60624 
L 187.598766 140.267067 
L 188.591472 124.343417 
L 189.584178 144.121485 
L 190.576884 130.138488 
L 191.56959 97.426524 
L 192.562296 117.259131 
L 193.555002 148.791593 
L 194.547708 109.473152 
L 195.540414 96.710714 
L 196.53312 153.67415 
L 197.525826 180.100678 
L 198.518532 151.050428 
L 199.511237 150.777758 
L 200.503943 163.517497 
L 201.496649 127.703317 
L 202.489355 132.490345 
L 203.482061 172.742277 
L 204.474767 187.52104 
L 205.467473 173.690399 
L 206.460179 183.499042 
L 207.452885 191.471 
L 208.445591 172.178619 
L 209.438297 175.320044 
L 210.431003 190.486678 
L 212.416414 174.339537 
L 213.40912 181.387616 
L 214.401826 171.697874 
L 215.394532 147.749939 
L 216.387238 140.103701 
L 217.379944 161.686922 
L 218.37265 190.555896 
L 219.365356 199.407334 
L 220.358062 193.176531 
L 221.350768 179.533566 
L 222.343474 180.923731 
L 223.33618 170.670901 
L 224.328886 152.7972 
L 225.321591 168.856087 
L 226.314297 170.098807 
L 227.307003 156.964516 
L 228.299709 169.633356 
L 229.292415 191.186479 
L 230.285121 163.929248 
L 231.277827 142.922308 
L 232.270533 166.358042 
L 233.263239 176.950131 
L 234.255945 154.195771 
L 235.248651 150.213575 
L 236.241357 159.162009 
L 237.234063 139.515238 
L 238.226768 135.994661 
L 239.219474 164.886258 
L 240.21218 179.292492 
L 241.204886 166.602243 
L 242.197592 172.730682 
L 243.190298 192.76843 
L 244.183004 195.964512 
L 245.17571 190.952377 
L 246.168416 194.418905 
L 247.161122 187.895767 
L 248.153828 164.245686 
L 249.146534 173.391016 
L 250.13924 177.426504 
L 251.131945 133.371473 
L 252.124651 107.133925 
L 253.117357 150.57647 
L 254.110063 178.39795 
L 255.102769 143.838849 
L 256.095475 141.859878 
L 257.088181 173.62779 
L 258.080887 154.57952 
L 259.073593 146.997989 
L 260.066299 185.605606 
L 261.059005 198.730599 
L 262.051711 178.433728 
L 263.044417 151.70859 
L 264.037123 147.019441 
L 266.022534 126.946199 
L 267.01524 143.783549 
L 268.007946 163.747531 
L 269.993358 181.391987 
L 270.986064 192.665376 
L 271.97877 170.065054 
L 272.971476 155.523029 
L 273.964182 188.908217 
L 274.956888 200.010794 
L 276.9423 138.789947 
L 277.935005 166.435187 
L 278.927711 166.719806 
L 279.920417 103.124094 
L 280.913123 108.136723 
L 281.905829 156.273198 
L 282.898535 133.057467 
L 283.891241 119.426801 
L 284.883947 172.001973 
L 285.876653 176.190816 
L 286.869359 161.92105 
L 287.862065 182.29219 
L 288.854771 198.396687 
L 289.847477 176.988432 
L 290.840182 148.507627 
L 291.832888 167.258741 
L 292.825594 190.088456 
L 293.8183 168.770434 
L 294.811006 154.572681 
L 295.803712 173.957753 
L 296.796418 143.957456 
L 297.789124 80.252594 
L 298.78183 95.370583 
L 299.774536 161.388747 
L 300.767242 154.646036 
L 301.759948 90.329257 
L 302.752654 111.458276 
L 303.745359 153.342973 
L 304.738065 105.537382 
L 305.730771 85.995092 
L 306.723477 140.050225 
L 307.716183 154.308628 
L 308.708889 141.434885 
L 309.701595 167.342005 
L 310.694301 162.564508 
L 311.687007 118.319572 
L 312.679713 118.704745 
L 313.672419 146.099532 
L 314.665125 128.022351 
L 315.657831 87.862086 
L 316.650536 118.323584 
L 317.643242 179.760868 
L 318.635948 177.752436 
L 319.628654 166.579237 
L 320.62136 182.16961 
L 321.614066 186.294523 
L 322.606772 137.874689 
L 323.599478 78.021287 
L 324.592184 107.913968 
L 325.58489 123.638211 
L 326.577596 103.375283 
L 328.563008 174.963295 
L 329.555714 156.812168 
L 330.548419 162.939623 
L 331.541125 195.195539 
L 332.533831 196.482122 
L 333.526537 185.977479 
L 334.519243 181.383799 
L 335.511949 163.717083 
L 336.504655 135.502324 
L 337.497361 149.510532 
L 338.490067 147.184972 
L 339.482773 138.878862 
L 340.475479 165.878732 
L 341.468185 180.799287 
L 342.460891 148.739495 
L 343.453596 109.017294 
L 344.446302 110.210077 
L 345.439008 133.371754 
L 346.431714 151.670993 
L 347.42442 154.093016 
L 348.417126 148.947828 
L 349.409832 160.537785 
L 350.402538 163.801836 
L 351.395244 154.973136 
L 352.38795 159.659374 
L 353.380656 136.623677 
L 354.373362 63.166789 
L 355.366068 75.453388 
L 356.358773 158.532351 
L 358.344185 124.757702 
L 359.336891 164.840794 
L 360.329597 189.813542 
L 361.322303 167.964282 
L 363.307715 187.33082 
L 364.300421 156.815515 
L 365.293127 159.812697 
L 366.285833 187.283605 
L 367.278539 176.905763 
L 368.271245 103.952052 
L 369.26395 111.602044 
L 370.256656 149.882413 
L 371.249362 127.263484 
L 372.242068 139.341671 
L 373.234774 176.003571 
L 374.22748 184.295548 
L 375.220186 169.594087 
L 376.212892 164.242368 
L 377.205598 174.199322 
L 378.198304 158.358663 
L 379.19101 114.584759 
L 380.183716 116.971401 
L 381.176422 169.207804 
L 382.169127 166.544422 
L 383.161833 140.000832 
L 385.147245 183.673105 
L 386.139951 140.524685 
L 387.132657 63.200257 
L 388.125363 81.235267 
L 389.118069 121.302828 
L 390.110775 110.296845 
L 391.103481 130.547005 
L 392.096187 165.636039 
L 393.088893 179.238929 
L 394.081599 177.719156 
L 395.074305 171.145509 
L 396.06701 142.144678 
L 397.059716 91.6349 
L 398.052422 93.515334 
L 399.045128 138.512544 
L 400.037834 155.655746 
L 401.03054 165.531338 
L 402.023246 183.902078 
L 403.015952 194.095354 
L 404.008658 171.149066 
L 405.001364 152.999789 
L 405.99407 165.955309 
L 406.986776 112.204149 
L 407.979482 88.576622 
L 408.972187 164.392067 
L 409.964893 192.693167 
L 410.957599 159.38188 
L 411.950305 142.400678 
L 412.943011 162.639764 
L 413.935717 121.092264 
L 414.928423 74.356046 
L 415.921129 107.401146 
L 416.913835 97.526061 
L 417.906541 97.940464 
L 418.899247 155.461619 
L 419.891953 185.963071 
L 420.884659 176.64182 
L 421.877364 179.546389 
L 422.87007 183.522922 
L 423.862776 133.927942 
L 424.855482 101.277982 
L 425.848188 131.844286 
L 426.840894 171.443097 
L 427.8336 181.738852 
L 428.826306 171.738434 
L 429.819012 168.557299 
L 430.811718 172.203882 
L 431.804424 145.823054 
L 432.79713 92.691448 
L 433.789836 101.173393 
L 434.782541 155.495497 
L 435.775247 151.941459 
L 436.767953 148.842388 
L 437.760659 178.970755 
L 438.753365 161.793529 
L 439.746071 91.617932 
L 440.738777 103.963265 
L 441.731483 151.20099 
L 442.724189 100.769936 
L 443.716895 91.264947 
L 444.709601 140.90499 
L 445.702307 138.692023 
L 446.695013 124.058356 
L 447.687718 155.690748 
L 448.680424 181.892616 
L 449.67313 165.172471 
L 450.665836 158.194911 
L 451.658542 169.561013 
L 452.651248 160.408596 
L 453.643954 142.699691 
L 454.63666 148.589095 
L 455.629366 168.067761 
L 456.622072 163.919386 
L 457.614778 152.797286 
L 458.607484 172.142172 
L 459.60019 174.585198 
L 460.592896 145.636174 
L 461.585601 137.726263 
L 462.578307 165.964255 
L 463.571013 162.080756 
L 464.563719 101.245273 
L 465.556425 121.086174 
L 466.549131 172.350009 
L 467.541837 143.567598 
L 468.534543 124.920146 
L 469.527249 165.396335 
L 470.519955 165.89972 
L 471.512661 128.748169 
L 472.505367 158.145677 
L 473.498073 196.06993 
L 474.490778 179.368439 
L 475.483484 142.352314 
L 476.47619 152.804504 
L 477.468896 161.172045 
L 478.461602 141.582744 
L 479.454308 165.048156 
L 480.447014 191.737844 
L 481.43972 187.269764 
L 482.432426 178.452073 
L 483.425132 181.454079 
L 484.417838 189.290317 
L 485.410544 177.649932 
L 486.40325 161.847012 
L 487.395955 172.17609 
L 488.388661 173.308575 
L 489.381367 139.321252 
L 490.374073 131.631164 
L 491.366779 166.665372 
L 492.359485 169.661024 
L 493.352191 146.283425 
L 494.344897 161.400671 
L 495.337603 194.125372 
L 496.330309 199.855642 
L 497.323015 180.675304 
L 498.315721 180.23069 
L 499.308427 181.933168 
L 500.301132 168.715656 
L 501.293838 174.331381 
L 502.286544 174.659917 
L 503.27925 166.888364 
L 504.271956 177.948956 
L 505.264662 191.950767 
L 506.257368 152.581623 
L 507.250074 120.027614 
L 508.24278 156.720386 
L 509.235486 163.701641 
L 510.228192 117.218655 
L 511.220898 119.088935 
L 512.213604 164.3157 
L 513.206309 153.110533 
L 514.199015 119.143318 
L 515.191721 146.390725 
L 516.184427 177.610478 
L 517.177133 139.446374 
L 518.169839 131.327728 
L 519.162545 170.566659 
L 520.155251 148.168116 
L 521.147957 113.685437 
L 523.133369 184.451175 
L 524.126075 166.946332 
L 525.118781 158.568305 
L 526.111487 180.462077 
L 527.104192 182.416368 
L 528.096898 138.343456 
L 529.089604 123.329085 
L 530.08231 154.042576 
L 531.075016 137.00664 
L 532.067722 116.719499 
L 534.053134 182.216723 
L 536.038546 150.801951 
L 537.031252 167.031643 
L 538.023958 151.501202 
L 539.016664 101.265884 
L 540.009369 107.778387 
L 541.002075 151.905293 
L 541.994781 141.654175 
L 542.987487 121.644095 
L 544.972899 170.955039 
L 545.965605 158.947054 
L 546.958311 151.165605 
L 547.951017 151.532897 
L 548.943723 128.559768 
L 549.936429 136.00311 
L 550.929135 166.448132 
L 551.921841 153.634688 
L 552.914546 116.307215 
L 553.907252 133.002494 
L 554.899958 166.402638 
L 555.892664 155.609077 
L 556.88537 136.399896 
L 557.878076 146.125245 
L 558.870782 150.953652 
L 559.863488 140.430581 
L 560.856194 156.681731 
L 561.8489 167.399106 
L 562.841606 151.49644 
L 563.834312 148.850982 
L 564.827018 170.33249 
L 565.819723 184.471828 
L 566.812429 187.801639 
L 567.805135 189.938092 
L 568.797841 186.975403 
L 569.790547 169.102739 
L 570.783253 148.971248 
L 571.775959 145.337832 
L 572.768665 145.365355 
L 573.761371 136.100305 
L 574.754077 118.959879 
L 575.746783 120.530794 
L 576.739489 159.784913 
L 576.739489 159.784913 
" clip-path="url(#p97c5dd91e0)" style="fill: none; stroke: #1f77b4; stroke-width: 0.9; stroke-linecap: square"/>
   </g>
   <g id="line2d_28">
    <path d="M 69.466761 208.221805 
L 70.459467 209.323446 
L 71.452173 210.024972 
L 73.437585 207.904068 
L 74.430291 204.093853 
L 75.422997 205.976957 
L 76.415703 210.298594 
L 77.408409 209.796926 
L 78.401115 210.250224 
L 79.393821 208.841489 
L 80.386527 208.721825 
L 81.379232 206.699928 
L 82.371938 200.738672 
L 83.364644 201.797385 
L 84.35735 206.545335 
L 85.350056 206.593345 
L 86.342762 207.209326 
L 87.335468 210.698339 
L 88.328174 211.274104 
L 90.313586 210.636143 
L 91.306292 211.264862 
L 92.298998 212.060259 
L 93.291704 212.207891 
L 94.284409 212.725982 
L 97.262527 211.417368 
L 98.255233 210.733546 
L 99.247939 210.282753 
L 100.240645 209.575382 
L 101.233351 208.335874 
L 103.218763 197.257739 
L 104.211469 200.688448 
L 105.204175 198.851426 
L 106.196881 197.982011 
L 107.189586 205.411392 
L 108.182292 208.400204 
L 109.174998 208.026529 
L 110.167704 206.77018 
L 111.16041 206.980316 
L 112.153116 208.57806 
L 113.145822 208.561167 
L 115.131234 209.753953 
L 116.12394 209.464037 
L 117.116646 208.517309 
L 118.109352 207.119197 
L 119.102058 208.578191 
L 120.094763 209.741672 
L 121.087469 209.357456 
L 122.080175 208.268043 
L 123.072881 207.461125 
L 124.065587 208.874543 
L 125.058293 208.676136 
L 126.050999 209.92727 
L 127.043705 212.373511 
L 128.036411 212.378506 
L 129.029117 212.153408 
L 130.021823 209.879219 
L 131.014529 204.956636 
L 132.007235 204.833088 
L 132.999941 202.930678 
L 133.992646 198.986581 
L 134.985352 203.642382 
L 135.978058 207.623158 
L 136.970764 207.7183 
L 137.96347 207.289202 
L 138.956176 206.684269 
L 139.948882 207.807824 
L 140.941588 207.324943 
L 141.934294 207.595809 
L 142.927 210.141045 
L 143.919706 210.762795 
L 144.912412 210.181593 
L 145.905118 208.105025 
L 146.897823 207.301504 
L 147.890529 209.338904 
L 149.875941 208.151573 
L 150.868647 210.821172 
L 151.861353 212.452774 
L 153.846765 212.719338 
L 154.839471 212.420845 
L 156.824883 212.096774 
L 157.817589 211.276672 
L 158.810295 211.380777 
L 159.803 212.120763 
L 160.795706 212.204965 
L 161.788412 212.442782 
L 162.781118 212.557912 
L 163.773824 212.153617 
L 164.76653 211.485738 
L 165.759236 207.306669 
L 166.751942 203.626517 
L 167.744648 205.491854 
L 168.737354 204.177488 
L 169.73006 202.417925 
L 170.722766 206.110541 
L 171.715472 207.344535 
L 172.708177 205.943361 
L 173.700883 201.058258 
L 174.693589 199.357387 
L 175.686295 203.879027 
L 176.679001 203.302912 
L 177.671707 204.699412 
L 178.664413 209.501192 
L 179.657119 210.531351 
L 180.649825 210.029017 
L 181.642531 209.016688 
L 182.635237 209.654079 
L 183.627943 211.128787 
L 184.620649 211.172773 
L 185.613354 211.721768 
L 186.60606 212.597487 
L 188.591472 212.617629 
L 193.555002 212.504279 
L 196.53312 211.929651 
L 197.525826 211.580946 
L 198.518532 211.394261 
L 199.511237 211.038366 
L 200.503943 210.498626 
L 201.496649 208.318893 
L 202.489355 206.896349 
L 203.482061 208.320124 
L 204.474767 208.060397 
L 205.467473 208.680181 
L 206.460179 210.229011 
L 207.452885 210.410494 
L 208.445591 209.992499 
L 209.438297 209.227267 
L 211.423709 211.847359 
L 212.416414 212.002729 
L 214.401826 212.617934 
L 215.394532 212.580404 
L 216.387238 212.338212 
L 217.379944 211.498652 
L 218.37265 211.100111 
L 219.365356 211.666045 
L 220.358062 211.537531 
L 221.350768 211.689925 
L 222.343474 212.421253 
L 223.33618 212.553648 
L 225.321591 212.53794 
L 227.307003 212.303336 
L 229.292415 212.160367 
L 231.277827 212.497056 
L 233.263239 212.640262 
L 234.255945 212.305676 
L 236.241357 211.38445 
L 237.234063 209.096566 
L 238.226768 207.635661 
L 239.219474 209.097065 
L 241.204886 207.868664 
L 242.197592 210.26222 
L 243.190298 211.469569 
L 246.168416 211.110213 
L 247.161122 211.189762 
L 248.153828 211.034393 
L 249.146534 210.578914 
L 250.13924 209.689416 
L 251.131945 209.916898 
L 252.124651 209.452265 
L 253.117357 209.156838 
L 254.110063 211.234631 
L 255.102769 212.340897 
L 257.088181 212.793033 
L 258.080887 212.484144 
L 259.073593 212.313658 
L 260.066299 212.272059 
L 261.059005 212.066713 
L 263.044417 212.329786 
L 264.037123 212.317105 
L 266.022534 212.060675 
L 267.01524 212.151967 
L 268.007946 212.080392 
L 269.000652 211.863813 
L 269.993358 210.937298 
L 270.986064 210.283568 
L 271.97877 209.057044 
L 272.971476 204.890303 
L 273.964182 204.507171 
L 274.956888 207.448905 
L 275.949594 207.149163 
L 276.9423 207.425893 
L 277.935005 207.253822 
L 278.927711 206.858301 
L 279.920417 205.250295 
L 280.913123 202.650792 
L 282.898535 210.251813 
L 283.891241 210.769656 
L 284.883947 212.192491 
L 285.876653 212.628802 
L 286.869359 212.292483 
L 287.862065 212.287435 
L 289.847477 211.989954 
L 290.840182 212.087612 
L 291.832888 212.051257 
L 292.825594 211.755844 
L 293.8183 210.714466 
L 294.811006 210.285125 
L 295.803712 209.259744 
L 296.796418 206.15405 
L 297.789124 206.575038 
L 298.78183 208.721077 
L 299.774536 208.42736 
L 300.767242 207.78934 
L 301.759948 206.004937 
L 302.752654 205.799972 
L 304.738065 202.311197 
L 305.730771 206.328091 
L 306.723477 208.5516 
L 307.716183 208.290539 
L 308.708889 207.36645 
L 309.701595 207.349451 
L 310.694301 208.896388 
L 311.687007 208.901153 
L 312.679713 209.636624 
L 313.672419 210.078408 
L 314.665125 209.993265 
L 315.657831 209.078623 
L 316.650536 206.790084 
L 317.643242 207.879499 
L 318.635948 210.215474 
L 319.628654 210.183551 
L 321.614066 211.53881 
L 322.606772 211.45392 
L 323.599478 211.122775 
L 324.592184 210.977933 
L 325.58489 212.03263 
L 326.577596 212.619332 
L 327.570302 212.738914 
L 328.563008 212.687325 
L 329.555714 211.917833 
L 332.533831 211.114821 
L 333.526537 211.183327 
L 334.519243 211.034454 
L 335.511949 210.630527 
L 336.504655 209.499137 
L 337.497361 209.713886 
L 338.490067 210.810928 
L 339.482773 210.913534 
L 340.475479 211.167574 
L 341.468185 210.973939 
L 342.460891 211.175784 
L 343.453596 210.662053 
L 344.446302 208.720286 
L 345.439008 208.642644 
L 346.431714 210.340689 
L 348.417126 209.209538 
L 349.409832 211.260334 
L 350.402538 212.37744 
L 351.395244 212.452453 
L 352.38795 212.696639 
L 354.373362 211.679338 
L 355.366068 211.384124 
L 356.358773 210.645932 
L 357.351479 210.938586 
L 358.344185 211.570434 
L 359.336891 211.646348 
L 360.329597 212.194953 
L 361.322303 211.652312 
L 362.315009 210.180976 
L 363.307715 208.935253 
L 364.300421 203.082866 
L 365.293127 198.886132 
L 366.285833 202.800321 
L 367.278539 201.887745 
L 368.271245 202.2107 
L 369.26395 208.185616 
L 370.256656 210.233474 
L 371.249362 210.032221 
L 372.242068 209.433793 
L 373.234774 209.722242 
L 374.22748 210.58602 
L 376.212892 210.4926 
L 377.205598 210.034036 
L 378.198304 209.451319 
L 379.19101 208.03058 
L 380.183716 204.411078 
L 381.176422 205.443198 
L 382.169127 208.937653 
L 383.161833 208.753482 
L 384.154539 209.708307 
L 385.147245 209.65598 
L 386.139951 209.974776 
L 387.132657 208.733087 
L 388.125363 206.600036 
L 389.118069 209.793062 
L 390.110775 212.075578 
L 391.103481 211.020737 
L 392.096187 210.160845 
L 393.088893 210.708994 
L 394.081599 211.664646 
L 395.074305 211.697178 
L 396.06701 211.317272 
L 397.059716 211.913101 
L 398.052422 212.267162 
L 399.045128 212.034926 
L 400.037834 211.244427 
L 401.03054 210.228158 
L 402.023246 210.518559 
L 404.008658 209.445295 
L 405.001364 208.468415 
L 405.99407 207.126965 
L 406.986776 204.794687 
L 407.979482 197.36499 
L 408.972187 197.622125 
L 409.964893 204.198068 
L 410.957599 204.568701 
L 411.950305 207.365356 
L 412.943011 211.808572 
L 413.935717 212.152916 
L 414.928423 212.168715 
L 416.913835 212.612138 
L 418.899247 212.433019 
L 419.891953 211.069712 
L 420.884659 208.732146 
L 421.877364 208.940256 
L 422.87007 208.214495 
L 423.862776 206.522037 
L 425.848188 211.326023 
L 426.840894 211.486553 
L 427.8336 211.85725 
L 428.826306 211.873393 
L 429.819012 211.767627 
L 430.811718 211.189627 
L 431.804424 210.009281 
L 433.789836 210.634417 
L 434.782541 210.07948 
L 435.775247 207.634753 
L 436.767953 204.687904 
L 437.760659 205.63205 
L 438.753365 204.452673 
L 439.746071 203.990495 
L 440.738777 207.818055 
L 441.731483 209.020232 
L 442.724189 208.513527 
L 443.716895 207.307887 
L 444.709601 208.208056 
L 445.702307 210.233408 
L 446.695013 210.560322 
L 447.687718 211.685543 
L 448.680424 212.538802 
L 451.658542 212.60719 
L 452.651248 212.780768 
L 454.63666 212.813938 
L 455.629366 212.604574 
L 456.622072 212.236737 
L 457.614778 212.198622 
L 458.607484 211.912445 
L 459.60019 210.804488 
L 460.592896 210.68804 
L 461.585601 211.234841 
L 462.578307 210.974509 
L 463.571013 210.01627 
L 464.563719 207.832962 
L 465.556425 207.444022 
L 466.549131 205.899353 
L 467.541837 203.634608 
L 468.534543 206.24705 
L 469.527249 207.733192 
L 470.519955 206.991168 
L 471.512661 203.804558 
L 472.505367 202.235421 
L 473.498073 205.316896 
L 474.490778 204.887934 
L 475.483484 205.914969 
L 476.47619 210.210085 
L 477.468896 211.343504 
L 478.461602 211.139869 
L 479.454308 210.801987 
L 480.447014 211.085544 
L 481.43972 211.785797 
L 482.432426 211.748963 
L 484.417838 212.233855 
L 485.410544 212.178935 
L 487.395955 211.584692 
L 489.381367 212.128017 
L 490.374073 212.061865 
L 491.366779 211.752592 
L 492.359485 211.574382 
L 493.352191 211.897953 
L 494.344897 211.884446 
L 495.337603 212.108247 
L 496.330309 212.736391 
L 497.323015 212.806229 
L 498.315721 212.735866 
L 500.301132 211.421104 
L 501.293838 211.535958 
L 502.286544 211.390616 
L 503.27925 210.95678 
L 504.271956 209.5454 
L 505.264662 208.503653 
L 506.257368 206.807393 
L 507.250074 201.611357 
L 508.24278 202.240246 
L 509.235486 206.764384 
L 510.228192 206.747769 
L 512.213604 209.497066 
L 513.206309 209.469413 
L 515.191721 207.955899 
L 516.184427 210.121255 
L 517.177133 211.62479 
L 518.169839 211.878391 
L 519.162545 212.456629 
L 520.155251 212.465009 
L 521.147957 212.217845 
L 522.140663 212.208425 
L 523.133369 211.991722 
L 526.111487 211.845898 
L 527.104192 211.172803 
L 528.096898 209.950827 
L 529.089604 209.875262 
L 530.08231 209.147294 
L 531.075016 207.64834 
L 533.060428 210.438483 
L 534.053134 210.093717 
L 535.04584 208.8236 
L 536.038546 207.085615 
L 537.031252 207.999528 
L 538.023958 206.985549 
L 539.016664 206.49161 
L 540.009369 208.897676 
L 541.002075 209.501139 
L 541.994781 208.704974 
L 542.987487 205.820404 
L 543.980193 205.520524 
L 544.972899 208.225209 
L 545.965605 208.215537 
L 546.958311 209.050432 
L 547.951017 211.920236 
L 548.943723 212.67021 
L 551.921841 212.714338 
L 555.892664 212.604703 
L 559.863488 212.257563 
L 560.856194 212.036049 
L 561.8489 211.694262 
L 562.841606 210.656913 
L 563.834312 210.155402 
L 564.827018 211.269848 
L 565.819723 210.971643 
L 566.812429 211.366673 
L 567.805135 211.564253 
L 568.797841 211.570245 
L 569.790547 211.065152 
L 570.783253 208.988811 
L 571.775959 209.08969 
L 572.768665 210.129405 
L 573.761371 209.768617 
L 575.746783 201.612464 
L 576.739489 204.449161 
L 576.739489 204.449161 
" clip-path="url(#p97c5dd91e0)" style="fill: none; stroke: #ff7f0e; stroke-width: 0.9; stroke-linecap: square"/>
   </g>
   <g id="patch_3">
    <path d="M 44.103125 221.902125 
L 44.103125 22.318125 
" style="fill: none; stroke: #000000; stroke-width: 0.8; stroke-linejoin: miter; stroke-linecap: square"/>
   </g>
   <g id="patch_4">
    <path d="M 602.103125 221.902125 
L 602.103125 22.318125 
" style="fill: none; stroke: #000000; stroke-width: 0.8; stroke-linejoin: miter; stroke-linecap: square"/>
   </g>
   <g id="patch_5">
    <path d="M 44.103125 221.902125 
L 602.103125 221.902125 
" style="fill: none; stroke: #000000; stroke-width: 0.8; stroke-linejoin: miter; stroke-linecap: square"/>
   </g>
   <g id="patch_6">
    <path d="M 44.103125 22.318125 
L 602.103125 22.318125 
" style="fill: none; stroke: #000000; stroke-width: 0.8; stroke-linejoin: miter; stroke-linecap: square"/>
   </g>
   <g id="text_16">
    <!-- Time-frequency energy preservation -->
    <g transform="translate(213.598437 16.318125) scale(0.12 -0.12)">
     <defs>
      <path id="DejaVuSans-10" d="M 313 2009 
L 1997 2009 
L 1997 1497 
L 313 1497 
L 313 2009 
z
" transform="scale(0.015625)"/>
      <path id="DejaVuSans-49" d="M 2375 4863 
L 2375 4384 
L 1825 4384 
Q 1516 4384 1395 4259 
Q 1275 4134 1275 3809 
L 1275 3500 
L 2222 3500 
L 2222 3053 
L 1275 3053 
L 1275 0 
L 697 0 
L 697 3053 
L 147 3053 
L 147 3500 
L 697 3500 
L 697 3744 
Q 697 4328 969 4595 
Q 1241 4863 1831 4863 
L 2375 4863 
z
" transform="scale(0.015625)"/>
      <path id="DejaVuSans-54" d="M 947 1747 
Q 947 1113 1208 752 
Q 1469 391 1925 391 
Q 2381 391 2643 752 
Q 2906 1113 2906 1747 
Q 2906 2381 2643 2742 
Q 2381 3103 1925 3103 
Q 1469 3103 1208 2742 
Q 947 2381 947 1747 
z
M 2906 525 
Q 2725 213 2448 61 
Q 2172 -91 1784 -91 
Q 1150 -91 751 415 
Q 353 922 353 1747 
Q 353 2572 751 3078 
Q 1150 3584 1784 3584 
Q 2172 3584 2448 3432 
Q 2725 3281 2906 2969 
L 2906 3500 
L 3481 3500 
L 3481 -1331 
L 2906 -1331 
L 2906 525 
z
" transform="scale(0.015625)"/>
      <path id="DejaVuSans-46" d="M 3122 3366 
L 3122 2828 
Q 2878 2963 2633 3030 
Q 2388 3097 2138 3097 
Q 1578 3097 1268 2742 
Q 959 2388 959 1747 
Q 959 1106 1268 751 
Q 1578 397 2138 397 
Q 2388 397 2633 464 
Q 2878 531 3122 666 
L 3122 134 
Q 2881 22 2623 -34 
Q 2366 -91 2075 -91 
Q 1284 -91 818 406 
Q 353 903 353 1747 
Q 353 2603 823 3093 
Q 1294 3584 2113 3584 
Q 2378 3584 2631 3529 
Q 2884 3475 3122 3366 
z
" transform="scale(0.015625)"/>
      <path id="DejaVuSans-53" d="M 1159 525 
L 1159 -1331 
L 581 -1331 
L 581 3500 
L 1159 3500 
L 1159 2969 
Q 1341 3281 1617 3432 
Q 1894 3584 2278 3584 
Q 2916 3584 3314 3078 
Q 3713 2572 3713 1747 
Q 3713 922 3314 415 
Q 2916 -91 2278 -91 
Q 1894 -91 1617 61 
Q 1341 213 1159 525 
z
M 3116 1747 
Q 3116 2381 2855 2742 
Q 2594 3103 2138 3103 
Q 1681 3103 1420 2742 
Q 1159 2381 1159 1747 
Q 1159 1113 1420 752 
Q 1681 391 2138 391 
Q 2594 391 2855 752 
Q 3116 1113 3116 1747 
z
" transform="scale(0.015625)"/>
      <path id="DejaVuSans-59" d="M 191 3500 
L 800 3500 
L 1894 563 
L 2988 3500 
L 3597 3500 
L 2284 0 
L 1503 0 
L 191 3500 
z
" transform="scale(0.015625)"/>
     </defs>
     <use xlink:href="#DejaVuSans-37"/>
     <use xlink:href="#DejaVuSans-4c" transform="translate(58 0)"/>
     <use xlink:href="#DejaVuSans-50" transform="translate(85.78125 0)"/>
     <use xlink:href="#DejaVuSans-48" transform="translate(183.1875 0)"/>
     <use xlink:href="#DejaVuSans-10" transform="translate(244.71875 0)"/>
     <use xlink:href="#DejaVuSans-49" transform="translate(280.796875 0)"/>
     <use xlink:href="#DejaVuSans-55" transform="translate(316 0)"/>
     <use xlink:href="#DejaVuSans-48" transform="translate(354.90625 0)"/>
     <use xlink:href="#DejaVuSans-54" transform="translate(416.4375 0)"/>
     <use xlink:href="#DejaVuSans-58" transform="translate(479.921875 0)"/>
     <use xlink:href="#DejaVuSans-48" transform="translate(543.296875 0)"/>
     <use xlink:href="#DejaVuSans-51" transform="translate(604.828125 0)"/>
     <use xlink:href="#DejaVuSans-46" transform="translate(668.203125 0)"/>
     <use xlink:href="#DejaVuSans-5c" transform="translate(723.1875 0)"/>
     <use xlink:href="#DejaVuSans-3" transform="translate(782.375 0)"/>
     <use xlink:href="#DejaVuSans-48" transform="translate(814.15625 0)"/>
     <use xlink:href="#DejaVuSans-51" transform="translate(875.6875 0)"/>
     <use xlink:href="#DejaVuSans-48" transform="translate(939.0625 0)"/>
     <use xlink:href="#DejaVuSans-55" transform="translate(1000.59375 0)"/>
     <use xlink:href="#DejaVuSans-4a" transform="translate(1039.953125 0)"/>
     <use xlink:href="#DejaVuSans-5c" transform="translate(1103.4375 0)"/>
     <use xlink:href="#DejaVuSans-3" transform="translate(1162.625 0)"/>
     <use xlink:href="#DejaVuSans-53" transform="translate(1194.40625 0)"/>
     <use xlink:href="#DejaVuSans-55" transform="translate(1257.890625 0)"/>
     <use xlink:href="#DejaVuSans-48" transform="translate(1296.796875 0)"/>
     <use xlink:href="#DejaVuSans-56" transform="translate(1358.328125 0)"/>
     <use xlink:href="#DejaVuSans-48" transform="translate(1410.421875 0)"/>
     <use xlink:href="#DejaVuSans-55" transform="translate(1471.953125 0)"/>
     <use xlink:href="#DejaVuSans-59" transform="translate(1513.0625 0)"/>
     <use xlink:href="#DejaVuSans-44" transform="translate(1572.25 0)"/>
     <use xlink:href="#DejaVuSans-57" transform="translate(1633.53125 0)"/>
     <use xlink:href="#DejaVuSans-4c" transform="translate(1672.734375 0)"/>
     <use xlink:href="#DejaVuSans-52" transform="translate(1700.515625 0)"/>
     <use xlink:href="#DejaVuSans-51" transform="translate(1761.703125 0)"/>
    </g>
   </g>
   <g id="legend_1">
    <g id="patch_7">
     <path d="M 435.071875 60.319687 
L 595.103125 60.319687 
Q 597.103125 60.319687 597.103125 58.319687 
L 597.103125 29.318125 
Q 597.103125 27.318125 595.103125 27.318125 
L 435.071875 27.318125 
Q 433.071875 27.318125 433.071875 29.318125 
L 433.071875 58.319687 
Q 433.071875 60.319687 435.071875 60.319687 
z
" style="fill: #ffffff; opacity: 0.8; stroke: #cccccc; stroke-linejoin: miter"/>
    </g>
    <g id="line2d_29">
     <path d="M 437.071875 35.416562 
L 447.071875 35.416562 
L 457.071875 35.416562 
" style="fill: none; stroke: #1f77b4; stroke-width: 0.9; stroke-linecap: square"/>
    </g>
    <g id="text_17">
     <!-- Weighted analytic energy -->
     <g transform="translate(465.071875 38.916562) scale(0.1 -0.1)">
      <defs>
       <path id="DejaVuSans-3a" d="M 213 4666 
L 850 4666 
L 1831 722 
L 2809 4666 
L 3519 4666 
L 4500 722 
L 5478 4666 
L 6119 4666 
L 4947 0 
L 4153 0 
L 3169 4050 
L 2175 0 
L 1381 0 
L 213 4666 
z
" transform="scale(0.015625)"/>
       <path id="DejaVuSans-4b" d="M 3513 2113 
L 3513 0 
L 2938 0 
L 2938 2094 
Q 2938 2591 2744 2837 
Q 2550 3084 2163 3084 
Q 1697 3084 1428 2787 
Q 1159 2491 1159 1978 
L 1159 0 
L 581 0 
L 581 4863 
L 1159 4863 
L 1159 2956 
Q 1366 3272 1645 3428 
Q 1925 3584 2291 3584 
Q 2894 3584 3203 3211 
Q 3513 2838 3513 2113 
z
" transform="scale(0.015625)"/>
       <path id="DejaVuSans-47" d="M 2906 2969 
L 2906 4863 
L 3481 4863 
L 3481 0 
L 2906 0 
L 2906 525 
Q 2725 213 2448 61 
Q 2172 -91 1784 -91 
Q 1150 -91 751 415 
Q 353 922 353 1747 
Q 353 2572 751 3078 
Q 1150 3584 1784 3584 
Q 2172 3584 2448 3432 
Q 2725 3281 2906 2969 
z
M 947 1747 
Q 947 1113 1208 752 
Q 1469 391 1925 391 
Q 2381 391 2643 752 
Q 2906 1113 2906 1747 
Q 2906 2381 2643 2742 
Q 2381 3103 1925 3103 
Q 1469 3103 1208 2742 
Q 947 2381 947 1747 
z
" transform="scale(0.015625)"/>
       <path id="DejaVuSans-4f" d="M 603 4863 
L 1178 4863 
L 1178 0 
L 603 0 
L 603 4863 
z
" transform="scale(0.015625)"/>
      </defs>
      <use xlink:href="#DejaVuSans-3a"/>
      <use xlink:href="#DejaVuSans-48" transform="translate(93.015625 0)"/>
      <use xlink:href="#DejaVuSans-4c" transform="translate(154.546875 0)"/>
      <use xlink:href="#DejaVuSans-4a" transform="translate(182.328125 0)"/>
      <use xlink:href="#DejaVuSans-4b" transform="translate(245.8125 0)"/>
      <use xlink:href="#DejaVuSans-57" transform="translate(309.1875 0)"/>
      <use xlink:href="#DejaVuSans-48" transform="translate(348.390625 0)"/>
      <use xlink:href="#DejaVuSans-47" transform="translate(409.921875 0)"/>
      <use xlink:href="#DejaVuSans-3" transform="translate(473.40625 0)"/>
      <use xlink:href="#DejaVuSans-44" transform="translate(505.1875 0)"/>
      <use xlink:href="#DejaVuSans-51" transform="translate(566.46875 0)"/>
      <use xlink:href="#DejaVuSans-44" transform="translate(629.84375 0)"/>
      <use xlink:href="#DejaVuSans-4f" transform="translate(691.125 0)"/>
      <use xlink:href="#DejaVuSans-5c" transform="translate(718.90625 0)"/>
      <use xlink:href="#DejaVuSans-57" transform="translate(778.09375 0)"/>
      <use xlink:href="#DejaVuSans-4c" transform="translate(817.296875 0)"/>
      <use xlink:href="#DejaVuSans-46" transform="translate(845.078125 0)"/>
      <use xlink:href="#DejaVuSans-3" transform="translate(900.0625 0)"/>
      <use xlink:href="#DejaVuSans-48" transform="translate(931.84375 0)"/>
      <use xlink:href="#DejaVuSans-51" transform="translate(993.375 0)"/>
      <use xlink:href="#DejaVuSans-48" transform="translate(1056.75 0)"/>
      <use xlink:href="#DejaVuSans-55" transform="translate(1118.28125 0)"/>
      <use xlink:href="#DejaVuSans-4a" transform="translate(1157.640625 0)"/>
      <use xlink:href="#DejaVuSans-5c" transform="translate(1221.125 0)"/>
     </g>
    </g>
    <g id="line2d_30">
     <path d="M 437.071875 50.417344 
L 447.071875 50.417344 
L 457.071875 50.417344 
" style="fill: none; stroke: #ff7f0e; stroke-width: 0.9; stroke-linecap: square"/>
    </g>
    <g id="text_18">
     <!-- Denoised analytic energy -->
     <g transform="translate(465.071875 53.917344) scale(0.1 -0.1)">
      <defs>
       <path id="DejaVuSans-27" d="M 1259 4147 
L 1259 519 
L 2022 519 
Q 2988 519 3436 956 
Q 3884 1394 3884 2338 
Q 3884 3275 3436 3711 
Q 2988 4147 2022 4147 
L 1259 4147 
z
M 628 4666 
L 1925 4666 
Q 3281 4666 3915 4102 
Q 4550 3538 4550 2338 
Q 4550 1131 3912 565 
Q 3275 0 1925 0 
L 628 0 
L 628 4666 
z
" transform="scale(0.015625)"/>
      </defs>
      <use xlink:href="#DejaVuSans-27"/>
      <use xlink:href="#DejaVuSans-48" transform="translate(77 0)"/>
      <use xlink:href="#DejaVuSans-51" transform="translate(138.53125 0)"/>
      <use xlink:href="#DejaVuSans-52" transform="translate(201.90625 0)"/>
      <use xlink:href="#DejaVuSans-4c" transform="translate(263.09375 0)"/>
      <use xlink:href="#DejaVuSans-56" transform="translate(290.875 0)"/>
      <use xlink:href="#DejaVuSans-48" transform="translate(342.96875 0)"/>
      <use xlink:href="#DejaVuSans-47" transform="translate(404.5 0)"/>
      <use xlink:href="#DejaVuSans-3" transform="translate(467.984375 0)"/>
      <use xlink:href="#DejaVuSans-44" transform="translate(499.765625 0)"/>
      <use xlink:href="#DejaVuSans-51" transform="translate(561.046875 0)"/>
      <use xlink:href="#DejaVuSans-44" transform="translate(624.421875 0)"/>
      <use xlink:href="#DejaVuSans-4f" transform="translate(685.703125 0)"/>
      <use xlink:href="#DejaVuSans-5c" transform="translate(713.484375 0)"/>
      <use xlink:href="#DejaVuSans-57" transform="translate(772.671875 0)"/>
      <use xlink:href="#DejaVuSans-4c" transform="translate(811.875 0)"/>
      <use xlink:href="#DejaVuSans-46" transform="translate(839.65625 0)"/>
      <use xlink:href="#DejaVuSans-3" transform="translate(894.640625 0)"/>
      <use xlink:href="#DejaVuSans-48" transform="translate(926.421875 0)"/>
      <use xlink:href="#DejaVuSans-51" transform="translate(987.953125 0)"/>
      <use xlink:href="#DejaVuSans-48" transform="translate(1051.328125 0)"/>
      <use xlink:href="#DejaVuSans-55" transform="translate(1112.859375 0)"/>
      <use xlink:href="#DejaVuSans-4a" transform="translate(1152.21875 0)"/>
      <use xlink:href="#DejaVuSans-5c" transform="translate(1215.703125 0)"/>
     </g>
    </g>
   </g>
  </g>
 </g>
 <defs>
  <clipPath id="p97c5dd91e0">
   <rect x="44.103125" y="22.318125" width="558" height="199.584"/>
  </clipPath>
 </defs>
</svg>
