<?xml version="1.0" encoding="utf-8" standalone="no"?>
<!DOCTYPE svg PUBLIC "-//W3C//DTD SVG 1.1//EN"
  "http://www.w3.org/Graphics/SVG/1.1/DTD/svg11.dtd">
<svg xmlns:xlink="http://www.w3.org/1999/xlink" width="617.683594pt" height="260.102906pt" viewBox="0 0 617.683594 260.102906" xmlns="http://www.w3.org/2000/svg" version="1.1">
 <metadata>
  <rdf:RDF xmlns:dc="http://purl.org/dc/elements/1.1/" xmlns:cc="http://creativecommons.org/ns#" xmlns:rdf="http://www.w3.org/1999/02/22-rdf-syntax-ns#">
   <cc:Work>
    <dc:type rdf:resource="http://purl.org/dc/dcmitype/StillImage"/>
    <dc:date>2026-07-14T07:01:46.766499</dc:date>
    <dc:format>image/svg+xml</dc:format>
    <dc:creator>
     <cc:Agent>
      <dc:title>Matplotlib v3.11.0, https://matplotlib.org/</dc:title>
     </cc:Agent>
    </dc:creator>
   </cc:Work>
  </rdf:RDF>
 </metadata>
 <defs>
  <style type="text/css">*{stroke-linejoin: round; stroke-linecap: butt}</style>
 </defs>
 <g id="figure_1">
  <g id="patch_1">
   <path d="M 0 260.102906 
L 617.683594 260.102906 
L 617.683594 0 
L 0 0 
z
" style="fill: #ffffff"/>
  </g>
  <g id="axes_1">
   <g id="patch_2">
    <path d="M 52.483594 221.902125 
L 610.483594 221.902125 
L 610.483594 22.318125 
L 52.483594 22.318125 
z
" style="fill: #ffffff"/>
   </g>
   <g id="matplotlib.axis_1">
    <g id="xtick_1">
     <g id="line2d_1">
      <path d="M 77.84723 221.902125 
L 77.84723 22.318125 
" clip-path="url(#pb70d339808)" style="fill: none; stroke: #b0b0b0; stroke-opacity: 0.25; stroke-width: 0.8; stroke-linecap: square"/>
     </g>
     <g id="line2d_2">
      <defs>
       <path id="mc87685f7c1" d="M 0 0 
L 0 3.5 
" style="stroke: #000000; stroke-width: 0.8"/>
      </defs>
      <g>
       <use xlink:href="#mc87685f7c1" x="77.84723" y="221.902125" style="stroke: #000000; stroke-width: 0.8"/>
      </g>
     </g>
     <g id="text_1">
      <!-- 0.0 -->
      <g transform="translate(69.895668 236.499781) scale(0.1 -0.1)">
       <defs>
        <path id="DejaVuSans-13" d="M 2034 4250 
Q 1547 4250 1301 3770 
Q 1056 3291 1056 2328 
Q 1056 1369 1301 889 
Q 1547 409 2034 409 
Q 2525 409 2770 889 
Q 3016 1369 3016 2328 
Q 3016 3291 2770 3770 
Q 2525 4250 2034 4250 
z
M 2034 4750 
Q 2819 4750 3233 4129 
Q 3647 3509 3647 2328 
Q 3647 1150 3233 529 
Q 2819 -91 2034 -91 
Q 1250 -91 836 529 
Q 422 1150 422 2328 
Q 422 3509 836 4129 
Q 1250 4750 2034 4750 
z
" transform="scale(0.015625)"/>
        <path id="DejaVuSans-11" d="M 684 794 
L 1344 794 
L 1344 0 
L 684 0 
L 684 794 
z
" transform="scale(0.015625)"/>
       </defs>
       <use xlink:href="#DejaVuSans-13"/>
       <use xlink:href="#DejaVuSans-11" transform="translate(63.625 0)"/>
       <use xlink:href="#DejaVuSans-13" transform="translate(95.40625 0)"/>
      </g>
     </g>
    </g>
    <g id="xtick_2">
     <g id="line2d_3">
      <path d="M 179.403332 221.902125 
L 179.403332 22.318125 
" clip-path="url(#pb70d339808)" style="fill: none; stroke: #b0b0b0; stroke-opacity: 0.25; stroke-width: 0.8; stroke-linecap: square"/>
     </g>
     <g id="line2d_4">
      <g>
       <use xlink:href="#mc87685f7c1" x="179.403332" y="221.902125" style="stroke: #000000; stroke-width: 0.8"/>
      </g>
     </g>
     <g id="text_2">
      <!-- 0.2 -->
      <g transform="translate(171.451769 236.499781) scale(0.1 -0.1)">
       <defs>
        <path id="DejaVuSans-15" d="M 1228 531 
L 3431 531 
L 3431 0 
L 469 0 
L 469 531 
Q 828 903 1448 1529 
Q 2069 2156 2228 2338 
Q 2531 2678 2651 2914 
Q 2772 3150 2772 3378 
Q 2772 3750 2511 3984 
Q 2250 4219 1831 4219 
Q 1534 4219 1204 4116 
Q 875 4013 500 3803 
L 500 4441 
Q 881 4594 1212 4672 
Q 1544 4750 1819 4750 
Q 2544 4750 2975 4387 
Q 3406 4025 3406 3419 
Q 3406 3131 3298 2873 
Q 3191 2616 2906 2266 
Q 2828 2175 2409 1742 
Q 1991 1309 1228 531 
z
" transform="scale(0.015625)"/>
       </defs>
       <use xlink:href="#DejaVuSans-13"/>
       <use xlink:href="#DejaVuSans-11" transform="translate(63.625 0)"/>
       <use xlink:href="#DejaVuSans-15" transform="translate(95.40625 0)"/>
      </g>
     </g>
    </g>
    <g id="xtick_3">
     <g id="line2d_5">
      <path d="M 280.959433 221.902125 
L 280.959433 22.318125 
" clip-path="url(#pb70d339808)" style="fill: none; stroke: #b0b0b0; stroke-opacity: 0.25; stroke-width: 0.8; stroke-linecap: square"/>
     </g>
     <g id="line2d_6">
      <g>
       <use xlink:href="#mc87685f7c1" x="280.959433" y="221.902125" style="stroke: #000000; stroke-width: 0.8"/>
      </g>
     </g>
     <g id="text_3">
      <!-- 0.4 -->
      <g transform="translate(273.007871 236.499781) scale(0.1 -0.1)">
       <defs>
        <path id="DejaVuSans-17" d="M 2419 4116 
L 825 1625 
L 2419 1625 
L 2419 4116 
z
M 2253 4666 
L 3047 4666 
L 3047 1625 
L 3713 1625 
L 3713 1100 
L 3047 1100 
L 3047 0 
L 2419 0 
L 2419 1100 
L 313 1100 
L 313 1709 
L 2253 4666 
z
" transform="scale(0.015625)"/>
       </defs>
       <use xlink:href="#DejaVuSans-13"/>
       <use xlink:href="#DejaVuSans-11" transform="translate(63.625 0)"/>
       <use xlink:href="#DejaVuSans-17" transform="translate(95.40625 0)"/>
      </g>
     </g>
    </g>
    <g id="xtick_4">
     <g id="line2d_7">
      <path d="M 382.515535 221.902125 
L 382.515535 22.318125 
" clip-path="url(#pb70d339808)" style="fill: none; stroke: #b0b0b0; stroke-opacity: 0.25; stroke-width: 0.8; stroke-linecap: square"/>
     </g>
     <g id="line2d_8">
      <g>
       <use xlink:href="#mc87685f7c1" x="382.515535" y="221.902125" style="stroke: #000000; stroke-width: 0.8"/>
      </g>
     </g>
     <g id="text_4">
      <!-- 0.6 -->
      <g transform="translate(374.563972 236.499781) scale(0.1 -0.1)">
       <defs>
        <path id="DejaVuSans-19" d="M 2113 2584 
Q 1688 2584 1439 2293 
Q 1191 2003 1191 1497 
Q 1191 994 1439 701 
Q 1688 409 2113 409 
Q 2538 409 2786 701 
Q 3034 994 3034 1497 
Q 3034 2003 2786 2293 
Q 2538 2584 2113 2584 
z
M 3366 4563 
L 3366 3988 
Q 3128 4100 2886 4159 
Q 2644 4219 2406 4219 
Q 1781 4219 1451 3797 
Q 1122 3375 1075 2522 
Q 1259 2794 1537 2939 
Q 1816 3084 2150 3084 
Q 2853 3084 3261 2657 
Q 3669 2231 3669 1497 
Q 3669 778 3244 343 
Q 2819 -91 2113 -91 
Q 1303 -91 875 529 
Q 447 1150 447 2328 
Q 447 3434 972 4092 
Q 1497 4750 2381 4750 
Q 2619 4750 2861 4703 
Q 3103 4656 3366 4563 
z
" transform="scale(0.015625)"/>
       </defs>
       <use xlink:href="#DejaVuSans-13"/>
       <use xlink:href="#DejaVuSans-11" transform="translate(63.625 0)"/>
       <use xlink:href="#DejaVuSans-19" transform="translate(95.40625 0)"/>
      </g>
     </g>
    </g>
    <g id="xtick_5">
     <g id="line2d_9">
      <path d="M 484.071636 221.902125 
L 484.071636 22.318125 
" clip-path="url(#pb70d339808)" style="fill: none; stroke: #b0b0b0; stroke-opacity: 0.25; stroke-width: 0.8; stroke-linecap: square"/>
     </g>
     <g id="line2d_10">
      <g>
       <use xlink:href="#mc87685f7c1" x="484.071636" y="221.902125" style="stroke: #000000; stroke-width: 0.8"/>
      </g>
     </g>
     <g id="text_5">
      <!-- 0.8 -->
      <g transform="translate(476.120074 236.499781) scale(0.1 -0.1)">
       <defs>
        <path id="DejaVuSans-1b" d="M 2034 2216 
Q 1584 2216 1326 1975 
Q 1069 1734 1069 1313 
Q 1069 891 1326 650 
Q 1584 409 2034 409 
Q 2484 409 2743 651 
Q 3003 894 3003 1313 
Q 3003 1734 2745 1975 
Q 2488 2216 2034 2216 
z
M 1403 2484 
Q 997 2584 770 2862 
Q 544 3141 544 3541 
Q 544 4100 942 4425 
Q 1341 4750 2034 4750 
Q 2731 4750 3128 4425 
Q 3525 4100 3525 3541 
Q 3525 3141 3298 2862 
Q 3072 2584 2669 2484 
Q 3125 2378 3379 2068 
Q 3634 1759 3634 1313 
Q 3634 634 3220 271 
Q 2806 -91 2034 -91 
Q 1263 -91 848 271 
Q 434 634 434 1313 
Q 434 1759 690 2068 
Q 947 2378 1403 2484 
z
M 1172 3481 
Q 1172 3119 1398 2916 
Q 1625 2713 2034 2713 
Q 2441 2713 2670 2916 
Q 2900 3119 2900 3481 
Q 2900 3844 2670 4047 
Q 2441 4250 2034 4250 
Q 1625 4250 1398 4047 
Q 1172 3844 1172 3481 
z
" transform="scale(0.015625)"/>
       </defs>
       <use xlink:href="#DejaVuSans-13"/>
       <use xlink:href="#DejaVuSans-11" transform="translate(63.625 0)"/>
       <use xlink:href="#DejaVuSans-1b" transform="translate(95.40625 0)"/>
      </g>
     </g>
    </g>
    <g id="xtick_6">
     <g id="line2d_11">
      <path d="M 585.627738 221.902125 
L 585.627738 22.318125 
" clip-path="url(#pb70d339808)" style="fill: none; stroke: #b0b0b0; stroke-opacity: 0.25; stroke-width: 0.8; stroke-linecap: square"/>
     </g>
     <g id="line2d_12">
      <g>
       <use xlink:href="#mc87685f7c1" x="585.627738" y="221.902125" style="stroke: #000000; stroke-width: 0.8"/>
      </g>
     </g>
     <g id="text_6">
      <!-- 1.0 -->
      <g transform="translate(577.676175 236.499781) scale(0.1 -0.1)">
       <defs>
        <path id="DejaVuSans-14" d="M 794 531 
L 1825 531 
L 1825 4091 
L 703 3866 
L 703 4441 
L 1819 4666 
L 2450 4666 
L 2450 531 
L 3481 531 
L 3481 0 
L 794 0 
L 794 531 
z
" transform="scale(0.015625)"/>
       </defs>
       <use xlink:href="#DejaVuSans-14"/>
       <use xlink:href="#DejaVuSans-11" transform="translate(63.625 0)"/>
       <use xlink:href="#DejaVuSans-13" transform="translate(95.40625 0)"/>
      </g>
     </g>
    </g>
    <g id="text_7">
     <!-- Time (s) -->
     <g transform="translate(311.152344 250.500563) scale(0.1 -0.1)">
      <defs>
       <path id="DejaVuSans-37" d="M -19 4666 
L 3928 4666 
L 3928 4134 
L 2272 4134 
L 2272 0 
L 1638 0 
L 1638 4134 
L -19 4134 
L -19 4666 
z
" transform="scale(0.015625)"/>
       <path id="DejaVuSans-4c" d="M 603 3500 
L 1178 3500 
L 1178 0 
L 603 0 
L 603 3500 
z
M 603 4863 
L 1178 4863 
L 1178 4134 
L 603 4134 
L 603 4863 
z
" transform="scale(0.015625)"/>
       <path id="DejaVuSans-50" d="M 3328 2828 
Q 3544 3216 3844 3400 
Q 4144 3584 4550 3584 
Q 5097 3584 5394 3201 
Q 5691 2819 5691 2113 
L 5691 0 
L 5113 0 
L 5113 2094 
Q 5113 2597 4934 2840 
Q 4756 3084 4391 3084 
Q 3944 3084 3684 2787 
Q 3425 2491 3425 1978 
L 3425 0 
L 2847 0 
L 2847 2094 
Q 2847 2600 2669 2842 
Q 2491 3084 2119 3084 
Q 1678 3084 1418 2786 
Q 1159 2488 1159 1978 
L 1159 0 
L 581 0 
L 581 3500 
L 1159 3500 
L 1159 2956 
Q 1356 3278 1631 3431 
Q 1906 3584 2284 3584 
Q 2666 3584 2933 3390 
Q 3200 3197 3328 2828 
z
" transform="scale(0.015625)"/>
       <path id="DejaVuSans-48" d="M 3597 1894 
L 3597 1613 
L 953 1613 
Q 991 1019 1311 708 
Q 1631 397 2203 397 
Q 2534 397 2845 478 
Q 3156 559 3463 722 
L 3463 178 
Q 3153 47 2828 -22 
Q 2503 -91 2169 -91 
Q 1331 -91 842 396 
Q 353 884 353 1716 
Q 353 2575 817 3079 
Q 1281 3584 2069 3584 
Q 2775 3584 3186 3129 
Q 3597 2675 3597 1894 
z
M 3022 2063 
Q 3016 2534 2758 2815 
Q 2500 3097 2075 3097 
Q 1594 3097 1305 2825 
Q 1016 2553 972 2059 
L 3022 2063 
z
" transform="scale(0.015625)"/>
       <path id="DejaVuSans-3" transform="scale(0.015625)"/>
       <path id="DejaVuSans-b" d="M 1984 4856 
Q 1566 4138 1362 3434 
Q 1159 2731 1159 2009 
Q 1159 1288 1364 580 
Q 1569 -128 1984 -844 
L 1484 -844 
Q 1016 -109 783 600 
Q 550 1309 550 2009 
Q 550 2706 781 3412 
Q 1013 4119 1484 4856 
L 1984 4856 
z
" transform="scale(0.015625)"/>
       <path id="DejaVuSans-56" d="M 2834 3397 
L 2834 2853 
Q 2591 2978 2328 3040 
Q 2066 3103 1784 3103 
Q 1356 3103 1142 2972 
Q 928 2841 928 2578 
Q 928 2378 1081 2264 
Q 1234 2150 1697 2047 
L 1894 2003 
Q 2506 1872 2764 1633 
Q 3022 1394 3022 966 
Q 3022 478 2636 193 
Q 2250 -91 1575 -91 
Q 1294 -91 989 -36 
Q 684 19 347 128 
L 347 722 
Q 666 556 975 473 
Q 1284 391 1588 391 
Q 1994 391 2212 530 
Q 2431 669 2431 922 
Q 2431 1156 2273 1281 
Q 2116 1406 1581 1522 
L 1381 1569 
Q 847 1681 609 1914 
Q 372 2147 372 2553 
Q 372 3047 722 3315 
Q 1072 3584 1716 3584 
Q 2034 3584 2315 3537 
Q 2597 3491 2834 3397 
z
" transform="scale(0.015625)"/>
       <path id="DejaVuSans-c" d="M 513 4856 
L 1013 4856 
Q 1481 4119 1714 3412 
Q 1947 2706 1947 2009 
Q 1947 1309 1714 600 
Q 1481 -109 1013 -844 
L 513 -844 
Q 928 -128 1133 580 
Q 1338 1288 1338 2009 
Q 1338 2731 1133 3434 
Q 928 4138 513 4856 
z
" transform="scale(0.015625)"/>
      </defs>
      <use xlink:href="#DejaVuSans-37"/>
      <use xlink:href="#DejaVuSans-4c" transform="translate(58 0)"/>
      <use xlink:href="#DejaVuSans-50" transform="translate(85.78125 0)"/>
      <use xlink:href="#DejaVuSans-48" transform="translate(183.1875 0)"/>
      <use xlink:href="#DejaVuSans-3" transform="translate(244.71875 0)"/>
      <use xlink:href="#DejaVuSans-b" transform="translate(276.5 0)"/>
      <use xlink:href="#DejaVuSans-56" transform="translate(315.515625 0)"/>
      <use xlink:href="#DejaVuSans-c" transform="translate(367.609375 0)"/>
     </g>
    </g>
   </g>
   <g id="matplotlib.axis_2">
    <g id="ytick_1">
     <g id="line2d_13">
      <path d="M 52.483594 192.268522 
L 610.483594 192.268522 
" clip-path="url(#pb70d339808)" style="fill: none; stroke: #b0b0b0; stroke-opacity: 0.25; stroke-width: 0.8; stroke-linecap: square"/>
     </g>
     <g id="line2d_14">
      <defs>
       <path id="m46dfa7469d" d="M 0 0 
L -3.5 0 
" style="stroke: #000000; stroke-width: 0.8"/>
      </defs>
      <g>
       <use xlink:href="#m46dfa7469d" x="52.483594" y="192.268522" style="stroke: #000000; stroke-width: 0.8"/>
      </g>
     </g>
     <g id="text_8">
      <!-- −1.0 -->
      <g transform="translate(21.200781 196.067351) scale(0.1 -0.1)">
       <defs>
        <path id="DejaVuSans-c9c" d="M 678 2272 
L 4684 2272 
L 4684 1741 
L 678 1741 
L 678 2272 
z
" transform="scale(0.015625)"/>
       </defs>
       <use xlink:href="#DejaVuSans-c9c"/>
       <use xlink:href="#DejaVuSans-14" transform="translate(83.796875 0)"/>
       <use xlink:href="#DejaVuSans-11" transform="translate(147.421875 0)"/>
       <use xlink:href="#DejaVuSans-13" transform="translate(179.203125 0)"/>
      </g>
     </g>
    </g>
    <g id="ytick_2">
     <g id="line2d_15">
      <path d="M 52.483594 156.995515 
L 610.483594 156.995515 
" clip-path="url(#pb70d339808)" style="fill: none; stroke: #b0b0b0; stroke-opacity: 0.25; stroke-width: 0.8; stroke-linecap: square"/>
     </g>
     <g id="line2d_16">
      <g>
       <use xlink:href="#m46dfa7469d" x="52.483594" y="156.995515" style="stroke: #000000; stroke-width: 0.8"/>
      </g>
     </g>
     <g id="text_9">
      <!-- −0.5 -->
      <g transform="translate(21.200781 160.794344) scale(0.1 -0.1)">
       <defs>
        <path id="DejaVuSans-18" d="M 691 4666 
L 3169 4666 
L 3169 4134 
L 1269 4134 
L 1269 2991 
Q 1406 3038 1543 3061 
Q 1681 3084 1819 3084 
Q 2600 3084 3056 2656 
Q 3513 2228 3513 1497 
Q 3513 744 3044 326 
Q 2575 -91 1722 -91 
Q 1428 -91 1123 -41 
Q 819 9 494 109 
L 494 744 
Q 775 591 1075 516 
Q 1375 441 1709 441 
Q 2250 441 2565 725 
Q 2881 1009 2881 1497 
Q 2881 1984 2565 2268 
Q 2250 2553 1709 2553 
Q 1456 2553 1204 2497 
Q 953 2441 691 2322 
L 691 4666 
z
" transform="scale(0.015625)"/>
       </defs>
       <use xlink:href="#DejaVuSans-c9c"/>
       <use xlink:href="#DejaVuSans-13" transform="translate(83.796875 0)"/>
       <use xlink:href="#DejaVuSans-11" transform="translate(147.421875 0)"/>
       <use xlink:href="#DejaVuSans-18" transform="translate(179.203125 0)"/>
      </g>
     </g>
    </g>
    <g id="ytick_3">
     <g id="line2d_17">
      <path d="M 52.483594 121.722508 
L 610.483594 121.722508 
" clip-path="url(#pb70d339808)" style="fill: none; stroke: #b0b0b0; stroke-opacity: 0.25; stroke-width: 0.8; stroke-linecap: square"/>
     </g>
     <g id="line2d_18">
      <g>
       <use xlink:href="#m46dfa7469d" x="52.483594" y="121.722508" style="stroke: #000000; stroke-width: 0.8"/>
      </g>
     </g>
     <g id="text_10">
      <!-- 0.0 -->
      <g transform="translate(29.580469 125.521337) scale(0.1 -0.1)">
       <use xlink:href="#DejaVuSans-13"/>
       <use xlink:href="#DejaVuSans-11" transform="translate(63.625 0)"/>
       <use xlink:href="#DejaVuSans-13" transform="translate(95.40625 0)"/>
      </g>
     </g>
    </g>
    <g id="ytick_4">
     <g id="line2d_19">
      <path d="M 52.483594 86.449502 
L 610.483594 86.449502 
" clip-path="url(#pb70d339808)" style="fill: none; stroke: #b0b0b0; stroke-opacity: 0.25; stroke-width: 0.8; stroke-linecap: square"/>
     </g>
     <g id="line2d_20">
      <g>
       <use xlink:href="#m46dfa7469d" x="52.483594" y="86.449502" style="stroke: #000000; stroke-width: 0.8"/>
      </g>
     </g>
     <g id="text_11">
      <!-- 0.5 -->
      <g transform="translate(29.580469 90.24833) scale(0.1 -0.1)">
       <use xlink:href="#DejaVuSans-13"/>
       <use xlink:href="#DejaVuSans-11" transform="translate(63.625 0)"/>
       <use xlink:href="#DejaVuSans-18" transform="translate(95.40625 0)"/>
      </g>
     </g>
    </g>
    <g id="ytick_5">
     <g id="line2d_21">
      <path d="M 52.483594 51.176495 
L 610.483594 51.176495 
" clip-path="url(#pb70d339808)" style="fill: none; stroke: #b0b0b0; stroke-opacity: 0.25; stroke-width: 0.8; stroke-linecap: square"/>
     </g>
     <g id="line2d_22">
      <g>
       <use xlink:href="#m46dfa7469d" x="52.483594" y="51.176495" style="stroke: #000000; stroke-width: 0.8"/>
      </g>
     </g>
     <g id="text_12">
      <!-- 1.0 -->
      <g transform="translate(29.580469 54.975323) scale(0.1 -0.1)">
       <use xlink:href="#DejaVuSans-14"/>
       <use xlink:href="#DejaVuSans-11" transform="translate(63.625 0)"/>
       <use xlink:href="#DejaVuSans-13" transform="translate(95.40625 0)"/>
      </g>
     </g>
    </g>
    <g id="text_13">
     <!-- Amplitude (physical unit) -->
     <g transform="translate(14.798438 184.997625) rotate(-90) scale(0.1 -0.1)">
      <defs>
       <path id="DejaVuSans-24" d="M 2188 4044 
L 1331 1722 
L 3047 1722 
L 2188 4044 
z
M 1831 4666 
L 2547 4666 
L 4325 0 
L 3669 0 
L 3244 1197 
L 1141 1197 
L 716 0 
L 50 0 
L 1831 4666 
z
" transform="scale(0.015625)"/>
       <path id="DejaVuSans-53" d="M 1159 525 
L 1159 -1331 
L 581 -1331 
L 581 3500 
L 1159 3500 
L 1159 2969 
Q 1341 3281 1617 3432 
Q 1894 3584 2278 3584 
Q 2916 3584 3314 3078 
Q 3713 2572 3713 1747 
Q 3713 922 3314 415 
Q 2916 -91 2278 -91 
Q 1894 -91 1617 61 
Q 1341 213 1159 525 
z
M 3116 1747 
Q 3116 2381 2855 2742 
Q 2594 3103 2138 3103 
Q 1681 3103 1420 2742 
Q 1159 2381 1159 1747 
Q 1159 1113 1420 752 
Q 1681 391 2138 391 
Q 2594 391 2855 752 
Q 3116 1113 3116 1747 
z
" transform="scale(0.015625)"/>
       <path id="DejaVuSans-4f" d="M 603 4863 
L 1178 4863 
L 1178 0 
L 603 0 
L 603 4863 
z
" transform="scale(0.015625)"/>
       <path id="DejaVuSans-57" d="M 1172 4494 
L 1172 3500 
L 2356 3500 
L 2356 3053 
L 1172 3053 
L 1172 1153 
Q 1172 725 1289 603 
Q 1406 481 1766 481 
L 2356 481 
L 2356 0 
L 1766 0 
Q 1100 0 847 248 
Q 594 497 594 1153 
L 594 3053 
L 172 3053 
L 172 3500 
L 594 3500 
L 594 4494 
L 1172 4494 
z
" transform="scale(0.015625)"/>
       <path id="DejaVuSans-58" d="M 544 1381 
L 544 3500 
L 1119 3500 
L 1119 1403 
Q 1119 906 1312 657 
Q 1506 409 1894 409 
Q 2359 409 2629 706 
Q 2900 1003 2900 1516 
L 2900 3500 
L 3475 3500 
L 3475 0 
L 2900 0 
L 2900 538 
Q 2691 219 2414 64 
Q 2138 -91 1772 -91 
Q 1169 -91 856 284 
Q 544 659 544 1381 
z
M 1991 3584 
L 1991 3584 
z
" transform="scale(0.015625)"/>
       <path id="DejaVuSans-47" d="M 2906 2969 
L 2906 4863 
L 3481 4863 
L 3481 0 
L 2906 0 
L 2906 525 
Q 2725 213 2448 61 
Q 2172 -91 1784 -91 
Q 1150 -91 751 415 
Q 353 922 353 1747 
Q 353 2572 751 3078 
Q 1150 3584 1784 3584 
Q 2172 3584 2448 3432 
Q 2725 3281 2906 2969 
z
M 947 1747 
Q 947 1113 1208 752 
Q 1469 391 1925 391 
Q 2381 391 2643 752 
Q 2906 1113 2906 1747 
Q 2906 2381 2643 2742 
Q 2381 3103 1925 3103 
Q 1469 3103 1208 2742 
Q 947 2381 947 1747 
z
" transform="scale(0.015625)"/>
       <path id="DejaVuSans-4b" d="M 3513 2113 
L 3513 0 
L 2938 0 
L 2938 2094 
Q 2938 2591 2744 2837 
Q 2550 3084 2163 3084 
Q 1697 3084 1428 2787 
Q 1159 2491 1159 1978 
L 1159 0 
L 581 0 
L 581 4863 
L 1159 4863 
L 1159 2956 
Q 1366 3272 1645 3428 
Q 1925 3584 2291 3584 
Q 2894 3584 3203 3211 
Q 3513 2838 3513 2113 
z
" transform="scale(0.015625)"/>
       <path id="DejaVuSans-5c" d="M 2059 -325 
Q 1816 -950 1584 -1140 
Q 1353 -1331 966 -1331 
L 506 -1331 
L 506 -850 
L 844 -850 
Q 1081 -850 1212 -737 
Q 1344 -625 1503 -206 
L 1606 56 
L 191 3500 
L 800 3500 
L 1894 763 
L 2988 3500 
L 3597 3500 
L 2059 -325 
z
" transform="scale(0.015625)"/>
       <path id="DejaVuSans-46" d="M 3122 3366 
L 3122 2828 
Q 2878 2963 2633 3030 
Q 2388 3097 2138 3097 
Q 1578 3097 1268 2742 
Q 959 2388 959 1747 
Q 959 1106 1268 751 
Q 1578 397 2138 397 
Q 2388 397 2633 464 
Q 2878 531 3122 666 
L 3122 134 
Q 2881 22 2623 -34 
Q 2366 -91 2075 -91 
Q 1284 -91 818 406 
Q 353 903 353 1747 
Q 353 2603 823 3093 
Q 1294 3584 2113 3584 
Q 2378 3584 2631 3529 
Q 2884 3475 3122 3366 
z
" transform="scale(0.015625)"/>
       <path id="DejaVuSans-44" d="M 2194 1759 
Q 1497 1759 1228 1600 
Q 959 1441 959 1056 
Q 959 750 1161 570 
Q 1363 391 1709 391 
Q 2188 391 2477 730 
Q 2766 1069 2766 1631 
L 2766 1759 
L 2194 1759 
z
M 3341 1997 
L 3341 0 
L 2766 0 
L 2766 531 
Q 2569 213 2275 61 
Q 1981 -91 1556 -91 
Q 1019 -91 701 211 
Q 384 513 384 1019 
Q 384 1609 779 1909 
Q 1175 2209 1959 2209 
L 2766 2209 
L 2766 2266 
Q 2766 2663 2505 2880 
Q 2244 3097 1772 3097 
Q 1472 3097 1187 3025 
Q 903 2953 641 2809 
L 641 3341 
Q 956 3463 1253 3523 
Q 1550 3584 1831 3584 
Q 2591 3584 2966 3190 
Q 3341 2797 3341 1997 
z
" transform="scale(0.015625)"/>
       <path id="DejaVuSans-51" d="M 3513 2113 
L 3513 0 
L 2938 0 
L 2938 2094 
Q 2938 2591 2744 2837 
Q 2550 3084 2163 3084 
Q 1697 3084 1428 2787 
Q 1159 2491 1159 1978 
L 1159 0 
L 581 0 
L 581 3500 
L 1159 3500 
L 1159 2956 
Q 1366 3272 1645 3428 
Q 1925 3584 2291 3584 
Q 2894 3584 3203 3211 
Q 3513 2838 3513 2113 
z
" transform="scale(0.015625)"/>
      </defs>
      <use xlink:href="#DejaVuSans-24"/>
      <use xlink:href="#DejaVuSans-50" transform="translate(68.40625 0)"/>
      <use xlink:href="#DejaVuSans-53" transform="translate(165.8125 0)"/>
      <use xlink:href="#DejaVuSans-4f" transform="translate(229.296875 0)"/>
      <use xlink:href="#DejaVuSans-4c" transform="translate(257.078125 0)"/>
      <use xlink:href="#DejaVuSans-57" transform="translate(284.859375 0)"/>
      <use xlink:href="#DejaVuSans-58" transform="translate(324.0625 0)"/>
      <use xlink:href="#DejaVuSans-47" transform="translate(387.4375 0)"/>
      <use xlink:href="#DejaVuSans-48" transform="translate(450.921875 0)"/>
      <use xlink:href="#DejaVuSans-3" transform="translate(512.453125 0)"/>
      <use xlink:href="#DejaVuSans-b" transform="translate(544.234375 0)"/>
      <use xlink:href="#DejaVuSans-53" transform="translate(583.25 0)"/>
      <use xlink:href="#DejaVuSans-4b" transform="translate(646.734375 0)"/>
      <use xlink:href="#DejaVuSans-5c" transform="translate(710.109375 0)"/>
      <use xlink:href="#DejaVuSans-56" transform="translate(769.296875 0)"/>
      <use xlink:href="#DejaVuSans-4c" transform="translate(821.390625 0)"/>
      <use xlink:href="#DejaVuSans-46" transform="translate(849.171875 0)"/>
      <use xlink:href="#DejaVuSans-44" transform="translate(904.15625 0)"/>
      <use xlink:href="#DejaVuSans-4f" transform="translate(965.4375 0)"/>
      <use xlink:href="#DejaVuSans-3" transform="translate(993.21875 0)"/>
      <use xlink:href="#DejaVuSans-58" transform="translate(1025 0)"/>
      <use xlink:href="#DejaVuSans-51" transform="translate(1088.375 0)"/>
      <use xlink:href="#DejaVuSans-4c" transform="translate(1151.75 0)"/>
      <use xlink:href="#DejaVuSans-57" transform="translate(1179.53125 0)"/>
      <use xlink:href="#DejaVuSans-c" transform="translate(1218.734375 0)"/>
     </g>
    </g>
   </g>
   <g id="line2d_23">
    <path d="M 77.84723 133.867524 
L 78.355011 93.864345 
L 78.862791 118.908675 
L 79.370572 101.305509 
L 79.878352 42.846529 
L 80.386133 96.379079 
L 80.893913 115.586837 
L 81.401694 58.431454 
L 81.909474 124.602357 
L 82.925035 79.867483 
L 83.432816 115.838696 
L 83.940596 135.17594 
L 84.448377 104.675835 
L 84.956157 137.674422 
L 85.463938 193.915476 
L 85.971718 151.712415 
L 86.479499 136.61257 
L 86.987279 196.084236 
L 87.49506 141.139118 
L 88.00284 152.228767 
L 88.510621 170.596616 
L 89.018401 132.33662 
L 89.526182 126.861658 
L 90.033962 156.125546 
L 90.541743 133.360398 
L 91.049523 76.16955 
L 91.557304 127.985343 
L 92.065084 123.292661 
L 92.572865 66.804346 
L 93.080645 114.276604 
L 93.588426 99.338014 
L 94.096206 64.713105 
L 94.603987 97.777222 
L 95.111767 107.629802 
L 95.619548 78.588093 
L 96.127328 113.079696 
L 96.635109 128.606649 
L 97.142889 90.352779 
L 97.65067 135.764132 
L 98.15845 165.766733 
L 98.666231 119.891046 
L 99.174011 137.718138 
L 99.681792 178.441705 
L 100.189572 131.584754 
L 100.697353 145.950544 
L 101.205133 177.722414 
L 101.712914 156.401614 
L 102.220694 117.878568 
L 102.728475 159.079765 
L 103.236256 132.122539 
L 103.744036 90.880014 
L 104.251817 139.021788 
L 105.267378 50.929863 
L 105.775158 108.764612 
L 106.282939 91.794814 
L 106.790719 40.093093 
L 107.2985 102.679586 
L 107.80628 105.209765 
L 108.314061 74.391929 
L 108.821841 119.330814 
L 109.329622 138.527899 
L 109.837402 97.660297 
L 110.345183 130.445569 
L 110.852963 178.606238 
L 111.360744 143.89614 
L 111.868524 144.712996 
L 112.376305 186.406993 
L 112.884085 138.292321 
L 113.391866 129.106981 
L 113.899646 185.739599 
L 114.407427 130.7417 
L 114.915207 98.349273 
L 115.422988 175.735254 
L 115.930768 125.809135 
L 116.438549 96.445016 
L 116.946329 135.930415 
L 117.96189 55.00159 
L 118.469671 103.874006 
L 118.977451 98.455008 
L 119.485232 64.266081 
L 119.993012 85.656788 
L 120.500793 125.29869 
L 121.008573 83.480064 
L 122.024134 133.421607 
L 122.531915 95.222564 
L 123.039695 122.229534 
L 123.547476 156.237056 
L 124.055256 128.682812 
L 124.563037 138.094542 
L 125.070817 188.379961 
L 125.578598 159.744155 
L 126.086378 142.173632 
L 126.594159 180.546395 
L 127.101939 136.780497 
L 127.60972 130.623889 
L 128.1175 156.873855 
L 128.625281 113.517112 
L 129.133061 84.82347 
L 129.640842 126.417082 
L 130.148622 100.20029 
L 130.656403 55.775482 
L 131.164183 113.875952 
L 131.671964 116.986906 
L 132.179744 46.28359 
L 133.195305 116.598104 
L 133.703086 68.742637 
L 134.210866 97.259277 
L 134.718647 139.380334 
L 135.226427 93.581874 
L 135.734208 121.044764 
L 136.241989 184.980353 
L 136.749769 124.586985 
L 137.25755 144.588393 
L 137.76533 196.055186 
L 138.273111 147.660882 
L 138.780891 148.260122 
L 139.288672 195.129535 
L 140.304233 117.155325 
L 140.812013 171.424616 
L 141.319794 114.905459 
L 141.827574 74.17089 
L 142.335355 119.116605 
L 142.843135 110.408059 
L 143.350916 53.954081 
L 143.858696 102.470979 
L 144.366477 98.178851 
L 144.874257 46.708654 
L 145.382038 115.593188 
L 145.889818 119.285664 
L 146.397599 87.746077 
L 147.41316 146.227984 
L 147.92094 91.537652 
L 148.936501 168.081989 
L 149.444282 127.262825 
L 149.952062 138.211089 
L 150.459843 212.830125 
L 150.967623 155.753121 
L 151.475404 152.29521 
L 151.983184 212.624233 
L 152.490965 140.584168 
L 152.998745 110.20454 
L 153.506526 148.893429 
L 154.014306 126.340494 
L 154.522087 65.183651 
L 155.029867 132.600337 
L 155.537648 112.751992 
L 156.045428 52.829031 
L 156.553209 103.230468 
L 157.060989 103.176031 
L 157.56877 41.308424 
L 158.07655 106.847117 
L 158.584331 112.087994 
L 159.092111 59.915738 
L 160.107672 130.662331 
L 160.615453 93.00019 
L 161.631014 175.875681 
L 162.138794 127.403229 
L 162.646575 149.696389 
L 163.154355 206.947062 
L 163.662136 137.681726 
L 164.169916 146.547515 
L 164.677697 183.861357 
L 165.185477 153.310019 
L 165.693258 115.618002 
L 166.201038 158.810231 
L 166.708819 123.864062 
L 167.216599 81.042665 
L 167.72438 118.879744 
L 168.23216 91.384455 
L 168.739941 55.888132 
L 169.247722 100.365576 
L 169.755502 108.278717 
L 170.263283 36.446172 
L 170.771063 103.710458 
L 171.278844 108.262661 
L 171.786624 83.747273 
L 172.294405 109.127332 
L 172.802185 149.267867 
L 173.309966 104.53732 
L 173.817746 135.355053 
L 174.325527 182.807733 
L 174.833307 119.11765 
L 175.341088 145.911107 
L 175.848868 193.715089 
L 176.356649 138.838716 
L 176.864429 143.898774 
L 177.37221 205.312631 
L 177.87999 132.407378 
L 178.387771 117.08216 
L 178.895551 152.719539 
L 179.403332 125.254279 
L 179.911112 82.080901 
L 180.418893 128.269707 
L 180.926673 113.15456 
L 181.434454 67.774383 
L 181.942234 93.222432 
L 182.450015 105.62864 
L 182.957795 52.232286 
L 183.465576 102.282091 
L 183.973356 111.159147 
L 184.481137 74.565433 
L 184.988917 99.706847 
L 185.496698 149.516318 
L 186.004478 86.645004 
L 187.020039 170.304814 
L 187.52782 119.340668 
L 188.0356 137.85139 
L 188.543381 203.753529 
L 189.051161 133.616859 
L 189.558942 131.490938 
L 190.066722 176.549414 
L 191.082283 106.756806 
L 191.590064 157.967695 
L 192.097844 109.904248 
L 192.605625 83.66624 
L 193.113405 124.869921 
L 193.621186 115.143529 
L 194.128966 61.291365 
L 194.636747 85.332087 
L 195.144527 90.715639 
L 195.652308 59.72449 
L 196.160088 99.476441 
L 196.667869 120.03173 
L 197.175649 84.570264 
L 197.68343 116.95192 
L 198.19121 127.356552 
L 198.698991 96.341424 
L 199.714552 169.206598 
L 200.222332 120.297327 
L 200.730113 146.494094 
L 201.237894 178.978282 
L 201.745674 152.176046 
L 202.253455 142.23583 
L 202.761235 168.537547 
L 203.269016 152.583602 
L 203.776796 115.2561 
L 204.284577 159.560124 
L 204.792357 129.288739 
L 205.300138 88.969113 
L 205.807918 120.994635 
L 206.315699 105.145027 
L 206.823479 56.871816 
L 207.33126 85.614115 
L 207.83904 87.496455 
L 208.346821 41.466422 
L 209.362382 113.721588 
L 209.870162 71.187085 
L 210.885723 141.546522 
L 211.393504 92.141564 
L 211.901284 125.071245 
L 212.409065 172.508364 
L 212.916845 140.676904 
L 213.424626 151.898213 
L 213.932406 180.471217 
L 214.440187 144.551805 
L 214.947967 131.419107 
L 215.455748 158.282132 
L 216.471309 128.210607 
L 216.979089 168.915895 
L 217.48687 119.214567 
L 217.99465 83.842269 
L 218.502431 126.229977 
L 219.010211 115.667606 
L 219.517992 61.213785 
L 220.025772 100.443709 
L 220.533553 99.867345 
L 221.041333 49.828551 
L 221.549114 96.139748 
L 222.056894 110.078768 
L 222.564675 74.659197 
L 223.072455 110.260916 
L 223.580236 134.19519 
L 224.088016 105.053076 
L 224.595797 126.137711 
L 225.103577 180.729064 
L 225.611358 114.803869 
L 226.626919 181.377385 
L 227.134699 146.279425 
L 227.64248 136.6089 
L 228.15026 176.809941 
L 228.658041 136.331412 
L 229.165821 132.413855 
L 229.673602 160.055863 
L 230.689163 89.558119 
L 231.196943 118.25655 
L 231.704724 99.189503 
L 232.212504 50.043172 
L 232.720285 103.462231 
L 233.228065 108.94279 
L 233.735846 50.272392 
L 234.243627 102.909466 
L 234.751407 115.652054 
L 235.259188 67.923453 
L 235.766968 120.050646 
L 236.274749 138.194161 
L 236.782529 118.1107 
L 237.29031 142.121291 
L 237.79809 173.320622 
L 238.305871 129.051216 
L 238.813651 123.91329 
L 239.321432 173.712728 
L 239.829212 150.67395 
L 240.336993 151.752055 
L 240.844773 197.622165 
L 241.352554 141.835129 
L 241.860334 114.10904 
L 242.368115 165.719615 
L 242.875895 131.672459 
L 243.383676 72.146745 
L 243.891456 121.688361 
L 244.399237 110.441327 
L 244.907017 46.007939 
L 245.414798 103.711084 
L 245.922578 112.863987 
L 246.430359 47.725965 
L 246.938139 89.413186 
L 247.44592 112.315285 
L 247.9537 64.101131 
L 248.461481 113.507142 
L 248.969261 141.463009 
L 249.477042 95.380532 
L 249.984822 132.419086 
L 250.492603 190.500256 
L 251.000383 133.231978 
L 251.508164 125.672355 
L 252.015944 183.410428 
L 252.523725 143.708371 
L 253.031505 153.667407 
L 253.539286 182.251939 
L 254.047066 153.605746 
L 254.554847 112.901211 
L 255.062627 168.413668 
L 255.570408 132.629589 
L 256.078188 70.579928 
L 256.585969 131.634926 
L 257.093749 110.116993 
L 257.60153 64.075304 
L 258.10931 105.789104 
L 258.617091 92.547514 
L 259.124871 57.754522 
L 259.632652 87.466575 
L 260.140432 105.480535 
L 260.648213 79.040335 
L 261.663774 145.002186 
L 262.171554 89.082885 
L 262.679335 137.155423 
L 263.187115 161.229656 
L 263.694896 120.468448 
L 264.710457 189.750178 
L 265.218237 133.164224 
L 265.726018 139.024807 
L 266.233799 192.197093 
L 267.24936 101.990509 
L 267.75714 146.928605 
L 268.264921 121.262255 
L 268.772701 86.458677 
L 269.280482 135.464629 
L 269.788262 102.067409 
L 270.296043 55.646913 
L 270.803823 115.553669 
L 271.311604 106.142389 
L 271.819384 40.527147 
L 272.327165 103.491306 
L 272.834945 101.771796 
L 273.342726 68.889837 
L 274.358287 143.239281 
L 274.866067 108.825115 
L 275.373848 156.32074 
L 275.881628 172.61638 
L 276.389409 141.411509 
L 276.897189 145.568323 
L 277.40497 187.508739 
L 277.91275 131.542474 
L 278.420531 138.18428 
L 278.928311 186.412804 
L 279.436092 119.251946 
L 279.943872 128.4213 
L 280.451653 162.134428 
L 280.959433 117.713712 
L 281.467214 95.732953 
L 281.974994 127.201201 
L 282.482775 102.219155 
L 282.990555 56.040886 
L 283.498336 108.130449 
L 284.006116 107.998236 
L 284.513897 51.645039 
L 285.021677 90.880627 
L 285.529458 103.342157 
L 286.037238 68.214664 
L 286.545019 108.530386 
L 287.052799 161.251015 
L 287.56058 106.499692 
L 288.06836 123.64936 
L 288.576141 185.711606 
L 289.083921 113.015837 
L 290.099482 187.651539 
L 290.607263 152.960896 
L 291.115043 140.389511 
L 291.622824 179.550098 
L 292.638385 109.372072 
L 293.146165 179.994093 
L 294.161726 81.241821 
L 294.669507 112.277442 
L 295.177287 97.763264 
L 295.685068 56.606673 
L 296.192848 78.571459 
L 296.700629 94.200044 
L 297.208409 41.441645 
L 297.71619 103.813905 
L 298.22397 113.722196 
L 298.731751 67.290375 
L 299.239532 109.879925 
L 299.747312 134.98663 
L 300.255093 101.682534 
L 300.762873 126.603151 
L 301.270654 181.632635 
L 301.778434 113.091085 
L 302.793995 200.675322 
L 303.301776 129.847653 
L 303.809556 139.516934 
L 304.317337 178.339541 
L 304.825117 146.182967 
L 305.332898 131.213535 
L 305.840678 163.698937 
L 306.348459 108.083109 
L 306.856239 86.016993 
L 307.36402 137.024053 
L 308.379581 61.619617 
L 308.887361 94.574127 
L 309.395142 89.634765 
L 309.902922 54.02539 
L 310.410703 106.944121 
L 310.918483 132.789646 
L 311.426264 71.445086 
L 312.441825 150.115702 
L 312.949605 104.675215 
L 313.457386 130.603367 
L 313.965166 171.438514 
L 314.472947 123.715368 
L 314.980727 133.481767 
L 315.488508 204.175868 
L 315.996288 141.930334 
L 316.504069 157.46204 
L 317.011849 201.654031 
L 317.51963 131.802772 
L 318.02741 103.220654 
L 318.535191 149.590632 
L 319.042971 116.917658 
L 319.550752 93.18642 
L 320.058532 133.254249 
L 320.566313 106.763054 
L 321.074093 60.918237 
L 321.581874 104.296569 
L 322.089654 108.725041 
L 322.597435 57.043778 
L 323.105215 86.68444 
L 323.612996 109.58378 
L 324.120776 63.071004 
L 324.628557 116.843146 
L 325.136337 142.852826 
L 325.644118 109.321038 
L 326.151898 126.020542 
L 326.659679 181.490646 
L 327.167459 124.429408 
L 327.67524 138.042986 
L 328.18302 191.403781 
L 328.690801 146.004961 
L 329.198581 141.73402 
L 329.706362 187.006502 
L 330.214142 132.173296 
L 330.721923 108.209593 
L 331.229703 148.146985 
L 331.737484 122.652906 
L 332.245265 88.952071 
L 332.753045 120.517397 
L 333.260826 101.15718 
L 333.768606 47.793246 
L 334.276387 106.515519 
L 334.784167 94.783222 
L 335.291948 70.880732 
L 335.799728 105.376661 
L 336.307509 102.78272 
L 336.815289 68.791609 
L 337.32307 95.31375 
L 337.83085 133.564129 
L 338.338631 103.36029 
L 338.846411 128.566829 
L 339.354192 175.105892 
L 339.861972 132.916122 
L 340.369753 145.74029 
L 340.877533 200.098778 
L 341.385314 158.033898 
L 341.893094 143.483421 
L 342.400875 180.585982 
L 342.908655 158.68206 
L 343.416436 120.070892 
L 343.924216 139.18972 
L 344.431997 132.222082 
L 344.939777 94.816447 
L 345.447558 135.857992 
L 346.463119 67.873509 
L 346.970899 99.245675 
L 347.47868 97.123327 
L 347.98646 60.280376 
L 348.494241 101.12922 
L 349.002021 107.427942 
L 349.509802 55.617514 
L 350.017582 107.50232 
L 350.525363 141.423525 
L 351.033143 97.403545 
L 351.540924 134.138125 
L 352.048704 183.349638 
L 352.556485 136.664878 
L 353.064265 134.45207 
L 353.572046 189.764213 
L 354.079826 149.867834 
L 354.587607 147.843076 
L 355.095387 197.902042 
L 355.603168 138.927263 
L 356.110948 116.321405 
L 356.618729 156.274102 
L 357.63429 75.915109 
L 358.14207 107.633136 
L 358.649851 97.971777 
L 359.157631 52.707343 
L 359.665412 90.050936 
L 360.173192 100.641991 
L 360.680973 43.074285 
L 361.188753 98.635008 
L 361.696534 120.342606 
L 362.204314 74.178782 
L 363.219875 140.068807 
L 363.727656 98.888205 
L 364.235437 124.280535 
L 364.743217 172.267123 
L 365.250998 120.772835 
L 365.758778 139.282259 
L 366.266559 200.005131 
L 366.774339 148.950597 
L 367.28212 133.075021 
L 367.7899 183.600395 
L 368.805461 111.040513 
L 369.313242 157.658507 
L 370.328803 84.116114 
L 370.836583 137.32193 
L 371.852144 56.435739 
L 372.359925 104.396998 
L 372.867705 95.668715 
L 373.375486 43.447176 
L 373.883266 92.936235 
L 374.391047 116.438244 
L 374.898827 73.338437 
L 375.914388 155.644059 
L 376.422169 100.406764 
L 376.929949 137.597121 
L 377.43773 160.625461 
L 377.94551 119.551031 
L 378.453291 144.332427 
L 378.961071 192.395923 
L 379.468852 162.645626 
L 379.976632 152.301886 
L 380.484413 176.70563 
L 380.992193 147.433855 
L 381.499974 111.129681 
L 382.007754 164.779749 
L 383.023315 80.020477 
L 383.531096 128.399987 
L 384.038876 110.096104 
L 384.546657 56.81519 
L 385.054437 110.66746 
L 385.562218 88.645678 
L 386.069998 49.331626 
L 386.577779 94.453376 
L 387.085559 115.625789 
L 387.59334 75.055221 
L 388.10112 114.820278 
L 388.608901 125.445077 
L 389.116681 97.597295 
L 390.132242 155.228125 
L 390.640023 130.606612 
L 391.147803 142.451697 
L 391.655584 199.758934 
L 392.163364 156.817958 
L 392.671145 130.989898 
L 393.178925 175.871928 
L 394.194486 108.787662 
L 394.702267 169.473635 
L 395.210047 113.802962 
L 395.717828 90.449456 
L 396.225608 126.983696 
L 396.733389 106.556153 
L 397.24117 69.020775 
L 397.74895 103.472603 
L 398.256731 112.655016 
L 398.764511 56.882011 
L 399.780072 127.133513 
L 400.287853 68.521255 
L 400.795633 121.608973 
L 401.303414 151.393138 
L 401.811194 99.675147 
L 402.318975 136.118243 
L 402.826755 160.602991 
L 403.334536 133.00672 
L 403.842316 147.636182 
L 404.350097 195.312514 
L 404.857877 152.430372 
L 405.365658 128.010554 
L 405.873438 177.533648 
L 406.888999 122.400469 
L 407.39678 165.196389 
L 407.90456 111.661835 
L 408.412341 73.322613 
L 408.920121 123.128427 
L 409.427902 119.077147 
L 409.935682 60.975469 
L 410.443463 106.437689 
L 410.951243 109.582903 
L 411.459024 53.923113 
L 411.966804 98.246376 
L 412.474585 108.110022 
L 412.982365 56.116364 
L 413.997926 160.42365 
L 414.505707 99.60935 
L 415.013487 126.250874 
L 415.521268 178.793573 
L 416.029048 155.504088 
L 416.536829 152.398036 
L 417.044609 192.892475 
L 417.55239 128.692943 
L 418.06017 150.371303 
L 418.567951 191.785306 
L 419.583512 114.326082 
L 420.091292 150.628734 
L 421.106853 79.965504 
L 421.614634 119.239652 
L 422.630195 58.434986 
L 423.137975 109.056123 
L 423.645756 82.982077 
L 424.153536 41.462811 
L 424.661317 88.587757 
L 425.169097 121.99845 
L 425.676878 57.564652 
L 426.184658 116.193909 
L 426.692439 147.077347 
L 427.200219 89.834988 
L 427.708 123.82773 
L 428.21578 174.702652 
L 428.723561 127.579304 
L 429.231341 138.622419 
L 429.739122 192.215768 
L 430.246903 159.285761 
L 430.754683 141.913856 
L 431.262464 181.041102 
L 431.770244 120.938021 
L 432.278025 110.630207 
L 432.785805 168.606389 
L 433.801366 82.050631 
L 434.309147 123.651768 
L 434.816927 110.329148 
L 435.324708 56.634263 
L 435.832488 90.798352 
L 436.340269 97.592108 
L 436.848049 43.001093 
L 437.35583 106.18973 
L 437.86361 116.894394 
L 438.371391 59.597873 
L 438.879171 107.799664 
L 439.386952 140.714665 
L 439.894732 100.61058 
L 440.402513 125.369572 
L 440.910293 175.845656 
L 441.418074 127.49323 
L 441.925854 156.454506 
L 442.433635 195.724665 
L 442.941415 146.055786 
L 443.449196 137.314906 
L 443.956976 198.841989 
L 444.464757 141.809595 
L 444.972537 106.024462 
L 445.480318 169.172537 
L 446.495879 81.913515 
L 447.003659 113.97361 
L 447.51144 107.828373 
L 448.01922 62.528929 
L 448.527001 88.243037 
L 449.034781 81.947519 
L 449.542562 64.826159 
L 450.050342 112.636791 
L 450.558123 107.067806 
L 451.065903 68.273412 
L 452.081464 149.626408 
L 452.589245 96.653179 
L 453.097025 122.911441 
L 453.604806 169.789387 
L 454.112586 125.987373 
L 454.620367 133.741099 
L 455.128147 184.780089 
L 455.635928 141.663314 
L 456.143708 152.244494 
L 456.651489 202.652889 
L 457.159269 136.829192 
L 457.66705 104.577248 
L 458.17483 143.588388 
L 458.682611 118.800813 
L 459.190391 75.911235 
L 459.698172 138.485908 
L 460.205952 88.13889 
L 460.713733 74.633188 
L 461.221513 107.248705 
L 461.729294 93.909188 
L 462.237075 59.87343 
L 462.744855 106.250682 
L 463.252636 118.82868 
L 463.760416 54.088996 
L 464.268197 122.113251 
L 464.775977 133.871682 
L 465.283758 87.394993 
L 465.791538 117.89072 
L 466.299319 170.793454 
L 466.807099 143.368895 
L 467.31488 138.490408 
L 467.82266 198.881497 
L 468.330441 140.158551 
L 468.838221 154.026171 
L 469.346002 187.737437 
L 469.853782 145.00695 
L 470.361563 115.389087 
L 470.869343 177.106243 
L 471.377124 117.989237 
L 471.884904 93.168715 
L 472.392685 130.481315 
L 472.900465 93.90922 
L 473.408246 48.593419 
L 473.916026 106.750437 
L 474.423807 99.094946 
L 474.931587 78.78984 
L 475.439368 111.840343 
L 475.947148 105.344418 
L 476.454929 80.312344 
L 476.962709 98.682927 
L 477.47049 145.591106 
L 477.97827 85.846844 
L 478.486051 146.624425 
L 478.993831 170.967188 
L 479.501612 139.550442 
L 480.009392 138.471147 
L 480.517173 200.751978 
L 481.024953 141.897601 
L 481.532734 129.334806 
L 482.040514 181.864548 
L 482.548295 138.326796 
L 483.056075 120.403924 
L 483.563856 153.105748 
L 484.579417 83.940341 
L 485.087197 123.871016 
L 485.594978 97.550492 
L 486.102758 48.802934 
L 486.610539 108.385858 
L 487.118319 104.645933 
L 487.6261 57.930999 
L 488.13388 104.070669 
L 488.641661 116.771935 
L 489.149441 70.121984 
L 489.657222 108.211957 
L 490.165002 135.727166 
L 490.672783 97.015278 
L 491.180563 145.596972 
L 491.688344 161.772866 
L 492.196124 123.309795 
L 492.703905 154.453157 
L 493.211685 201.890298 
L 493.719466 144.530738 
L 494.227246 141.121842 
L 494.735027 182.945861 
L 495.242808 127.34735 
L 495.750588 117.975056 
L 496.258369 164.850753 
L 496.766149 119.59929 
L 497.27393 91.559715 
L 497.78171 116.61549 
L 498.289491 93.205328 
L 498.797271 53.242247 
L 499.305052 114.413443 
L 499.812832 96.20479 
L 500.320613 57.584265 
L 500.828393 110.107722 
L 501.336174 104.346316 
L 501.843954 65.102381 
L 502.351735 96.381946 
L 502.859515 147.183139 
L 503.367296 82.196382 
L 504.382857 178.596406 
L 504.890637 117.300301 
L 505.398418 153.736633 
L 505.906198 180.07865 
L 506.413979 135.873403 
L 506.921759 150.996029 
L 507.42954 188.059915 
L 507.93732 130.057656 
L 508.445101 110.595469 
L 508.952881 157.72136 
L 509.968442 81.837936 
L 510.476223 135.864294 
L 511.491784 62.714777 
L 511.999564 95.754614 
L 512.507345 115.352806 
L 513.015125 49.151259 
L 513.522906 106.961476 
L 514.030686 110.833249 
L 514.538467 63.740314 
L 515.046247 97.73384 
L 515.554028 141.29089 
L 516.061808 99.438474 
L 516.569589 139.266623 
L 517.077369 166.548533 
L 517.58515 140.340305 
L 518.09293 144.199716 
L 518.600711 190.339797 
L 519.108491 140.184374 
L 519.616272 130.009816 
L 520.124052 184.602014 
L 520.631833 140.555202 
L 521.139613 120.760424 
L 521.647394 156.689761 
L 522.155174 125.09763 
L 522.662955 77.368309 
L 523.170735 131.60096 
L 524.186296 64.987726 
L 524.694077 98.194095 
L 525.201857 108.184044 
L 525.709638 54.540787 
L 526.217418 90.383966 
L 526.725199 116.572368 
L 527.232979 78.055546 
L 527.74076 99.222096 
L 528.248541 141.526754 
L 528.756321 90.111949 
L 529.264102 119.808192 
L 529.771882 173.449347 
L 530.279663 146.941984 
L 530.787443 143.393732 
L 531.295224 196.842436 
L 531.803004 149.520828 
L 532.310785 136.634806 
L 532.818565 196.56472 
L 533.326346 148.499016 
L 533.834126 114.063234 
L 534.341907 160.019413 
L 535.357468 79.617605 
L 535.865248 135.503157 
L 536.880809 58.516847 
L 537.38859 107.000806 
L 537.89637 88.381246 
L 538.404151 49.467075 
L 538.911931 98.753143 
L 539.419712 113.659349 
L 539.927492 82.523113 
L 540.435273 108.955421 
L 540.943053 149.07835 
L 541.450834 101.620536 
L 541.958614 115.084057 
L 542.466395 173.89786 
L 542.974175 127.257669 
L 543.481956 154.089437 
L 543.989736 203.026721 
L 544.497517 147.812277 
L 545.005297 134.913105 
L 545.513078 184.965588 
L 546.020858 143.322206 
L 546.528639 119.263018 
L 547.036419 166.777505 
L 548.05198 87.290719 
L 548.559761 120.056067 
L 549.067541 96.848686 
L 549.575322 54.138451 
L 550.083102 90.474205 
L 550.590883 106.737308 
L 551.098663 40.223148 
L 551.606444 98.6393 
L 552.114224 117.977159 
L 552.622005 59.158905 
L 553.129785 119.995113 
L 553.637566 131.845936 
L 554.145346 88.160201 
L 555.160907 178.070616 
L 555.668688 133.162185 
L 556.176468 142.665499 
L 556.684249 170.062539 
L 557.192029 143.338107 
L 557.69981 141.247115 
L 558.20759 195.051698 
L 558.715371 149.920789 
L 559.223151 123.638081 
L 559.730932 175.979214 
L 560.746493 86.031801 
L 561.254274 113.770538 
L 561.762054 112.273834 
L 562.269835 53.239962 
L 562.777615 99.537698 
L 563.285396 105.011829 
L 563.793176 50.789274 
L 564.300957 90.718243 
L 564.808737 100.734031 
L 565.316518 82.99805 
L 565.824298 102.234919 
L 566.332079 134.594714 
L 566.839859 91.73254 
L 567.85542 180.279329 
L 568.363201 127.927917 
L 568.870981 143.806025 
L 569.378762 188.943827 
L 569.886542 149.805736 
L 570.394323 140.013222 
L 570.902103 184.681311 
L 571.917664 117.640015 
L 572.425445 158.017716 
L 572.933225 115.548289 
L 573.441006 92.062313 
L 573.948786 128.044536 
L 574.964347 64.502155 
L 575.472128 98.982648 
L 575.979908 112.606442 
L 576.487689 61.460169 
L 577.50325 125.365324 
L 578.01103 63.189829 
L 579.026591 156.470584 
L 579.534372 93.81852 
L 580.042152 147.266834 
L 580.549933 174.654807 
L 581.057713 114.384542 
L 581.565494 132.546179 
L 582.073274 201.985081 
L 582.581055 138.500394 
L 583.088835 140.971209 
L 583.596616 178.430526 
L 584.104396 161.329652 
L 584.612177 115.665586 
L 585.119957 172.293008 
L 585.119957 172.293008 
" clip-path="url(#pb70d339808)" style="fill: none; stroke: #1f77b4; stroke-width: 0.9; stroke-linecap: square"/>
   </g>
   <g id="line2d_24">
    <path d="M 77.84723 120.050955 
L 78.355011 80.091275 
L 78.862791 106.179029 
L 79.370572 88.919133 
L 79.878352 31.390125 
L 80.386133 85.485443 
L 80.893913 105.447915 
L 81.401694 49.009783 
L 81.909474 115.723305 
L 82.925035 72.136983 
L 83.432816 109.023796 
L 83.940596 128.47455 
L 84.448377 98.972688 
L 84.956157 131.90901 
L 85.463938 189.235622 
L 85.971718 146.833469 
L 86.479499 132.912088 
L 86.987279 192.084198 
L 87.49506 138.40899 
L 88.00284 149.124677 
L 88.510621 168.840589 
L 89.018401 130.144136 
L 89.526182 126.06956 
L 90.033962 154.832549 
L 90.541743 133.484767 
L 91.049523 75.716587 
L 91.557304 128.927689 
L 92.065084 123.565296 
L 92.572865 68.414641 
L 93.080645 115.111683 
L 93.588426 101.427783 
L 94.096206 65.917625 
L 94.603987 100.143379 
L 95.111767 109.008195 
L 95.619548 81.042215 
L 96.127328 114.463327 
L 96.635109 131.002863 
L 97.142889 91.624618 
L 97.65067 138.018824 
L 98.15845 166.875157 
L 98.666231 121.989456 
L 99.174011 138.676346 
L 99.681792 180.429601 
L 100.189572 132.455805 
L 100.697353 147.912796 
L 101.205133 178.593337 
L 101.712914 158.432536 
L 102.220694 118.829524 
L 102.728475 161.252092 
L 103.236256 133.198442 
L 103.744036 93.220165 
L 104.251817 140.213763 
L 104.759597 100.96314 
L 105.267378 52.171851 
L 105.775158 111.29185 
L 106.282939 92.976808 
L 106.790719 42.553119 
L 107.2985 103.674391 
L 107.80628 107.482176 
L 108.314061 75.088288 
L 108.821841 121.325749 
L 109.329622 138.860898 
L 109.837402 99.344148 
L 110.345183 130.416141 
L 110.852963 180.013519 
L 111.360744 143.574654 
L 111.868524 145.941354 
L 112.376305 185.920064 
L 112.884085 139.482057 
L 113.391866 128.611042 
L 113.899646 187.043157 
L 114.407427 130.390221 
L 114.915207 99.89838 
L 115.422988 175.647463 
L 115.930768 127.687119 
L 116.438549 96.682935 
L 116.946329 138.155583 
L 117.96189 57.525374 
L 118.469671 104.687236 
L 118.977451 101.175682 
L 119.485232 65.226788 
L 119.993012 88.445565 
L 120.500793 126.288477 
L 121.008573 86.212849 
L 121.516354 107.653248 
L 122.024134 136.008383 
L 122.531915 96.020383 
L 123.547476 156.917614 
L 124.055256 130.93067 
L 124.563037 138.72012 
L 125.070817 190.54661 
L 125.578598 160.417023 
L 126.086378 144.362744 
L 126.594159 181.380017 
L 127.101939 139.091417 
L 127.60972 131.709378 
L 128.1175 159.36912 
L 128.625281 114.893808 
L 129.133061 87.504661 
L 129.640842 128.05512 
L 130.148622 102.998641 
L 130.656403 57.574902 
L 131.164183 116.660089 
L 131.671964 118.793447 
L 132.179744 48.882421 
L 133.195305 118.833501 
L 133.703086 70.032876 
L 134.210866 98.981329 
L 134.718647 140.199341 
L 135.226427 94.698618 
L 135.734208 121.331865 
L 136.241989 185.474712 
L 136.749769 124.357353 
L 137.25755 144.517931 
L 137.76533 195.390812 
L 138.273111 147.140298 
L 138.780891 147.285222 
L 139.288672 194.300368 
L 139.796452 150.3635 
L 140.304233 116.150787 
L 140.812013 170.201156 
L 141.319794 113.819798 
L 141.827574 72.933335 
L 142.335355 117.987438 
L 142.843135 109.15349 
L 143.350916 52.76244 
L 143.858696 101.146054 
L 144.366477 96.866398 
L 144.874257 45.233815 
L 145.382038 114.091361 
L 145.889818 117.587498 
L 146.397599 86.009035 
L 147.41316 144.260686 
L 147.92094 89.347546 
L 148.936501 165.754544 
L 149.444282 125.1188 
L 149.952062 135.904647 
L 150.459843 210.858653 
L 150.967623 153.664689 
L 151.475404 150.707845 
L 151.983184 210.953451 
L 152.490965 139.573559 
L 152.998745 109.113533 
L 153.506526 148.595024 
L 154.014306 125.919929 
L 154.522087 65.648554 
L 155.029867 132.850483 
L 155.537648 113.937661 
L 156.045428 53.659976 
L 156.553209 105.010752 
L 157.060989 104.426207 
L 157.56877 43.500045 
L 158.07655 108.315567 
L 158.584331 114.487429 
L 159.092111 61.400925 
L 160.107672 131.998978 
L 160.615453 95.313579 
L 161.631014 178.018485 
L 162.138794 128.209108 
L 162.646575 151.679725 
L 163.154355 207.508712 
L 163.662136 139.571895 
L 164.169916 146.940468 
L 164.677697 185.749357 
L 165.693258 117.584332 
L 166.201038 159.081569 
L 166.708819 125.948432 
L 167.216599 81.280413 
L 167.72438 121.063888 
L 168.739941 58.096432 
L 169.247722 100.304797 
L 169.755502 110.396426 
L 170.263283 36.045081 
L 170.771063 105.614489 
L 171.278844 107.395715 
L 171.786624 85.341422 
L 172.294405 107.713777 
L 172.802185 150.513432 
L 173.309966 102.567127 
L 173.817746 136.2891 
L 174.325527 180.352349 
L 174.833307 119.854388 
L 175.341088 143.116486 
L 175.848868 194.429973 
L 176.356649 135.90225 
L 176.864429 144.798833 
L 177.37221 202.44907 
L 177.87999 133.694177 
L 178.387771 114.485995 
L 178.895551 154.552995 
L 179.403332 123.06713 
L 179.911112 84.552241 
L 180.418893 126.560129 
L 180.926673 116.27435 
L 181.434454 66.534157 
L 181.942234 96.925661 
L 182.450015 104.785515 
L 182.957795 56.398594 
L 183.465576 101.72536 
L 183.973356 115.643024 
L 184.481137 74.177875 
L 184.988917 104.370382 
L 185.496698 149.204635 
L 186.004478 91.385345 
L 187.020039 175.070002 
L 187.52782 119.090949 
L 188.0356 142.64118 
L 188.543381 203.589302 
L 189.051161 138.46889 
L 189.558942 131.489416 
L 190.066722 181.514948 
L 191.082283 111.873111 
L 191.590064 158.488383 
L 192.097844 115.17154 
L 192.605625 84.470073 
L 193.113405 130.239396 
L 193.621186 116.176534 
L 194.128966 66.667807 
L 194.636747 86.497179 
L 195.144527 95.974365 
L 195.652308 60.904118 
L 196.160088 104.490694 
L 196.667869 121.117891 
L 197.175649 89.242074 
L 197.68343 117.875625 
L 198.19121 131.642907 
L 198.698991 97.093936 
L 199.714552 169.847187 
L 200.222332 123.96292 
L 200.730113 147.141993 
L 201.237894 182.531762 
L 201.745674 152.987471 
L 202.253455 145.85149 
L 202.761235 169.672226 
L 203.269016 156.423468 
L 203.776796 116.840558 
L 204.284577 163.738317 
L 205.300138 93.525365 
L 205.807918 123.580639 
L 206.315699 110.033887 
L 206.823479 59.841807 
L 207.33126 90.713032 
L 207.83904 90.678053 
L 208.346821 46.601487 
L 209.362382 118.705024 
L 209.870162 74.182335 
L 210.885723 144.196134 
L 211.393504 96.394969 
L 211.901284 127.293037 
L 212.409065 176.317753 
L 212.916845 142.468626 
L 213.424626 155.311274 
L 213.932406 181.900876 
L 214.440187 147.673065 
L 214.947967 132.600118 
L 215.455748 161.242805 
L 215.963528 144.196954 
L 216.471309 131.134459 
L 216.979089 169.956291 
L 217.48687 122.187685 
L 217.99465 84.923647 
L 218.502431 129.281016 
L 219.010211 116.789573 
L 219.517992 64.309174 
L 220.025772 101.549943 
L 220.533553 102.922489 
L 221.041333 50.824905 
L 221.549114 99.043192 
L 222.056894 110.861437 
L 222.564675 77.303358 
L 223.072455 110.747138 
L 223.580236 136.505506 
L 224.088016 105.206137 
L 224.595797 128.092544 
L 225.103577 180.571033 
L 225.611358 116.440078 
L 226.626919 182.780306 
L 227.134699 145.77178 
L 227.64248 137.889479 
L 228.15026 176.312932 
L 228.658041 137.596412 
L 229.165821 132.034491 
L 229.673602 161.378762 
L 230.181382 120.582281 
L 230.689163 90.958233 
L 231.196943 118.232989 
L 231.704724 100.625201 
L 232.212504 50.136703 
L 232.720285 104.840678 
L 233.228065 109.050322 
L 233.735846 51.473558 
L 234.243627 102.914224 
L 234.751407 116.560656 
L 235.259188 67.727841 
L 235.766968 120.587757 
L 236.274749 137.748221 
L 236.782529 118.257056 
L 237.29031 141.439573 
L 237.79809 173.125657 
L 238.305871 128.21375 
L 238.813651 123.487669 
L 239.321432 172.850032 
L 239.829212 150.167552 
L 240.336993 151.017743 
L 240.844773 197.192324 
L 241.352554 141.371851 
L 241.860334 113.885602 
L 242.368115 165.625729 
L 242.875895 131.727778 
L 243.383676 72.452074 
L 243.891456 122.020134 
L 244.399237 111.098705 
L 244.907017 46.539731 
L 245.414798 104.606237 
L 245.922578 113.463539 
L 246.430359 48.703408 
L 246.938139 89.924032 
L 247.44592 113.214015 
L 247.9537 64.380024 
L 248.461481 114.197819 
L 248.969261 141.414431 
L 249.477042 95.795444 
L 249.984822 132.018658 
L 250.492603 190.648937 
L 251.000383 132.533167 
L 251.508164 125.639242 
L 252.015944 182.53321 
L 252.523725 143.633522 
L 253.031505 152.77204 
L 253.539286 182.29969 
L 254.047066 152.857855 
L 254.554847 113.223962 
L 255.062627 167.948545 
L 255.570408 133.334987 
L 256.078188 70.474396 
L 256.585969 132.764298 
L 257.093749 110.375582 
L 257.60153 65.598372 
L 258.10931 106.347532 
L 258.617091 94.374142 
L 259.124871 58.499002 
L 259.632652 89.472088 
L 260.140432 106.27771 
L 260.648213 81.09773 
L 261.663774 147.01283 
L 262.171554 89.665306 
L 262.679335 139.070297 
L 263.187115 161.639989 
L 263.694896 122.294894 
L 264.710457 191.542919 
L 265.218237 133.357013 
L 265.726018 140.863808 
L 266.233799 192.394929 
L 267.24936 102.255638 
L 267.75714 149.055045 
L 268.772701 88.741077 
L 269.280482 135.867614 
L 269.788262 104.437922 
L 270.296043 56.010841 
L 270.803823 117.895578 
L 271.311604 106.340285 
L 271.819384 42.697993 
L 272.327165 103.387167 
L 272.834945 103.634882 
L 273.342726 68.371445 
L 274.358287 142.247695 
L 274.866067 109.84043 
L 275.373848 154.868423 
L 275.881628 173.228544 
L 276.389409 139.583672 
L 276.897189 145.882121 
L 277.40497 185.447479 
L 277.91275 131.706369 
L 278.420531 136.060063 
L 278.928311 186.587 
L 279.436092 117.229815 
L 279.943872 128.74441 
L 280.451653 160.342728 
L 280.959433 118.275468 
L 281.467214 94.241413 
L 281.974994 128.027224 
L 282.482775 101.031226 
L 282.990555 57.093122 
L 283.498336 107.191896 
L 284.006116 109.191218 
L 284.513897 50.866943 
L 285.021677 92.109766 
L 285.529458 102.632796 
L 286.037238 69.38966 
L 286.545019 107.828058 
L 287.052799 162.325845 
L 287.56058 105.797818 
L 288.06836 124.640683 
L 288.576141 185.069076 
L 289.083921 114.004596 
L 290.099482 188.76716 
L 290.607263 152.822547 
L 291.115043 141.780253 
L 291.622824 179.891391 
L 292.638385 110.307622 
L 293.146165 182.272247 
L 294.161726 83.999608 
L 294.669507 114.452407 
L 295.177287 100.910101 
L 295.685068 59.254073 
L 296.192848 81.939252 
L 296.700629 97.127066 
L 297.208409 44.813098 
L 297.71619 106.796497 
L 298.22397 116.869828 
L 298.731751 70.113962 
L 299.239532 112.606151 
L 299.747312 137.4831 
L 300.255093 103.851622 
L 300.762873 128.676023 
L 301.270654 183.187864 
L 301.778434 114.723849 
L 302.793995 201.921833 
L 303.301776 130.300266 
L 303.809556 140.476894 
L 304.317337 178.394805 
L 304.825117 146.969049 
L 305.332898 130.981336 
L 305.840678 164.403842 
L 306.348459 107.64051 
L 306.856239 86.688547 
L 307.36402 136.397029 
L 308.379581 60.780926 
L 308.887361 95.106719 
L 309.395142 88.5183 
L 309.902922 54.375177 
L 310.410703 105.471677 
L 310.918483 132.874035 
L 311.426264 69.558001 
L 312.441825 147.802706 
L 312.949605 104.136284 
L 313.457386 127.917546 
L 313.965166 170.663811 
L 314.472947 120.776129 
L 314.980727 132.603905 
L 315.488508 201.155094 
L 315.996288 141.121141 
L 316.504069 154.557064 
L 317.011849 201.093125 
L 317.51963 129.202004 
L 318.02741 103.060666 
L 318.535191 147.440221 
L 319.550752 91.566522 
L 320.058532 134.112727 
L 320.566313 105.679164 
L 321.074093 62.248876 
L 321.581874 103.687145 
L 322.089654 110.421444 
L 322.597435 56.801917 
L 323.105215 88.610005 
L 323.612996 109.58781 
L 324.120776 65.09158 
L 324.628557 116.988727 
L 325.136337 144.866772 
L 325.644118 109.546542 
L 326.151898 127.978329 
L 326.659679 181.789019 
L 327.167459 126.337604 
L 327.67524 138.457037 
L 328.18302 193.312658 
L 328.690801 146.607605 
L 329.198581 143.712273 
L 329.706362 187.871181 
L 330.214142 134.276512 
L 330.721923 109.378598 
L 331.229703 150.388238 
L 331.737484 124.112111 
L 332.245265 91.282643 
L 332.753045 122.184302 
L 333.260826 103.462713 
L 333.768606 49.521766 
L 334.276387 108.629076 
L 334.784167 96.38468 
L 335.291948 72.610234 
L 335.799728 106.652557 
L 336.307509 103.946735 
L 336.815289 69.570967 
L 337.32307 95.777878 
L 337.83085 133.73748 
L 338.338631 103.066363 
L 338.846411 128.109431 
L 339.354192 174.087195 
L 339.861972 131.894568 
L 340.369753 144.118477 
L 340.877533 198.658751 
L 341.385314 155.997713 
L 341.893094 141.821145 
L 342.400875 178.356673 
L 342.908655 157.006307 
L 343.416436 117.862645 
L 343.924216 137.683638 
L 344.431997 130.206976 
L 344.939777 93.608216 
L 345.447558 134.143351 
L 346.463119 66.496056 
L 346.970899 98.744126 
L 347.47868 96.060501 
L 347.98646 60.074871 
L 348.494241 100.324181 
L 349.002021 107.447558 
L 349.509802 55.011074 
L 350.017582 107.69144 
L 350.525363 140.984491 
L 351.033143 97.748341 
L 351.540924 133.883738 
L 352.048704 183.891135 
L 352.556485 136.665259 
L 353.064265 135.28165 
L 353.572046 190.129065 
L 354.079826 151.106007 
L 354.587607 148.693892 
L 355.095387 199.665842 
L 355.603168 140.36211 
L 356.110948 118.688731 
L 356.618729 158.334111 
L 357.63429 78.561975 
L 358.14207 111.1534 
L 358.649851 101.082882 
L 359.157631 56.616188 
L 359.665412 93.433786 
L 360.173192 104.732865 
L 360.680973 46.496716 
L 361.188753 102.681283 
L 361.696534 123.57143 
L 362.204314 77.972952 
L 363.219875 143.456815 
L 363.727656 101.208129 
L 364.235437 127.184003 
L 364.743217 174.019457 
L 365.250998 123.194879 
L 365.758778 140.497211 
L 366.266559 202.018849 
L 366.774339 149.717913 
L 367.28212 134.797472 
L 367.7899 184.038578 
L 368.805461 111.261951 
L 369.313242 159.154738 
L 369.821022 117.66564 
L 370.328803 85.604176 
L 370.836583 137.284266 
L 371.344364 102.06593 
L 371.852144 56.246094 
L 372.359925 105.799507 
L 372.867705 95.25329 
L 373.375486 44.689936 
L 373.883266 92.20874 
L 374.391047 117.434723 
L 374.898827 72.233294 
L 375.914388 154.145902 
L 376.422169 100.811731 
L 376.929949 135.758535 
L 377.43773 160.812418 
L 377.94551 117.493936 
L 378.453291 144.437739 
L 378.961071 190.296087 
L 379.468852 162.844559 
L 379.976632 150.359444 
L 380.484413 177.178271 
L 381.499974 112.023063 
L 382.007754 163.663556 
L 383.023315 79.446718 
L 383.531096 130.295044 
L 384.038876 110.037837 
L 384.546657 59.120776 
L 385.054437 111.017425 
L 385.562218 91.203309 
L 386.069998 49.925678 
L 386.577779 97.064932 
L 387.085559 116.276984 
L 387.59334 77.51979 
L 388.10112 115.355658 
L 388.608901 127.594136 
L 389.116681 97.888988 
L 390.132242 155.212165 
L 390.640023 131.863014 
L 391.147803 142.130947 
L 391.655584 200.571618 
L 392.163364 156.24894 
L 392.671145 131.425864 
L 393.178925 175.13942 
L 394.194486 107.974486 
L 394.702267 169.387008 
L 395.210047 112.96351 
L 395.717828 90.165349 
L 396.225608 126.127995 
L 396.733389 106.058598 
L 397.24117 68.112776 
L 397.74895 102.704801 
L 398.256731 111.625129 
L 398.764511 55.764621 
L 399.780072 125.590768 
L 400.287853 67.024948 
L 400.795633 119.595617 
L 401.303414 149.61136 
L 401.811194 97.196843 
L 402.318975 134.08679 
L 402.826755 157.724573 
L 403.334536 130.819039 
L 403.842316 144.475275 
L 404.350097 193.106063 
L 404.857877 149.13747 
L 405.365658 125.941402 
L 405.873438 174.263119 
L 406.888999 119.279657 
L 407.39678 163.790737 
L 407.90456 108.766167 
L 408.412341 72.340347 
L 408.920121 120.469118 
L 409.427902 118.493123 
L 409.935682 58.503357 
L 410.443463 106.172556 
L 410.951243 107.207649 
L 411.459024 53.868496 
L 411.966804 95.866556 
L 412.474585 108.161485 
L 412.982365 53.65366 
L 413.997926 157.853019 
L 414.505707 99.73326 
L 415.013487 123.61859 
L 415.521268 179.017979 
L 416.029048 152.92801 
L 416.536829 152.85258 
L 417.044609 190.543514 
L 417.55239 129.543667 
L 418.06017 148.44013 
L 418.567951 193.197144 
L 419.583512 116.423133 
L 420.091292 149.98584 
L 420.599073 121.446195 
L 421.106853 80.050735 
L 421.614634 122.768408 
L 422.122414 87.64778 
L 422.630195 62.530876 
L 423.137975 110.323233 
L 423.645756 87.449165 
L 424.153536 43.051117 
L 424.661317 93.197968 
L 425.169097 123.697697 
L 425.676878 62.098558 
L 426.184658 117.820443 
L 426.692439 151.361151 
L 427.200219 91.263259 
L 427.708 127.758182 
L 428.21578 175.881671 
L 428.723561 131.131469 
L 429.231341 139.574086 
L 429.739122 195.432628 
L 430.246903 160.086087 
L 430.754683 144.880748 
L 431.262464 181.789274 
L 431.770244 123.748665 
L 432.278025 111.413661 
L 432.785805 171.329496 
L 433.801366 84.705545 
L 434.309147 124.58436 
L 434.816927 112.87626 
L 435.324708 57.56165 
L 435.832488 93.146627 
L 436.340269 98.396956 
L 436.848049 45.031134 
L 437.35583 106.739676 
L 437.86361 118.491338 
L 438.371391 59.780485 
L 438.879171 108.88746 
L 439.386952 140.469355 
L 439.894732 101.178897 
L 440.402513 124.708417 
L 440.910293 175.962507 
L 441.418074 126.505279 
L 441.925854 156.260967 
L 442.433635 194.562105 
L 442.941415 145.743402 
L 443.449196 136.163955 
L 443.956976 198.617929 
L 444.464757 140.852999 
L 444.972537 106.072731 
L 445.480318 168.552761 
L 446.495879 81.705434 
L 447.003659 114.871689 
L 447.51144 108.027857 
L 448.01922 63.848014 
L 448.527001 88.77387 
L 449.034781 83.59426 
L 449.542562 65.563108 
L 450.050342 114.482297 
L 450.558123 107.869437 
L 451.065903 70.187529 
L 452.081464 151.508817 
L 452.589245 97.257639 
L 453.097025 124.712338 
L 453.604806 170.234829 
L 454.112586 127.713308 
L 454.620367 134.062861 
L 455.128147 186.484007 
L 455.635928 141.935826 
L 456.143708 154.00252 
L 456.651489 202.9617 
L 457.159269 138.709823 
L 457.66705 104.987216 
L 458.17483 145.622264 
L 458.682611 119.329249 
L 459.190391 78.070166 
L 459.698172 139.088365 
L 460.205952 90.330041 
L 460.713733 75.20555 
L 461.221513 109.32522 
L 461.729294 94.305254 
L 462.237075 61.658854 
L 462.744855 106.311109 
L 463.252636 120.149734 
L 463.760416 53.675201 
L 464.268197 122.833824 
L 464.775977 132.897212 
L 465.283758 87.443929 
L 465.791538 116.343069 
L 466.299319 170.179834 
L 466.807099 141.316436 
L 467.31488 137.302373 
L 467.82266 196.46318 
L 468.330441 138.545249 
L 468.838221 151.425733 
L 469.346002 185.878096 
L 469.853782 142.417688 
L 470.361563 113.456814 
L 470.869343 174.694979 
L 471.377124 116.118484 
L 471.884904 91.047688 
L 472.392685 128.746917 
L 472.900465 92.122563 
L 473.408246 47.006073 
L 473.916026 105.278053 
L 474.423807 97.613563 
L 474.931587 77.566656 
L 475.439368 110.396884 
L 475.947148 104.2888 
L 476.454929 78.841702 
L 476.962709 97.726362 
L 477.47049 144.058295 
L 477.97827 84.957649 
L 478.486051 145.042463 
L 478.993831 170.162358 
L 479.501612 137.984082 
L 480.009392 137.812882 
L 480.517173 199.305794 
L 481.024953 141.475169 
L 481.532734 128.128638 
L 482.040514 181.766528 
L 482.548295 137.465308 
L 483.056075 120.688586 
L 483.563856 152.65031 
L 484.579417 83.890705 
L 485.087197 124.870088 
L 485.594978 97.84135 
L 486.102758 50.009961 
L 486.610539 108.899714 
L 487.118319 105.903012 
L 487.6261 58.524444 
L 488.13388 105.212351 
L 488.641661 117.309038 
L 489.149441 71.009566 
L 489.657222 108.59695 
L 490.165002 136.27837 
L 490.672783 97.217107 
L 491.180563 145.804187 
L 491.688344 161.835688 
L 492.196124 123.24221 
L 492.703905 154.489672 
L 493.211685 201.678712 
L 493.719466 144.699214 
L 494.227246 140.929164 
L 494.735027 183.415903 
L 495.242808 127.331668 
L 495.750588 118.890326 
L 496.258369 165.129883 
L 496.766149 121.0461 
L 497.27393 92.185537 
L 497.78171 118.604426 
L 498.289491 94.153597 
L 498.797271 55.706851 
L 499.305052 115.591202 
L 499.812832 99.017286 
L 500.320613 58.852659 
L 500.828393 113.107493 
L 501.336174 105.552846 
L 501.843954 68.130139 
L 502.351735 97.394567 
L 502.859515 150.113023 
L 503.367296 82.931812 
L 504.382857 179.036134 
L 504.890637 119.890025 
L 505.906198 182.546332 
L 506.413979 135.907802 
L 506.921759 153.425388 
L 507.42954 188.053015 
L 507.93732 132.534692 
L 508.445101 110.649695 
L 508.952881 160.303747 
L 509.968442 84.532674 
L 510.476223 136.173094 
L 511.491784 63.103913 
L 511.999564 98.46591 
L 512.507345 115.728969 
L 513.015125 51.684461 
L 513.522906 107.214043 
L 514.030686 113.053236 
L 514.538467 63.772116 
L 515.554028 141.046524 
L 516.061808 100.773643 
L 516.569589 138.751022 
L 517.077369 167.435105 
L 517.58515 139.622214 
L 518.09293 144.719183 
L 518.600711 189.538634 
L 519.108491 140.461179 
L 519.616272 129.269108 
L 520.124052 184.772916 
L 520.631833 140.009404 
L 521.139613 120.941093 
L 521.647394 156.432556 
L 522.155174 125.354524 
L 522.662955 77.429997 
L 523.170735 131.935284 
L 524.186296 65.335518 
L 524.694077 98.708133 
L 525.201857 108.432496 
L 525.709638 55.087162 
L 526.217418 90.400061 
L 526.725199 117.003178 
L 527.232979 77.72021 
L 527.74076 99.418133 
L 528.248541 140.766435 
L 528.756321 90.01066 
L 529.264102 118.616324 
L 529.771882 173.059572 
L 530.279663 145.384872 
L 530.787443 142.793297 
L 531.295224 195.04747 
L 531.803004 148.836998 
L 532.310785 134.763392 
L 532.818565 195.942238 
L 533.326346 146.711033 
L 533.834126 113.628256 
L 534.341907 158.438339 
L 535.357468 78.305273 
L 535.865248 135.606382 
L 536.880809 58.836581 
L 537.38859 106.136633 
L 537.89637 88.810074 
L 538.404151 48.682403 
L 538.911931 99.163562 
L 539.419712 112.840886 
L 539.927492 82.802414 
L 540.435273 108.01961 
L 540.943053 149.159514 
L 541.450834 100.53944 
L 541.958614 114.964948 
L 542.466395 172.710612 
L 542.974175 127.003917 
L 543.481956 152.896397 
L 543.989736 202.757292 
L 544.497517 146.752764 
L 545.005297 134.771333 
L 545.513078 184.183973 
L 546.020858 143.439 
L 546.528639 118.871405 
L 547.036419 167.23577 
L 548.05198 88.099748 
L 548.559761 120.507596 
L 549.067541 97.935009 
L 549.575322 54.880091 
L 550.083102 91.69171 
L 550.590883 107.592425 
L 551.098663 41.380486 
L 551.606444 99.403216 
L 552.114224 118.875915 
L 552.622005 59.639222 
L 553.129785 120.4698 
L 553.637566 131.900098 
L 554.145346 88.111145 
L 555.160907 177.482767 
L 555.668688 132.252756 
L 556.176468 141.609476 
L 556.684249 168.781593 
L 557.192029 141.954008 
L 557.69981 139.750502 
L 558.20759 193.520186 
L 558.715371 148.387729 
L 559.223151 122.145656 
L 559.730932 174.577806 
L 560.746493 84.890883 
L 561.254274 112.787078 
L 561.762054 111.468402 
L 562.269835 52.622477 
L 562.777615 99.091382 
L 563.285396 104.771849 
L 563.793176 50.69226 
L 564.300957 90.846312 
L 564.808737 100.970351 
L 565.316518 83.492428 
L 565.824298 102.810599 
L 566.332079 135.486352 
L 566.839859 92.695674 
L 567.85542 181.724758 
L 568.363201 129.884345 
L 568.870981 145.86076 
L 569.378762 191.624664 
L 569.886542 152.5958 
L 570.394323 143.527276 
L 570.902103 188.285289 
L 571.917664 122.037806 
L 572.425445 163.17568 
L 572.933225 120.574766 
L 573.441006 97.740967 
L 573.948786 133.356866 
L 574.964347 69.566528 
L 575.472128 104.177815 
L 575.979908 116.70574 
L 576.487689 65.28629 
L 577.50325 126.87299 
L 578.01103 62.617947 
L 579.026591 152.002364 
L 579.534372 87.502654 
L 580.042152 137.811879 
L 580.549933 162.780553 
L 581.057713 98.869089 
L 581.565494 114.050518 
L 582.073274 179.388958 
L 582.581055 112.391256 
L 583.088835 110.360198 
L 583.596616 143.81802 
L 584.104396 121.885373 
L 584.612177 71.791836 
L 585.119957 123.342435 
L 585.119957 123.342435 
" clip-path="url(#pb70d339808)" style="fill: none; stroke: #ff7f0e; stroke-width: 0.9; stroke-linecap: square"/>
   </g>
   <g id="patch_3">
    <path d="M 52.483594 221.902125 
L 52.483594 22.318125 
" style="fill: none; stroke: #000000; stroke-width: 0.8; stroke-linejoin: miter; stroke-linecap: square"/>
   </g>
   <g id="patch_4">
    <path d="M 610.483594 221.902125 
L 610.483594 22.318125 
" style="fill: none; stroke: #000000; stroke-width: 0.8; stroke-linejoin: miter; stroke-linecap: square"/>
   </g>
   <g id="patch_5">
    <path d="M 52.483594 221.902125 
L 610.483594 221.902125 
" style="fill: none; stroke: #000000; stroke-width: 0.8; stroke-linejoin: miter; stroke-linecap: square"/>
   </g>
   <g id="patch_6">
    <path d="M 52.483594 22.318125 
L 610.483594 22.318125 
" style="fill: none; stroke: #000000; stroke-width: 0.8; stroke-linejoin: miter; stroke-linecap: square"/>
   </g>
   <g id="text_14">
    <!-- Raw versus preprocessed signal -->
    <g transform="translate(235.237969 16.318125) scale(0.12 -0.12)">
     <defs>
      <path id="DejaVuSans-35" d="M 2841 2188 
Q 3044 2119 3236 1894 
Q 3428 1669 3622 1275 
L 4263 0 
L 3584 0 
L 2988 1197 
Q 2756 1666 2539 1819 
Q 2322 1972 1947 1972 
L 1259 1972 
L 1259 0 
L 628 0 
L 628 4666 
L 2053 4666 
Q 2853 4666 3247 4331 
Q 3641 3997 3641 3322 
Q 3641 2881 3436 2590 
Q 3231 2300 2841 2188 
z
M 1259 4147 
L 1259 2491 
L 2053 2491 
Q 2509 2491 2742 2702 
Q 2975 2913 2975 3322 
Q 2975 3731 2742 3939 
Q 2509 4147 2053 4147 
L 1259 4147 
z
" transform="scale(0.015625)"/>
      <path id="DejaVuSans-5a" d="M 269 3500 
L 844 3500 
L 1563 769 
L 2278 3500 
L 2956 3500 
L 3675 769 
L 4391 3500 
L 4966 3500 
L 4050 0 
L 3372 0 
L 2619 2869 
L 1863 0 
L 1184 0 
L 269 3500 
z
" transform="scale(0.015625)"/>
      <path id="DejaVuSans-59" d="M 191 3500 
L 800 3500 
L 1894 563 
L 2988 3500 
L 3597 3500 
L 2284 0 
L 1503 0 
L 191 3500 
z
" transform="scale(0.015625)"/>
      <path id="DejaVuSans-55" d="M 2631 2963 
Q 2534 3019 2420 3045 
Q 2306 3072 2169 3072 
Q 1681 3072 1420 2755 
Q 1159 2438 1159 1844 
L 1159 0 
L 581 0 
L 581 3500 
L 1159 3500 
L 1159 2956 
Q 1341 3275 1631 3429 
Q 1922 3584 2338 3584 
Q 2397 3584 2469 3576 
Q 2541 3569 2628 3553 
L 2631 2963 
z
" transform="scale(0.015625)"/>
      <path id="DejaVuSans-52" d="M 1959 3097 
Q 1497 3097 1228 2736 
Q 959 2375 959 1747 
Q 959 1119 1226 758 
Q 1494 397 1959 397 
Q 2419 397 2687 759 
Q 2956 1122 2956 1747 
Q 2956 2369 2687 2733 
Q 2419 3097 1959 3097 
z
M 1959 3584 
Q 2709 3584 3137 3096 
Q 3566 2609 3566 1747 
Q 3566 888 3137 398 
Q 2709 -91 1959 -91 
Q 1206 -91 779 398 
Q 353 888 353 1747 
Q 353 2609 779 3096 
Q 1206 3584 1959 3584 
z
" transform="scale(0.015625)"/>
      <path id="DejaVuSans-4a" d="M 2906 1791 
Q 2906 2416 2648 2759 
Q 2391 3103 1925 3103 
Q 1463 3103 1205 2759 
Q 947 2416 947 1791 
Q 947 1169 1205 825 
Q 1463 481 1925 481 
Q 2391 481 2648 825 
Q 2906 1169 2906 1791 
z
M 3481 434 
Q 3481 -459 3084 -895 
Q 2688 -1331 1869 -1331 
Q 1566 -1331 1297 -1286 
Q 1028 -1241 775 -1147 
L 775 -588 
Q 1028 -725 1275 -790 
Q 1522 -856 1778 -856 
Q 2344 -856 2625 -561 
Q 2906 -266 2906 331 
L 2906 616 
Q 2728 306 2450 153 
Q 2172 0 1784 0 
Q 1141 0 747 490 
Q 353 981 353 1791 
Q 353 2603 747 3093 
Q 1141 3584 1784 3584 
Q 2172 3584 2450 3431 
Q 2728 3278 2906 2969 
L 2906 3500 
L 3481 3500 
L 3481 434 
z
" transform="scale(0.015625)"/>
     </defs>
     <use xlink:href="#DejaVuSans-35"/>
     <use xlink:href="#DejaVuSans-44" transform="translate(67.28125 0)"/>
     <use xlink:href="#DejaVuSans-5a" transform="translate(128.5625 0)"/>
     <use xlink:href="#DejaVuSans-3" transform="translate(210.34375 0)"/>
     <use xlink:href="#DejaVuSans-59" transform="translate(242.125 0)"/>
     <use xlink:href="#DejaVuSans-48" transform="translate(301.3125 0)"/>
     <use xlink:href="#DejaVuSans-55" transform="translate(362.84375 0)"/>
     <use xlink:href="#DejaVuSans-56" transform="translate(403.953125 0)"/>
     <use xlink:href="#DejaVuSans-58" transform="translate(456.046875 0)"/>
     <use xlink:href="#DejaVuSans-56" transform="translate(519.421875 0)"/>
     <use xlink:href="#DejaVuSans-3" transform="translate(571.515625 0)"/>
     <use xlink:href="#DejaVuSans-53" transform="translate(603.296875 0)"/>
     <use xlink:href="#DejaVuSans-55" transform="translate(666.78125 0)"/>
     <use xlink:href="#DejaVuSans-48" transform="translate(705.6875 0)"/>
     <use xlink:href="#DejaVuSans-53" transform="translate(767.21875 0)"/>
     <use xlink:href="#DejaVuSans-55" transform="translate(830.703125 0)"/>
     <use xlink:href="#DejaVuSans-52" transform="translate(869.609375 0)"/>
     <use xlink:href="#DejaVuSans-46" transform="translate(930.796875 0)"/>
     <use xlink:href="#DejaVuSans-48" transform="translate(985.78125 0)"/>
     <use xlink:href="#DejaVuSans-56" transform="translate(1047.3125 0)"/>
     <use xlink:href="#DejaVuSans-56" transform="translate(1099.40625 0)"/>
     <use xlink:href="#DejaVuSans-48" transform="translate(1151.5 0)"/>
     <use xlink:href="#DejaVuSans-47" transform="translate(1213.03125 0)"/>
     <use xlink:href="#DejaVuSans-3" transform="translate(1276.515625 0)"/>
     <use xlink:href="#DejaVuSans-56" transform="translate(1308.296875 0)"/>
     <use xlink:href="#DejaVuSans-4c" transform="translate(1360.390625 0)"/>
     <use xlink:href="#DejaVuSans-4a" transform="translate(1388.171875 0)"/>
     <use xlink:href="#DejaVuSans-51" transform="translate(1451.65625 0)"/>
     <use xlink:href="#DejaVuSans-44" transform="translate(1515.03125 0)"/>
     <use xlink:href="#DejaVuSans-4f" transform="translate(1576.3125 0)"/>
    </g>
   </g>
   <g id="legend_1">
    <g id="patch_7">
     <path d="M 504.655469 60.319687 
L 603.483594 60.319687 
Q 605.483594 60.319687 605.483594 58.319687 
L 605.483594 29.318125 
Q 605.483594 27.318125 603.483594 27.318125 
L 504.655469 27.318125 
Q 502.655469 27.318125 502.655469 29.318125 
L 502.655469 58.319687 
Q 502.655469 60.319687 504.655469 60.319687 
z
" style="fill: #ffffff; opacity: 0.8; stroke: #cccccc; stroke-linejoin: miter"/>
    </g>
    <g id="line2d_25">
     <path d="M 506.655469 35.416562 
L 516.655469 35.416562 
L 526.655469 35.416562 
" style="fill: none; stroke: #1f77b4; stroke-width: 0.9; stroke-linecap: square"/>
    </g>
    <g id="text_15">
     <!-- Raw -->
     <g transform="translate(534.655469 38.916562) scale(0.1 -0.1)">
      <use xlink:href="#DejaVuSans-35"/>
      <use xlink:href="#DejaVuSans-44" transform="translate(67.28125 0)"/>
      <use xlink:href="#DejaVuSans-5a" transform="translate(128.5625 0)"/>
     </g>
    </g>
    <g id="line2d_26">
     <path d="M 506.655469 50.417344 
L 516.655469 50.417344 
L 526.655469 50.417344 
" style="fill: none; stroke: #ff7f0e; stroke-width: 0.9; stroke-linecap: square"/>
    </g>
    <g id="text_16">
     <!-- Preprocessed -->
     <g transform="translate(534.655469 53.917344) scale(0.1 -0.1)">
      <defs>
       <path id="DejaVuSans-33" d="M 1259 4147 
L 1259 2394 
L 2053 2394 
Q 2494 2394 2734 2622 
Q 2975 2850 2975 3272 
Q 2975 3691 2734 3919 
Q 2494 4147 2053 4147 
L 1259 4147 
z
M 628 4666 
L 2053 4666 
Q 2838 4666 3239 4311 
Q 3641 3956 3641 3272 
Q 3641 2581 3239 2228 
Q 2838 1875 2053 1875 
L 1259 1875 
L 1259 0 
L 628 0 
L 628 4666 
z
" transform="scale(0.015625)"/>
      </defs>
      <use xlink:href="#DejaVuSans-33"/>
      <use xlink:href="#DejaVuSans-55" transform="translate(58.546875 0)"/>
      <use xlink:href="#DejaVuSans-48" transform="translate(97.453125 0)"/>
      <use xlink:href="#DejaVuSans-53" transform="translate(158.984375 0)"/>
      <use xlink:href="#DejaVuSans-55" transform="translate(222.46875 0)"/>
      <use xlink:href="#DejaVuSans-52" transform="translate(261.375 0)"/>
      <use xlink:href="#DejaVuSans-46" transform="translate(322.5625 0)"/>
      <use xlink:href="#DejaVuSans-48" transform="translate(377.546875 0)"/>
      <use xlink:href="#DejaVuSans-56" transform="translate(439.078125 0)"/>
      <use xlink:href="#DejaVuSans-56" transform="translate(491.171875 0)"/>
      <use xlink:href="#DejaVuSans-48" transform="translate(543.265625 0)"/>
      <use xlink:href="#DejaVuSans-47" transform="translate(604.796875 0)"/>
     </g>
    </g>
   </g>
  </g>
 </g>
 <defs>
  <clipPath id="pb70d339808">
   <rect x="52.483594" y="22.318125" width="558" height="199.584"/>
  </clipPath>
 </defs>
</svg>
