<?xml version="1.0" encoding="utf-8" standalone="no"?>
<!DOCTYPE svg PUBLIC "-//W3C//DTD SVG 1.1//EN"
  "http://www.w3.org/Graphics/SVG/1.1/DTD/svg11.dtd">
<svg xmlns:xlink="http://www.w3.org/1999/xlink" width="620.271094pt" height="337.718906pt" viewBox="0 0 620.271094 337.718906" xmlns="http://www.w3.org/2000/svg" version="1.1">
 <metadata>
  <rdf:RDF xmlns:dc="http://purl.org/dc/elements/1.1/" xmlns:cc="http://creativecommons.org/ns#" xmlns:rdf="http://www.w3.org/1999/02/22-rdf-syntax-ns#">
   <cc:Work>
    <dc:type rdf:resource="http://purl.org/dc/dcmitype/StillImage"/>
    <dc:date>2026-07-14T07:01:49.654482</dc:date>
    <dc:format>image/svg+xml</dc:format>
    <dc:creator>
     <cc:Agent>
      <dc:title>Matplotlib v3.11.0, https://matplotlib.org/</dc:title>
     </cc:Agent>
    </dc:creator>
   </cc:Work>
  </rdf:RDF>
 </metadata>
 <defs>
  <style type="text/css">*{stroke-linejoin: round; stroke-linecap: butt}</style>
 </defs>
 <g id="figure_1">
  <g id="patch_1">
   <path d="M 0 337.718906 
L 620.271094 337.718906 
L 620.271094 0 
L 0 0 
z
" style="fill: #ffffff"/>
  </g>
  <g id="axes_1">
   <g id="patch_2">
    <path d="M 55.071094 299.518125 
L 613.071094 299.518125 
L 613.071094 22.318125 
L 55.071094 22.318125 
z
" style="fill: #ffffff"/>
   </g>
   <g id="matplotlib.axis_1">
    <g id="xtick_1">
     <g id="line2d_1">
      <defs>
       <path id="mbb010a9756" d="M 0 0 
L 0 3.5 
" style="stroke: #000000; stroke-width: 0.8"/>
      </defs>
      <g>
       <use xlink:href="#mbb010a9756" x="87.383672" y="299.518125" style="stroke: #000000; stroke-width: 0.8"/>
      </g>
     </g>
     <g id="text_1">
      <!-- 0.1 -->
      <g transform="translate(79.432109 314.115781) scale(0.1 -0.1)">
       <defs>
        <path id="DejaVuSans-13" d="M 2034 4250 
Q 1547 4250 1301 3770 
Q 1056 3291 1056 2328 
Q 1056 1369 1301 889 
Q 1547 409 2034 409 
Q 2525 409 2770 889 
Q 3016 1369 3016 2328 
Q 3016 3291 2770 3770 
Q 2525 4250 2034 4250 
z
M 2034 4750 
Q 2819 4750 3233 4129 
Q 3647 3509 3647 2328 
Q 3647 1150 3233 529 
Q 2819 -91 2034 -91 
Q 1250 -91 836 529 
Q 422 1150 422 2328 
Q 422 3509 836 4129 
Q 1250 4750 2034 4750 
z
" transform="scale(0.015625)"/>
        <path id="DejaVuSans-11" d="M 684 794 
L 1344 794 
L 1344 0 
L 684 0 
L 684 794 
z
" transform="scale(0.015625)"/>
        <path id="DejaVuSans-14" d="M 794 531 
L 1825 531 
L 1825 4091 
L 703 3866 
L 703 4441 
L 1819 4666 
L 2450 4666 
L 2450 531 
L 3481 531 
L 3481 0 
L 794 0 
L 794 531 
z
" transform="scale(0.015625)"/>
       </defs>
       <use xlink:href="#DejaVuSans-13"/>
       <use xlink:href="#DejaVuSans-11" transform="translate(63.625 0)"/>
       <use xlink:href="#DejaVuSans-14" transform="translate(95.40625 0)"/>
      </g>
     </g>
    </g>
    <g id="xtick_2">
     <g id="line2d_2">
      <g>
       <use xlink:href="#mbb010a9756" x="186.654264" y="299.518125" style="stroke: #000000; stroke-width: 0.8"/>
      </g>
     </g>
     <g id="text_2">
      <!-- 0.2 -->
      <g transform="translate(178.702702 314.115781) scale(0.1 -0.1)">
       <defs>
        <path id="DejaVuSans-15" d="M 1228 531 
L 3431 531 
L 3431 0 
L 469 0 
L 469 531 
Q 828 903 1448 1529 
Q 2069 2156 2228 2338 
Q 2531 2678 2651 2914 
Q 2772 3150 2772 3378 
Q 2772 3750 2511 3984 
Q 2250 4219 1831 4219 
Q 1534 4219 1204 4116 
Q 875 4013 500 3803 
L 500 4441 
Q 881 4594 1212 4672 
Q 1544 4750 1819 4750 
Q 2544 4750 2975 4387 
Q 3406 4025 3406 3419 
Q 3406 3131 3298 2873 
Q 3191 2616 2906 2266 
Q 2828 2175 2409 1742 
Q 1991 1309 1228 531 
z
" transform="scale(0.015625)"/>
       </defs>
       <use xlink:href="#DejaVuSans-13"/>
       <use xlink:href="#DejaVuSans-11" transform="translate(63.625 0)"/>
       <use xlink:href="#DejaVuSans-15" transform="translate(95.40625 0)"/>
      </g>
     </g>
    </g>
    <g id="xtick_3">
     <g id="line2d_3">
      <g>
       <use xlink:href="#mbb010a9756" x="285.924856" y="299.518125" style="stroke: #000000; stroke-width: 0.8"/>
      </g>
     </g>
     <g id="text_3">
      <!-- 0.3 -->
      <g transform="translate(277.973294 314.115781) scale(0.1 -0.1)">
       <defs>
        <path id="DejaVuSans-16" d="M 2597 2516 
Q 3050 2419 3304 2112 
Q 3559 1806 3559 1356 
Q 3559 666 3084 287 
Q 2609 -91 1734 -91 
Q 1441 -91 1130 -33 
Q 819 25 488 141 
L 488 750 
Q 750 597 1062 519 
Q 1375 441 1716 441 
Q 2309 441 2620 675 
Q 2931 909 2931 1356 
Q 2931 1769 2642 2001 
Q 2353 2234 1838 2234 
L 1294 2234 
L 1294 2753 
L 1863 2753 
Q 2328 2753 2575 2939 
Q 2822 3125 2822 3475 
Q 2822 3834 2567 4026 
Q 2313 4219 1838 4219 
Q 1578 4219 1281 4162 
Q 984 4106 628 3988 
L 628 4550 
Q 988 4650 1302 4700 
Q 1616 4750 1894 4750 
Q 2613 4750 3031 4423 
Q 3450 4097 3450 3541 
Q 3450 3153 3228 2886 
Q 3006 2619 2597 2516 
z
" transform="scale(0.015625)"/>
       </defs>
       <use xlink:href="#DejaVuSans-13"/>
       <use xlink:href="#DejaVuSans-11" transform="translate(63.625 0)"/>
       <use xlink:href="#DejaVuSans-16" transform="translate(95.40625 0)"/>
      </g>
     </g>
    </g>
    <g id="xtick_4">
     <g id="line2d_4">
      <g>
       <use xlink:href="#mbb010a9756" x="385.195449" y="299.518125" style="stroke: #000000; stroke-width: 0.8"/>
      </g>
     </g>
     <g id="text_4">
      <!-- 0.4 -->
      <g transform="translate(377.243886 314.115781) scale(0.1 -0.1)">
       <defs>
        <path id="DejaVuSans-17" d="M 2419 4116 
L 825 1625 
L 2419 1625 
L 2419 4116 
z
M 2253 4666 
L 3047 4666 
L 3047 1625 
L 3713 1625 
L 3713 1100 
L 3047 1100 
L 3047 0 
L 2419 0 
L 2419 1100 
L 313 1100 
L 313 1709 
L 2253 4666 
z
" transform="scale(0.015625)"/>
       </defs>
       <use xlink:href="#DejaVuSans-13"/>
       <use xlink:href="#DejaVuSans-11" transform="translate(63.625 0)"/>
       <use xlink:href="#DejaVuSans-17" transform="translate(95.40625 0)"/>
      </g>
     </g>
    </g>
    <g id="xtick_5">
     <g id="line2d_5">
      <g>
       <use xlink:href="#mbb010a9756" x="484.466041" y="299.518125" style="stroke: #000000; stroke-width: 0.8"/>
      </g>
     </g>
     <g id="text_5">
      <!-- 0.5 -->
      <g transform="translate(476.514479 314.115781) scale(0.1 -0.1)">
       <defs>
        <path id="DejaVuSans-18" d="M 691 4666 
L 3169 4666 
L 3169 4134 
L 1269 4134 
L 1269 2991 
Q 1406 3038 1543 3061 
Q 1681 3084 1819 3084 
Q 2600 3084 3056 2656 
Q 3513 2228 3513 1497 
Q 3513 744 3044 326 
Q 2575 -91 1722 -91 
Q 1428 -91 1123 -41 
Q 819 9 494 109 
L 494 744 
Q 775 591 1075 516 
Q 1375 441 1709 441 
Q 2250 441 2565 725 
Q 2881 1009 2881 1497 
Q 2881 1984 2565 2268 
Q 2250 2553 1709 2553 
Q 1456 2553 1204 2497 
Q 953 2441 691 2322 
L 691 4666 
z
" transform="scale(0.015625)"/>
       </defs>
       <use xlink:href="#DejaVuSans-13"/>
       <use xlink:href="#DejaVuSans-11" transform="translate(63.625 0)"/>
       <use xlink:href="#DejaVuSans-18" transform="translate(95.40625 0)"/>
      </g>
     </g>
    </g>
    <g id="xtick_6">
     <g id="line2d_6">
      <g>
       <use xlink:href="#mbb010a9756" x="583.736634" y="299.518125" style="stroke: #000000; stroke-width: 0.8"/>
      </g>
     </g>
     <g id="text_6">
      <!-- 0.6 -->
      <g transform="translate(575.785071 314.115781) scale(0.1 -0.1)">
       <defs>
        <path id="DejaVuSans-19" d="M 2113 2584 
Q 1688 2584 1439 2293 
Q 1191 2003 1191 1497 
Q 1191 994 1439 701 
Q 1688 409 2113 409 
Q 2538 409 2786 701 
Q 3034 994 3034 1497 
Q 3034 2003 2786 2293 
Q 2538 2584 2113 2584 
z
M 3366 4563 
L 3366 3988 
Q 3128 4100 2886 4159 
Q 2644 4219 2406 4219 
Q 1781 4219 1451 3797 
Q 1122 3375 1075 2522 
Q 1259 2794 1537 2939 
Q 1816 3084 2150 3084 
Q 2853 3084 3261 2657 
Q 3669 2231 3669 1497 
Q 3669 778 3244 343 
Q 2819 -91 2113 -91 
Q 1303 -91 875 529 
Q 447 1150 447 2328 
Q 447 3434 972 4092 
Q 1497 4750 2381 4750 
Q 2619 4750 2861 4703 
Q 3103 4656 3366 4563 
z
" transform="scale(0.015625)"/>
       </defs>
       <use xlink:href="#DejaVuSans-13"/>
       <use xlink:href="#DejaVuSans-11" transform="translate(63.625 0)"/>
       <use xlink:href="#DejaVuSans-19" transform="translate(95.40625 0)"/>
      </g>
     </g>
    </g>
    <g id="text_7">
     <!-- Time (s) -->
     <g transform="translate(313.739844 328.116563) scale(0.1 -0.1)">
      <defs>
       <path id="DejaVuSans-37" d="M -19 4666 
L 3928 4666 
L 3928 4134 
L 2272 4134 
L 2272 0 
L 1638 0 
L 1638 4134 
L -19 4134 
L -19 4666 
z
" transform="scale(0.015625)"/>
       <path id="DejaVuSans-4c" d="M 603 3500 
L 1178 3500 
L 1178 0 
L 603 0 
L 603 3500 
z
M 603 4863 
L 1178 4863 
L 1178 4134 
L 603 4134 
L 603 4863 
z
" transform="scale(0.015625)"/>
       <path id="DejaVuSans-50" d="M 3328 2828 
Q 3544 3216 3844 3400 
Q 4144 3584 4550 3584 
Q 5097 3584 5394 3201 
Q 5691 2819 5691 2113 
L 5691 0 
L 5113 0 
L 5113 2094 
Q 5113 2597 4934 2840 
Q 4756 3084 4391 3084 
Q 3944 3084 3684 2787 
Q 3425 2491 3425 1978 
L 3425 0 
L 2847 0 
L 2847 2094 
Q 2847 2600 2669 2842 
Q 2491 3084 2119 3084 
Q 1678 3084 1418 2786 
Q 1159 2488 1159 1978 
L 1159 0 
L 581 0 
L 581 3500 
L 1159 3500 
L 1159 2956 
Q 1356 3278 1631 3431 
Q 1906 3584 2284 3584 
Q 2666 3584 2933 3390 
Q 3200 3197 3328 2828 
z
" transform="scale(0.015625)"/>
       <path id="DejaVuSans-48" d="M 3597 1894 
L 3597 1613 
L 953 1613 
Q 991 1019 1311 708 
Q 1631 397 2203 397 
Q 2534 397 2845 478 
Q 3156 559 3463 722 
L 3463 178 
Q 3153 47 2828 -22 
Q 2503 -91 2169 -91 
Q 1331 -91 842 396 
Q 353 884 353 1716 
Q 353 2575 817 3079 
Q 1281 3584 2069 3584 
Q 2775 3584 3186 3129 
Q 3597 2675 3597 1894 
z
M 3022 2063 
Q 3016 2534 2758 2815 
Q 2500 3097 2075 3097 
Q 1594 3097 1305 2825 
Q 1016 2553 972 2059 
L 3022 2063 
z
" transform="scale(0.015625)"/>
       <path id="DejaVuSans-3" transform="scale(0.015625)"/>
       <path id="DejaVuSans-b" d="M 1984 4856 
Q 1566 4138 1362 3434 
Q 1159 2731 1159 2009 
Q 1159 1288 1364 580 
Q 1569 -128 1984 -844 
L 1484 -844 
Q 1016 -109 783 600 
Q 550 1309 550 2009 
Q 550 2706 781 3412 
Q 1013 4119 1484 4856 
L 1984 4856 
z
" transform="scale(0.015625)"/>
       <path id="DejaVuSans-56" d="M 2834 3397 
L 2834 2853 
Q 2591 2978 2328 3040 
Q 2066 3103 1784 3103 
Q 1356 3103 1142 2972 
Q 928 2841 928 2578 
Q 928 2378 1081 2264 
Q 1234 2150 1697 2047 
L 1894 2003 
Q 2506 1872 2764 1633 
Q 3022 1394 3022 966 
Q 3022 478 2636 193 
Q 2250 -91 1575 -91 
Q 1294 -91 989 -36 
Q 684 19 347 128 
L 347 722 
Q 666 556 975 473 
Q 1284 391 1588 391 
Q 1994 391 2212 530 
Q 2431 669 2431 922 
Q 2431 1156 2273 1281 
Q 2116 1406 1581 1522 
L 1381 1569 
Q 847 1681 609 1914 
Q 372 2147 372 2553 
Q 372 3047 722 3315 
Q 1072 3584 1716 3584 
Q 2034 3584 2315 3537 
Q 2597 3491 2834 3397 
z
" transform="scale(0.015625)"/>
       <path id="DejaVuSans-c" d="M 513 4856 
L 1013 4856 
Q 1481 4119 1714 3412 
Q 1947 2706 1947 2009 
Q 1947 1309 1714 600 
Q 1481 -109 1013 -844 
L 513 -844 
Q 928 -128 1133 580 
Q 1338 1288 1338 2009 
Q 1338 2731 1133 3434 
Q 928 4138 513 4856 
z
" transform="scale(0.015625)"/>
      </defs>
      <use xlink:href="#DejaVuSans-37"/>
      <use xlink:href="#DejaVuSans-4c" transform="translate(58 0)"/>
      <use xlink:href="#DejaVuSans-50" transform="translate(85.78125 0)"/>
      <use xlink:href="#DejaVuSans-48" transform="translate(183.1875 0)"/>
      <use xlink:href="#DejaVuSans-3" transform="translate(244.71875 0)"/>
      <use xlink:href="#DejaVuSans-b" transform="translate(276.5 0)"/>
      <use xlink:href="#DejaVuSans-56" transform="translate(315.515625 0)"/>
      <use xlink:href="#DejaVuSans-c" transform="translate(367.609375 0)"/>
     </g>
    </g>
   </g>
   <g id="matplotlib.axis_2">
    <g id="ytick_1">
     <g id="line2d_7">
      <defs>
       <path id="m435380bf16" d="M 0 0 
L -3.5 0 
" style="stroke: #000000; stroke-width: 0.8"/>
      </defs>
      <g>
       <use xlink:href="#m435380bf16" x="55.071094" y="247.690442" style="stroke: #000000; stroke-width: 0.8"/>
      </g>
     </g>
     <g id="text_8">
      <!-- IMF 1 -->
      <g transform="translate(21.200781 251.48927) scale(0.1 -0.1)">
       <defs>
        <path id="DejaVuSans-2c" d="M 628 4666 
L 1259 4666 
L 1259 0 
L 628 0 
L 628 4666 
z
" transform="scale(0.015625)"/>
        <path id="DejaVuSans-30" d="M 628 4666 
L 1569 4666 
L 2759 1491 
L 3956 4666 
L 4897 4666 
L 4897 0 
L 4281 0 
L 4281 4097 
L 3078 897 
L 2444 897 
L 1241 4097 
L 1241 0 
L 628 0 
L 628 4666 
z
" transform="scale(0.015625)"/>
        <path id="DejaVuSans-29" d="M 628 4666 
L 3309 4666 
L 3309 4134 
L 1259 4134 
L 1259 2759 
L 3109 2759 
L 3109 2228 
L 1259 2228 
L 1259 0 
L 628 0 
L 628 4666 
z
" transform="scale(0.015625)"/>
       </defs>
       <use xlink:href="#DejaVuSans-2c"/>
       <use xlink:href="#DejaVuSans-30" transform="translate(29.5 0)"/>
       <use xlink:href="#DejaVuSans-29" transform="translate(115.78125 0)"/>
       <use xlink:href="#DejaVuSans-3" transform="translate(173.296875 0)"/>
       <use xlink:href="#DejaVuSans-14" transform="translate(205.078125 0)"/>
      </g>
     </g>
    </g>
    <g id="ytick_2">
     <g id="line2d_8">
      <g>
       <use xlink:href="#m435380bf16" x="55.071094" y="161.005424" style="stroke: #000000; stroke-width: 0.8"/>
      </g>
     </g>
     <g id="text_9">
      <!-- IMF 2 -->
      <g transform="translate(21.200781 164.804252) scale(0.1 -0.1)">
       <use xlink:href="#DejaVuSans-2c"/>
       <use xlink:href="#DejaVuSans-30" transform="translate(29.5 0)"/>
       <use xlink:href="#DejaVuSans-29" transform="translate(115.78125 0)"/>
       <use xlink:href="#DejaVuSans-3" transform="translate(173.296875 0)"/>
       <use xlink:href="#DejaVuSans-15" transform="translate(205.078125 0)"/>
      </g>
     </g>
    </g>
    <g id="ytick_3">
     <g id="line2d_9">
      <g>
       <use xlink:href="#m435380bf16" x="55.071094" y="74.320406" style="stroke: #000000; stroke-width: 0.8"/>
      </g>
     </g>
     <g id="text_10">
      <!-- IMF 3 -->
      <g transform="translate(21.200781 78.119234) scale(0.1 -0.1)">
       <use xlink:href="#DejaVuSans-2c"/>
       <use xlink:href="#DejaVuSans-30" transform="translate(29.5 0)"/>
       <use xlink:href="#DejaVuSans-29" transform="translate(115.78125 0)"/>
       <use xlink:href="#DejaVuSans-3" transform="translate(173.296875 0)"/>
       <use xlink:href="#DejaVuSans-16" transform="translate(205.078125 0)"/>
      </g>
     </g>
    </g>
    <g id="text_11">
     <!-- IMF (green=retained) -->
     <g transform="translate(14.798437 214.559531) rotate(-90) scale(0.1 -0.1)">
      <defs>
       <path id="DejaVuSans-4a" d="M 2906 1791 
Q 2906 2416 2648 2759 
Q 2391 3103 1925 3103 
Q 1463 3103 1205 2759 
Q 947 2416 947 1791 
Q 947 1169 1205 825 
Q 1463 481 1925 481 
Q 2391 481 2648 825 
Q 2906 1169 2906 1791 
z
M 3481 434 
Q 3481 -459 3084 -895 
Q 2688 -1331 1869 -1331 
Q 1566 -1331 1297 -1286 
Q 1028 -1241 775 -1147 
L 775 -588 
Q 1028 -725 1275 -790 
Q 1522 -856 1778 -856 
Q 2344 -856 2625 -561 
Q 2906 -266 2906 331 
L 2906 616 
Q 2728 306 2450 153 
Q 2172 0 1784 0 
Q 1141 0 747 490 
Q 353 981 353 1791 
Q 353 2603 747 3093 
Q 1141 3584 1784 3584 
Q 2172 3584 2450 3431 
Q 2728 3278 2906 2969 
L 2906 3500 
L 3481 3500 
L 3481 434 
z
" transform="scale(0.015625)"/>
       <path id="DejaVuSans-55" d="M 2631 2963 
Q 2534 3019 2420 3045 
Q 2306 3072 2169 3072 
Q 1681 3072 1420 2755 
Q 1159 2438 1159 1844 
L 1159 0 
L 581 0 
L 581 3500 
L 1159 3500 
L 1159 2956 
Q 1341 3275 1631 3429 
Q 1922 3584 2338 3584 
Q 2397 3584 2469 3576 
Q 2541 3569 2628 3553 
L 2631 2963 
z
" transform="scale(0.015625)"/>
       <path id="DejaVuSans-51" d="M 3513 2113 
L 3513 0 
L 2938 0 
L 2938 2094 
Q 2938 2591 2744 2837 
Q 2550 3084 2163 3084 
Q 1697 3084 1428 2787 
Q 1159 2491 1159 1978 
L 1159 0 
L 581 0 
L 581 3500 
L 1159 3500 
L 1159 2956 
Q 1366 3272 1645 3428 
Q 1925 3584 2291 3584 
Q 2894 3584 3203 3211 
Q 3513 2838 3513 2113 
z
" transform="scale(0.015625)"/>
       <path id="DejaVuSans-20" d="M 678 2906 
L 4684 2906 
L 4684 2381 
L 678 2381 
L 678 2906 
z
M 678 1631 
L 4684 1631 
L 4684 1100 
L 678 1100 
L 678 1631 
z
" transform="scale(0.015625)"/>
       <path id="DejaVuSans-57" d="M 1172 4494 
L 1172 3500 
L 2356 3500 
L 2356 3053 
L 1172 3053 
L 1172 1153 
Q 1172 725 1289 603 
Q 1406 481 1766 481 
L 2356 481 
L 2356 0 
L 1766 0 
Q 1100 0 847 248 
Q 594 497 594 1153 
L 594 3053 
L 172 3053 
L 172 3500 
L 594 3500 
L 594 4494 
L 1172 4494 
z
" transform="scale(0.015625)"/>
       <path id="DejaVuSans-44" d="M 2194 1759 
Q 1497 1759 1228 1600 
Q 959 1441 959 1056 
Q 959 750 1161 570 
Q 1363 391 1709 391 
Q 2188 391 2477 730 
Q 2766 1069 2766 1631 
L 2766 1759 
L 2194 1759 
z
M 3341 1997 
L 3341 0 
L 2766 0 
L 2766 531 
Q 2569 213 2275 61 
Q 1981 -91 1556 -91 
Q 1019 -91 701 211 
Q 384 513 384 1019 
Q 384 1609 779 1909 
Q 1175 2209 1959 2209 
L 2766 2209 
L 2766 2266 
Q 2766 2663 2505 2880 
Q 2244 3097 1772 3097 
Q 1472 3097 1187 3025 
Q 903 2953 641 2809 
L 641 3341 
Q 956 3463 1253 3523 
Q 1550 3584 1831 3584 
Q 2591 3584 2966 3190 
Q 3341 2797 3341 1997 
z
" transform="scale(0.015625)"/>
       <path id="DejaVuSans-47" d="M 2906 2969 
L 2906 4863 
L 3481 4863 
L 3481 0 
L 2906 0 
L 2906 525 
Q 2725 213 2448 61 
Q 2172 -91 1784 -91 
Q 1150 -91 751 415 
Q 353 922 353 1747 
Q 353 2572 751 3078 
Q 1150 3584 1784 3584 
Q 2172 3584 2448 3432 
Q 2725 3281 2906 2969 
z
M 947 1747 
Q 947 1113 1208 752 
Q 1469 391 1925 391 
Q 2381 391 2643 752 
Q 2906 1113 2906 1747 
Q 2906 2381 2643 2742 
Q 2381 3103 1925 3103 
Q 1469 3103 1208 2742 
Q 947 2381 947 1747 
z
" transform="scale(0.015625)"/>
      </defs>
      <use xlink:href="#DejaVuSans-2c"/>
      <use xlink:href="#DejaVuSans-30" transform="translate(29.5 0)"/>
      <use xlink:href="#DejaVuSans-29" transform="translate(115.78125 0)"/>
      <use xlink:href="#DejaVuSans-3" transform="translate(173.296875 0)"/>
      <use xlink:href="#DejaVuSans-b" transform="translate(205.078125 0)"/>
      <use xlink:href="#DejaVuSans-4a" transform="translate(244.09375 0)"/>
      <use xlink:href="#DejaVuSans-55" transform="translate(307.578125 0)"/>
      <use xlink:href="#DejaVuSans-48" transform="translate(346.484375 0)"/>
      <use xlink:href="#DejaVuSans-48" transform="translate(408.015625 0)"/>
      <use xlink:href="#DejaVuSans-51" transform="translate(469.546875 0)"/>
      <use xlink:href="#DejaVuSans-20" transform="translate(532.921875 0)"/>
      <use xlink:href="#DejaVuSans-55" transform="translate(616.71875 0)"/>
      <use xlink:href="#DejaVuSans-48" transform="translate(655.625 0)"/>
      <use xlink:href="#DejaVuSans-57" transform="translate(717.15625 0)"/>
      <use xlink:href="#DejaVuSans-44" transform="translate(756.359375 0)"/>
      <use xlink:href="#DejaVuSans-4c" transform="translate(817.640625 0)"/>
      <use xlink:href="#DejaVuSans-51" transform="translate(845.421875 0)"/>
      <use xlink:href="#DejaVuSans-48" transform="translate(908.796875 0)"/>
      <use xlink:href="#DejaVuSans-47" transform="translate(970.328125 0)"/>
      <use xlink:href="#DejaVuSans-c" transform="translate(1033.8125 0)"/>
     </g>
    </g>
   </g>
   <g id="line2d_10">
    <path d="M 80.43473 269.340277 
L 81.427436 241.632955 
L 82.420142 227.743515 
L 83.412848 266.494886 
L 84.405554 229.729542 
L 85.39826 230.106452 
L 86.390966 267.052074 
L 87.383672 236.378872 
L 88.376378 224.18717 
L 89.369083 273.798037 
L 90.361789 257.227575 
L 91.354495 216.019483 
L 92.347201 277.528337 
L 93.339907 282.607583 
L 94.332613 213.688841 
L 96.318025 275.99068 
L 97.310731 221.426577 
L 98.303437 242.718487 
L 99.296143 275.648274 
L 100.288849 216.767311 
L 101.281555 231.329154 
L 102.27426 282.639592 
L 103.266966 214.076678 
L 104.259672 228.46271 
L 105.252378 274.452074 
L 106.245084 223.899499 
L 107.23779 224.230679 
L 108.230496 274.497324 
L 109.223202 239.100123 
L 110.215908 215.332273 
L 111.208614 280.945667 
L 112.20132 243.21396 
L 113.194026 217.677714 
L 114.186732 273.109077 
L 115.179437 273.59639 
L 116.172143 221.737062 
L 117.164849 275.184211 
L 118.157555 272.601412 
L 119.150261 218.15959 
L 120.142967 275.755788 
L 121.135673 266.287286 
L 122.128379 223.137869 
L 124.113791 274.820755 
L 125.106497 218.816907 
L 126.099203 251.416378 
L 127.091909 277.223121 
L 128.084614 222.039773 
L 129.07732 217.59001 
L 130.070026 279.315926 
L 131.062732 216.595527 
L 132.055438 213.184863 
L 133.048144 281.444461 
L 134.04085 227.855819 
L 135.033556 217.938028 
L 136.026262 277.495525 
L 137.018968 266.888706 
L 138.011674 213.559657 
L 139.00438 282.679653 
L 139.997086 269.343057 
L 140.989791 215.36625 
L 141.982497 272.826622 
L 142.975203 278.324405 
L 143.967909 216.573286 
L 144.960615 276.931389 
L 145.953321 278.916354 
L 146.946027 218.286897 
L 147.938733 250.690626 
L 148.931439 272.592679 
L 149.924145 222.799391 
L 150.916851 244.88349 
L 151.909557 277.616022 
L 152.902263 215.019949 
L 153.894969 231.317913 
L 154.887674 281.485333 
L 155.88038 215.833017 
L 156.873086 229.914172 
L 157.865792 274.725541 
L 158.858498 250.72097 
L 159.851204 221.762604 
L 160.84391 273.547506 
L 161.836616 253.263335 
L 162.829322 223.339511 
L 163.822028 271.983012 
L 164.814734 248.048745 
L 165.80744 218.336679 
L 166.800146 266.412298 
L 167.792851 283.402839 
L 168.785557 213.525608 
L 169.778263 276.618893 
L 170.770969 264.664109 
L 171.763675 227.882514 
L 172.756381 236.815851 
L 173.749087 272.043469 
L 174.741793 218.83666 
L 175.734499 244.996004 
L 176.727205 280.597927 
L 177.719911 215.358262 
L 178.712617 233.571175 
L 179.705323 279.082777 
L 180.698028 215.286665 
L 181.690734 219.609989 
L 182.68344 281.15315 
L 183.676146 223.540952 
L 184.668852 219.192845 
L 185.661558 273.386134 
L 186.654264 254.118272 
L 187.64697 224.036292 
L 188.639676 271.42339 
L 189.632382 267.574795 
L 190.625088 223.912608 
L 191.617794 259.65229 
L 192.6105 271.03397 
L 193.603205 224.603287 
L 194.595911 264.950366 
L 195.588617 271.663752 
L 196.581323 221.701589 
L 197.574029 243.407685 
L 198.566735 278.935514 
L 199.559441 215.189625 
L 200.552147 245.5511 
L 201.544853 280.239365 
L 202.537559 214.758965 
L 203.530265 226.157669 
L 204.522971 280.91609 
L 205.515677 219.612193 
L 206.508382 218.361653 
L 207.501088 274.866135 
L 208.493794 245.340296 
L 209.4865 221.119512 
L 210.479206 275.528078 
L 211.471912 241.45599 
L 212.464618 219.030122 
L 213.457324 274.224026 
L 214.45003 266.633223 
L 215.442736 227.488475 
L 216.435442 254.348618 
L 217.428148 266.132875 
L 218.420854 228.534191 
L 219.41356 261.547138 
L 220.406265 267.154231 
L 221.398971 229.028013 
L 222.391677 255.819593 
L 223.384383 267.060783 
L 224.377089 225.445924 
L 225.369795 254.137871 
L 226.362501 275.754063 
L 227.355207 220.246046 
L 228.347913 236.348836 
L 229.340619 267.061316 
L 230.333325 237.206254 
L 231.326031 233.860981 
L 232.318737 263.395105 
L 233.311442 257.05975 
L 234.304148 222.845975 
L 235.296854 274.876472 
L 237.282266 223.567345 
L 238.274972 267.498014 
L 239.267678 267.512581 
L 240.260384 228.407456 
L 241.25309 267.171567 
L 242.245796 270.368803 
L 243.238502 222.977732 
L 245.223914 274.654246 
L 246.216619 219.902141 
L 247.209325 250.293415 
L 248.202031 276.804429 
L 249.194737 219.411207 
L 250.187443 236.084817 
L 251.180149 271.151255 
L 252.172855 226.358845 
L 253.165561 236.615967 
L 254.158267 266.40355 
L 255.150973 240.176867 
L 256.143679 231.867727 
L 257.136385 263.106303 
L 258.129091 240.66311 
L 259.121796 227.481004 
L 260.114502 272.008822 
L 261.107208 239.377654 
L 262.099914 218.9279 
L 263.09262 275.438849 
L 264.085326 270.770602 
L 265.078032 223.220032 
L 266.070738 266.620841 
L 267.063444 273.093313 
L 268.05615 222.062219 
L 269.048856 265.987602 
L 270.041562 269.733972 
L 271.034268 227.963981 
L 272.026973 251.899931 
L 273.019679 267.775929 
L 274.012385 223.840087 
L 275.005091 238.211887 
L 275.997797 280.493156 
L 276.990503 213.776185 
L 278.975915 275.61584 
L 279.968621 236.600399 
L 280.961327 227.76396 
L 281.954033 265.757249 
L 282.946739 230.557437 
L 283.939445 229.220059 
L 284.932151 266.750586 
L 285.924856 240.099956 
L 286.917562 227.265296 
L 287.910268 269.902988 
L 288.902974 265.62897 
L 289.89568 220.635225 
L 290.888386 275.822863 
L 291.881092 277.530391 
L 292.873798 217.328733 
L 293.866504 265.065071 
L 294.85921 276.473882 
L 295.851916 222.156331 
L 296.844622 263.521079 
L 297.837328 266.050133 
L 298.830033 229.435957 
L 299.822739 244.674474 
L 300.815445 270.379304 
L 301.808151 229.785046 
L 302.800857 226.090318 
L 303.793563 267.413489 
L 304.786269 232.921205 
L 305.778975 226.162476 
L 306.771681 273.403255 
L 307.764387 226.853349 
L 308.757093 214.731665 
L 309.749799 280.837174 
L 310.742505 262.035929 
L 311.73521 217.938379 
L 312.727916 277.103019 
L 313.720622 274.885622 
L 314.713328 215.468398 
L 315.706034 272.887916 
L 316.69874 281.084934 
L 317.691446 215.670138 
L 318.684152 255.933954 
L 319.676858 275.020097 
L 320.669564 221.709187 
L 321.66227 260.463034 
L 322.654976 276.451649 
L 323.647682 215.093627 
L 324.640387 237.110705 
L 325.633093 285.290819 
L 326.625799 224.472749 
L 327.618505 217.645411 
L 328.611211 271.230254 
L 329.603917 228.672683 
L 330.596623 235.371116 
L 331.589329 268.813881 
L 332.582035 247.116515 
L 333.574741 216.349076 
L 334.567447 283.111988 
L 335.560153 261.94868 
L 336.552859 211.321839 
L 337.545564 281.118834 
L 338.53827 263.491482 
L 339.530976 222.304817 
L 340.523682 269.817574 
L 341.516388 263.868178 
L 342.509094 230.342127 
L 343.5018 257.860533 
L 344.494506 264.053173 
L 345.487212 228.009529 
L 346.479918 250.461545 
L 347.472624 277.686699 
L 348.46533 216.195229 
L 349.458036 261.017986 
L 350.450741 273.568755 
L 351.443447 223.688223 
L 352.436153 246.88921 
L 353.428859 275.911426 
L 354.421565 215.663466 
L 355.414271 225.940145 
L 356.406977 282.955578 
L 358.392389 217.931988 
L 359.385095 273.934865 
L 360.377801 251.265264 
L 361.370507 223.017908 
L 362.363213 274.951363 
L 363.355919 253.633876 
L 364.348624 213.887835 
L 365.34133 282.374103 
L 366.334036 276.332129 
L 367.326742 217.021192 
L 368.319448 275.358908 
L 369.312154 269.813512 
L 370.30486 224.209657 
L 372.290272 269.993179 
L 373.282978 225.955694 
L 374.275684 257.688276 
L 375.26839 267.653151 
L 376.261096 227.652487 
L 377.253801 232.190603 
L 378.246507 271.856351 
L 379.239213 220.162842 
L 380.231919 225.168263 
L 381.224625 279.819168 
L 382.217331 216.29028 
L 383.210037 234.229293 
L 384.202743 272.910303 
L 385.195449 239.874507 
L 386.188155 226.140212 
L 387.180861 270.698331 
L 388.173567 254.102131 
L 389.166273 218.844221 
L 390.158978 272.844734 
L 391.151684 276.62489 
L 392.14439 221.436511 
L 393.137096 264.911142 
L 394.129802 270.080499 
L 395.122508 223.729666 
L 396.115214 243.108325 
L 397.10792 279.477063 
L 398.100626 212.420035 
L 399.093332 226.746526 
L 400.086038 285.82347 
L 401.078744 211.118011 
L 403.064155 274.965485 
L 404.056861 235.122215 
L 405.049567 227.413265 
L 406.042273 271.094188 
L 407.034979 242.307412 
L 408.027685 210.239371 
L 409.020391 286.918125 
L 410.013097 248.271361 
L 411.005803 220.739244 
L 411.998509 267.559914 
L 412.991215 264.815032 
L 413.983921 231.088407 
L 414.976627 256.563807 
L 415.969332 272.443968 
L 416.962038 219.253054 
L 417.954744 275.402985 
L 418.94745 276.402233 
L 419.940156 221.693201 
L 420.932862 255.898025 
L 421.925568 269.850661 
L 422.918274 223.321569 
L 423.91098 238.181425 
L 424.903686 282.912746 
L 425.896392 208.288161 
L 426.889098 242.846463 
L 427.881804 285.82577 
L 428.87451 214.694687 
L 429.867215 228.392797 
L 430.859921 268.870173 
L 431.852627 239.639702 
L 432.845333 228.767169 
L 433.838039 270.297251 
L 434.830745 225.083467 
L 435.823451 216.829722 
L 436.816157 278.031998 
L 437.808863 256.068253 
L 438.801569 225.764351 
L 439.794275 267.769901 
L 440.786981 260.070597 
L 441.779687 221.153946 
L 442.772392 263.612877 
L 443.765098 282.657481 
L 444.757804 212.892722 
L 446.743216 275.11007 
L 447.735922 222.541349 
L 448.728628 238.550181 
L 449.721334 275.0397 
L 450.71404 218.309969 
L 451.706746 220.367253 
L 452.699452 280.17898 
L 453.692158 213.486599 
L 454.684864 228.460467 
L 455.677569 283.092097 
L 456.670275 228.688235 
L 457.662981 218.497853 
L 458.655687 272.986083 
L 460.641099 224.487192 
L 461.633805 272.962564 
L 462.626511 253.421595 
L 463.619217 218.790094 
L 464.611923 265.400862 
L 465.604629 274.112099 
L 466.597335 222.764236 
L 467.590041 254.802009 
L 468.582746 272.558181 
L 469.575452 222.672373 
L 470.568158 259.607868 
L 471.560864 272.151101 
L 472.55357 222.448386 
L 473.546276 231.443817 
L 474.538982 276.467176 
L 475.531688 218.48584 
L 476.524394 224.084299 
L 477.5171 274.155647 
L 478.509806 223.285067 
L 479.502512 222.357228 
L 480.495218 274.175597 
L 481.487923 233.848042 
L 482.480629 221.409731 
L 483.473335 271.727479 
L 484.466041 251.50603 
L 485.458747 226.801161 
L 486.451453 270.768017 
L 487.444159 264.075827 
L 488.436865 218.805536 
L 489.429571 274.94888 
L 490.422277 257.00946 
L 491.414983 229.427732 
L 492.407689 264.294023 
L 493.400395 262.158779 
L 494.393101 227.891186 
L 495.385806 245.363996 
L 496.378512 269.540923 
L 497.371218 225.458913 
L 498.363924 237.891233 
L 499.35663 272.329584 
L 500.349336 221.376715 
L 501.342042 226.77907 
L 502.334748 275.33297 
L 503.327454 233.831584 
L 504.32016 223.52012 
L 505.312866 268.47123 
L 506.305572 259.47432 
L 507.298278 232.828701 
L 508.290983 262.777363 
L 509.283689 258.491499 
L 510.276395 226.141287 
L 511.269101 271.798581 
L 513.254513 225.017763 
L 514.247219 265.640093 
L 515.239925 265.920718 
L 516.232631 228.852543 
L 517.225337 268.861998 
L 518.218043 273.665897 
L 519.210749 218.761561 
L 520.203455 259.18119 
L 521.19616 278.051029 
L 522.188866 217.184587 
L 523.181572 238.095655 
L 524.174278 277.789676 
L 525.166984 225.507908 
L 526.15969 221.424608 
L 527.152396 272.199469 
L 528.145102 227.322597 
L 529.137808 222.61468 
L 530.130514 274.463074 
L 531.12322 227.030757 
L 532.115926 219.174615 
L 533.108632 275.041387 
L 534.101337 247.815917 
L 535.094043 225.123474 
L 536.086749 268.667592 
L 537.079455 263.37306 
L 538.072161 224.782433 
L 539.064867 264.416928 
L 540.057573 277.016934 
L 541.050279 216.540503 
L 542.042985 266.232319 
L 543.035691 276.678638 
L 544.028397 221.049638 
L 545.021103 244.93741 
L 546.013809 271.909064 
L 547.006514 222.703617 
L 547.99922 240.300486 
L 548.991926 277.049917 
L 549.984632 216.171044 
L 550.977338 223.29073 
L 551.970044 280.048444 
L 552.96275 228.559998 
L 553.955456 219.045997 
L 554.948162 274.751329 
L 555.940868 252.282187 
L 556.933574 220.491486 
L 557.92628 275.958619 
L 558.918986 242.674461 
L 559.911692 217.769503 
L 560.904397 277.651706 
L 561.897103 253.786839 
L 562.889809 218.735423 
L 563.882515 276.185105 
L 564.875221 269.107798 
L 565.867927 219.491585 
L 566.860633 261.824214 
L 567.853339 276.351232 
L 568.846045 218.602265 
L 569.838751 250.287042 
L 570.831457 276.693384 
L 571.824163 219.545937 
L 572.816869 252.621758 
L 573.809574 274.120527 
L 574.80228 221.930192 
L 575.794986 236.93913 
L 576.787692 269.692672 
L 577.780398 239.246199 
L 578.773104 230.601322 
L 579.76581 265.933016 
L 580.758516 245.231131 
L 581.751222 219.948452 
L 582.743928 278.992023 
L 583.736634 244.072561 
L 584.72934 216.12444 
L 585.722046 278.357698 
L 586.714751 265.204712 
L 587.707457 217.28423 
L 587.707457 217.28423 
" clip-path="url(#pc038a942b6)" style="fill: none; stroke: #2a9d8f; stroke-width: 0.6; stroke-linecap: square"/>
   </g>
   <g id="line2d_11">
    <path d="M 80.43473 187.536715 
L 83.412848 183.273269 
L 84.405554 179.965887 
L 85.39826 175.119782 
L 86.390966 169.171062 
L 88.376378 151.556262 
L 89.369083 145.725228 
L 90.361789 140.595913 
L 91.354495 138.21018 
L 93.339907 134.619147 
L 94.332613 134.406868 
L 95.325319 136.333278 
L 96.318025 138.913719 
L 97.310731 142.810953 
L 99.296143 152.514102 
L 100.288849 161.104446 
L 102.27426 176.237173 
L 103.266966 181.264332 
L 104.259672 184.848358 
L 105.252378 187.718899 
L 106.245084 189.489255 
L 107.23779 189.469429 
L 108.230496 187.311954 
L 109.223202 182.347018 
L 110.215908 176.142508 
L 111.208614 168.784871 
L 112.20132 157.612681 
L 113.194026 148.364105 
L 114.186732 141.710412 
L 115.179437 135.952327 
L 116.172143 133.348546 
L 117.164849 129.864923 
L 118.157555 128.687083 
L 119.150261 130.487788 
L 120.142967 136.846094 
L 122.128379 151.587123 
L 123.121085 154.572323 
L 124.113791 154.835451 
L 125.106497 155.536747 
L 126.099203 159.098581 
L 127.091909 165.730489 
L 129.07732 183.750796 
L 130.070026 191.321048 
L 131.062732 194.860161 
L 132.055438 195.046369 
L 133.048144 189.754519 
L 134.04085 179.162848 
L 136.026262 154.227609 
L 137.018968 147.003037 
L 138.011674 143.144196 
L 139.00438 141.754917 
L 140.989791 135.199792 
L 142.975203 127.894233 
L 143.967909 128.956333 
L 145.953321 134.448755 
L 146.946027 139.634098 
L 147.938733 144.102178 
L 148.931439 149.865602 
L 149.924145 158.386954 
L 150.916851 167.897725 
L 152.902263 184.002005 
L 153.894969 188.525924 
L 154.887674 191.936295 
L 155.88038 191.068133 
L 157.865792 183.33827 
L 158.858498 178.628592 
L 159.851204 174.56444 
L 160.84391 168.1154 
L 161.836616 160.45086 
L 162.829322 151.662642 
L 163.822028 146.041983 
L 164.814734 142.754246 
L 165.80744 140.625482 
L 166.800146 136.78356 
L 167.792851 132.457649 
L 168.785557 130.033894 
L 169.778263 133.59397 
L 172.756381 159.059488 
L 173.749087 163.399896 
L 174.741793 166.776159 
L 176.727205 176.026379 
L 181.690734 191.383073 
L 182.68344 188.636207 
L 183.676146 182.083572 
L 185.661558 164.074898 
L 186.654264 156.676539 
L 187.64697 151.631914 
L 191.617794 136.954052 
L 192.6105 134.627876 
L 193.603205 133.525943 
L 194.595911 136.18625 
L 195.588617 140.351121 
L 198.566735 155.680762 
L 199.559441 159.384754 
L 200.552147 163.628395 
L 203.530265 182.986292 
L 204.522971 186.288886 
L 205.515677 184.10565 
L 206.508382 180.481871 
L 208.493794 172.009017 
L 211.471912 156.327186 
L 212.464618 151.580989 
L 213.457324 145.824877 
L 214.45003 142.27084 
L 215.442736 136.603481 
L 216.435442 132.736138 
L 217.428148 131.931697 
L 218.420854 134.434538 
L 220.406265 149.215092 
L 221.398971 154.232199 
L 222.391677 156.283404 
L 223.384383 158.855095 
L 224.377089 164.463241 
L 227.355207 187.154436 
L 228.347913 192.317549 
L 229.340619 195.859818 
L 230.333325 196.943984 
L 231.326031 195.273722 
L 232.318737 192.125161 
L 233.311442 188.267116 
L 234.304148 185.311907 
L 235.296854 181.87049 
L 236.28956 177.533743 
L 237.282266 169.857131 
L 239.267678 151.177422 
L 240.260384 143.330684 
L 241.25309 136.734236 
L 242.245796 132.834981 
L 243.238502 132.855819 
L 244.231208 136.032724 
L 246.216619 143.642677 
L 248.202031 145.931292 
L 249.194737 149.563705 
L 251.180149 162.299127 
L 252.172855 167.691285 
L 253.165561 168.220247 
L 254.158267 165.702247 
L 255.150973 161.131781 
L 256.143679 157.816066 
L 257.136385 157.43326 
L 258.129091 162.754729 
L 259.121796 165.237331 
L 260.114502 164.142537 
L 261.107208 157.868248 
L 262.099914 150.614577 
L 263.09262 145.843009 
L 264.085326 143.97986 
L 265.078032 143.989145 
L 266.070738 142.617236 
L 267.063444 141.83372 
L 268.05615 143.489161 
L 269.048856 147.594849 
L 273.019679 173.363525 
L 274.012385 181.754972 
L 275.005091 187.193059 
L 275.997797 193.395954 
L 276.990503 195.429566 
L 277.983209 196.488271 
L 279.968621 199.447719 
L 280.961327 200.171824 
L 281.954033 200.407705 
L 282.946739 198.665804 
L 283.939445 196.332921 
L 284.932151 191.352105 
L 285.924856 182.975637 
L 287.910268 162.972589 
L 288.902974 154.393516 
L 289.89568 150.493503 
L 290.888386 148.789677 
L 292.873798 148.77818 
L 293.866504 148.512877 
L 294.85921 147.179082 
L 295.851916 147.818795 
L 296.844622 151.369463 
L 297.837328 156.840562 
L 298.830033 163.921862 
L 299.822739 165.132066 
L 300.815445 165.152437 
L 301.808151 159.426618 
L 302.800857 156.031523 
L 303.793563 158.77944 
L 304.786269 165.203514 
L 305.778975 170.033805 
L 306.771681 170.492956 
L 307.764387 167.554081 
L 308.757093 161.633645 
L 310.742505 151.882837 
L 311.73521 147.405021 
L 312.727916 145.681304 
L 313.720622 144.432076 
L 314.713328 145.005284 
L 315.706034 147.651424 
L 316.69874 149.58043 
L 317.691446 150.849398 
L 318.684152 150.803838 
L 320.669564 153.008925 
L 322.654976 161.066471 
L 323.647682 168.06757 
L 324.640387 173.787354 
L 325.633093 177.350522 
L 326.625799 177.184927 
L 327.618505 175.631687 
L 328.611211 176.524053 
L 329.603917 178.815299 
L 330.596623 180.792796 
L 331.589329 179.398675 
L 333.574741 173.268692 
L 336.552859 157.353642 
L 337.545564 154.609302 
L 338.53827 153.666945 
L 339.530976 153.127294 
L 341.516388 146.698155 
L 342.509094 145.686255 
L 343.5018 147.594047 
L 346.479918 165.342217 
L 347.472624 167.871458 
L 348.46533 169.654368 
L 349.458036 171.079225 
L 350.450741 175.923553 
L 351.443447 181.381463 
L 352.436153 185.855128 
L 353.428859 189.16826 
L 354.421565 189.694331 
L 355.414271 187.047843 
L 356.406977 182.638946 
L 358.392389 166.467199 
L 359.385095 160.142243 
L 362.363213 150.764315 
L 363.355919 144.654423 
L 364.348624 139.589096 
L 365.34133 135.318738 
L 366.334036 132.155881 
L 367.326742 130.04481 
L 368.319448 131.465371 
L 369.312154 135.35059 
L 370.30486 142.242912 
L 372.290272 159.919025 
L 374.275684 175.986069 
L 375.26839 181.44639 
L 376.261096 185.892671 
L 377.253801 187.282409 
L 378.246507 187.319229 
L 379.239213 186.588356 
L 380.231919 186.380234 
L 381.224625 183.769784 
L 382.217331 180.681395 
L 383.210037 176.785194 
L 384.202743 172.35176 
L 385.195449 167.064056 
L 387.180861 154.088276 
L 388.173567 147.80896 
L 389.166273 142.649498 
L 390.158978 139.929713 
L 391.151684 138.73761 
L 393.137096 135.311215 
L 394.129802 138.418677 
L 395.122508 146.497741 
L 397.10792 168.572407 
L 398.100626 175.177029 
L 399.093332 177.713099 
L 400.086038 178.100693 
L 401.078744 180.56187 
L 403.064155 186.645737 
L 404.056861 189.117837 
L 405.049567 187.040057 
L 406.042273 183.355104 
L 408.027685 178.234045 
L 409.020391 174.935438 
L 410.013097 166.926956 
L 411.998509 145.453656 
L 412.991215 138.878493 
L 413.983921 134.208411 
L 414.976627 132.369786 
L 415.969332 131.857235 
L 416.962038 132.648119 
L 417.954744 135.905375 
L 419.940156 146.527543 
L 420.932862 151.39982 
L 421.925568 157.985402 
L 422.918274 166.08453 
L 424.903686 177.858933 
L 425.896392 182.030095 
L 427.881804 187.649587 
L 428.87451 187.797431 
L 429.867215 185.687332 
L 430.859921 184.040065 
L 431.852627 182.975789 
L 432.845333 180.049248 
L 433.838039 175.042211 
L 434.830745 168.380157 
L 437.808863 146.49952 
L 438.801569 139.975767 
L 439.794275 135.204983 
L 440.786981 136.022009 
L 441.779687 139.206004 
L 443.765098 149.316267 
L 444.757804 153.572126 
L 445.75051 158.54619 
L 446.743216 162.816577 
L 447.735922 168.309216 
L 448.728628 172.697012 
L 449.721334 175.980247 
L 450.71404 180.003503 
L 451.706746 185.41909 
L 452.699452 189.814962 
L 453.692158 193.473663 
L 454.684864 191.620541 
L 455.677569 185.478829 
L 457.662981 163.355775 
L 458.655687 155.80709 
L 459.648393 151.739285 
L 460.641099 149.265882 
L 461.633805 144.273788 
L 463.619217 131.612188 
L 464.611923 127.237493 
L 466.597335 123.159301 
L 467.590041 122.178854 
L 468.582746 123.512765 
L 469.575452 126.672181 
L 471.560864 144.709009 
L 472.55357 153.980909 
L 474.538982 166.144777 
L 475.531688 169.102313 
L 476.524394 174.502633 
L 477.5171 178.980174 
L 478.509806 183.972705 
L 479.502512 185.373482 
L 480.495218 183.382057 
L 482.480629 174.443318 
L 483.473335 171.820912 
L 484.466041 171.430739 
L 485.458747 169.58722 
L 487.444159 158.980812 
L 488.436865 155.584713 
L 489.429571 158.098904 
L 490.422277 161.911214 
L 491.414983 163.814486 
L 492.407689 161.745269 
L 494.393101 156.785661 
L 495.385806 158.992859 
L 497.371218 168.904789 
L 498.363924 173.021992 
L 499.35663 176.441224 
L 500.349336 178.776185 
L 501.342042 179.935402 
L 502.334748 180.768732 
L 503.327454 178.193563 
L 504.32016 174.288363 
L 505.312866 167.771021 
L 507.298278 151.644806 
L 508.290983 145.242372 
L 509.283689 143.519351 
L 510.276395 141.54107 
L 511.269101 138.846996 
L 513.254513 128.16659 
L 514.247219 123.919409 
L 515.239925 123.22632 
L 516.232631 125.209219 
L 517.225337 126.299909 
L 518.218043 128.832204 
L 519.210749 131.743323 
L 520.203455 140.110636 
L 521.19616 149.86841 
L 522.188866 161.93488 
L 523.181572 172.068545 
L 524.174278 179.0515 
L 525.166984 183.220357 
L 526.15969 185.623275 
L 527.152396 188.485386 
L 528.145102 192.803197 
L 529.137808 194.631374 
L 530.130514 194.115201 
L 531.12322 187.288476 
L 532.115926 178.971935 
L 534.101337 158.530832 
L 536.086749 143.432179 
L 537.079455 140.274363 
L 538.072161 136.588423 
L 539.064867 134.35678 
L 540.057573 133.18416 
L 541.050279 134.546667 
L 542.042985 137.957015 
L 544.028397 150.117109 
L 547.006514 162.608783 
L 547.99922 167.457637 
L 549.984632 179.598133 
L 550.977338 185.686292 
L 551.970044 188.259379 
L 552.96275 188.018401 
L 553.955456 184.801436 
L 554.948162 180.640155 
L 555.940868 174.426985 
L 560.904397 151.134895 
L 562.889809 138.286379 
L 563.882515 133.349056 
L 564.875221 131.426564 
L 565.867927 131.244902 
L 566.860633 134.321372 
L 567.853339 140.881859 
L 569.838751 156.504939 
L 570.831457 163.316879 
L 571.824163 166.006156 
L 572.816869 167.048946 
L 573.809574 169.166055 
L 574.80228 174.881947 
L 576.787692 189.962745 
L 577.780398 191.968496 
L 578.773104 189.6971 
L 579.76581 184.353178 
L 580.758516 177.990115 
L 582.743928 168.120506 
L 583.736634 162.153281 
L 585.722046 148.152322 
L 586.714751 143.867333 
L 587.707457 142.252325 
L 587.707457 142.252325 
" clip-path="url(#pc038a942b6)" style="fill: none; stroke: #b0b0b0; stroke-width: 0.6; stroke-linecap: square"/>
   </g>
   <g id="line2d_12">
    <path d="M 80.43473 74.3273 
L 84.405554 75.393207 
L 87.383672 75.991681 
L 90.361789 76.316916 
L 92.347201 76.337054 
L 94.332613 76.168915 
L 96.318025 75.801622 
L 99.296143 74.977848 
L 106.245084 72.791174 
L 109.223202 72.182008 
L 111.208614 71.958399 
L 113.194026 71.892199 
L 115.179437 71.993762 
L 117.164849 72.273705 
L 119.150261 72.741142 
L 122.128379 73.726905 
L 129.07732 76.281165 
L 131.062732 76.797407 
L 133.048144 77.106908 
L 135.033556 77.190725 
L 137.018968 77.069946 
L 139.00438 76.764727 
L 140.989791 76.294693 
L 143.967909 75.324298 
L 148.931439 73.320405 
L 151.909557 72.185423 
L 153.894969 71.572466 
L 155.88038 71.13768 
L 157.865792 70.899578 
L 159.851204 70.841219 
L 161.836616 70.944123 
L 164.814734 71.36042 
L 167.792851 72.035259 
L 171.763675 73.223582 
L 182.68344 76.806385 
L 192.6105 79.528999 
L 195.588617 80.69664 
L 203.530265 84.143948 
L 205.515677 84.782591 
L 207.501088 85.192269 
L 209.4865 85.261782 
L 210.479206 85.133998 
L 211.471912 84.879875 
L 212.464618 84.486215 
L 213.457324 83.939818 
L 214.45003 83.227484 
L 215.442736 82.336013 
L 216.435442 81.252206 
L 217.428148 79.962863 
L 219.41356 76.777272 
L 221.398971 72.986158 
L 228.347913 58.838483 
L 230.333325 55.656564 
L 231.326031 54.37703 
L 232.318737 53.348204 
L 233.311442 52.601726 
L 234.304148 52.169234 
L 235.296854 52.082351 
L 236.28956 52.372561 
L 237.282266 53.071042 
L 238.274972 54.208903 
L 239.267678 55.817248 
L 240.260384 57.927186 
L 241.25309 60.569822 
L 242.245796 63.776263 
L 243.238502 67.547825 
L 245.223914 76.285121 
L 248.202031 90.161883 
L 250.187443 98.204457 
L 251.180149 101.420242 
L 252.172855 103.90217 
L 253.165561 105.502601 
L 254.158267 106.097454 
L 255.150973 105.656893 
L 256.143679 104.174678 
L 257.136385 101.644578 
L 258.129091 98.114045 
L 260.114502 89.121793 
L 263.09262 73.6363 
L 265.078032 63.435914 
L 267.063444 54.472038 
L 268.05615 50.747476 
L 269.048856 47.612503 
L 270.041562 45.029183 
L 271.034268 42.940936 
L 272.026973 41.291182 
L 273.019679 40.023345 
L 274.012385 39.080843 
L 275.005091 38.407099 
L 275.997797 37.945533 
L 277.983209 37.432622 
L 280.961327 36.840118 
L 282.946739 36.018894 
L 284.932151 35.149182 
L 285.924856 34.918125 
L 286.917562 34.943874 
L 287.910268 35.318242 
L 288.902974 36.133298 
L 289.89568 37.481116 
L 290.888386 39.453767 
L 291.881092 42.124236 
L 292.873798 45.489166 
L 293.866504 49.526113 
L 294.85921 54.212633 
L 296.844622 65.287324 
L 302.800857 101.629042 
L 303.793563 105.302474 
L 304.786269 107.24773 
L 305.778975 107.282969 
L 306.771681 105.269568 
L 307.764387 101.308612 
L 308.757093 95.788239 
L 310.742505 81.863952 
L 312.727916 67.086127 
L 313.720622 60.498831 
L 314.713328 55.044182 
L 315.706034 51.120218 
L 316.69874 48.922405 
L 317.691446 48.544223 
L 318.684152 49.873515 
L 319.676858 52.717037 
L 320.669564 56.766146 
L 322.654976 67.131396 
L 324.640387 78.269802 
L 325.633093 83.285358 
L 326.625799 87.505343 
L 327.618505 90.692343 
L 328.611211 92.620734 
L 329.603917 93.275743 
L 330.596623 92.700445 
L 331.589329 90.973895 
L 332.582035 88.306431 
L 333.574741 84.941004 
L 338.53827 66.147622 
L 339.530976 63.663996 
L 340.523682 61.958933 
L 341.516388 60.931042 
L 342.509094 60.466605 
L 343.5018 60.516515 
L 344.494506 61.024276 
L 345.487212 61.927115 
L 346.479918 63.162257 
L 347.472624 64.66693 
L 349.458036 68.233771 
L 353.428859 75.839769 
L 354.421565 77.473487 
L 355.414271 78.886947 
L 356.406977 80.079377 
L 357.399683 81.062408 
L 358.392389 81.847672 
L 359.385095 82.446797 
L 360.377801 82.871415 
L 361.370507 83.133157 
L 362.363213 83.243653 
L 363.355919 83.214345 
L 364.348624 83.055697 
L 366.334036 82.387592 
L 368.319448 81.314031 
L 370.30486 79.941752 
L 376.261096 75.428376 
L 378.246507 74.256098 
L 380.231919 73.393234 
L 382.217331 72.806193 
L 384.202743 72.457682 
L 386.188155 72.310407 
L 389.166273 72.385439 
L 392.14439 72.707579 
L 403.064155 74.167713 
L 406.042273 74.158756 
L 409.020391 73.871324 
L 411.998509 73.366126 
L 416.962038 72.235779 
L 421.925568 70.878893 
L 425.896392 69.540788 
L 429.867215 67.913417 
L 436.816157 64.85566 
L 439.794275 63.849287 
L 441.779687 63.405183 
L 443.765098 63.255868 
L 444.757804 63.326413 
L 445.75051 63.510782 
L 446.743216 63.820986 
L 447.735922 64.268905 
L 448.728628 64.866422 
L 449.721334 65.625419 
L 450.71404 66.557778 
L 451.706746 67.67538 
L 452.699452 68.990108 
L 453.692158 70.513844 
L 455.677569 74.175392 
L 457.662981 78.452701 
L 464.611923 94.406052 
L 466.597335 98.140274 
L 467.590041 99.702697 
L 468.582746 101.015642 
L 469.575452 102.037034 
L 470.568158 102.723076 
L 471.560864 103.029901 
L 472.55357 102.913288 
L 473.546276 102.328708 
L 474.538982 101.231571 
L 475.531688 99.577291 
L 476.524394 97.321278 
L 477.5171 94.418945 
L 478.509806 90.825703 
L 479.502512 86.521707 
L 481.487923 76.246235 
L 485.458747 54.404413 
L 486.451453 49.821396 
L 487.444159 45.982396 
L 488.436865 43.083933 
L 489.429571 41.310345 
L 490.422277 40.797235 
L 491.414983 41.668743 
L 492.407689 43.979767 
L 493.400395 47.497411 
L 494.393101 51.923957 
L 496.378512 62.526081 
L 500.349336 85.192588 
L 501.342042 90.029496 
L 502.334748 94.145593 
L 503.327454 97.390332 
L 504.32016 99.788817 
L 505.312866 101.410062 
L 506.305572 102.323086 
L 507.298278 102.596904 
L 508.290983 102.300458 
L 509.283689 101.502311 
L 510.276395 100.270618 
L 511.269101 98.673449 
L 513.254513 94.654964 
L 516.232631 87.580024 
L 520.203455 78.096317 
L 522.188866 73.740772 
L 524.174278 69.863094 
L 526.15969 66.628532 
L 527.152396 65.304058 
L 528.145102 64.202331 
L 529.137808 63.344006 
L 530.130514 62.74264 
L 531.12322 62.38339 
L 532.115926 62.244315 
L 533.108632 62.302948 
L 534.101337 62.53472 
L 535.094043 62.914536 
L 537.079455 64.017918 
L 540.057573 66.155948 
L 545.021103 69.754691 
L 547.99922 71.628187 
L 549.984632 72.676248 
L 551.970044 73.51776 
L 553.955456 74.126716 
L 555.940868 74.527634 
L 558.918986 74.821415 
L 561.897103 74.8625 
L 571.824163 74.753546 
L 583.736634 74.804499 
L 587.707457 74.711739 
L 587.707457 74.711739 
" clip-path="url(#pc038a942b6)" style="fill: none; stroke: #b0b0b0; stroke-width: 0.6; stroke-linecap: square"/>
   </g>
   <g id="patch_3">
    <path d="M 55.071094 299.518125 
L 55.071094 22.318125 
" style="fill: none; stroke: #000000; stroke-width: 0.8; stroke-linejoin: miter; stroke-linecap: square"/>
   </g>
   <g id="patch_4">
    <path d="M 613.071094 299.518125 
L 613.071094 22.318125 
" style="fill: none; stroke: #000000; stroke-width: 0.8; stroke-linejoin: miter; stroke-linecap: square"/>
   </g>
   <g id="patch_5">
    <path d="M 55.071094 299.518125 
L 613.071094 299.518125 
" style="fill: none; stroke: #000000; stroke-width: 0.8; stroke-linejoin: miter; stroke-linecap: square"/>
   </g>
   <g id="patch_6">
    <path d="M 55.071094 22.318125 
L 613.071094 22.318125 
" style="fill: none; stroke: #000000; stroke-width: 0.8; stroke-linejoin: miter; stroke-linecap: square"/>
   </g>
   <g id="text_12">
    <!-- Retained versus suppressed IMFs -->
    <g transform="translate(234.147656 16.318125) scale(0.12 -0.12)">
     <defs>
      <path id="DejaVuSans-35" d="M 2841 2188 
Q 3044 2119 3236 1894 
Q 3428 1669 3622 1275 
L 4263 0 
L 3584 0 
L 2988 1197 
Q 2756 1666 2539 1819 
Q 2322 1972 1947 1972 
L 1259 1972 
L 1259 0 
L 628 0 
L 628 4666 
L 2053 4666 
Q 2853 4666 3247 4331 
Q 3641 3997 3641 3322 
Q 3641 2881 3436 2590 
Q 3231 2300 2841 2188 
z
M 1259 4147 
L 1259 2491 
L 2053 2491 
Q 2509 2491 2742 2702 
Q 2975 2913 2975 3322 
Q 2975 3731 2742 3939 
Q 2509 4147 2053 4147 
L 1259 4147 
z
" transform="scale(0.015625)"/>
      <path id="DejaVuSans-59" d="M 191 3500 
L 800 3500 
L 1894 563 
L 2988 3500 
L 3597 3500 
L 2284 0 
L 1503 0 
L 191 3500 
z
" transform="scale(0.015625)"/>
      <path id="DejaVuSans-58" d="M 544 1381 
L 544 3500 
L 1119 3500 
L 1119 1403 
Q 1119 906 1312 657 
Q 1506 409 1894 409 
Q 2359 409 2629 706 
Q 2900 1003 2900 1516 
L 2900 3500 
L 3475 3500 
L 3475 0 
L 2900 0 
L 2900 538 
Q 2691 219 2414 64 
Q 2138 -91 1772 -91 
Q 1169 -91 856 284 
Q 544 659 544 1381 
z
M 1991 3584 
L 1991 3584 
z
" transform="scale(0.015625)"/>
      <path id="DejaVuSans-53" d="M 1159 525 
L 1159 -1331 
L 581 -1331 
L 581 3500 
L 1159 3500 
L 1159 2969 
Q 1341 3281 1617 3432 
Q 1894 3584 2278 3584 
Q 2916 3584 3314 3078 
Q 3713 2572 3713 1747 
Q 3713 922 3314 415 
Q 2916 -91 2278 -91 
Q 1894 -91 1617 61 
Q 1341 213 1159 525 
z
M 3116 1747 
Q 3116 2381 2855 2742 
Q 2594 3103 2138 3103 
Q 1681 3103 1420 2742 
Q 1159 2381 1159 1747 
Q 1159 1113 1420 752 
Q 1681 391 2138 391 
Q 2594 391 2855 752 
Q 3116 1113 3116 1747 
z
" transform="scale(0.015625)"/>
     </defs>
     <use xlink:href="#DejaVuSans-35"/>
     <use xlink:href="#DejaVuSans-48" transform="translate(65 0)"/>
     <use xlink:href="#DejaVuSans-57" transform="translate(126.53125 0)"/>
     <use xlink:href="#DejaVuSans-44" transform="translate(165.734375 0)"/>
     <use xlink:href="#DejaVuSans-4c" transform="translate(227.015625 0)"/>
     <use xlink:href="#DejaVuSans-51" transform="translate(254.796875 0)"/>
     <use xlink:href="#DejaVuSans-48" transform="translate(318.171875 0)"/>
     <use xlink:href="#DejaVuSans-47" transform="translate(379.703125 0)"/>
     <use xlink:href="#DejaVuSans-3" transform="translate(443.1875 0)"/>
     <use xlink:href="#DejaVuSans-59" transform="translate(474.96875 0)"/>
     <use xlink:href="#DejaVuSans-48" transform="translate(534.15625 0)"/>
     <use xlink:href="#DejaVuSans-55" transform="translate(595.6875 0)"/>
     <use xlink:href="#DejaVuSans-56" transform="translate(636.796875 0)"/>
     <use xlink:href="#DejaVuSans-58" transform="translate(688.890625 0)"/>
     <use xlink:href="#DejaVuSans-56" transform="translate(752.265625 0)"/>
     <use xlink:href="#DejaVuSans-3" transform="translate(804.359375 0)"/>
     <use xlink:href="#DejaVuSans-56" transform="translate(836.140625 0)"/>
     <use xlink:href="#DejaVuSans-58" transform="translate(888.234375 0)"/>
     <use xlink:href="#DejaVuSans-53" transform="translate(951.609375 0)"/>
     <use xlink:href="#DejaVuSans-53" transform="translate(1015.09375 0)"/>
     <use xlink:href="#DejaVuSans-55" transform="translate(1078.578125 0)"/>
     <use xlink:href="#DejaVuSans-48" transform="translate(1117.484375 0)"/>
     <use xlink:href="#DejaVuSans-56" transform="translate(1179.015625 0)"/>
     <use xlink:href="#DejaVuSans-56" transform="translate(1231.109375 0)"/>
     <use xlink:href="#DejaVuSans-48" transform="translate(1283.203125 0)"/>
     <use xlink:href="#DejaVuSans-47" transform="translate(1344.734375 0)"/>
     <use xlink:href="#DejaVuSans-3" transform="translate(1408.21875 0)"/>
     <use xlink:href="#DejaVuSans-2c" transform="translate(1440 0)"/>
     <use xlink:href="#DejaVuSans-30" transform="translate(1469.5 0)"/>
     <use xlink:href="#DejaVuSans-29" transform="translate(1555.78125 0)"/>
     <use xlink:href="#DejaVuSans-56" transform="translate(1613.296875 0)"/>
    </g>
   </g>
  </g>
 </g>
 <defs>
  <clipPath id="pc038a942b6">
   <rect x="55.071094" y="22.318125" width="558" height="277.2"/>
  </clipPath>
 </defs>
</svg>
