<?xml version="1.0" encoding="utf-8" standalone="no"?>
<!DOCTYPE svg PUBLIC "-//W3C//DTD SVG 1.1//EN"
  "http://www.w3.org/Graphics/SVG/1.1/DTD/svg11.dtd">
<svg xmlns:xlink="http://www.w3.org/1999/xlink" width="565.500781pt" height="282.278125pt" viewBox="0 0 565.500781 282.278125" xmlns="http://www.w3.org/2000/svg" version="1.1">
 <metadata>
  <rdf:RDF xmlns:dc="http://purl.org/dc/elements/1.1/" xmlns:cc="http://creativecommons.org/ns#" xmlns:rdf="http://www.w3.org/1999/02/22-rdf-syntax-ns#">
   <cc:Work>
    <dc:type rdf:resource="http://purl.org/dc/dcmitype/StillImage"/>
    <dc:date>2026-07-14T07:01:49.541094</dc:date>
    <dc:format>image/svg+xml</dc:format>
    <dc:creator>
     <cc:Agent>
      <dc:title>Matplotlib v3.11.0, https://matplotlib.org/</dc:title>
     </cc:Agent>
    </dc:creator>
   </cc:Work>
  </rdf:RDF>
 </metadata>
 <defs>
  <style type="text/css">*{stroke-linejoin: round; stroke-linecap: butt}</style>
 </defs>
 <g id="figure_1">
  <g id="patch_1">
   <path d="M 0 282.278125 
L 565.500781 282.278125 
L 565.500781 0 
L 0 0 
z
" style="fill: #ffffff"/>
  </g>
  <g id="axes_1">
   <g id="patch_2">
    <path d="M 56.100781 244.078125 
L 558.300781 244.078125 
L 558.300781 22.318125 
L 56.100781 22.318125 
z
" style="fill: #ffffff"/>
   </g>
   <g id="patch_3">
    <path d="M 316.33169 244.078125 
L 425.902599 244.078125 
L 425.902599 22.318125 
L 316.33169 22.318125 
z
" clip-path="url(#p9dfc2f5f48)" style="fill: #dc143c; opacity: 0.15; stroke: #dc143c; stroke-linejoin: miter"/>
   </g>
   <g id="matplotlib.axis_1">
    <g id="xtick_1">
     <g id="line2d_1">
      <path d="M 78.928054 244.078125 
L 78.928054 22.318125 
" clip-path="url(#p9dfc2f5f48)" style="fill: none; stroke: #b0b0b0; stroke-opacity: 0.25; stroke-width: 0.8; stroke-linecap: square"/>
     </g>
     <g id="line2d_2">
      <defs>
       <path id="m872200e160" d="M 0 0 
L 0 3.5 
" style="stroke: #000000; stroke-width: 0.8"/>
      </defs>
      <g>
       <use xlink:href="#m872200e160" x="78.928054" y="244.078125" style="stroke: #000000; stroke-width: 0.8"/>
      </g>
     </g>
     <g id="text_1">
      <!-- 0 -->
      <g transform="translate(75.746804 258.675781) scale(0.1 -0.1)">
       <defs>
        <path id="DejaVuSans-13" d="M 2034 4250 
Q 1547 4250 1301 3770 
Q 1056 3291 1056 2328 
Q 1056 1369 1301 889 
Q 1547 409 2034 409 
Q 2525 409 2770 889 
Q 3016 1369 3016 2328 
Q 3016 3291 2770 3770 
Q 2525 4250 2034 4250 
z
M 2034 4750 
Q 2819 4750 3233 4129 
Q 3647 3509 3647 2328 
Q 3647 1150 3233 529 
Q 2819 -91 2034 -91 
Q 1250 -91 836 529 
Q 422 1150 422 2328 
Q 422 3509 836 4129 
Q 1250 4750 2034 4750 
z
" transform="scale(0.015625)"/>
       </defs>
       <use xlink:href="#DejaVuSans-13"/>
      </g>
     </g>
    </g>
    <g id="xtick_2">
     <g id="line2d_3">
      <path d="M 170.237145 244.078125 
L 170.237145 22.318125 
" clip-path="url(#p9dfc2f5f48)" style="fill: none; stroke: #b0b0b0; stroke-opacity: 0.25; stroke-width: 0.8; stroke-linecap: square"/>
     </g>
     <g id="line2d_4">
      <g>
       <use xlink:href="#m872200e160" x="170.237145" y="244.078125" style="stroke: #000000; stroke-width: 0.8"/>
      </g>
     </g>
     <g id="text_2">
      <!-- 100 -->
      <g transform="translate(160.693395 258.675781) scale(0.1 -0.1)">
       <defs>
        <path id="DejaVuSans-14" d="M 794 531 
L 1825 531 
L 1825 4091 
L 703 3866 
L 703 4441 
L 1819 4666 
L 2450 4666 
L 2450 531 
L 3481 531 
L 3481 0 
L 794 0 
L 794 531 
z
" transform="scale(0.015625)"/>
       </defs>
       <use xlink:href="#DejaVuSans-14"/>
       <use xlink:href="#DejaVuSans-13" transform="translate(63.625 0)"/>
       <use xlink:href="#DejaVuSans-13" transform="translate(127.25 0)"/>
      </g>
     </g>
    </g>
    <g id="xtick_3">
     <g id="line2d_5">
      <path d="M 261.546236 244.078125 
L 261.546236 22.318125 
" clip-path="url(#p9dfc2f5f48)" style="fill: none; stroke: #b0b0b0; stroke-opacity: 0.25; stroke-width: 0.8; stroke-linecap: square"/>
     </g>
     <g id="line2d_6">
      <g>
       <use xlink:href="#m872200e160" x="261.546236" y="244.078125" style="stroke: #000000; stroke-width: 0.8"/>
      </g>
     </g>
     <g id="text_3">
      <!-- 200 -->
      <g transform="translate(252.002486 258.675781) scale(0.1 -0.1)">
       <defs>
        <path id="DejaVuSans-15" d="M 1228 531 
L 3431 531 
L 3431 0 
L 469 0 
L 469 531 
Q 828 903 1448 1529 
Q 2069 2156 2228 2338 
Q 2531 2678 2651 2914 
Q 2772 3150 2772 3378 
Q 2772 3750 2511 3984 
Q 2250 4219 1831 4219 
Q 1534 4219 1204 4116 
Q 875 4013 500 3803 
L 500 4441 
Q 881 4594 1212 4672 
Q 1544 4750 1819 4750 
Q 2544 4750 2975 4387 
Q 3406 4025 3406 3419 
Q 3406 3131 3298 2873 
Q 3191 2616 2906 2266 
Q 2828 2175 2409 1742 
Q 1991 1309 1228 531 
z
" transform="scale(0.015625)"/>
       </defs>
       <use xlink:href="#DejaVuSans-15"/>
       <use xlink:href="#DejaVuSans-13" transform="translate(63.625 0)"/>
       <use xlink:href="#DejaVuSans-13" transform="translate(127.25 0)"/>
      </g>
     </g>
    </g>
    <g id="xtick_4">
     <g id="line2d_7">
      <path d="M 352.855327 244.078125 
L 352.855327 22.318125 
" clip-path="url(#p9dfc2f5f48)" style="fill: none; stroke: #b0b0b0; stroke-opacity: 0.25; stroke-width: 0.8; stroke-linecap: square"/>
     </g>
     <g id="line2d_8">
      <g>
       <use xlink:href="#m872200e160" x="352.855327" y="244.078125" style="stroke: #000000; stroke-width: 0.8"/>
      </g>
     </g>
     <g id="text_4">
      <!-- 300 -->
      <g transform="translate(343.311577 258.675781) scale(0.1 -0.1)">
       <defs>
        <path id="DejaVuSans-16" d="M 2597 2516 
Q 3050 2419 3304 2112 
Q 3559 1806 3559 1356 
Q 3559 666 3084 287 
Q 2609 -91 1734 -91 
Q 1441 -91 1130 -33 
Q 819 25 488 141 
L 488 750 
Q 750 597 1062 519 
Q 1375 441 1716 441 
Q 2309 441 2620 675 
Q 2931 909 2931 1356 
Q 2931 1769 2642 2001 
Q 2353 2234 1838 2234 
L 1294 2234 
L 1294 2753 
L 1863 2753 
Q 2328 2753 2575 2939 
Q 2822 3125 2822 3475 
Q 2822 3834 2567 4026 
Q 2313 4219 1838 4219 
Q 1578 4219 1281 4162 
Q 984 4106 628 3988 
L 628 4550 
Q 988 4650 1302 4700 
Q 1616 4750 1894 4750 
Q 2613 4750 3031 4423 
Q 3450 4097 3450 3541 
Q 3450 3153 3228 2886 
Q 3006 2619 2597 2516 
z
" transform="scale(0.015625)"/>
       </defs>
       <use xlink:href="#DejaVuSans-16"/>
       <use xlink:href="#DejaVuSans-13" transform="translate(63.625 0)"/>
       <use xlink:href="#DejaVuSans-13" transform="translate(127.25 0)"/>
      </g>
     </g>
    </g>
    <g id="xtick_5">
     <g id="line2d_9">
      <path d="M 444.164418 244.078125 
L 444.164418 22.318125 
" clip-path="url(#p9dfc2f5f48)" style="fill: none; stroke: #b0b0b0; stroke-opacity: 0.25; stroke-width: 0.8; stroke-linecap: square"/>
     </g>
     <g id="line2d_10">
      <g>
       <use xlink:href="#m872200e160" x="444.164418" y="244.078125" style="stroke: #000000; stroke-width: 0.8"/>
      </g>
     </g>
     <g id="text_5">
      <!-- 400 -->
      <g transform="translate(434.620668 258.675781) scale(0.1 -0.1)">
       <defs>
        <path id="DejaVuSans-17" d="M 2419 4116 
L 825 1625 
L 2419 1625 
L 2419 4116 
z
M 2253 4666 
L 3047 4666 
L 3047 1625 
L 3713 1625 
L 3713 1100 
L 3047 1100 
L 3047 0 
L 2419 0 
L 2419 1100 
L 313 1100 
L 313 1709 
L 2253 4666 
z
" transform="scale(0.015625)"/>
       </defs>
       <use xlink:href="#DejaVuSans-17"/>
       <use xlink:href="#DejaVuSans-13" transform="translate(63.625 0)"/>
       <use xlink:href="#DejaVuSans-13" transform="translate(127.25 0)"/>
      </g>
     </g>
    </g>
    <g id="xtick_6">
     <g id="line2d_11">
      <path d="M 535.473509 244.078125 
L 535.473509 22.318125 
" clip-path="url(#p9dfc2f5f48)" style="fill: none; stroke: #b0b0b0; stroke-opacity: 0.25; stroke-width: 0.8; stroke-linecap: square"/>
     </g>
     <g id="line2d_12">
      <g>
       <use xlink:href="#m872200e160" x="535.473509" y="244.078125" style="stroke: #000000; stroke-width: 0.8"/>
      </g>
     </g>
     <g id="text_6">
      <!-- 500 -->
      <g transform="translate(525.929759 258.675781) scale(0.1 -0.1)">
       <defs>
        <path id="DejaVuSans-18" d="M 691 4666 
L 3169 4666 
L 3169 4134 
L 1269 4134 
L 1269 2991 
Q 1406 3038 1543 3061 
Q 1681 3084 1819 3084 
Q 2600 3084 3056 2656 
Q 3513 2228 3513 1497 
Q 3513 744 3044 326 
Q 2575 -91 1722 -91 
Q 1428 -91 1123 -41 
Q 819 9 494 109 
L 494 744 
Q 775 591 1075 516 
Q 1375 441 1709 441 
Q 2250 441 2565 725 
Q 2881 1009 2881 1497 
Q 2881 1984 2565 2268 
Q 2250 2553 1709 2553 
Q 1456 2553 1204 2497 
Q 953 2441 691 2322 
L 691 4666 
z
" transform="scale(0.015625)"/>
       </defs>
       <use xlink:href="#DejaVuSans-18"/>
       <use xlink:href="#DejaVuSans-13" transform="translate(63.625 0)"/>
       <use xlink:href="#DejaVuSans-13" transform="translate(127.25 0)"/>
      </g>
     </g>
    </g>
    <g id="text_7">
     <!-- Frequency (Hz) -->
     <g transform="translate(269.495312 272.675781) scale(0.1 -0.1)">
      <defs>
       <path id="DejaVuSans-29" d="M 628 4666 
L 3309 4666 
L 3309 4134 
L 1259 4134 
L 1259 2759 
L 3109 2759 
L 3109 2228 
L 1259 2228 
L 1259 0 
L 628 0 
L 628 4666 
z
" transform="scale(0.015625)"/>
       <path id="DejaVuSans-55" d="M 2631 2963 
Q 2534 3019 2420 3045 
Q 2306 3072 2169 3072 
Q 1681 3072 1420 2755 
Q 1159 2438 1159 1844 
L 1159 0 
L 581 0 
L 581 3500 
L 1159 3500 
L 1159 2956 
Q 1341 3275 1631 3429 
Q 1922 3584 2338 3584 
Q 2397 3584 2469 3576 
Q 2541 3569 2628 3553 
L 2631 2963 
z
" transform="scale(0.015625)"/>
       <path id="DejaVuSans-48" d="M 3597 1894 
L 3597 1613 
L 953 1613 
Q 991 1019 1311 708 
Q 1631 397 2203 397 
Q 2534 397 2845 478 
Q 3156 559 3463 722 
L 3463 178 
Q 3153 47 2828 -22 
Q 2503 -91 2169 -91 
Q 1331 -91 842 396 
Q 353 884 353 1716 
Q 353 2575 817 3079 
Q 1281 3584 2069 3584 
Q 2775 3584 3186 3129 
Q 3597 2675 3597 1894 
z
M 3022 2063 
Q 3016 2534 2758 2815 
Q 2500 3097 2075 3097 
Q 1594 3097 1305 2825 
Q 1016 2553 972 2059 
L 3022 2063 
z
" transform="scale(0.015625)"/>
       <path id="DejaVuSans-54" d="M 947 1747 
Q 947 1113 1208 752 
Q 1469 391 1925 391 
Q 2381 391 2643 752 
Q 2906 1113 2906 1747 
Q 2906 2381 2643 2742 
Q 2381 3103 1925 3103 
Q 1469 3103 1208 2742 
Q 947 2381 947 1747 
z
M 2906 525 
Q 2725 213 2448 61 
Q 2172 -91 1784 -91 
Q 1150 -91 751 415 
Q 353 922 353 1747 
Q 353 2572 751 3078 
Q 1150 3584 1784 3584 
Q 2172 3584 2448 3432 
Q 2725 3281 2906 2969 
L 2906 3500 
L 3481 3500 
L 3481 -1331 
L 2906 -1331 
L 2906 525 
z
" transform="scale(0.015625)"/>
       <path id="DejaVuSans-58" d="M 544 1381 
L 544 3500 
L 1119 3500 
L 1119 1403 
Q 1119 906 1312 657 
Q 1506 409 1894 409 
Q 2359 409 2629 706 
Q 2900 1003 2900 1516 
L 2900 3500 
L 3475 3500 
L 3475 0 
L 2900 0 
L 2900 538 
Q 2691 219 2414 64 
Q 2138 -91 1772 -91 
Q 1169 -91 856 284 
Q 544 659 544 1381 
z
M 1991 3584 
L 1991 3584 
z
" transform="scale(0.015625)"/>
       <path id="DejaVuSans-51" d="M 3513 2113 
L 3513 0 
L 2938 0 
L 2938 2094 
Q 2938 2591 2744 2837 
Q 2550 3084 2163 3084 
Q 1697 3084 1428 2787 
Q 1159 2491 1159 1978 
L 1159 0 
L 581 0 
L 581 3500 
L 1159 3500 
L 1159 2956 
Q 1366 3272 1645 3428 
Q 1925 3584 2291 3584 
Q 2894 3584 3203 3211 
Q 3513 2838 3513 2113 
z
" transform="scale(0.015625)"/>
       <path id="DejaVuSans-46" d="M 3122 3366 
L 3122 2828 
Q 2878 2963 2633 3030 
Q 2388 3097 2138 3097 
Q 1578 3097 1268 2742 
Q 959 2388 959 1747 
Q 959 1106 1268 751 
Q 1578 397 2138 397 
Q 2388 397 2633 464 
Q 2878 531 3122 666 
L 3122 134 
Q 2881 22 2623 -34 
Q 2366 -91 2075 -91 
Q 1284 -91 818 406 
Q 353 903 353 1747 
Q 353 2603 823 3093 
Q 1294 3584 2113 3584 
Q 2378 3584 2631 3529 
Q 2884 3475 3122 3366 
z
" transform="scale(0.015625)"/>
       <path id="DejaVuSans-5c" d="M 2059 -325 
Q 1816 -950 1584 -1140 
Q 1353 -1331 966 -1331 
L 506 -1331 
L 506 -850 
L 844 -850 
Q 1081 -850 1212 -737 
Q 1344 -625 1503 -206 
L 1606 56 
L 191 3500 
L 800 3500 
L 1894 763 
L 2988 3500 
L 3597 3500 
L 2059 -325 
z
" transform="scale(0.015625)"/>
       <path id="DejaVuSans-3" transform="scale(0.015625)"/>
       <path id="DejaVuSans-b" d="M 1984 4856 
Q 1566 4138 1362 3434 
Q 1159 2731 1159 2009 
Q 1159 1288 1364 580 
Q 1569 -128 1984 -844 
L 1484 -844 
Q 1016 -109 783 600 
Q 550 1309 550 2009 
Q 550 2706 781 3412 
Q 1013 4119 1484 4856 
L 1984 4856 
z
" transform="scale(0.015625)"/>
       <path id="DejaVuSans-2b" d="M 628 4666 
L 1259 4666 
L 1259 2753 
L 3553 2753 
L 3553 4666 
L 4184 4666 
L 4184 0 
L 3553 0 
L 3553 2222 
L 1259 2222 
L 1259 0 
L 628 0 
L 628 4666 
z
" transform="scale(0.015625)"/>
       <path id="DejaVuSans-5d" d="M 353 3500 
L 3084 3500 
L 3084 2975 
L 922 459 
L 3084 459 
L 3084 0 
L 275 0 
L 275 525 
L 2438 3041 
L 353 3041 
L 353 3500 
z
" transform="scale(0.015625)"/>
       <path id="DejaVuSans-c" d="M 513 4856 
L 1013 4856 
Q 1481 4119 1714 3412 
Q 1947 2706 1947 2009 
Q 1947 1309 1714 600 
Q 1481 -109 1013 -844 
L 513 -844 
Q 928 -128 1133 580 
Q 1338 1288 1338 2009 
Q 1338 2731 1133 3434 
Q 928 4138 513 4856 
z
" transform="scale(0.015625)"/>
      </defs>
      <use xlink:href="#DejaVuSans-29"/>
      <use xlink:href="#DejaVuSans-55" transform="translate(50.234375 0)"/>
      <use xlink:href="#DejaVuSans-48" transform="translate(89.140625 0)"/>
      <use xlink:href="#DejaVuSans-54" transform="translate(150.671875 0)"/>
      <use xlink:href="#DejaVuSans-58" transform="translate(214.15625 0)"/>
      <use xlink:href="#DejaVuSans-48" transform="translate(277.53125 0)"/>
      <use xlink:href="#DejaVuSans-51" transform="translate(339.0625 0)"/>
      <use xlink:href="#DejaVuSans-46" transform="translate(402.4375 0)"/>
      <use xlink:href="#DejaVuSans-5c" transform="translate(457.421875 0)"/>
      <use xlink:href="#DejaVuSans-3" transform="translate(516.609375 0)"/>
      <use xlink:href="#DejaVuSans-b" transform="translate(548.390625 0)"/>
      <use xlink:href="#DejaVuSans-2b" transform="translate(587.40625 0)"/>
      <use xlink:href="#DejaVuSans-5d" transform="translate(662.609375 0)"/>
      <use xlink:href="#DejaVuSans-c" transform="translate(715.09375 0)"/>
     </g>
    </g>
   </g>
   <g id="matplotlib.axis_2">
    <g id="ytick_1">
     <g id="line2d_13">
      <path d="M 56.100781 223.425878 
L 558.300781 223.425878 
" clip-path="url(#p9dfc2f5f48)" style="fill: none; stroke: #b0b0b0; stroke-opacity: 0.25; stroke-width: 0.8; stroke-linecap: square"/>
     </g>
     <g id="line2d_14">
      <defs>
       <path id="m566d4f055b" d="M 0 0 
L -3.5 0 
" style="stroke: #000000; stroke-width: 0.8"/>
      </defs>
      <g>
       <use xlink:href="#m566d4f055b" x="56.100781" y="223.425878" style="stroke: #000000; stroke-width: 0.8"/>
      </g>
     </g>
     <g id="text_8">
      <!-- $\mathdefault{10^{-10}}$ -->
      <g transform="translate(21.200781 228.125878) scale(0.1 -0.1)">
       <defs>
        <path id="DejaVuSans-c9c" d="M 678 2272 
L 4684 2272 
L 4684 1741 
L 678 1741 
L 678 2272 
z
" transform="scale(0.015625)"/>
       </defs>
       <use xlink:href="#DejaVuSans-14" transform="translate(0 0.746875)"/>
       <use xlink:href="#DejaVuSans-13" transform="translate(63.623047 0.746875)"/>
       <use xlink:href="#DejaVuSans-c9c" transform="translate(128.203125 42.046875) scale(0.7)"/>
       <use xlink:href="#DejaVuSans-14" transform="translate(186.855469 42.046875) scale(0.7)"/>
       <use xlink:href="#DejaVuSans-13" transform="translate(231.391602 42.046875) scale(0.7)"/>
      </g>
     </g>
    </g>
    <g id="ytick_2">
     <g id="line2d_15">
      <path d="M 56.100781 178.791324 
L 558.300781 178.791324 
" clip-path="url(#p9dfc2f5f48)" style="fill: none; stroke: #b0b0b0; stroke-opacity: 0.25; stroke-width: 0.8; stroke-linecap: square"/>
     </g>
     <g id="line2d_16">
      <g>
       <use xlink:href="#m566d4f055b" x="56.100781" y="178.791324" style="stroke: #000000; stroke-width: 0.8"/>
      </g>
     </g>
     <g id="text_9">
      <!-- $\mathdefault{10^{-8}}$ -->
      <g transform="translate(25.600781 183.491324) scale(0.1 -0.1)">
       <defs>
        <path id="DejaVuSans-1b" d="M 2034 2216 
Q 1584 2216 1326 1975 
Q 1069 1734 1069 1313 
Q 1069 891 1326 650 
Q 1584 409 2034 409 
Q 2484 409 2743 651 
Q 3003 894 3003 1313 
Q 3003 1734 2745 1975 
Q 2488 2216 2034 2216 
z
M 1403 2484 
Q 997 2584 770 2862 
Q 544 3141 544 3541 
Q 544 4100 942 4425 
Q 1341 4750 2034 4750 
Q 2731 4750 3128 4425 
Q 3525 4100 3525 3541 
Q 3525 3141 3298 2862 
Q 3072 2584 2669 2484 
Q 3125 2378 3379 2068 
Q 3634 1759 3634 1313 
Q 3634 634 3220 271 
Q 2806 -91 2034 -91 
Q 1263 -91 848 271 
Q 434 634 434 1313 
Q 434 1759 690 2068 
Q 947 2378 1403 2484 
z
M 1172 3481 
Q 1172 3119 1398 2916 
Q 1625 2713 2034 2713 
Q 2441 2713 2670 2916 
Q 2900 3119 2900 3481 
Q 2900 3844 2670 4047 
Q 2441 4250 2034 4250 
Q 1625 4250 1398 4047 
Q 1172 3844 1172 3481 
z
" transform="scale(0.015625)"/>
       </defs>
       <use xlink:href="#DejaVuSans-14" transform="translate(0 0.746875)"/>
       <use xlink:href="#DejaVuSans-13" transform="translate(63.623047 0.746875)"/>
       <use xlink:href="#DejaVuSans-c9c" transform="translate(128.203125 42.046875) scale(0.7)"/>
       <use xlink:href="#DejaVuSans-1b" transform="translate(186.855469 42.046875) scale(0.7)"/>
      </g>
     </g>
    </g>
    <g id="ytick_3">
     <g id="line2d_17">
      <path d="M 56.100781 134.15677 
L 558.300781 134.15677 
" clip-path="url(#p9dfc2f5f48)" style="fill: none; stroke: #b0b0b0; stroke-opacity: 0.25; stroke-width: 0.8; stroke-linecap: square"/>
     </g>
     <g id="line2d_18">
      <g>
       <use xlink:href="#m566d4f055b" x="56.100781" y="134.15677" style="stroke: #000000; stroke-width: 0.8"/>
      </g>
     </g>
     <g id="text_10">
      <!-- $\mathdefault{10^{-6}}$ -->
      <g transform="translate(25.600781 138.85677) scale(0.1 -0.1)">
       <defs>
        <path id="DejaVuSans-19" d="M 2113 2584 
Q 1688 2584 1439 2293 
Q 1191 2003 1191 1497 
Q 1191 994 1439 701 
Q 1688 409 2113 409 
Q 2538 409 2786 701 
Q 3034 994 3034 1497 
Q 3034 2003 2786 2293 
Q 2538 2584 2113 2584 
z
M 3366 4563 
L 3366 3988 
Q 3128 4100 2886 4159 
Q 2644 4219 2406 4219 
Q 1781 4219 1451 3797 
Q 1122 3375 1075 2522 
Q 1259 2794 1537 2939 
Q 1816 3084 2150 3084 
Q 2853 3084 3261 2657 
Q 3669 2231 3669 1497 
Q 3669 778 3244 343 
Q 2819 -91 2113 -91 
Q 1303 -91 875 529 
Q 447 1150 447 2328 
Q 447 3434 972 4092 
Q 1497 4750 2381 4750 
Q 2619 4750 2861 4703 
Q 3103 4656 3366 4563 
z
" transform="scale(0.015625)"/>
       </defs>
       <use xlink:href="#DejaVuSans-14" transform="translate(0 0.746875)"/>
       <use xlink:href="#DejaVuSans-13" transform="translate(63.623047 0.746875)"/>
       <use xlink:href="#DejaVuSans-c9c" transform="translate(128.203125 42.046875) scale(0.7)"/>
       <use xlink:href="#DejaVuSans-19" transform="translate(186.855469 42.046875) scale(0.7)"/>
      </g>
     </g>
    </g>
    <g id="ytick_4">
     <g id="line2d_19">
      <path d="M 56.100781 89.522217 
L 558.300781 89.522217 
" clip-path="url(#p9dfc2f5f48)" style="fill: none; stroke: #b0b0b0; stroke-opacity: 0.25; stroke-width: 0.8; stroke-linecap: square"/>
     </g>
     <g id="line2d_20">
      <g>
       <use xlink:href="#m566d4f055b" x="56.100781" y="89.522217" style="stroke: #000000; stroke-width: 0.8"/>
      </g>
     </g>
     <g id="text_11">
      <!-- $\mathdefault{10^{-4}}$ -->
      <g transform="translate(25.600781 94.172217) scale(0.1 -0.1)">
       <use xlink:href="#DejaVuSans-14" transform="translate(0 0.665625)"/>
       <use xlink:href="#DejaVuSans-13" transform="translate(63.623047 0.665625)"/>
       <use xlink:href="#DejaVuSans-c9c" transform="translate(128.203125 41.965625) scale(0.7)"/>
       <use xlink:href="#DejaVuSans-17" transform="translate(186.855469 41.965625) scale(0.7)"/>
      </g>
     </g>
    </g>
    <g id="ytick_5">
     <g id="line2d_21">
      <path d="M 56.100781 44.887663 
L 558.300781 44.887663 
" clip-path="url(#p9dfc2f5f48)" style="fill: none; stroke: #b0b0b0; stroke-opacity: 0.25; stroke-width: 0.8; stroke-linecap: square"/>
     </g>
     <g id="line2d_22">
      <g>
       <use xlink:href="#m566d4f055b" x="56.100781" y="44.887663" style="stroke: #000000; stroke-width: 0.8"/>
      </g>
     </g>
     <g id="text_12">
      <!-- $\mathdefault{10^{-2}}$ -->
      <g transform="translate(25.600781 49.587663) scale(0.1 -0.1)">
       <use xlink:href="#DejaVuSans-14" transform="translate(0 0.746875)"/>
       <use xlink:href="#DejaVuSans-13" transform="translate(63.623047 0.746875)"/>
       <use xlink:href="#DejaVuSans-c9c" transform="translate(128.203125 42.046875) scale(0.7)"/>
       <use xlink:href="#DejaVuSans-15" transform="translate(186.855469 42.046875) scale(0.7)"/>
      </g>
     </g>
    </g>
    <g id="text_13">
     <!-- PSD (unit²/Hz) -->
     <g transform="translate(14.798438 168.487969) rotate(-90) scale(0.1 -0.1)">
      <defs>
       <path id="DejaVuSans-33" d="M 1259 4147 
L 1259 2394 
L 2053 2394 
Q 2494 2394 2734 2622 
Q 2975 2850 2975 3272 
Q 2975 3691 2734 3919 
Q 2494 4147 2053 4147 
L 1259 4147 
z
M 628 4666 
L 2053 4666 
Q 2838 4666 3239 4311 
Q 3641 3956 3641 3272 
Q 3641 2581 3239 2228 
Q 2838 1875 2053 1875 
L 1259 1875 
L 1259 0 
L 628 0 
L 628 4666 
z
" transform="scale(0.015625)"/>
       <path id="DejaVuSans-36" d="M 3425 4513 
L 3425 3897 
Q 3066 4069 2747 4153 
Q 2428 4238 2131 4238 
Q 1616 4238 1336 4038 
Q 1056 3838 1056 3469 
Q 1056 3159 1242 3001 
Q 1428 2844 1947 2747 
L 2328 2669 
Q 3034 2534 3370 2195 
Q 3706 1856 3706 1288 
Q 3706 609 3251 259 
Q 2797 -91 1919 -91 
Q 1588 -91 1214 -16 
Q 841 59 441 206 
L 441 856 
Q 825 641 1194 531 
Q 1563 422 1919 422 
Q 2459 422 2753 634 
Q 3047 847 3047 1241 
Q 3047 1584 2836 1778 
Q 2625 1972 2144 2069 
L 1759 2144 
Q 1053 2284 737 2584 
Q 422 2884 422 3419 
Q 422 4038 858 4394 
Q 1294 4750 2059 4750 
Q 2388 4750 2728 4690 
Q 3069 4631 3425 4513 
z
" transform="scale(0.015625)"/>
       <path id="DejaVuSans-27" d="M 1259 4147 
L 1259 519 
L 2022 519 
Q 2988 519 3436 956 
Q 3884 1394 3884 2338 
Q 3884 3275 3436 3711 
Q 2988 4147 2022 4147 
L 1259 4147 
z
M 628 4666 
L 1925 4666 
Q 3281 4666 3915 4102 
Q 4550 3538 4550 2338 
Q 4550 1131 3912 565 
Q 3275 0 1925 0 
L 628 0 
L 628 4666 
z
" transform="scale(0.015625)"/>
       <path id="DejaVuSans-4c" d="M 603 3500 
L 1178 3500 
L 1178 0 
L 603 0 
L 603 3500 
z
M 603 4863 
L 1178 4863 
L 1178 4134 
L 603 4134 
L 603 4863 
z
" transform="scale(0.015625)"/>
       <path id="DejaVuSans-57" d="M 1172 4494 
L 1172 3500 
L 2356 3500 
L 2356 3053 
L 1172 3053 
L 1172 1153 
Q 1172 725 1289 603 
Q 1406 481 1766 481 
L 2356 481 
L 2356 0 
L 1766 0 
Q 1100 0 847 248 
Q 594 497 594 1153 
L 594 3053 
L 172 3053 
L 172 3500 
L 594 3500 
L 594 4494 
L 1172 4494 
z
" transform="scale(0.015625)"/>
       <path id="DejaVuSans-74" d="M 838 2444 
L 2163 2444 
L 2163 2088 
L 294 2088 
L 294 2431 
Q 400 2528 597 2703 
Q 1672 3656 1672 3950 
Q 1672 4156 1509 4282 
Q 1347 4409 1081 4409 
Q 919 4409 728 4354 
Q 538 4300 313 4191 
L 313 4575 
Q 553 4663 761 4706 
Q 969 4750 1147 4750 
Q 1600 4750 1872 4544 
Q 2144 4338 2144 4000 
Q 2144 3566 1109 2678 
Q 934 2528 838 2444 
z
" transform="scale(0.015625)"/>
       <path id="DejaVuSans-12" d="M 1625 4666 
L 2156 4666 
L 531 -594 
L 0 -594 
L 1625 4666 
z
" transform="scale(0.015625)"/>
      </defs>
      <use xlink:href="#DejaVuSans-33"/>
      <use xlink:href="#DejaVuSans-36" transform="translate(60.296875 0)"/>
      <use xlink:href="#DejaVuSans-27" transform="translate(123.78125 0)"/>
      <use xlink:href="#DejaVuSans-3" transform="translate(200.78125 0)"/>
      <use xlink:href="#DejaVuSans-b" transform="translate(232.5625 0)"/>
      <use xlink:href="#DejaVuSans-58" transform="translate(271.578125 0)"/>
      <use xlink:href="#DejaVuSans-51" transform="translate(334.953125 0)"/>
      <use xlink:href="#DejaVuSans-4c" transform="translate(398.328125 0)"/>
      <use xlink:href="#DejaVuSans-57" transform="translate(426.109375 0)"/>
      <use xlink:href="#DejaVuSans-74" transform="translate(465.3125 0)"/>
      <use xlink:href="#DejaVuSans-12" transform="translate(505.40625 0)"/>
      <use xlink:href="#DejaVuSans-2b" transform="translate(539.09375 0)"/>
      <use xlink:href="#DejaVuSans-5d" transform="translate(614.296875 0)"/>
      <use xlink:href="#DejaVuSans-c" transform="translate(666.78125 0)"/>
     </g>
    </g>
   </g>
   <g id="line2d_23">
    <path d="M 78.928054 117.798044 
L 80.711435 121.761486 
L 82.494815 164.513599 
L 84.278196 194.993924 
L 86.061577 203.197254 
L 87.844957 192.264392 
L 89.628338 168.808331 
L 91.411719 140.926764 
L 93.195099 138.098707 
L 94.97848 121.523416 
L 96.761861 139.285158 
L 98.545241 136.768375 
L 100.328622 113.976603 
L 102.112003 108.486284 
L 103.895384 93.740157 
L 105.678764 93.431012 
L 107.462145 111.176956 
L 109.245526 127.069734 
L 111.028906 96.518753 
L 114.595668 32.398125 
L 116.379048 32.734809 
L 118.162429 64.344995 
L 119.94581 107.236632 
L 121.72919 133.666542 
L 123.512571 124.548131 
L 125.295952 100.246382 
L 127.079332 116.383995 
L 128.862713 125.68025 
L 130.646094 108.392715 
L 132.429474 112.068112 
L 134.212855 136.450919 
L 135.996236 100.70338 
L 137.779616 95.736831 
L 139.562997 105.888232 
L 141.346378 108.562381 
L 143.129759 96.823966 
L 144.913139 103.450866 
L 146.69652 161.850979 
L 148.479901 105.928133 
L 150.263281 91.408483 
L 152.046662 97.516065 
L 153.830043 100.568985 
L 155.613423 132.819757 
L 157.396804 88.151964 
L 159.180185 85.620521 
L 160.963565 91.772155 
L 162.746946 110.408454 
L 164.530327 111.191437 
L 166.313707 109.295791 
L 168.097088 103.547482 
L 169.880469 101.675944 
L 171.663849 94.413783 
L 173.44723 104.421316 
L 175.230611 112.205562 
L 177.013991 97.084225 
L 178.797372 96.606881 
L 180.580753 103.95685 
L 182.364134 102.716744 
L 184.147514 93.961398 
L 185.930895 99.758351 
L 187.714276 105.054214 
L 189.497656 100.714789 
L 191.281037 90.504393 
L 193.064418 89.436505 
L 194.847798 89.787968 
L 196.631179 93.607499 
L 198.41456 116.174846 
L 200.19794 111.574653 
L 201.981321 100.544647 
L 203.764702 105.694822 
L 205.548082 100.316573 
L 207.331463 106.493647 
L 209.114844 99.446756 
L 210.898224 101.648107 
L 212.681605 109.777736 
L 214.464986 97.47236 
L 216.248366 88.576963 
L 218.031747 92.374278 
L 219.815128 97.905411 
L 221.598509 111.778017 
L 223.381889 99.870554 
L 225.16527 109.015071 
L 226.948651 105.240734 
L 228.732031 112.523553 
L 230.515412 100.662152 
L 232.298793 109.890719 
L 234.082173 99.429426 
L 235.865554 87.198791 
L 237.648935 90.085303 
L 239.432315 115.202701 
L 241.215696 111.252512 
L 242.999077 118.280135 
L 244.782457 107.251387 
L 246.565838 113.493846 
L 248.349219 102.901278 
L 250.132599 98.960422 
L 251.91598 123.464725 
L 253.699361 100.384688 
L 255.482741 89.069635 
L 257.266122 88.527558 
L 259.049503 93.199135 
L 260.832884 104.782125 
L 262.616264 112.841082 
L 264.399645 107.757694 
L 266.183026 100.249023 
L 267.966406 114.031347 
L 269.749787 109.36206 
L 271.533168 97.678786 
L 273.316548 91.588823 
L 275.099929 105.236772 
L 276.88331 113.390847 
L 278.66669 110.355914 
L 280.450071 102.529966 
L 282.233452 102.27795 
L 284.016832 96.959761 
L 285.800213 94.025235 
L 287.583594 95.740618 
L 289.366974 99.786851 
L 291.150355 111.072658 
L 292.933736 104.805774 
L 294.717116 96.45753 
L 296.500497 102.530769 
L 298.283878 103.508513 
L 300.067259 102.486301 
L 301.850639 105.33534 
L 303.63402 116.763385 
L 305.417401 111.393988 
L 307.200781 99.694846 
L 308.984162 97.429844 
L 310.767543 91.228708 
L 312.550923 97.612596 
L 314.334304 102.007853 
L 316.117685 109.785134 
L 317.901065 130.005974 
L 319.684446 107.774857 
L 321.467827 97.317149 
L 323.251207 110.247152 
L 325.034588 107.545613 
L 326.817969 105.132517 
L 328.601349 99.66913 
L 330.38473 101.706017 
L 332.168111 102.877192 
L 333.951491 100.139733 
L 335.734872 98.465175 
L 337.518253 112.495857 
L 339.301634 109.372295 
L 341.085014 103.96914 
L 342.868395 100.315951 
L 344.651776 106.838419 
L 346.435156 99.423778 
L 348.218537 94.285237 
L 350.001918 95.847888 
L 351.785298 107.442996 
L 353.568679 112.991706 
L 355.35206 122.313195 
L 357.13544 99.182982 
L 358.918821 93.972264 
L 360.702202 92.197509 
L 362.485582 96.869439 
L 364.268963 94.081801 
L 366.052344 152.288654 
L 367.835724 93.886577 
L 369.619105 43.084886 
L 371.402486 33.457229 
L 373.185866 50.493959 
L 374.969247 95.396589 
L 376.752628 95.37807 
L 378.536009 101.190853 
L 380.319389 98.327812 
L 382.10277 95.984828 
L 383.886151 95.194059 
L 385.669531 116.867516 
L 387.452912 99.256697 
L 389.236293 97.230962 
L 391.019673 106.067977 
L 392.803054 104.189215 
L 394.586435 105.051895 
L 396.369815 112.801631 
L 398.153196 111.433485 
L 399.936577 107.581427 
L 401.719957 105.552835 
L 403.503338 95.904985 
L 405.286719 94.474623 
L 407.070099 94.1261 
L 408.85348 112.280546 
L 410.636861 90.97901 
L 412.420241 94.497904 
L 414.203622 118.490484 
L 415.987003 118.4408 
L 417.770384 117.199998 
L 419.553764 135.681494 
L 421.337145 103.102413 
L 423.120526 102.133684 
L 424.903906 105.349988 
L 426.687287 117.989206 
L 428.470668 119.372955 
L 430.254048 101.691836 
L 432.037429 91.473167 
L 433.82081 89.76071 
L 435.60419 95.186691 
L 437.387571 107.989232 
L 439.170952 124.380602 
L 440.954332 130.062169 
L 442.737713 112.147988 
L 444.521094 105.799499 
L 446.304474 140.080591 
L 448.087855 116.221711 
L 449.871236 98.349173 
L 451.654616 104.22617 
L 453.437997 96.776286 
L 455.221378 93.998133 
L 457.004759 99.317429 
L 458.788139 97.601171 
L 460.57152 92.452409 
L 462.354901 97.438845 
L 464.138281 121.781788 
L 465.921662 102.293648 
L 467.705043 99.551088 
L 469.488423 104.223275 
L 471.271804 91.408951 
L 473.055185 86.542741 
L 474.838565 86.909285 
L 476.621946 94.716864 
L 478.405327 123.036394 
L 480.188707 94.902456 
L 481.972088 106.247062 
L 483.755469 124.407271 
L 485.538849 110.611903 
L 487.32223 118.342151 
L 489.105611 121.471515 
L 490.888991 105.721832 
L 492.672372 103.263312 
L 494.455753 99.689331 
L 498.022514 112.080431 
L 499.805895 118.857241 
L 501.589276 122.998016 
L 503.372656 116.200929 
L 505.156037 125.98501 
L 506.939418 100.524107 
L 508.722798 96.034386 
L 510.506179 98.48495 
L 512.28956 96.332389 
L 514.07294 106.899526 
L 515.856321 142.313967 
L 517.639702 121.517758 
L 519.423082 142.882368 
L 521.206463 98.640628 
L 522.989844 100.643252 
L 524.773224 110.76876 
L 526.556605 126.455013 
L 528.339986 148.815978 
L 530.123366 159.006201 
L 531.906747 232.950468 
L 533.690128 207.616274 
L 535.473509 233.998125 
L 535.473509 233.998125 
" clip-path="url(#p9dfc2f5f48)" style="fill: none; stroke: #1f77b4; stroke-width: 1.5; stroke-linecap: square"/>
   </g>
   <g id="line2d_24">
    <path d="M 78.928054 115.780005 
L 80.711435 99.056917 
L 82.494815 98.986483 
L 84.278196 114.698841 
L 86.061577 122.006076 
L 87.844957 120.587731 
L 89.628338 116.832668 
L 91.411719 111.116128 
L 93.195099 104.799462 
L 94.97848 113.527214 
L 96.761861 119.449607 
L 98.545241 109.493805 
L 100.328622 125.326031 
L 102.112003 119.968347 
L 103.895384 118.93408 
L 105.678764 128.657027 
L 107.462145 119.64885 
L 109.245526 129.040942 
L 111.028906 126.873979 
L 114.595668 71.917842 
L 116.379048 73.130823 
L 118.162429 108.667091 
L 119.94581 119.007518 
L 121.72919 105.496662 
L 123.512571 108.963229 
L 125.295952 99.128598 
L 127.079332 97.370367 
L 128.862713 103.580128 
L 130.646094 107.080639 
L 132.429474 122.957493 
L 134.212855 123.681436 
L 135.996236 123.467683 
L 137.779616 130.710561 
L 139.562997 126.821169 
L 141.346378 135.975822 
L 143.129759 113.607735 
L 144.913139 103.874563 
L 146.69652 106.670641 
L 148.479901 116.667921 
L 150.263281 106.425296 
L 152.046662 119.090482 
L 153.830043 123.370354 
L 155.613423 113.343027 
L 157.396804 101.527807 
L 159.180185 101.275565 
L 160.963565 111.424748 
L 162.746946 112.77003 
L 164.530327 136.758349 
L 166.313707 125.721249 
L 168.097088 125.095335 
L 169.880469 129.298779 
L 171.663849 129.285891 
L 173.44723 147.996778 
L 175.230611 116.663696 
L 177.013991 121.645731 
L 178.797372 106.177923 
L 180.580753 98.97298 
L 182.364134 102.127463 
L 184.147514 99.170516 
L 185.930895 108.253566 
L 187.714276 118.318964 
L 189.497656 139.169944 
L 191.281037 114.367535 
L 193.064418 103.208942 
L 194.847798 109.455174 
L 196.631179 121.576415 
L 198.41456 132.705274 
L 200.19794 110.116585 
L 201.981321 107.864322 
L 203.764702 128.66868 
L 205.548082 130.559517 
L 207.331463 125.122965 
L 209.114844 122.157217 
L 210.898224 150.172502 
L 212.681605 126.704652 
L 214.464986 131.893494 
L 216.248366 113.881107 
L 218.031747 115.348966 
L 219.815128 107.35904 
L 221.598509 109.86433 
L 223.381889 140.321948 
L 225.16527 120.526188 
L 226.948651 157.53084 
L 228.732031 135.364026 
L 230.515412 121.260482 
L 232.298793 115.9769 
L 234.082173 107.452153 
L 235.865554 100.490014 
L 237.648935 101.786677 
L 239.432315 128.848125 
L 241.215696 116.93373 
L 242.999077 145.477652 
L 244.782457 110.288462 
L 246.565838 131.123226 
L 248.349219 101.564608 
L 250.132599 98.480589 
L 251.91598 121.998827 
L 253.699361 109.504007 
L 255.482741 96.081295 
L 257.266122 94.092646 
L 259.049503 101.228657 
L 260.832884 121.764212 
L 262.616264 131.51636 
L 264.399645 109.146909 
L 266.183026 101.595955 
L 267.966406 116.541747 
L 269.749787 115.874585 
L 271.533168 103.107999 
L 273.316548 95.99602 
L 275.099929 108.253386 
L 276.88331 116.047289 
L 278.66669 112.826842 
L 280.450071 106.733276 
L 282.233452 106.922784 
L 284.016832 100.445371 
L 285.800213 96.938085 
L 287.583594 97.358303 
L 289.366974 100.757312 
L 291.150355 114.087314 
L 292.933736 107.367669 
L 294.717116 98.522956 
L 296.500497 105.413081 
L 298.283878 105.17523 
L 300.067259 102.707741 
L 301.850639 104.573164 
L 303.63402 118.643401 
L 305.417401 112.739705 
L 307.200781 100.793139 
L 308.984162 98.783124 
L 310.767543 92.188992 
L 312.550923 97.745384 
L 314.334304 101.800273 
L 316.117685 109.093832 
L 317.901065 130.620175 
L 319.684446 108.939699 
L 321.467827 97.985559 
L 323.251207 111.130289 
L 325.034588 108.712677 
L 326.817969 106.975708 
L 328.601349 99.409666 
L 330.38473 102.34192 
L 332.168111 103.543474 
L 333.951491 99.554503 
L 335.734872 98.778265 
L 337.518253 112.306394 
L 339.301634 111.443812 
L 341.085014 104.607333 
L 342.868395 100.624181 
L 344.651776 106.87875 
L 346.435156 99.22677 
L 348.218537 93.961897 
L 350.001918 95.199201 
L 351.785298 107.447519 
L 353.568679 114.364201 
L 355.35206 123.418701 
L 357.13544 98.989755 
L 358.918821 94.264419 
L 360.702202 93.893274 
L 362.485582 98.576102 
L 364.268963 94.517302 
L 366.052344 140.215952 
L 367.835724 94.473981 
L 369.619105 43.453271 
L 371.402486 33.809606 
L 373.185866 50.815515 
L 374.969247 95.651138 
L 376.752628 96.993679 
L 378.536009 103.340182 
L 380.319389 98.812754 
L 382.10277 96.271415 
L 383.886151 94.497326 
L 385.669531 113.284885 
L 387.452912 100.845601 
L 389.236293 99.435256 
L 391.019673 109.191567 
L 392.803054 105.600051 
L 394.586435 106.345764 
L 396.369815 115.931469 
L 398.153196 112.113269 
L 399.936577 106.942373 
L 401.719957 105.508084 
L 403.503338 96.482603 
L 405.286719 93.903765 
L 407.070099 93.743834 
L 408.85348 111.145731 
L 410.636861 91.041561 
L 412.420241 93.832109 
L 414.203622 114.063537 
L 415.987003 118.202624 
L 417.770384 120.492887 
L 419.553764 131.914908 
L 421.337145 102.864749 
L 423.120526 102.388905 
L 424.903906 106.069657 
L 426.687287 120.673673 
L 428.470668 118.345272 
L 430.254048 102.496386 
L 432.037429 92.611221 
L 433.82081 89.763974 
L 435.60419 94.635853 
L 437.387571 107.940603 
L 439.170952 127.116831 
L 440.954332 126.503126 
L 442.737713 111.851514 
L 444.521094 106.419869 
L 446.304474 136.924532 
L 448.087855 117.066823 
L 449.871236 99.087008 
L 451.654616 104.415736 
L 453.437997 97.44806 
L 455.221378 94.602361 
L 457.004759 98.893853 
L 458.788139 96.761584 
L 460.57152 92.258428 
L 462.354901 98.203955 
L 464.138281 125.099951 
L 465.921662 103.159425 
L 467.705043 100.400946 
L 469.488423 104.412988 
L 471.271804 92.080909 
L 473.055185 87.441668 
L 474.838565 88.278926 
L 476.621946 95.966412 
L 478.405327 118.681688 
L 480.188707 95.764783 
L 481.972088 107.399777 
L 483.755469 122.687915 
L 485.538849 110.81462 
L 487.32223 116.476837 
L 489.105611 119.548196 
L 490.888991 104.838662 
L 492.672372 103.371368 
L 494.455753 100.647088 
L 496.239134 106.655365 
L 499.805895 117.301292 
L 501.589276 126.611252 
L 503.372656 117.007665 
L 505.156037 128.914224 
L 506.939418 102.091149 
L 508.722798 97.017444 
L 510.506179 99.222109 
L 512.28956 96.784258 
L 514.07294 107.506438 
L 515.856321 133.803748 
L 517.639702 117.597373 
L 519.423082 149.295566 
L 521.206463 100.970611 
L 522.989844 102.465956 
L 524.773224 109.133835 
L 526.556605 123.700269 
L 528.339986 149.490197 
L 530.123366 143.974846 
L 531.906747 140.375234 
L 533.690128 151.279665 
L 535.473509 168.124706 
L 535.473509 168.124706 
" clip-path="url(#p9dfc2f5f48)" style="fill: none; stroke: #ff7f0e; stroke-width: 1.5; stroke-linecap: square"/>
   </g>
   <g id="patch_4">
    <path d="M 56.100781 244.078125 
L 56.100781 22.318125 
" style="fill: none; stroke: #000000; stroke-width: 0.8; stroke-linejoin: miter; stroke-linecap: square"/>
   </g>
   <g id="patch_5">
    <path d="M 558.300781 244.078125 
L 558.300781 22.318125 
" style="fill: none; stroke: #000000; stroke-width: 0.8; stroke-linejoin: miter; stroke-linecap: square"/>
   </g>
   <g id="patch_6">
    <path d="M 56.100781 244.078125 
L 558.300781 244.078125 
" style="fill: none; stroke: #000000; stroke-width: 0.8; stroke-linejoin: miter; stroke-linecap: square"/>
   </g>
   <g id="patch_7">
    <path d="M 56.100781 22.318125 
L 558.300781 22.318125 
" style="fill: none; stroke: #000000; stroke-width: 0.8; stroke-linejoin: miter; stroke-linecap: square"/>
   </g>
   <g id="text_14">
    <!-- PSD before and after IMF gating -->
    <g transform="translate(211.311406 16.318125) scale(0.12 -0.12)">
     <defs>
      <path id="DejaVuSans-45" d="M 3116 1747 
Q 3116 2381 2855 2742 
Q 2594 3103 2138 3103 
Q 1681 3103 1420 2742 
Q 1159 2381 1159 1747 
Q 1159 1113 1420 752 
Q 1681 391 2138 391 
Q 2594 391 2855 752 
Q 3116 1113 3116 1747 
z
M 1159 2969 
Q 1341 3281 1617 3432 
Q 1894 3584 2278 3584 
Q 2916 3584 3314 3078 
Q 3713 2572 3713 1747 
Q 3713 922 3314 415 
Q 2916 -91 2278 -91 
Q 1894 -91 1617 61 
Q 1341 213 1159 525 
L 1159 0 
L 581 0 
L 581 4863 
L 1159 4863 
L 1159 2969 
z
" transform="scale(0.015625)"/>
      <path id="DejaVuSans-49" d="M 2375 4863 
L 2375 4384 
L 1825 4384 
Q 1516 4384 1395 4259 
Q 1275 4134 1275 3809 
L 1275 3500 
L 2222 3500 
L 2222 3053 
L 1275 3053 
L 1275 0 
L 697 0 
L 697 3053 
L 147 3053 
L 147 3500 
L 697 3500 
L 697 3744 
Q 697 4328 969 4595 
Q 1241 4863 1831 4863 
L 2375 4863 
z
" transform="scale(0.015625)"/>
      <path id="DejaVuSans-52" d="M 1959 3097 
Q 1497 3097 1228 2736 
Q 959 2375 959 1747 
Q 959 1119 1226 758 
Q 1494 397 1959 397 
Q 2419 397 2687 759 
Q 2956 1122 2956 1747 
Q 2956 2369 2687 2733 
Q 2419 3097 1959 3097 
z
M 1959 3584 
Q 2709 3584 3137 3096 
Q 3566 2609 3566 1747 
Q 3566 888 3137 398 
Q 2709 -91 1959 -91 
Q 1206 -91 779 398 
Q 353 888 353 1747 
Q 353 2609 779 3096 
Q 1206 3584 1959 3584 
z
" transform="scale(0.015625)"/>
      <path id="DejaVuSans-44" d="M 2194 1759 
Q 1497 1759 1228 1600 
Q 959 1441 959 1056 
Q 959 750 1161 570 
Q 1363 391 1709 391 
Q 2188 391 2477 730 
Q 2766 1069 2766 1631 
L 2766 1759 
L 2194 1759 
z
M 3341 1997 
L 3341 0 
L 2766 0 
L 2766 531 
Q 2569 213 2275 61 
Q 1981 -91 1556 -91 
Q 1019 -91 701 211 
Q 384 513 384 1019 
Q 384 1609 779 1909 
Q 1175 2209 1959 2209 
L 2766 2209 
L 2766 2266 
Q 2766 2663 2505 2880 
Q 2244 3097 1772 3097 
Q 1472 3097 1187 3025 
Q 903 2953 641 2809 
L 641 3341 
Q 956 3463 1253 3523 
Q 1550 3584 1831 3584 
Q 2591 3584 2966 3190 
Q 3341 2797 3341 1997 
z
" transform="scale(0.015625)"/>
      <path id="DejaVuSans-47" d="M 2906 2969 
L 2906 4863 
L 3481 4863 
L 3481 0 
L 2906 0 
L 2906 525 
Q 2725 213 2448 61 
Q 2172 -91 1784 -91 
Q 1150 -91 751 415 
Q 353 922 353 1747 
Q 353 2572 751 3078 
Q 1150 3584 1784 3584 
Q 2172 3584 2448 3432 
Q 2725 3281 2906 2969 
z
M 947 1747 
Q 947 1113 1208 752 
Q 1469 391 1925 391 
Q 2381 391 2643 752 
Q 2906 1113 2906 1747 
Q 2906 2381 2643 2742 
Q 2381 3103 1925 3103 
Q 1469 3103 1208 2742 
Q 947 2381 947 1747 
z
" transform="scale(0.015625)"/>
      <path id="DejaVuSans-2c" d="M 628 4666 
L 1259 4666 
L 1259 0 
L 628 0 
L 628 4666 
z
" transform="scale(0.015625)"/>
      <path id="DejaVuSans-30" d="M 628 4666 
L 1569 4666 
L 2759 1491 
L 3956 4666 
L 4897 4666 
L 4897 0 
L 4281 0 
L 4281 4097 
L 3078 897 
L 2444 897 
L 1241 4097 
L 1241 0 
L 628 0 
L 628 4666 
z
" transform="scale(0.015625)"/>
      <path id="DejaVuSans-4a" d="M 2906 1791 
Q 2906 2416 2648 2759 
Q 2391 3103 1925 3103 
Q 1463 3103 1205 2759 
Q 947 2416 947 1791 
Q 947 1169 1205 825 
Q 1463 481 1925 481 
Q 2391 481 2648 825 
Q 2906 1169 2906 1791 
z
M 3481 434 
Q 3481 -459 3084 -895 
Q 2688 -1331 1869 -1331 
Q 1566 -1331 1297 -1286 
Q 1028 -1241 775 -1147 
L 775 -588 
Q 1028 -725 1275 -790 
Q 1522 -856 1778 -856 
Q 2344 -856 2625 -561 
Q 2906 -266 2906 331 
L 2906 616 
Q 2728 306 2450 153 
Q 2172 0 1784 0 
Q 1141 0 747 490 
Q 353 981 353 1791 
Q 353 2603 747 3093 
Q 1141 3584 1784 3584 
Q 2172 3584 2450 3431 
Q 2728 3278 2906 2969 
L 2906 3500 
L 3481 3500 
L 3481 434 
z
" transform="scale(0.015625)"/>
     </defs>
     <use xlink:href="#DejaVuSans-33"/>
     <use xlink:href="#DejaVuSans-36" transform="translate(60.296875 0)"/>
     <use xlink:href="#DejaVuSans-27" transform="translate(123.78125 0)"/>
     <use xlink:href="#DejaVuSans-3" transform="translate(200.78125 0)"/>
     <use xlink:href="#DejaVuSans-45" transform="translate(232.5625 0)"/>
     <use xlink:href="#DejaVuSans-48" transform="translate(296.046875 0)"/>
     <use xlink:href="#DejaVuSans-49" transform="translate(357.578125 0)"/>
     <use xlink:href="#DejaVuSans-52" transform="translate(392.78125 0)"/>
     <use xlink:href="#DejaVuSans-55" transform="translate(453.96875 0)"/>
     <use xlink:href="#DejaVuSans-48" transform="translate(492.875 0)"/>
     <use xlink:href="#DejaVuSans-3" transform="translate(554.40625 0)"/>
     <use xlink:href="#DejaVuSans-44" transform="translate(586.1875 0)"/>
     <use xlink:href="#DejaVuSans-51" transform="translate(647.46875 0)"/>
     <use xlink:href="#DejaVuSans-47" transform="translate(710.84375 0)"/>
     <use xlink:href="#DejaVuSans-3" transform="translate(774.328125 0)"/>
     <use xlink:href="#DejaVuSans-44" transform="translate(806.109375 0)"/>
     <use xlink:href="#DejaVuSans-49" transform="translate(867.390625 0)"/>
     <use xlink:href="#DejaVuSans-57" transform="translate(900.84375 0)"/>
     <use xlink:href="#DejaVuSans-48" transform="translate(940.046875 0)"/>
     <use xlink:href="#DejaVuSans-55" transform="translate(1001.578125 0)"/>
     <use xlink:href="#DejaVuSans-3" transform="translate(1042.6875 0)"/>
     <use xlink:href="#DejaVuSans-2c" transform="translate(1074.46875 0)"/>
     <use xlink:href="#DejaVuSans-30" transform="translate(1103.96875 0)"/>
     <use xlink:href="#DejaVuSans-29" transform="translate(1190.25 0)"/>
     <use xlink:href="#DejaVuSans-3" transform="translate(1247.765625 0)"/>
     <use xlink:href="#DejaVuSans-4a" transform="translate(1279.546875 0)"/>
     <use xlink:href="#DejaVuSans-44" transform="translate(1343.03125 0)"/>
     <use xlink:href="#DejaVuSans-57" transform="translate(1404.3125 0)"/>
     <use xlink:href="#DejaVuSans-4c" transform="translate(1443.515625 0)"/>
     <use xlink:href="#DejaVuSans-51" transform="translate(1471.296875 0)"/>
     <use xlink:href="#DejaVuSans-4a" transform="translate(1534.671875 0)"/>
    </g>
   </g>
   <g id="legend_1">
    <g id="patch_8">
     <path d="M 452.472656 75.320469 
L 551.300781 75.320469 
Q 553.300781 75.320469 553.300781 73.320469 
L 553.300781 29.318125 
Q 553.300781 27.318125 551.300781 27.318125 
L 452.472656 27.318125 
Q 450.472656 27.318125 450.472656 29.318125 
L 450.472656 73.320469 
Q 450.472656 75.320469 452.472656 75.320469 
z
" style="fill: #ffffff; opacity: 0.8; stroke: #cccccc; stroke-linejoin: miter"/>
    </g>
    <g id="line2d_25">
     <path d="M 454.472656 35.416562 
L 464.472656 35.416562 
L 474.472656 35.416562 
" style="fill: none; stroke: #1f77b4; stroke-width: 1.5; stroke-linecap: square"/>
    </g>
    <g id="text_15">
     <!-- Preprocessed -->
     <g transform="translate(482.472656 38.916562) scale(0.1 -0.1)">
      <defs>
       <path id="DejaVuSans-53" d="M 1159 525 
L 1159 -1331 
L 581 -1331 
L 581 3500 
L 1159 3500 
L 1159 2969 
Q 1341 3281 1617 3432 
Q 1894 3584 2278 3584 
Q 2916 3584 3314 3078 
Q 3713 2572 3713 1747 
Q 3713 922 3314 415 
Q 2916 -91 2278 -91 
Q 1894 -91 1617 61 
Q 1341 213 1159 525 
z
M 3116 1747 
Q 3116 2381 2855 2742 
Q 2594 3103 2138 3103 
Q 1681 3103 1420 2742 
Q 1159 2381 1159 1747 
Q 1159 1113 1420 752 
Q 1681 391 2138 391 
Q 2594 391 2855 752 
Q 3116 1113 3116 1747 
z
" transform="scale(0.015625)"/>
       <path id="DejaVuSans-56" d="M 2834 3397 
L 2834 2853 
Q 2591 2978 2328 3040 
Q 2066 3103 1784 3103 
Q 1356 3103 1142 2972 
Q 928 2841 928 2578 
Q 928 2378 1081 2264 
Q 1234 2150 1697 2047 
L 1894 2003 
Q 2506 1872 2764 1633 
Q 3022 1394 3022 966 
Q 3022 478 2636 193 
Q 2250 -91 1575 -91 
Q 1294 -91 989 -36 
Q 684 19 347 128 
L 347 722 
Q 666 556 975 473 
Q 1284 391 1588 391 
Q 1994 391 2212 530 
Q 2431 669 2431 922 
Q 2431 1156 2273 1281 
Q 2116 1406 1581 1522 
L 1381 1569 
Q 847 1681 609 1914 
Q 372 2147 372 2553 
Q 372 3047 722 3315 
Q 1072 3584 1716 3584 
Q 2034 3584 2315 3537 
Q 2597 3491 2834 3397 
z
" transform="scale(0.015625)"/>
      </defs>
      <use xlink:href="#DejaVuSans-33"/>
      <use xlink:href="#DejaVuSans-55" transform="translate(58.546875 0)"/>
      <use xlink:href="#DejaVuSans-48" transform="translate(97.453125 0)"/>
      <use xlink:href="#DejaVuSans-53" transform="translate(158.984375 0)"/>
      <use xlink:href="#DejaVuSans-55" transform="translate(222.46875 0)"/>
      <use xlink:href="#DejaVuSans-52" transform="translate(261.375 0)"/>
      <use xlink:href="#DejaVuSans-46" transform="translate(322.5625 0)"/>
      <use xlink:href="#DejaVuSans-48" transform="translate(377.546875 0)"/>
      <use xlink:href="#DejaVuSans-56" transform="translate(439.078125 0)"/>
      <use xlink:href="#DejaVuSans-56" transform="translate(491.171875 0)"/>
      <use xlink:href="#DejaVuSans-48" transform="translate(543.265625 0)"/>
      <use xlink:href="#DejaVuSans-47" transform="translate(604.796875 0)"/>
     </g>
    </g>
    <g id="line2d_26">
     <path d="M 454.472656 50.417344 
L 464.472656 50.417344 
L 474.472656 50.417344 
" style="fill: none; stroke: #ff7f0e; stroke-width: 1.5; stroke-linecap: square"/>
    </g>
    <g id="text_16">
     <!-- Weighted -->
     <g transform="translate(482.472656 53.917344) scale(0.1 -0.1)">
      <defs>
       <path id="DejaVuSans-3a" d="M 213 4666 
L 850 4666 
L 1831 722 
L 2809 4666 
L 3519 4666 
L 4500 722 
L 5478 4666 
L 6119 4666 
L 4947 0 
L 4153 0 
L 3169 4050 
L 2175 0 
L 1381 0 
L 213 4666 
z
" transform="scale(0.015625)"/>
       <path id="DejaVuSans-4b" d="M 3513 2113 
L 3513 0 
L 2938 0 
L 2938 2094 
Q 2938 2591 2744 2837 
Q 2550 3084 2163 3084 
Q 1697 3084 1428 2787 
Q 1159 2491 1159 1978 
L 1159 0 
L 581 0 
L 581 4863 
L 1159 4863 
L 1159 2956 
Q 1366 3272 1645 3428 
Q 1925 3584 2291 3584 
Q 2894 3584 3203 3211 
Q 3513 2838 3513 2113 
z
" transform="scale(0.015625)"/>
      </defs>
      <use xlink:href="#DejaVuSans-3a"/>
      <use xlink:href="#DejaVuSans-48" transform="translate(93.015625 0)"/>
      <use xlink:href="#DejaVuSans-4c" transform="translate(154.546875 0)"/>
      <use xlink:href="#DejaVuSans-4a" transform="translate(182.328125 0)"/>
      <use xlink:href="#DejaVuSans-4b" transform="translate(245.8125 0)"/>
      <use xlink:href="#DejaVuSans-57" transform="translate(309.1875 0)"/>
      <use xlink:href="#DejaVuSans-48" transform="translate(348.390625 0)"/>
      <use xlink:href="#DejaVuSans-47" transform="translate(409.921875 0)"/>
     </g>
    </g>
    <g id="patch_9">
     <path d="M 454.472656 68.918125 
L 474.472656 68.918125 
L 474.472656 61.918125 
L 454.472656 61.918125 
z
" style="fill: #dc143c; opacity: 0.15; stroke: #dc143c; stroke-linejoin: miter"/>
    </g>
    <g id="text_17">
     <!-- Chatter band -->
     <g transform="translate(482.472656 68.918125) scale(0.1 -0.1)">
      <defs>
       <path id="DejaVuSans-26" d="M 4122 4306 
L 4122 3641 
Q 3803 3938 3442 4084 
Q 3081 4231 2675 4231 
Q 1875 4231 1450 3742 
Q 1025 3253 1025 2328 
Q 1025 1406 1450 917 
Q 1875 428 2675 428 
Q 3081 428 3442 575 
Q 3803 722 4122 1019 
L 4122 359 
Q 3791 134 3420 21 
Q 3050 -91 2638 -91 
Q 1578 -91 968 557 
Q 359 1206 359 2328 
Q 359 3453 968 4101 
Q 1578 4750 2638 4750 
Q 3056 4750 3426 4639 
Q 3797 4528 4122 4306 
z
" transform="scale(0.015625)"/>
      </defs>
      <use xlink:href="#DejaVuSans-26"/>
      <use xlink:href="#DejaVuSans-4b" transform="translate(69.828125 0)"/>
      <use xlink:href="#DejaVuSans-44" transform="translate(133.203125 0)"/>
      <use xlink:href="#DejaVuSans-57" transform="translate(194.484375 0)"/>
      <use xlink:href="#DejaVuSans-57" transform="translate(233.6875 0)"/>
      <use xlink:href="#DejaVuSans-48" transform="translate(272.890625 0)"/>
      <use xlink:href="#DejaVuSans-55" transform="translate(334.421875 0)"/>
      <use xlink:href="#DejaVuSans-3" transform="translate(375.53125 0)"/>
      <use xlink:href="#DejaVuSans-45" transform="translate(407.3125 0)"/>
      <use xlink:href="#DejaVuSans-44" transform="translate(470.796875 0)"/>
      <use xlink:href="#DejaVuSans-51" transform="translate(532.078125 0)"/>
      <use xlink:href="#DejaVuSans-47" transform="translate(595.453125 0)"/>
     </g>
    </g>
   </g>
  </g>
 </g>
 <defs>
  <clipPath id="p9dfc2f5f48">
   <rect x="56.100781" y="22.318125" width="502.2" height="221.76"/>
  </clipPath>
 </defs>
</svg>
