<?xml version="1.0" encoding="utf-8" standalone="no"?>
<!DOCTYPE svg PUBLIC "-//W3C//DTD SVG 1.1//EN"
  "http://www.w3.org/Graphics/SVG/1.1/DTD/svg11.dtd">
<svg xmlns:xlink="http://www.w3.org/1999/xlink" width="561.100781pt" height="282.278125pt" viewBox="0 0 561.100781 282.278125" xmlns="http://www.w3.org/2000/svg" version="1.1">
 <metadata>
  <rdf:RDF xmlns:dc="http://purl.org/dc/elements/1.1/" xmlns:cc="http://creativecommons.org/ns#" xmlns:rdf="http://www.w3.org/1999/02/22-rdf-syntax-ns#">
   <cc:Work>
    <dc:type rdf:resource="http://purl.org/dc/dcmitype/StillImage"/>
    <dc:date>2026-07-14T07:01:50.965639</dc:date>
    <dc:format>image/svg+xml</dc:format>
    <dc:creator>
     <cc:Agent>
      <dc:title>Matplotlib v3.11.0, https://matplotlib.org/</dc:title>
     </cc:Agent>
    </dc:creator>
   </cc:Work>
  </rdf:RDF>
 </metadata>
 <defs>
  <style type="text/css">*{stroke-linejoin: round; stroke-linecap: butt}</style>
 </defs>
 <g id="figure_1">
  <g id="patch_1">
   <path d="M 0 282.278125 
L 561.100781 282.278125 
L 561.100781 0 
L 0 0 
z
" style="fill: #ffffff"/>
  </g>
  <g id="axes_1">
   <g id="patch_2">
    <path d="M 51.700781 244.078125 
L 553.900781 244.078125 
L 553.900781 22.318125 
L 51.700781 22.318125 
z
" style="fill: #ffffff"/>
   </g>
   <g id="patch_3">
    <path d="M 311.93169 244.078125 
L 421.502599 244.078125 
L 421.502599 22.318125 
L 311.93169 22.318125 
z
" clip-path="url(#p8dd354644e)" style="fill: #dc143c; opacity: 0.15; stroke: #dc143c; stroke-linejoin: miter"/>
   </g>
   <g id="matplotlib.axis_1">
    <g id="xtick_1">
     <g id="line2d_1">
      <path d="M 74.528054 244.078125 
L 74.528054 22.318125 
" clip-path="url(#p8dd354644e)" style="fill: none; stroke: #b0b0b0; stroke-opacity: 0.25; stroke-width: 0.8; stroke-linecap: square"/>
     </g>
     <g id="line2d_2">
      <defs>
       <path id="mf9606316e2" d="M 0 0 
L 0 3.5 
" style="stroke: #000000; stroke-width: 0.8"/>
      </defs>
      <g>
       <use xlink:href="#mf9606316e2" x="74.528054" y="244.078125" style="stroke: #000000; stroke-width: 0.8"/>
      </g>
     </g>
     <g id="text_1">
      <!-- 0 -->
      <g transform="translate(71.346804 258.675781) scale(0.1 -0.1)">
       <defs>
        <path id="DejaVuSans-13" d="M 2034 4250 
Q 1547 4250 1301 3770 
Q 1056 3291 1056 2328 
Q 1056 1369 1301 889 
Q 1547 409 2034 409 
Q 2525 409 2770 889 
Q 3016 1369 3016 2328 
Q 3016 3291 2770 3770 
Q 2525 4250 2034 4250 
z
M 2034 4750 
Q 2819 4750 3233 4129 
Q 3647 3509 3647 2328 
Q 3647 1150 3233 529 
Q 2819 -91 2034 -91 
Q 1250 -91 836 529 
Q 422 1150 422 2328 
Q 422 3509 836 4129 
Q 1250 4750 2034 4750 
z
" transform="scale(0.015625)"/>
       </defs>
       <use xlink:href="#DejaVuSans-13"/>
      </g>
     </g>
    </g>
    <g id="xtick_2">
     <g id="line2d_3">
      <path d="M 165.837145 244.078125 
L 165.837145 22.318125 
" clip-path="url(#p8dd354644e)" style="fill: none; stroke: #b0b0b0; stroke-opacity: 0.25; stroke-width: 0.8; stroke-linecap: square"/>
     </g>
     <g id="line2d_4">
      <g>
       <use xlink:href="#mf9606316e2" x="165.837145" y="244.078125" style="stroke: #000000; stroke-width: 0.8"/>
      </g>
     </g>
     <g id="text_2">
      <!-- 100 -->
      <g transform="translate(156.293395 258.675781) scale(0.1 -0.1)">
       <defs>
        <path id="DejaVuSans-14" d="M 794 531 
L 1825 531 
L 1825 4091 
L 703 3866 
L 703 4441 
L 1819 4666 
L 2450 4666 
L 2450 531 
L 3481 531 
L 3481 0 
L 794 0 
L 794 531 
z
" transform="scale(0.015625)"/>
       </defs>
       <use xlink:href="#DejaVuSans-14"/>
       <use xlink:href="#DejaVuSans-13" transform="translate(63.625 0)"/>
       <use xlink:href="#DejaVuSans-13" transform="translate(127.25 0)"/>
      </g>
     </g>
    </g>
    <g id="xtick_3">
     <g id="line2d_5">
      <path d="M 257.146236 244.078125 
L 257.146236 22.318125 
" clip-path="url(#p8dd354644e)" style="fill: none; stroke: #b0b0b0; stroke-opacity: 0.25; stroke-width: 0.8; stroke-linecap: square"/>
     </g>
     <g id="line2d_6">
      <g>
       <use xlink:href="#mf9606316e2" x="257.146236" y="244.078125" style="stroke: #000000; stroke-width: 0.8"/>
      </g>
     </g>
     <g id="text_3">
      <!-- 200 -->
      <g transform="translate(247.602486 258.675781) scale(0.1 -0.1)">
       <defs>
        <path id="DejaVuSans-15" d="M 1228 531 
L 3431 531 
L 3431 0 
L 469 0 
L 469 531 
Q 828 903 1448 1529 
Q 2069 2156 2228 2338 
Q 2531 2678 2651 2914 
Q 2772 3150 2772 3378 
Q 2772 3750 2511 3984 
Q 2250 4219 1831 4219 
Q 1534 4219 1204 4116 
Q 875 4013 500 3803 
L 500 4441 
Q 881 4594 1212 4672 
Q 1544 4750 1819 4750 
Q 2544 4750 2975 4387 
Q 3406 4025 3406 3419 
Q 3406 3131 3298 2873 
Q 3191 2616 2906 2266 
Q 2828 2175 2409 1742 
Q 1991 1309 1228 531 
z
" transform="scale(0.015625)"/>
       </defs>
       <use xlink:href="#DejaVuSans-15"/>
       <use xlink:href="#DejaVuSans-13" transform="translate(63.625 0)"/>
       <use xlink:href="#DejaVuSans-13" transform="translate(127.25 0)"/>
      </g>
     </g>
    </g>
    <g id="xtick_4">
     <g id="line2d_7">
      <path d="M 348.455327 244.078125 
L 348.455327 22.318125 
" clip-path="url(#p8dd354644e)" style="fill: none; stroke: #b0b0b0; stroke-opacity: 0.25; stroke-width: 0.8; stroke-linecap: square"/>
     </g>
     <g id="line2d_8">
      <g>
       <use xlink:href="#mf9606316e2" x="348.455327" y="244.078125" style="stroke: #000000; stroke-width: 0.8"/>
      </g>
     </g>
     <g id="text_4">
      <!-- 300 -->
      <g transform="translate(338.911577 258.675781) scale(0.1 -0.1)">
       <defs>
        <path id="DejaVuSans-16" d="M 2597 2516 
Q 3050 2419 3304 2112 
Q 3559 1806 3559 1356 
Q 3559 666 3084 287 
Q 2609 -91 1734 -91 
Q 1441 -91 1130 -33 
Q 819 25 488 141 
L 488 750 
Q 750 597 1062 519 
Q 1375 441 1716 441 
Q 2309 441 2620 675 
Q 2931 909 2931 1356 
Q 2931 1769 2642 2001 
Q 2353 2234 1838 2234 
L 1294 2234 
L 1294 2753 
L 1863 2753 
Q 2328 2753 2575 2939 
Q 2822 3125 2822 3475 
Q 2822 3834 2567 4026 
Q 2313 4219 1838 4219 
Q 1578 4219 1281 4162 
Q 984 4106 628 3988 
L 628 4550 
Q 988 4650 1302 4700 
Q 1616 4750 1894 4750 
Q 2613 4750 3031 4423 
Q 3450 4097 3450 3541 
Q 3450 3153 3228 2886 
Q 3006 2619 2597 2516 
z
" transform="scale(0.015625)"/>
       </defs>
       <use xlink:href="#DejaVuSans-16"/>
       <use xlink:href="#DejaVuSans-13" transform="translate(63.625 0)"/>
       <use xlink:href="#DejaVuSans-13" transform="translate(127.25 0)"/>
      </g>
     </g>
    </g>
    <g id="xtick_5">
     <g id="line2d_9">
      <path d="M 439.764418 244.078125 
L 439.764418 22.318125 
" clip-path="url(#p8dd354644e)" style="fill: none; stroke: #b0b0b0; stroke-opacity: 0.25; stroke-width: 0.8; stroke-linecap: square"/>
     </g>
     <g id="line2d_10">
      <g>
       <use xlink:href="#mf9606316e2" x="439.764418" y="244.078125" style="stroke: #000000; stroke-width: 0.8"/>
      </g>
     </g>
     <g id="text_5">
      <!-- 400 -->
      <g transform="translate(430.220668 258.675781) scale(0.1 -0.1)">
       <defs>
        <path id="DejaVuSans-17" d="M 2419 4116 
L 825 1625 
L 2419 1625 
L 2419 4116 
z
M 2253 4666 
L 3047 4666 
L 3047 1625 
L 3713 1625 
L 3713 1100 
L 3047 1100 
L 3047 0 
L 2419 0 
L 2419 1100 
L 313 1100 
L 313 1709 
L 2253 4666 
z
" transform="scale(0.015625)"/>
       </defs>
       <use xlink:href="#DejaVuSans-17"/>
       <use xlink:href="#DejaVuSans-13" transform="translate(63.625 0)"/>
       <use xlink:href="#DejaVuSans-13" transform="translate(127.25 0)"/>
      </g>
     </g>
    </g>
    <g id="xtick_6">
     <g id="line2d_11">
      <path d="M 531.073509 244.078125 
L 531.073509 22.318125 
" clip-path="url(#p8dd354644e)" style="fill: none; stroke: #b0b0b0; stroke-opacity: 0.25; stroke-width: 0.8; stroke-linecap: square"/>
     </g>
     <g id="line2d_12">
      <g>
       <use xlink:href="#mf9606316e2" x="531.073509" y="244.078125" style="stroke: #000000; stroke-width: 0.8"/>
      </g>
     </g>
     <g id="text_6">
      <!-- 500 -->
      <g transform="translate(521.529759 258.675781) scale(0.1 -0.1)">
       <defs>
        <path id="DejaVuSans-18" d="M 691 4666 
L 3169 4666 
L 3169 4134 
L 1269 4134 
L 1269 2991 
Q 1406 3038 1543 3061 
Q 1681 3084 1819 3084 
Q 2600 3084 3056 2656 
Q 3513 2228 3513 1497 
Q 3513 744 3044 326 
Q 2575 -91 1722 -91 
Q 1428 -91 1123 -41 
Q 819 9 494 109 
L 494 744 
Q 775 591 1075 516 
Q 1375 441 1709 441 
Q 2250 441 2565 725 
Q 2881 1009 2881 1497 
Q 2881 1984 2565 2268 
Q 2250 2553 1709 2553 
Q 1456 2553 1204 2497 
Q 953 2441 691 2322 
L 691 4666 
z
" transform="scale(0.015625)"/>
       </defs>
       <use xlink:href="#DejaVuSans-18"/>
       <use xlink:href="#DejaVuSans-13" transform="translate(63.625 0)"/>
       <use xlink:href="#DejaVuSans-13" transform="translate(127.25 0)"/>
      </g>
     </g>
    </g>
    <g id="text_7">
     <!-- Frequency (Hz) -->
     <g transform="translate(265.095312 272.675781) scale(0.1 -0.1)">
      <defs>
       <path id="DejaVuSans-29" d="M 628 4666 
L 3309 4666 
L 3309 4134 
L 1259 4134 
L 1259 2759 
L 3109 2759 
L 3109 2228 
L 1259 2228 
L 1259 0 
L 628 0 
L 628 4666 
z
" transform="scale(0.015625)"/>
       <path id="DejaVuSans-55" d="M 2631 2963 
Q 2534 3019 2420 3045 
Q 2306 3072 2169 3072 
Q 1681 3072 1420 2755 
Q 1159 2438 1159 1844 
L 1159 0 
L 581 0 
L 581 3500 
L 1159 3500 
L 1159 2956 
Q 1341 3275 1631 3429 
Q 1922 3584 2338 3584 
Q 2397 3584 2469 3576 
Q 2541 3569 2628 3553 
L 2631 2963 
z
" transform="scale(0.015625)"/>
       <path id="DejaVuSans-48" d="M 3597 1894 
L 3597 1613 
L 953 1613 
Q 991 1019 1311 708 
Q 1631 397 2203 397 
Q 2534 397 2845 478 
Q 3156 559 3463 722 
L 3463 178 
Q 3153 47 2828 -22 
Q 2503 -91 2169 -91 
Q 1331 -91 842 396 
Q 353 884 353 1716 
Q 353 2575 817 3079 
Q 1281 3584 2069 3584 
Q 2775 3584 3186 3129 
Q 3597 2675 3597 1894 
z
M 3022 2063 
Q 3016 2534 2758 2815 
Q 2500 3097 2075 3097 
Q 1594 3097 1305 2825 
Q 1016 2553 972 2059 
L 3022 2063 
z
" transform="scale(0.015625)"/>
       <path id="DejaVuSans-54" d="M 947 1747 
Q 947 1113 1208 752 
Q 1469 391 1925 391 
Q 2381 391 2643 752 
Q 2906 1113 2906 1747 
Q 2906 2381 2643 2742 
Q 2381 3103 1925 3103 
Q 1469 3103 1208 2742 
Q 947 2381 947 1747 
z
M 2906 525 
Q 2725 213 2448 61 
Q 2172 -91 1784 -91 
Q 1150 -91 751 415 
Q 353 922 353 1747 
Q 353 2572 751 3078 
Q 1150 3584 1784 3584 
Q 2172 3584 2448 3432 
Q 2725 3281 2906 2969 
L 2906 3500 
L 3481 3500 
L 3481 -1331 
L 2906 -1331 
L 2906 525 
z
" transform="scale(0.015625)"/>
       <path id="DejaVuSans-58" d="M 544 1381 
L 544 3500 
L 1119 3500 
L 1119 1403 
Q 1119 906 1312 657 
Q 1506 409 1894 409 
Q 2359 409 2629 706 
Q 2900 1003 2900 1516 
L 2900 3500 
L 3475 3500 
L 3475 0 
L 2900 0 
L 2900 538 
Q 2691 219 2414 64 
Q 2138 -91 1772 -91 
Q 1169 -91 856 284 
Q 544 659 544 1381 
z
M 1991 3584 
L 1991 3584 
z
" transform="scale(0.015625)"/>
       <path id="DejaVuSans-51" d="M 3513 2113 
L 3513 0 
L 2938 0 
L 2938 2094 
Q 2938 2591 2744 2837 
Q 2550 3084 2163 3084 
Q 1697 3084 1428 2787 
Q 1159 2491 1159 1978 
L 1159 0 
L 581 0 
L 581 3500 
L 1159 3500 
L 1159 2956 
Q 1366 3272 1645 3428 
Q 1925 3584 2291 3584 
Q 2894 3584 3203 3211 
Q 3513 2838 3513 2113 
z
" transform="scale(0.015625)"/>
       <path id="DejaVuSans-46" d="M 3122 3366 
L 3122 2828 
Q 2878 2963 2633 3030 
Q 2388 3097 2138 3097 
Q 1578 3097 1268 2742 
Q 959 2388 959 1747 
Q 959 1106 1268 751 
Q 1578 397 2138 397 
Q 2388 397 2633 464 
Q 2878 531 3122 666 
L 3122 134 
Q 2881 22 2623 -34 
Q 2366 -91 2075 -91 
Q 1284 -91 818 406 
Q 353 903 353 1747 
Q 353 2603 823 3093 
Q 1294 3584 2113 3584 
Q 2378 3584 2631 3529 
Q 2884 3475 3122 3366 
z
" transform="scale(0.015625)"/>
       <path id="DejaVuSans-5c" d="M 2059 -325 
Q 1816 -950 1584 -1140 
Q 1353 -1331 966 -1331 
L 506 -1331 
L 506 -850 
L 844 -850 
Q 1081 -850 1212 -737 
Q 1344 -625 1503 -206 
L 1606 56 
L 191 3500 
L 800 3500 
L 1894 763 
L 2988 3500 
L 3597 3500 
L 2059 -325 
z
" transform="scale(0.015625)"/>
       <path id="DejaVuSans-3" transform="scale(0.015625)"/>
       <path id="DejaVuSans-b" d="M 1984 4856 
Q 1566 4138 1362 3434 
Q 1159 2731 1159 2009 
Q 1159 1288 1364 580 
Q 1569 -128 1984 -844 
L 1484 -844 
Q 1016 -109 783 600 
Q 550 1309 550 2009 
Q 550 2706 781 3412 
Q 1013 4119 1484 4856 
L 1984 4856 
z
" transform="scale(0.015625)"/>
       <path id="DejaVuSans-2b" d="M 628 4666 
L 1259 4666 
L 1259 2753 
L 3553 2753 
L 3553 4666 
L 4184 4666 
L 4184 0 
L 3553 0 
L 3553 2222 
L 1259 2222 
L 1259 0 
L 628 0 
L 628 4666 
z
" transform="scale(0.015625)"/>
       <path id="DejaVuSans-5d" d="M 353 3500 
L 3084 3500 
L 3084 2975 
L 922 459 
L 3084 459 
L 3084 0 
L 275 0 
L 275 525 
L 2438 3041 
L 353 3041 
L 353 3500 
z
" transform="scale(0.015625)"/>
       <path id="DejaVuSans-c" d="M 513 4856 
L 1013 4856 
Q 1481 4119 1714 3412 
Q 1947 2706 1947 2009 
Q 1947 1309 1714 600 
Q 1481 -109 1013 -844 
L 513 -844 
Q 928 -128 1133 580 
Q 1338 1288 1338 2009 
Q 1338 2731 1133 3434 
Q 928 4138 513 4856 
z
" transform="scale(0.015625)"/>
      </defs>
      <use xlink:href="#DejaVuSans-29"/>
      <use xlink:href="#DejaVuSans-55" transform="translate(50.234375 0)"/>
      <use xlink:href="#DejaVuSans-48" transform="translate(89.140625 0)"/>
      <use xlink:href="#DejaVuSans-54" transform="translate(150.671875 0)"/>
      <use xlink:href="#DejaVuSans-58" transform="translate(214.15625 0)"/>
      <use xlink:href="#DejaVuSans-48" transform="translate(277.53125 0)"/>
      <use xlink:href="#DejaVuSans-51" transform="translate(339.0625 0)"/>
      <use xlink:href="#DejaVuSans-46" transform="translate(402.4375 0)"/>
      <use xlink:href="#DejaVuSans-5c" transform="translate(457.421875 0)"/>
      <use xlink:href="#DejaVuSans-3" transform="translate(516.609375 0)"/>
      <use xlink:href="#DejaVuSans-b" transform="translate(548.390625 0)"/>
      <use xlink:href="#DejaVuSans-2b" transform="translate(587.40625 0)"/>
      <use xlink:href="#DejaVuSans-5d" transform="translate(662.609375 0)"/>
      <use xlink:href="#DejaVuSans-c" transform="translate(715.09375 0)"/>
     </g>
    </g>
   </g>
   <g id="matplotlib.axis_2">
    <g id="ytick_1">
     <g id="line2d_13">
      <path d="M 51.700781 222.63664 
L 553.900781 222.63664 
" clip-path="url(#p8dd354644e)" style="fill: none; stroke: #b0b0b0; stroke-opacity: 0.25; stroke-width: 0.8; stroke-linecap: square"/>
     </g>
     <g id="line2d_14">
      <defs>
       <path id="md27c52c640" d="M 0 0 
L -3.5 0 
" style="stroke: #000000; stroke-width: 0.8"/>
      </defs>
      <g>
       <use xlink:href="#md27c52c640" x="51.700781" y="222.63664" style="stroke: #000000; stroke-width: 0.8"/>
      </g>
     </g>
     <g id="text_8">
      <!-- $\mathdefault{10^{-9}}$ -->
      <g transform="translate(21.200781 227.33664) scale(0.1 -0.1)">
       <defs>
        <path id="DejaVuSans-c9c" d="M 678 2272 
L 4684 2272 
L 4684 1741 
L 678 1741 
L 678 2272 
z
" transform="scale(0.015625)"/>
        <path id="DejaVuSans-1c" d="M 703 97 
L 703 672 
Q 941 559 1184 500 
Q 1428 441 1663 441 
Q 2288 441 2617 861 
Q 2947 1281 2994 2138 
Q 2813 1869 2534 1725 
Q 2256 1581 1919 1581 
Q 1219 1581 811 2004 
Q 403 2428 403 3163 
Q 403 3881 828 4315 
Q 1253 4750 1959 4750 
Q 2769 4750 3195 4129 
Q 3622 3509 3622 2328 
Q 3622 1225 3098 567 
Q 2575 -91 1691 -91 
Q 1453 -91 1209 -44 
Q 966 3 703 97 
z
M 1959 2075 
Q 2384 2075 2632 2365 
Q 2881 2656 2881 3163 
Q 2881 3666 2632 3958 
Q 2384 4250 1959 4250 
Q 1534 4250 1286 3958 
Q 1038 3666 1038 3163 
Q 1038 2656 1286 2365 
Q 1534 2075 1959 2075 
z
" transform="scale(0.015625)"/>
       </defs>
       <use xlink:href="#DejaVuSans-14" transform="translate(0 0.746875)"/>
       <use xlink:href="#DejaVuSans-13" transform="translate(63.623047 0.746875)"/>
       <use xlink:href="#DejaVuSans-c9c" transform="translate(128.203125 42.046875) scale(0.7)"/>
       <use xlink:href="#DejaVuSans-1c" transform="translate(186.855469 42.046875) scale(0.7)"/>
      </g>
     </g>
    </g>
    <g id="ytick_2">
     <g id="line2d_15">
      <path d="M 51.700781 197.259288 
L 553.900781 197.259288 
" clip-path="url(#p8dd354644e)" style="fill: none; stroke: #b0b0b0; stroke-opacity: 0.25; stroke-width: 0.8; stroke-linecap: square"/>
     </g>
     <g id="line2d_16">
      <g>
       <use xlink:href="#md27c52c640" x="51.700781" y="197.259288" style="stroke: #000000; stroke-width: 0.8"/>
      </g>
     </g>
     <g id="text_9">
      <!-- $\mathdefault{10^{-8}}$ -->
      <g transform="translate(21.200781 201.959288) scale(0.1 -0.1)">
       <defs>
        <path id="DejaVuSans-1b" d="M 2034 2216 
Q 1584 2216 1326 1975 
Q 1069 1734 1069 1313 
Q 1069 891 1326 650 
Q 1584 409 2034 409 
Q 2484 409 2743 651 
Q 3003 894 3003 1313 
Q 3003 1734 2745 1975 
Q 2488 2216 2034 2216 
z
M 1403 2484 
Q 997 2584 770 2862 
Q 544 3141 544 3541 
Q 544 4100 942 4425 
Q 1341 4750 2034 4750 
Q 2731 4750 3128 4425 
Q 3525 4100 3525 3541 
Q 3525 3141 3298 2862 
Q 3072 2584 2669 2484 
Q 3125 2378 3379 2068 
Q 3634 1759 3634 1313 
Q 3634 634 3220 271 
Q 2806 -91 2034 -91 
Q 1263 -91 848 271 
Q 434 634 434 1313 
Q 434 1759 690 2068 
Q 947 2378 1403 2484 
z
M 1172 3481 
Q 1172 3119 1398 2916 
Q 1625 2713 2034 2713 
Q 2441 2713 2670 2916 
Q 2900 3119 2900 3481 
Q 2900 3844 2670 4047 
Q 2441 4250 2034 4250 
Q 1625 4250 1398 4047 
Q 1172 3844 1172 3481 
z
" transform="scale(0.015625)"/>
       </defs>
       <use xlink:href="#DejaVuSans-14" transform="translate(0 0.746875)"/>
       <use xlink:href="#DejaVuSans-13" transform="translate(63.623047 0.746875)"/>
       <use xlink:href="#DejaVuSans-c9c" transform="translate(128.203125 42.046875) scale(0.7)"/>
       <use xlink:href="#DejaVuSans-1b" transform="translate(186.855469 42.046875) scale(0.7)"/>
      </g>
     </g>
    </g>
    <g id="ytick_3">
     <g id="line2d_17">
      <path d="M 51.700781 171.881935 
L 553.900781 171.881935 
" clip-path="url(#p8dd354644e)" style="fill: none; stroke: #b0b0b0; stroke-opacity: 0.25; stroke-width: 0.8; stroke-linecap: square"/>
     </g>
     <g id="line2d_18">
      <g>
       <use xlink:href="#md27c52c640" x="51.700781" y="171.881935" style="stroke: #000000; stroke-width: 0.8"/>
      </g>
     </g>
     <g id="text_10">
      <!-- $\mathdefault{10^{-7}}$ -->
      <g transform="translate(21.200781 176.531935) scale(0.1 -0.1)">
       <defs>
        <path id="DejaVuSans-1a" d="M 525 4666 
L 3525 4666 
L 3525 4397 
L 1831 0 
L 1172 0 
L 2766 4134 
L 525 4134 
L 525 4666 
z
" transform="scale(0.015625)"/>
       </defs>
       <use xlink:href="#DejaVuSans-14" transform="translate(0 0.665625)"/>
       <use xlink:href="#DejaVuSans-13" transform="translate(63.623047 0.665625)"/>
       <use xlink:href="#DejaVuSans-c9c" transform="translate(128.203125 41.965625) scale(0.7)"/>
       <use xlink:href="#DejaVuSans-1a" transform="translate(186.855469 41.965625) scale(0.7)"/>
      </g>
     </g>
    </g>
    <g id="ytick_4">
     <g id="line2d_19">
      <path d="M 51.700781 146.504582 
L 553.900781 146.504582 
" clip-path="url(#p8dd354644e)" style="fill: none; stroke: #b0b0b0; stroke-opacity: 0.25; stroke-width: 0.8; stroke-linecap: square"/>
     </g>
     <g id="line2d_20">
      <g>
       <use xlink:href="#md27c52c640" x="51.700781" y="146.504582" style="stroke: #000000; stroke-width: 0.8"/>
      </g>
     </g>
     <g id="text_11">
      <!-- $\mathdefault{10^{-6}}$ -->
      <g transform="translate(21.200781 151.204582) scale(0.1 -0.1)">
       <defs>
        <path id="DejaVuSans-19" d="M 2113 2584 
Q 1688 2584 1439 2293 
Q 1191 2003 1191 1497 
Q 1191 994 1439 701 
Q 1688 409 2113 409 
Q 2538 409 2786 701 
Q 3034 994 3034 1497 
Q 3034 2003 2786 2293 
Q 2538 2584 2113 2584 
z
M 3366 4563 
L 3366 3988 
Q 3128 4100 2886 4159 
Q 2644 4219 2406 4219 
Q 1781 4219 1451 3797 
Q 1122 3375 1075 2522 
Q 1259 2794 1537 2939 
Q 1816 3084 2150 3084 
Q 2853 3084 3261 2657 
Q 3669 2231 3669 1497 
Q 3669 778 3244 343 
Q 2819 -91 2113 -91 
Q 1303 -91 875 529 
Q 447 1150 447 2328 
Q 447 3434 972 4092 
Q 1497 4750 2381 4750 
Q 2619 4750 2861 4703 
Q 3103 4656 3366 4563 
z
" transform="scale(0.015625)"/>
       </defs>
       <use xlink:href="#DejaVuSans-14" transform="translate(0 0.746875)"/>
       <use xlink:href="#DejaVuSans-13" transform="translate(63.623047 0.746875)"/>
       <use xlink:href="#DejaVuSans-c9c" transform="translate(128.203125 42.046875) scale(0.7)"/>
       <use xlink:href="#DejaVuSans-19" transform="translate(186.855469 42.046875) scale(0.7)"/>
      </g>
     </g>
    </g>
    <g id="ytick_5">
     <g id="line2d_21">
      <path d="M 51.700781 121.127229 
L 553.900781 121.127229 
" clip-path="url(#p8dd354644e)" style="fill: none; stroke: #b0b0b0; stroke-opacity: 0.25; stroke-width: 0.8; stroke-linecap: square"/>
     </g>
     <g id="line2d_22">
      <g>
       <use xlink:href="#md27c52c640" x="51.700781" y="121.127229" style="stroke: #000000; stroke-width: 0.8"/>
      </g>
     </g>
     <g id="text_12">
      <!-- $\mathdefault{10^{-5}}$ -->
      <g transform="translate(21.200781 125.777229) scale(0.1 -0.1)">
       <use xlink:href="#DejaVuSans-14" transform="translate(0 0.665625)"/>
       <use xlink:href="#DejaVuSans-13" transform="translate(63.623047 0.665625)"/>
       <use xlink:href="#DejaVuSans-c9c" transform="translate(128.203125 41.965625) scale(0.7)"/>
       <use xlink:href="#DejaVuSans-18" transform="translate(186.855469 41.965625) scale(0.7)"/>
      </g>
     </g>
    </g>
    <g id="ytick_6">
     <g id="line2d_23">
      <path d="M 51.700781 95.749876 
L 553.900781 95.749876 
" clip-path="url(#p8dd354644e)" style="fill: none; stroke: #b0b0b0; stroke-opacity: 0.25; stroke-width: 0.8; stroke-linecap: square"/>
     </g>
     <g id="line2d_24">
      <g>
       <use xlink:href="#md27c52c640" x="51.700781" y="95.749876" style="stroke: #000000; stroke-width: 0.8"/>
      </g>
     </g>
     <g id="text_13">
      <!-- $\mathdefault{10^{-4}}$ -->
      <g transform="translate(21.200781 100.399876) scale(0.1 -0.1)">
       <use xlink:href="#DejaVuSans-14" transform="translate(0 0.665625)"/>
       <use xlink:href="#DejaVuSans-13" transform="translate(63.623047 0.665625)"/>
       <use xlink:href="#DejaVuSans-c9c" transform="translate(128.203125 41.965625) scale(0.7)"/>
       <use xlink:href="#DejaVuSans-17" transform="translate(186.855469 41.965625) scale(0.7)"/>
      </g>
     </g>
    </g>
    <g id="ytick_7">
     <g id="line2d_25">
      <path d="M 51.700781 70.372524 
L 553.900781 70.372524 
" clip-path="url(#p8dd354644e)" style="fill: none; stroke: #b0b0b0; stroke-opacity: 0.25; stroke-width: 0.8; stroke-linecap: square"/>
     </g>
     <g id="line2d_26">
      <g>
       <use xlink:href="#md27c52c640" x="51.700781" y="70.372524" style="stroke: #000000; stroke-width: 0.8"/>
      </g>
     </g>
     <g id="text_14">
      <!-- $\mathdefault{10^{-3}}$ -->
      <g transform="translate(21.200781 75.072524) scale(0.1 -0.1)">
       <use xlink:href="#DejaVuSans-14" transform="translate(0 0.746875)"/>
       <use xlink:href="#DejaVuSans-13" transform="translate(63.623047 0.746875)"/>
       <use xlink:href="#DejaVuSans-c9c" transform="translate(128.203125 42.046875) scale(0.7)"/>
       <use xlink:href="#DejaVuSans-16" transform="translate(186.855469 42.046875) scale(0.7)"/>
      </g>
     </g>
    </g>
    <g id="ytick_8">
     <g id="line2d_27">
      <path d="M 51.700781 44.995171 
L 553.900781 44.995171 
" clip-path="url(#p8dd354644e)" style="fill: none; stroke: #b0b0b0; stroke-opacity: 0.25; stroke-width: 0.8; stroke-linecap: square"/>
     </g>
     <g id="line2d_28">
      <g>
       <use xlink:href="#md27c52c640" x="51.700781" y="44.995171" style="stroke: #000000; stroke-width: 0.8"/>
      </g>
     </g>
     <g id="text_15">
      <!-- $\mathdefault{10^{-2}}$ -->
      <g transform="translate(21.200781 49.695171) scale(0.1 -0.1)">
       <use xlink:href="#DejaVuSans-14" transform="translate(0 0.746875)"/>
       <use xlink:href="#DejaVuSans-13" transform="translate(63.623047 0.746875)"/>
       <use xlink:href="#DejaVuSans-c9c" transform="translate(128.203125 42.046875) scale(0.7)"/>
       <use xlink:href="#DejaVuSans-15" transform="translate(186.855469 42.046875) scale(0.7)"/>
      </g>
     </g>
    </g>
    <g id="ytick_9">
     <g id="line2d_29">
      <defs>
       <path id="m72bc9191c7" d="M 0 0 
L -2 0 
" style="stroke: #000000; stroke-width: 0.6"/>
      </defs>
      <g>
       <use xlink:href="#m72bc9191c7" x="51.700781" y="240.374649" style="stroke: #000000; stroke-width: 0.6"/>
      </g>
     </g>
    </g>
    <g id="ytick_10">
     <g id="line2d_30">
      <g>
       <use xlink:href="#m72bc9191c7" x="51.700781" y="235.905919" style="stroke: #000000; stroke-width: 0.6"/>
      </g>
     </g>
    </g>
    <g id="ytick_11">
     <g id="line2d_31">
      <g>
       <use xlink:href="#m72bc9191c7" x="51.700781" y="232.735304" style="stroke: #000000; stroke-width: 0.6"/>
      </g>
     </g>
    </g>
    <g id="ytick_12">
     <g id="line2d_32">
      <g>
       <use xlink:href="#m72bc9191c7" x="51.700781" y="230.275985" style="stroke: #000000; stroke-width: 0.6"/>
      </g>
     </g>
    </g>
    <g id="ytick_13">
     <g id="line2d_33">
      <g>
       <use xlink:href="#m72bc9191c7" x="51.700781" y="228.266574" style="stroke: #000000; stroke-width: 0.6"/>
      </g>
     </g>
    </g>
    <g id="ytick_14">
     <g id="line2d_34">
      <g>
       <use xlink:href="#m72bc9191c7" x="51.700781" y="226.567642" style="stroke: #000000; stroke-width: 0.6"/>
      </g>
     </g>
    </g>
    <g id="ytick_15">
     <g id="line2d_35">
      <g>
       <use xlink:href="#m72bc9191c7" x="51.700781" y="225.09596" style="stroke: #000000; stroke-width: 0.6"/>
      </g>
     </g>
    </g>
    <g id="ytick_16">
     <g id="line2d_36">
      <g>
       <use xlink:href="#m72bc9191c7" x="51.700781" y="223.797844" style="stroke: #000000; stroke-width: 0.6"/>
      </g>
     </g>
    </g>
    <g id="ytick_17">
     <g id="line2d_37">
      <g>
       <use xlink:href="#m72bc9191c7" x="51.700781" y="214.997296" style="stroke: #000000; stroke-width: 0.6"/>
      </g>
     </g>
    </g>
    <g id="ytick_18">
     <g id="line2d_38">
      <g>
       <use xlink:href="#m72bc9191c7" x="51.700781" y="210.528566" style="stroke: #000000; stroke-width: 0.6"/>
      </g>
     </g>
    </g>
    <g id="ytick_19">
     <g id="line2d_39">
      <g>
       <use xlink:href="#m72bc9191c7" x="51.700781" y="207.357952" style="stroke: #000000; stroke-width: 0.6"/>
      </g>
     </g>
    </g>
    <g id="ytick_20">
     <g id="line2d_40">
      <g>
       <use xlink:href="#m72bc9191c7" x="51.700781" y="204.898632" style="stroke: #000000; stroke-width: 0.6"/>
      </g>
     </g>
    </g>
    <g id="ytick_21">
     <g id="line2d_41">
      <g>
       <use xlink:href="#m72bc9191c7" x="51.700781" y="202.889222" style="stroke: #000000; stroke-width: 0.6"/>
      </g>
     </g>
    </g>
    <g id="ytick_22">
     <g id="line2d_42">
      <g>
       <use xlink:href="#m72bc9191c7" x="51.700781" y="201.190289" style="stroke: #000000; stroke-width: 0.6"/>
      </g>
     </g>
    </g>
    <g id="ytick_23">
     <g id="line2d_43">
      <g>
       <use xlink:href="#m72bc9191c7" x="51.700781" y="199.718607" style="stroke: #000000; stroke-width: 0.6"/>
      </g>
     </g>
    </g>
    <g id="ytick_24">
     <g id="line2d_44">
      <g>
       <use xlink:href="#m72bc9191c7" x="51.700781" y="198.420492" style="stroke: #000000; stroke-width: 0.6"/>
      </g>
     </g>
    </g>
    <g id="ytick_25">
     <g id="line2d_45">
      <g>
       <use xlink:href="#m72bc9191c7" x="51.700781" y="189.619943" style="stroke: #000000; stroke-width: 0.6"/>
      </g>
     </g>
    </g>
    <g id="ytick_26">
     <g id="line2d_46">
      <g>
       <use xlink:href="#m72bc9191c7" x="51.700781" y="185.151213" style="stroke: #000000; stroke-width: 0.6"/>
      </g>
     </g>
    </g>
    <g id="ytick_27">
     <g id="line2d_47">
      <g>
       <use xlink:href="#m72bc9191c7" x="51.700781" y="181.980599" style="stroke: #000000; stroke-width: 0.6"/>
      </g>
     </g>
    </g>
    <g id="ytick_28">
     <g id="line2d_48">
      <g>
       <use xlink:href="#m72bc9191c7" x="51.700781" y="179.521279" style="stroke: #000000; stroke-width: 0.6"/>
      </g>
     </g>
    </g>
    <g id="ytick_29">
     <g id="line2d_49">
      <g>
       <use xlink:href="#m72bc9191c7" x="51.700781" y="177.511869" style="stroke: #000000; stroke-width: 0.6"/>
      </g>
     </g>
    </g>
    <g id="ytick_30">
     <g id="line2d_50">
      <g>
       <use xlink:href="#m72bc9191c7" x="51.700781" y="175.812937" style="stroke: #000000; stroke-width: 0.6"/>
      </g>
     </g>
    </g>
    <g id="ytick_31">
     <g id="line2d_51">
      <g>
       <use xlink:href="#m72bc9191c7" x="51.700781" y="174.341254" style="stroke: #000000; stroke-width: 0.6"/>
      </g>
     </g>
    </g>
    <g id="ytick_32">
     <g id="line2d_52">
      <g>
       <use xlink:href="#m72bc9191c7" x="51.700781" y="173.043139" style="stroke: #000000; stroke-width: 0.6"/>
      </g>
     </g>
    </g>
    <g id="ytick_33">
     <g id="line2d_53">
      <g>
       <use xlink:href="#m72bc9191c7" x="51.700781" y="164.24259" style="stroke: #000000; stroke-width: 0.6"/>
      </g>
     </g>
    </g>
    <g id="ytick_34">
     <g id="line2d_54">
      <g>
       <use xlink:href="#m72bc9191c7" x="51.700781" y="159.77386" style="stroke: #000000; stroke-width: 0.6"/>
      </g>
     </g>
    </g>
    <g id="ytick_35">
     <g id="line2d_55">
      <g>
       <use xlink:href="#m72bc9191c7" x="51.700781" y="156.603246" style="stroke: #000000; stroke-width: 0.6"/>
      </g>
     </g>
    </g>
    <g id="ytick_36">
     <g id="line2d_56">
      <g>
       <use xlink:href="#m72bc9191c7" x="51.700781" y="154.143926" style="stroke: #000000; stroke-width: 0.6"/>
      </g>
     </g>
    </g>
    <g id="ytick_37">
     <g id="line2d_57">
      <g>
       <use xlink:href="#m72bc9191c7" x="51.700781" y="152.134516" style="stroke: #000000; stroke-width: 0.6"/>
      </g>
     </g>
    </g>
    <g id="ytick_38">
     <g id="line2d_58">
      <g>
       <use xlink:href="#m72bc9191c7" x="51.700781" y="150.435584" style="stroke: #000000; stroke-width: 0.6"/>
      </g>
     </g>
    </g>
    <g id="ytick_39">
     <g id="line2d_59">
      <g>
       <use xlink:href="#m72bc9191c7" x="51.700781" y="148.963902" style="stroke: #000000; stroke-width: 0.6"/>
      </g>
     </g>
    </g>
    <g id="ytick_40">
     <g id="line2d_60">
      <g>
       <use xlink:href="#m72bc9191c7" x="51.700781" y="147.665786" style="stroke: #000000; stroke-width: 0.6"/>
      </g>
     </g>
    </g>
    <g id="ytick_41">
     <g id="line2d_61">
      <g>
       <use xlink:href="#m72bc9191c7" x="51.700781" y="138.865238" style="stroke: #000000; stroke-width: 0.6"/>
      </g>
     </g>
    </g>
    <g id="ytick_42">
     <g id="line2d_62">
      <g>
       <use xlink:href="#m72bc9191c7" x="51.700781" y="134.396508" style="stroke: #000000; stroke-width: 0.6"/>
      </g>
     </g>
    </g>
    <g id="ytick_43">
     <g id="line2d_63">
      <g>
       <use xlink:href="#m72bc9191c7" x="51.700781" y="131.225893" style="stroke: #000000; stroke-width: 0.6"/>
      </g>
     </g>
    </g>
    <g id="ytick_44">
     <g id="line2d_64">
      <g>
       <use xlink:href="#m72bc9191c7" x="51.700781" y="128.766574" style="stroke: #000000; stroke-width: 0.6"/>
      </g>
     </g>
    </g>
    <g id="ytick_45">
     <g id="line2d_65">
      <g>
       <use xlink:href="#m72bc9191c7" x="51.700781" y="126.757163" style="stroke: #000000; stroke-width: 0.6"/>
      </g>
     </g>
    </g>
    <g id="ytick_46">
     <g id="line2d_66">
      <g>
       <use xlink:href="#m72bc9191c7" x="51.700781" y="125.058231" style="stroke: #000000; stroke-width: 0.6"/>
      </g>
     </g>
    </g>
    <g id="ytick_47">
     <g id="line2d_67">
      <g>
       <use xlink:href="#m72bc9191c7" x="51.700781" y="123.586549" style="stroke: #000000; stroke-width: 0.6"/>
      </g>
     </g>
    </g>
    <g id="ytick_48">
     <g id="line2d_68">
      <g>
       <use xlink:href="#m72bc9191c7" x="51.700781" y="122.288433" style="stroke: #000000; stroke-width: 0.6"/>
      </g>
     </g>
    </g>
    <g id="ytick_49">
     <g id="line2d_69">
      <g>
       <use xlink:href="#m72bc9191c7" x="51.700781" y="113.487885" style="stroke: #000000; stroke-width: 0.6"/>
      </g>
     </g>
    </g>
    <g id="ytick_50">
     <g id="line2d_70">
      <g>
       <use xlink:href="#m72bc9191c7" x="51.700781" y="109.019155" style="stroke: #000000; stroke-width: 0.6"/>
      </g>
     </g>
    </g>
    <g id="ytick_51">
     <g id="line2d_71">
      <g>
       <use xlink:href="#m72bc9191c7" x="51.700781" y="105.84854" style="stroke: #000000; stroke-width: 0.6"/>
      </g>
     </g>
    </g>
    <g id="ytick_52">
     <g id="line2d_72">
      <g>
       <use xlink:href="#m72bc9191c7" x="51.700781" y="103.389221" style="stroke: #000000; stroke-width: 0.6"/>
      </g>
     </g>
    </g>
    <g id="ytick_53">
     <g id="line2d_73">
      <g>
       <use xlink:href="#m72bc9191c7" x="51.700781" y="101.37981" style="stroke: #000000; stroke-width: 0.6"/>
      </g>
     </g>
    </g>
    <g id="ytick_54">
     <g id="line2d_74">
      <g>
       <use xlink:href="#m72bc9191c7" x="51.700781" y="99.680878" style="stroke: #000000; stroke-width: 0.6"/>
      </g>
     </g>
    </g>
    <g id="ytick_55">
     <g id="line2d_75">
      <g>
       <use xlink:href="#m72bc9191c7" x="51.700781" y="98.209196" style="stroke: #000000; stroke-width: 0.6"/>
      </g>
     </g>
    </g>
    <g id="ytick_56">
     <g id="line2d_76">
      <g>
       <use xlink:href="#m72bc9191c7" x="51.700781" y="96.91108" style="stroke: #000000; stroke-width: 0.6"/>
      </g>
     </g>
    </g>
    <g id="ytick_57">
     <g id="line2d_77">
      <g>
       <use xlink:href="#m72bc9191c7" x="51.700781" y="88.110532" style="stroke: #000000; stroke-width: 0.6"/>
      </g>
     </g>
    </g>
    <g id="ytick_58">
     <g id="line2d_78">
      <g>
       <use xlink:href="#m72bc9191c7" x="51.700781" y="83.641802" style="stroke: #000000; stroke-width: 0.6"/>
      </g>
     </g>
    </g>
    <g id="ytick_59">
     <g id="line2d_79">
      <g>
       <use xlink:href="#m72bc9191c7" x="51.700781" y="80.471188" style="stroke: #000000; stroke-width: 0.6"/>
      </g>
     </g>
    </g>
    <g id="ytick_60">
     <g id="line2d_80">
      <g>
       <use xlink:href="#m72bc9191c7" x="51.700781" y="78.011868" style="stroke: #000000; stroke-width: 0.6"/>
      </g>
     </g>
    </g>
    <g id="ytick_61">
     <g id="line2d_81">
      <g>
       <use xlink:href="#m72bc9191c7" x="51.700781" y="76.002458" style="stroke: #000000; stroke-width: 0.6"/>
      </g>
     </g>
    </g>
    <g id="ytick_62">
     <g id="line2d_82">
      <g>
       <use xlink:href="#m72bc9191c7" x="51.700781" y="74.303525" style="stroke: #000000; stroke-width: 0.6"/>
      </g>
     </g>
    </g>
    <g id="ytick_63">
     <g id="line2d_83">
      <g>
       <use xlink:href="#m72bc9191c7" x="51.700781" y="72.831843" style="stroke: #000000; stroke-width: 0.6"/>
      </g>
     </g>
    </g>
    <g id="ytick_64">
     <g id="line2d_84">
      <g>
       <use xlink:href="#m72bc9191c7" x="51.700781" y="71.533728" style="stroke: #000000; stroke-width: 0.6"/>
      </g>
     </g>
    </g>
    <g id="ytick_65">
     <g id="line2d_85">
      <g>
       <use xlink:href="#m72bc9191c7" x="51.700781" y="62.733179" style="stroke: #000000; stroke-width: 0.6"/>
      </g>
     </g>
    </g>
    <g id="ytick_66">
     <g id="line2d_86">
      <g>
       <use xlink:href="#m72bc9191c7" x="51.700781" y="58.264449" style="stroke: #000000; stroke-width: 0.6"/>
      </g>
     </g>
    </g>
    <g id="ytick_67">
     <g id="line2d_87">
      <g>
       <use xlink:href="#m72bc9191c7" x="51.700781" y="55.093835" style="stroke: #000000; stroke-width: 0.6"/>
      </g>
     </g>
    </g>
    <g id="ytick_68">
     <g id="line2d_88">
      <g>
       <use xlink:href="#m72bc9191c7" x="51.700781" y="52.634515" style="stroke: #000000; stroke-width: 0.6"/>
      </g>
     </g>
    </g>
    <g id="ytick_69">
     <g id="line2d_89">
      <g>
       <use xlink:href="#m72bc9191c7" x="51.700781" y="50.625105" style="stroke: #000000; stroke-width: 0.6"/>
      </g>
     </g>
    </g>
    <g id="ytick_70">
     <g id="line2d_90">
      <g>
       <use xlink:href="#m72bc9191c7" x="51.700781" y="48.926173" style="stroke: #000000; stroke-width: 0.6"/>
      </g>
     </g>
    </g>
    <g id="ytick_71">
     <g id="line2d_91">
      <g>
       <use xlink:href="#m72bc9191c7" x="51.700781" y="47.45449" style="stroke: #000000; stroke-width: 0.6"/>
      </g>
     </g>
    </g>
    <g id="ytick_72">
     <g id="line2d_92">
      <g>
       <use xlink:href="#m72bc9191c7" x="51.700781" y="46.156375" style="stroke: #000000; stroke-width: 0.6"/>
      </g>
     </g>
    </g>
    <g id="ytick_73">
     <g id="line2d_93">
      <g>
       <use xlink:href="#m72bc9191c7" x="51.700781" y="37.355826" style="stroke: #000000; stroke-width: 0.6"/>
      </g>
     </g>
    </g>
    <g id="ytick_74">
     <g id="line2d_94">
      <g>
       <use xlink:href="#m72bc9191c7" x="51.700781" y="32.887096" style="stroke: #000000; stroke-width: 0.6"/>
      </g>
     </g>
    </g>
    <g id="ytick_75">
     <g id="line2d_95">
      <g>
       <use xlink:href="#m72bc9191c7" x="51.700781" y="29.716482" style="stroke: #000000; stroke-width: 0.6"/>
      </g>
     </g>
    </g>
    <g id="ytick_76">
     <g id="line2d_96">
      <g>
       <use xlink:href="#m72bc9191c7" x="51.700781" y="27.257162" style="stroke: #000000; stroke-width: 0.6"/>
      </g>
     </g>
    </g>
    <g id="ytick_77">
     <g id="line2d_97">
      <g>
       <use xlink:href="#m72bc9191c7" x="51.700781" y="25.247752" style="stroke: #000000; stroke-width: 0.6"/>
      </g>
     </g>
    </g>
    <g id="ytick_78">
     <g id="line2d_98">
      <g>
       <use xlink:href="#m72bc9191c7" x="51.700781" y="23.54882" style="stroke: #000000; stroke-width: 0.6"/>
      </g>
     </g>
    </g>
    <g id="text_16">
     <!-- PSD (unit²/Hz) -->
     <g transform="translate(14.798438 168.487969) rotate(-90) scale(0.1 -0.1)">
      <defs>
       <path id="DejaVuSans-33" d="M 1259 4147 
L 1259 2394 
L 2053 2394 
Q 2494 2394 2734 2622 
Q 2975 2850 2975 3272 
Q 2975 3691 2734 3919 
Q 2494 4147 2053 4147 
L 1259 4147 
z
M 628 4666 
L 2053 4666 
Q 2838 4666 3239 4311 
Q 3641 3956 3641 3272 
Q 3641 2581 3239 2228 
Q 2838 1875 2053 1875 
L 1259 1875 
L 1259 0 
L 628 0 
L 628 4666 
z
" transform="scale(0.015625)"/>
       <path id="DejaVuSans-36" d="M 3425 4513 
L 3425 3897 
Q 3066 4069 2747 4153 
Q 2428 4238 2131 4238 
Q 1616 4238 1336 4038 
Q 1056 3838 1056 3469 
Q 1056 3159 1242 3001 
Q 1428 2844 1947 2747 
L 2328 2669 
Q 3034 2534 3370 2195 
Q 3706 1856 3706 1288 
Q 3706 609 3251 259 
Q 2797 -91 1919 -91 
Q 1588 -91 1214 -16 
Q 841 59 441 206 
L 441 856 
Q 825 641 1194 531 
Q 1563 422 1919 422 
Q 2459 422 2753 634 
Q 3047 847 3047 1241 
Q 3047 1584 2836 1778 
Q 2625 1972 2144 2069 
L 1759 2144 
Q 1053 2284 737 2584 
Q 422 2884 422 3419 
Q 422 4038 858 4394 
Q 1294 4750 2059 4750 
Q 2388 4750 2728 4690 
Q 3069 4631 3425 4513 
z
" transform="scale(0.015625)"/>
       <path id="DejaVuSans-27" d="M 1259 4147 
L 1259 519 
L 2022 519 
Q 2988 519 3436 956 
Q 3884 1394 3884 2338 
Q 3884 3275 3436 3711 
Q 2988 4147 2022 4147 
L 1259 4147 
z
M 628 4666 
L 1925 4666 
Q 3281 4666 3915 4102 
Q 4550 3538 4550 2338 
Q 4550 1131 3912 565 
Q 3275 0 1925 0 
L 628 0 
L 628 4666 
z
" transform="scale(0.015625)"/>
       <path id="DejaVuSans-4c" d="M 603 3500 
L 1178 3500 
L 1178 0 
L 603 0 
L 603 3500 
z
M 603 4863 
L 1178 4863 
L 1178 4134 
L 603 4134 
L 603 4863 
z
" transform="scale(0.015625)"/>
       <path id="DejaVuSans-57" d="M 1172 4494 
L 1172 3500 
L 2356 3500 
L 2356 3053 
L 1172 3053 
L 1172 1153 
Q 1172 725 1289 603 
Q 1406 481 1766 481 
L 2356 481 
L 2356 0 
L 1766 0 
Q 1100 0 847 248 
Q 594 497 594 1153 
L 594 3053 
L 172 3053 
L 172 3500 
L 594 3500 
L 594 4494 
L 1172 4494 
z
" transform="scale(0.015625)"/>
       <path id="DejaVuSans-74" d="M 838 2444 
L 2163 2444 
L 2163 2088 
L 294 2088 
L 294 2431 
Q 400 2528 597 2703 
Q 1672 3656 1672 3950 
Q 1672 4156 1509 4282 
Q 1347 4409 1081 4409 
Q 919 4409 728 4354 
Q 538 4300 313 4191 
L 313 4575 
Q 553 4663 761 4706 
Q 969 4750 1147 4750 
Q 1600 4750 1872 4544 
Q 2144 4338 2144 4000 
Q 2144 3566 1109 2678 
Q 934 2528 838 2444 
z
" transform="scale(0.015625)"/>
       <path id="DejaVuSans-12" d="M 1625 4666 
L 2156 4666 
L 531 -594 
L 0 -594 
L 1625 4666 
z
" transform="scale(0.015625)"/>
      </defs>
      <use xlink:href="#DejaVuSans-33"/>
      <use xlink:href="#DejaVuSans-36" transform="translate(60.296875 0)"/>
      <use xlink:href="#DejaVuSans-27" transform="translate(123.78125 0)"/>
      <use xlink:href="#DejaVuSans-3" transform="translate(200.78125 0)"/>
      <use xlink:href="#DejaVuSans-b" transform="translate(232.5625 0)"/>
      <use xlink:href="#DejaVuSans-58" transform="translate(271.578125 0)"/>
      <use xlink:href="#DejaVuSans-51" transform="translate(334.953125 0)"/>
      <use xlink:href="#DejaVuSans-4c" transform="translate(398.328125 0)"/>
      <use xlink:href="#DejaVuSans-57" transform="translate(426.109375 0)"/>
      <use xlink:href="#DejaVuSans-74" transform="translate(465.3125 0)"/>
      <use xlink:href="#DejaVuSans-12" transform="translate(505.40625 0)"/>
      <use xlink:href="#DejaVuSans-2b" transform="translate(539.09375 0)"/>
      <use xlink:href="#DejaVuSans-5d" transform="translate(614.296875 0)"/>
      <use xlink:href="#DejaVuSans-c" transform="translate(666.78125 0)"/>
     </g>
    </g>
   </g>
   <g id="line2d_99">
    <path d="M 74.528054 125.608051 
L 76.311435 106.591945 
L 78.094815 106.511854 
L 79.878196 124.378642 
L 81.661577 132.687822 
L 83.444957 131.074998 
L 85.228338 126.805052 
L 87.011719 120.304679 
L 88.795099 113.12189 
L 90.57848 123.046365 
L 92.361861 129.780818 
L 94.145241 118.459907 
L 95.928622 136.462999 
L 97.712003 130.370686 
L 99.495384 129.194604 
L 101.278764 140.250731 
L 103.062145 130.00738 
L 104.845526 140.687287 
L 106.628906 138.223197 
L 110.195668 75.731644 
L 111.979048 77.110946 
L 113.762429 117.519837 
L 115.54581 129.278111 
L 117.32919 113.914688 
L 119.112571 117.856581 
L 120.895952 106.673456 
L 122.679332 104.674141 
L 124.462713 111.735365 
L 126.246094 115.715856 
L 128.029474 133.769694 
L 129.812855 134.592902 
L 131.596236 134.34984 
L 133.379616 142.585839 
L 135.162997 138.163146 
L 136.946378 148.573057 
L 138.729759 123.137927 
L 140.513139 112.070172 
L 142.29652 115.24964 
L 144.079901 126.617716 
L 145.863281 114.970654 
L 147.646662 129.372451 
L 149.430043 134.239165 
L 151.213423 122.836923 
L 152.996804 109.401636 
L 154.780185 109.114808 
L 156.563565 120.655615 
L 158.346946 122.185358 
L 160.130327 149.462881 
L 161.913707 136.912408 
L 163.697088 136.200671 
L 165.480469 140.980478 
L 167.263849 140.965822 
L 169.04723 162.242289 
L 170.830611 126.612911 
L 172.613991 132.278067 
L 174.397372 114.689362 
L 176.180753 106.4965 
L 177.964134 110.083515 
L 179.747514 106.721121 
L 181.530895 117.04961 
L 183.314276 128.495145 
L 185.097656 152.205147 
L 186.881037 124.001908 
L 188.664418 111.313284 
L 190.447798 118.41598 
L 192.231179 132.199247 
L 194.01456 144.854061 
L 195.79794 119.168081 
L 197.581321 116.606994 
L 199.364702 140.263982 
L 201.148082 142.414084 
L 202.931463 136.232089 
L 204.714844 132.859687 
L 206.498224 164.716341 
L 208.281605 138.030652 
L 210.064986 143.930973 
L 211.848366 123.448783 
L 213.631747 125.11791 
L 215.415128 116.03243 
L 217.198509 118.881237 
L 218.981889 153.515109 
L 220.76527 131.005016 
L 222.548651 173.083632 
L 224.332031 147.877373 
L 226.115412 131.839995 
L 227.898793 125.831945 
L 229.682173 116.138311 
L 231.465554 108.221545 
L 233.248935 109.696002 
L 235.032315 140.468032 
L 236.815696 126.919972 
L 238.599077 159.377748 
L 240.382457 119.363525 
L 242.165838 143.055088 
L 243.949219 109.443483 
L 245.732599 105.936593 
L 247.51598 132.679579 
L 249.299361 118.471508 
L 251.082741 103.208316 
L 252.866122 100.94699 
L 254.649503 109.061468 
L 256.432884 132.412794 
L 258.216264 143.502126 
L 259.999645 118.065446 
L 261.783026 109.479129 
L 263.566406 126.474242 
L 265.349787 125.715601 
L 267.133168 111.198499 
L 268.916548 103.111348 
L 270.699929 117.049406 
L 272.48331 125.911985 
L 274.26669 122.24996 
L 276.050071 115.320863 
L 277.833452 115.536356 
L 279.616832 108.170781 
L 281.400213 104.182586 
L 283.183594 104.660423 
L 284.966974 108.525493 
L 286.750355 123.683264 
L 288.533736 116.042242 
L 290.317116 105.984769 
L 292.100497 113.819647 
L 293.883878 113.549183 
L 295.667259 110.743359 
L 297.450639 112.864563 
L 299.23402 128.864067 
L 301.017401 122.150876 
L 302.800781 108.566233 
L 304.584162 106.28061 
L 306.367543 98.782312 
L 308.150923 105.100579 
L 309.934304 109.711462 
L 311.717685 118.005091 
L 313.501065 142.48306 
L 315.284446 117.829824 
L 317.067827 105.373686 
L 318.851207 120.320781 
L 320.634588 117.571673 
L 322.417969 115.596536 
L 324.201349 106.993063 
L 325.98473 110.327378 
L 327.768111 111.693685 
L 329.551491 107.157759 
L 331.334872 106.275085 
L 333.118253 121.65815 
L 334.901634 120.677293 
L 336.685014 112.903417 
L 338.468395 108.374108 
L 340.251776 115.486284 
L 342.035156 106.785088 
L 343.818537 100.798312 
L 345.601918 102.205272 
L 347.385298 116.133041 
L 349.168679 123.998117 
L 350.95206 134.294142 
L 352.73544 106.515575 
L 354.518821 101.142315 
L 356.302202 100.72028 
L 358.085582 106.045202 
L 359.868963 101.429872 
L 361.652344 153.394581 
L 363.435724 101.380612 
L 365.219105 43.364099 
L 367.002486 32.398125 
L 368.785866 51.735832 
L 370.569247 102.719177 
L 372.352628 104.245802 
L 374.136009 111.462518 
L 375.919389 106.314304 
L 377.70277 103.424504 
L 379.486151 101.407157 
L 381.269531 122.770809 
L 383.052912 108.625888 
L 384.836293 107.022161 
L 386.619673 118.116228 
L 388.403054 114.032254 
L 390.186435 114.880217 
L 391.969815 125.780284 
L 393.753196 121.438545 
L 395.536577 115.55863 
L 397.319957 113.927676 
L 399.103338 103.66465 
L 400.886719 100.73221 
L 402.670099 100.550349 
L 404.45348 120.33834 
L 406.236861 97.477549 
L 408.020241 100.650728 
L 409.803622 123.656227 
L 411.587003 128.362852 
L 413.370384 130.96715 
L 415.153764 143.955322 
L 416.937145 110.921895 
L 418.720526 110.380805 
L 420.503906 114.566251 
L 422.287287 131.172724 
L 424.070668 128.52506 
L 425.854048 110.503024 
L 427.637429 99.262435 
L 429.42081 96.024783 
L 431.20419 101.564679 
L 432.987571 116.693735 
L 434.770952 138.499348 
L 436.554332 137.801494 
L 438.337713 121.140898 
L 440.121094 114.964482 
L 441.904474 149.651851 
L 443.687855 127.071314 
L 445.471236 106.626162 
L 447.254616 112.685549 
L 449.037997 104.762488 
L 450.821378 101.526595 
L 452.604759 106.406523 
L 454.388139 103.981884 
L 456.17152 98.861269 
L 457.954901 105.622028 
L 459.738281 136.20592 
L 461.521662 111.256976 
L 463.305043 108.120264 
L 465.088423 112.682425 
L 466.871804 98.659408 
L 468.655185 93.384049 
L 470.438565 94.33611 
L 472.221946 103.07768 
L 474.005327 128.907604 
L 475.788707 102.848404 
L 477.572088 116.078753 
L 479.355469 133.463153 
L 481.138849 119.961829 
L 482.92223 126.400431 
L 484.705611 129.892926 
L 486.488991 113.166465 
L 488.272372 111.49798 
L 490.055753 108.400156 
L 491.839134 115.232269 
L 495.405895 127.337933 
L 497.189276 137.924446 
L 498.972656 127.004044 
L 500.756037 140.543194 
L 502.539418 110.042222 
L 504.322798 104.272826 
L 506.106179 106.779789 
L 507.88956 104.007667 
L 509.67294 116.200039 
L 511.456321 146.103154 
L 513.239702 127.674611 
L 515.023082 163.719162 
L 516.806463 108.768039 
L 518.589844 110.468421 
L 520.373224 118.050579 
L 522.156605 134.614318 
L 523.939986 163.94048 
L 525.723366 157.668881 
L 527.506747 153.575703 
L 529.290128 165.975315 
L 531.073509 185.130096 
L 531.073509 185.130096 
" clip-path="url(#p8dd354644e)" style="fill: none; stroke: #1f77b4; stroke-width: 1.5; stroke-linecap: square"/>
   </g>
   <g id="line2d_100">
    <path d="M 74.528054 125.951092 
L 76.311435 106.676493 
L 78.094815 106.526468 
L 79.878196 124.506351 
L 81.661577 132.588378 
L 83.444957 131.463612 
L 85.228338 126.869106 
L 88.795099 113.512927 
L 90.57848 123.254782 
L 92.361861 131.502078 
L 94.145241 119.27184 
L 95.928622 139.310384 
L 97.712003 129.701951 
L 99.495384 129.682896 
L 101.278764 140.3533 
L 103.062145 128.454894 
L 104.845526 137.668568 
L 106.628906 136.783772 
L 110.195668 75.838937 
L 111.979048 77.265114 
L 113.762429 116.885133 
L 115.54581 123.403323 
L 117.32919 112.191493 
L 119.112571 119.993018 
L 120.895952 107.341097 
L 122.679332 102.387874 
L 126.246094 110.298625 
L 128.029474 127.727718 
L 129.812855 134.253023 
L 131.596236 124.346438 
L 133.379616 128.793866 
L 135.162997 149.952118 
L 136.946378 91.768902 
L 138.729759 79.233037 
L 140.513139 96.448858 
L 142.29652 115.537595 
L 144.079901 127.323945 
L 145.863281 113.358668 
L 149.430043 147.175136 
L 151.213423 125.921829 
L 152.996804 110.960094 
L 154.780185 110.443961 
L 156.563565 140.228098 
L 158.346946 135.308618 
L 160.130327 135.352246 
L 161.913707 124.54355 
L 165.480469 141.704683 
L 167.263849 138.06935 
L 169.04723 140.817258 
L 170.830611 141.371504 
L 172.613991 125.656999 
L 174.397372 122.742265 
L 176.180753 123.01961 
L 177.964134 119.516018 
L 179.747514 108.398448 
L 181.530895 117.744746 
L 183.314276 134.190634 
L 185.097656 183.596257 
L 186.881037 128.726518 
L 188.664418 116.436809 
L 190.447798 129.340472 
L 192.231179 198.522234 
L 194.01456 137.500026 
L 195.79794 122.078369 
L 197.581321 113.001049 
L 199.364702 124.546173 
L 201.148082 129.738678 
L 202.931463 130.14694 
L 204.714844 133.897934 
L 206.498224 150.076408 
L 208.281605 152.650927 
L 210.064986 149.165529 
L 211.848366 154.416308 
L 213.631747 147.156596 
L 215.415128 137.541912 
L 217.198509 148.740425 
L 218.981889 150.806236 
L 220.76527 159.331253 
L 222.548651 128.674064 
L 224.332031 129.456749 
L 226.115412 144.689613 
L 227.898793 165.690151 
L 229.682173 155.234543 
L 231.465554 137.286423 
L 233.248935 151.660191 
L 235.032315 142.384819 
L 238.599077 107.723118 
L 240.382457 120.130264 
L 242.165838 186.596854 
L 243.949219 161.769242 
L 245.732599 155.449823 
L 247.51598 172.973924 
L 249.299361 167.426949 
L 251.082741 149.692166 
L 252.866122 146.444783 
L 254.649503 143.749179 
L 256.432884 148.502784 
L 258.216264 162.452354 
L 259.999645 160.021582 
L 261.783026 173.508289 
L 263.566406 170.001763 
L 265.349787 130.713246 
L 267.133168 129.034717 
L 268.916548 158.695837 
L 270.699929 196.956032 
L 272.48331 210.117565 
L 274.26669 183.674303 
L 276.050071 201.960138 
L 277.833452 218.439619 
L 279.616832 191.540724 
L 281.400213 213.028187 
L 283.183594 215.187922 
L 284.966974 218.516323 
L 286.750355 228.03624 
L 288.533736 233.998125 
L 290.317116 210.234155 
L 292.100497 210.353838 
L 293.883878 210.178836 
L 295.667259 203.696716 
L 297.450639 204.145743 
L 299.23402 203.641331 
L 302.800781 204.512179 
L 304.584162 204.864349 
L 306.367543 205.335024 
L 308.150923 204.844178 
L 309.934304 205.196746 
L 311.717685 200.262446 
L 313.501065 200.208254 
L 315.284446 197.588023 
L 317.067827 192.729256 
L 318.851207 194.302278 
L 320.634588 195.300694 
L 322.417969 189.595951 
L 324.201349 197.216994 
L 325.98473 208.71773 
L 327.768111 189.400787 
L 329.551491 198.884892 
L 331.334872 217.000455 
L 333.118253 189.637329 
L 334.901634 194.452417 
L 336.685014 171.487422 
L 338.468395 139.352912 
L 340.251776 140.625185 
L 342.035156 178.451072 
L 343.818537 173.476805 
L 345.601918 166.613212 
L 347.385298 180.719449 
L 349.168679 162.939622 
L 350.95206 155.1742 
L 352.73544 155.922732 
L 354.518821 157.192797 
L 356.302202 170.873341 
L 358.085582 176.907223 
L 359.868963 176.346245 
L 361.652344 174.706964 
L 363.435724 183.566299 
L 365.219105 134.385515 
L 367.002486 122.169946 
L 370.569247 154.625913 
L 372.352628 164.452563 
L 374.136009 152.181488 
L 375.919389 165.777104 
L 377.70277 199.360863 
L 379.486151 166.982286 
L 381.269531 149.16363 
L 383.052912 147.296101 
L 384.836293 170.472815 
L 386.619673 177.932505 
L 388.403054 177.407757 
L 390.186435 162.163129 
L 391.969815 163.687155 
L 393.753196 174.963353 
L 395.536577 167.148379 
L 397.319957 170.784484 
L 399.103338 170.100026 
L 400.886719 156.097844 
L 402.670099 153.111708 
L 404.45348 152.91492 
L 406.236861 149.848028 
L 408.020241 138.911914 
L 409.803622 147.585989 
L 411.587003 162.23756 
L 413.370384 192.064774 
L 415.153764 156.436566 
L 416.937145 148.070122 
L 418.720526 163.761674 
L 420.503906 204.740807 
L 422.287287 173.615921 
L 424.070668 154.243793 
L 425.854048 143.135586 
L 427.637429 153.324846 
L 429.42081 159.399805 
L 431.20419 158.998651 
L 432.987571 161.983183 
L 434.770952 174.485632 
L 436.554332 194.739644 
L 438.337713 187.130352 
L 440.121094 193.185917 
L 441.904474 174.734374 
L 443.687855 161.274856 
L 445.471236 174.921848 
L 447.254616 177.440519 
L 449.037997 194.57891 
L 450.821378 154.229589 
L 452.604759 154.112109 
L 454.388139 166.50614 
L 456.17152 186.991031 
L 457.954901 182.182611 
L 459.738281 162.373952 
L 461.521662 174.394795 
L 463.305043 171.492205 
L 466.871804 135.169971 
L 468.655185 146.275373 
L 470.438565 210.655688 
L 472.221946 177.729876 
L 474.005327 174.859681 
L 475.788707 185.663914 
L 477.572088 187.80986 
L 479.355469 175.776272 
L 481.138849 167.968557 
L 482.92223 164.627334 
L 484.705611 168.869116 
L 486.488991 188.507925 
L 488.272372 204.932107 
L 490.055753 205.757212 
L 491.839134 181.594001 
L 493.622514 153.9547 
L 495.405895 154.323612 
L 497.189276 189.420662 
L 498.972656 204.043474 
L 500.756037 194.339201 
L 502.539418 191.137893 
L 504.322798 200.88799 
L 506.106179 195.193136 
L 507.88956 192.494979 
L 509.67294 198.983793 
L 511.456321 194.385192 
L 513.239702 195.598897 
L 515.023082 197.885557 
L 516.806463 196.235263 
L 518.589844 194.947985 
L 520.373224 196.868805 
L 522.156605 196.556431 
L 523.939986 196.869705 
L 525.723366 197.000188 
L 527.506747 196.893777 
L 529.290128 196.958232 
L 531.073509 204.595556 
L 531.073509 204.595556 
" clip-path="url(#p8dd354644e)" style="fill: none; stroke: #ff7f0e; stroke-width: 1.5; stroke-linecap: square"/>
   </g>
   <g id="patch_4">
    <path d="M 51.700781 244.078125 
L 51.700781 22.318125 
" style="fill: none; stroke: #000000; stroke-width: 0.8; stroke-linejoin: miter; stroke-linecap: square"/>
   </g>
   <g id="patch_5">
    <path d="M 553.900781 244.078125 
L 553.900781 22.318125 
" style="fill: none; stroke: #000000; stroke-width: 0.8; stroke-linejoin: miter; stroke-linecap: square"/>
   </g>
   <g id="patch_6">
    <path d="M 51.700781 244.078125 
L 553.900781 244.078125 
" style="fill: none; stroke: #000000; stroke-width: 0.8; stroke-linejoin: miter; stroke-linecap: square"/>
   </g>
   <g id="patch_7">
    <path d="M 51.700781 22.318125 
L 553.900781 22.318125 
" style="fill: none; stroke: #000000; stroke-width: 0.8; stroke-linejoin: miter; stroke-linecap: square"/>
   </g>
   <g id="text_17">
    <!-- Wavelet denoising PSD comparison -->
    <g transform="translate(196.774219 16.318125) scale(0.12 -0.12)">
     <defs>
      <path id="DejaVuSans-3a" d="M 213 4666 
L 850 4666 
L 1831 722 
L 2809 4666 
L 3519 4666 
L 4500 722 
L 5478 4666 
L 6119 4666 
L 4947 0 
L 4153 0 
L 3169 4050 
L 2175 0 
L 1381 0 
L 213 4666 
z
" transform="scale(0.015625)"/>
      <path id="DejaVuSans-44" d="M 2194 1759 
Q 1497 1759 1228 1600 
Q 959 1441 959 1056 
Q 959 750 1161 570 
Q 1363 391 1709 391 
Q 2188 391 2477 730 
Q 2766 1069 2766 1631 
L 2766 1759 
L 2194 1759 
z
M 3341 1997 
L 3341 0 
L 2766 0 
L 2766 531 
Q 2569 213 2275 61 
Q 1981 -91 1556 -91 
Q 1019 -91 701 211 
Q 384 513 384 1019 
Q 384 1609 779 1909 
Q 1175 2209 1959 2209 
L 2766 2209 
L 2766 2266 
Q 2766 2663 2505 2880 
Q 2244 3097 1772 3097 
Q 1472 3097 1187 3025 
Q 903 2953 641 2809 
L 641 3341 
Q 956 3463 1253 3523 
Q 1550 3584 1831 3584 
Q 2591 3584 2966 3190 
Q 3341 2797 3341 1997 
z
" transform="scale(0.015625)"/>
      <path id="DejaVuSans-59" d="M 191 3500 
L 800 3500 
L 1894 563 
L 2988 3500 
L 3597 3500 
L 2284 0 
L 1503 0 
L 191 3500 
z
" transform="scale(0.015625)"/>
      <path id="DejaVuSans-4f" d="M 603 4863 
L 1178 4863 
L 1178 0 
L 603 0 
L 603 4863 
z
" transform="scale(0.015625)"/>
      <path id="DejaVuSans-47" d="M 2906 2969 
L 2906 4863 
L 3481 4863 
L 3481 0 
L 2906 0 
L 2906 525 
Q 2725 213 2448 61 
Q 2172 -91 1784 -91 
Q 1150 -91 751 415 
Q 353 922 353 1747 
Q 353 2572 751 3078 
Q 1150 3584 1784 3584 
Q 2172 3584 2448 3432 
Q 2725 3281 2906 2969 
z
M 947 1747 
Q 947 1113 1208 752 
Q 1469 391 1925 391 
Q 2381 391 2643 752 
Q 2906 1113 2906 1747 
Q 2906 2381 2643 2742 
Q 2381 3103 1925 3103 
Q 1469 3103 1208 2742 
Q 947 2381 947 1747 
z
" transform="scale(0.015625)"/>
      <path id="DejaVuSans-52" d="M 1959 3097 
Q 1497 3097 1228 2736 
Q 959 2375 959 1747 
Q 959 1119 1226 758 
Q 1494 397 1959 397 
Q 2419 397 2687 759 
Q 2956 1122 2956 1747 
Q 2956 2369 2687 2733 
Q 2419 3097 1959 3097 
z
M 1959 3584 
Q 2709 3584 3137 3096 
Q 3566 2609 3566 1747 
Q 3566 888 3137 398 
Q 2709 -91 1959 -91 
Q 1206 -91 779 398 
Q 353 888 353 1747 
Q 353 2609 779 3096 
Q 1206 3584 1959 3584 
z
" transform="scale(0.015625)"/>
      <path id="DejaVuSans-56" d="M 2834 3397 
L 2834 2853 
Q 2591 2978 2328 3040 
Q 2066 3103 1784 3103 
Q 1356 3103 1142 2972 
Q 928 2841 928 2578 
Q 928 2378 1081 2264 
Q 1234 2150 1697 2047 
L 1894 2003 
Q 2506 1872 2764 1633 
Q 3022 1394 3022 966 
Q 3022 478 2636 193 
Q 2250 -91 1575 -91 
Q 1294 -91 989 -36 
Q 684 19 347 128 
L 347 722 
Q 666 556 975 473 
Q 1284 391 1588 391 
Q 1994 391 2212 530 
Q 2431 669 2431 922 
Q 2431 1156 2273 1281 
Q 2116 1406 1581 1522 
L 1381 1569 
Q 847 1681 609 1914 
Q 372 2147 372 2553 
Q 372 3047 722 3315 
Q 1072 3584 1716 3584 
Q 2034 3584 2315 3537 
Q 2597 3491 2834 3397 
z
" transform="scale(0.015625)"/>
      <path id="DejaVuSans-4a" d="M 2906 1791 
Q 2906 2416 2648 2759 
Q 2391 3103 1925 3103 
Q 1463 3103 1205 2759 
Q 947 2416 947 1791 
Q 947 1169 1205 825 
Q 1463 481 1925 481 
Q 2391 481 2648 825 
Q 2906 1169 2906 1791 
z
M 3481 434 
Q 3481 -459 3084 -895 
Q 2688 -1331 1869 -1331 
Q 1566 -1331 1297 -1286 
Q 1028 -1241 775 -1147 
L 775 -588 
Q 1028 -725 1275 -790 
Q 1522 -856 1778 -856 
Q 2344 -856 2625 -561 
Q 2906 -266 2906 331 
L 2906 616 
Q 2728 306 2450 153 
Q 2172 0 1784 0 
Q 1141 0 747 490 
Q 353 981 353 1791 
Q 353 2603 747 3093 
Q 1141 3584 1784 3584 
Q 2172 3584 2450 3431 
Q 2728 3278 2906 2969 
L 2906 3500 
L 3481 3500 
L 3481 434 
z
" transform="scale(0.015625)"/>
      <path id="DejaVuSans-50" d="M 3328 2828 
Q 3544 3216 3844 3400 
Q 4144 3584 4550 3584 
Q 5097 3584 5394 3201 
Q 5691 2819 5691 2113 
L 5691 0 
L 5113 0 
L 5113 2094 
Q 5113 2597 4934 2840 
Q 4756 3084 4391 3084 
Q 3944 3084 3684 2787 
Q 3425 2491 3425 1978 
L 3425 0 
L 2847 0 
L 2847 2094 
Q 2847 2600 2669 2842 
Q 2491 3084 2119 3084 
Q 1678 3084 1418 2786 
Q 1159 2488 1159 1978 
L 1159 0 
L 581 0 
L 581 3500 
L 1159 3500 
L 1159 2956 
Q 1356 3278 1631 3431 
Q 1906 3584 2284 3584 
Q 2666 3584 2933 3390 
Q 3200 3197 3328 2828 
z
" transform="scale(0.015625)"/>
      <path id="DejaVuSans-53" d="M 1159 525 
L 1159 -1331 
L 581 -1331 
L 581 3500 
L 1159 3500 
L 1159 2969 
Q 1341 3281 1617 3432 
Q 1894 3584 2278 3584 
Q 2916 3584 3314 3078 
Q 3713 2572 3713 1747 
Q 3713 922 3314 415 
Q 2916 -91 2278 -91 
Q 1894 -91 1617 61 
Q 1341 213 1159 525 
z
M 3116 1747 
Q 3116 2381 2855 2742 
Q 2594 3103 2138 3103 
Q 1681 3103 1420 2742 
Q 1159 2381 1159 1747 
Q 1159 1113 1420 752 
Q 1681 391 2138 391 
Q 2594 391 2855 752 
Q 3116 1113 3116 1747 
z
" transform="scale(0.015625)"/>
     </defs>
     <use xlink:href="#DejaVuSans-3a"/>
     <use xlink:href="#DejaVuSans-44" transform="translate(92.484375 0)"/>
     <use xlink:href="#DejaVuSans-59" transform="translate(153.765625 0)"/>
     <use xlink:href="#DejaVuSans-48" transform="translate(212.953125 0)"/>
     <use xlink:href="#DejaVuSans-4f" transform="translate(274.484375 0)"/>
     <use xlink:href="#DejaVuSans-48" transform="translate(302.265625 0)"/>
     <use xlink:href="#DejaVuSans-57" transform="translate(363.796875 0)"/>
     <use xlink:href="#DejaVuSans-3" transform="translate(403 0)"/>
     <use xlink:href="#DejaVuSans-47" transform="translate(434.78125 0)"/>
     <use xlink:href="#DejaVuSans-48" transform="translate(498.265625 0)"/>
     <use xlink:href="#DejaVuSans-51" transform="translate(559.796875 0)"/>
     <use xlink:href="#DejaVuSans-52" transform="translate(623.171875 0)"/>
     <use xlink:href="#DejaVuSans-4c" transform="translate(684.359375 0)"/>
     <use xlink:href="#DejaVuSans-56" transform="translate(712.140625 0)"/>
     <use xlink:href="#DejaVuSans-4c" transform="translate(764.234375 0)"/>
     <use xlink:href="#DejaVuSans-51" transform="translate(792.015625 0)"/>
     <use xlink:href="#DejaVuSans-4a" transform="translate(855.390625 0)"/>
     <use xlink:href="#DejaVuSans-3" transform="translate(918.875 0)"/>
     <use xlink:href="#DejaVuSans-33" transform="translate(950.65625 0)"/>
     <use xlink:href="#DejaVuSans-36" transform="translate(1010.953125 0)"/>
     <use xlink:href="#DejaVuSans-27" transform="translate(1074.4375 0)"/>
     <use xlink:href="#DejaVuSans-3" transform="translate(1151.4375 0)"/>
     <use xlink:href="#DejaVuSans-46" transform="translate(1183.21875 0)"/>
     <use xlink:href="#DejaVuSans-52" transform="translate(1238.203125 0)"/>
     <use xlink:href="#DejaVuSans-50" transform="translate(1299.390625 0)"/>
     <use xlink:href="#DejaVuSans-53" transform="translate(1396.796875 0)"/>
     <use xlink:href="#DejaVuSans-44" transform="translate(1460.28125 0)"/>
     <use xlink:href="#DejaVuSans-55" transform="translate(1521.5625 0)"/>
     <use xlink:href="#DejaVuSans-4c" transform="translate(1562.671875 0)"/>
     <use xlink:href="#DejaVuSans-56" transform="translate(1590.453125 0)"/>
     <use xlink:href="#DejaVuSans-52" transform="translate(1642.546875 0)"/>
     <use xlink:href="#DejaVuSans-51" transform="translate(1703.734375 0)"/>
    </g>
   </g>
   <g id="legend_1">
    <g id="patch_8">
     <path d="M 449.007031 75.320469 
L 546.900781 75.320469 
Q 548.900781 75.320469 548.900781 73.320469 
L 548.900781 29.318125 
Q 548.900781 27.318125 546.900781 27.318125 
L 449.007031 27.318125 
Q 447.007031 27.318125 447.007031 29.318125 
L 447.007031 73.320469 
Q 447.007031 75.320469 449.007031 75.320469 
z
" style="fill: #ffffff; opacity: 0.8; stroke: #cccccc; stroke-linejoin: miter"/>
    </g>
    <g id="line2d_101">
     <path d="M 451.007031 35.416562 
L 461.007031 35.416562 
L 471.007031 35.416562 
" style="fill: none; stroke: #1f77b4; stroke-width: 1.5; stroke-linecap: square"/>
    </g>
    <g id="text_18">
     <!-- Weighted -->
     <g transform="translate(479.007031 38.916562) scale(0.1 -0.1)">
      <defs>
       <path id="DejaVuSans-4b" d="M 3513 2113 
L 3513 0 
L 2938 0 
L 2938 2094 
Q 2938 2591 2744 2837 
Q 2550 3084 2163 3084 
Q 1697 3084 1428 2787 
Q 1159 2491 1159 1978 
L 1159 0 
L 581 0 
L 581 4863 
L 1159 4863 
L 1159 2956 
Q 1366 3272 1645 3428 
Q 1925 3584 2291 3584 
Q 2894 3584 3203 3211 
Q 3513 2838 3513 2113 
z
" transform="scale(0.015625)"/>
      </defs>
      <use xlink:href="#DejaVuSans-3a"/>
      <use xlink:href="#DejaVuSans-48" transform="translate(93.015625 0)"/>
      <use xlink:href="#DejaVuSans-4c" transform="translate(154.546875 0)"/>
      <use xlink:href="#DejaVuSans-4a" transform="translate(182.328125 0)"/>
      <use xlink:href="#DejaVuSans-4b" transform="translate(245.8125 0)"/>
      <use xlink:href="#DejaVuSans-57" transform="translate(309.1875 0)"/>
      <use xlink:href="#DejaVuSans-48" transform="translate(348.390625 0)"/>
      <use xlink:href="#DejaVuSans-47" transform="translate(409.921875 0)"/>
     </g>
    </g>
    <g id="line2d_102">
     <path d="M 451.007031 50.417344 
L 461.007031 50.417344 
L 471.007031 50.417344 
" style="fill: none; stroke: #ff7f0e; stroke-width: 1.5; stroke-linecap: square"/>
    </g>
    <g id="text_19">
     <!-- Denoised -->
     <g transform="translate(479.007031 53.917344) scale(0.1 -0.1)">
      <use xlink:href="#DejaVuSans-27"/>
      <use xlink:href="#DejaVuSans-48" transform="translate(77 0)"/>
      <use xlink:href="#DejaVuSans-51" transform="translate(138.53125 0)"/>
      <use xlink:href="#DejaVuSans-52" transform="translate(201.90625 0)"/>
      <use xlink:href="#DejaVuSans-4c" transform="translate(263.09375 0)"/>
      <use xlink:href="#DejaVuSans-56" transform="translate(290.875 0)"/>
      <use xlink:href="#DejaVuSans-48" transform="translate(342.96875 0)"/>
      <use xlink:href="#DejaVuSans-47" transform="translate(404.5 0)"/>
     </g>
    </g>
    <g id="patch_9">
     <path d="M 451.007031 68.918125 
L 471.007031 68.918125 
L 471.007031 61.918125 
L 451.007031 61.918125 
z
" style="fill: #dc143c; opacity: 0.15; stroke: #dc143c; stroke-linejoin: miter"/>
    </g>
    <g id="text_20">
     <!-- Chatter band -->
     <g transform="translate(479.007031 68.918125) scale(0.1 -0.1)">
      <defs>
       <path id="DejaVuSans-26" d="M 4122 4306 
L 4122 3641 
Q 3803 3938 3442 4084 
Q 3081 4231 2675 4231 
Q 1875 4231 1450 3742 
Q 1025 3253 1025 2328 
Q 1025 1406 1450 917 
Q 1875 428 2675 428 
Q 3081 428 3442 575 
Q 3803 722 4122 1019 
L 4122 359 
Q 3791 134 3420 21 
Q 3050 -91 2638 -91 
Q 1578 -91 968 557 
Q 359 1206 359 2328 
Q 359 3453 968 4101 
Q 1578 4750 2638 4750 
Q 3056 4750 3426 4639 
Q 3797 4528 4122 4306 
z
" transform="scale(0.015625)"/>
       <path id="DejaVuSans-45" d="M 3116 1747 
Q 3116 2381 2855 2742 
Q 2594 3103 2138 3103 
Q 1681 3103 1420 2742 
Q 1159 2381 1159 1747 
Q 1159 1113 1420 752 
Q 1681 391 2138 391 
Q 2594 391 2855 752 
Q 3116 1113 3116 1747 
z
M 1159 2969 
Q 1341 3281 1617 3432 
Q 1894 3584 2278 3584 
Q 2916 3584 3314 3078 
Q 3713 2572 3713 1747 
Q 3713 922 3314 415 
Q 2916 -91 2278 -91 
Q 1894 -91 1617 61 
Q 1341 213 1159 525 
L 1159 0 
L 581 0 
L 581 4863 
L 1159 4863 
L 1159 2969 
z
" transform="scale(0.015625)"/>
      </defs>
      <use xlink:href="#DejaVuSans-26"/>
      <use xlink:href="#DejaVuSans-4b" transform="translate(69.828125 0)"/>
      <use xlink:href="#DejaVuSans-44" transform="translate(133.203125 0)"/>
      <use xlink:href="#DejaVuSans-57" transform="translate(194.484375 0)"/>
      <use xlink:href="#DejaVuSans-57" transform="translate(233.6875 0)"/>
      <use xlink:href="#DejaVuSans-48" transform="translate(272.890625 0)"/>
      <use xlink:href="#DejaVuSans-55" transform="translate(334.421875 0)"/>
      <use xlink:href="#DejaVuSans-3" transform="translate(375.53125 0)"/>
      <use xlink:href="#DejaVuSans-45" transform="translate(407.3125 0)"/>
      <use xlink:href="#DejaVuSans-44" transform="translate(470.796875 0)"/>
      <use xlink:href="#DejaVuSans-51" transform="translate(532.078125 0)"/>
      <use xlink:href="#DejaVuSans-47" transform="translate(595.453125 0)"/>
     </g>
    </g>
   </g>
  </g>
 </g>
 <defs>
  <clipPath id="p8dd354644e">
   <rect x="51.700781" y="22.318125" width="502.2" height="221.76"/>
  </clipPath>
 </defs>
</svg>
