<?xml version="1.0" encoding="utf-8" standalone="no"?>
<!DOCTYPE svg PUBLIC "-//W3C//DTD SVG 1.1//EN"
  "http://www.w3.org/Graphics/SVG/1.1/DTD/svg11.dtd">
<svg xmlns:xlink="http://www.w3.org/1999/xlink" width="617.683594pt" height="260.102906pt" viewBox="0 0 617.683594 260.102906" xmlns="http://www.w3.org/2000/svg" version="1.1">
 <metadata>
  <rdf:RDF xmlns:dc="http://purl.org/dc/elements/1.1/" xmlns:cc="http://creativecommons.org/ns#" xmlns:rdf="http://www.w3.org/1999/02/22-rdf-syntax-ns#">
   <cc:Work>
    <dc:type rdf:resource="http://purl.org/dc/dcmitype/StillImage"/>
    <dc:date>2026-07-14T07:01:46.638510</dc:date>
    <dc:format>image/svg+xml</dc:format>
    <dc:creator>
     <cc:Agent>
      <dc:title>Matplotlib v3.11.0, https://matplotlib.org/</dc:title>
     </cc:Agent>
    </dc:creator>
   </cc:Work>
  </rdf:RDF>
 </metadata>
 <defs>
  <style type="text/css">*{stroke-linejoin: round; stroke-linecap: butt}</style>
 </defs>
 <g id="figure_1">
  <g id="patch_1">
   <path d="M 0 260.102906 
L 617.683594 260.102906 
L 617.683594 0 
L 0 0 
z
" style="fill: #ffffff"/>
  </g>
  <g id="axes_1">
   <g id="patch_2">
    <path d="M 52.483594 221.902125 
L 610.483594 221.902125 
L 610.483594 22.318125 
L 52.483594 22.318125 
z
" style="fill: #ffffff"/>
   </g>
   <g id="matplotlib.axis_1">
    <g id="xtick_1">
     <g id="line2d_1">
      <path d="M 84.796172 221.902125 
L 84.796172 22.318125 
" clip-path="url(#pa5525e276e)" style="fill: none; stroke: #b0b0b0; stroke-opacity: 0.25; stroke-width: 0.8; stroke-linecap: square"/>
     </g>
     <g id="line2d_2">
      <defs>
       <path id="me850211811" d="M 0 0 
L 0 3.5 
" style="stroke: #000000; stroke-width: 0.8"/>
      </defs>
      <g>
       <use xlink:href="#me850211811" x="84.796172" y="221.902125" style="stroke: #000000; stroke-width: 0.8"/>
      </g>
     </g>
     <g id="text_1">
      <!-- 0.1 -->
      <g transform="translate(76.844609 236.499781) scale(0.1 -0.1)">
       <defs>
        <path id="DejaVuSans-13" d="M 2034 4250 
Q 1547 4250 1301 3770 
Q 1056 3291 1056 2328 
Q 1056 1369 1301 889 
Q 1547 409 2034 409 
Q 2525 409 2770 889 
Q 3016 1369 3016 2328 
Q 3016 3291 2770 3770 
Q 2525 4250 2034 4250 
z
M 2034 4750 
Q 2819 4750 3233 4129 
Q 3647 3509 3647 2328 
Q 3647 1150 3233 529 
Q 2819 -91 2034 -91 
Q 1250 -91 836 529 
Q 422 1150 422 2328 
Q 422 3509 836 4129 
Q 1250 4750 2034 4750 
z
" transform="scale(0.015625)"/>
        <path id="DejaVuSans-11" d="M 684 794 
L 1344 794 
L 1344 0 
L 684 0 
L 684 794 
z
" transform="scale(0.015625)"/>
        <path id="DejaVuSans-14" d="M 794 531 
L 1825 531 
L 1825 4091 
L 703 3866 
L 703 4441 
L 1819 4666 
L 2450 4666 
L 2450 531 
L 3481 531 
L 3481 0 
L 794 0 
L 794 531 
z
" transform="scale(0.015625)"/>
       </defs>
       <use xlink:href="#DejaVuSans-13"/>
       <use xlink:href="#DejaVuSans-11" transform="translate(63.625 0)"/>
       <use xlink:href="#DejaVuSans-14" transform="translate(95.40625 0)"/>
      </g>
     </g>
    </g>
    <g id="xtick_2">
     <g id="line2d_3">
      <path d="M 184.066764 221.902125 
L 184.066764 22.318125 
" clip-path="url(#pa5525e276e)" style="fill: none; stroke: #b0b0b0; stroke-opacity: 0.25; stroke-width: 0.8; stroke-linecap: square"/>
     </g>
     <g id="line2d_4">
      <g>
       <use xlink:href="#me850211811" x="184.066764" y="221.902125" style="stroke: #000000; stroke-width: 0.8"/>
      </g>
     </g>
     <g id="text_2">
      <!-- 0.2 -->
      <g transform="translate(176.115202 236.499781) scale(0.1 -0.1)">
       <defs>
        <path id="DejaVuSans-15" d="M 1228 531 
L 3431 531 
L 3431 0 
L 469 0 
L 469 531 
Q 828 903 1448 1529 
Q 2069 2156 2228 2338 
Q 2531 2678 2651 2914 
Q 2772 3150 2772 3378 
Q 2772 3750 2511 3984 
Q 2250 4219 1831 4219 
Q 1534 4219 1204 4116 
Q 875 4013 500 3803 
L 500 4441 
Q 881 4594 1212 4672 
Q 1544 4750 1819 4750 
Q 2544 4750 2975 4387 
Q 3406 4025 3406 3419 
Q 3406 3131 3298 2873 
Q 3191 2616 2906 2266 
Q 2828 2175 2409 1742 
Q 1991 1309 1228 531 
z
" transform="scale(0.015625)"/>
       </defs>
       <use xlink:href="#DejaVuSans-13"/>
       <use xlink:href="#DejaVuSans-11" transform="translate(63.625 0)"/>
       <use xlink:href="#DejaVuSans-15" transform="translate(95.40625 0)"/>
      </g>
     </g>
    </g>
    <g id="xtick_3">
     <g id="line2d_5">
      <path d="M 283.337356 221.902125 
L 283.337356 22.318125 
" clip-path="url(#pa5525e276e)" style="fill: none; stroke: #b0b0b0; stroke-opacity: 0.25; stroke-width: 0.8; stroke-linecap: square"/>
     </g>
     <g id="line2d_6">
      <g>
       <use xlink:href="#me850211811" x="283.337356" y="221.902125" style="stroke: #000000; stroke-width: 0.8"/>
      </g>
     </g>
     <g id="text_3">
      <!-- 0.3 -->
      <g transform="translate(275.385794 236.499781) scale(0.1 -0.1)">
       <defs>
        <path id="DejaVuSans-16" d="M 2597 2516 
Q 3050 2419 3304 2112 
Q 3559 1806 3559 1356 
Q 3559 666 3084 287 
Q 2609 -91 1734 -91 
Q 1441 -91 1130 -33 
Q 819 25 488 141 
L 488 750 
Q 750 597 1062 519 
Q 1375 441 1716 441 
Q 2309 441 2620 675 
Q 2931 909 2931 1356 
Q 2931 1769 2642 2001 
Q 2353 2234 1838 2234 
L 1294 2234 
L 1294 2753 
L 1863 2753 
Q 2328 2753 2575 2939 
Q 2822 3125 2822 3475 
Q 2822 3834 2567 4026 
Q 2313 4219 1838 4219 
Q 1578 4219 1281 4162 
Q 984 4106 628 3988 
L 628 4550 
Q 988 4650 1302 4700 
Q 1616 4750 1894 4750 
Q 2613 4750 3031 4423 
Q 3450 4097 3450 3541 
Q 3450 3153 3228 2886 
Q 3006 2619 2597 2516 
z
" transform="scale(0.015625)"/>
       </defs>
       <use xlink:href="#DejaVuSans-13"/>
       <use xlink:href="#DejaVuSans-11" transform="translate(63.625 0)"/>
       <use xlink:href="#DejaVuSans-16" transform="translate(95.40625 0)"/>
      </g>
     </g>
    </g>
    <g id="xtick_4">
     <g id="line2d_7">
      <path d="M 382.607949 221.902125 
L 382.607949 22.318125 
" clip-path="url(#pa5525e276e)" style="fill: none; stroke: #b0b0b0; stroke-opacity: 0.25; stroke-width: 0.8; stroke-linecap: square"/>
     </g>
     <g id="line2d_8">
      <g>
       <use xlink:href="#me850211811" x="382.607949" y="221.902125" style="stroke: #000000; stroke-width: 0.8"/>
      </g>
     </g>
     <g id="text_4">
      <!-- 0.4 -->
      <g transform="translate(374.656386 236.499781) scale(0.1 -0.1)">
       <defs>
        <path id="DejaVuSans-17" d="M 2419 4116 
L 825 1625 
L 2419 1625 
L 2419 4116 
z
M 2253 4666 
L 3047 4666 
L 3047 1625 
L 3713 1625 
L 3713 1100 
L 3047 1100 
L 3047 0 
L 2419 0 
L 2419 1100 
L 313 1100 
L 313 1709 
L 2253 4666 
z
" transform="scale(0.015625)"/>
       </defs>
       <use xlink:href="#DejaVuSans-13"/>
       <use xlink:href="#DejaVuSans-11" transform="translate(63.625 0)"/>
       <use xlink:href="#DejaVuSans-17" transform="translate(95.40625 0)"/>
      </g>
     </g>
    </g>
    <g id="xtick_5">
     <g id="line2d_9">
      <path d="M 481.878541 221.902125 
L 481.878541 22.318125 
" clip-path="url(#pa5525e276e)" style="fill: none; stroke: #b0b0b0; stroke-opacity: 0.25; stroke-width: 0.8; stroke-linecap: square"/>
     </g>
     <g id="line2d_10">
      <g>
       <use xlink:href="#me850211811" x="481.878541" y="221.902125" style="stroke: #000000; stroke-width: 0.8"/>
      </g>
     </g>
     <g id="text_5">
      <!-- 0.5 -->
      <g transform="translate(473.926979 236.499781) scale(0.1 -0.1)">
       <defs>
        <path id="DejaVuSans-18" d="M 691 4666 
L 3169 4666 
L 3169 4134 
L 1269 4134 
L 1269 2991 
Q 1406 3038 1543 3061 
Q 1681 3084 1819 3084 
Q 2600 3084 3056 2656 
Q 3513 2228 3513 1497 
Q 3513 744 3044 326 
Q 2575 -91 1722 -91 
Q 1428 -91 1123 -41 
Q 819 9 494 109 
L 494 744 
Q 775 591 1075 516 
Q 1375 441 1709 441 
Q 2250 441 2565 725 
Q 2881 1009 2881 1497 
Q 2881 1984 2565 2268 
Q 2250 2553 1709 2553 
Q 1456 2553 1204 2497 
Q 953 2441 691 2322 
L 691 4666 
z
" transform="scale(0.015625)"/>
       </defs>
       <use xlink:href="#DejaVuSans-13"/>
       <use xlink:href="#DejaVuSans-11" transform="translate(63.625 0)"/>
       <use xlink:href="#DejaVuSans-18" transform="translate(95.40625 0)"/>
      </g>
     </g>
    </g>
    <g id="xtick_6">
     <g id="line2d_11">
      <path d="M 581.149134 221.902125 
L 581.149134 22.318125 
" clip-path="url(#pa5525e276e)" style="fill: none; stroke: #b0b0b0; stroke-opacity: 0.25; stroke-width: 0.8; stroke-linecap: square"/>
     </g>
     <g id="line2d_12">
      <g>
       <use xlink:href="#me850211811" x="581.149134" y="221.902125" style="stroke: #000000; stroke-width: 0.8"/>
      </g>
     </g>
     <g id="text_6">
      <!-- 0.6 -->
      <g transform="translate(573.197571 236.499781) scale(0.1 -0.1)">
       <defs>
        <path id="DejaVuSans-19" d="M 2113 2584 
Q 1688 2584 1439 2293 
Q 1191 2003 1191 1497 
Q 1191 994 1439 701 
Q 1688 409 2113 409 
Q 2538 409 2786 701 
Q 3034 994 3034 1497 
Q 3034 2003 2786 2293 
Q 2538 2584 2113 2584 
z
M 3366 4563 
L 3366 3988 
Q 3128 4100 2886 4159 
Q 2644 4219 2406 4219 
Q 1781 4219 1451 3797 
Q 1122 3375 1075 2522 
Q 1259 2794 1537 2939 
Q 1816 3084 2150 3084 
Q 2853 3084 3261 2657 
Q 3669 2231 3669 1497 
Q 3669 778 3244 343 
Q 2819 -91 2113 -91 
Q 1303 -91 875 529 
Q 447 1150 447 2328 
Q 447 3434 972 4092 
Q 1497 4750 2381 4750 
Q 2619 4750 2861 4703 
Q 3103 4656 3366 4563 
z
" transform="scale(0.015625)"/>
       </defs>
       <use xlink:href="#DejaVuSans-13"/>
       <use xlink:href="#DejaVuSans-11" transform="translate(63.625 0)"/>
       <use xlink:href="#DejaVuSans-19" transform="translate(95.40625 0)"/>
      </g>
     </g>
    </g>
    <g id="text_7">
     <!-- Time (s) -->
     <g transform="translate(311.152344 250.500563) scale(0.1 -0.1)">
      <defs>
       <path id="DejaVuSans-37" d="M -19 4666 
L 3928 4666 
L 3928 4134 
L 2272 4134 
L 2272 0 
L 1638 0 
L 1638 4134 
L -19 4134 
L -19 4666 
z
" transform="scale(0.015625)"/>
       <path id="DejaVuSans-4c" d="M 603 3500 
L 1178 3500 
L 1178 0 
L 603 0 
L 603 3500 
z
M 603 4863 
L 1178 4863 
L 1178 4134 
L 603 4134 
L 603 4863 
z
" transform="scale(0.015625)"/>
       <path id="DejaVuSans-50" d="M 3328 2828 
Q 3544 3216 3844 3400 
Q 4144 3584 4550 3584 
Q 5097 3584 5394 3201 
Q 5691 2819 5691 2113 
L 5691 0 
L 5113 0 
L 5113 2094 
Q 5113 2597 4934 2840 
Q 4756 3084 4391 3084 
Q 3944 3084 3684 2787 
Q 3425 2491 3425 1978 
L 3425 0 
L 2847 0 
L 2847 2094 
Q 2847 2600 2669 2842 
Q 2491 3084 2119 3084 
Q 1678 3084 1418 2786 
Q 1159 2488 1159 1978 
L 1159 0 
L 581 0 
L 581 3500 
L 1159 3500 
L 1159 2956 
Q 1356 3278 1631 3431 
Q 1906 3584 2284 3584 
Q 2666 3584 2933 3390 
Q 3200 3197 3328 2828 
z
" transform="scale(0.015625)"/>
       <path id="DejaVuSans-48" d="M 3597 1894 
L 3597 1613 
L 953 1613 
Q 991 1019 1311 708 
Q 1631 397 2203 397 
Q 2534 397 2845 478 
Q 3156 559 3463 722 
L 3463 178 
Q 3153 47 2828 -22 
Q 2503 -91 2169 -91 
Q 1331 -91 842 396 
Q 353 884 353 1716 
Q 353 2575 817 3079 
Q 1281 3584 2069 3584 
Q 2775 3584 3186 3129 
Q 3597 2675 3597 1894 
z
M 3022 2063 
Q 3016 2534 2758 2815 
Q 2500 3097 2075 3097 
Q 1594 3097 1305 2825 
Q 1016 2553 972 2059 
L 3022 2063 
z
" transform="scale(0.015625)"/>
       <path id="DejaVuSans-3" transform="scale(0.015625)"/>
       <path id="DejaVuSans-b" d="M 1984 4856 
Q 1566 4138 1362 3434 
Q 1159 2731 1159 2009 
Q 1159 1288 1364 580 
Q 1569 -128 1984 -844 
L 1484 -844 
Q 1016 -109 783 600 
Q 550 1309 550 2009 
Q 550 2706 781 3412 
Q 1013 4119 1484 4856 
L 1984 4856 
z
" transform="scale(0.015625)"/>
       <path id="DejaVuSans-56" d="M 2834 3397 
L 2834 2853 
Q 2591 2978 2328 3040 
Q 2066 3103 1784 3103 
Q 1356 3103 1142 2972 
Q 928 2841 928 2578 
Q 928 2378 1081 2264 
Q 1234 2150 1697 2047 
L 1894 2003 
Q 2506 1872 2764 1633 
Q 3022 1394 3022 966 
Q 3022 478 2636 193 
Q 2250 -91 1575 -91 
Q 1294 -91 989 -36 
Q 684 19 347 128 
L 347 722 
Q 666 556 975 473 
Q 1284 391 1588 391 
Q 1994 391 2212 530 
Q 2431 669 2431 922 
Q 2431 1156 2273 1281 
Q 2116 1406 1581 1522 
L 1381 1569 
Q 847 1681 609 1914 
Q 372 2147 372 2553 
Q 372 3047 722 3315 
Q 1072 3584 1716 3584 
Q 2034 3584 2315 3537 
Q 2597 3491 2834 3397 
z
" transform="scale(0.015625)"/>
       <path id="DejaVuSans-c" d="M 513 4856 
L 1013 4856 
Q 1481 4119 1714 3412 
Q 1947 2706 1947 2009 
Q 1947 1309 1714 600 
Q 1481 -109 1013 -844 
L 513 -844 
Q 928 -128 1133 580 
Q 1338 1288 1338 2009 
Q 1338 2731 1133 3434 
Q 928 4138 513 4856 
z
" transform="scale(0.015625)"/>
      </defs>
      <use xlink:href="#DejaVuSans-37"/>
      <use xlink:href="#DejaVuSans-4c" transform="translate(58 0)"/>
      <use xlink:href="#DejaVuSans-50" transform="translate(85.78125 0)"/>
      <use xlink:href="#DejaVuSans-48" transform="translate(183.1875 0)"/>
      <use xlink:href="#DejaVuSans-3" transform="translate(244.71875 0)"/>
      <use xlink:href="#DejaVuSans-b" transform="translate(276.5 0)"/>
      <use xlink:href="#DejaVuSans-56" transform="translate(315.515625 0)"/>
      <use xlink:href="#DejaVuSans-c" transform="translate(367.609375 0)"/>
     </g>
    </g>
   </g>
   <g id="matplotlib.axis_2">
    <g id="ytick_1">
     <g id="line2d_13">
      <path d="M 52.483594 191.679124 
L 610.483594 191.679124 
" clip-path="url(#pa5525e276e)" style="fill: none; stroke: #b0b0b0; stroke-opacity: 0.25; stroke-width: 0.8; stroke-linecap: square"/>
     </g>
     <g id="line2d_14">
      <defs>
       <path id="m556647d606" d="M 0 0 
L -3.5 0 
" style="stroke: #000000; stroke-width: 0.8"/>
      </defs>
      <g>
       <use xlink:href="#m556647d606" x="52.483594" y="191.679124" style="stroke: #000000; stroke-width: 0.8"/>
      </g>
     </g>
     <g id="text_8">
      <!-- −1.0 -->
      <g transform="translate(21.200781 195.477952) scale(0.1 -0.1)">
       <defs>
        <path id="DejaVuSans-c9c" d="M 678 2272 
L 4684 2272 
L 4684 1741 
L 678 1741 
L 678 2272 
z
" transform="scale(0.015625)"/>
       </defs>
       <use xlink:href="#DejaVuSans-c9c"/>
       <use xlink:href="#DejaVuSans-14" transform="translate(83.796875 0)"/>
       <use xlink:href="#DejaVuSans-11" transform="translate(147.421875 0)"/>
       <use xlink:href="#DejaVuSans-13" transform="translate(179.203125 0)"/>
      </g>
     </g>
    </g>
    <g id="ytick_2">
     <g id="line2d_15">
      <path d="M 52.483594 155.395016 
L 610.483594 155.395016 
" clip-path="url(#pa5525e276e)" style="fill: none; stroke: #b0b0b0; stroke-opacity: 0.25; stroke-width: 0.8; stroke-linecap: square"/>
     </g>
     <g id="line2d_16">
      <g>
       <use xlink:href="#m556647d606" x="52.483594" y="155.395016" style="stroke: #000000; stroke-width: 0.8"/>
      </g>
     </g>
     <g id="text_9">
      <!-- −0.5 -->
      <g transform="translate(21.200781 159.193844) scale(0.1 -0.1)">
       <use xlink:href="#DejaVuSans-c9c"/>
       <use xlink:href="#DejaVuSans-13" transform="translate(83.796875 0)"/>
       <use xlink:href="#DejaVuSans-11" transform="translate(147.421875 0)"/>
       <use xlink:href="#DejaVuSans-18" transform="translate(179.203125 0)"/>
      </g>
     </g>
    </g>
    <g id="ytick_3">
     <g id="line2d_17">
      <path d="M 52.483594 119.110908 
L 610.483594 119.110908 
" clip-path="url(#pa5525e276e)" style="fill: none; stroke: #b0b0b0; stroke-opacity: 0.25; stroke-width: 0.8; stroke-linecap: square"/>
     </g>
     <g id="line2d_18">
      <g>
       <use xlink:href="#m556647d606" x="52.483594" y="119.110908" style="stroke: #000000; stroke-width: 0.8"/>
      </g>
     </g>
     <g id="text_10">
      <!-- 0.0 -->
      <g transform="translate(29.580469 122.909736) scale(0.1 -0.1)">
       <use xlink:href="#DejaVuSans-13"/>
       <use xlink:href="#DejaVuSans-11" transform="translate(63.625 0)"/>
       <use xlink:href="#DejaVuSans-13" transform="translate(95.40625 0)"/>
      </g>
     </g>
    </g>
    <g id="ytick_4">
     <g id="line2d_19">
      <path d="M 52.483594 82.8268 
L 610.483594 82.8268 
" clip-path="url(#pa5525e276e)" style="fill: none; stroke: #b0b0b0; stroke-opacity: 0.25; stroke-width: 0.8; stroke-linecap: square"/>
     </g>
     <g id="line2d_20">
      <g>
       <use xlink:href="#m556647d606" x="52.483594" y="82.8268" style="stroke: #000000; stroke-width: 0.8"/>
      </g>
     </g>
     <g id="text_11">
      <!-- 0.5 -->
      <g transform="translate(29.580469 86.625628) scale(0.1 -0.1)">
       <use xlink:href="#DejaVuSans-13"/>
       <use xlink:href="#DejaVuSans-11" transform="translate(63.625 0)"/>
       <use xlink:href="#DejaVuSans-18" transform="translate(95.40625 0)"/>
      </g>
     </g>
    </g>
    <g id="ytick_5">
     <g id="line2d_21">
      <path d="M 52.483594 46.542692 
L 610.483594 46.542692 
" clip-path="url(#pa5525e276e)" style="fill: none; stroke: #b0b0b0; stroke-opacity: 0.25; stroke-width: 0.8; stroke-linecap: square"/>
     </g>
     <g id="line2d_22">
      <g>
       <use xlink:href="#m556647d606" x="52.483594" y="46.542692" style="stroke: #000000; stroke-width: 0.8"/>
      </g>
     </g>
     <g id="text_12">
      <!-- 1.0 -->
      <g transform="translate(29.580469 50.34152) scale(0.1 -0.1)">
       <use xlink:href="#DejaVuSans-14"/>
       <use xlink:href="#DejaVuSans-11" transform="translate(63.625 0)"/>
       <use xlink:href="#DejaVuSans-13" transform="translate(95.40625 0)"/>
      </g>
     </g>
    </g>
    <g id="text_13">
     <!-- Amplitude (physical unit) -->
     <g transform="translate(14.798438 184.997625) rotate(-90) scale(0.1 -0.1)">
      <defs>
       <path id="DejaVuSans-24" d="M 2188 4044 
L 1331 1722 
L 3047 1722 
L 2188 4044 
z
M 1831 4666 
L 2547 4666 
L 4325 0 
L 3669 0 
L 3244 1197 
L 1141 1197 
L 716 0 
L 50 0 
L 1831 4666 
z
" transform="scale(0.015625)"/>
       <path id="DejaVuSans-53" d="M 1159 525 
L 1159 -1331 
L 581 -1331 
L 581 3500 
L 1159 3500 
L 1159 2969 
Q 1341 3281 1617 3432 
Q 1894 3584 2278 3584 
Q 2916 3584 3314 3078 
Q 3713 2572 3713 1747 
Q 3713 922 3314 415 
Q 2916 -91 2278 -91 
Q 1894 -91 1617 61 
Q 1341 213 1159 525 
z
M 3116 1747 
Q 3116 2381 2855 2742 
Q 2594 3103 2138 3103 
Q 1681 3103 1420 2742 
Q 1159 2381 1159 1747 
Q 1159 1113 1420 752 
Q 1681 391 2138 391 
Q 2594 391 2855 752 
Q 3116 1113 3116 1747 
z
" transform="scale(0.015625)"/>
       <path id="DejaVuSans-4f" d="M 603 4863 
L 1178 4863 
L 1178 0 
L 603 0 
L 603 4863 
z
" transform="scale(0.015625)"/>
       <path id="DejaVuSans-57" d="M 1172 4494 
L 1172 3500 
L 2356 3500 
L 2356 3053 
L 1172 3053 
L 1172 1153 
Q 1172 725 1289 603 
Q 1406 481 1766 481 
L 2356 481 
L 2356 0 
L 1766 0 
Q 1100 0 847 248 
Q 594 497 594 1153 
L 594 3053 
L 172 3053 
L 172 3500 
L 594 3500 
L 594 4494 
L 1172 4494 
z
" transform="scale(0.015625)"/>
       <path id="DejaVuSans-58" d="M 544 1381 
L 544 3500 
L 1119 3500 
L 1119 1403 
Q 1119 906 1312 657 
Q 1506 409 1894 409 
Q 2359 409 2629 706 
Q 2900 1003 2900 1516 
L 2900 3500 
L 3475 3500 
L 3475 0 
L 2900 0 
L 2900 538 
Q 2691 219 2414 64 
Q 2138 -91 1772 -91 
Q 1169 -91 856 284 
Q 544 659 544 1381 
z
M 1991 3584 
L 1991 3584 
z
" transform="scale(0.015625)"/>
       <path id="DejaVuSans-47" d="M 2906 2969 
L 2906 4863 
L 3481 4863 
L 3481 0 
L 2906 0 
L 2906 525 
Q 2725 213 2448 61 
Q 2172 -91 1784 -91 
Q 1150 -91 751 415 
Q 353 922 353 1747 
Q 353 2572 751 3078 
Q 1150 3584 1784 3584 
Q 2172 3584 2448 3432 
Q 2725 3281 2906 2969 
z
M 947 1747 
Q 947 1113 1208 752 
Q 1469 391 1925 391 
Q 2381 391 2643 752 
Q 2906 1113 2906 1747 
Q 2906 2381 2643 2742 
Q 2381 3103 1925 3103 
Q 1469 3103 1208 2742 
Q 947 2381 947 1747 
z
" transform="scale(0.015625)"/>
       <path id="DejaVuSans-4b" d="M 3513 2113 
L 3513 0 
L 2938 0 
L 2938 2094 
Q 2938 2591 2744 2837 
Q 2550 3084 2163 3084 
Q 1697 3084 1428 2787 
Q 1159 2491 1159 1978 
L 1159 0 
L 581 0 
L 581 4863 
L 1159 4863 
L 1159 2956 
Q 1366 3272 1645 3428 
Q 1925 3584 2291 3584 
Q 2894 3584 3203 3211 
Q 3513 2838 3513 2113 
z
" transform="scale(0.015625)"/>
       <path id="DejaVuSans-5c" d="M 2059 -325 
Q 1816 -950 1584 -1140 
Q 1353 -1331 966 -1331 
L 506 -1331 
L 506 -850 
L 844 -850 
Q 1081 -850 1212 -737 
Q 1344 -625 1503 -206 
L 1606 56 
L 191 3500 
L 800 3500 
L 1894 763 
L 2988 3500 
L 3597 3500 
L 2059 -325 
z
" transform="scale(0.015625)"/>
       <path id="DejaVuSans-46" d="M 3122 3366 
L 3122 2828 
Q 2878 2963 2633 3030 
Q 2388 3097 2138 3097 
Q 1578 3097 1268 2742 
Q 959 2388 959 1747 
Q 959 1106 1268 751 
Q 1578 397 2138 397 
Q 2388 397 2633 464 
Q 2878 531 3122 666 
L 3122 134 
Q 2881 22 2623 -34 
Q 2366 -91 2075 -91 
Q 1284 -91 818 406 
Q 353 903 353 1747 
Q 353 2603 823 3093 
Q 1294 3584 2113 3584 
Q 2378 3584 2631 3529 
Q 2884 3475 3122 3366 
z
" transform="scale(0.015625)"/>
       <path id="DejaVuSans-44" d="M 2194 1759 
Q 1497 1759 1228 1600 
Q 959 1441 959 1056 
Q 959 750 1161 570 
Q 1363 391 1709 391 
Q 2188 391 2477 730 
Q 2766 1069 2766 1631 
L 2766 1759 
L 2194 1759 
z
M 3341 1997 
L 3341 0 
L 2766 0 
L 2766 531 
Q 2569 213 2275 61 
Q 1981 -91 1556 -91 
Q 1019 -91 701 211 
Q 384 513 384 1019 
Q 384 1609 779 1909 
Q 1175 2209 1959 2209 
L 2766 2209 
L 2766 2266 
Q 2766 2663 2505 2880 
Q 2244 3097 1772 3097 
Q 1472 3097 1187 3025 
Q 903 2953 641 2809 
L 641 3341 
Q 956 3463 1253 3523 
Q 1550 3584 1831 3584 
Q 2591 3584 2966 3190 
Q 3341 2797 3341 1997 
z
" transform="scale(0.015625)"/>
       <path id="DejaVuSans-51" d="M 3513 2113 
L 3513 0 
L 2938 0 
L 2938 2094 
Q 2938 2591 2744 2837 
Q 2550 3084 2163 3084 
Q 1697 3084 1428 2787 
Q 1159 2491 1159 1978 
L 1159 0 
L 581 0 
L 581 3500 
L 1159 3500 
L 1159 2956 
Q 1366 3272 1645 3428 
Q 1925 3584 2291 3584 
Q 2894 3584 3203 3211 
Q 3513 2838 3513 2113 
z
" transform="scale(0.015625)"/>
      </defs>
      <use xlink:href="#DejaVuSans-24"/>
      <use xlink:href="#DejaVuSans-50" transform="translate(68.40625 0)"/>
      <use xlink:href="#DejaVuSans-53" transform="translate(165.8125 0)"/>
      <use xlink:href="#DejaVuSans-4f" transform="translate(229.296875 0)"/>
      <use xlink:href="#DejaVuSans-4c" transform="translate(257.078125 0)"/>
      <use xlink:href="#DejaVuSans-57" transform="translate(284.859375 0)"/>
      <use xlink:href="#DejaVuSans-58" transform="translate(324.0625 0)"/>
      <use xlink:href="#DejaVuSans-47" transform="translate(387.4375 0)"/>
      <use xlink:href="#DejaVuSans-48" transform="translate(450.921875 0)"/>
      <use xlink:href="#DejaVuSans-3" transform="translate(512.453125 0)"/>
      <use xlink:href="#DejaVuSans-b" transform="translate(544.234375 0)"/>
      <use xlink:href="#DejaVuSans-53" transform="translate(583.25 0)"/>
      <use xlink:href="#DejaVuSans-4b" transform="translate(646.734375 0)"/>
      <use xlink:href="#DejaVuSans-5c" transform="translate(710.109375 0)"/>
      <use xlink:href="#DejaVuSans-56" transform="translate(769.296875 0)"/>
      <use xlink:href="#DejaVuSans-4c" transform="translate(821.390625 0)"/>
      <use xlink:href="#DejaVuSans-46" transform="translate(849.171875 0)"/>
      <use xlink:href="#DejaVuSans-44" transform="translate(904.15625 0)"/>
      <use xlink:href="#DejaVuSans-4f" transform="translate(965.4375 0)"/>
      <use xlink:href="#DejaVuSans-3" transform="translate(993.21875 0)"/>
      <use xlink:href="#DejaVuSans-58" transform="translate(1025 0)"/>
      <use xlink:href="#DejaVuSans-51" transform="translate(1088.375 0)"/>
      <use xlink:href="#DejaVuSans-4c" transform="translate(1151.75 0)"/>
      <use xlink:href="#DejaVuSans-57" transform="translate(1179.53125 0)"/>
      <use xlink:href="#DejaVuSans-c" transform="translate(1218.734375 0)"/>
     </g>
    </g>
   </g>
   <g id="line2d_23">
    <path d="M 77.84723 187.679096 
L 78.839936 158.222446 
L 79.832642 140.148263 
L 80.825348 179.620981 
L 81.818054 134.600534 
L 82.81076 128.267447 
L 83.803466 155.269869 
L 84.796172 110.670304 
L 85.788878 81.154158 
L 86.781583 123.940051 
L 87.774289 96.971755 
L 88.766995 51.273509 
L 89.759701 111.03943 
L 90.752407 114.239559 
L 91.745113 41.509533 
L 93.730525 113.839613 
L 94.723231 64.612368 
L 95.715937 93.946438 
L 96.708643 137.274895 
L 97.701349 90.163622 
L 98.694055 118.413736 
L 99.68676 184.182039 
L 100.679466 122.057495 
L 101.672172 142.632243 
L 102.664878 195.574332 
L 103.657584 145.792806 
L 104.65029 146.409222 
L 105.642996 194.622147 
L 106.635702 149.758684 
L 107.628408 114.412806 
L 108.621114 170.237727 
L 109.61382 112.098448 
L 110.606526 70.196222 
L 111.599232 116.430306 
L 112.591937 107.47213 
L 113.584643 49.399898 
L 114.577349 99.307534 
L 115.570055 94.892371 
L 116.562761 41.946781 
L 117.555467 112.805891 
L 118.548173 116.604211 
L 119.540879 84.160541 
L 121.526291 144.318833 
L 122.518997 88.060802 
L 124.504409 166.799284 
L 125.497114 124.810038 
L 126.48982 136.072134 
L 127.482526 212.830125 
L 128.475232 154.117009 
L 129.467938 150.559976 
L 130.460644 212.618331 
L 131.45335 138.513237 
L 132.446056 107.262777 
L 133.438762 147.060683 
L 134.431468 123.861269 
L 135.424174 60.951364 
L 136.41688 130.30055 
L 137.409586 109.883252 
L 138.402291 48.242599 
L 139.394997 100.088793 
L 140.387703 100.032796 
L 141.380409 36.391754 
L 142.373115 103.809113 
L 143.365821 109.20022 
L 144.358527 55.532446 
L 145.351233 95.231407 
L 146.343939 128.306991 
L 147.336645 89.565264 
L 148.329351 129.32521 
L 149.322057 174.816382 
L 150.314763 124.954466 
L 151.307469 147.88666 
L 152.300174 206.778424 
L 153.29288 135.527597 
L 154.285586 144.647523 
L 155.278292 183.030967 
L 156.270998 151.603875 
L 157.263704 112.831416 
L 158.25641 157.261751 
L 159.249116 121.313849 
L 160.241822 77.264977 
L 161.234528 116.186656 
L 162.227234 87.903214 
L 163.21994 51.389388 
L 164.212646 97.141779 
L 165.205351 105.28175 
L 166.198057 31.390125 
L 167.190763 100.582542 
L 168.183469 105.265234 
L 169.176175 80.047113 
L 170.168881 106.15469 
L 171.161587 147.445854 
L 172.154293 101.433106 
L 173.146999 133.134229 
L 174.139705 181.947141 
L 175.132411 116.431382 
L 176.125117 143.992873 
L 177.117823 193.167157 
L 178.110528 136.717752 
L 179.103234 141.922856 
L 180.09594 205.097142 
L 181.088646 130.102059 
L 182.081352 114.337544 
L 183.074058 150.996469 
L 184.066764 122.743917 
L 185.05947 78.332974 
L 186.052176 125.845782 
L 187.044882 110.29736 
L 188.037588 63.616359 
L 189.030294 89.793877 
L 190.023 102.555709 
L 191.015705 47.628747 
L 192.008411 99.113231 
L 193.001117 108.244747 
L 193.993823 70.602075 
L 194.986529 96.464168 
L 195.979235 147.701427 
L 196.971941 83.027906 
L 198.957353 169.085826 
L 199.950059 116.660792 
L 200.942765 135.702125 
L 201.935471 203.493349 
L 202.928177 131.34621 
L 203.920882 129.15935 
L 204.913588 175.509427 
L 205.906294 142.875098 
L 206.899 103.716214 
L 207.891706 156.395063 
L 208.884412 106.953877 
L 209.877118 79.963756 
L 210.869824 122.348541 
L 211.86253 112.343342 
L 212.855236 56.947505 
L 213.847942 81.677355 
L 214.840648 87.215226 
L 215.833354 55.335716 
L 216.82606 96.227156 
L 217.818765 117.371664 
L 218.811471 80.893694 
L 219.804177 114.203571 
L 220.796883 124.906451 
L 221.789589 93.002275 
L 223.775001 167.956129 
L 224.767707 117.644874 
L 225.760413 144.592572 
L 226.753119 178.007919 
L 227.745825 150.437397 
L 228.738531 140.212244 
L 229.731237 167.2679 
L 230.723942 150.856635 
L 231.716648 112.45914 
L 232.709354 158.033139 
L 233.70206 126.894025 
L 234.694766 85.418636 
L 235.687472 118.36217 
L 236.680178 102.058232 
L 237.672884 52.40127 
L 238.66559 81.967467 
L 239.658296 83.903764 
L 240.651002 36.554281 
L 242.636414 110.880642 
L 243.629119 67.126886 
L 245.614531 139.503177 
L 246.607237 88.682025 
L 247.599943 122.555636 
L 248.592649 171.352541 
L 249.585355 138.608631 
L 250.578061 150.1516 
L 251.570767 179.543648 
L 252.563473 142.594606 
L 253.556179 129.085459 
L 254.548885 156.718513 
L 256.534296 125.784988 
L 257.527002 167.657093 
L 258.519708 116.531076 
L 259.512414 80.144831 
L 260.50512 123.747583 
L 261.497826 112.882441 
L 262.490532 56.867702 
L 263.483238 97.222152 
L 264.475944 96.629266 
L 265.46865 45.15611 
L 266.461356 92.794818 
L 267.454062 107.133399 
L 268.446768 70.698526 
L 269.439473 107.320769 
L 270.432179 131.941119 
L 271.424885 101.963646 
L 272.417591 123.652672 
L 273.410297 179.808887 
L 274.403003 111.993946 
L 275.395709 148.656075 
L 276.388415 180.475792 
L 277.381121 144.371749 
L 278.373827 134.424018 
L 279.366533 175.777422 
L 280.359239 134.138576 
L 281.351945 130.108722 
L 282.344651 158.543088 
L 283.337356 118.144926 
L 284.330062 86.024526 
L 285.322768 115.545598 
L 286.315474 95.931994 
L 287.30818 45.376882 
L 288.300886 100.3272 
L 289.293592 105.964859 
L 290.286298 45.612673 
L 291.279004 99.75859 
L 292.27171 112.866444 
L 293.264416 63.769703 
L 294.257122 117.391122 
L 295.249828 136.054721 
L 296.242533 115.395567 
L 297.235239 140.094422 
L 298.227945 172.188082 
L 299.220651 126.649693 
L 300.213357 121.364488 
L 301.206063 172.591427 
L 302.198769 148.892243 
L 303.191475 150.001252 
L 304.184181 197.186229 
L 305.176887 139.800057 
L 306.169593 111.279199 
L 307.162299 164.369192 
L 308.155005 129.346074 
L 309.14771 68.114055 
L 310.140416 119.075782 
L 311.133122 107.506351 
L 312.125828 41.22598 
L 313.118534 100.583186 
L 314.11124 109.998457 
L 315.103946 42.993253 
L 316.096652 85.875438 
L 317.089358 109.434026 
L 318.082064 59.837813 
L 319.07477 110.660048 
L 320.067476 139.417271 
L 321.060182 92.013839 
L 322.052887 130.114103 
L 323.045593 189.86017 
L 324.038299 130.950297 
L 325.031005 123.173977 
L 326.023711 182.567112 
L 327.016417 141.726995 
L 328.009123 151.971507 
L 329.001829 181.375415 
L 329.994535 151.908078 
L 330.987241 110.036748 
L 331.979947 167.14047 
L 332.972653 130.330641 
L 333.965359 66.502326 
L 334.958064 129.307465 
L 335.95077 107.17272 
L 336.943476 59.811246 
L 337.936182 102.720772 
L 338.928888 89.099612 
L 339.921594 53.309279 
L 340.9143 83.873028 
L 341.907006 102.403359 
L 342.899712 75.205249 
L 344.885124 143.057897 
L 345.87783 85.53567 
L 346.870536 134.986207 
L 347.863241 159.750528 
L 348.855947 117.820899 
L 350.841359 189.088592 
L 351.834065 130.8806 
L 352.826771 136.909177 
L 353.819477 191.605647 
L 354.812183 142.173838 
L 355.804889 98.813291 
L 356.797595 145.039538 
L 357.790301 118.637461 
L 358.783007 82.836238 
L 359.775713 133.246946 
L 360.768419 98.892395 
L 361.761124 51.141255 
L 362.75383 112.765238 
L 363.746536 103.084184 
L 364.739242 35.588081 
L 365.731948 100.357108 
L 366.724654 98.588308 
L 367.71736 64.763788 
L 369.702772 141.244459 
L 370.695478 105.843811 
L 371.688184 154.700898 
L 372.68089 171.463652 
L 373.673596 139.364294 
L 374.666301 143.640263 
L 375.659007 186.782902 
L 376.651713 129.212363 
L 377.644419 136.044556 
L 378.637125 185.655551 
L 379.629831 116.569527 
L 380.622537 126.00172 
L 381.615243 160.681236 
L 382.607949 114.987199 
L 383.600655 92.376362 
L 384.593361 124.746648 
L 385.586067 99.048491 
L 386.578773 51.546521 
L 387.571478 105.129232 
L 388.564184 104.993229 
L 389.55689 47.024667 
L 390.549596 87.384944 
L 391.542302 100.203683 
L 392.535008 64.069261 
L 393.527714 105.540634 
L 394.52042 159.772499 
L 395.513126 103.451729 
L 396.505832 121.092993 
L 397.498538 184.934254 
L 398.491244 110.15466 
L 399.48395 151.3675 
L 400.476655 186.929795 
L 401.469361 151.244744 
L 402.462067 138.313 
L 403.454773 178.596125 
L 405.440185 106.406446 
L 406.432891 179.052848 
L 408.418303 77.469841 
L 409.411009 109.395098 
L 410.403715 94.464871 
L 411.396421 52.128527 
L 412.389127 74.722934 
L 413.381832 90.799512 
L 414.374538 36.528793 
L 415.367244 100.688954 
L 416.35995 110.881266 
L 417.352656 63.118477 
L 418.345362 106.928857 
L 419.338068 132.755246 
L 420.330774 98.496488 
L 421.32348 124.131455 
L 422.316186 180.738359 
L 423.308892 110.232065 
L 424.301598 151.564463 
L 425.294304 200.326904 
L 426.28701 127.46896 
L 427.279715 137.415411 
L 428.272421 177.350868 
L 429.265127 144.272526 
L 430.257833 128.873995 
L 431.250539 162.290591 
L 432.243245 105.080535 
L 433.235951 82.381894 
L 434.228657 134.851071 
L 435.221363 98.441728 
L 436.214069 57.285166 
L 437.206775 91.184318 
L 438.199481 86.103369 
L 439.192187 49.473251 
L 440.184892 103.908898 
L 441.177598 130.495285 
L 442.170304 67.392283 
L 443.16301 105.396628 
L 444.155716 148.317993 
L 445.148422 101.574953 
L 446.141128 128.246336 
L 447.133834 170.252024 
L 448.12654 121.160893 
L 449.119246 131.207245 
L 450.111952 203.927794 
L 451.104658 139.897991 
L 452.097364 155.874913 
L 453.090069 201.333669 
L 454.082775 129.480122 
L 455.075481 100.078698 
L 456.068187 147.777871 
L 457.060893 114.168326 
L 458.053599 89.756833 
L 459.046305 130.973206 
L 460.039011 103.722641 
L 461.031717 56.563682 
L 462.024423 101.185454 
L 463.017129 105.740868 
L 464.009835 52.578162 
L 465.002541 83.068473 
L 465.995246 106.624223 
L 466.987952 58.778158 
L 467.980658 114.091679 
L 468.973364 140.846926 
L 469.96607 106.353949 
L 470.958776 123.532145 
L 471.951482 180.5923 
L 472.944188 121.895401 
L 473.936894 135.899212 
L 474.9296 190.789594 
L 475.922306 144.089417 
L 476.915012 139.69605 
L 477.907718 186.266268 
L 478.900423 129.861267 
L 479.893129 105.210645 
L 480.885835 146.292842 
L 481.878541 120.067975 
L 482.871247 85.401106 
L 483.863953 117.871252 
L 484.856659 97.956075 
L 485.849365 43.062463 
L 486.842071 103.46801 
L 487.834777 91.399407 
L 488.827483 66.811752 
L 489.820189 102.296506 
L 490.812895 99.62821 
L 491.805601 64.662744 
L 492.798306 91.945143 
L 493.791012 131.291969 
L 494.783718 100.222336 
L 495.776424 126.151421 
L 496.76913 174.024526 
L 497.761836 130.625387 
L 498.754542 143.81716 
L 499.747248 199.733834 
L 500.739954 156.463164 
L 501.73266 141.495597 
L 502.725366 179.661703 
L 503.718072 157.129905 
L 504.710778 117.411947 
L 505.703483 137.078817 
L 506.696189 129.911452 
L 507.688895 91.433584 
L 508.681601 133.651585 
L 510.667013 63.718327 
L 511.659719 95.989776 
L 512.652425 93.806591 
L 513.645131 55.907536 
L 514.637837 97.927313 
L 515.630543 104.406588 
L 516.623249 51.111013 
L 517.615955 104.483098 
L 518.60866 139.376655 
L 519.601366 94.094841 
L 520.594072 131.882418 
L 521.586778 182.50458 
L 522.579484 134.4816 
L 523.57219 132.205363 
L 524.564896 189.103029 
L 525.557602 148.063019 
L 526.550308 145.980221 
L 527.543014 197.474128 
L 528.53572 136.808837 
L 529.528426 113.554982 
L 530.521132 154.652923 
L 531.513837 108.349725 
L 532.506543 71.990439 
L 533.499249 104.617664 
L 534.491955 94.679362 
L 535.484661 48.117422 
L 536.477367 86.53147 
L 537.470073 97.426118 
L 538.462779 38.208233 
L 539.455485 95.361604 
L 540.448191 117.691451 
L 541.440897 70.20434 
L 543.426309 137.983104 
L 544.419014 95.622059 
L 545.41172 121.74226 
L 546.404426 171.104385 
L 547.397132 118.134012 
L 548.389838 137.174009 
L 549.382544 199.637503 
L 550.37525 147.11949 
L 551.367956 130.788841 
L 552.360662 182.762525 
L 553.353368 147.671552 
L 554.346074 108.122713 
L 555.33878 156.077013 
L 556.331486 114.854575 
L 557.324192 80.426526 
L 558.316897 135.157487 
L 559.309603 97.374374 
L 560.302309 51.952692 
L 561.295015 101.288762 
L 562.287721 92.310282 
L 563.280427 38.591812 
L 564.273133 89.499475 
L 565.265839 113.67517 
L 566.258545 69.339906 
L 568.243957 154.00482 
L 569.236663 97.184148 
L 570.229369 135.440567 
L 571.222074 159.129014 
L 572.21478 116.877185 
L 573.207486 142.36894 
L 574.200192 191.810177 
L 575.192898 161.207087 
L 576.185604 150.566843 
L 577.17831 175.670121 
L 578.171016 145.559271 
L 579.163722 108.214437 
L 580.156428 163.402384 
L 581.149134 114.532453 
L 582.14184 76.213487 
L 583.134546 125.979797 
L 584.127251 107.151233 
L 585.119957 52.343021 
L 585.119957 52.343021 
" clip-path="url(#pa5525e276e)" style="fill: none; stroke: #1f77b4; stroke-width: 0.9; stroke-linecap: square"/>
   </g>
   <g id="patch_3">
    <path d="M 52.483594 221.902125 
L 52.483594 22.318125 
" style="fill: none; stroke: #000000; stroke-width: 0.8; stroke-linejoin: miter; stroke-linecap: square"/>
   </g>
   <g id="patch_4">
    <path d="M 610.483594 221.902125 
L 610.483594 22.318125 
" style="fill: none; stroke: #000000; stroke-width: 0.8; stroke-linejoin: miter; stroke-linecap: square"/>
   </g>
   <g id="patch_5">
    <path d="M 52.483594 221.902125 
L 610.483594 221.902125 
" style="fill: none; stroke: #000000; stroke-width: 0.8; stroke-linejoin: miter; stroke-linecap: square"/>
   </g>
   <g id="patch_6">
    <path d="M 52.483594 22.318125 
L 610.483594 22.318125 
" style="fill: none; stroke: #000000; stroke-width: 0.8; stroke-linejoin: miter; stroke-linecap: square"/>
   </g>
   <g id="text_14">
    <!-- Controlled source segment -->
    <g transform="translate(250.571719 16.318125) scale(0.12 -0.12)">
     <defs>
      <path id="DejaVuSans-26" d="M 4122 4306 
L 4122 3641 
Q 3803 3938 3442 4084 
Q 3081 4231 2675 4231 
Q 1875 4231 1450 3742 
Q 1025 3253 1025 2328 
Q 1025 1406 1450 917 
Q 1875 428 2675 428 
Q 3081 428 3442 575 
Q 3803 722 4122 1019 
L 4122 359 
Q 3791 134 3420 21 
Q 3050 -91 2638 -91 
Q 1578 -91 968 557 
Q 359 1206 359 2328 
Q 359 3453 968 4101 
Q 1578 4750 2638 4750 
Q 3056 4750 3426 4639 
Q 3797 4528 4122 4306 
z
" transform="scale(0.015625)"/>
      <path id="DejaVuSans-52" d="M 1959 3097 
Q 1497 3097 1228 2736 
Q 959 2375 959 1747 
Q 959 1119 1226 758 
Q 1494 397 1959 397 
Q 2419 397 2687 759 
Q 2956 1122 2956 1747 
Q 2956 2369 2687 2733 
Q 2419 3097 1959 3097 
z
M 1959 3584 
Q 2709 3584 3137 3096 
Q 3566 2609 3566 1747 
Q 3566 888 3137 398 
Q 2709 -91 1959 -91 
Q 1206 -91 779 398 
Q 353 888 353 1747 
Q 353 2609 779 3096 
Q 1206 3584 1959 3584 
z
" transform="scale(0.015625)"/>
      <path id="DejaVuSans-55" d="M 2631 2963 
Q 2534 3019 2420 3045 
Q 2306 3072 2169 3072 
Q 1681 3072 1420 2755 
Q 1159 2438 1159 1844 
L 1159 0 
L 581 0 
L 581 3500 
L 1159 3500 
L 1159 2956 
Q 1341 3275 1631 3429 
Q 1922 3584 2338 3584 
Q 2397 3584 2469 3576 
Q 2541 3569 2628 3553 
L 2631 2963 
z
" transform="scale(0.015625)"/>
      <path id="DejaVuSans-4a" d="M 2906 1791 
Q 2906 2416 2648 2759 
Q 2391 3103 1925 3103 
Q 1463 3103 1205 2759 
Q 947 2416 947 1791 
Q 947 1169 1205 825 
Q 1463 481 1925 481 
Q 2391 481 2648 825 
Q 2906 1169 2906 1791 
z
M 3481 434 
Q 3481 -459 3084 -895 
Q 2688 -1331 1869 -1331 
Q 1566 -1331 1297 -1286 
Q 1028 -1241 775 -1147 
L 775 -588 
Q 1028 -725 1275 -790 
Q 1522 -856 1778 -856 
Q 2344 -856 2625 -561 
Q 2906 -266 2906 331 
L 2906 616 
Q 2728 306 2450 153 
Q 2172 0 1784 0 
Q 1141 0 747 490 
Q 353 981 353 1791 
Q 353 2603 747 3093 
Q 1141 3584 1784 3584 
Q 2172 3584 2450 3431 
Q 2728 3278 2906 2969 
L 2906 3500 
L 3481 3500 
L 3481 434 
z
" transform="scale(0.015625)"/>
     </defs>
     <use xlink:href="#DejaVuSans-26"/>
     <use xlink:href="#DejaVuSans-52" transform="translate(69.828125 0)"/>
     <use xlink:href="#DejaVuSans-51" transform="translate(131.015625 0)"/>
     <use xlink:href="#DejaVuSans-57" transform="translate(194.390625 0)"/>
     <use xlink:href="#DejaVuSans-55" transform="translate(233.59375 0)"/>
     <use xlink:href="#DejaVuSans-52" transform="translate(272.5 0)"/>
     <use xlink:href="#DejaVuSans-4f" transform="translate(333.6875 0)"/>
     <use xlink:href="#DejaVuSans-4f" transform="translate(361.46875 0)"/>
     <use xlink:href="#DejaVuSans-48" transform="translate(389.25 0)"/>
     <use xlink:href="#DejaVuSans-47" transform="translate(450.78125 0)"/>
     <use xlink:href="#DejaVuSans-3" transform="translate(514.265625 0)"/>
     <use xlink:href="#DejaVuSans-56" transform="translate(546.046875 0)"/>
     <use xlink:href="#DejaVuSans-52" transform="translate(598.140625 0)"/>
     <use xlink:href="#DejaVuSans-58" transform="translate(659.328125 0)"/>
     <use xlink:href="#DejaVuSans-55" transform="translate(722.703125 0)"/>
     <use xlink:href="#DejaVuSans-46" transform="translate(761.609375 0)"/>
     <use xlink:href="#DejaVuSans-48" transform="translate(816.59375 0)"/>
     <use xlink:href="#DejaVuSans-3" transform="translate(878.125 0)"/>
     <use xlink:href="#DejaVuSans-56" transform="translate(909.90625 0)"/>
     <use xlink:href="#DejaVuSans-48" transform="translate(962 0)"/>
     <use xlink:href="#DejaVuSans-4a" transform="translate(1023.53125 0)"/>
     <use xlink:href="#DejaVuSans-50" transform="translate(1087.015625 0)"/>
     <use xlink:href="#DejaVuSans-48" transform="translate(1184.421875 0)"/>
     <use xlink:href="#DejaVuSans-51" transform="translate(1245.953125 0)"/>
     <use xlink:href="#DejaVuSans-57" transform="translate(1309.328125 0)"/>
    </g>
   </g>
  </g>
 </g>
 <defs>
  <clipPath id="pa5525e276e">
   <rect x="52.483594" y="22.318125" width="558" height="199.584"/>
  </clipPath>
 </defs>
</svg>
