<?xml version="1.0" encoding="utf-8" standalone="no"?>
<!DOCTYPE svg PUBLIC "-//W3C//DTD SVG 1.1//EN"
  "http://www.w3.org/Graphics/SVG/1.1/DTD/svg11.dtd">
<svg xmlns:xlink="http://www.w3.org/1999/xlink" width="617.683594pt" height="260.102906pt" viewBox="0 0 617.683594 260.102906" xmlns="http://www.w3.org/2000/svg" version="1.1">
 <metadata>
  <rdf:RDF xmlns:dc="http://purl.org/dc/elements/1.1/" xmlns:cc="http://creativecommons.org/ns#" xmlns:rdf="http://www.w3.org/1999/02/22-rdf-syntax-ns#">
   <cc:Work>
    <dc:type rdf:resource="http://purl.org/dc/dcmitype/StillImage"/>
    <dc:date>2026-07-14T07:01:49.373168</dc:date>
    <dc:format>image/svg+xml</dc:format>
    <dc:creator>
     <cc:Agent>
      <dc:title>Matplotlib v3.11.0, https://matplotlib.org/</dc:title>
     </cc:Agent>
    </dc:creator>
   </cc:Work>
  </rdf:RDF>
 </metadata>
 <defs>
  <style type="text/css">*{stroke-linejoin: round; stroke-linecap: butt}</style>
 </defs>
 <g id="figure_1">
  <g id="patch_1">
   <path d="M 0 260.102906 
L 617.683594 260.102906 
L 617.683594 0 
L 0 0 
z
" style="fill: #ffffff"/>
  </g>
  <g id="axes_1">
   <g id="patch_2">
    <path d="M 52.483594 221.902125 
L 610.483594 221.902125 
L 610.483594 22.318125 
L 52.483594 22.318125 
z
" style="fill: #ffffff"/>
   </g>
   <g id="matplotlib.axis_1">
    <g id="xtick_1">
     <g id="line2d_1">
      <path d="M 84.796172 221.902125 
L 84.796172 22.318125 
" clip-path="url(#pad9671e95e)" style="fill: none; stroke: #b0b0b0; stroke-opacity: 0.25; stroke-width: 0.8; stroke-linecap: square"/>
     </g>
     <g id="line2d_2">
      <defs>
       <path id="md49b426f59" d="M 0 0 
L 0 3.5 
" style="stroke: #000000; stroke-width: 0.8"/>
      </defs>
      <g>
       <use xlink:href="#md49b426f59" x="84.796172" y="221.902125" style="stroke: #000000; stroke-width: 0.8"/>
      </g>
     </g>
     <g id="text_1">
      <!-- 0.1 -->
      <g transform="translate(76.844609 236.499781) scale(0.1 -0.1)">
       <defs>
        <path id="DejaVuSans-13" d="M 2034 4250 
Q 1547 4250 1301 3770 
Q 1056 3291 1056 2328 
Q 1056 1369 1301 889 
Q 1547 409 2034 409 
Q 2525 409 2770 889 
Q 3016 1369 3016 2328 
Q 3016 3291 2770 3770 
Q 2525 4250 2034 4250 
z
M 2034 4750 
Q 2819 4750 3233 4129 
Q 3647 3509 3647 2328 
Q 3647 1150 3233 529 
Q 2819 -91 2034 -91 
Q 1250 -91 836 529 
Q 422 1150 422 2328 
Q 422 3509 836 4129 
Q 1250 4750 2034 4750 
z
" transform="scale(0.015625)"/>
        <path id="DejaVuSans-11" d="M 684 794 
L 1344 794 
L 1344 0 
L 684 0 
L 684 794 
z
" transform="scale(0.015625)"/>
        <path id="DejaVuSans-14" d="M 794 531 
L 1825 531 
L 1825 4091 
L 703 3866 
L 703 4441 
L 1819 4666 
L 2450 4666 
L 2450 531 
L 3481 531 
L 3481 0 
L 794 0 
L 794 531 
z
" transform="scale(0.015625)"/>
       </defs>
       <use xlink:href="#DejaVuSans-13"/>
       <use xlink:href="#DejaVuSans-11" transform="translate(63.625 0)"/>
       <use xlink:href="#DejaVuSans-14" transform="translate(95.40625 0)"/>
      </g>
     </g>
    </g>
    <g id="xtick_2">
     <g id="line2d_3">
      <path d="M 184.066764 221.902125 
L 184.066764 22.318125 
" clip-path="url(#pad9671e95e)" style="fill: none; stroke: #b0b0b0; stroke-opacity: 0.25; stroke-width: 0.8; stroke-linecap: square"/>
     </g>
     <g id="line2d_4">
      <g>
       <use xlink:href="#md49b426f59" x="184.066764" y="221.902125" style="stroke: #000000; stroke-width: 0.8"/>
      </g>
     </g>
     <g id="text_2">
      <!-- 0.2 -->
      <g transform="translate(176.115202 236.499781) scale(0.1 -0.1)">
       <defs>
        <path id="DejaVuSans-15" d="M 1228 531 
L 3431 531 
L 3431 0 
L 469 0 
L 469 531 
Q 828 903 1448 1529 
Q 2069 2156 2228 2338 
Q 2531 2678 2651 2914 
Q 2772 3150 2772 3378 
Q 2772 3750 2511 3984 
Q 2250 4219 1831 4219 
Q 1534 4219 1204 4116 
Q 875 4013 500 3803 
L 500 4441 
Q 881 4594 1212 4672 
Q 1544 4750 1819 4750 
Q 2544 4750 2975 4387 
Q 3406 4025 3406 3419 
Q 3406 3131 3298 2873 
Q 3191 2616 2906 2266 
Q 2828 2175 2409 1742 
Q 1991 1309 1228 531 
z
" transform="scale(0.015625)"/>
       </defs>
       <use xlink:href="#DejaVuSans-13"/>
       <use xlink:href="#DejaVuSans-11" transform="translate(63.625 0)"/>
       <use xlink:href="#DejaVuSans-15" transform="translate(95.40625 0)"/>
      </g>
     </g>
    </g>
    <g id="xtick_3">
     <g id="line2d_5">
      <path d="M 283.337356 221.902125 
L 283.337356 22.318125 
" clip-path="url(#pad9671e95e)" style="fill: none; stroke: #b0b0b0; stroke-opacity: 0.25; stroke-width: 0.8; stroke-linecap: square"/>
     </g>
     <g id="line2d_6">
      <g>
       <use xlink:href="#md49b426f59" x="283.337356" y="221.902125" style="stroke: #000000; stroke-width: 0.8"/>
      </g>
     </g>
     <g id="text_3">
      <!-- 0.3 -->
      <g transform="translate(275.385794 236.499781) scale(0.1 -0.1)">
       <defs>
        <path id="DejaVuSans-16" d="M 2597 2516 
Q 3050 2419 3304 2112 
Q 3559 1806 3559 1356 
Q 3559 666 3084 287 
Q 2609 -91 1734 -91 
Q 1441 -91 1130 -33 
Q 819 25 488 141 
L 488 750 
Q 750 597 1062 519 
Q 1375 441 1716 441 
Q 2309 441 2620 675 
Q 2931 909 2931 1356 
Q 2931 1769 2642 2001 
Q 2353 2234 1838 2234 
L 1294 2234 
L 1294 2753 
L 1863 2753 
Q 2328 2753 2575 2939 
Q 2822 3125 2822 3475 
Q 2822 3834 2567 4026 
Q 2313 4219 1838 4219 
Q 1578 4219 1281 4162 
Q 984 4106 628 3988 
L 628 4550 
Q 988 4650 1302 4700 
Q 1616 4750 1894 4750 
Q 2613 4750 3031 4423 
Q 3450 4097 3450 3541 
Q 3450 3153 3228 2886 
Q 3006 2619 2597 2516 
z
" transform="scale(0.015625)"/>
       </defs>
       <use xlink:href="#DejaVuSans-13"/>
       <use xlink:href="#DejaVuSans-11" transform="translate(63.625 0)"/>
       <use xlink:href="#DejaVuSans-16" transform="translate(95.40625 0)"/>
      </g>
     </g>
    </g>
    <g id="xtick_4">
     <g id="line2d_7">
      <path d="M 382.607949 221.902125 
L 382.607949 22.318125 
" clip-path="url(#pad9671e95e)" style="fill: none; stroke: #b0b0b0; stroke-opacity: 0.25; stroke-width: 0.8; stroke-linecap: square"/>
     </g>
     <g id="line2d_8">
      <g>
       <use xlink:href="#md49b426f59" x="382.607949" y="221.902125" style="stroke: #000000; stroke-width: 0.8"/>
      </g>
     </g>
     <g id="text_4">
      <!-- 0.4 -->
      <g transform="translate(374.656386 236.499781) scale(0.1 -0.1)">
       <defs>
        <path id="DejaVuSans-17" d="M 2419 4116 
L 825 1625 
L 2419 1625 
L 2419 4116 
z
M 2253 4666 
L 3047 4666 
L 3047 1625 
L 3713 1625 
L 3713 1100 
L 3047 1100 
L 3047 0 
L 2419 0 
L 2419 1100 
L 313 1100 
L 313 1709 
L 2253 4666 
z
" transform="scale(0.015625)"/>
       </defs>
       <use xlink:href="#DejaVuSans-13"/>
       <use xlink:href="#DejaVuSans-11" transform="translate(63.625 0)"/>
       <use xlink:href="#DejaVuSans-17" transform="translate(95.40625 0)"/>
      </g>
     </g>
    </g>
    <g id="xtick_5">
     <g id="line2d_9">
      <path d="M 481.878541 221.902125 
L 481.878541 22.318125 
" clip-path="url(#pad9671e95e)" style="fill: none; stroke: #b0b0b0; stroke-opacity: 0.25; stroke-width: 0.8; stroke-linecap: square"/>
     </g>
     <g id="line2d_10">
      <g>
       <use xlink:href="#md49b426f59" x="481.878541" y="221.902125" style="stroke: #000000; stroke-width: 0.8"/>
      </g>
     </g>
     <g id="text_5">
      <!-- 0.5 -->
      <g transform="translate(473.926979 236.499781) scale(0.1 -0.1)">
       <defs>
        <path id="DejaVuSans-18" d="M 691 4666 
L 3169 4666 
L 3169 4134 
L 1269 4134 
L 1269 2991 
Q 1406 3038 1543 3061 
Q 1681 3084 1819 3084 
Q 2600 3084 3056 2656 
Q 3513 2228 3513 1497 
Q 3513 744 3044 326 
Q 2575 -91 1722 -91 
Q 1428 -91 1123 -41 
Q 819 9 494 109 
L 494 744 
Q 775 591 1075 516 
Q 1375 441 1709 441 
Q 2250 441 2565 725 
Q 2881 1009 2881 1497 
Q 2881 1984 2565 2268 
Q 2250 2553 1709 2553 
Q 1456 2553 1204 2497 
Q 953 2441 691 2322 
L 691 4666 
z
" transform="scale(0.015625)"/>
       </defs>
       <use xlink:href="#DejaVuSans-13"/>
       <use xlink:href="#DejaVuSans-11" transform="translate(63.625 0)"/>
       <use xlink:href="#DejaVuSans-18" transform="translate(95.40625 0)"/>
      </g>
     </g>
    </g>
    <g id="xtick_6">
     <g id="line2d_11">
      <path d="M 581.149134 221.902125 
L 581.149134 22.318125 
" clip-path="url(#pad9671e95e)" style="fill: none; stroke: #b0b0b0; stroke-opacity: 0.25; stroke-width: 0.8; stroke-linecap: square"/>
     </g>
     <g id="line2d_12">
      <g>
       <use xlink:href="#md49b426f59" x="581.149134" y="221.902125" style="stroke: #000000; stroke-width: 0.8"/>
      </g>
     </g>
     <g id="text_6">
      <!-- 0.6 -->
      <g transform="translate(573.197571 236.499781) scale(0.1 -0.1)">
       <defs>
        <path id="DejaVuSans-19" d="M 2113 2584 
Q 1688 2584 1439 2293 
Q 1191 2003 1191 1497 
Q 1191 994 1439 701 
Q 1688 409 2113 409 
Q 2538 409 2786 701 
Q 3034 994 3034 1497 
Q 3034 2003 2786 2293 
Q 2538 2584 2113 2584 
z
M 3366 4563 
L 3366 3988 
Q 3128 4100 2886 4159 
Q 2644 4219 2406 4219 
Q 1781 4219 1451 3797 
Q 1122 3375 1075 2522 
Q 1259 2794 1537 2939 
Q 1816 3084 2150 3084 
Q 2853 3084 3261 2657 
Q 3669 2231 3669 1497 
Q 3669 778 3244 343 
Q 2819 -91 2113 -91 
Q 1303 -91 875 529 
Q 447 1150 447 2328 
Q 447 3434 972 4092 
Q 1497 4750 2381 4750 
Q 2619 4750 2861 4703 
Q 3103 4656 3366 4563 
z
" transform="scale(0.015625)"/>
       </defs>
       <use xlink:href="#DejaVuSans-13"/>
       <use xlink:href="#DejaVuSans-11" transform="translate(63.625 0)"/>
       <use xlink:href="#DejaVuSans-19" transform="translate(95.40625 0)"/>
      </g>
     </g>
    </g>
    <g id="text_7">
     <!-- Time (s) -->
     <g transform="translate(311.152344 250.500563) scale(0.1 -0.1)">
      <defs>
       <path id="DejaVuSans-37" d="M -19 4666 
L 3928 4666 
L 3928 4134 
L 2272 4134 
L 2272 0 
L 1638 0 
L 1638 4134 
L -19 4134 
L -19 4666 
z
" transform="scale(0.015625)"/>
       <path id="DejaVuSans-4c" d="M 603 3500 
L 1178 3500 
L 1178 0 
L 603 0 
L 603 3500 
z
M 603 4863 
L 1178 4863 
L 1178 4134 
L 603 4134 
L 603 4863 
z
" transform="scale(0.015625)"/>
       <path id="DejaVuSans-50" d="M 3328 2828 
Q 3544 3216 3844 3400 
Q 4144 3584 4550 3584 
Q 5097 3584 5394 3201 
Q 5691 2819 5691 2113 
L 5691 0 
L 5113 0 
L 5113 2094 
Q 5113 2597 4934 2840 
Q 4756 3084 4391 3084 
Q 3944 3084 3684 2787 
Q 3425 2491 3425 1978 
L 3425 0 
L 2847 0 
L 2847 2094 
Q 2847 2600 2669 2842 
Q 2491 3084 2119 3084 
Q 1678 3084 1418 2786 
Q 1159 2488 1159 1978 
L 1159 0 
L 581 0 
L 581 3500 
L 1159 3500 
L 1159 2956 
Q 1356 3278 1631 3431 
Q 1906 3584 2284 3584 
Q 2666 3584 2933 3390 
Q 3200 3197 3328 2828 
z
" transform="scale(0.015625)"/>
       <path id="DejaVuSans-48" d="M 3597 1894 
L 3597 1613 
L 953 1613 
Q 991 1019 1311 708 
Q 1631 397 2203 397 
Q 2534 397 2845 478 
Q 3156 559 3463 722 
L 3463 178 
Q 3153 47 2828 -22 
Q 2503 -91 2169 -91 
Q 1331 -91 842 396 
Q 353 884 353 1716 
Q 353 2575 817 3079 
Q 1281 3584 2069 3584 
Q 2775 3584 3186 3129 
Q 3597 2675 3597 1894 
z
M 3022 2063 
Q 3016 2534 2758 2815 
Q 2500 3097 2075 3097 
Q 1594 3097 1305 2825 
Q 1016 2553 972 2059 
L 3022 2063 
z
" transform="scale(0.015625)"/>
       <path id="DejaVuSans-3" transform="scale(0.015625)"/>
       <path id="DejaVuSans-b" d="M 1984 4856 
Q 1566 4138 1362 3434 
Q 1159 2731 1159 2009 
Q 1159 1288 1364 580 
Q 1569 -128 1984 -844 
L 1484 -844 
Q 1016 -109 783 600 
Q 550 1309 550 2009 
Q 550 2706 781 3412 
Q 1013 4119 1484 4856 
L 1984 4856 
z
" transform="scale(0.015625)"/>
       <path id="DejaVuSans-56" d="M 2834 3397 
L 2834 2853 
Q 2591 2978 2328 3040 
Q 2066 3103 1784 3103 
Q 1356 3103 1142 2972 
Q 928 2841 928 2578 
Q 928 2378 1081 2264 
Q 1234 2150 1697 2047 
L 1894 2003 
Q 2506 1872 2764 1633 
Q 3022 1394 3022 966 
Q 3022 478 2636 193 
Q 2250 -91 1575 -91 
Q 1294 -91 989 -36 
Q 684 19 347 128 
L 347 722 
Q 666 556 975 473 
Q 1284 391 1588 391 
Q 1994 391 2212 530 
Q 2431 669 2431 922 
Q 2431 1156 2273 1281 
Q 2116 1406 1581 1522 
L 1381 1569 
Q 847 1681 609 1914 
Q 372 2147 372 2553 
Q 372 3047 722 3315 
Q 1072 3584 1716 3584 
Q 2034 3584 2315 3537 
Q 2597 3491 2834 3397 
z
" transform="scale(0.015625)"/>
       <path id="DejaVuSans-c" d="M 513 4856 
L 1013 4856 
Q 1481 4119 1714 3412 
Q 1947 2706 1947 2009 
Q 1947 1309 1714 600 
Q 1481 -109 1013 -844 
L 513 -844 
Q 928 -128 1133 580 
Q 1338 1288 1338 2009 
Q 1338 2731 1133 3434 
Q 928 4138 513 4856 
z
" transform="scale(0.015625)"/>
      </defs>
      <use xlink:href="#DejaVuSans-37"/>
      <use xlink:href="#DejaVuSans-4c" transform="translate(58 0)"/>
      <use xlink:href="#DejaVuSans-50" transform="translate(85.78125 0)"/>
      <use xlink:href="#DejaVuSans-48" transform="translate(183.1875 0)"/>
      <use xlink:href="#DejaVuSans-3" transform="translate(244.71875 0)"/>
      <use xlink:href="#DejaVuSans-b" transform="translate(276.5 0)"/>
      <use xlink:href="#DejaVuSans-56" transform="translate(315.515625 0)"/>
      <use xlink:href="#DejaVuSans-c" transform="translate(367.609375 0)"/>
     </g>
    </g>
   </g>
   <g id="matplotlib.axis_2">
    <g id="ytick_1">
     <g id="line2d_13">
      <path d="M 52.483594 193.447442 
L 610.483594 193.447442 
" clip-path="url(#pad9671e95e)" style="fill: none; stroke: #b0b0b0; stroke-opacity: 0.25; stroke-width: 0.8; stroke-linecap: square"/>
     </g>
     <g id="line2d_14">
      <defs>
       <path id="m7f78820f3b" d="M 0 0 
L -3.5 0 
" style="stroke: #000000; stroke-width: 0.8"/>
      </defs>
      <g>
       <use xlink:href="#m7f78820f3b" x="52.483594" y="193.447442" style="stroke: #000000; stroke-width: 0.8"/>
      </g>
     </g>
     <g id="text_8">
      <!-- −1.0 -->
      <g transform="translate(21.200781 197.24627) scale(0.1 -0.1)">
       <defs>
        <path id="DejaVuSans-c9c" d="M 678 2272 
L 4684 2272 
L 4684 1741 
L 678 1741 
L 678 2272 
z
" transform="scale(0.015625)"/>
       </defs>
       <use xlink:href="#DejaVuSans-c9c"/>
       <use xlink:href="#DejaVuSans-14" transform="translate(83.796875 0)"/>
       <use xlink:href="#DejaVuSans-11" transform="translate(147.421875 0)"/>
       <use xlink:href="#DejaVuSans-13" transform="translate(179.203125 0)"/>
      </g>
     </g>
    </g>
    <g id="ytick_2">
     <g id="line2d_15">
      <path d="M 52.483594 156.85723 
L 610.483594 156.85723 
" clip-path="url(#pad9671e95e)" style="fill: none; stroke: #b0b0b0; stroke-opacity: 0.25; stroke-width: 0.8; stroke-linecap: square"/>
     </g>
     <g id="line2d_16">
      <g>
       <use xlink:href="#m7f78820f3b" x="52.483594" y="156.85723" style="stroke: #000000; stroke-width: 0.8"/>
      </g>
     </g>
     <g id="text_9">
      <!-- −0.5 -->
      <g transform="translate(21.200781 160.656058) scale(0.1 -0.1)">
       <use xlink:href="#DejaVuSans-c9c"/>
       <use xlink:href="#DejaVuSans-13" transform="translate(83.796875 0)"/>
       <use xlink:href="#DejaVuSans-11" transform="translate(147.421875 0)"/>
       <use xlink:href="#DejaVuSans-18" transform="translate(179.203125 0)"/>
      </g>
     </g>
    </g>
    <g id="ytick_3">
     <g id="line2d_17">
      <path d="M 52.483594 120.267018 
L 610.483594 120.267018 
" clip-path="url(#pad9671e95e)" style="fill: none; stroke: #b0b0b0; stroke-opacity: 0.25; stroke-width: 0.8; stroke-linecap: square"/>
     </g>
     <g id="line2d_18">
      <g>
       <use xlink:href="#m7f78820f3b" x="52.483594" y="120.267018" style="stroke: #000000; stroke-width: 0.8"/>
      </g>
     </g>
     <g id="text_10">
      <!-- 0.0 -->
      <g transform="translate(29.580469 124.065846) scale(0.1 -0.1)">
       <use xlink:href="#DejaVuSans-13"/>
       <use xlink:href="#DejaVuSans-11" transform="translate(63.625 0)"/>
       <use xlink:href="#DejaVuSans-13" transform="translate(95.40625 0)"/>
      </g>
     </g>
    </g>
    <g id="ytick_4">
     <g id="line2d_19">
      <path d="M 52.483594 83.676806 
L 610.483594 83.676806 
" clip-path="url(#pad9671e95e)" style="fill: none; stroke: #b0b0b0; stroke-opacity: 0.25; stroke-width: 0.8; stroke-linecap: square"/>
     </g>
     <g id="line2d_20">
      <g>
       <use xlink:href="#m7f78820f3b" x="52.483594" y="83.676806" style="stroke: #000000; stroke-width: 0.8"/>
      </g>
     </g>
     <g id="text_11">
      <!-- 0.5 -->
      <g transform="translate(29.580469 87.475634) scale(0.1 -0.1)">
       <use xlink:href="#DejaVuSans-13"/>
       <use xlink:href="#DejaVuSans-11" transform="translate(63.625 0)"/>
       <use xlink:href="#DejaVuSans-18" transform="translate(95.40625 0)"/>
      </g>
     </g>
    </g>
    <g id="ytick_5">
     <g id="line2d_21">
      <path d="M 52.483594 47.086593 
L 610.483594 47.086593 
" clip-path="url(#pad9671e95e)" style="fill: none; stroke: #b0b0b0; stroke-opacity: 0.25; stroke-width: 0.8; stroke-linecap: square"/>
     </g>
     <g id="line2d_22">
      <g>
       <use xlink:href="#m7f78820f3b" x="52.483594" y="47.086593" style="stroke: #000000; stroke-width: 0.8"/>
      </g>
     </g>
     <g id="text_12">
      <!-- 1.0 -->
      <g transform="translate(29.580469 50.885422) scale(0.1 -0.1)">
       <use xlink:href="#DejaVuSans-14"/>
       <use xlink:href="#DejaVuSans-11" transform="translate(63.625 0)"/>
       <use xlink:href="#DejaVuSans-13" transform="translate(95.40625 0)"/>
      </g>
     </g>
    </g>
    <g id="text_13">
     <!-- Amplitude (physical unit) -->
     <g transform="translate(14.798438 184.997625) rotate(-90) scale(0.1 -0.1)">
      <defs>
       <path id="DejaVuSans-24" d="M 2188 4044 
L 1331 1722 
L 3047 1722 
L 2188 4044 
z
M 1831 4666 
L 2547 4666 
L 4325 0 
L 3669 0 
L 3244 1197 
L 1141 1197 
L 716 0 
L 50 0 
L 1831 4666 
z
" transform="scale(0.015625)"/>
       <path id="DejaVuSans-53" d="M 1159 525 
L 1159 -1331 
L 581 -1331 
L 581 3500 
L 1159 3500 
L 1159 2969 
Q 1341 3281 1617 3432 
Q 1894 3584 2278 3584 
Q 2916 3584 3314 3078 
Q 3713 2572 3713 1747 
Q 3713 922 3314 415 
Q 2916 -91 2278 -91 
Q 1894 -91 1617 61 
Q 1341 213 1159 525 
z
M 3116 1747 
Q 3116 2381 2855 2742 
Q 2594 3103 2138 3103 
Q 1681 3103 1420 2742 
Q 1159 2381 1159 1747 
Q 1159 1113 1420 752 
Q 1681 391 2138 391 
Q 2594 391 2855 752 
Q 3116 1113 3116 1747 
z
" transform="scale(0.015625)"/>
       <path id="DejaVuSans-4f" d="M 603 4863 
L 1178 4863 
L 1178 0 
L 603 0 
L 603 4863 
z
" transform="scale(0.015625)"/>
       <path id="DejaVuSans-57" d="M 1172 4494 
L 1172 3500 
L 2356 3500 
L 2356 3053 
L 1172 3053 
L 1172 1153 
Q 1172 725 1289 603 
Q 1406 481 1766 481 
L 2356 481 
L 2356 0 
L 1766 0 
Q 1100 0 847 248 
Q 594 497 594 1153 
L 594 3053 
L 172 3053 
L 172 3500 
L 594 3500 
L 594 4494 
L 1172 4494 
z
" transform="scale(0.015625)"/>
       <path id="DejaVuSans-58" d="M 544 1381 
L 544 3500 
L 1119 3500 
L 1119 1403 
Q 1119 906 1312 657 
Q 1506 409 1894 409 
Q 2359 409 2629 706 
Q 2900 1003 2900 1516 
L 2900 3500 
L 3475 3500 
L 3475 0 
L 2900 0 
L 2900 538 
Q 2691 219 2414 64 
Q 2138 -91 1772 -91 
Q 1169 -91 856 284 
Q 544 659 544 1381 
z
M 1991 3584 
L 1991 3584 
z
" transform="scale(0.015625)"/>
       <path id="DejaVuSans-47" d="M 2906 2969 
L 2906 4863 
L 3481 4863 
L 3481 0 
L 2906 0 
L 2906 525 
Q 2725 213 2448 61 
Q 2172 -91 1784 -91 
Q 1150 -91 751 415 
Q 353 922 353 1747 
Q 353 2572 751 3078 
Q 1150 3584 1784 3584 
Q 2172 3584 2448 3432 
Q 2725 3281 2906 2969 
z
M 947 1747 
Q 947 1113 1208 752 
Q 1469 391 1925 391 
Q 2381 391 2643 752 
Q 2906 1113 2906 1747 
Q 2906 2381 2643 2742 
Q 2381 3103 1925 3103 
Q 1469 3103 1208 2742 
Q 947 2381 947 1747 
z
" transform="scale(0.015625)"/>
       <path id="DejaVuSans-4b" d="M 3513 2113 
L 3513 0 
L 2938 0 
L 2938 2094 
Q 2938 2591 2744 2837 
Q 2550 3084 2163 3084 
Q 1697 3084 1428 2787 
Q 1159 2491 1159 1978 
L 1159 0 
L 581 0 
L 581 4863 
L 1159 4863 
L 1159 2956 
Q 1366 3272 1645 3428 
Q 1925 3584 2291 3584 
Q 2894 3584 3203 3211 
Q 3513 2838 3513 2113 
z
" transform="scale(0.015625)"/>
       <path id="DejaVuSans-5c" d="M 2059 -325 
Q 1816 -950 1584 -1140 
Q 1353 -1331 966 -1331 
L 506 -1331 
L 506 -850 
L 844 -850 
Q 1081 -850 1212 -737 
Q 1344 -625 1503 -206 
L 1606 56 
L 191 3500 
L 800 3500 
L 1894 763 
L 2988 3500 
L 3597 3500 
L 2059 -325 
z
" transform="scale(0.015625)"/>
       <path id="DejaVuSans-46" d="M 3122 3366 
L 3122 2828 
Q 2878 2963 2633 3030 
Q 2388 3097 2138 3097 
Q 1578 3097 1268 2742 
Q 959 2388 959 1747 
Q 959 1106 1268 751 
Q 1578 397 2138 397 
Q 2388 397 2633 464 
Q 2878 531 3122 666 
L 3122 134 
Q 2881 22 2623 -34 
Q 2366 -91 2075 -91 
Q 1284 -91 818 406 
Q 353 903 353 1747 
Q 353 2603 823 3093 
Q 1294 3584 2113 3584 
Q 2378 3584 2631 3529 
Q 2884 3475 3122 3366 
z
" transform="scale(0.015625)"/>
       <path id="DejaVuSans-44" d="M 2194 1759 
Q 1497 1759 1228 1600 
Q 959 1441 959 1056 
Q 959 750 1161 570 
Q 1363 391 1709 391 
Q 2188 391 2477 730 
Q 2766 1069 2766 1631 
L 2766 1759 
L 2194 1759 
z
M 3341 1997 
L 3341 0 
L 2766 0 
L 2766 531 
Q 2569 213 2275 61 
Q 1981 -91 1556 -91 
Q 1019 -91 701 211 
Q 384 513 384 1019 
Q 384 1609 779 1909 
Q 1175 2209 1959 2209 
L 2766 2209 
L 2766 2266 
Q 2766 2663 2505 2880 
Q 2244 3097 1772 3097 
Q 1472 3097 1187 3025 
Q 903 2953 641 2809 
L 641 3341 
Q 956 3463 1253 3523 
Q 1550 3584 1831 3584 
Q 2591 3584 2966 3190 
Q 3341 2797 3341 1997 
z
" transform="scale(0.015625)"/>
       <path id="DejaVuSans-51" d="M 3513 2113 
L 3513 0 
L 2938 0 
L 2938 2094 
Q 2938 2591 2744 2837 
Q 2550 3084 2163 3084 
Q 1697 3084 1428 2787 
Q 1159 2491 1159 1978 
L 1159 0 
L 581 0 
L 581 3500 
L 1159 3500 
L 1159 2956 
Q 1366 3272 1645 3428 
Q 1925 3584 2291 3584 
Q 2894 3584 3203 3211 
Q 3513 2838 3513 2113 
z
" transform="scale(0.015625)"/>
      </defs>
      <use xlink:href="#DejaVuSans-24"/>
      <use xlink:href="#DejaVuSans-50" transform="translate(68.40625 0)"/>
      <use xlink:href="#DejaVuSans-53" transform="translate(165.8125 0)"/>
      <use xlink:href="#DejaVuSans-4f" transform="translate(229.296875 0)"/>
      <use xlink:href="#DejaVuSans-4c" transform="translate(257.078125 0)"/>
      <use xlink:href="#DejaVuSans-57" transform="translate(284.859375 0)"/>
      <use xlink:href="#DejaVuSans-58" transform="translate(324.0625 0)"/>
      <use xlink:href="#DejaVuSans-47" transform="translate(387.4375 0)"/>
      <use xlink:href="#DejaVuSans-48" transform="translate(450.921875 0)"/>
      <use xlink:href="#DejaVuSans-3" transform="translate(512.453125 0)"/>
      <use xlink:href="#DejaVuSans-b" transform="translate(544.234375 0)"/>
      <use xlink:href="#DejaVuSans-53" transform="translate(583.25 0)"/>
      <use xlink:href="#DejaVuSans-4b" transform="translate(646.734375 0)"/>
      <use xlink:href="#DejaVuSans-5c" transform="translate(710.109375 0)"/>
      <use xlink:href="#DejaVuSans-56" transform="translate(769.296875 0)"/>
      <use xlink:href="#DejaVuSans-4c" transform="translate(821.390625 0)"/>
      <use xlink:href="#DejaVuSans-46" transform="translate(849.171875 0)"/>
      <use xlink:href="#DejaVuSans-44" transform="translate(904.15625 0)"/>
      <use xlink:href="#DejaVuSans-4f" transform="translate(965.4375 0)"/>
      <use xlink:href="#DejaVuSans-3" transform="translate(993.21875 0)"/>
      <use xlink:href="#DejaVuSans-58" transform="translate(1025 0)"/>
      <use xlink:href="#DejaVuSans-51" transform="translate(1088.375 0)"/>
      <use xlink:href="#DejaVuSans-4c" transform="translate(1151.75 0)"/>
      <use xlink:href="#DejaVuSans-57" transform="translate(1179.53125 0)"/>
      <use xlink:href="#DejaVuSans-c" transform="translate(1218.734375 0)"/>
     </g>
    </g>
   </g>
   <g id="line2d_23">
    <path d="M 77.84723 191.661228 
L 78.839936 160.406507 
L 79.832642 143.752711 
L 80.825348 182.152325 
L 81.818054 138.284536 
L 82.81076 130.626828 
L 83.803466 159.319472 
L 84.796172 113.183312 
L 85.788878 84.771368 
L 86.781583 126.836109 
L 87.774289 100.843942 
L 88.766995 53.723937 
L 89.759701 115.015552 
L 90.752407 117.228576 
L 91.745113 44.706852 
L 93.730525 117.270126 
L 94.723231 66.647132 
L 95.715937 96.676611 
L 96.708643 139.433834 
L 97.701349 92.23397 
L 98.694055 119.861786 
L 99.68676 186.39993 
L 100.679466 123.000256 
L 101.672172 143.913693 
L 102.664878 196.686328 
L 103.657584 146.633987 
L 104.65029 146.784323 
L 105.642996 195.555163 
L 106.635702 149.977554 
L 107.628408 114.487231 
L 108.621114 170.55601 
L 109.61382 112.069195 
L 110.606526 69.655903 
L 111.599232 116.392468 
L 112.591937 107.228632 
L 113.584643 48.731763 
L 114.577349 98.922173 
L 115.570055 94.482702 
L 116.562761 40.921995 
L 117.555467 112.350899 
L 118.548173 115.977593 
L 119.540879 83.219891 
L 121.526291 143.646842 
L 122.518997 86.683072 
L 124.504409 165.943348 
L 125.497114 123.790137 
L 126.48982 134.978762 
L 127.482526 212.731787 
L 128.475232 153.40202 
L 129.467938 150.334759 
L 130.460644 212.830125 
L 131.45335 138.784683 
L 132.446056 107.187184 
L 133.438762 148.143037 
L 134.431468 124.621183 
L 135.424174 62.099085 
L 136.41688 131.810546 
L 137.409586 112.191459 
L 138.402291 49.662816 
L 139.394997 102.931191 
L 140.387703 102.324818 
L 141.380409 39.123481 
L 142.373115 106.359419 
L 143.365821 112.761757 
L 144.358527 57.692836 
L 145.351233 98.699235 
L 146.343939 130.927243 
L 147.336645 92.871896 
L 148.329351 131.693823 
L 149.322057 178.665263 
L 150.314763 126.995847 
L 151.307469 151.342931 
L 152.300174 209.256748 
L 153.29288 138.782956 
L 154.285586 146.426696 
L 155.278292 186.68483 
L 156.270998 153.35107 
L 157.263704 115.974309 
L 158.25641 159.021184 
L 159.249116 124.65075 
L 160.241822 78.314687 
L 161.234528 119.583803 
L 162.227234 88.945348 
L 163.21994 54.264943 
L 164.212646 98.049502 
L 165.205351 108.517983 
L 166.198057 31.390125 
L 167.190763 103.557474 
L 168.183469 105.405216 
L 169.176175 82.527347 
L 170.168881 105.735156 
L 171.161587 150.133085 
L 172.154293 100.396314 
L 173.146999 135.377571 
L 174.139705 181.086281 
L 175.132411 118.329135 
L 176.125117 142.459914 
L 177.117823 195.689609 
L 178.110528 134.976276 
L 179.103234 144.205085 
L 180.09594 204.008164 
L 181.088646 132.685746 
L 182.081352 112.76027 
L 183.074058 154.323498 
L 184.066764 121.661852 
L 185.05947 81.708696 
L 186.052176 125.285291 
L 187.044882 114.615408 
L 188.037588 63.01776 
L 189.030294 94.544178 
L 190.023 102.697544 
L 191.015705 52.503703 
L 192.008411 99.523113 
L 193.001117 113.960506 
L 193.993823 70.946918 
L 194.986529 102.266908 
L 195.979235 148.775413 
L 196.971941 88.796969 
L 197.964647 128.169105 
L 198.957353 175.606675 
L 199.950059 117.537187 
L 200.942765 141.966858 
L 201.935471 205.190976 
L 202.928177 137.638762 
L 203.920882 130.398653 
L 204.913588 182.292295 
L 206.899 110.049813 
L 207.891706 158.405846 
L 208.884412 113.471416 
L 209.877118 81.623459 
L 210.869824 129.101953 
L 211.86253 114.513939 
L 212.855236 63.1564 
L 213.847942 83.726264 
L 214.840648 93.557358 
L 215.833354 57.177477 
L 216.82606 102.391713 
L 217.818765 119.639822 
L 218.811471 86.573661 
L 219.804177 116.27648 
L 220.796883 130.557876 
L 221.789589 94.718736 
L 222.782295 135.530205 
L 223.775001 170.188824 
L 224.767707 122.591093 
L 225.760413 146.635746 
L 226.753119 183.347081 
L 227.745825 152.699512 
L 228.738531 145.297051 
L 229.731237 170.007329 
L 230.723942 156.26382 
L 231.716648 115.20276 
L 232.709354 163.851829 
L 233.70206 130.290112 
L 234.694766 91.016905 
L 235.687472 122.194537 
L 236.680178 108.141907 
L 237.672884 56.075495 
L 238.66559 88.09955 
L 239.658296 88.063264 
L 240.651002 42.340741 
L 242.636414 117.13685 
L 243.629119 70.951545 
L 245.614531 143.579879 
L 246.607237 93.993669 
L 247.599943 126.045568 
L 248.592649 176.901021 
L 249.585355 141.78786 
L 250.578061 155.110094 
L 251.570767 182.692635 
L 252.563473 147.18665 
L 253.556179 131.550832 
L 254.548885 161.263127 
L 255.541591 143.58073 
L 256.534296 130.03044 
L 257.527002 170.302001 
L 258.519708 120.749565 
L 259.512414 82.093971 
L 260.50512 128.107784 
L 261.497826 115.149871 
L 262.490532 60.709688 
L 263.483238 99.341145 
L 264.475944 100.764946 
L 265.46865 46.721874 
L 266.461356 96.740785 
L 267.454062 109.00036 
L 268.446768 74.189116 
L 269.439473 108.881792 
L 270.432179 135.602059 
L 271.424885 103.133873 
L 272.417591 126.87493 
L 273.410297 181.313131 
L 274.403003 114.787324 
L 276.388415 183.604906 
L 277.381121 145.214365 
L 278.373827 137.037714 
L 279.366533 176.89602 
L 280.359239 136.733703 
L 281.351945 130.964082 
L 282.344651 161.404161 
L 283.337356 119.084211 
L 284.330062 88.353908 
L 285.322768 116.647189 
L 286.315474 98.381871 
L 287.30818 46.007973 
L 288.300886 102.754766 
L 289.293592 107.121612 
L 290.286298 47.39475 
L 291.279004 100.756373 
L 292.27171 114.912405 
L 293.264416 64.256019 
L 294.257122 119.089891 
L 295.249828 136.891181 
L 296.242533 116.672154 
L 297.235239 140.720379 
L 298.227945 173.589722 
L 299.220651 127.000663 
L 300.213357 122.098095 
L 301.206063 173.303804 
L 302.198769 149.774289 
L 303.191475 150.656229 
L 304.184181 198.555113 
L 305.176887 140.650129 
L 306.169593 112.137456 
L 307.162299 165.809723 
L 308.155005 130.645916 
L 309.14771 69.15667 
L 310.140416 120.575758 
L 311.133122 109.246488 
L 312.125828 42.276678 
L 313.118534 102.511571 
L 314.11124 111.699632 
L 315.103946 44.521154 
L 316.096652 87.281086 
L 317.089358 111.44079 
L 318.082064 60.783184 
L 319.07477 112.461333 
L 320.067476 140.694299 
L 321.060182 93.371755 
L 322.052887 130.947658 
L 323.045593 191.767377 
L 324.038299 131.48138 
L 325.031005 124.330015 
L 326.023711 183.348582 
L 327.016417 142.996257 
L 328.009123 152.476037 
L 329.001829 183.106342 
L 329.994535 152.565056 
L 330.987241 111.451108 
L 331.979947 168.219281 
L 332.972653 132.313143 
L 333.965359 67.10514 
L 334.958064 131.721143 
L 335.95077 108.496362 
L 336.943476 62.047029 
L 337.936182 104.317891 
L 338.928888 91.897377 
L 339.921594 54.682547 
L 340.9143 86.812265 
L 341.907006 104.245462 
L 342.899712 78.125182 
L 344.885124 146.50176 
L 345.87783 87.012698 
L 346.870536 138.262627 
L 347.863241 161.675143 
L 348.855947 120.860777 
L 349.848653 154.771597 
L 350.841359 192.694742 
L 351.834065 132.335992 
L 352.826771 140.123113 
L 353.819477 193.578569 
L 355.804889 100.073193 
L 356.797595 148.620238 
L 357.790301 120.154831 
L 358.783007 86.053955 
L 359.775713 134.940346 
L 360.768419 102.336971 
L 361.761124 52.10147 
L 362.75383 116.297178 
L 363.746536 104.310374 
L 364.739242 38.291478 
L 365.731948 101.246977 
L 366.724654 101.503942 
L 367.71736 64.923657 
L 369.702772 141.55868 
L 370.695478 107.941225 
L 371.688184 154.650705 
L 372.68089 173.696451 
L 373.673596 138.795174 
L 374.666301 145.328827 
L 375.659007 186.37168 
L 376.651713 130.623707 
L 377.644419 135.139982 
L 378.637125 187.553754 
L 379.629831 115.606553 
L 380.622537 127.551139 
L 381.615243 160.329438 
L 382.607949 116.691254 
L 383.600655 91.759692 
L 384.593361 126.807172 
L 385.586067 98.803058 
L 386.578773 53.224167 
L 387.571478 105.193786 
L 388.564184 107.267769 
L 389.55689 46.765482 
L 390.549596 89.548442 
L 391.542302 100.464435 
L 392.535008 65.979896 
L 393.527714 105.853705 
L 394.52042 162.38661 
L 395.513126 103.747649 
L 396.505832 123.294166 
L 397.498538 185.979146 
L 398.491244 112.260894 
L 400.476655 189.815328 
L 401.469361 152.52843 
L 402.462067 141.073782 
L 403.454773 180.60811 
L 405.440185 108.425863 
L 406.432891 183.077874 
L 407.425597 129.065266 
L 408.418303 81.135425 
L 409.411009 112.725428 
L 410.403715 98.67741 
L 411.396421 55.465814 
L 412.389127 78.998129 
L 413.381832 94.753104 
L 414.374538 40.485568 
L 415.367244 104.783623 
L 416.35995 115.233122 
L 417.352656 66.731245 
L 418.345362 110.810227 
L 419.338068 136.61616 
L 420.330774 101.728776 
L 421.32348 127.480198 
L 422.316186 184.027684 
L 423.308892 113.007006 
L 424.301598 153.993212 
L 425.294304 203.461238 
L 426.28701 129.165096 
L 427.279715 139.721752 
L 428.272421 179.055636 
L 429.265127 146.456344 
L 430.257833 129.871599 
L 431.250539 164.542206 
L 432.243245 105.659153 
L 433.235951 83.924777 
L 434.228657 135.489531 
L 435.221363 100.077536 
L 436.214069 57.049684 
L 437.206775 92.65731 
L 438.199481 85.822859 
L 439.192187 50.404725 
L 440.184892 103.409329 
L 441.177598 131.834978 
L 442.170304 66.154524 
L 444.155716 147.321132 
L 445.148422 102.024068 
L 446.141128 126.693398 
L 447.133834 171.035943 
L 448.12654 119.285297 
L 449.119246 131.55476 
L 450.111952 202.665866 
L 451.104658 140.390056 
L 452.097364 154.327719 
L 453.090069 202.601583 
L 454.082775 128.025821 
L 455.075481 100.908284 
L 456.068187 146.945111 
L 457.060893 115.632675 
L 458.053599 88.984912 
L 459.046305 133.119927 
L 460.039011 103.624564 
L 461.031717 58.572452 
L 462.024423 101.558157 
L 463.017129 108.543936 
L 464.009835 52.922087 
L 465.002541 85.917989 
L 465.995246 107.679171 
L 466.987952 61.521312 
L 467.980658 115.356462 
L 468.973364 144.275561 
L 469.96607 107.636363 
L 470.958776 126.756451 
L 471.951482 182.576601 
L 472.944188 125.054456 
L 473.936894 137.626466 
L 474.9296 194.530569 
L 475.922306 146.081403 
L 476.915012 143.077949 
L 477.907718 188.88589 
L 478.900423 133.289827 
L 479.893129 107.462147 
L 480.885835 150.003216 
L 481.878541 122.745856 
L 482.871247 88.690432 
L 483.863953 120.746056 
L 484.856659 101.325344 
L 485.849365 45.370072 
L 486.842071 106.684635 
L 487.834777 93.982995 
L 488.827483 69.320737 
L 489.820189 104.634307 
L 490.812895 101.827441 
L 491.805601 66.167973 
L 492.798306 93.353533 
L 493.791012 132.730667 
L 494.783718 100.914193 
L 495.776424 126.892448 
L 496.76913 174.587167 
L 497.761836 130.818934 
L 498.754542 143.499322 
L 499.747248 200.076302 
L 500.739954 155.822167 
L 501.73266 141.116201 
L 502.725366 179.016081 
L 503.718072 156.868425 
L 504.710778 116.263015 
L 505.703483 136.824187 
L 506.696189 129.068322 
L 507.688895 91.102849 
L 508.681601 133.151694 
L 510.667013 62.978236 
L 511.659719 96.43055 
L 512.652425 93.64671 
L 513.645131 56.317264 
L 514.637837 98.06961 
L 515.630543 105.458995 
L 516.623249 51.064368 
L 517.615955 105.711984 
L 518.60866 140.248304 
L 519.601366 95.397579 
L 520.594072 132.882385 
L 521.586778 184.757217 
L 522.579484 135.767777 
L 523.57219 134.332501 
L 524.564896 191.228091 
L 525.557602 150.747788 
L 526.550308 148.245598 
L 527.543014 201.121001 
L 528.53572 139.602681 
L 529.528426 117.11995 
L 530.521132 158.245813 
L 531.513837 112.50675 
L 532.506543 75.494734 
L 533.499249 109.303225 
L 534.491955 98.856642 
L 535.484661 52.729422 
L 536.477367 90.921905 
L 537.470073 102.642927 
L 538.462779 42.232057 
L 539.455485 100.514733 
L 540.448191 122.184984 
L 541.440897 74.883715 
L 543.426309 142.812952 
L 544.419014 98.986567 
L 545.41172 125.932461 
L 546.404426 174.516899 
L 547.397132 121.794371 
L 548.389838 139.742826 
L 549.382544 203.561877 
L 550.37525 149.307859 
L 551.367956 133.830242 
L 552.360662 184.910166 
L 553.353368 150.684778 
L 554.346074 109.415831 
L 555.33878 159.097085 
L 556.331486 116.058654 
L 557.324192 82.799913 
L 558.316897 136.4099 
L 559.309603 99.876401 
L 560.302309 52.345508 
L 561.295015 103.749402 
L 562.287721 92.809356 
L 563.280427 40.357807 
L 564.273133 89.651112 
L 565.265839 115.819113 
L 566.258545 68.92972 
L 567.251251 114.825235 
L 568.243957 153.901203 
L 569.236663 98.575366 
L 570.229369 134.827194 
L 571.222074 160.816668 
L 572.21478 115.880537 
L 573.207486 143.830507 
L 574.200192 191.40135 
L 575.192898 162.924696 
L 576.185604 149.973347 
L 577.17831 177.793674 
L 579.163722 110.205364 
L 580.156428 163.774277 
L 581.149134 117.097746 
L 582.14184 76.412516 
L 583.134546 129.159678 
L 584.127251 108.146004 
L 585.119957 55.327539 
L 585.119957 55.327539 
" clip-path="url(#pad9671e95e)" style="fill: none; stroke: #1f77b4; stroke-width: 0.9; stroke-linecap: square"/>
   </g>
   <g id="line2d_24">
    <path d="M 77.84723 142.792208 
L 78.839936 114.327826 
L 79.832642 100.051924 
L 80.825348 139.824893 
L 81.818054 102.039734 
L 82.81076 102.373105 
L 83.803466 140.240982 
L 84.796172 108.654535 
L 85.788878 96.033516 
L 86.781583 146.90653 
L 87.774289 129.835719 
L 88.766995 87.498804 
L 89.759701 150.632906 
L 90.752407 155.827785 
L 91.745113 85.062962 
L 93.730525 149.080804 
L 94.723231 93.100174 
L 95.715937 115.013292 
L 96.708643 148.879302 
L 97.701349 88.518584 
L 98.694055 103.55215 
L 99.68676 156.32038 
L 100.679466 85.978929 
L 101.672172 100.789097 
L 102.664878 148.040014 
L 103.657584 96.154412 
L 104.65029 96.493711 
L 105.642996 148.080381 
L 106.635702 111.680555 
L 107.628408 87.207389 
L 108.621114 154.493488 
L 109.61382 115.627653 
L 110.606526 89.305056 
L 111.599232 146.144896 
L 112.591937 146.581109 
L 113.584643 93.305803 
L 114.577349 148.144041 
L 115.570055 145.479463 
L 116.562761 89.60207 
L 117.555467 148.810524 
L 118.548173 139.17563 
L 119.540879 94.951247 
L 121.526291 148.054493 
L 122.518997 90.561297 
L 123.511703 124.073355 
L 124.504409 150.645238 
L 125.497114 94.086157 
L 126.48982 89.619683 
L 127.482526 153.081813 
L 128.475232 88.723767 
L 129.467938 85.224353 
L 130.460644 155.25098 
L 131.45335 100.110809 
L 132.446056 89.788739 
L 133.438762 150.799838 
L 134.431468 139.828451 
L 135.424174 85.029559 
L 136.41688 155.982519 
L 137.409586 142.253296 
L 138.402291 86.794366 
L 139.394997 145.748615 
L 140.387703 151.353646 
L 141.380409 87.961863 
L 142.373115 149.963492 
L 143.365821 152.032149 
L 144.358527 89.837954 
L 145.351233 123.157427 
L 146.343939 145.708791 
L 147.336645 94.677886 
L 148.329351 117.458067 
L 149.322057 151.151865 
L 150.314763 86.97405 
L 151.307469 103.757847 
L 152.300174 155.30472 
L 153.29288 87.886191 
L 154.285586 102.299121 
L 155.278292 148.267174 
L 156.270998 123.56782 
L 157.263704 93.789465 
L 158.25641 146.887599 
L 159.249116 125.97543 
L 160.241822 95.153294 
L 161.234528 145.035481 
L 162.227234 120.424671 
L 163.21994 89.894516 
L 164.212646 139.21368 
L 165.205351 156.610936 
L 166.198057 84.838122 
L 167.190763 149.659441 
L 168.183469 137.478763 
L 169.176175 99.815275 
L 170.168881 109.078151 
L 171.161587 145.297256 
L 172.154293 90.705689 
L 173.146999 117.614364 
L 174.139705 154.223763 
L 175.132411 87.274617 
L 176.125117 106.007687 
L 177.117823 152.773249 
L 178.110528 87.309841 
L 179.103234 91.77945 
L 180.09594 154.938735 
L 181.088646 95.712909 
L 182.081352 91.147664 
L 183.074058 146.691396 
L 184.066764 126.826081 
L 185.05947 95.883674 
L 186.052176 144.498855 
L 187.044882 140.503476 
L 188.037588 95.634132 
L 189.030294 132.290904 
L 190.023 143.951775 
L 191.015705 96.267621 
L 192.008411 137.72448 
L 193.001117 144.66485 
L 193.993823 93.425534 
L 194.986529 115.767286 
L 195.979235 152.305202 
L 196.971941 86.896549 
L 197.964647 118.118498 
L 198.957353 153.806168 
L 199.950059 86.641015 
L 200.942765 98.425107 
L 201.935471 154.685854 
L 202.928177 91.718439 
L 203.920882 90.39451 
L 204.913588 148.362341 
L 205.906294 118.000739 
L 206.899 93.072279 
L 207.891706 148.88033 
L 208.884412 113.836572 
L 209.877118 90.756993 
L 210.869824 147.361791 
L 211.86253 139.526711 
L 212.855236 99.269677 
L 213.847942 126.802747 
L 214.840648 138.890423 
L 215.833354 100.310708 
L 216.82606 134.282801 
L 217.818765 140.121139 
L 218.811471 101.026863 
L 219.804177 128.55354 
L 220.796883 140.11958 
L 221.789589 97.449617 
L 222.782295 126.987368 
L 223.775001 149.268042 
L 224.767707 92.350768 
L 225.760413 108.937935 
L 226.753119 140.507811 
L 227.745825 109.863013 
L 228.738531 106.406821 
L 229.731237 136.693542 
L 230.723942 130.144021 
L 231.716648 94.98114 
L 232.709354 148.36476 
L 234.694766 95.551208 
L 235.687472 140.554331 
L 236.680178 140.469325 
L 237.672884 100.235178 
L 238.66559 139.968275 
L 239.658296 143.21448 
L 240.651002 94.564217 
L 242.636414 147.720496 
L 243.629119 91.55601 
L 244.621825 122.78328 
L 245.614531 150.025959 
L 246.607237 91.147351 
L 247.599943 108.345897 
L 248.592649 144.428854 
L 249.585355 98.503928 
L 250.578061 109.044807 
L 251.570767 139.602343 
L 252.563473 112.622143 
L 253.556179 104.050495 
L 254.548885 136.11487 
L 255.541591 113.123082 
L 256.534296 99.606794 
L 257.527002 145.303152 
L 258.519708 111.718147 
L 259.512414 90.629067 
L 260.50512 148.586865 
L 261.497826 143.761632 
L 262.490532 94.928352 
L 263.483238 139.464515 
L 264.475944 146.092074 
L 265.46865 93.706345 
L 266.461356 138.845679 
L 267.454062 142.75694 
L 268.446768 99.935821 
L 269.439473 124.581483 
L 270.432179 140.953032 
L 271.424885 95.933615 
L 272.417591 110.749091 
L 273.410297 154.229575 
L 274.403003 85.750064 
L 276.388415 149.271425 
L 277.381121 109.22846 
L 278.373827 100.163201 
L 279.366533 139.174595 
L 280.359239 103.012794 
L 281.351945 101.612566 
L 282.344651 140.090498 
L 283.337356 112.632972 
L 284.330062 99.341188 
L 285.322768 143.010716 
L 286.315474 138.528358 
L 287.30818 92.290488 
L 288.300886 148.939585 
L 289.293592 150.698538 
L 290.286298 88.893845 
L 291.279004 137.912891 
L 292.27171 149.622187 
L 293.264416 93.870398 
L 294.257122 136.393831 
L 295.249828 139.064969 
L 296.242533 101.564282 
L 297.235239 117.237858 
L 298.227945 143.644258 
L 299.220651 101.913347 
L 300.213357 98.093078 
L 301.206063 140.560267 
L 302.198769 105.221333 
L 303.191475 98.335828 
L 304.184181 146.840968 
L 305.176887 99.004478 
L 306.169593 86.480425 
L 307.162299 154.283197 
L 308.155005 134.910799 
L 309.14771 89.567355 
L 310.140416 150.279474 
L 311.133122 147.974466 
L 312.125828 86.962438 
L 313.118534 145.93884 
L 314.11124 154.371866 
L 315.103946 87.220667 
L 316.096652 128.563867 
L 317.089358 148.1799 
L 318.082064 93.463275 
L 319.07477 133.309939 
L 320.067476 149.782565 
L 321.060182 86.873769 
L 322.052887 109.555612 
L 323.045593 159.075183 
L 324.038299 96.637665 
L 325.031005 89.617305 
L 326.023711 144.649628 
L 327.016417 100.980715 
L 328.009123 107.879148 
L 329.001829 142.19713 
L 329.994535 119.880819 
L 330.987241 88.247382 
L 331.979947 156.727712 
L 332.972653 134.925951 
L 333.965359 82.882147 
L 334.958064 154.507344 
L 335.95077 136.390969 
L 336.943476 94.091187 
L 337.936182 142.833439 
L 338.928888 136.688565 
L 339.921594 102.253433 
L 340.9143 130.529325 
L 341.907006 136.956828 
L 342.899712 100.020605 
L 343.892418 123.136359 
L 344.885124 151.121264 
L 345.87783 88.008625 
L 346.870536 134.050275 
L 347.863241 146.995067 
L 348.855947 95.845506 
L 349.848653 119.721199 
L 350.841359 149.560638 
L 351.834065 87.710568 
L 352.826771 98.235662 
L 353.819477 156.729542 
L 355.804889 89.789953 
L 356.797595 147.221505 
L 357.790301 123.91153 
L 358.783007 94.876634 
L 359.775713 148.162218 
L 360.768419 126.206236 
L 361.761124 85.340145 
L 362.75383 155.610029 
L 363.746536 149.370277 
L 364.739242 88.44822 
L 365.731948 148.360976 
L 366.724654 142.709197 
L 367.71736 95.960908 
L 369.702772 143.163098 
L 370.695478 98.032169 
L 371.688184 130.705077 
L 372.68089 140.995856 
L 373.673596 99.973374 
L 374.666301 104.647032 
L 375.659007 145.373 
L 376.651713 92.287586 
L 377.644419 97.423711 
L 378.637125 153.506589 
L 379.629831 88.243345 
L 380.622537 106.618257 
L 381.615243 146.284104 
L 382.607949 112.3054 
L 383.600655 98.134567 
L 384.593361 143.808699 
L 385.586067 126.698521 
L 386.578773 90.440033 
L 387.571478 145.854797 
L 388.564184 149.722993 
L 389.55689 93.039328 
L 390.549596 137.65825 
L 391.542302 143.000909 
L 392.535008 95.500815 
L 393.527714 115.525073 
L 394.52042 152.986549 
L 395.513126 84.209924 
L 396.505832 98.948256 
L 397.498538 159.610029 
L 398.491244 82.934032 
L 400.476655 148.557586 
L 401.469361 107.676237 
L 402.462067 99.737877 
L 403.454773 144.545977 
L 404.447479 114.961592 
L 405.440185 82.005847 
L 406.432891 160.698543 
L 407.425597 120.928294 
L 408.418303 92.533713 
L 409.411009 140.492244 
L 410.403715 137.60008 
L 411.396421 102.918699 
L 412.389127 129.054501 
L 413.381832 145.353193 
L 414.374538 90.747803 
L 415.367244 148.435486 
L 416.35995 149.52242 
L 417.352656 93.406497 
L 418.345362 128.580036 
L 419.338068 142.978772 
L 420.330774 95.294853 
L 421.32348 110.618621 
L 422.316186 156.610018 
L 423.308892 80.035127 
L 424.301598 115.549349 
L 425.294304 159.707807 
L 426.28701 86.674815 
L 427.279715 100.714822 
L 428.272421 142.255542 
L 429.265127 112.23033 
L 430.257833 101.033309 
L 431.250539 143.617375 
L 432.243245 97.118851 
L 433.235951 88.559141 
L 434.228657 151.317593 
L 435.221363 128.685529 
L 436.214069 97.497465 
L 437.206775 140.572683 
L 438.199481 132.676008 
L 439.192187 92.753527 
L 440.184892 136.40484 
L 441.177598 156.014752 
L 442.170304 84.431563 
L 444.155716 148.41743 
L 445.148422 94.504879 
L 446.141128 110.992217 
L 447.133834 148.49609 
L 448.12654 90.295877 
L 449.119246 92.471093 
L 450.111952 153.934641 
L 451.104658 85.50251 
L 452.097364 100.859999 
L 453.090069 156.88856 
L 454.082775 100.906859 
L 455.075481 90.328817 
L 456.068187 146.195219 
L 458.053599 96.336255 
L 459.046305 146.057641 
L 460.039011 125.927283 
L 461.031717 90.304605 
L 462.024423 138.117881 
L 463.017129 147.042357 
L 464.009835 94.303388 
L 465.002541 127.19058 
L 465.995246 145.439458 
L 466.987952 94.256781 
L 467.980658 132.27929 
L 468.973364 145.262547 
L 469.96607 94.333631 
L 470.958776 103.637935 
L 471.951482 149.929497 
L 472.944188 90.426666 
L 473.936894 96.230259 
L 474.9296 147.684612 
L 475.922306 95.501237 
L 476.915012 94.554844 
L 477.907718 147.726323 
L 478.900423 106.255859 
L 479.893129 93.42539 
L 480.885835 145.047503 
L 481.878541 124.268863 
L 482.871247 98.871414 
L 483.863953 143.942639 
L 484.856659 137.006347 
L 485.849365 90.48091 
L 486.842071 148.150213 
L 487.834777 129.772389 
L 488.827483 101.476042 
L 489.820189 137.256884 
L 490.812895 135.045012 
L 491.805601 99.842255 
L 492.798306 117.818144 
L 493.791012 142.709364 
L 494.783718 97.515918 
L 495.776424 110.339462 
L 496.76913 145.749573 
L 497.761836 93.471545 
L 498.754542 99.041886 
L 499.747248 148.912802 
L 500.739954 106.279631 
L 501.73266 95.653972 
L 502.725366 141.738218 
L 503.718072 132.410595 
L 504.710778 104.96483 
L 505.703483 135.642441 
L 506.696189 131.22096 
L 507.688895 97.980655 
L 508.681601 144.825654 
L 510.667013 96.665511 
L 511.659719 138.322026 
L 512.652425 138.597238 
L 513.645131 100.554432 
L 514.637837 141.640995 
L 515.630543 146.596438 
L 516.623249 90.250851 
L 517.615955 131.840049 
L 518.60866 151.318727 
L 519.601366 88.954292 
L 520.594072 110.533473 
L 521.586778 151.363148 
L 522.579484 97.725748 
L 523.57219 93.55673 
L 524.564896 145.718814 
L 525.557602 99.687365 
L 526.550308 94.872061 
L 527.543014 148.100248 
L 528.53572 99.32218 
L 529.528426 91.162736 
L 530.521132 148.410168 
L 531.513837 120.342544 
L 532.506543 96.954894 
L 533.499249 141.585306 
L 534.491955 136.115203 
L 535.484661 96.452645 
L 536.477367 137.123957 
L 537.470073 150.049521 
L 538.462779 87.972271 
L 539.455485 139.032953 
L 540.448191 149.827602 
L 541.440897 92.780598 
L 542.433603 117.35514 
L 543.426309 145.094896 
L 544.419014 94.622587 
L 545.41172 112.74557 
L 546.404426 150.544159 
L 547.397132 88.108542 
L 548.389838 95.487625 
L 549.382544 153.793108 
L 550.37525 100.925458 
L 551.367956 91.121653 
L 552.360662 148.271044 
L 553.353368 125.131898 
L 554.346074 92.439731 
L 555.33878 149.337467 
L 556.331486 115.110753 
L 557.324192 89.494092 
L 558.316897 150.920685 
L 559.309603 126.343412 
L 560.302309 90.284962 
L 561.295015 149.216151 
L 562.287721 141.928009 
L 563.280427 90.982553 
L 564.273133 134.48183 
L 565.265839 149.470655 
L 566.258545 90.266743 
L 567.251251 122.883728 
L 568.243957 150.072475 
L 569.236663 91.426469 
L 570.229369 125.398691 
L 571.222074 147.496189 
L 572.21478 93.973694 
L 573.207486 109.464889 
L 574.200192 143.182191 
L 575.192898 111.943737 
L 576.185604 103.042275 
L 577.17831 139.259376 
L 578.171016 117.932694 
L 579.163722 91.917207 
L 580.156428 152.486401 
L 581.149134 116.566236 
L 582.14184 87.795291 
L 583.134546 151.61203 
L 584.127251 138.059323 
L 585.119957 88.838947 
L 585.119957 88.838947 
" clip-path="url(#pad9671e95e)" style="fill: none; stroke: #ff7f0e; stroke-width: 0.9; stroke-linecap: square"/>
   </g>
   <g id="patch_3">
    <path d="M 52.483594 221.902125 
L 52.483594 22.318125 
" style="fill: none; stroke: #000000; stroke-width: 0.8; stroke-linejoin: miter; stroke-linecap: square"/>
   </g>
   <g id="patch_4">
    <path d="M 610.483594 221.902125 
L 610.483594 22.318125 
" style="fill: none; stroke: #000000; stroke-width: 0.8; stroke-linejoin: miter; stroke-linecap: square"/>
   </g>
   <g id="patch_5">
    <path d="M 52.483594 221.902125 
L 610.483594 221.902125 
" style="fill: none; stroke: #000000; stroke-width: 0.8; stroke-linejoin: miter; stroke-linecap: square"/>
   </g>
   <g id="patch_6">
    <path d="M 52.483594 22.318125 
L 610.483594 22.318125 
" style="fill: none; stroke: #000000; stroke-width: 0.8; stroke-linejoin: miter; stroke-linecap: square"/>
   </g>
   <g id="text_14">
    <!-- Before/after IMF gating -->
    <g transform="translate(262.321406 16.318125) scale(0.12 -0.12)">
     <defs>
      <path id="DejaVuSans-25" d="M 1259 2228 
L 1259 519 
L 2272 519 
Q 2781 519 3026 730 
Q 3272 941 3272 1375 
Q 3272 1813 3026 2020 
Q 2781 2228 2272 2228 
L 1259 2228 
z
M 1259 4147 
L 1259 2741 
L 2194 2741 
Q 2656 2741 2882 2914 
Q 3109 3088 3109 3444 
Q 3109 3797 2882 3972 
Q 2656 4147 2194 4147 
L 1259 4147 
z
M 628 4666 
L 2241 4666 
Q 2963 4666 3353 4366 
Q 3744 4066 3744 3513 
Q 3744 3084 3544 2831 
Q 3344 2578 2956 2516 
Q 3422 2416 3680 2098 
Q 3938 1781 3938 1306 
Q 3938 681 3513 340 
Q 3088 0 2303 0 
L 628 0 
L 628 4666 
z
" transform="scale(0.015625)"/>
      <path id="DejaVuSans-49" d="M 2375 4863 
L 2375 4384 
L 1825 4384 
Q 1516 4384 1395 4259 
Q 1275 4134 1275 3809 
L 1275 3500 
L 2222 3500 
L 2222 3053 
L 1275 3053 
L 1275 0 
L 697 0 
L 697 3053 
L 147 3053 
L 147 3500 
L 697 3500 
L 697 3744 
Q 697 4328 969 4595 
Q 1241 4863 1831 4863 
L 2375 4863 
z
" transform="scale(0.015625)"/>
      <path id="DejaVuSans-52" d="M 1959 3097 
Q 1497 3097 1228 2736 
Q 959 2375 959 1747 
Q 959 1119 1226 758 
Q 1494 397 1959 397 
Q 2419 397 2687 759 
Q 2956 1122 2956 1747 
Q 2956 2369 2687 2733 
Q 2419 3097 1959 3097 
z
M 1959 3584 
Q 2709 3584 3137 3096 
Q 3566 2609 3566 1747 
Q 3566 888 3137 398 
Q 2709 -91 1959 -91 
Q 1206 -91 779 398 
Q 353 888 353 1747 
Q 353 2609 779 3096 
Q 1206 3584 1959 3584 
z
" transform="scale(0.015625)"/>
      <path id="DejaVuSans-55" d="M 2631 2963 
Q 2534 3019 2420 3045 
Q 2306 3072 2169 3072 
Q 1681 3072 1420 2755 
Q 1159 2438 1159 1844 
L 1159 0 
L 581 0 
L 581 3500 
L 1159 3500 
L 1159 2956 
Q 1341 3275 1631 3429 
Q 1922 3584 2338 3584 
Q 2397 3584 2469 3576 
Q 2541 3569 2628 3553 
L 2631 2963 
z
" transform="scale(0.015625)"/>
      <path id="DejaVuSans-12" d="M 1625 4666 
L 2156 4666 
L 531 -594 
L 0 -594 
L 1625 4666 
z
" transform="scale(0.015625)"/>
      <path id="DejaVuSans-2c" d="M 628 4666 
L 1259 4666 
L 1259 0 
L 628 0 
L 628 4666 
z
" transform="scale(0.015625)"/>
      <path id="DejaVuSans-30" d="M 628 4666 
L 1569 4666 
L 2759 1491 
L 3956 4666 
L 4897 4666 
L 4897 0 
L 4281 0 
L 4281 4097 
L 3078 897 
L 2444 897 
L 1241 4097 
L 1241 0 
L 628 0 
L 628 4666 
z
" transform="scale(0.015625)"/>
      <path id="DejaVuSans-29" d="M 628 4666 
L 3309 4666 
L 3309 4134 
L 1259 4134 
L 1259 2759 
L 3109 2759 
L 3109 2228 
L 1259 2228 
L 1259 0 
L 628 0 
L 628 4666 
z
" transform="scale(0.015625)"/>
      <path id="DejaVuSans-4a" d="M 2906 1791 
Q 2906 2416 2648 2759 
Q 2391 3103 1925 3103 
Q 1463 3103 1205 2759 
Q 947 2416 947 1791 
Q 947 1169 1205 825 
Q 1463 481 1925 481 
Q 2391 481 2648 825 
Q 2906 1169 2906 1791 
z
M 3481 434 
Q 3481 -459 3084 -895 
Q 2688 -1331 1869 -1331 
Q 1566 -1331 1297 -1286 
Q 1028 -1241 775 -1147 
L 775 -588 
Q 1028 -725 1275 -790 
Q 1522 -856 1778 -856 
Q 2344 -856 2625 -561 
Q 2906 -266 2906 331 
L 2906 616 
Q 2728 306 2450 153 
Q 2172 0 1784 0 
Q 1141 0 747 490 
Q 353 981 353 1791 
Q 353 2603 747 3093 
Q 1141 3584 1784 3584 
Q 2172 3584 2450 3431 
Q 2728 3278 2906 2969 
L 2906 3500 
L 3481 3500 
L 3481 434 
z
" transform="scale(0.015625)"/>
     </defs>
     <use xlink:href="#DejaVuSans-25"/>
     <use xlink:href="#DejaVuSans-48" transform="translate(68.609375 0)"/>
     <use xlink:href="#DejaVuSans-49" transform="translate(130.140625 0)"/>
     <use xlink:href="#DejaVuSans-52" transform="translate(165.34375 0)"/>
     <use xlink:href="#DejaVuSans-55" transform="translate(226.53125 0)"/>
     <use xlink:href="#DejaVuSans-48" transform="translate(265.4375 0)"/>
     <use xlink:href="#DejaVuSans-12" transform="translate(326.96875 0)"/>
     <use xlink:href="#DejaVuSans-44" transform="translate(360.65625 0)"/>
     <use xlink:href="#DejaVuSans-49" transform="translate(421.9375 0)"/>
     <use xlink:href="#DejaVuSans-57" transform="translate(455.390625 0)"/>
     <use xlink:href="#DejaVuSans-48" transform="translate(494.59375 0)"/>
     <use xlink:href="#DejaVuSans-55" transform="translate(556.125 0)"/>
     <use xlink:href="#DejaVuSans-3" transform="translate(597.234375 0)"/>
     <use xlink:href="#DejaVuSans-2c" transform="translate(629.015625 0)"/>
     <use xlink:href="#DejaVuSans-30" transform="translate(658.515625 0)"/>
     <use xlink:href="#DejaVuSans-29" transform="translate(744.796875 0)"/>
     <use xlink:href="#DejaVuSans-3" transform="translate(802.3125 0)"/>
     <use xlink:href="#DejaVuSans-4a" transform="translate(834.09375 0)"/>
     <use xlink:href="#DejaVuSans-44" transform="translate(897.578125 0)"/>
     <use xlink:href="#DejaVuSans-57" transform="translate(958.859375 0)"/>
     <use xlink:href="#DejaVuSans-4c" transform="translate(998.0625 0)"/>
     <use xlink:href="#DejaVuSans-51" transform="translate(1025.84375 0)"/>
     <use xlink:href="#DejaVuSans-4a" transform="translate(1089.21875 0)"/>
    </g>
   </g>
   <g id="legend_1">
    <g id="patch_7">
     <path d="M 504.655469 216.902125 
L 603.483594 216.902125 
Q 605.483594 216.902125 605.483594 214.902125 
L 605.483594 185.900562 
Q 605.483594 183.900562 603.483594 183.900562 
L 504.655469 183.900562 
Q 502.655469 183.900562 502.655469 185.900562 
L 502.655469 214.902125 
Q 502.655469 216.902125 504.655469 216.902125 
z
" style="fill: #ffffff; opacity: 0.8; stroke: #cccccc; stroke-linejoin: miter"/>
    </g>
    <g id="line2d_25">
     <path d="M 506.655469 191.999 
L 516.655469 191.999 
L 526.655469 191.999 
" style="fill: none; stroke: #1f77b4; stroke-width: 0.9; stroke-linecap: square"/>
    </g>
    <g id="text_15">
     <!-- Preprocessed -->
     <g transform="translate(534.655469 195.499) scale(0.1 -0.1)">
      <defs>
       <path id="DejaVuSans-33" d="M 1259 4147 
L 1259 2394 
L 2053 2394 
Q 2494 2394 2734 2622 
Q 2975 2850 2975 3272 
Q 2975 3691 2734 3919 
Q 2494 4147 2053 4147 
L 1259 4147 
z
M 628 4666 
L 2053 4666 
Q 2838 4666 3239 4311 
Q 3641 3956 3641 3272 
Q 3641 2581 3239 2228 
Q 2838 1875 2053 1875 
L 1259 1875 
L 1259 0 
L 628 0 
L 628 4666 
z
" transform="scale(0.015625)"/>
      </defs>
      <use xlink:href="#DejaVuSans-33"/>
      <use xlink:href="#DejaVuSans-55" transform="translate(58.546875 0)"/>
      <use xlink:href="#DejaVuSans-48" transform="translate(97.453125 0)"/>
      <use xlink:href="#DejaVuSans-53" transform="translate(158.984375 0)"/>
      <use xlink:href="#DejaVuSans-55" transform="translate(222.46875 0)"/>
      <use xlink:href="#DejaVuSans-52" transform="translate(261.375 0)"/>
      <use xlink:href="#DejaVuSans-46" transform="translate(322.5625 0)"/>
      <use xlink:href="#DejaVuSans-48" transform="translate(377.546875 0)"/>
      <use xlink:href="#DejaVuSans-56" transform="translate(439.078125 0)"/>
      <use xlink:href="#DejaVuSans-56" transform="translate(491.171875 0)"/>
      <use xlink:href="#DejaVuSans-48" transform="translate(543.265625 0)"/>
      <use xlink:href="#DejaVuSans-47" transform="translate(604.796875 0)"/>
     </g>
    </g>
    <g id="line2d_26">
     <path d="M 506.655469 206.999781 
L 516.655469 206.999781 
L 526.655469 206.999781 
" style="fill: none; stroke: #ff7f0e; stroke-width: 0.9; stroke-linecap: square"/>
    </g>
    <g id="text_16">
     <!-- Weighted -->
     <g transform="translate(534.655469 210.499781) scale(0.1 -0.1)">
      <defs>
       <path id="DejaVuSans-3a" d="M 213 4666 
L 850 4666 
L 1831 722 
L 2809 4666 
L 3519 4666 
L 4500 722 
L 5478 4666 
L 6119 4666 
L 4947 0 
L 4153 0 
L 3169 4050 
L 2175 0 
L 1381 0 
L 213 4666 
z
" transform="scale(0.015625)"/>
      </defs>
      <use xlink:href="#DejaVuSans-3a"/>
      <use xlink:href="#DejaVuSans-48" transform="translate(93.015625 0)"/>
      <use xlink:href="#DejaVuSans-4c" transform="translate(154.546875 0)"/>
      <use xlink:href="#DejaVuSans-4a" transform="translate(182.328125 0)"/>
      <use xlink:href="#DejaVuSans-4b" transform="translate(245.8125 0)"/>
      <use xlink:href="#DejaVuSans-57" transform="translate(309.1875 0)"/>
      <use xlink:href="#DejaVuSans-48" transform="translate(348.390625 0)"/>
      <use xlink:href="#DejaVuSans-47" transform="translate(409.921875 0)"/>
     </g>
    </g>
   </g>
  </g>
 </g>
 <defs>
  <clipPath id="pad9671e95e">
   <rect x="52.483594" y="22.318125" width="558" height="199.584"/>
  </clipPath>
 </defs>
</svg>
